G04 #@! TF.GenerationSoftware,KiCad,Pcbnew,5.1.5-52549c5~84~ubuntu18.04.1*
G04 #@! TF.CreationDate,2020-03-19T15:54:58+02:00*
G04 #@! TF.ProjectId,ESP32-DevKit-Lipo_Rev_C,45535033-322d-4446-9576-4b69742d4c69,C*
G04 #@! TF.SameCoordinates,Original*
G04 #@! TF.FileFunction,Soldermask,Bot*
G04 #@! TF.FilePolarity,Negative*
%FSLAX46Y46*%
G04 Gerber Fmt 4.6, Leading zero omitted, Abs format (unit mm)*
G04 Created by KiCad (PCBNEW 5.1.5-52549c5~84~ubuntu18.04.1) date 2020-03-19 15:54:58*
%MOMM*%
%LPD*%
G04 APERTURE LIST*
%ADD10C,2.101600*%
%ADD11C,1.501600*%
%ADD12R,1.501600X1.501600*%
%ADD13R,0.609600X0.863600*%
%ADD14C,1.101600*%
%ADD15C,1.879600*%
%ADD16R,1.879600X1.879600*%
%ADD17C,0.701600*%
%ADD18O,1.301600X1.901600*%
%ADD19C,0.801600*%
G04 APERTURE END LIST*
D10*
X142510000Y-80022000D03*
D11*
X152384760Y-116222780D03*
D12*
X150355300Y-116225320D03*
D13*
X150368000Y-117983000D03*
X149606000Y-117983000D03*
D14*
X152400000Y-117983000D03*
D15*
X130810000Y-80010000D03*
X130810000Y-77470000D03*
X130810000Y-74930000D03*
D16*
X130810000Y-72390000D03*
D15*
X130810000Y-82550000D03*
X130810000Y-85090000D03*
X130810000Y-90170000D03*
X130810000Y-87630000D03*
X130810000Y-92710000D03*
X130810000Y-95250000D03*
X130810000Y-100330000D03*
X130810000Y-97790000D03*
X130810000Y-102870000D03*
X130810000Y-105410000D03*
X130810000Y-110490000D03*
X130810000Y-107950000D03*
X130810000Y-118110000D03*
X130810000Y-115570000D03*
X130810000Y-113030000D03*
X156210000Y-80010000D03*
X156210000Y-77470000D03*
X156210000Y-74930000D03*
D16*
X156210000Y-72390000D03*
D15*
X156210000Y-82550000D03*
X156210000Y-85090000D03*
X156210000Y-90170000D03*
X156210000Y-87630000D03*
X156210000Y-92710000D03*
X156210000Y-95250000D03*
X156210000Y-100330000D03*
X156210000Y-97790000D03*
X156210000Y-102870000D03*
X156210000Y-105410000D03*
X156210000Y-110490000D03*
X156210000Y-107950000D03*
X156210000Y-118110000D03*
X156210000Y-115570000D03*
X156210000Y-113030000D03*
D17*
X141510000Y-113797000D03*
X145510000Y-113797000D03*
D18*
X139910000Y-115947000D03*
X139910000Y-112477000D03*
X147110000Y-112477000D03*
X147110000Y-115947000D03*
D19*
X134885000Y-115570000D03*
X133085000Y-115570000D03*
D13*
X135382000Y-80137000D03*
X134620000Y-80137000D03*
X135382000Y-77597000D03*
X134620000Y-77597000D03*
M02*
