M48
; DRILL file {KiCad 5.1.5-52549c5~84~ubuntu18.04.1} date 19.03.2020 (чт) 15:55:13 EET
; FORMAT={-:-/ absolute / inch / decimal}
; #@! TF.CreationDate,2020-03-19T15:55:13+02:00
; #@! TF.GenerationSoftware,Kicad,Pcbnew,5.1.5-52549c5~84~ubuntu18.04.1
; #@! TF.FileFunction,Plated,1,2,PTH
FMAT,2
INCH
T1C0.0236
T2C0.0354
T3C0.0394
T4C0.0512
%
G90
G05
T1
X5.195Y-3.3
X5.225Y-3.0
X5.225Y-4.66
X5.23Y-4.065
X5.245Y-3.07
X5.245Y-3.185
X5.2948Y-4.2095
X5.3125Y-4.345
X5.32Y-4.4565
X5.325Y-4.66
X5.3747Y-3.6548
X5.375Y-2.835
X5.375Y-2.905
X5.375Y-2.955
X5.375Y-3.055
X5.375Y-3.105
X5.375Y-3.155
X5.375Y-3.205
X5.375Y-3.255
X5.375Y-3.305
X5.375Y-3.355
X5.375Y-3.405
X5.375Y-3.455
X5.375Y-3.505
X5.375Y-3.555
X5.375Y-3.605
X5.375Y-4.585
X5.38Y-4.065
X5.3988Y-3.7038
X5.4Y-3.755
X5.415Y-4.245
X5.42Y-4.585
X5.4256Y-3.38
X5.4256Y-3.4294
X5.4256Y-3.4844
X5.45Y-4.115
X5.475Y-2.835
X5.5Y-3.785
X5.525Y-2.875
X5.53Y-4.615
X5.575Y-2.835
X5.575Y-2.925
X5.575Y-3.845
X5.575Y-4.57
X5.575Y-4.615
X5.5997Y-4.1647
X5.6019Y-4.1131
X5.6024Y-3.3734
X5.615Y-3.845
X5.62Y-4.0629
X5.625Y-2.875
X5.625Y-2.975
X5.65Y-3.3
X5.65Y-3.425
X5.65Y-3.67
X5.65Y-3.72
X5.67Y-4.0004
X5.67Y-4.06
X5.675Y-2.835
X5.675Y-2.925
X5.685Y-3.84
X5.685Y-4.245
X5.685Y-4.29
X5.685Y-4.34
X5.6869Y-4.1131
X5.695Y-4.615
X5.7Y-3.375
X5.7Y-3.74
X5.72Y-4.165
X5.725Y-2.875
X5.725Y-2.975
X5.735Y-4.245
X5.735Y-4.29
X5.745Y-4.075
X5.75Y-3.025
X5.75Y-3.125
X5.75Y-3.225
X5.75Y-3.3
X5.75Y-3.425
X5.75Y-3.75
X5.77Y-2.835
X5.77Y-2.925
X5.77Y-4.615
X5.795Y-3.845
X5.8Y-2.975
X5.8Y-3.075
X5.8Y-3.175
X5.8Y-3.275
X5.8Y-3.375
X5.825Y-3.96
X5.85Y-3.025
X5.85Y-3.125
X5.85Y-3.225
X5.87Y-3.915
X5.9Y-2.975
X5.9Y-3.075
X5.9Y-3.175
X5.905Y-3.81
X5.91Y-3.35
X5.915Y-4.47
X5.925Y-2.835
X5.925Y-3.405
X5.925Y-3.455
X5.925Y-3.555
X5.925Y-3.605
X5.925Y-3.655
X5.925Y-3.705
X5.925Y-3.755
X5.97Y-4.335
X5.9812Y-4.1788
X5.985Y-4.09
X6.075Y-4.655
X5.5398Y-3.0796
X5.5398Y-3.1505
X5.5398Y-3.2213
X5.6106Y-3.0796
X5.6106Y-3.2213
X5.6815Y-3.0796
X5.6815Y-3.1505
X5.6815Y-3.2213
T2
X5.9195Y-4.5758
X5.9994Y-4.5757
T3
X5.15Y-2.85
X5.15Y-2.95
X5.15Y-3.05
X5.15Y-3.15
X5.15Y-3.25
X5.15Y-3.35
X5.15Y-3.45
X5.15Y-3.55
X5.15Y-3.65
X5.15Y-3.75
X5.15Y-3.85
X5.15Y-3.95
X5.15Y-4.05
X5.15Y-4.15
X5.15Y-4.25
X5.15Y-4.35
X5.15Y-4.45
X5.15Y-4.55
X5.15Y-4.65
X6.15Y-2.85
X6.15Y-2.95
X6.15Y-3.05
X6.15Y-3.15
X6.15Y-3.25
X6.15Y-3.35
X6.15Y-3.45
X6.15Y-3.55
X6.15Y-3.65
X6.15Y-3.75
X6.15Y-3.85
X6.15Y-3.95
X6.15Y-4.05
X6.15Y-4.15
X6.15Y-4.25
X6.15Y-4.35
X6.15Y-4.45
X6.15Y-4.55
X6.15Y-4.65
T4
X5.6106Y-3.1505
T1
G00X5.5083Y-4.4164
M15
G01X5.5083Y-4.44
M16
G05
G00X5.5083Y-4.553
M15
G01X5.5083Y-4.5767
M16
G05
G00X5.7917Y-4.4164
M15
G01X5.7917Y-4.44
M16
G05
G00X5.7917Y-4.553
M15
G01X5.7917Y-4.5767
M16
G05
T0
M30
