G04 #@! TF.GenerationSoftware,KiCad,Pcbnew,5.1.5-52549c5~84~ubuntu18.04.1*
G04 #@! TF.CreationDate,2020-03-19T16:33:17+02:00*
G04 #@! TF.ProjectId,ESP32-DevKit-Lipo_Rev_C,45535033-322d-4446-9576-4b69742d4c69,C*
G04 #@! TF.SameCoordinates,Original*
G04 #@! TF.FileFunction,Copper,L1,Top*
G04 #@! TF.FilePolarity,Positive*
%FSLAX46Y46*%
G04 Gerber Fmt 4.6, Leading zero omitted, Abs format (unit mm)*
G04 Created by KiCad (PCBNEW 5.1.5-52549c5~84~ubuntu18.04.1) date 2020-03-19 16:33:17*
%MOMM*%
%LPD*%
G04 APERTURE LIST*
%ADD10C,0.952500*%
%ADD11C,1.000000*%
%ADD12R,2.000000X0.900000*%
%ADD13C,1.300000*%
%ADD14R,0.900000X2.000000*%
%ADD15R,5.000000X5.000000*%
%ADD16C,2.000000*%
%ADD17C,1.400000*%
%ADD18R,1.400000X1.400000*%
%ADD19R,0.800000X0.800000*%
%ADD20C,1.000000*%
%ADD21R,1.200000X1.400000*%
%ADD22R,1.016000X1.016000*%
%ADD23C,1.778000*%
%ADD24R,1.778000X1.778000*%
%ADD25R,1.400000X1.000000*%
%ADD26R,3.000000X1.600000*%
%ADD27R,1.000000X1.400000*%
%ADD28R,1.200000X0.550000*%
%ADD29R,1.270000X0.325000*%
%ADD30R,0.500000X1.650000*%
%ADD31R,0.325000X1.650000*%
%ADD32R,1.100000X1.000000*%
%ADD33O,1.200000X1.800000*%
%ADD34R,1.500000X0.900000*%
%ADD35R,0.550000X0.500000*%
%ADD36R,0.500000X0.550000*%
%ADD37C,1.016000*%
%ADD38C,0.762000*%
%ADD39C,0.508000*%
%ADD40C,0.254000*%
%ADD41C,0.406400*%
%ADD42C,0.914400*%
%ADD43C,1.270000*%
%ADD44C,0.355600*%
%ADD45C,0.228600*%
%ADD46C,0.127000*%
G04 APERTURE END LIST*
D10*
X88355714Y-142693571D02*
X88355714Y-138883571D01*
X89262857Y-138883571D01*
X89807142Y-139065000D01*
X90170000Y-139427857D01*
X90351428Y-139790714D01*
X90532857Y-140516428D01*
X90532857Y-141060714D01*
X90351428Y-141786428D01*
X90170000Y-142149285D01*
X89807142Y-142512142D01*
X89262857Y-142693571D01*
X88355714Y-142693571D01*
X92165714Y-142693571D02*
X92165714Y-140153571D01*
X92165714Y-138883571D02*
X91984285Y-139065000D01*
X92165714Y-139246428D01*
X92347142Y-139065000D01*
X92165714Y-138883571D01*
X92165714Y-139246428D01*
X93980000Y-142693571D02*
X93980000Y-140153571D01*
X93980000Y-140516428D02*
X94161428Y-140335000D01*
X94524285Y-140153571D01*
X95068571Y-140153571D01*
X95431428Y-140335000D01*
X95612857Y-140697857D01*
X95612857Y-142693571D01*
X95612857Y-140697857D02*
X95794285Y-140335000D01*
X96157142Y-140153571D01*
X96701428Y-140153571D01*
X97064285Y-140335000D01*
X97245714Y-140697857D01*
X97245714Y-142693571D01*
X100511428Y-142512142D02*
X100148571Y-142693571D01*
X99422857Y-142693571D01*
X99060000Y-142512142D01*
X98878571Y-142149285D01*
X98878571Y-140697857D01*
X99060000Y-140335000D01*
X99422857Y-140153571D01*
X100148571Y-140153571D01*
X100511428Y-140335000D01*
X100692857Y-140697857D01*
X100692857Y-141060714D01*
X98878571Y-141423571D01*
X102325714Y-140153571D02*
X102325714Y-142693571D01*
X102325714Y-140516428D02*
X102507142Y-140335000D01*
X102870000Y-140153571D01*
X103414285Y-140153571D01*
X103777142Y-140335000D01*
X103958571Y-140697857D01*
X103958571Y-142693571D01*
X105591428Y-142512142D02*
X105954285Y-142693571D01*
X106680000Y-142693571D01*
X107042857Y-142512142D01*
X107224285Y-142149285D01*
X107224285Y-141967857D01*
X107042857Y-141605000D01*
X106680000Y-141423571D01*
X106135714Y-141423571D01*
X105772857Y-141242142D01*
X105591428Y-140879285D01*
X105591428Y-140697857D01*
X105772857Y-140335000D01*
X106135714Y-140153571D01*
X106680000Y-140153571D01*
X107042857Y-140335000D01*
X108857142Y-142693571D02*
X108857142Y-140153571D01*
X108857142Y-138883571D02*
X108675714Y-139065000D01*
X108857142Y-139246428D01*
X109038571Y-139065000D01*
X108857142Y-138883571D01*
X108857142Y-139246428D01*
X111215714Y-142693571D02*
X110852857Y-142512142D01*
X110671428Y-142330714D01*
X110490000Y-141967857D01*
X110490000Y-140879285D01*
X110671428Y-140516428D01*
X110852857Y-140335000D01*
X111215714Y-140153571D01*
X111760000Y-140153571D01*
X112122857Y-140335000D01*
X112304285Y-140516428D01*
X112485714Y-140879285D01*
X112485714Y-141967857D01*
X112304285Y-142330714D01*
X112122857Y-142512142D01*
X111760000Y-142693571D01*
X111215714Y-142693571D01*
X114118571Y-140153571D02*
X114118571Y-142693571D01*
X114118571Y-140516428D02*
X114300000Y-140335000D01*
X114662857Y-140153571D01*
X115207142Y-140153571D01*
X115570000Y-140335000D01*
X115751428Y-140697857D01*
X115751428Y-142693571D01*
X117384285Y-142512142D02*
X117747142Y-142693571D01*
X118472857Y-142693571D01*
X118835714Y-142512142D01*
X119017142Y-142149285D01*
X119017142Y-141967857D01*
X118835714Y-141605000D01*
X118472857Y-141423571D01*
X117928571Y-141423571D01*
X117565714Y-141242142D01*
X117384285Y-140879285D01*
X117384285Y-140697857D01*
X117565714Y-140335000D01*
X117928571Y-140153571D01*
X118472857Y-140153571D01*
X118835714Y-140335000D01*
X120650000Y-142330714D02*
X120831428Y-142512142D01*
X120650000Y-142693571D01*
X120468571Y-142512142D01*
X120650000Y-142330714D01*
X120650000Y-142693571D01*
X120650000Y-140335000D02*
X120831428Y-140516428D01*
X120650000Y-140697857D01*
X120468571Y-140516428D01*
X120650000Y-140335000D01*
X120650000Y-140697857D01*
X127362857Y-142693571D02*
X125185714Y-142693571D01*
X126274285Y-142693571D02*
X126274285Y-138883571D01*
X125911428Y-139427857D01*
X125548571Y-139790714D01*
X125185714Y-139972142D01*
X128995714Y-142330714D02*
X129177142Y-142512142D01*
X128995714Y-142693571D01*
X128814285Y-142512142D01*
X128995714Y-142330714D01*
X128995714Y-142693571D01*
X132805714Y-142693571D02*
X130628571Y-142693571D01*
X131717142Y-142693571D02*
X131717142Y-138883571D01*
X131354285Y-139427857D01*
X130991428Y-139790714D01*
X130628571Y-139972142D01*
X134075714Y-142693571D02*
X136071428Y-140153571D01*
X134075714Y-140153571D02*
X136071428Y-142693571D01*
X139518571Y-142693571D02*
X137341428Y-142693571D01*
X138430000Y-142693571D02*
X138430000Y-138883571D01*
X138067142Y-139427857D01*
X137704285Y-139790714D01*
X137341428Y-139972142D01*
X141151428Y-142330714D02*
X141332857Y-142512142D01*
X141151428Y-142693571D01*
X140970000Y-142512142D01*
X141151428Y-142330714D01*
X141151428Y-142693571D01*
X143147142Y-142693571D02*
X143872857Y-142693571D01*
X144235714Y-142512142D01*
X144417142Y-142330714D01*
X144780000Y-141786428D01*
X144961428Y-141060714D01*
X144961428Y-139609285D01*
X144780000Y-139246428D01*
X144598571Y-139065000D01*
X144235714Y-138883571D01*
X143510000Y-138883571D01*
X143147142Y-139065000D01*
X142965714Y-139246428D01*
X142784285Y-139609285D01*
X142784285Y-140516428D01*
X142965714Y-140879285D01*
X143147142Y-141060714D01*
X143510000Y-141242142D01*
X144235714Y-141242142D01*
X144598571Y-141060714D01*
X144780000Y-140879285D01*
X144961428Y-140516428D01*
X146412857Y-138883571D02*
X146412857Y-139609285D01*
X147864285Y-138883571D02*
X147864285Y-139609285D01*
X150585714Y-144145000D02*
X150404285Y-143963571D01*
X150041428Y-143419285D01*
X149860000Y-143056428D01*
X149678571Y-142512142D01*
X149497142Y-141605000D01*
X149497142Y-140879285D01*
X149678571Y-139972142D01*
X149860000Y-139427857D01*
X150041428Y-139065000D01*
X150404285Y-138520714D01*
X150585714Y-138339285D01*
X151855714Y-139246428D02*
X152037142Y-139065000D01*
X152400000Y-138883571D01*
X153307142Y-138883571D01*
X153670000Y-139065000D01*
X153851428Y-139246428D01*
X154032857Y-139609285D01*
X154032857Y-139972142D01*
X153851428Y-140516428D01*
X151674285Y-142693571D01*
X154032857Y-142693571D01*
X155302857Y-138883571D02*
X157842857Y-138883571D01*
X156210000Y-142693571D01*
X159294285Y-142330714D02*
X159475714Y-142512142D01*
X159294285Y-142693571D01*
X159112857Y-142512142D01*
X159294285Y-142330714D01*
X159294285Y-142693571D01*
X161290000Y-142693571D02*
X162015714Y-142693571D01*
X162378571Y-142512142D01*
X162560000Y-142330714D01*
X162922857Y-141786428D01*
X163104285Y-141060714D01*
X163104285Y-139609285D01*
X162922857Y-139246428D01*
X162741428Y-139065000D01*
X162378571Y-138883571D01*
X161652857Y-138883571D01*
X161290000Y-139065000D01*
X161108571Y-139246428D01*
X160927142Y-139609285D01*
X160927142Y-140516428D01*
X161108571Y-140879285D01*
X161290000Y-141060714D01*
X161652857Y-141242142D01*
X162378571Y-141242142D01*
X162741428Y-141060714D01*
X162922857Y-140879285D01*
X163104285Y-140516428D01*
X166370000Y-140153571D02*
X166370000Y-142693571D01*
X165462857Y-138702142D02*
X164555714Y-141423571D01*
X166914285Y-141423571D01*
X168002857Y-142693571D02*
X169998571Y-140153571D01*
X168002857Y-140153571D02*
X169998571Y-142693571D01*
X173082857Y-140153571D02*
X173082857Y-142693571D01*
X172175714Y-138702142D02*
X171268571Y-141423571D01*
X173627142Y-141423571D01*
X175622857Y-140516428D02*
X175260000Y-140335000D01*
X175078571Y-140153571D01*
X174897142Y-139790714D01*
X174897142Y-139609285D01*
X175078571Y-139246428D01*
X175260000Y-139065000D01*
X175622857Y-138883571D01*
X176348571Y-138883571D01*
X176711428Y-139065000D01*
X176892857Y-139246428D01*
X177074285Y-139609285D01*
X177074285Y-139790714D01*
X176892857Y-140153571D01*
X176711428Y-140335000D01*
X176348571Y-140516428D01*
X175622857Y-140516428D01*
X175260000Y-140697857D01*
X175078571Y-140879285D01*
X174897142Y-141242142D01*
X174897142Y-141967857D01*
X175078571Y-142330714D01*
X175260000Y-142512142D01*
X175622857Y-142693571D01*
X176348571Y-142693571D01*
X176711428Y-142512142D01*
X176892857Y-142330714D01*
X177074285Y-141967857D01*
X177074285Y-141242142D01*
X176892857Y-140879285D01*
X176711428Y-140697857D01*
X176348571Y-140516428D01*
X178707142Y-142330714D02*
X178888571Y-142512142D01*
X178707142Y-142693571D01*
X178525714Y-142512142D01*
X178707142Y-142330714D01*
X178707142Y-142693571D01*
X180340000Y-139246428D02*
X180521428Y-139065000D01*
X180884285Y-138883571D01*
X181791428Y-138883571D01*
X182154285Y-139065000D01*
X182335714Y-139246428D01*
X182517142Y-139609285D01*
X182517142Y-139972142D01*
X182335714Y-140516428D01*
X180158571Y-142693571D01*
X182517142Y-142693571D01*
X185782857Y-138883571D02*
X185057142Y-138883571D01*
X184694285Y-139065000D01*
X184512857Y-139246428D01*
X184150000Y-139790714D01*
X183968571Y-140516428D01*
X183968571Y-141967857D01*
X184150000Y-142330714D01*
X184331428Y-142512142D01*
X184694285Y-142693571D01*
X185420000Y-142693571D01*
X185782857Y-142512142D01*
X185964285Y-142330714D01*
X186145714Y-141967857D01*
X186145714Y-141060714D01*
X185964285Y-140697857D01*
X185782857Y-140516428D01*
X185420000Y-140335000D01*
X184694285Y-140335000D01*
X184331428Y-140516428D01*
X184150000Y-140697857D01*
X183968571Y-141060714D01*
X187778571Y-142693571D02*
X187778571Y-140153571D01*
X187778571Y-140516428D02*
X187960000Y-140335000D01*
X188322857Y-140153571D01*
X188867142Y-140153571D01*
X189230000Y-140335000D01*
X189411428Y-140697857D01*
X189411428Y-142693571D01*
X189411428Y-140697857D02*
X189592857Y-140335000D01*
X189955714Y-140153571D01*
X190500000Y-140153571D01*
X190862857Y-140335000D01*
X191044285Y-140697857D01*
X191044285Y-142693571D01*
X192858571Y-142693571D02*
X192858571Y-140153571D01*
X192858571Y-140516428D02*
X193040000Y-140335000D01*
X193402857Y-140153571D01*
X193947142Y-140153571D01*
X194310000Y-140335000D01*
X194491428Y-140697857D01*
X194491428Y-142693571D01*
X194491428Y-140697857D02*
X194672857Y-140335000D01*
X195035714Y-140153571D01*
X195580000Y-140153571D01*
X195942857Y-140335000D01*
X196124285Y-140697857D01*
X196124285Y-142693571D01*
X197575714Y-144145000D02*
X197757142Y-143963571D01*
X198120000Y-143419285D01*
X198301428Y-143056428D01*
X198482857Y-142512142D01*
X198664285Y-141605000D01*
X198664285Y-140879285D01*
X198482857Y-139972142D01*
X198301428Y-139427857D01*
X198120000Y-139065000D01*
X197757142Y-138520714D01*
X197575714Y-138339285D01*
D11*
X118867142Y-128548095D02*
X119105238Y-128310000D01*
X119581428Y-128071904D01*
X120771904Y-128071904D01*
X121248095Y-128310000D01*
X121486190Y-128548095D01*
X121724285Y-129024285D01*
X121724285Y-129500476D01*
X121486190Y-130214761D01*
X118629047Y-133071904D01*
X121724285Y-133071904D01*
X130057619Y-133071904D02*
X127676666Y-133071904D01*
X127676666Y-128071904D01*
X133867142Y-133071904D02*
X133867142Y-130452857D01*
X133629047Y-129976666D01*
X133152857Y-129738571D01*
X132200476Y-129738571D01*
X131724285Y-129976666D01*
X133867142Y-132833809D02*
X133390952Y-133071904D01*
X132200476Y-133071904D01*
X131724285Y-132833809D01*
X131486190Y-132357619D01*
X131486190Y-131881428D01*
X131724285Y-131405238D01*
X132200476Y-131167142D01*
X133390952Y-131167142D01*
X133867142Y-130929047D01*
X135771904Y-129738571D02*
X136962380Y-133071904D01*
X138152857Y-129738571D02*
X136962380Y-133071904D01*
X136486190Y-134262380D01*
X136248095Y-134500476D01*
X135771904Y-134738571D01*
X141962380Y-132833809D02*
X141486190Y-133071904D01*
X140533809Y-133071904D01*
X140057619Y-132833809D01*
X139819523Y-132357619D01*
X139819523Y-130452857D01*
X140057619Y-129976666D01*
X140533809Y-129738571D01*
X141486190Y-129738571D01*
X141962380Y-129976666D01*
X142200476Y-130452857D01*
X142200476Y-130929047D01*
X139819523Y-131405238D01*
X144343333Y-133071904D02*
X144343333Y-129738571D01*
X144343333Y-130690952D02*
X144581428Y-130214761D01*
X144819523Y-129976666D01*
X145295714Y-129738571D01*
X145771904Y-129738571D01*
X147200476Y-132833809D02*
X147676666Y-133071904D01*
X148629047Y-133071904D01*
X149105238Y-132833809D01*
X149343333Y-132357619D01*
X149343333Y-132119523D01*
X149105238Y-131643333D01*
X148629047Y-131405238D01*
X147914761Y-131405238D01*
X147438571Y-131167142D01*
X147200476Y-130690952D01*
X147200476Y-130452857D01*
X147438571Y-129976666D01*
X147914761Y-129738571D01*
X148629047Y-129738571D01*
X149105238Y-129976666D01*
X155295714Y-133071904D02*
X155295714Y-128071904D01*
X157200476Y-128071904D01*
X157676666Y-128310000D01*
X157914761Y-128548095D01*
X158152857Y-129024285D01*
X158152857Y-129738571D01*
X157914761Y-130214761D01*
X157676666Y-130452857D01*
X157200476Y-130690952D01*
X155295714Y-130690952D01*
X163152857Y-132595714D02*
X162914761Y-132833809D01*
X162200476Y-133071904D01*
X161724285Y-133071904D01*
X161010000Y-132833809D01*
X160533809Y-132357619D01*
X160295714Y-131881428D01*
X160057619Y-130929047D01*
X160057619Y-130214761D01*
X160295714Y-129262380D01*
X160533809Y-128786190D01*
X161010000Y-128310000D01*
X161724285Y-128071904D01*
X162200476Y-128071904D01*
X162914761Y-128310000D01*
X163152857Y-128548095D01*
X166962380Y-130452857D02*
X167676666Y-130690952D01*
X167914761Y-130929047D01*
X168152857Y-131405238D01*
X168152857Y-132119523D01*
X167914761Y-132595714D01*
X167676666Y-132833809D01*
X167200476Y-133071904D01*
X165295714Y-133071904D01*
X165295714Y-128071904D01*
X166962380Y-128071904D01*
X167438571Y-128310000D01*
X167676666Y-128548095D01*
X167914761Y-129024285D01*
X167914761Y-129500476D01*
X167676666Y-129976666D01*
X167438571Y-130214761D01*
X166962380Y-130452857D01*
X165295714Y-130452857D01*
D12*
X152010000Y-94102000D03*
X152010000Y-92832000D03*
X152010000Y-91562000D03*
X152010000Y-90292000D03*
X152010000Y-95372000D03*
X135010000Y-95372000D03*
X135010000Y-90292000D03*
X135010000Y-91562000D03*
X135010000Y-92832000D03*
X135010000Y-94102000D03*
D13*
X144310000Y-80022000D03*
X140710000Y-80022000D03*
X142510000Y-81822000D03*
X142510000Y-78222000D03*
X144310000Y-78222000D03*
X140710000Y-78222000D03*
X144310000Y-81822000D03*
D12*
X135010000Y-72512000D03*
X135010000Y-73782000D03*
X135010000Y-75052000D03*
X135010000Y-76322000D03*
X135010000Y-77592000D03*
X135010000Y-78862000D03*
X135010000Y-80132000D03*
X135010000Y-81402000D03*
X135010000Y-82672000D03*
X135010000Y-83942000D03*
X135010000Y-85212000D03*
X135010000Y-86482000D03*
X135010000Y-87752000D03*
X135010000Y-89022000D03*
D14*
X137810000Y-90022000D03*
X139080000Y-90022000D03*
X140350000Y-90022000D03*
X141620000Y-90022000D03*
X142890000Y-90022000D03*
X144160000Y-90022000D03*
X145430000Y-90022000D03*
X146700000Y-90022000D03*
X147970000Y-90022000D03*
X149240000Y-90022000D03*
D12*
X152010000Y-89022000D03*
X152010000Y-87752000D03*
X152010000Y-86482000D03*
X152010000Y-85212000D03*
X152010000Y-83942000D03*
X152010000Y-82672000D03*
X152010000Y-81402000D03*
X152010000Y-80132000D03*
X152010000Y-78862000D03*
X152010000Y-77592000D03*
X152010000Y-76322000D03*
X152010000Y-75052000D03*
X152010000Y-73782000D03*
X152010000Y-72512000D03*
D15*
X142510000Y-80022000D03*
D16*
X142510000Y-80022000D03*
D13*
X140710000Y-81822000D03*
D17*
X152384760Y-116222780D03*
D18*
X150355300Y-116225320D03*
D19*
X133223000Y-109728000D03*
X133223000Y-111252000D03*
D20*
X154305000Y-72390000D03*
D21*
X137198000Y-108839000D03*
X135598000Y-111039000D03*
X137198000Y-111039000D03*
X135598000Y-108839000D03*
D22*
X150749000Y-103886000D03*
X148971000Y-103886000D03*
D23*
X130810000Y-80010000D03*
X130810000Y-77470000D03*
X130810000Y-74930000D03*
D24*
X130810000Y-72390000D03*
D23*
X130810000Y-82550000D03*
X130810000Y-85090000D03*
X130810000Y-90170000D03*
X130810000Y-87630000D03*
X130810000Y-92710000D03*
X130810000Y-95250000D03*
X130810000Y-100330000D03*
X130810000Y-97790000D03*
X130810000Y-102870000D03*
X130810000Y-105410000D03*
X130810000Y-110490000D03*
X130810000Y-107950000D03*
X130810000Y-118110000D03*
X130810000Y-115570000D03*
X130810000Y-113030000D03*
X156210000Y-80010000D03*
X156210000Y-77470000D03*
X156210000Y-74930000D03*
D24*
X156210000Y-72390000D03*
D23*
X156210000Y-82550000D03*
X156210000Y-85090000D03*
X156210000Y-90170000D03*
X156210000Y-87630000D03*
X156210000Y-92710000D03*
X156210000Y-95250000D03*
X156210000Y-100330000D03*
X156210000Y-97790000D03*
X156210000Y-102870000D03*
X156210000Y-105410000D03*
X156210000Y-110490000D03*
X156210000Y-107950000D03*
X156210000Y-118110000D03*
X156210000Y-115570000D03*
X156210000Y-113030000D03*
D25*
X151165560Y-100523040D03*
X151165560Y-102425500D03*
X153375360Y-101470460D03*
D20*
X151765000Y-98425000D03*
X135255000Y-98425000D03*
X148590000Y-73025000D03*
D26*
X140208000Y-99003000D03*
X140208000Y-101403000D03*
D27*
X151317960Y-108112560D03*
X149415500Y-108112560D03*
X150370540Y-110322360D03*
X154492960Y-108112560D03*
X152590500Y-108112560D03*
X153545540Y-110322360D03*
D28*
X148687000Y-111826000D03*
X148687000Y-112776000D03*
X148687000Y-113726000D03*
X151287000Y-111826000D03*
X151287000Y-113726000D03*
D29*
X140144500Y-104263000D03*
X140144500Y-104913000D03*
X140144500Y-105563000D03*
X140144500Y-106213000D03*
X140144500Y-106863000D03*
X140144500Y-107513000D03*
X140144500Y-108163000D03*
X140144500Y-108813000D03*
X140144500Y-109463000D03*
X140144500Y-110113000D03*
X147383500Y-110113000D03*
X147383500Y-109463000D03*
X147383500Y-108813000D03*
X147383500Y-108163000D03*
X147383500Y-107513000D03*
X147383500Y-106863000D03*
X147383500Y-106213000D03*
X147383500Y-105563000D03*
X147383500Y-104913000D03*
X147383500Y-104263000D03*
D28*
X142718000Y-100269000D03*
X142718000Y-101219000D03*
X142718000Y-102169000D03*
X145318000Y-100269000D03*
X145318000Y-102169000D03*
D25*
X151935000Y-105156000D03*
X154135000Y-104206000D03*
X154135000Y-106106000D03*
D30*
X142122500Y-112547000D03*
D31*
X142860000Y-112547000D03*
X143510000Y-112547000D03*
X144160000Y-112547000D03*
D30*
X144897500Y-112547000D03*
D32*
X142010000Y-117097000D03*
X145010000Y-117097000D03*
D33*
X139910000Y-115947000D03*
X139910000Y-112477000D03*
X147110000Y-112477000D03*
X147110000Y-115947000D03*
D34*
X133985000Y-113393000D03*
X133985000Y-117747000D03*
D25*
X137160000Y-113670000D03*
X137160000Y-117470000D03*
X149098000Y-98303000D03*
X149098000Y-102103000D03*
X136779000Y-101478000D03*
X136779000Y-105278000D03*
X134493000Y-105278000D03*
X134493000Y-101478000D03*
D22*
X154495500Y-113538000D03*
X152717500Y-113538000D03*
X147066000Y-100584000D03*
X147066000Y-102362000D03*
X144399000Y-98679000D03*
X142621000Y-98679000D03*
D35*
X147320000Y-98361500D03*
X147320000Y-99377500D03*
X133223000Y-82677000D03*
X133223000Y-83693000D03*
X133223000Y-107315000D03*
X133223000Y-108331000D03*
D36*
X153670000Y-112141000D03*
X152654000Y-112141000D03*
X132207000Y-80137001D03*
X133223000Y-80137001D03*
X136525000Y-106934000D03*
X135509000Y-106934000D03*
D35*
X138112500Y-98806000D03*
X138112500Y-99822000D03*
D36*
X150114000Y-106299000D03*
X149098000Y-106299000D03*
X150114000Y-105410000D03*
X149098000Y-105410000D03*
X151511000Y-110871000D03*
X152527000Y-110871000D03*
D35*
X145542000Y-98361500D03*
X145542000Y-99377500D03*
X146431000Y-98361500D03*
X146431000Y-99377500D03*
X133223000Y-74676000D03*
X133223000Y-73660000D03*
D36*
X133223000Y-77216000D03*
X132207000Y-77216000D03*
X132207000Y-78740000D03*
X133223000Y-78740000D03*
X138430000Y-103251000D03*
X139446000Y-103251000D03*
D35*
X138557000Y-108458000D03*
X138557000Y-109474000D03*
X138557000Y-111506000D03*
X138557000Y-110490000D03*
D36*
X137541000Y-106934000D03*
X138557000Y-106934000D03*
X133222999Y-81661000D03*
X132206999Y-81661000D03*
D20*
X144145000Y-115062000D03*
D22*
X133223000Y-99314000D03*
X133223000Y-97536000D03*
D20*
X136525000Y-116459000D03*
X137668000Y-116459000D03*
X150241000Y-113538000D03*
X149098000Y-99441000D03*
X132715000Y-76200000D03*
X135255000Y-118364000D03*
X132715000Y-118364000D03*
X141605000Y-116078000D03*
X144653000Y-117221000D03*
X146558000Y-117221000D03*
X140462000Y-117221000D03*
X134937500Y-110363000D03*
X137541000Y-107823000D03*
X136652000Y-103251000D03*
X145669000Y-107823000D03*
X144399000Y-107823000D03*
X145923000Y-103505000D03*
X154304598Y-118236598D03*
X142289488Y-104471512D03*
X144448488Y-104471512D03*
X144018000Y-103123996D03*
X147955000Y-100584000D03*
X147193000Y-97663000D03*
X144399000Y-97536000D03*
X144399000Y-108966000D03*
X145669000Y-108966000D03*
X144018000Y-101610160D03*
X146558000Y-72009000D03*
X150495000Y-72009000D03*
X131953000Y-83820000D03*
X136525000Y-90297000D03*
X132842000Y-103251000D03*
X137810000Y-88504000D03*
X137810000Y-87107000D03*
X137810000Y-85852000D03*
X144145000Y-72009000D03*
X141605000Y-72009000D03*
X139065000Y-72009000D03*
X136525000Y-72009000D03*
X140335000Y-73025000D03*
X142875000Y-73025000D03*
X145415000Y-73025000D03*
X146558000Y-74295000D03*
X144145000Y-74295000D03*
X141605000Y-74295000D03*
X142875000Y-75565000D03*
X145415000Y-75565000D03*
X147320000Y-75565000D03*
X149860000Y-75565000D03*
X150114000Y-85090000D03*
X149987000Y-96774000D03*
X147320000Y-85725000D03*
X144780000Y-85725000D03*
X147320000Y-78105000D03*
X147320000Y-80645000D03*
X147320000Y-83185000D03*
X149860000Y-78105000D03*
X149860000Y-80645000D03*
X148590000Y-76835000D03*
X148590000Y-79375000D03*
X148590000Y-81915000D03*
X146050000Y-79375000D03*
X146050000Y-81915000D03*
X146050000Y-76835000D03*
X146050000Y-83820000D03*
X146050000Y-86995000D03*
X143510000Y-86995000D03*
X143510000Y-83820000D03*
X143510000Y-93218000D03*
X141605000Y-117221000D03*
X142301243Y-85683306D03*
X136525000Y-73787000D03*
X142621000Y-97663000D03*
X141605000Y-97663000D03*
X144399000Y-110236000D03*
X135128000Y-113195989D03*
X142748000Y-103198048D03*
X136525000Y-75057000D03*
X139700000Y-96139000D03*
X134486989Y-106920351D03*
X145288008Y-105791000D03*
X151921689Y-106142311D03*
X151638000Y-110109000D03*
X136525000Y-91567000D03*
X136525000Y-89027000D03*
X136525000Y-86487000D03*
X136525000Y-87757000D03*
X136525000Y-85217000D03*
X136525000Y-83947000D03*
X136525000Y-81407000D03*
X136525000Y-82677000D03*
X136525000Y-80137000D03*
X136525000Y-78867000D03*
X150495000Y-86487000D03*
X150495000Y-87757000D03*
X150495000Y-91567000D03*
X150495000Y-90297000D03*
X138430000Y-104521000D03*
X142232010Y-105783010D03*
X152019000Y-103886000D03*
X133223000Y-80899000D03*
X146050000Y-95250000D03*
X144780000Y-94996000D03*
X136525000Y-77597000D03*
X136517042Y-92832000D03*
X137160000Y-95377000D03*
X137129768Y-94077599D03*
X150495000Y-95377000D03*
X150495000Y-94107000D03*
X150495000Y-92837000D03*
X133223000Y-77978000D03*
X143510000Y-94488000D03*
D37*
X137160000Y-116967010D02*
X137151989Y-116958999D01*
X137160000Y-117470000D02*
X137160000Y-116967010D01*
X137151989Y-116958999D02*
X136651990Y-116459000D01*
X136651990Y-116459000D02*
X137668000Y-116459000D01*
X137668000Y-117166106D02*
X137359106Y-117475000D01*
X137668000Y-116459000D02*
X137668000Y-117166106D01*
X137359106Y-117475000D02*
X137033000Y-117475000D01*
D38*
X136524990Y-116586000D02*
X136651990Y-116459000D01*
X135763000Y-116586000D02*
X135890000Y-116586000D01*
X135890000Y-116586000D02*
X136906000Y-117602000D01*
D37*
X135890000Y-116459000D02*
X136651990Y-116459000D01*
X135763000Y-116586000D02*
X135890000Y-116459000D01*
X135890000Y-116459000D02*
X135890000Y-116522500D01*
X135763000Y-116586000D02*
X136652000Y-117475000D01*
X136652000Y-117475000D02*
X137033000Y-117475000D01*
X130810000Y-118110000D02*
X131508500Y-117411500D01*
D38*
X131508500Y-117411500D02*
X132334000Y-116586000D01*
D39*
X132226999Y-116478999D02*
X132334000Y-116586000D01*
X132226999Y-115970999D02*
X132842000Y-116586000D01*
X132226999Y-115931001D02*
X132226999Y-115970999D01*
D38*
X132842000Y-116586000D02*
X136524990Y-116586000D01*
X132334000Y-116586000D02*
X132842000Y-116586000D01*
D39*
X132226999Y-115931001D02*
X132226999Y-116478999D01*
D37*
X151384000Y-113538000D02*
X150241000Y-113538000D01*
D39*
X132226999Y-112248001D02*
X132226999Y-115931001D01*
X133223000Y-111252000D02*
X132226999Y-112248001D01*
D37*
X152717500Y-113538000D02*
X151257000Y-113538000D01*
X150180040Y-100523040D02*
X149098000Y-99441000D01*
X151165560Y-100523040D02*
X150180040Y-100523040D01*
X149098000Y-98303000D02*
X149098000Y-99441000D01*
D39*
X132207000Y-77216000D02*
X132207000Y-76708000D01*
X132207000Y-76708000D02*
X132715000Y-76200000D01*
X149034500Y-99377500D02*
X149098000Y-99441000D01*
X147320000Y-99377500D02*
X149034500Y-99377500D01*
X149093000Y-98303000D02*
X148018500Y-99377500D01*
X149098000Y-98303000D02*
X149093000Y-98303000D01*
D40*
X140144500Y-108813000D02*
X138912000Y-108813000D01*
X138912000Y-108813000D02*
X138557000Y-108458000D01*
D37*
X139865000Y-112522000D02*
X139573000Y-112522000D01*
D39*
X138557000Y-112522000D02*
X139319000Y-112522000D01*
X139910000Y-112477000D02*
X139910000Y-111843000D01*
X139910000Y-111843000D02*
X139827000Y-111760000D01*
X138557000Y-108458000D02*
X137541000Y-108458000D01*
X137198000Y-108839000D02*
X137198000Y-108547000D01*
X137198000Y-108801000D02*
X137287000Y-108712000D01*
X137287000Y-108458000D02*
X137541000Y-108458000D01*
D40*
X137198000Y-109093000D02*
X137198000Y-108825265D01*
X140235000Y-110998000D02*
X140031000Y-111202000D01*
X140031000Y-111202000D02*
X139910000Y-111323000D01*
X140525500Y-110998000D02*
X139910000Y-111613500D01*
X139910000Y-111613500D02*
X139910000Y-112477000D01*
X139910000Y-111323000D02*
X139910000Y-111613500D01*
X140525500Y-110998000D02*
X140235000Y-110998000D01*
X139890500Y-112077500D02*
X139890500Y-112204500D01*
X140652500Y-110998000D02*
X139954000Y-111696500D01*
X140970000Y-110998000D02*
X140652500Y-110998000D01*
X140652500Y-110998000D02*
X140525500Y-110998000D01*
X140398500Y-111569500D02*
X140398500Y-112522000D01*
X140970000Y-110998000D02*
X140398500Y-111569500D01*
X140398500Y-111569500D02*
X139890500Y-112077500D01*
X140398500Y-112522000D02*
X139890500Y-112522000D01*
D37*
X145031000Y-117097000D02*
X145034000Y-117094000D01*
D41*
X133985000Y-117947000D02*
X134656000Y-118618000D01*
X134656000Y-118618000D02*
X137922000Y-118618000D01*
X137922000Y-118618000D02*
X138747500Y-117792500D01*
D37*
X139910000Y-115947000D02*
X139910000Y-117094000D01*
X139910000Y-117094000D02*
X139446000Y-117094000D01*
D41*
X138747500Y-117792500D02*
X139446000Y-117094000D01*
D37*
X139446000Y-117094000D02*
X139446000Y-116078000D01*
X139446000Y-116078000D02*
X139954000Y-115570000D01*
X139910000Y-117094000D02*
X141414500Y-117094000D01*
X141414500Y-117094000D02*
X141986000Y-117094000D01*
X135255000Y-117919500D02*
X134048500Y-117919500D01*
X134048500Y-117919500D02*
X133985000Y-117983000D01*
X132715000Y-117919500D02*
X133921500Y-117919500D01*
X133921500Y-117919500D02*
X133985000Y-117983000D01*
X133286500Y-118491000D02*
X134747000Y-118491000D01*
X132715000Y-117919500D02*
X133286500Y-118491000D01*
X132715000Y-117919500D02*
X132715000Y-118490990D01*
X133286490Y-118490990D02*
X133286500Y-118491000D01*
X132715000Y-118490990D02*
X133286490Y-118490990D01*
X135255000Y-117919500D02*
X135255000Y-118490990D01*
X134747010Y-118490990D02*
X134747000Y-118491000D01*
X135255000Y-118490990D02*
X134747010Y-118490990D01*
X141986000Y-116078000D02*
X141986000Y-116967000D01*
X141986000Y-116078000D02*
X140462000Y-116078000D01*
X140462000Y-116078000D02*
X140430250Y-116109750D01*
X141414500Y-117094000D02*
X140430250Y-116109750D01*
X140430250Y-116109750D02*
X139954000Y-115633500D01*
X143005000Y-117097000D02*
X143386000Y-117097000D01*
X141986000Y-116078000D02*
X143005000Y-117097000D01*
X142010000Y-117097000D02*
X143386000Y-117097000D01*
X143386000Y-117097000D02*
X145031000Y-117097000D01*
X145923000Y-116840000D02*
X146177000Y-117094000D01*
X145923000Y-116078000D02*
X145923000Y-116840000D01*
X145923000Y-116785106D02*
X145614106Y-117094000D01*
X145923000Y-116078000D02*
X145923000Y-116785106D01*
X145614106Y-117094000D02*
X145034000Y-117094000D01*
X146422999Y-115578001D02*
X147110000Y-114891000D01*
X147110000Y-115947000D02*
X147110000Y-114891000D01*
X145923000Y-116078000D02*
X146422999Y-115578001D01*
X147110000Y-114891000D02*
X147110000Y-114217000D01*
X145923000Y-116078000D02*
X146630106Y-116078000D01*
X146630106Y-116078000D02*
X147066000Y-116078000D01*
X147574000Y-117094000D02*
X145034000Y-117094000D01*
X147110000Y-115947000D02*
X147110000Y-116630000D01*
X147110000Y-116630000D02*
X147574000Y-117094000D01*
X145923000Y-116184000D02*
X145923000Y-116078000D01*
X145010000Y-117097000D02*
X145923000Y-116184000D01*
D39*
X144907000Y-112903000D02*
X144897500Y-112893500D01*
X144897500Y-112893500D02*
X144897500Y-112547000D01*
X147110000Y-112477000D02*
X147110000Y-112859000D01*
X147110000Y-112859000D02*
X147066000Y-112903000D01*
X145161000Y-111887000D02*
X147129500Y-111887000D01*
X145923000Y-112903000D02*
X146050000Y-112903000D01*
D37*
X147110000Y-113963000D02*
X147110000Y-114217000D01*
X147110000Y-112477000D02*
X147110000Y-113963000D01*
D39*
X147066000Y-112903000D02*
X145923000Y-112903000D01*
X145923000Y-112903000D02*
X144907000Y-112903000D01*
X147110000Y-112477000D02*
X147409000Y-112776000D01*
X147409000Y-112776000D02*
X148717000Y-112776000D01*
D37*
X147574000Y-117094000D02*
X148209000Y-117094000D01*
X148209000Y-117094000D02*
X149352000Y-118237000D01*
X149352000Y-118237000D02*
X152400000Y-118237000D01*
X152400000Y-118237000D02*
X152400000Y-116205000D01*
D39*
X153924000Y-112395000D02*
X153670000Y-112141000D01*
X144897500Y-112150500D02*
X145161000Y-111887000D01*
X144897500Y-112547000D02*
X144897500Y-112087000D01*
X147129500Y-112141000D02*
X147129500Y-112522000D01*
X146875500Y-111887000D02*
X147129500Y-112141000D01*
X140017500Y-111506000D02*
X140049250Y-111474250D01*
X138557000Y-111506000D02*
X140017500Y-111506000D01*
D40*
X139446000Y-111787000D02*
X139446000Y-112395000D01*
X140031000Y-111202000D02*
X139446000Y-111787000D01*
D39*
X138557000Y-112522000D02*
X138557000Y-111506000D01*
X137541000Y-106934000D02*
X137541000Y-107950000D01*
D40*
X135598000Y-110960000D02*
X135598000Y-111039000D01*
X137198000Y-108571265D02*
X136353619Y-107726884D01*
X134537727Y-108030665D02*
X134537727Y-109899727D01*
X134537727Y-109899727D02*
X135001000Y-110363000D01*
X136353619Y-107726884D02*
X134841508Y-107726884D01*
X134841508Y-107726884D02*
X134537727Y-108030665D01*
D37*
X154495500Y-112966500D02*
X153924000Y-112395000D01*
X154495500Y-113474500D02*
X154495500Y-112966500D01*
X154449780Y-116222780D02*
X154495500Y-116268500D01*
X152384760Y-116222780D02*
X154449780Y-116222780D01*
D40*
X135001000Y-110363000D02*
X135598000Y-110960000D01*
D39*
X137541000Y-107950000D02*
X137541000Y-108458000D01*
D37*
X135944894Y-103251000D02*
X136652000Y-103251000D01*
X154304195Y-118237000D02*
X152400000Y-118237000D01*
X154495500Y-113538000D02*
X154495500Y-118045695D01*
X154495500Y-118045695D02*
X154304598Y-118236598D01*
X154304598Y-118236598D02*
X154304195Y-118237000D01*
D39*
X136655936Y-112522000D02*
X138557000Y-112522000D01*
X135598000Y-111464064D02*
X136655936Y-112522000D01*
X135598000Y-111039000D02*
X135598000Y-111464064D01*
D40*
X140947692Y-108813000D02*
X141223967Y-109089275D01*
X141223967Y-109089275D02*
X141223967Y-110744033D01*
X141223967Y-110744033D02*
X140970000Y-110998000D01*
X140144500Y-108813000D02*
X140947692Y-108813000D01*
D39*
X144018000Y-101727000D02*
X144018000Y-101727000D01*
D37*
X147066000Y-100584000D02*
X147955000Y-100584000D01*
X144399000Y-98679000D02*
X144399000Y-97536000D01*
D39*
X143626840Y-101219000D02*
X144018000Y-101610160D01*
X142718000Y-101219000D02*
X143626840Y-101219000D01*
D38*
X144018000Y-101610160D02*
X144018000Y-103123996D01*
D39*
X132207000Y-78740000D02*
X132207000Y-80137000D01*
X132207000Y-80137001D02*
X132207000Y-81661000D01*
D37*
X140711000Y-72512000D02*
X140716000Y-72517000D01*
X140716000Y-76454000D02*
X140716000Y-78105000D01*
D42*
X135010000Y-72512000D02*
X134234000Y-72512000D01*
X134234000Y-72512000D02*
X133731010Y-72009010D01*
D37*
X133731010Y-72009010D02*
X146557990Y-72009010D01*
X146557990Y-72009010D02*
X146558000Y-72009000D01*
X140711000Y-72512000D02*
X146553000Y-72512000D01*
X146558000Y-72507000D02*
X146558000Y-72009000D01*
X146553000Y-72512000D02*
X146558000Y-72507000D01*
D42*
X152010000Y-72512000D02*
X150998000Y-72512000D01*
X150998000Y-72512000D02*
X150495000Y-72009000D01*
D37*
X150495000Y-72009000D02*
X155829000Y-72009000D01*
X155829000Y-72009000D02*
X156210000Y-72390000D01*
D42*
X152010000Y-72512000D02*
X156205000Y-72512000D01*
D37*
X156205000Y-72512000D02*
X156210000Y-72517000D01*
D39*
X132207000Y-103759000D02*
X132334000Y-103886000D01*
X132206999Y-81661000D02*
X132207000Y-82444001D01*
D37*
X130810000Y-105410000D02*
X132334000Y-103886000D01*
X132334000Y-103886000D02*
X132969000Y-103251000D01*
X134366000Y-103251000D02*
X135944894Y-103251000D01*
X132969000Y-103251000D02*
X134366000Y-103251000D01*
D39*
X134112000Y-102997000D02*
X134366000Y-103251000D01*
X132207000Y-102997000D02*
X134112000Y-102997000D01*
X132207000Y-102997000D02*
X132207000Y-103759000D01*
X132207000Y-102235000D02*
X132207000Y-102489000D01*
X132207000Y-102489000D02*
X132969000Y-103251000D01*
X132207000Y-102235000D02*
X132207000Y-102997000D01*
X132207000Y-83820000D02*
X131953000Y-83820000D01*
X132207000Y-82444001D02*
X132207000Y-83820000D01*
D42*
X135010000Y-90292000D02*
X136520000Y-90292000D01*
X136525000Y-90297000D02*
X137795000Y-90297000D01*
D38*
X137795000Y-90297000D02*
X137535000Y-90297000D01*
D37*
X137810000Y-81788000D02*
X140716000Y-81788000D01*
D42*
X137810000Y-90022000D02*
X137810000Y-88504000D01*
D37*
X137810000Y-88504000D02*
X137810000Y-87107000D01*
D42*
X135010000Y-72512000D02*
X137790000Y-72512000D01*
D37*
X137810000Y-72532000D02*
X137790000Y-72512000D01*
X137790000Y-72512000D02*
X140711000Y-72512000D01*
X137932000Y-78222000D02*
X137810000Y-78344000D01*
X140710000Y-78222000D02*
X137932000Y-78222000D01*
X137810000Y-81788000D02*
X137810000Y-78344000D01*
X137810000Y-78344000D02*
X137810000Y-72532000D01*
X149860000Y-75565000D02*
X147955000Y-75565000D01*
X147955000Y-75565000D02*
X145415000Y-75565000D01*
X145415000Y-75565000D02*
X142875000Y-75565000D01*
X140970000Y-75565000D02*
X140716000Y-75819000D01*
X142875000Y-75565000D02*
X140970000Y-75565000D01*
X140716000Y-75819000D02*
X140716000Y-76454000D01*
X146558000Y-74295000D02*
X144145000Y-74295000D01*
X144145000Y-74295000D02*
X141605000Y-74295000D01*
X140897894Y-74295000D02*
X140716000Y-74295000D01*
X141605000Y-74295000D02*
X140897894Y-74295000D01*
X140716000Y-72517000D02*
X140716000Y-74295000D01*
X140716000Y-74295000D02*
X140716000Y-75819000D01*
D40*
X147650198Y-103505000D02*
X145923000Y-103505000D01*
X148158199Y-102996999D02*
X147650198Y-103505000D01*
X150749000Y-103886000D02*
X149860000Y-102997000D01*
X149860000Y-102997000D02*
X148158199Y-102996999D01*
D37*
X137810000Y-87107000D02*
X137810000Y-85202000D01*
X137810000Y-85202000D02*
X137810000Y-81788000D01*
X137922000Y-85090000D02*
X137810000Y-85202000D01*
X150114000Y-85090000D02*
X137922000Y-85090000D01*
D39*
X137363200Y-90779600D02*
X137795000Y-90779600D01*
X137229442Y-90779600D02*
X137363200Y-90779600D01*
X136525000Y-90297000D02*
X136746842Y-90297000D01*
X136746842Y-90297000D02*
X137229442Y-90779600D01*
X148687000Y-112776000D02*
X148005800Y-112776000D01*
X148005800Y-112776000D02*
X147624800Y-112395000D01*
X147624800Y-112395000D02*
X147358100Y-112128300D01*
X147358100Y-112128300D02*
X147129500Y-112128300D01*
X147110000Y-113671800D02*
X147110000Y-113963000D01*
X148005800Y-112776000D02*
X147110000Y-113671800D01*
D37*
X144780000Y-85725000D02*
X147320000Y-85725000D01*
X143510000Y-83820000D02*
X146050000Y-83820000D01*
X147193000Y-97663000D02*
X147193000Y-98044000D01*
X148082000Y-96774000D02*
X147193000Y-97663000D01*
X149987000Y-96774000D02*
X148082000Y-96774000D01*
D39*
X146630106Y-116078000D02*
X146630106Y-113347500D01*
X146318001Y-115682999D02*
X146318001Y-113171001D01*
X145923000Y-116078000D02*
X146318001Y-115682999D01*
X146318001Y-113171001D02*
X146304000Y-113157000D01*
X146050000Y-112903000D02*
X146304000Y-113157000D01*
X146304000Y-113157000D02*
X147110000Y-113963000D01*
X147447000Y-97790000D02*
X147447000Y-98425000D01*
X147193000Y-97536000D02*
X147447000Y-97790000D01*
X146431000Y-98298000D02*
X147193000Y-97536000D01*
X147447000Y-98425000D02*
X146431000Y-98425000D01*
X146431000Y-98425000D02*
X146431000Y-98298000D01*
X133223000Y-99314000D02*
X132207000Y-99314000D01*
X132207000Y-83820000D02*
X132207000Y-99314000D01*
X132207000Y-99314000D02*
X132207000Y-102235000D01*
D37*
X144780000Y-85725000D02*
X142342937Y-85725000D01*
X142342937Y-85725000D02*
X142301243Y-85683306D01*
D40*
X140144500Y-110113000D02*
X138934000Y-110113000D01*
X138934000Y-110113000D02*
X138557000Y-110490000D01*
D39*
X137561885Y-110850115D02*
X137198000Y-111214000D01*
X137198000Y-111214000D02*
X137198000Y-111293000D01*
X138557000Y-110490000D02*
X138450885Y-110596115D01*
X138450885Y-110596115D02*
X138155115Y-110596115D01*
X138155115Y-110596115D02*
X138069885Y-110596115D01*
X138155115Y-110596115D02*
X137561885Y-110596115D01*
X138069885Y-110596115D02*
X137541000Y-111125000D01*
X137541000Y-111379000D02*
X137287000Y-111379000D01*
D37*
X142621000Y-99187000D02*
X140589000Y-99187000D01*
X142621000Y-98679000D02*
X142621000Y-99187000D01*
X139954000Y-98679000D02*
X140335000Y-99060000D01*
X142621000Y-98679000D02*
X139954000Y-98679000D01*
X140335000Y-99003000D02*
X140011000Y-98679000D01*
X140011000Y-98679000D02*
X139065000Y-98679000D01*
D39*
X142621000Y-97663000D02*
X142621000Y-98679000D01*
X142621000Y-97663000D02*
X141478000Y-98806000D01*
X142938500Y-97345500D02*
X142875000Y-97409000D01*
X142938500Y-97345500D02*
X142621000Y-97663000D01*
X142875000Y-97409000D02*
X142875000Y-98679000D01*
X133223000Y-73660000D02*
X133540500Y-73660000D01*
D37*
X131826000Y-73406000D02*
X130810000Y-72390000D01*
X132969000Y-73406000D02*
X131826000Y-73406000D01*
D39*
X133223000Y-73660000D02*
X132969000Y-73406000D01*
D43*
X131953000Y-72390000D02*
X132461000Y-72898000D01*
X130810000Y-72390000D02*
X131953000Y-72390000D01*
D39*
X133286500Y-73596500D02*
X133223000Y-73660000D01*
X135010000Y-73782000D02*
X134824500Y-73596500D01*
X134824500Y-73596500D02*
X133286500Y-73596500D01*
X133896100Y-73977500D02*
X134429500Y-73977500D01*
X133413500Y-73596500D02*
X133515100Y-73596500D01*
X133515100Y-73596500D02*
X133896100Y-73977500D01*
X131953000Y-71755000D02*
X130810000Y-71755000D01*
X133896100Y-73977500D02*
X133896100Y-73698100D01*
X130810000Y-71755000D02*
X130810000Y-72390000D01*
X133896100Y-73698100D02*
X131953000Y-71755000D01*
D38*
X136520000Y-73782000D02*
X136525000Y-73787000D01*
X135010000Y-73782000D02*
X136520000Y-73782000D01*
D39*
X140335000Y-98806000D02*
X140335000Y-99187000D01*
X144907000Y-96520000D02*
X143764000Y-96520000D01*
X145542000Y-98361500D02*
X145542000Y-97155000D01*
X145542000Y-97155000D02*
X144907000Y-96520000D01*
D37*
X140335000Y-99003000D02*
X140335000Y-98806000D01*
X141478000Y-97790000D02*
X141478000Y-98679000D01*
X141605000Y-97663000D02*
X141478000Y-97790000D01*
X141605000Y-97663000D02*
X142621000Y-97663000D01*
X140462000Y-98806000D02*
X141605000Y-97663000D01*
X140335000Y-98806000D02*
X140462000Y-98806000D01*
D39*
X138112500Y-98806000D02*
X140335000Y-98806000D01*
X138430000Y-98806000D02*
X138112500Y-98806000D01*
X140335000Y-99441000D02*
X139065000Y-99441000D01*
X139065000Y-99441000D02*
X138430000Y-98806000D01*
X138112500Y-98806000D02*
X138112500Y-98552000D01*
X141118789Y-97790000D02*
X141478000Y-97790000D01*
X140483790Y-98425000D02*
X141118789Y-97790000D01*
X138239500Y-98425000D02*
X140483790Y-98425000D01*
X138112500Y-98552000D02*
X138239500Y-98425000D01*
X141605000Y-97663000D02*
X142748000Y-96520000D01*
X142748000Y-96520000D02*
X143764000Y-96520000D01*
X142367000Y-96901000D02*
X143383000Y-96901000D01*
X143764000Y-96520000D02*
X143383000Y-96901000D01*
X142113000Y-97155000D02*
X142367000Y-96901000D01*
X141605000Y-97663000D02*
X142113000Y-97155000D01*
X143129000Y-97155000D02*
X142113000Y-97155000D01*
X143383000Y-96901000D02*
X143129000Y-97155000D01*
X143129000Y-97155000D02*
X142938500Y-97345500D01*
D37*
X142493990Y-96774010D02*
X142748000Y-96774010D01*
X141605000Y-97663000D02*
X142493990Y-96774010D01*
X133985000Y-113193000D02*
X134051976Y-113193000D01*
X149860000Y-110744000D02*
X150368000Y-110236000D01*
X148971000Y-110744000D02*
X149860000Y-110744000D01*
D40*
X148971000Y-110744000D02*
X148907500Y-110680500D01*
X148907500Y-110680500D02*
X144970500Y-110680500D01*
X144970500Y-110680500D02*
X144843500Y-110680500D01*
X144843500Y-110680500D02*
X144399000Y-110236000D01*
D37*
X134420894Y-113195989D02*
X135128000Y-113195989D01*
X133987989Y-113195989D02*
X134420894Y-113195989D01*
X133985000Y-113193000D02*
X133987989Y-113195989D01*
D40*
X144399000Y-110236000D02*
X143256000Y-109093000D01*
X143256000Y-103706048D02*
X143247999Y-103698047D01*
X143247999Y-103698047D02*
X142748000Y-103198048D01*
X143256000Y-109093000D02*
X143256000Y-103706048D01*
D39*
X133223000Y-74676000D02*
X133527800Y-74676000D01*
X133527800Y-74676000D02*
X133705600Y-74853800D01*
X133705600Y-74853800D02*
X134112000Y-74853800D01*
X134112000Y-74853800D02*
X134620000Y-74853800D01*
X135010000Y-75052000D02*
X134811800Y-74853800D01*
X134811800Y-74853800D02*
X134620000Y-74853800D01*
X133705600Y-74853800D02*
X134086600Y-75234800D01*
X134086600Y-75234800D02*
X134747000Y-75234800D01*
X133223000Y-74676000D02*
X131699000Y-74676000D01*
D37*
X131064000Y-74676000D02*
X131699000Y-74676000D01*
X130810000Y-74930000D02*
X131064000Y-74676000D01*
D38*
X136520000Y-75052000D02*
X136525000Y-75057000D01*
X135010000Y-75052000D02*
X136520000Y-75052000D01*
D37*
X148971000Y-110744000D02*
X149605990Y-110109010D01*
X149605990Y-110109010D02*
X150177500Y-110109010D01*
D40*
X139200001Y-96638999D02*
X139700000Y-96139000D01*
X139065032Y-96773968D02*
X139200001Y-96638999D01*
X133223000Y-97536000D02*
X133985032Y-96773968D01*
X133985032Y-96773968D02*
X139065032Y-96773968D01*
X150114000Y-106299000D02*
X150495000Y-106680000D01*
X150495000Y-106680000D02*
X150876000Y-107061000D01*
X151003000Y-107188000D02*
X151003000Y-107569000D01*
X150876000Y-107061000D02*
X151003000Y-107188000D01*
X151003000Y-107188000D02*
X151511000Y-107696000D01*
X150939500Y-107124500D02*
X150876000Y-107061000D01*
X151317960Y-108112560D02*
X150939500Y-107734100D01*
X150939500Y-107734100D02*
X150939500Y-107124500D01*
D39*
X133223000Y-108331000D02*
X133223000Y-109728000D01*
D41*
X142327582Y-114237818D02*
X142327582Y-113772309D01*
D44*
X142265699Y-113717441D02*
X142324075Y-113775817D01*
X142265699Y-113398599D02*
X142265699Y-113717441D01*
X142122500Y-112547000D02*
X142122500Y-113255400D01*
X142122500Y-113255400D02*
X142265699Y-113398599D01*
X142265699Y-114175935D02*
X142327582Y-114237818D01*
X142265699Y-113717441D02*
X142265699Y-114175935D01*
D37*
X137160000Y-113670000D02*
X138244500Y-113670000D01*
X138244500Y-113670000D02*
X138811000Y-114236500D01*
X138811000Y-114236500D02*
X140208000Y-114236500D01*
D41*
X142011199Y-114554201D02*
X142327582Y-114237818D01*
X142122500Y-112547000D02*
X141643500Y-112547000D01*
X140589000Y-114173000D02*
X140970201Y-114554201D01*
X140970201Y-114554201D02*
X142011199Y-114554201D01*
X140589000Y-113601500D02*
X140589000Y-114173000D01*
X139128701Y-114554201D02*
X138811000Y-114236500D01*
X140970201Y-114554201D02*
X139128701Y-114554201D01*
X140208000Y-113982500D02*
X140208000Y-114236500D01*
X140589000Y-113601500D02*
X140208000Y-113982500D01*
X142122500Y-112547000D02*
X142122500Y-112830000D01*
X142122500Y-112830000D02*
X141986000Y-112966500D01*
X141224000Y-112966500D02*
X140589000Y-113601500D01*
X141446250Y-112744250D02*
X142017750Y-112744250D01*
X141643500Y-112547000D02*
X141446250Y-112744250D01*
X141446250Y-112744250D02*
X141224000Y-112966500D01*
X142017750Y-112744250D02*
X142049500Y-112712500D01*
X141541500Y-112966500D02*
X141795500Y-112966500D01*
X141986000Y-112966500D02*
X141541500Y-112966500D01*
X141541500Y-112966500D02*
X141224000Y-112966500D01*
X141795500Y-112966500D02*
X142176500Y-113347500D01*
X141643500Y-112547000D02*
X142113000Y-112077500D01*
D39*
X134500638Y-106934000D02*
X134486989Y-106920351D01*
X135509000Y-106934000D02*
X134500638Y-106934000D01*
D40*
X147383500Y-104913000D02*
X146166008Y-104913000D01*
X146166008Y-104913000D02*
X145788007Y-105291001D01*
X145788007Y-105291001D02*
X145288008Y-105791000D01*
X134004001Y-107403339D02*
X134004001Y-111652001D01*
X134004001Y-111652001D02*
X134513999Y-112161999D01*
X134513999Y-112161999D02*
X135351261Y-112161999D01*
X135351261Y-112161999D02*
X136854262Y-113665000D01*
X134486989Y-106920351D02*
X134004001Y-107403339D01*
X136854262Y-113665000D02*
X137033000Y-113665000D01*
X149098000Y-104013000D02*
X149098000Y-103886000D01*
X147383500Y-104913000D02*
X148198000Y-104913000D01*
X148590000Y-104521000D02*
X148590000Y-103886000D01*
X148198000Y-104913000D02*
X148590000Y-104521000D01*
X148590000Y-104521000D02*
X149098000Y-104013000D01*
X148590000Y-103886000D02*
X148971000Y-103886000D01*
D38*
X151921689Y-106142311D02*
X151921689Y-105634311D01*
X151935000Y-106129000D02*
X151921689Y-106142311D01*
X151935000Y-105156000D02*
X151935000Y-106129000D01*
D39*
X151511000Y-110363000D02*
X151765000Y-110109000D01*
X151511000Y-110871000D02*
X151511000Y-110363000D01*
D40*
X140144500Y-109463000D02*
X138568000Y-109463000D01*
X135598000Y-109093000D02*
X135598000Y-109309000D01*
X137992746Y-109931200D02*
X138449946Y-109474000D01*
X136410700Y-109931200D02*
X137992746Y-109931200D01*
X135598000Y-109093000D02*
X135598000Y-109372500D01*
X135598000Y-109118500D02*
X136410700Y-109931200D01*
D38*
X147000000Y-102296000D02*
X147066000Y-102362000D01*
D37*
X149098000Y-102103000D02*
X147960000Y-102103000D01*
D39*
X143863882Y-100269000D02*
X142718000Y-100269000D01*
D38*
X145984000Y-102296000D02*
X147000000Y-102296000D01*
X145222000Y-102296000D02*
X145984000Y-102296000D01*
X145161000Y-102235000D02*
X145222000Y-102296000D01*
D40*
X144899001Y-101719001D02*
X145415000Y-102235000D01*
X144899001Y-101465001D02*
X144899001Y-101719001D01*
X145288000Y-101854000D02*
X147711000Y-101854000D01*
X147711000Y-101854000D02*
X147960000Y-102103000D01*
X145288000Y-101854000D02*
X145542000Y-102108000D01*
X144899001Y-101465001D02*
X145224500Y-101790500D01*
X145224500Y-101790500D02*
X145288000Y-101854000D01*
D37*
X150814000Y-102103000D02*
X151073000Y-102362000D01*
X149098000Y-102103000D02*
X150814000Y-102103000D01*
X151073000Y-102362000D02*
X151130000Y-102362000D01*
D40*
X150901400Y-101625400D02*
X151384000Y-102108000D01*
X145220282Y-101625400D02*
X150901400Y-101625400D01*
X145216041Y-101621159D02*
X145220282Y-101625400D01*
X145224500Y-101790500D02*
X145216041Y-101782041D01*
X145216041Y-101782041D02*
X145216041Y-101621159D01*
X143863882Y-100281715D02*
X143863882Y-100269000D01*
X143910901Y-100281715D02*
X143863882Y-100281715D01*
X145925186Y-102296000D02*
X145984000Y-102296000D01*
X144886286Y-101257100D02*
X145925186Y-102296000D01*
D45*
X144884140Y-101239320D02*
X143908755Y-100263935D01*
D40*
X145095000Y-102169000D02*
X144899001Y-101973001D01*
X144899001Y-101973001D02*
X144899001Y-101304119D01*
X145318000Y-102169000D02*
X145095000Y-102169000D01*
X144899001Y-101304119D02*
X144899001Y-101465001D01*
D37*
X147325000Y-102103000D02*
X147960000Y-102103000D01*
X147066000Y-102362000D02*
X147325000Y-102103000D01*
D38*
X135010000Y-91562000D02*
X136520000Y-91562000D01*
X136520000Y-91562000D02*
X136525000Y-91567000D01*
X139080000Y-91139304D02*
X138562303Y-91657001D01*
X139080000Y-90022000D02*
X139080000Y-91139304D01*
D40*
X138760200Y-91459104D02*
X138760200Y-90347800D01*
X138562303Y-91657001D02*
X138760200Y-91459104D01*
X139080000Y-90022000D02*
X139395200Y-90337200D01*
X138924199Y-91657001D02*
X138562303Y-91657001D01*
X139395200Y-90337200D02*
X139395200Y-91186000D01*
X139395200Y-91186000D02*
X138924199Y-91657001D01*
D38*
X138562303Y-91657001D02*
X138550694Y-91668610D01*
X136626610Y-91668610D02*
X136525000Y-91567000D01*
X138550694Y-91668610D02*
X136626610Y-91668610D01*
X136600998Y-89022000D02*
X136605998Y-89027000D01*
X136520000Y-89022000D02*
X136525000Y-89027000D01*
X135010000Y-89022000D02*
X136520000Y-89022000D01*
X135010000Y-86482000D02*
X136520000Y-86482000D01*
X136520000Y-86482000D02*
X136525000Y-86487000D01*
X135010000Y-87752000D02*
X135015000Y-87757000D01*
X135015000Y-87757000D02*
X135945006Y-87757000D01*
X135945006Y-87757000D02*
X136525000Y-87757000D01*
X135010000Y-85212000D02*
X136520000Y-85212000D01*
X136520000Y-85212000D02*
X136525000Y-85217000D01*
X135010000Y-83942000D02*
X136520000Y-83942000D01*
X136520000Y-83942000D02*
X136525000Y-83947000D01*
X136520000Y-81402000D02*
X136525000Y-81407000D01*
X135010000Y-81402000D02*
X136520000Y-81402000D01*
X135010000Y-82672000D02*
X136520000Y-82672000D01*
X136520000Y-82672000D02*
X136525000Y-82677000D01*
X135010000Y-80132000D02*
X136520000Y-80132000D01*
X136520000Y-80132000D02*
X136525000Y-80137000D01*
X135010000Y-78862000D02*
X136520000Y-78862000D01*
X136520000Y-78862000D02*
X136525000Y-78867000D01*
X156210000Y-77089000D02*
X156210000Y-77470000D01*
X152010000Y-75052000D02*
X154173000Y-75052000D01*
X154173000Y-75052000D02*
X156210000Y-77089000D01*
X152010000Y-73782000D02*
X154808000Y-73782000D01*
X154808000Y-73782000D02*
X155575000Y-74549000D01*
X155575000Y-74549000D02*
X155956000Y-74930000D01*
X155956000Y-74930000D02*
X156210000Y-74930000D01*
X152010000Y-78862000D02*
X153792000Y-78862000D01*
X156210000Y-84455000D02*
X155765500Y-84010500D01*
X156210000Y-85090000D02*
X156210000Y-84455000D01*
X155765500Y-84010500D02*
X155765500Y-85026500D01*
X155765500Y-85026500D02*
X155829000Y-85090000D01*
D40*
X153792000Y-78862000D02*
X154431990Y-79501990D01*
X154431990Y-79501990D02*
X154431990Y-80830026D01*
X154431990Y-80830026D02*
X154940000Y-81338036D01*
X154940000Y-83185000D02*
X155765500Y-84010500D01*
X154940000Y-81338036D02*
X154940000Y-83185000D01*
D38*
X152010000Y-81402000D02*
X153792000Y-81402000D01*
X156210000Y-89535000D02*
X155765500Y-89090500D01*
X156210000Y-90170000D02*
X156210000Y-89535000D01*
X155765500Y-89090500D02*
X155765500Y-90233500D01*
X155765500Y-90233500D02*
X155829000Y-90297000D01*
D40*
X154940000Y-83903435D02*
X154940000Y-88181564D01*
X154940000Y-88181564D02*
X155765500Y-89007064D01*
X154431988Y-82041988D02*
X154431988Y-83395423D01*
X153792000Y-81402000D02*
X154431988Y-82041988D01*
X154431988Y-83395423D02*
X154940000Y-83903435D01*
X155765500Y-89007064D02*
X155765500Y-89090500D01*
X153923982Y-83605850D02*
X154432000Y-84113868D01*
X154431991Y-88054575D02*
X154431991Y-88475425D01*
X154432000Y-84113868D02*
X154432000Y-88054566D01*
X154432000Y-88054566D02*
X154431991Y-88054575D01*
X154431991Y-88475425D02*
X154856566Y-88900000D01*
X154856566Y-88900000D02*
X154940000Y-88983434D01*
X154940000Y-88983434D02*
X154940000Y-90297000D01*
X154940000Y-90297000D02*
X154939999Y-90779601D01*
D38*
X156210000Y-92049602D02*
X155841699Y-91681301D01*
X156210000Y-92710000D02*
X156210000Y-92049602D01*
D40*
X154939999Y-90779601D02*
X155841699Y-91681301D01*
D38*
X155841699Y-91681301D02*
X155841699Y-92595699D01*
X155841699Y-92595699D02*
X155956000Y-92710000D01*
D40*
X152990132Y-82672000D02*
X152903000Y-82672000D01*
D38*
X152010000Y-82672000D02*
X152903000Y-82672000D01*
X152903000Y-82672000D02*
X153665000Y-82672000D01*
D40*
X153670000Y-82677000D02*
X153923979Y-82677000D01*
X153665000Y-82672000D02*
X153670000Y-82677000D01*
X153923979Y-82677000D02*
X153923979Y-83580453D01*
X153923982Y-83580456D02*
X153923982Y-83605850D01*
X153923979Y-83580453D02*
X153923982Y-83580456D01*
X153713566Y-82720566D02*
X153665000Y-82672000D01*
X153713566Y-83395434D02*
X153713566Y-82720566D01*
X153923982Y-83605850D02*
X153713566Y-83395434D01*
X153523066Y-82813934D02*
X153665000Y-82672000D01*
X153523066Y-83204934D02*
X153523066Y-82813934D01*
X153713566Y-83395434D02*
X153523066Y-83204934D01*
X153523066Y-83204934D02*
X152990132Y-82672000D01*
D38*
X152010000Y-83942000D02*
X153167000Y-83942000D01*
D40*
X153167000Y-83942000D02*
X153923990Y-84698990D01*
X153923982Y-88685850D02*
X154431990Y-89193858D01*
X153923981Y-87844151D02*
X153923982Y-88685850D01*
X153923990Y-84698990D02*
X153923990Y-87844142D01*
X153923990Y-87844142D02*
X153923981Y-87844151D01*
X154431990Y-89193858D02*
X154431990Y-90423990D01*
X154431987Y-90990025D02*
X154940000Y-91498038D01*
X154431990Y-90423990D02*
X154431987Y-90990025D01*
X154940000Y-91498038D02*
X154940000Y-92583000D01*
X154940000Y-92583000D02*
X154939999Y-93344999D01*
D38*
X156210000Y-94615000D02*
X155765500Y-94170500D01*
X156210000Y-95250000D02*
X156210000Y-94615000D01*
D40*
X154939999Y-93344999D02*
X155765500Y-94170500D01*
D38*
X155765500Y-94170500D02*
X155765500Y-95186500D01*
X155765500Y-95186500D02*
X155829000Y-95250000D01*
X152010000Y-86482000D02*
X150500000Y-86482000D01*
X150500000Y-86482000D02*
X150495000Y-86487000D01*
X152010000Y-85212000D02*
X153157000Y-85212000D01*
X153161980Y-85216980D02*
X153157000Y-85212000D01*
X156210000Y-97155000D02*
X155765500Y-96710500D01*
X156210000Y-97790000D02*
X156210000Y-97155000D01*
X155765500Y-96710500D02*
X155765500Y-97853500D01*
X155765500Y-97853500D02*
X155829000Y-97917000D01*
D40*
X153415980Y-88899980D02*
X153923980Y-89407980D01*
X153923980Y-89407980D02*
X153923978Y-91200450D01*
X153923978Y-91200450D02*
X154431989Y-91708459D01*
X154940010Y-94698426D02*
X154939999Y-94698437D01*
X154939999Y-95884999D02*
X155765500Y-96710500D01*
X154940010Y-94150574D02*
X154940010Y-94698426D01*
X154431989Y-93642553D02*
X154940010Y-94150574D01*
X154939999Y-94698437D02*
X154939999Y-95884999D01*
X154431989Y-91708459D02*
X154431989Y-93642553D01*
X152010000Y-85212000D02*
X152750600Y-85212000D01*
X153415980Y-85877380D02*
X153415980Y-85902780D01*
X152750600Y-85212000D02*
X153415980Y-85877380D01*
X153415980Y-85902780D02*
X153415980Y-88899980D01*
X153415980Y-85216980D02*
X153415980Y-85902780D01*
X153161980Y-85216980D02*
X153415980Y-85216980D01*
D38*
X152010000Y-87752000D02*
X150500000Y-87752000D01*
X150500000Y-87752000D02*
X150495000Y-87757000D01*
D37*
X154135000Y-104206000D02*
X155006000Y-104206000D01*
X155006000Y-104206000D02*
X156210000Y-105410000D01*
D40*
X154940000Y-104140000D02*
X155006000Y-104206000D01*
X154431989Y-96138989D02*
X154940000Y-96647000D01*
X154432000Y-94488002D02*
X154431989Y-94488013D01*
X153415970Y-89661971D02*
X153415969Y-91410875D01*
X152776000Y-89022000D02*
X153415970Y-89661971D01*
X152010000Y-89022000D02*
X152776000Y-89022000D01*
X153415969Y-91410875D02*
X153923978Y-91918884D01*
X154431989Y-94488013D02*
X154431989Y-96138989D01*
X154432000Y-94361000D02*
X154432000Y-94488002D01*
X153923978Y-91918884D02*
X153923978Y-93852978D01*
X153923978Y-93852978D02*
X154432000Y-94361000D01*
X154940000Y-103378000D02*
X154940000Y-103505000D01*
X154940000Y-103378000D02*
X154940000Y-104140000D01*
X154940000Y-103505000D02*
X154432000Y-104013000D01*
X154940000Y-96647000D02*
X154940000Y-102997000D01*
X154940000Y-102997000D02*
X154940000Y-103378000D01*
X154940000Y-103441500D02*
X156273500Y-104775000D01*
X154940000Y-102997000D02*
X154940000Y-103441500D01*
X153111199Y-89357200D02*
X151155400Y-89357200D01*
X153415970Y-89661971D02*
X153111199Y-89357200D01*
D38*
X147970000Y-90022000D02*
X147970000Y-91179628D01*
X147970000Y-91179628D02*
X148447373Y-91657001D01*
D40*
X148447373Y-91657001D02*
X148285200Y-91494828D01*
X148285200Y-91494828D02*
X148285200Y-90373200D01*
D38*
X152010000Y-91562000D02*
X150500000Y-91562000D01*
X150404999Y-91657001D02*
X150495000Y-91567000D01*
X148447373Y-91657001D02*
X150404999Y-91657001D01*
X150500000Y-91562000D02*
X150495000Y-91567000D01*
X156210000Y-107696000D02*
X156210000Y-107950000D01*
X154135000Y-106106000D02*
X154620000Y-106106000D01*
X154620000Y-106106000D02*
X156210000Y-107696000D01*
D42*
X152010000Y-90292000D02*
X150500000Y-90292000D01*
D38*
X150500000Y-90292000D02*
X150495000Y-90297000D01*
X149240000Y-90022000D02*
X149240000Y-90282000D01*
D42*
X149255000Y-90297000D02*
X150495000Y-90297000D01*
D38*
X149240000Y-90282000D02*
X149255000Y-90297000D01*
D39*
X150164800Y-90297000D02*
X149707600Y-90754200D01*
X150495000Y-90297000D02*
X150164800Y-90297000D01*
X150495000Y-90297000D02*
X149504400Y-89306400D01*
X149504400Y-89306400D02*
X149225000Y-89306400D01*
X139065000Y-101600000D02*
X140335000Y-101600000D01*
X139065000Y-102108000D02*
X139065000Y-101600000D01*
X142718000Y-102169000D02*
X139126000Y-102169000D01*
X139126000Y-102169000D02*
X139065000Y-102108000D01*
X142718000Y-102169000D02*
X142047000Y-102169000D01*
X142047000Y-102169000D02*
X141351000Y-101473000D01*
X141351000Y-101473000D02*
X140716000Y-101473000D01*
D40*
X149415500Y-108013500D02*
X149415500Y-108112560D01*
X149415500Y-107886500D02*
X148463000Y-106934000D01*
X149415500Y-108112560D02*
X149415500Y-107886500D01*
X148392000Y-106863000D02*
X148463000Y-106934000D01*
X148280000Y-106863000D02*
X148463000Y-106680000D01*
X148026000Y-106863000D02*
X148280000Y-106863000D01*
X147383500Y-106863000D02*
X148026000Y-106863000D01*
X148463000Y-106934000D02*
X148463000Y-106680000D01*
X148026000Y-106863000D02*
X148392000Y-106863000D01*
X149008900Y-105499100D02*
X149098000Y-105410000D01*
X148463000Y-106680000D02*
X148463000Y-105763476D01*
X148703238Y-105523238D02*
X148984762Y-105523238D01*
X148463000Y-105763476D02*
X148703238Y-105523238D01*
X148984762Y-105523238D02*
X149098000Y-105410000D01*
X148943476Y-105283000D02*
X149098000Y-105283000D01*
X148703238Y-105523238D02*
X148943476Y-105283000D01*
X150622000Y-105410000D02*
X150853999Y-105641999D01*
X150368000Y-105410000D02*
X150241000Y-105410000D01*
X150853999Y-105895999D02*
X150368000Y-105410000D01*
D39*
X150241000Y-105410000D02*
X150622000Y-105410000D01*
X150114000Y-105410000D02*
X150241000Y-105410000D01*
D40*
X150853999Y-105641999D02*
X150853999Y-105895999D01*
X150853999Y-105641999D02*
X150853999Y-105410000D01*
X150853999Y-105410000D02*
X150853999Y-105260999D01*
X150853999Y-105260999D02*
X150749000Y-105156000D01*
X150749000Y-105156000D02*
X150177500Y-105156000D01*
X150177500Y-105156000D02*
X149987000Y-105156000D01*
X149987000Y-105156000D02*
X149987000Y-105410000D01*
X153611959Y-107031559D02*
X154492960Y-107912560D01*
X151564993Y-107031559D02*
X153611959Y-107031559D01*
X154492960Y-107912560D02*
X154492960Y-108112560D01*
X150853999Y-106320565D02*
X151564993Y-107031559D01*
X150853999Y-105895999D02*
X150853999Y-106320565D01*
X150368000Y-107271436D02*
X150051565Y-106955001D01*
X152437060Y-109220000D02*
X152096322Y-109220000D01*
X150193862Y-109220000D02*
X149987000Y-109220000D01*
X150368000Y-108839000D02*
X150368000Y-107271436D01*
X150368000Y-109220000D02*
X150368000Y-108839000D01*
X150368000Y-108839000D02*
X150368000Y-109045862D01*
X149987000Y-109220000D02*
X150368000Y-109220000D01*
X150368000Y-109045862D02*
X150193862Y-109220000D01*
X150368000Y-108839000D02*
X150368000Y-109048402D01*
X150368000Y-109220000D02*
X150876000Y-109220000D01*
X150539598Y-109220000D02*
X150876000Y-109220000D01*
X150368000Y-109048402D02*
X150539598Y-109220000D01*
X150876000Y-109220000D02*
X152096322Y-109220000D01*
X149098000Y-106299000D02*
X149098000Y-106426000D01*
X150051565Y-106955001D02*
X149584999Y-106955001D01*
X149584999Y-106912999D02*
X149584999Y-106955001D01*
X149098000Y-106426000D02*
X149584999Y-106912999D01*
X148971000Y-106426000D02*
X149098000Y-106299000D01*
X148971000Y-106553000D02*
X148971000Y-106426000D01*
X149584999Y-106955001D02*
X149373001Y-106955001D01*
X149373001Y-106955001D02*
X148971000Y-106553000D01*
X152590500Y-108112560D02*
X152273000Y-108430060D01*
X152273000Y-109043322D02*
X152096322Y-109220000D01*
X152273000Y-108430060D02*
X152273000Y-109043322D01*
X152437060Y-109220000D02*
X152437060Y-108039940D01*
X152437060Y-108039940D02*
X152527000Y-107950000D01*
X152908000Y-108204000D02*
X152908000Y-108749060D01*
X152590500Y-108112560D02*
X152816560Y-108112560D01*
X152816560Y-108112560D02*
X152908000Y-108204000D01*
X152672530Y-108984530D02*
X152672530Y-108222530D01*
X152908000Y-108749060D02*
X152672530Y-108984530D01*
X152672530Y-108984530D02*
X152437060Y-109220000D01*
X152672530Y-108222530D02*
X152527000Y-108077000D01*
X148637138Y-109220000D02*
X149987000Y-109220000D01*
X148463000Y-109045862D02*
X148637138Y-109220000D01*
X148463000Y-107703500D02*
X148463000Y-109045862D01*
X148272500Y-107513000D02*
X148463000Y-107703500D01*
X147383500Y-107513000D02*
X148272500Y-107513000D01*
D39*
X152527000Y-110846000D02*
X153327500Y-110045500D01*
X152527000Y-110871000D02*
X152527000Y-110846000D01*
X153327500Y-110045500D02*
X153416000Y-110045500D01*
X153543000Y-110871000D02*
X152527000Y-110871000D01*
X153545540Y-110322360D02*
X153545540Y-110868460D01*
X153545540Y-110868460D02*
X153543000Y-110871000D01*
X148687000Y-111826000D02*
X148362000Y-111826000D01*
D41*
X138189018Y-104280018D02*
X138430000Y-104521000D01*
X133223000Y-107315000D02*
X133223000Y-104648000D01*
X133590982Y-104280018D02*
X138189018Y-104280018D01*
X133223000Y-104648000D02*
X133590982Y-104280018D01*
D40*
X148362000Y-111826000D02*
X147724511Y-111188511D01*
X147724511Y-111188511D02*
X147955011Y-111188511D01*
X147955011Y-111188511D02*
X148488390Y-111721890D01*
X148488390Y-111721890D02*
X148526500Y-111721890D01*
X142240000Y-105791000D02*
X142232010Y-105783010D01*
X142240000Y-107950000D02*
X142240000Y-105791000D01*
X142747989Y-109854989D02*
X142747989Y-108457989D01*
X142747989Y-108457989D02*
X142240000Y-107950000D01*
X147724511Y-111188511D02*
X144081511Y-111188511D01*
X144081511Y-111188511D02*
X142747989Y-109854989D01*
D39*
X151287000Y-111826000D02*
X152339000Y-111826000D01*
X152339000Y-111826000D02*
X152654000Y-112141000D01*
X146431000Y-99441000D02*
X146431000Y-99377500D01*
X145318000Y-100269000D02*
X145603000Y-100269000D01*
X145603000Y-100269000D02*
X146431000Y-99441000D01*
X144907000Y-100076000D02*
X145605500Y-99377500D01*
X145605500Y-99377500D02*
X145986500Y-99377500D01*
X144907000Y-100203000D02*
X144907000Y-100076000D01*
X145318000Y-100269000D02*
X144973000Y-100269000D01*
X145986500Y-99377500D02*
X145288000Y-100076000D01*
X144973000Y-100269000D02*
X144907000Y-100203000D01*
X145986500Y-99377500D02*
X146431000Y-99377500D01*
D40*
X141731967Y-110299467D02*
X142860000Y-111427500D01*
X141731967Y-108878839D02*
X141731967Y-110299467D01*
X141016128Y-108163000D02*
X141731967Y-108878839D01*
X142860000Y-111427500D02*
X142860000Y-112547000D01*
X140144500Y-108163000D02*
X141016128Y-108163000D01*
X141084564Y-107513000D02*
X142239978Y-108668414D01*
X140144500Y-107513000D02*
X141084564Y-107513000D01*
X142239978Y-108668414D02*
X142239978Y-110089042D01*
X142239978Y-110089042D02*
X143510000Y-111359064D01*
X143510000Y-111359064D02*
X143510000Y-112522000D01*
D39*
X148687000Y-113726000D02*
X148717000Y-113756000D01*
X148717000Y-113756000D02*
X148717000Y-113919000D01*
X148767789Y-113969789D02*
X148717000Y-113919000D01*
D37*
X150355300Y-116225320D02*
X149735254Y-116225320D01*
X148716989Y-115207055D02*
X148716989Y-114020589D01*
X149735254Y-116225320D02*
X148716989Y-115207055D01*
X148716989Y-114020589D02*
X148767789Y-113969789D01*
X153162000Y-102616000D02*
X153153999Y-102624001D01*
X153375360Y-101470460D02*
X153291540Y-101470460D01*
X153162000Y-101600000D02*
X153162000Y-102616000D01*
X153291540Y-101470460D02*
X153162000Y-101600000D01*
X153543000Y-101473000D02*
X153543000Y-102362000D01*
X153153999Y-102624001D02*
X153153999Y-102751001D01*
X153543000Y-102362000D02*
X153153999Y-102751001D01*
X153153999Y-102751001D02*
X152019001Y-103885999D01*
D39*
X133222999Y-81026001D02*
X133223000Y-81026000D01*
X133223000Y-80137001D02*
X133223000Y-80899000D01*
X133222999Y-80899001D02*
X133223000Y-80899000D01*
X133222999Y-81661000D02*
X133222999Y-80899001D01*
X133222999Y-81661000D02*
X133223000Y-82444001D01*
X133223000Y-82444001D02*
X133223000Y-82550000D01*
D40*
X138628000Y-106863000D02*
X138557000Y-106934000D01*
X141351000Y-103632000D02*
X140970000Y-103251000D01*
X140144500Y-106863000D02*
X141092974Y-106863000D01*
X141351000Y-106604974D02*
X141351000Y-103632000D01*
X141092974Y-106863000D02*
X141351000Y-106604974D01*
X139375000Y-106863000D02*
X139263000Y-106863000D01*
X140144500Y-106863000D02*
X139375000Y-106863000D01*
X139375000Y-106863000D02*
X138628000Y-106863000D01*
X139263000Y-106863000D02*
X139065000Y-107061000D01*
X139065000Y-107061000D02*
X138557000Y-107061000D01*
D39*
X139446000Y-103251000D02*
X140970000Y-103251000D01*
X137287000Y-102235000D02*
X137287000Y-101727000D01*
X137287000Y-101727000D02*
X137287000Y-100330000D01*
X138176000Y-99822000D02*
X137922000Y-99822000D01*
X137922000Y-102743000D02*
X137858500Y-102806500D01*
X137922000Y-99822000D02*
X137922000Y-102743000D01*
X138176000Y-99822000D02*
X137668000Y-99822000D01*
X137668000Y-99822000D02*
X137668000Y-102489000D01*
X137668000Y-102489000D02*
X137604500Y-102552500D01*
X137858500Y-102806500D02*
X137604500Y-102552500D01*
X137604500Y-102552500D02*
X137287000Y-102235000D01*
X136398000Y-101600000D02*
X136398000Y-101219000D01*
X136969500Y-101409500D02*
X137287000Y-101727000D01*
X136969500Y-100906500D02*
X136969500Y-101409500D01*
X137287000Y-102235000D02*
X136464000Y-101412000D01*
X136464000Y-101412000D02*
X136969500Y-100906500D01*
X137668000Y-99949000D02*
X137668000Y-99822000D01*
D38*
X152010000Y-77592000D02*
X153919000Y-77592000D01*
D40*
X154431988Y-78104988D02*
X154431988Y-78231988D01*
X154431990Y-78231990D02*
X154431990Y-78338880D01*
X153919000Y-77592000D02*
X154431988Y-78104988D01*
X154940000Y-78846890D02*
X154939999Y-80619601D01*
X154431988Y-78231988D02*
X154431990Y-78231990D01*
X154431990Y-78338880D02*
X154940000Y-78846890D01*
D38*
X156210000Y-81889602D02*
X155809949Y-81489551D01*
X156210000Y-82550000D02*
X156210000Y-81889602D01*
D40*
X154939999Y-80619601D02*
X155809949Y-81489551D01*
D38*
X155809949Y-82594449D02*
X155829000Y-82613500D01*
X155809949Y-81489551D02*
X155765500Y-81534000D01*
X155765500Y-81534000D02*
X155765500Y-82613500D01*
X155765500Y-82613500D02*
X156210000Y-82613500D01*
D40*
X137922000Y-99822000D02*
X137668000Y-99822000D01*
X137160000Y-100457000D02*
X136969500Y-100647500D01*
D39*
X136398000Y-101219000D02*
X136969500Y-100647500D01*
X136969500Y-100647500D02*
X137287000Y-100330000D01*
X137477500Y-100139500D02*
X137668000Y-99949000D01*
X137287000Y-100330000D02*
X137477500Y-100139500D01*
X138199999Y-99845999D02*
X138176000Y-99822000D01*
X138199999Y-102609401D02*
X138199999Y-99845999D01*
X138430000Y-103314500D02*
X138430000Y-102839402D01*
X137858500Y-102806500D02*
X138366500Y-103314500D01*
X138430000Y-102839402D02*
X138199999Y-102609401D01*
X138366500Y-103314500D02*
X138430000Y-103314500D01*
D40*
X137287000Y-100330000D02*
X137304099Y-100312901D01*
X136969500Y-100647500D02*
X137265999Y-100351001D01*
X137414000Y-100076000D02*
X137477500Y-100139500D01*
X137414000Y-99568000D02*
X137414000Y-100076000D01*
X145550001Y-95749999D02*
X146050000Y-95250000D01*
X142125751Y-95885000D02*
X145415000Y-95885000D01*
X140220761Y-97789990D02*
X142125751Y-95885000D01*
X145415000Y-95885000D02*
X145550001Y-95749999D01*
X137976470Y-97789990D02*
X140220761Y-97789990D01*
X137414000Y-98352460D02*
X137976470Y-97789990D01*
X137414000Y-99568000D02*
X137414000Y-98352460D01*
X137668000Y-99822000D02*
X137414000Y-99568000D01*
X137795000Y-99822000D02*
X137414000Y-99441000D01*
X138112500Y-99822000D02*
X137795000Y-99822000D01*
X137064000Y-105563000D02*
X137694000Y-105563000D01*
X136779000Y-105278000D02*
X137064000Y-105563000D01*
X140144500Y-105563000D02*
X138075000Y-105563000D01*
X138075000Y-105563000D02*
X137694000Y-105563000D01*
X137414000Y-104902000D02*
X136652000Y-104902000D01*
X137922000Y-105410000D02*
X136906000Y-105410000D01*
X138075000Y-105563000D02*
X137922000Y-105410000D01*
X137795000Y-105283000D02*
X136906000Y-105283000D01*
X137922000Y-105410000D02*
X137795000Y-105283000D01*
X137668000Y-105156000D02*
X136906000Y-105156000D01*
X137795000Y-105283000D02*
X137668000Y-105156000D01*
X137668000Y-105156000D02*
X137414000Y-104902000D01*
D38*
X152010000Y-76322000D02*
X154006146Y-76322000D01*
X156210000Y-80010000D02*
X156210000Y-79375000D01*
X156210000Y-79375000D02*
X155765500Y-78930500D01*
X155765500Y-78930500D02*
X155765500Y-79946500D01*
X155765500Y-79946500D02*
X155829000Y-80010000D01*
D40*
X155765500Y-78876500D02*
X155765500Y-78930500D01*
X154940000Y-78051000D02*
X155765500Y-78876500D01*
X154006146Y-76322000D02*
X154940000Y-77255854D01*
X154940000Y-77255854D02*
X154940000Y-78051000D01*
X134493000Y-101478000D02*
X134244000Y-101478000D01*
X134244000Y-101478000D02*
X133985000Y-101219000D01*
D38*
X134678500Y-101478000D02*
X135445500Y-100711000D01*
X134493000Y-101478000D02*
X134678500Y-101478000D01*
D40*
X136905989Y-99250511D02*
X136905990Y-98142034D01*
X135445500Y-100711000D02*
X136905989Y-99250511D01*
X141915326Y-95376989D02*
X144018011Y-95376989D01*
X136905990Y-98142034D02*
X137766045Y-97281979D01*
X144399000Y-94996000D02*
X144780000Y-94996000D01*
X137766045Y-97281979D02*
X140010336Y-97281979D01*
X140010336Y-97281979D02*
X141915326Y-95376989D01*
X144399011Y-95376989D02*
X144780000Y-94996000D01*
X144018011Y-95376989D02*
X144399011Y-95376989D01*
X144272000Y-95249978D02*
X144272000Y-95123000D01*
X144018011Y-95376989D02*
X144272000Y-95123000D01*
X144399011Y-95376989D02*
X144272000Y-95249978D01*
X144272000Y-95123000D02*
X144399000Y-94996000D01*
D39*
X136525000Y-106934000D02*
X136525000Y-106426000D01*
D40*
X136865000Y-106213000D02*
X140144500Y-106213000D01*
X134493000Y-105278000D02*
X134615000Y-105278000D01*
X134615000Y-105278000D02*
X135550000Y-106213000D01*
X135550000Y-106213000D02*
X136230000Y-106213000D01*
X136443000Y-106426000D02*
X136652000Y-106426000D01*
X136230000Y-106213000D02*
X136443000Y-106426000D01*
X136652000Y-106426000D02*
X136865000Y-106213000D01*
X136865000Y-106213000D02*
X136230000Y-106213000D01*
X135550000Y-106213000D02*
X135296000Y-106213000D01*
X135296000Y-106213000D02*
X134620000Y-105537000D01*
D38*
X135010000Y-77592000D02*
X136520000Y-77592000D01*
X136520000Y-77592000D02*
X136525000Y-77597000D01*
D37*
X130810000Y-77470000D02*
X130810000Y-76962000D01*
X130810000Y-76962000D02*
X131064000Y-76708000D01*
D40*
X134239000Y-76327000D02*
X135001000Y-76327000D01*
X133858000Y-75946000D02*
X134239000Y-76327000D01*
X133858000Y-75946000D02*
X133921500Y-76009500D01*
X133921500Y-76009500D02*
X134937500Y-76009500D01*
X132334000Y-75311000D02*
X133223000Y-75311000D01*
X131064000Y-76708000D02*
X131064000Y-76581000D01*
X133223000Y-75311000D02*
X133858000Y-75946000D01*
X131064000Y-76581000D02*
X131572000Y-76073000D01*
X131572000Y-76073000D02*
X132334000Y-75311000D01*
D38*
X135010000Y-92832000D02*
X136517042Y-92832000D01*
X136639075Y-92709967D02*
X136517042Y-92832000D01*
X138948879Y-92709967D02*
X136639075Y-92709967D01*
X140350000Y-90022000D02*
X140350000Y-91308846D01*
X140350000Y-91308846D02*
X138948879Y-92709967D01*
X135010000Y-95372000D02*
X137155000Y-95372000D01*
X137155000Y-95372000D02*
X137160000Y-95377000D01*
D39*
X137259553Y-95377000D02*
X137160000Y-95377000D01*
X138021542Y-94615011D02*
X137259553Y-95377000D01*
X139804989Y-94615011D02*
X138021542Y-94615011D01*
X142890000Y-90022000D02*
X142890000Y-91530000D01*
X142890000Y-91530000D02*
X139804989Y-94615011D01*
D38*
X135010000Y-94102000D02*
X137105367Y-94102000D01*
X137105367Y-94102000D02*
X137129768Y-94077599D01*
X137481389Y-93725978D02*
X137129768Y-94077599D01*
X139369724Y-93725978D02*
X137481389Y-93725978D01*
X141620000Y-90022000D02*
X141620000Y-91475702D01*
X141620000Y-91475702D02*
X139369724Y-93725978D01*
X147856804Y-95377000D02*
X149787894Y-95377000D01*
X144160000Y-90022000D02*
X144160000Y-91680196D01*
X149787894Y-95377000D02*
X150495000Y-95377000D01*
X152010000Y-95372000D02*
X150500000Y-95372000D01*
X150500000Y-95372000D02*
X150495000Y-95377000D01*
X144160000Y-91680196D02*
X147856804Y-95377000D01*
X148023660Y-94107000D02*
X149787894Y-94107000D01*
X150500000Y-94102000D02*
X150495000Y-94107000D01*
X145430000Y-90022000D02*
X145430000Y-91513340D01*
X152010000Y-94102000D02*
X150500000Y-94102000D01*
X145430000Y-91513340D02*
X148023660Y-94107000D01*
X149787894Y-94107000D02*
X150495000Y-94107000D01*
X148190517Y-92837000D02*
X149787894Y-92837000D01*
X146700000Y-90022000D02*
X146700000Y-91346483D01*
X150500000Y-92832000D02*
X150495000Y-92837000D01*
X146700000Y-91346483D02*
X148190517Y-92837000D01*
X152010000Y-92832000D02*
X150500000Y-92832000D01*
X149787894Y-92837000D02*
X150495000Y-92837000D01*
D39*
X133223000Y-77216000D02*
X133223000Y-77978000D01*
X133223000Y-78740000D02*
X133223000Y-77978000D01*
X133223000Y-83693000D02*
X133223000Y-95631000D01*
D40*
X138937978Y-95250022D02*
X141323857Y-95250022D01*
X137922043Y-96265957D02*
X138937978Y-95250022D01*
X142085879Y-94488000D02*
X143510000Y-94488000D01*
X133223000Y-95631000D02*
X133857957Y-96265957D01*
X141323857Y-95250022D02*
X142085879Y-94488000D01*
X133857957Y-96265957D02*
X137922043Y-96265957D01*
G36*
X145905542Y-111849365D02*
G01*
X145864767Y-112090639D01*
X146025338Y-112286500D01*
X146919500Y-112286500D01*
X146919500Y-112266500D01*
X147300500Y-112266500D01*
X147300500Y-112286500D01*
X147320500Y-112286500D01*
X147320500Y-112667500D01*
X147300500Y-112667500D01*
X147300500Y-113836256D01*
X147489039Y-113952395D01*
X147704157Y-113870227D01*
X147704157Y-114001000D01*
X147711513Y-114075689D01*
X147733299Y-114147508D01*
X147768678Y-114213696D01*
X147816289Y-114271711D01*
X147827990Y-114281313D01*
X147827989Y-114633299D01*
X147730006Y-114563646D01*
X147489039Y-114471605D01*
X147300500Y-114587744D01*
X147300500Y-115756500D01*
X147320500Y-115756500D01*
X147320500Y-116137500D01*
X147300500Y-116137500D01*
X147300500Y-117306256D01*
X147489039Y-117422395D01*
X147730006Y-117330354D01*
X147929445Y-117188580D01*
X148097393Y-117010622D01*
X148227396Y-116803318D01*
X148314458Y-116574635D01*
X148355233Y-116333361D01*
X148194664Y-116137502D01*
X148345000Y-116137502D01*
X148345000Y-116092301D01*
X149075759Y-116823061D01*
X149103595Y-116856979D01*
X149238963Y-116968073D01*
X149278763Y-116989346D01*
X149279813Y-117000009D01*
X149301599Y-117071828D01*
X149336978Y-117138016D01*
X149384589Y-117196031D01*
X149442604Y-117243642D01*
X149508792Y-117279021D01*
X149580611Y-117300807D01*
X149655300Y-117308163D01*
X151055300Y-117308163D01*
X151129989Y-117300807D01*
X151201808Y-117279021D01*
X151267996Y-117243642D01*
X151326011Y-117196031D01*
X151336815Y-117182866D01*
X151694082Y-117182866D01*
X151758379Y-117409017D01*
X152001838Y-117508425D01*
X152260013Y-117558426D01*
X152522981Y-117557099D01*
X152780638Y-117504494D01*
X153011141Y-117409017D01*
X153075438Y-117182866D01*
X152384760Y-116492188D01*
X151694082Y-117182866D01*
X151336815Y-117182866D01*
X151373622Y-117138016D01*
X151409001Y-117071828D01*
X151430787Y-117000009D01*
X151438143Y-116925320D01*
X151438143Y-116899989D01*
X152115352Y-116222780D01*
X152654168Y-116222780D01*
X153344846Y-116913458D01*
X153570997Y-116849161D01*
X153670405Y-116605702D01*
X153720406Y-116347527D01*
X153719079Y-116084559D01*
X153666474Y-115826902D01*
X153570997Y-115596399D01*
X153344846Y-115532102D01*
X152654168Y-116222780D01*
X152115352Y-116222780D01*
X151438143Y-115545571D01*
X151438143Y-115525320D01*
X151430787Y-115450631D01*
X151409001Y-115378812D01*
X151373622Y-115312624D01*
X151332647Y-115262694D01*
X151694082Y-115262694D01*
X152384760Y-115953372D01*
X153075438Y-115262694D01*
X153011141Y-115036543D01*
X152767682Y-114937135D01*
X152509507Y-114887134D01*
X152246539Y-114888461D01*
X151988882Y-114941066D01*
X151758379Y-115036543D01*
X151694082Y-115262694D01*
X151332647Y-115262694D01*
X151326011Y-115254609D01*
X151267996Y-115206998D01*
X151201808Y-115171619D01*
X151129989Y-115149833D01*
X151055300Y-115142477D01*
X149909647Y-115142477D01*
X149605989Y-114838820D01*
X149605989Y-114269122D01*
X149630815Y-114187282D01*
X149744709Y-114280753D01*
X149899149Y-114363303D01*
X150066726Y-114414136D01*
X150197333Y-114427000D01*
X152190787Y-114427000D01*
X152209500Y-114428843D01*
X153225500Y-114428843D01*
X153300189Y-114421487D01*
X153372008Y-114399701D01*
X153437754Y-114364558D01*
X153456963Y-114400494D01*
X153536315Y-114497185D01*
X153633006Y-114576537D01*
X153743320Y-114635502D01*
X153863018Y-114671812D01*
X153987500Y-114684072D01*
X154146250Y-114681000D01*
X154305000Y-114522250D01*
X154305000Y-113728500D01*
X154285000Y-113728500D01*
X154285000Y-113347500D01*
X154305000Y-113347500D01*
X154305000Y-113327500D01*
X154686000Y-113327500D01*
X154686000Y-113347500D01*
X154706000Y-113347500D01*
X154706000Y-113728500D01*
X154686000Y-113728500D01*
X154686000Y-114522250D01*
X154844750Y-114681000D01*
X155003500Y-114684072D01*
X155127982Y-114671812D01*
X155247680Y-114635502D01*
X155357994Y-114576537D01*
X155454685Y-114497185D01*
X155534037Y-114400494D01*
X155593002Y-114290180D01*
X155629312Y-114170482D01*
X155629915Y-114164359D01*
X155839555Y-114251195D01*
X156084916Y-114300000D01*
X155839555Y-114348805D01*
X155608429Y-114444541D01*
X155400422Y-114583527D01*
X155223527Y-114760422D01*
X155084541Y-114968429D01*
X154988805Y-115199555D01*
X154940000Y-115444916D01*
X154940000Y-115695084D01*
X154988805Y-115940445D01*
X155084541Y-116171571D01*
X155223527Y-116379578D01*
X155400422Y-116556473D01*
X155608429Y-116695459D01*
X155839555Y-116791195D01*
X156084916Y-116840000D01*
X155839555Y-116888805D01*
X155608429Y-116984541D01*
X155400422Y-117123527D01*
X155223527Y-117300422D01*
X155084541Y-117508429D01*
X154988805Y-117739555D01*
X154940000Y-117984916D01*
X154940000Y-118235084D01*
X154988805Y-118480445D01*
X155084541Y-118711571D01*
X155191736Y-118872000D01*
X149181421Y-118872000D01*
X148077855Y-117768435D01*
X148061948Y-117749052D01*
X147984595Y-117685571D01*
X147896343Y-117638399D01*
X147800585Y-117609351D01*
X147725947Y-117602000D01*
X147725944Y-117602000D01*
X147701000Y-117599543D01*
X147676056Y-117602000D01*
X146197580Y-117602000D01*
X146198072Y-117597000D01*
X146195000Y-117446250D01*
X146036250Y-117287500D01*
X145200500Y-117287500D01*
X145200500Y-117307500D01*
X144819500Y-117307500D01*
X144819500Y-117287500D01*
X143983750Y-117287500D01*
X143825000Y-117446250D01*
X143821928Y-117597000D01*
X143822420Y-117602000D01*
X143197580Y-117602000D01*
X143198072Y-117597000D01*
X143195000Y-117446250D01*
X143036250Y-117287500D01*
X142200500Y-117287500D01*
X142200500Y-117307500D01*
X141819500Y-117307500D01*
X141819500Y-117287500D01*
X140983750Y-117287500D01*
X140825000Y-117446250D01*
X140821928Y-117597000D01*
X140822420Y-117602000D01*
X139343943Y-117602000D01*
X139318999Y-117599543D01*
X139294055Y-117602000D01*
X139294053Y-117602000D01*
X139219415Y-117609351D01*
X139123657Y-117638399D01*
X139123655Y-117638400D01*
X139035404Y-117685571D01*
X138980810Y-117730376D01*
X138958052Y-117749052D01*
X138942150Y-117768429D01*
X137838580Y-118872000D01*
X131828264Y-118872000D01*
X131935459Y-118711571D01*
X132031195Y-118480445D01*
X132080000Y-118235084D01*
X132080000Y-118197000D01*
X132596928Y-118197000D01*
X132609188Y-118321482D01*
X132645498Y-118441180D01*
X132704463Y-118551494D01*
X132783815Y-118648185D01*
X132880506Y-118727537D01*
X132990820Y-118786502D01*
X133110518Y-118822812D01*
X133235000Y-118835072D01*
X133635750Y-118832000D01*
X133794500Y-118673250D01*
X133794500Y-117937500D01*
X134175500Y-117937500D01*
X134175500Y-118673250D01*
X134334250Y-118832000D01*
X134735000Y-118835072D01*
X134859482Y-118822812D01*
X134979180Y-118786502D01*
X135089494Y-118727537D01*
X135186185Y-118648185D01*
X135265537Y-118551494D01*
X135324502Y-118441180D01*
X135360812Y-118321482D01*
X135373072Y-118197000D01*
X135370000Y-118096250D01*
X135211250Y-117937500D01*
X134175500Y-117937500D01*
X133794500Y-117937500D01*
X132758750Y-117937500D01*
X132600000Y-118096250D01*
X132596928Y-118197000D01*
X132080000Y-118197000D01*
X132080000Y-118097236D01*
X132167995Y-118009241D01*
X132251251Y-117907792D01*
X132333802Y-117753353D01*
X132372784Y-117624846D01*
X132599996Y-117397634D01*
X132600000Y-117397750D01*
X132758750Y-117556500D01*
X133794500Y-117556500D01*
X133794500Y-117536500D01*
X134175500Y-117536500D01*
X134175500Y-117556500D01*
X135211250Y-117556500D01*
X135343757Y-117423993D01*
X135992505Y-118072741D01*
X136020341Y-118106659D01*
X136155709Y-118217753D01*
X136181966Y-118231788D01*
X136189289Y-118240711D01*
X136247304Y-118288322D01*
X136313492Y-118323701D01*
X136385311Y-118345487D01*
X136460000Y-118352843D01*
X136495057Y-118352843D01*
X136608333Y-118364000D01*
X136608340Y-118364000D01*
X136652000Y-118368300D01*
X136695660Y-118364000D01*
X136868577Y-118364000D01*
X136906000Y-118367686D01*
X136943423Y-118364000D01*
X137315446Y-118364000D01*
X137359106Y-118368300D01*
X137402766Y-118364000D01*
X137402773Y-118364000D01*
X137516049Y-118352843D01*
X137860000Y-118352843D01*
X137934689Y-118345487D01*
X138006508Y-118323701D01*
X138072696Y-118288322D01*
X138130711Y-118240711D01*
X138178322Y-118182696D01*
X138213701Y-118116508D01*
X138235487Y-118044689D01*
X138242843Y-117970000D01*
X138242843Y-117848498D01*
X138265736Y-117825605D01*
X138299659Y-117797765D01*
X138410753Y-117662397D01*
X138493303Y-117507957D01*
X138526733Y-117397750D01*
X138544136Y-117340382D01*
X138550179Y-117279021D01*
X138557000Y-117209773D01*
X138557000Y-117209767D01*
X138561300Y-117166107D01*
X138557000Y-117122447D01*
X138557000Y-116502667D01*
X138561301Y-116459000D01*
X138548927Y-116333361D01*
X138664767Y-116333361D01*
X138705542Y-116574635D01*
X138792604Y-116803318D01*
X138922607Y-117010622D01*
X139090555Y-117188580D01*
X139289994Y-117330354D01*
X139530961Y-117422395D01*
X139719500Y-117306256D01*
X139719500Y-116137500D01*
X140100500Y-116137500D01*
X140100500Y-117306256D01*
X140289039Y-117422395D01*
X140530006Y-117330354D01*
X140729445Y-117188580D01*
X140897393Y-117010622D01*
X140970806Y-116893556D01*
X140983750Y-116906500D01*
X141819500Y-116906500D01*
X141819500Y-116120750D01*
X141660750Y-115962000D01*
X141460000Y-115958928D01*
X141335518Y-115971188D01*
X141215820Y-116007498D01*
X141105506Y-116066463D01*
X141008815Y-116145815D01*
X141005145Y-116150287D01*
X140994662Y-116137500D01*
X140100500Y-116137500D01*
X139719500Y-116137500D01*
X138825338Y-116137500D01*
X138664767Y-116333361D01*
X138548927Y-116333361D01*
X138544136Y-116284726D01*
X138493303Y-116117149D01*
X138410753Y-115962709D01*
X138299659Y-115827341D01*
X138164291Y-115716247D01*
X138009851Y-115633697D01*
X137842274Y-115582864D01*
X137711667Y-115570000D01*
X137668000Y-115565699D01*
X137624333Y-115570000D01*
X136695650Y-115570000D01*
X136651990Y-115565700D01*
X136608330Y-115570000D01*
X135933667Y-115570000D01*
X135890000Y-115565699D01*
X135846333Y-115570000D01*
X135734073Y-115581057D01*
X135715725Y-115582864D01*
X135680132Y-115593661D01*
X135616000Y-115613115D01*
X135616000Y-115498003D01*
X135587908Y-115356775D01*
X135532804Y-115223742D01*
X135452805Y-115104015D01*
X135350985Y-115002195D01*
X135231258Y-114922196D01*
X135098225Y-114867092D01*
X134956997Y-114839000D01*
X134813003Y-114839000D01*
X134671775Y-114867092D01*
X134538742Y-114922196D01*
X134419015Y-115002195D01*
X134317195Y-115104015D01*
X134237196Y-115223742D01*
X134182092Y-115356775D01*
X134154000Y-115498003D01*
X134154000Y-115641997D01*
X134182092Y-115783225D01*
X134198982Y-115824000D01*
X133771018Y-115824000D01*
X133787908Y-115783225D01*
X133816000Y-115641997D01*
X133816000Y-115498003D01*
X133787908Y-115356775D01*
X133732804Y-115223742D01*
X133652805Y-115104015D01*
X133550985Y-115002195D01*
X133431258Y-114922196D01*
X133298225Y-114867092D01*
X133156997Y-114839000D01*
X133013003Y-114839000D01*
X132871775Y-114867092D01*
X132861999Y-114871141D01*
X132861999Y-113925884D01*
X132881299Y-113989508D01*
X132916678Y-114055696D01*
X132964289Y-114113711D01*
X133022304Y-114161322D01*
X133088492Y-114196701D01*
X133160311Y-114218487D01*
X133235000Y-114225843D01*
X134735000Y-114225843D01*
X134809689Y-114218487D01*
X134881508Y-114196701D01*
X134947696Y-114161322D01*
X135005711Y-114113711D01*
X135029282Y-114084989D01*
X135171667Y-114084989D01*
X135302274Y-114072125D01*
X135469851Y-114021292D01*
X135624291Y-113938742D01*
X135759659Y-113827648D01*
X135870753Y-113692280D01*
X135953303Y-113537840D01*
X135966192Y-113495350D01*
X136077157Y-113606316D01*
X136077157Y-114170000D01*
X136084513Y-114244689D01*
X136106299Y-114316508D01*
X136141678Y-114382696D01*
X136189289Y-114440711D01*
X136247304Y-114488322D01*
X136313492Y-114523701D01*
X136385311Y-114545487D01*
X136460000Y-114552843D01*
X137053822Y-114552843D01*
X137116333Y-114559000D01*
X137876265Y-114559000D01*
X138151501Y-114834236D01*
X138179341Y-114868159D01*
X138314709Y-114979253D01*
X138469149Y-115061803D01*
X138563758Y-115090502D01*
X138636725Y-115112636D01*
X138653325Y-115114271D01*
X138767333Y-115125500D01*
X138767340Y-115125500D01*
X138778914Y-115126640D01*
X138705542Y-115319365D01*
X138664767Y-115560639D01*
X138825338Y-115756500D01*
X139719500Y-115756500D01*
X139719500Y-115736500D01*
X140100500Y-115736500D01*
X140100500Y-115756500D01*
X140994662Y-115756500D01*
X141155233Y-115560639D01*
X141114458Y-115319365D01*
X141045563Y-115138401D01*
X141982515Y-115138401D01*
X142011199Y-115141226D01*
X142039883Y-115138401D01*
X142039891Y-115138401D01*
X142125722Y-115129947D01*
X142235844Y-115096542D01*
X142337333Y-115042295D01*
X142426289Y-114969291D01*
X142444582Y-114947001D01*
X142504631Y-114886952D01*
X142502000Y-114900179D01*
X142502000Y-115223821D01*
X142565139Y-115541245D01*
X142688992Y-115840252D01*
X142799868Y-116006190D01*
X142684482Y-115971188D01*
X142560000Y-115958928D01*
X142359250Y-115962000D01*
X142200500Y-116120750D01*
X142200500Y-116906500D01*
X143036250Y-116906500D01*
X143195000Y-116747750D01*
X143198072Y-116597000D01*
X143185812Y-116472518D01*
X143157122Y-116377941D01*
X143366748Y-116518008D01*
X143665755Y-116641861D01*
X143823482Y-116673234D01*
X143825000Y-116747750D01*
X143983750Y-116906500D01*
X144819500Y-116906500D01*
X144819500Y-116886500D01*
X145200500Y-116886500D01*
X145200500Y-116906500D01*
X146036250Y-116906500D01*
X146049194Y-116893556D01*
X146122607Y-117010622D01*
X146290555Y-117188580D01*
X146489994Y-117330354D01*
X146730961Y-117422395D01*
X146919500Y-117306256D01*
X146919500Y-116137500D01*
X146025338Y-116137500D01*
X146014855Y-116150287D01*
X146011185Y-116145815D01*
X145914494Y-116066463D01*
X145804180Y-116007498D01*
X145684482Y-115971188D01*
X145560000Y-115958928D01*
X145521316Y-115959520D01*
X145601008Y-115840252D01*
X145716827Y-115560639D01*
X145864767Y-115560639D01*
X146025338Y-115756500D01*
X146919500Y-115756500D01*
X146919500Y-114587744D01*
X146730961Y-114471605D01*
X146489994Y-114563646D01*
X146290555Y-114705420D01*
X146122607Y-114883378D01*
X145992604Y-115090682D01*
X145905542Y-115319365D01*
X145864767Y-115560639D01*
X145716827Y-115560639D01*
X145724861Y-115541245D01*
X145788000Y-115223821D01*
X145788000Y-114900179D01*
X145724861Y-114582755D01*
X145673523Y-114458814D01*
X145708640Y-114451829D01*
X145832574Y-114400494D01*
X145944112Y-114325967D01*
X146038967Y-114231112D01*
X146113494Y-114119574D01*
X146164829Y-113995640D01*
X146191000Y-113864073D01*
X146191000Y-113729927D01*
X146164829Y-113598360D01*
X146155233Y-113575192D01*
X146290555Y-113718580D01*
X146489994Y-113860354D01*
X146730961Y-113952395D01*
X146919500Y-113836256D01*
X146919500Y-112667500D01*
X146025338Y-112667500D01*
X145864767Y-112863361D01*
X145905542Y-113104635D01*
X145982280Y-113306201D01*
X145944112Y-113268033D01*
X145832574Y-113193506D01*
X145784287Y-113173505D01*
X145782500Y-112896250D01*
X145623750Y-112737500D01*
X145020500Y-112737500D01*
X145020500Y-112757500D01*
X144774500Y-112757500D01*
X144774500Y-112737500D01*
X144767300Y-112737500D01*
X144767300Y-112356500D01*
X144774500Y-112356500D01*
X144774500Y-112336500D01*
X145020500Y-112336500D01*
X145020500Y-112356500D01*
X145623750Y-112356500D01*
X145782500Y-112197750D01*
X145785510Y-111730865D01*
X145782608Y-111696511D01*
X145963735Y-111696511D01*
X145905542Y-111849365D01*
G37*
X145905542Y-111849365D02*
X145864767Y-112090639D01*
X146025338Y-112286500D01*
X146919500Y-112286500D01*
X146919500Y-112266500D01*
X147300500Y-112266500D01*
X147300500Y-112286500D01*
X147320500Y-112286500D01*
X147320500Y-112667500D01*
X147300500Y-112667500D01*
X147300500Y-113836256D01*
X147489039Y-113952395D01*
X147704157Y-113870227D01*
X147704157Y-114001000D01*
X147711513Y-114075689D01*
X147733299Y-114147508D01*
X147768678Y-114213696D01*
X147816289Y-114271711D01*
X147827990Y-114281313D01*
X147827989Y-114633299D01*
X147730006Y-114563646D01*
X147489039Y-114471605D01*
X147300500Y-114587744D01*
X147300500Y-115756500D01*
X147320500Y-115756500D01*
X147320500Y-116137500D01*
X147300500Y-116137500D01*
X147300500Y-117306256D01*
X147489039Y-117422395D01*
X147730006Y-117330354D01*
X147929445Y-117188580D01*
X148097393Y-117010622D01*
X148227396Y-116803318D01*
X148314458Y-116574635D01*
X148355233Y-116333361D01*
X148194664Y-116137502D01*
X148345000Y-116137502D01*
X148345000Y-116092301D01*
X149075759Y-116823061D01*
X149103595Y-116856979D01*
X149238963Y-116968073D01*
X149278763Y-116989346D01*
X149279813Y-117000009D01*
X149301599Y-117071828D01*
X149336978Y-117138016D01*
X149384589Y-117196031D01*
X149442604Y-117243642D01*
X149508792Y-117279021D01*
X149580611Y-117300807D01*
X149655300Y-117308163D01*
X151055300Y-117308163D01*
X151129989Y-117300807D01*
X151201808Y-117279021D01*
X151267996Y-117243642D01*
X151326011Y-117196031D01*
X151336815Y-117182866D01*
X151694082Y-117182866D01*
X151758379Y-117409017D01*
X152001838Y-117508425D01*
X152260013Y-117558426D01*
X152522981Y-117557099D01*
X152780638Y-117504494D01*
X153011141Y-117409017D01*
X153075438Y-117182866D01*
X152384760Y-116492188D01*
X151694082Y-117182866D01*
X151336815Y-117182866D01*
X151373622Y-117138016D01*
X151409001Y-117071828D01*
X151430787Y-117000009D01*
X151438143Y-116925320D01*
X151438143Y-116899989D01*
X152115352Y-116222780D01*
X152654168Y-116222780D01*
X153344846Y-116913458D01*
X153570997Y-116849161D01*
X153670405Y-116605702D01*
X153720406Y-116347527D01*
X153719079Y-116084559D01*
X153666474Y-115826902D01*
X153570997Y-115596399D01*
X153344846Y-115532102D01*
X152654168Y-116222780D01*
X152115352Y-116222780D01*
X151438143Y-115545571D01*
X151438143Y-115525320D01*
X151430787Y-115450631D01*
X151409001Y-115378812D01*
X151373622Y-115312624D01*
X151332647Y-115262694D01*
X151694082Y-115262694D01*
X152384760Y-115953372D01*
X153075438Y-115262694D01*
X153011141Y-115036543D01*
X152767682Y-114937135D01*
X152509507Y-114887134D01*
X152246539Y-114888461D01*
X151988882Y-114941066D01*
X151758379Y-115036543D01*
X151694082Y-115262694D01*
X151332647Y-115262694D01*
X151326011Y-115254609D01*
X151267996Y-115206998D01*
X151201808Y-115171619D01*
X151129989Y-115149833D01*
X151055300Y-115142477D01*
X149909647Y-115142477D01*
X149605989Y-114838820D01*
X149605989Y-114269122D01*
X149630815Y-114187282D01*
X149744709Y-114280753D01*
X149899149Y-114363303D01*
X150066726Y-114414136D01*
X150197333Y-114427000D01*
X152190787Y-114427000D01*
X152209500Y-114428843D01*
X153225500Y-114428843D01*
X153300189Y-114421487D01*
X153372008Y-114399701D01*
X153437754Y-114364558D01*
X153456963Y-114400494D01*
X153536315Y-114497185D01*
X153633006Y-114576537D01*
X153743320Y-114635502D01*
X153863018Y-114671812D01*
X153987500Y-114684072D01*
X154146250Y-114681000D01*
X154305000Y-114522250D01*
X154305000Y-113728500D01*
X154285000Y-113728500D01*
X154285000Y-113347500D01*
X154305000Y-113347500D01*
X154305000Y-113327500D01*
X154686000Y-113327500D01*
X154686000Y-113347500D01*
X154706000Y-113347500D01*
X154706000Y-113728500D01*
X154686000Y-113728500D01*
X154686000Y-114522250D01*
X154844750Y-114681000D01*
X155003500Y-114684072D01*
X155127982Y-114671812D01*
X155247680Y-114635502D01*
X155357994Y-114576537D01*
X155454685Y-114497185D01*
X155534037Y-114400494D01*
X155593002Y-114290180D01*
X155629312Y-114170482D01*
X155629915Y-114164359D01*
X155839555Y-114251195D01*
X156084916Y-114300000D01*
X155839555Y-114348805D01*
X155608429Y-114444541D01*
X155400422Y-114583527D01*
X155223527Y-114760422D01*
X155084541Y-114968429D01*
X154988805Y-115199555D01*
X154940000Y-115444916D01*
X154940000Y-115695084D01*
X154988805Y-115940445D01*
X155084541Y-116171571D01*
X155223527Y-116379578D01*
X155400422Y-116556473D01*
X155608429Y-116695459D01*
X155839555Y-116791195D01*
X156084916Y-116840000D01*
X155839555Y-116888805D01*
X155608429Y-116984541D01*
X155400422Y-117123527D01*
X155223527Y-117300422D01*
X155084541Y-117508429D01*
X154988805Y-117739555D01*
X154940000Y-117984916D01*
X154940000Y-118235084D01*
X154988805Y-118480445D01*
X155084541Y-118711571D01*
X155191736Y-118872000D01*
X149181421Y-118872000D01*
X148077855Y-117768435D01*
X148061948Y-117749052D01*
X147984595Y-117685571D01*
X147896343Y-117638399D01*
X147800585Y-117609351D01*
X147725947Y-117602000D01*
X147725944Y-117602000D01*
X147701000Y-117599543D01*
X147676056Y-117602000D01*
X146197580Y-117602000D01*
X146198072Y-117597000D01*
X146195000Y-117446250D01*
X146036250Y-117287500D01*
X145200500Y-117287500D01*
X145200500Y-117307500D01*
X144819500Y-117307500D01*
X144819500Y-117287500D01*
X143983750Y-117287500D01*
X143825000Y-117446250D01*
X143821928Y-117597000D01*
X143822420Y-117602000D01*
X143197580Y-117602000D01*
X143198072Y-117597000D01*
X143195000Y-117446250D01*
X143036250Y-117287500D01*
X142200500Y-117287500D01*
X142200500Y-117307500D01*
X141819500Y-117307500D01*
X141819500Y-117287500D01*
X140983750Y-117287500D01*
X140825000Y-117446250D01*
X140821928Y-117597000D01*
X140822420Y-117602000D01*
X139343943Y-117602000D01*
X139318999Y-117599543D01*
X139294055Y-117602000D01*
X139294053Y-117602000D01*
X139219415Y-117609351D01*
X139123657Y-117638399D01*
X139123655Y-117638400D01*
X139035404Y-117685571D01*
X138980810Y-117730376D01*
X138958052Y-117749052D01*
X138942150Y-117768429D01*
X137838580Y-118872000D01*
X131828264Y-118872000D01*
X131935459Y-118711571D01*
X132031195Y-118480445D01*
X132080000Y-118235084D01*
X132080000Y-118197000D01*
X132596928Y-118197000D01*
X132609188Y-118321482D01*
X132645498Y-118441180D01*
X132704463Y-118551494D01*
X132783815Y-118648185D01*
X132880506Y-118727537D01*
X132990820Y-118786502D01*
X133110518Y-118822812D01*
X133235000Y-118835072D01*
X133635750Y-118832000D01*
X133794500Y-118673250D01*
X133794500Y-117937500D01*
X134175500Y-117937500D01*
X134175500Y-118673250D01*
X134334250Y-118832000D01*
X134735000Y-118835072D01*
X134859482Y-118822812D01*
X134979180Y-118786502D01*
X135089494Y-118727537D01*
X135186185Y-118648185D01*
X135265537Y-118551494D01*
X135324502Y-118441180D01*
X135360812Y-118321482D01*
X135373072Y-118197000D01*
X135370000Y-118096250D01*
X135211250Y-117937500D01*
X134175500Y-117937500D01*
X133794500Y-117937500D01*
X132758750Y-117937500D01*
X132600000Y-118096250D01*
X132596928Y-118197000D01*
X132080000Y-118197000D01*
X132080000Y-118097236D01*
X132167995Y-118009241D01*
X132251251Y-117907792D01*
X132333802Y-117753353D01*
X132372784Y-117624846D01*
X132599996Y-117397634D01*
X132600000Y-117397750D01*
X132758750Y-117556500D01*
X133794500Y-117556500D01*
X133794500Y-117536500D01*
X134175500Y-117536500D01*
X134175500Y-117556500D01*
X135211250Y-117556500D01*
X135343757Y-117423993D01*
X135992505Y-118072741D01*
X136020341Y-118106659D01*
X136155709Y-118217753D01*
X136181966Y-118231788D01*
X136189289Y-118240711D01*
X136247304Y-118288322D01*
X136313492Y-118323701D01*
X136385311Y-118345487D01*
X136460000Y-118352843D01*
X136495057Y-118352843D01*
X136608333Y-118364000D01*
X136608340Y-118364000D01*
X136652000Y-118368300D01*
X136695660Y-118364000D01*
X136868577Y-118364000D01*
X136906000Y-118367686D01*
X136943423Y-118364000D01*
X137315446Y-118364000D01*
X137359106Y-118368300D01*
X137402766Y-118364000D01*
X137402773Y-118364000D01*
X137516049Y-118352843D01*
X137860000Y-118352843D01*
X137934689Y-118345487D01*
X138006508Y-118323701D01*
X138072696Y-118288322D01*
X138130711Y-118240711D01*
X138178322Y-118182696D01*
X138213701Y-118116508D01*
X138235487Y-118044689D01*
X138242843Y-117970000D01*
X138242843Y-117848498D01*
X138265736Y-117825605D01*
X138299659Y-117797765D01*
X138410753Y-117662397D01*
X138493303Y-117507957D01*
X138526733Y-117397750D01*
X138544136Y-117340382D01*
X138550179Y-117279021D01*
X138557000Y-117209773D01*
X138557000Y-117209767D01*
X138561300Y-117166107D01*
X138557000Y-117122447D01*
X138557000Y-116502667D01*
X138561301Y-116459000D01*
X138548927Y-116333361D01*
X138664767Y-116333361D01*
X138705542Y-116574635D01*
X138792604Y-116803318D01*
X138922607Y-117010622D01*
X139090555Y-117188580D01*
X139289994Y-117330354D01*
X139530961Y-117422395D01*
X139719500Y-117306256D01*
X139719500Y-116137500D01*
X140100500Y-116137500D01*
X140100500Y-117306256D01*
X140289039Y-117422395D01*
X140530006Y-117330354D01*
X140729445Y-117188580D01*
X140897393Y-117010622D01*
X140970806Y-116893556D01*
X140983750Y-116906500D01*
X141819500Y-116906500D01*
X141819500Y-116120750D01*
X141660750Y-115962000D01*
X141460000Y-115958928D01*
X141335518Y-115971188D01*
X141215820Y-116007498D01*
X141105506Y-116066463D01*
X141008815Y-116145815D01*
X141005145Y-116150287D01*
X140994662Y-116137500D01*
X140100500Y-116137500D01*
X139719500Y-116137500D01*
X138825338Y-116137500D01*
X138664767Y-116333361D01*
X138548927Y-116333361D01*
X138544136Y-116284726D01*
X138493303Y-116117149D01*
X138410753Y-115962709D01*
X138299659Y-115827341D01*
X138164291Y-115716247D01*
X138009851Y-115633697D01*
X137842274Y-115582864D01*
X137711667Y-115570000D01*
X137668000Y-115565699D01*
X137624333Y-115570000D01*
X136695650Y-115570000D01*
X136651990Y-115565700D01*
X136608330Y-115570000D01*
X135933667Y-115570000D01*
X135890000Y-115565699D01*
X135846333Y-115570000D01*
X135734073Y-115581057D01*
X135715725Y-115582864D01*
X135680132Y-115593661D01*
X135616000Y-115613115D01*
X135616000Y-115498003D01*
X135587908Y-115356775D01*
X135532804Y-115223742D01*
X135452805Y-115104015D01*
X135350985Y-115002195D01*
X135231258Y-114922196D01*
X135098225Y-114867092D01*
X134956997Y-114839000D01*
X134813003Y-114839000D01*
X134671775Y-114867092D01*
X134538742Y-114922196D01*
X134419015Y-115002195D01*
X134317195Y-115104015D01*
X134237196Y-115223742D01*
X134182092Y-115356775D01*
X134154000Y-115498003D01*
X134154000Y-115641997D01*
X134182092Y-115783225D01*
X134198982Y-115824000D01*
X133771018Y-115824000D01*
X133787908Y-115783225D01*
X133816000Y-115641997D01*
X133816000Y-115498003D01*
X133787908Y-115356775D01*
X133732804Y-115223742D01*
X133652805Y-115104015D01*
X133550985Y-115002195D01*
X133431258Y-114922196D01*
X133298225Y-114867092D01*
X133156997Y-114839000D01*
X133013003Y-114839000D01*
X132871775Y-114867092D01*
X132861999Y-114871141D01*
X132861999Y-113925884D01*
X132881299Y-113989508D01*
X132916678Y-114055696D01*
X132964289Y-114113711D01*
X133022304Y-114161322D01*
X133088492Y-114196701D01*
X133160311Y-114218487D01*
X133235000Y-114225843D01*
X134735000Y-114225843D01*
X134809689Y-114218487D01*
X134881508Y-114196701D01*
X134947696Y-114161322D01*
X135005711Y-114113711D01*
X135029282Y-114084989D01*
X135171667Y-114084989D01*
X135302274Y-114072125D01*
X135469851Y-114021292D01*
X135624291Y-113938742D01*
X135759659Y-113827648D01*
X135870753Y-113692280D01*
X135953303Y-113537840D01*
X135966192Y-113495350D01*
X136077157Y-113606316D01*
X136077157Y-114170000D01*
X136084513Y-114244689D01*
X136106299Y-114316508D01*
X136141678Y-114382696D01*
X136189289Y-114440711D01*
X136247304Y-114488322D01*
X136313492Y-114523701D01*
X136385311Y-114545487D01*
X136460000Y-114552843D01*
X137053822Y-114552843D01*
X137116333Y-114559000D01*
X137876265Y-114559000D01*
X138151501Y-114834236D01*
X138179341Y-114868159D01*
X138314709Y-114979253D01*
X138469149Y-115061803D01*
X138563758Y-115090502D01*
X138636725Y-115112636D01*
X138653325Y-115114271D01*
X138767333Y-115125500D01*
X138767340Y-115125500D01*
X138778914Y-115126640D01*
X138705542Y-115319365D01*
X138664767Y-115560639D01*
X138825338Y-115756500D01*
X139719500Y-115756500D01*
X139719500Y-115736500D01*
X140100500Y-115736500D01*
X140100500Y-115756500D01*
X140994662Y-115756500D01*
X141155233Y-115560639D01*
X141114458Y-115319365D01*
X141045563Y-115138401D01*
X141982515Y-115138401D01*
X142011199Y-115141226D01*
X142039883Y-115138401D01*
X142039891Y-115138401D01*
X142125722Y-115129947D01*
X142235844Y-115096542D01*
X142337333Y-115042295D01*
X142426289Y-114969291D01*
X142444582Y-114947001D01*
X142504631Y-114886952D01*
X142502000Y-114900179D01*
X142502000Y-115223821D01*
X142565139Y-115541245D01*
X142688992Y-115840252D01*
X142799868Y-116006190D01*
X142684482Y-115971188D01*
X142560000Y-115958928D01*
X142359250Y-115962000D01*
X142200500Y-116120750D01*
X142200500Y-116906500D01*
X143036250Y-116906500D01*
X143195000Y-116747750D01*
X143198072Y-116597000D01*
X143185812Y-116472518D01*
X143157122Y-116377941D01*
X143366748Y-116518008D01*
X143665755Y-116641861D01*
X143823482Y-116673234D01*
X143825000Y-116747750D01*
X143983750Y-116906500D01*
X144819500Y-116906500D01*
X144819500Y-116886500D01*
X145200500Y-116886500D01*
X145200500Y-116906500D01*
X146036250Y-116906500D01*
X146049194Y-116893556D01*
X146122607Y-117010622D01*
X146290555Y-117188580D01*
X146489994Y-117330354D01*
X146730961Y-117422395D01*
X146919500Y-117306256D01*
X146919500Y-116137500D01*
X146025338Y-116137500D01*
X146014855Y-116150287D01*
X146011185Y-116145815D01*
X145914494Y-116066463D01*
X145804180Y-116007498D01*
X145684482Y-115971188D01*
X145560000Y-115958928D01*
X145521316Y-115959520D01*
X145601008Y-115840252D01*
X145716827Y-115560639D01*
X145864767Y-115560639D01*
X146025338Y-115756500D01*
X146919500Y-115756500D01*
X146919500Y-114587744D01*
X146730961Y-114471605D01*
X146489994Y-114563646D01*
X146290555Y-114705420D01*
X146122607Y-114883378D01*
X145992604Y-115090682D01*
X145905542Y-115319365D01*
X145864767Y-115560639D01*
X145716827Y-115560639D01*
X145724861Y-115541245D01*
X145788000Y-115223821D01*
X145788000Y-114900179D01*
X145724861Y-114582755D01*
X145673523Y-114458814D01*
X145708640Y-114451829D01*
X145832574Y-114400494D01*
X145944112Y-114325967D01*
X146038967Y-114231112D01*
X146113494Y-114119574D01*
X146164829Y-113995640D01*
X146191000Y-113864073D01*
X146191000Y-113729927D01*
X146164829Y-113598360D01*
X146155233Y-113575192D01*
X146290555Y-113718580D01*
X146489994Y-113860354D01*
X146730961Y-113952395D01*
X146919500Y-113836256D01*
X146919500Y-112667500D01*
X146025338Y-112667500D01*
X145864767Y-112863361D01*
X145905542Y-113104635D01*
X145982280Y-113306201D01*
X145944112Y-113268033D01*
X145832574Y-113193506D01*
X145784287Y-113173505D01*
X145782500Y-112896250D01*
X145623750Y-112737500D01*
X145020500Y-112737500D01*
X145020500Y-112757500D01*
X144774500Y-112757500D01*
X144774500Y-112737500D01*
X144767300Y-112737500D01*
X144767300Y-112356500D01*
X144774500Y-112356500D01*
X144774500Y-112336500D01*
X145020500Y-112336500D01*
X145020500Y-112356500D01*
X145623750Y-112356500D01*
X145782500Y-112197750D01*
X145785510Y-111730865D01*
X145782608Y-111696511D01*
X145963735Y-111696511D01*
X145905542Y-111849365D01*
G36*
X148877500Y-112628000D02*
G01*
X148897500Y-112628000D01*
X148897500Y-112924000D01*
X148877500Y-112924000D01*
X148877500Y-112928400D01*
X148496500Y-112928400D01*
X148496500Y-112924000D01*
X148476500Y-112924000D01*
X148476500Y-112628000D01*
X148496500Y-112628000D01*
X148496500Y-112623600D01*
X148877500Y-112623600D01*
X148877500Y-112628000D01*
G37*
X148877500Y-112628000D02*
X148897500Y-112628000D01*
X148897500Y-112924000D01*
X148877500Y-112924000D01*
X148877500Y-112928400D01*
X148496500Y-112928400D01*
X148496500Y-112924000D01*
X148476500Y-112924000D01*
X148476500Y-112628000D01*
X148496500Y-112628000D01*
X148496500Y-112623600D01*
X148877500Y-112623600D01*
X148877500Y-112628000D01*
G36*
X141223968Y-110274508D02*
G01*
X141221510Y-110299467D01*
X141228071Y-110366072D01*
X141231319Y-110399052D01*
X141257439Y-110485157D01*
X141260367Y-110494810D01*
X141307538Y-110583062D01*
X141350164Y-110635002D01*
X141371020Y-110660415D01*
X141390397Y-110676317D01*
X142053237Y-111339157D01*
X141872500Y-111339157D01*
X141797811Y-111346513D01*
X141725992Y-111368299D01*
X141659804Y-111403678D01*
X141601789Y-111451289D01*
X141554178Y-111509304D01*
X141518799Y-111575492D01*
X141497013Y-111647311D01*
X141489657Y-111722000D01*
X141489657Y-111874660D01*
X141250699Y-112113618D01*
X141228410Y-112131910D01*
X141210120Y-112154197D01*
X141077819Y-112286498D01*
X140994664Y-112286498D01*
X141155233Y-112090639D01*
X141114458Y-111849365D01*
X141027396Y-111620682D01*
X140897393Y-111413378D01*
X140729445Y-111235420D01*
X140530006Y-111093646D01*
X140289039Y-111001605D01*
X140100500Y-111117744D01*
X140100500Y-112286500D01*
X140120500Y-112286500D01*
X140120500Y-112667500D01*
X140100500Y-112667500D01*
X140100500Y-112687500D01*
X139719500Y-112687500D01*
X139719500Y-112667500D01*
X138825338Y-112667500D01*
X138664767Y-112863361D01*
X138669086Y-112888920D01*
X138586351Y-112844697D01*
X138418774Y-112793864D01*
X138288167Y-112781000D01*
X138288160Y-112781000D01*
X138244500Y-112776700D01*
X138200840Y-112781000D01*
X137116333Y-112781000D01*
X137053822Y-112787157D01*
X136694840Y-112787157D01*
X136276976Y-112369294D01*
X136322482Y-112364812D01*
X136442180Y-112328502D01*
X136552494Y-112269537D01*
X136649185Y-112190185D01*
X136705272Y-112121843D01*
X137759591Y-112121843D01*
X137761147Y-112124576D01*
X137843061Y-112219108D01*
X137941843Y-112295842D01*
X138053697Y-112351830D01*
X138174324Y-112384921D01*
X138250250Y-112391000D01*
X138409000Y-112232250D01*
X138409000Y-111629000D01*
X138346500Y-111629000D01*
X138346500Y-111383000D01*
X138409000Y-111383000D01*
X138409000Y-111295500D01*
X138705000Y-111295500D01*
X138705000Y-111383000D01*
X138767500Y-111383000D01*
X138767500Y-111629000D01*
X138705000Y-111629000D01*
X138705000Y-111852572D01*
X138664767Y-112090639D01*
X138705000Y-112139714D01*
X138705000Y-112232250D01*
X138863750Y-112391000D01*
X138939676Y-112384921D01*
X139060303Y-112351830D01*
X139172157Y-112295842D01*
X139184183Y-112286500D01*
X139719500Y-112286500D01*
X139719500Y-111117744D01*
X139530961Y-111001605D01*
X139429478Y-111040368D01*
X139414750Y-110996119D01*
X139352853Y-110887424D01*
X139270939Y-110792892D01*
X139213991Y-110748654D01*
X139214843Y-110740000D01*
X139214843Y-110621000D01*
X139347649Y-110621000D01*
X139362992Y-110629201D01*
X139434811Y-110650987D01*
X139509500Y-110658343D01*
X140779500Y-110658343D01*
X140854189Y-110650987D01*
X140926008Y-110629201D01*
X140992196Y-110593822D01*
X141050211Y-110546211D01*
X141097822Y-110488196D01*
X141133201Y-110422008D01*
X141154987Y-110350189D01*
X141162343Y-110275500D01*
X141162343Y-109950500D01*
X141154987Y-109875811D01*
X141133201Y-109803992D01*
X141124653Y-109788000D01*
X141133201Y-109772008D01*
X141154987Y-109700189D01*
X141162343Y-109625500D01*
X141162343Y-109482334D01*
X141223104Y-109434141D01*
X141223967Y-109433124D01*
X141223968Y-110274508D01*
G37*
X141223968Y-110274508D02*
X141221510Y-110299467D01*
X141228071Y-110366072D01*
X141231319Y-110399052D01*
X141257439Y-110485157D01*
X141260367Y-110494810D01*
X141307538Y-110583062D01*
X141350164Y-110635002D01*
X141371020Y-110660415D01*
X141390397Y-110676317D01*
X142053237Y-111339157D01*
X141872500Y-111339157D01*
X141797811Y-111346513D01*
X141725992Y-111368299D01*
X141659804Y-111403678D01*
X141601789Y-111451289D01*
X141554178Y-111509304D01*
X141518799Y-111575492D01*
X141497013Y-111647311D01*
X141489657Y-111722000D01*
X141489657Y-111874660D01*
X141250699Y-112113618D01*
X141228410Y-112131910D01*
X141210120Y-112154197D01*
X141077819Y-112286498D01*
X140994664Y-112286498D01*
X141155233Y-112090639D01*
X141114458Y-111849365D01*
X141027396Y-111620682D01*
X140897393Y-111413378D01*
X140729445Y-111235420D01*
X140530006Y-111093646D01*
X140289039Y-111001605D01*
X140100500Y-111117744D01*
X140100500Y-112286500D01*
X140120500Y-112286500D01*
X140120500Y-112667500D01*
X140100500Y-112667500D01*
X140100500Y-112687500D01*
X139719500Y-112687500D01*
X139719500Y-112667500D01*
X138825338Y-112667500D01*
X138664767Y-112863361D01*
X138669086Y-112888920D01*
X138586351Y-112844697D01*
X138418774Y-112793864D01*
X138288167Y-112781000D01*
X138288160Y-112781000D01*
X138244500Y-112776700D01*
X138200840Y-112781000D01*
X137116333Y-112781000D01*
X137053822Y-112787157D01*
X136694840Y-112787157D01*
X136276976Y-112369294D01*
X136322482Y-112364812D01*
X136442180Y-112328502D01*
X136552494Y-112269537D01*
X136649185Y-112190185D01*
X136705272Y-112121843D01*
X137759591Y-112121843D01*
X137761147Y-112124576D01*
X137843061Y-112219108D01*
X137941843Y-112295842D01*
X138053697Y-112351830D01*
X138174324Y-112384921D01*
X138250250Y-112391000D01*
X138409000Y-112232250D01*
X138409000Y-111629000D01*
X138346500Y-111629000D01*
X138346500Y-111383000D01*
X138409000Y-111383000D01*
X138409000Y-111295500D01*
X138705000Y-111295500D01*
X138705000Y-111383000D01*
X138767500Y-111383000D01*
X138767500Y-111629000D01*
X138705000Y-111629000D01*
X138705000Y-111852572D01*
X138664767Y-112090639D01*
X138705000Y-112139714D01*
X138705000Y-112232250D01*
X138863750Y-112391000D01*
X138939676Y-112384921D01*
X139060303Y-112351830D01*
X139172157Y-112295842D01*
X139184183Y-112286500D01*
X139719500Y-112286500D01*
X139719500Y-111117744D01*
X139530961Y-111001605D01*
X139429478Y-111040368D01*
X139414750Y-110996119D01*
X139352853Y-110887424D01*
X139270939Y-110792892D01*
X139213991Y-110748654D01*
X139214843Y-110740000D01*
X139214843Y-110621000D01*
X139347649Y-110621000D01*
X139362992Y-110629201D01*
X139434811Y-110650987D01*
X139509500Y-110658343D01*
X140779500Y-110658343D01*
X140854189Y-110650987D01*
X140926008Y-110629201D01*
X140992196Y-110593822D01*
X141050211Y-110546211D01*
X141097822Y-110488196D01*
X141133201Y-110422008D01*
X141154987Y-110350189D01*
X141162343Y-110275500D01*
X141162343Y-109950500D01*
X141154987Y-109875811D01*
X141133201Y-109803992D01*
X141124653Y-109788000D01*
X141133201Y-109772008D01*
X141154987Y-109700189D01*
X141162343Y-109625500D01*
X141162343Y-109482334D01*
X141223104Y-109434141D01*
X141223967Y-109433124D01*
X141223968Y-110274508D01*
G36*
X153610117Y-107748137D02*
G01*
X153610117Y-108812560D01*
X153617473Y-108887249D01*
X153639259Y-108959068D01*
X153674638Y-109025256D01*
X153722249Y-109083271D01*
X153780264Y-109130882D01*
X153846452Y-109166261D01*
X153918271Y-109188047D01*
X153992960Y-109195403D01*
X154992960Y-109195403D01*
X155067649Y-109188047D01*
X155139468Y-109166261D01*
X155205656Y-109130882D01*
X155263671Y-109083271D01*
X155311282Y-109025256D01*
X155346661Y-108959068D01*
X155364432Y-108900483D01*
X155400422Y-108936473D01*
X155608429Y-109075459D01*
X155839555Y-109171195D01*
X156084916Y-109220000D01*
X155839555Y-109268805D01*
X155608429Y-109364541D01*
X155400422Y-109503527D01*
X155223527Y-109680422D01*
X155084541Y-109888429D01*
X154988805Y-110119555D01*
X154940000Y-110364916D01*
X154940000Y-110615084D01*
X154988805Y-110860445D01*
X155084541Y-111091571D01*
X155223527Y-111299578D01*
X155400422Y-111476473D01*
X155608429Y-111615459D01*
X155839555Y-111711195D01*
X156084916Y-111760000D01*
X155839555Y-111808805D01*
X155608429Y-111904541D01*
X155400422Y-112043527D01*
X155223527Y-112220422D01*
X155102420Y-112401670D01*
X155003500Y-112391928D01*
X154844750Y-112395000D01*
X154686002Y-112553748D01*
X154686002Y-112395000D01*
X154502250Y-112395000D01*
X154396250Y-112289000D01*
X153793000Y-112289000D01*
X153793000Y-112351500D01*
X153547000Y-112351500D01*
X153547000Y-112289000D01*
X153459500Y-112289000D01*
X153459500Y-111993000D01*
X153547000Y-111993000D01*
X153547000Y-111930500D01*
X153793000Y-111930500D01*
X153793000Y-111993000D01*
X154396250Y-111993000D01*
X154555000Y-111834250D01*
X154548921Y-111758324D01*
X154515830Y-111637697D01*
X154459842Y-111525843D01*
X154383108Y-111427061D01*
X154288576Y-111345147D01*
X154267453Y-111333118D01*
X154316251Y-111293071D01*
X154363862Y-111235056D01*
X154399241Y-111168868D01*
X154421027Y-111097049D01*
X154428383Y-111022360D01*
X154428383Y-109622360D01*
X154421027Y-109547671D01*
X154399241Y-109475852D01*
X154363862Y-109409664D01*
X154316251Y-109351649D01*
X154258236Y-109304038D01*
X154192048Y-109268659D01*
X154120229Y-109246873D01*
X154045540Y-109239517D01*
X153135963Y-109239517D01*
X153197118Y-109178362D01*
X153237008Y-109166261D01*
X153303196Y-109130882D01*
X153361211Y-109083271D01*
X153408822Y-109025256D01*
X153444201Y-108959068D01*
X153465987Y-108887249D01*
X153473343Y-108812560D01*
X153473343Y-107611363D01*
X153610117Y-107748137D01*
G37*
X153610117Y-107748137D02*
X153610117Y-108812560D01*
X153617473Y-108887249D01*
X153639259Y-108959068D01*
X153674638Y-109025256D01*
X153722249Y-109083271D01*
X153780264Y-109130882D01*
X153846452Y-109166261D01*
X153918271Y-109188047D01*
X153992960Y-109195403D01*
X154992960Y-109195403D01*
X155067649Y-109188047D01*
X155139468Y-109166261D01*
X155205656Y-109130882D01*
X155263671Y-109083271D01*
X155311282Y-109025256D01*
X155346661Y-108959068D01*
X155364432Y-108900483D01*
X155400422Y-108936473D01*
X155608429Y-109075459D01*
X155839555Y-109171195D01*
X156084916Y-109220000D01*
X155839555Y-109268805D01*
X155608429Y-109364541D01*
X155400422Y-109503527D01*
X155223527Y-109680422D01*
X155084541Y-109888429D01*
X154988805Y-110119555D01*
X154940000Y-110364916D01*
X154940000Y-110615084D01*
X154988805Y-110860445D01*
X155084541Y-111091571D01*
X155223527Y-111299578D01*
X155400422Y-111476473D01*
X155608429Y-111615459D01*
X155839555Y-111711195D01*
X156084916Y-111760000D01*
X155839555Y-111808805D01*
X155608429Y-111904541D01*
X155400422Y-112043527D01*
X155223527Y-112220422D01*
X155102420Y-112401670D01*
X155003500Y-112391928D01*
X154844750Y-112395000D01*
X154686002Y-112553748D01*
X154686002Y-112395000D01*
X154502250Y-112395000D01*
X154396250Y-112289000D01*
X153793000Y-112289000D01*
X153793000Y-112351500D01*
X153547000Y-112351500D01*
X153547000Y-112289000D01*
X153459500Y-112289000D01*
X153459500Y-111993000D01*
X153547000Y-111993000D01*
X153547000Y-111930500D01*
X153793000Y-111930500D01*
X153793000Y-111993000D01*
X154396250Y-111993000D01*
X154555000Y-111834250D01*
X154548921Y-111758324D01*
X154515830Y-111637697D01*
X154459842Y-111525843D01*
X154383108Y-111427061D01*
X154288576Y-111345147D01*
X154267453Y-111333118D01*
X154316251Y-111293071D01*
X154363862Y-111235056D01*
X154399241Y-111168868D01*
X154421027Y-111097049D01*
X154428383Y-111022360D01*
X154428383Y-109622360D01*
X154421027Y-109547671D01*
X154399241Y-109475852D01*
X154363862Y-109409664D01*
X154316251Y-109351649D01*
X154258236Y-109304038D01*
X154192048Y-109268659D01*
X154120229Y-109246873D01*
X154045540Y-109239517D01*
X153135963Y-109239517D01*
X153197118Y-109178362D01*
X153237008Y-109166261D01*
X153303196Y-109130882D01*
X153361211Y-109083271D01*
X153408822Y-109025256D01*
X153444201Y-108959068D01*
X153465987Y-108887249D01*
X153473343Y-108812560D01*
X153473343Y-107611363D01*
X153610117Y-107748137D01*
G36*
X132330000Y-78592000D02*
G01*
X132417500Y-78592000D01*
X132417500Y-78888000D01*
X132330000Y-78888000D01*
X132330000Y-79989001D01*
X132417500Y-79989001D01*
X132417500Y-80285001D01*
X132330000Y-80285001D01*
X132330000Y-80888251D01*
X132340749Y-80899000D01*
X132329999Y-80909750D01*
X132329999Y-81513000D01*
X132417499Y-81513000D01*
X132417499Y-81809000D01*
X132329999Y-81809000D01*
X132329999Y-82412250D01*
X132488749Y-82571000D01*
X132565157Y-82562101D01*
X132565157Y-82927000D01*
X132572513Y-83001689D01*
X132594299Y-83073508D01*
X132629678Y-83139696D01*
X132666858Y-83185000D01*
X132629678Y-83230304D01*
X132594299Y-83296492D01*
X132572513Y-83368311D01*
X132565157Y-83443000D01*
X132565157Y-83943000D01*
X132572513Y-84017689D01*
X132588000Y-84068743D01*
X132588001Y-95662192D01*
X132597189Y-95755482D01*
X132633499Y-95875180D01*
X132692464Y-95985494D01*
X132771816Y-96082185D01*
X132868507Y-96161537D01*
X132978821Y-96220502D01*
X133098519Y-96256812D01*
X133133874Y-96260294D01*
X133457080Y-96583500D01*
X133395422Y-96645157D01*
X132715000Y-96645157D01*
X132640311Y-96652513D01*
X132568492Y-96674299D01*
X132502304Y-96709678D01*
X132444289Y-96757289D01*
X132396678Y-96815304D01*
X132361299Y-96881492D01*
X132339513Y-96953311D01*
X132332157Y-97028000D01*
X132332157Y-98044000D01*
X132339513Y-98118689D01*
X132361299Y-98190508D01*
X132396442Y-98256254D01*
X132360506Y-98275463D01*
X132263815Y-98354815D01*
X132184463Y-98451506D01*
X132125498Y-98561820D01*
X132089188Y-98681518D01*
X132076928Y-98806000D01*
X132080000Y-98964750D01*
X132238750Y-99123500D01*
X133032500Y-99123500D01*
X133032500Y-99103500D01*
X133413500Y-99103500D01*
X133413500Y-99123500D01*
X133433500Y-99123500D01*
X133433500Y-99504500D01*
X133413500Y-99504500D01*
X133413500Y-100298250D01*
X133572250Y-100457000D01*
X133731000Y-100460072D01*
X133855482Y-100447812D01*
X133975180Y-100411502D01*
X134085494Y-100352537D01*
X134182185Y-100273185D01*
X134261537Y-100176494D01*
X134320502Y-100066180D01*
X134356812Y-99946482D01*
X134369072Y-99822000D01*
X134368818Y-99808892D01*
X134476748Y-99881008D01*
X134775755Y-100004861D01*
X135048590Y-100059131D01*
X135020107Y-100074355D01*
X134933148Y-100145721D01*
X134483713Y-100595157D01*
X133793000Y-100595157D01*
X133718311Y-100602513D01*
X133646492Y-100624299D01*
X133580304Y-100659678D01*
X133522289Y-100707289D01*
X133474678Y-100765304D01*
X133439299Y-100831492D01*
X133417513Y-100903311D01*
X133410157Y-100978000D01*
X133410157Y-101978000D01*
X133417513Y-102052689D01*
X133439299Y-102124508D01*
X133474678Y-102190696D01*
X133522289Y-102248711D01*
X133580304Y-102296322D01*
X133646492Y-102331701D01*
X133718311Y-102353487D01*
X133793000Y-102360843D01*
X135193000Y-102360843D01*
X135267689Y-102353487D01*
X135339508Y-102331701D01*
X135405696Y-102296322D01*
X135463711Y-102248711D01*
X135511322Y-102190696D01*
X135546701Y-102124508D01*
X135568487Y-102052689D01*
X135575843Y-101978000D01*
X135575843Y-101658287D01*
X135696157Y-101537974D01*
X135696157Y-101978000D01*
X135703513Y-102052689D01*
X135725299Y-102124508D01*
X135760678Y-102190696D01*
X135808289Y-102248711D01*
X135866304Y-102296322D01*
X135932492Y-102331701D01*
X136004311Y-102353487D01*
X136079000Y-102360843D01*
X136514818Y-102360843D01*
X136815935Y-102661961D01*
X136835815Y-102686185D01*
X136860039Y-102706065D01*
X136860043Y-102706069D01*
X136860053Y-102706078D01*
X137133431Y-102979456D01*
X137153315Y-103003685D01*
X137177543Y-103023568D01*
X137177544Y-103023569D01*
X137177550Y-103023574D01*
X137387427Y-103233451D01*
X137407315Y-103257685D01*
X137431548Y-103277573D01*
X137826219Y-103672245D01*
X137826299Y-103672508D01*
X137838759Y-103695818D01*
X133619665Y-103695818D01*
X133590981Y-103692993D01*
X133562297Y-103695818D01*
X133562290Y-103695818D01*
X133487264Y-103703208D01*
X133476458Y-103704272D01*
X133443053Y-103714406D01*
X133366337Y-103737677D01*
X133264848Y-103791924D01*
X133175892Y-103864928D01*
X133157596Y-103887222D01*
X132830195Y-104214622D01*
X132807911Y-104232910D01*
X132789623Y-104255194D01*
X132789620Y-104255197D01*
X132782378Y-104264022D01*
X132734907Y-104321866D01*
X132717426Y-104354571D01*
X132680659Y-104423356D01*
X132647254Y-104533477D01*
X132635975Y-104648000D01*
X132638801Y-104676694D01*
X132638800Y-106841188D01*
X132629678Y-106852304D01*
X132594299Y-106918492D01*
X132572513Y-106990311D01*
X132565157Y-107065000D01*
X132565157Y-107565000D01*
X132572513Y-107639689D01*
X132594299Y-107711508D01*
X132629678Y-107777696D01*
X132666858Y-107823000D01*
X132629678Y-107868304D01*
X132594299Y-107934492D01*
X132572513Y-108006311D01*
X132565157Y-108081000D01*
X132565157Y-108581000D01*
X132572513Y-108655689D01*
X132588000Y-108706744D01*
X132588000Y-109027982D01*
X132552289Y-109057289D01*
X132504678Y-109115304D01*
X132469299Y-109181492D01*
X132447513Y-109253311D01*
X132440157Y-109328000D01*
X132440157Y-110128000D01*
X132447513Y-110202689D01*
X132469299Y-110274508D01*
X132504678Y-110340696D01*
X132552289Y-110398711D01*
X132610304Y-110446322D01*
X132676492Y-110481701D01*
X132703850Y-110490000D01*
X132676492Y-110498299D01*
X132610304Y-110533678D01*
X132552289Y-110581289D01*
X132504678Y-110639304D01*
X132469299Y-110705492D01*
X132447513Y-110777311D01*
X132440157Y-110852000D01*
X132440157Y-111136818D01*
X131800049Y-111776927D01*
X131775814Y-111796816D01*
X131696462Y-111893508D01*
X131637497Y-112003822D01*
X131624085Y-112048034D01*
X131619578Y-112043527D01*
X131411571Y-111904541D01*
X131180445Y-111808805D01*
X130935084Y-111760000D01*
X131180445Y-111711195D01*
X131411571Y-111615459D01*
X131619578Y-111476473D01*
X131796473Y-111299578D01*
X131935459Y-111091571D01*
X132031195Y-110860445D01*
X132080000Y-110615084D01*
X132080000Y-110364916D01*
X132031195Y-110119555D01*
X131935459Y-109888429D01*
X131796473Y-109680422D01*
X131619578Y-109503527D01*
X131411571Y-109364541D01*
X131180445Y-109268805D01*
X130935084Y-109220000D01*
X131180445Y-109171195D01*
X131411571Y-109075459D01*
X131619578Y-108936473D01*
X131796473Y-108759578D01*
X131935459Y-108551571D01*
X132031195Y-108320445D01*
X132080000Y-108075084D01*
X132080000Y-107824916D01*
X132031195Y-107579555D01*
X131935459Y-107348429D01*
X131796473Y-107140422D01*
X131619578Y-106963527D01*
X131411571Y-106824541D01*
X131394673Y-106817541D01*
X131514644Y-106769627D01*
X131549009Y-106751258D01*
X131636495Y-106505902D01*
X130810000Y-105679408D01*
X130795858Y-105693550D01*
X130526450Y-105424142D01*
X130540592Y-105410000D01*
X131079408Y-105410000D01*
X131905902Y-106236495D01*
X132151258Y-106149009D01*
X132269660Y-105873143D01*
X132331968Y-105579478D01*
X132335787Y-105279301D01*
X132280971Y-104984146D01*
X132169627Y-104705356D01*
X132151258Y-104670991D01*
X131905902Y-104583505D01*
X131079408Y-105410000D01*
X130540592Y-105410000D01*
X130526450Y-105395858D01*
X130795858Y-105126450D01*
X130810000Y-105140592D01*
X131636495Y-104314098D01*
X131549009Y-104068742D01*
X131394623Y-104002479D01*
X131411571Y-103995459D01*
X131619578Y-103856473D01*
X131796473Y-103679578D01*
X131935459Y-103471571D01*
X132031195Y-103240445D01*
X132080000Y-102995084D01*
X132080000Y-102744916D01*
X132031195Y-102499555D01*
X131935459Y-102268429D01*
X131796473Y-102060422D01*
X131619578Y-101883527D01*
X131411571Y-101744541D01*
X131180445Y-101648805D01*
X130935084Y-101600000D01*
X131180445Y-101551195D01*
X131411571Y-101455459D01*
X131619578Y-101316473D01*
X131796473Y-101139578D01*
X131935459Y-100931571D01*
X132031195Y-100700445D01*
X132080000Y-100455084D01*
X132080000Y-100204916D01*
X132031195Y-99959555D01*
X131974218Y-99822000D01*
X132076928Y-99822000D01*
X132089188Y-99946482D01*
X132125498Y-100066180D01*
X132184463Y-100176494D01*
X132263815Y-100273185D01*
X132360506Y-100352537D01*
X132470820Y-100411502D01*
X132590518Y-100447812D01*
X132715000Y-100460072D01*
X132873750Y-100457000D01*
X133032500Y-100298250D01*
X133032500Y-99504500D01*
X132238750Y-99504500D01*
X132080000Y-99663250D01*
X132076928Y-99822000D01*
X131974218Y-99822000D01*
X131935459Y-99728429D01*
X131796473Y-99520422D01*
X131619578Y-99343527D01*
X131411571Y-99204541D01*
X131180445Y-99108805D01*
X130935084Y-99060000D01*
X131180445Y-99011195D01*
X131411571Y-98915459D01*
X131619578Y-98776473D01*
X131796473Y-98599578D01*
X131935459Y-98391571D01*
X132031195Y-98160445D01*
X132080000Y-97915084D01*
X132080000Y-97664916D01*
X132031195Y-97419555D01*
X131935459Y-97188429D01*
X131796473Y-96980422D01*
X131619578Y-96803527D01*
X131411571Y-96664541D01*
X131180445Y-96568805D01*
X130935084Y-96520000D01*
X131180445Y-96471195D01*
X131411571Y-96375459D01*
X131619578Y-96236473D01*
X131796473Y-96059578D01*
X131935459Y-95851571D01*
X132031195Y-95620445D01*
X132080000Y-95375084D01*
X132080000Y-95124916D01*
X132031195Y-94879555D01*
X131935459Y-94648429D01*
X131796473Y-94440422D01*
X131619578Y-94263527D01*
X131411571Y-94124541D01*
X131180445Y-94028805D01*
X130935084Y-93980000D01*
X131180445Y-93931195D01*
X131411571Y-93835459D01*
X131619578Y-93696473D01*
X131796473Y-93519578D01*
X131935459Y-93311571D01*
X132031195Y-93080445D01*
X132080000Y-92835084D01*
X132080000Y-92584916D01*
X132031195Y-92339555D01*
X131935459Y-92108429D01*
X131796473Y-91900422D01*
X131619578Y-91723527D01*
X131411571Y-91584541D01*
X131180445Y-91488805D01*
X130935084Y-91440000D01*
X131180445Y-91391195D01*
X131411571Y-91295459D01*
X131619578Y-91156473D01*
X131796473Y-90979578D01*
X131935459Y-90771571D01*
X132031195Y-90540445D01*
X132080000Y-90295084D01*
X132080000Y-90044916D01*
X132031195Y-89799555D01*
X131935459Y-89568429D01*
X131796473Y-89360422D01*
X131619578Y-89183527D01*
X131411571Y-89044541D01*
X131180445Y-88948805D01*
X130935084Y-88900000D01*
X131180445Y-88851195D01*
X131411571Y-88755459D01*
X131619578Y-88616473D01*
X131796473Y-88439578D01*
X131935459Y-88231571D01*
X132031195Y-88000445D01*
X132080000Y-87755084D01*
X132080000Y-87504916D01*
X132031195Y-87259555D01*
X131935459Y-87028429D01*
X131796473Y-86820422D01*
X131619578Y-86643527D01*
X131411571Y-86504541D01*
X131180445Y-86408805D01*
X130935084Y-86360000D01*
X131180445Y-86311195D01*
X131411571Y-86215459D01*
X131619578Y-86076473D01*
X131796473Y-85899578D01*
X131935459Y-85691571D01*
X132031195Y-85460445D01*
X132080000Y-85215084D01*
X132080000Y-84964916D01*
X132031195Y-84719555D01*
X131935459Y-84488429D01*
X131796473Y-84280422D01*
X131619578Y-84103527D01*
X131411571Y-83964541D01*
X131180445Y-83868805D01*
X130935084Y-83820000D01*
X131180445Y-83771195D01*
X131411571Y-83675459D01*
X131619578Y-83536473D01*
X131796473Y-83359578D01*
X131935459Y-83151571D01*
X132031195Y-82920445D01*
X132080000Y-82675084D01*
X132080000Y-82424916D01*
X132078562Y-82417687D01*
X132083999Y-82412250D01*
X132083999Y-81809000D01*
X131996499Y-81809000D01*
X131996499Y-81513000D01*
X132083999Y-81513000D01*
X132083999Y-80909750D01*
X132073250Y-80899001D01*
X132084000Y-80888251D01*
X132084000Y-80285001D01*
X132050180Y-80285001D01*
X132080000Y-80135084D01*
X132080000Y-79989001D01*
X132084000Y-79989001D01*
X132084000Y-78888000D01*
X131480750Y-78888000D01*
X131455114Y-78913636D01*
X131411571Y-78884541D01*
X131180445Y-78788805D01*
X130935084Y-78740000D01*
X131180445Y-78691195D01*
X131411571Y-78595459D01*
X131455114Y-78566364D01*
X131480750Y-78592000D01*
X132084000Y-78592000D01*
X132084000Y-78529500D01*
X132330000Y-78529500D01*
X132330000Y-78592000D01*
G37*
X132330000Y-78592000D02*
X132417500Y-78592000D01*
X132417500Y-78888000D01*
X132330000Y-78888000D01*
X132330000Y-79989001D01*
X132417500Y-79989001D01*
X132417500Y-80285001D01*
X132330000Y-80285001D01*
X132330000Y-80888251D01*
X132340749Y-80899000D01*
X132329999Y-80909750D01*
X132329999Y-81513000D01*
X132417499Y-81513000D01*
X132417499Y-81809000D01*
X132329999Y-81809000D01*
X132329999Y-82412250D01*
X132488749Y-82571000D01*
X132565157Y-82562101D01*
X132565157Y-82927000D01*
X132572513Y-83001689D01*
X132594299Y-83073508D01*
X132629678Y-83139696D01*
X132666858Y-83185000D01*
X132629678Y-83230304D01*
X132594299Y-83296492D01*
X132572513Y-83368311D01*
X132565157Y-83443000D01*
X132565157Y-83943000D01*
X132572513Y-84017689D01*
X132588000Y-84068743D01*
X132588001Y-95662192D01*
X132597189Y-95755482D01*
X132633499Y-95875180D01*
X132692464Y-95985494D01*
X132771816Y-96082185D01*
X132868507Y-96161537D01*
X132978821Y-96220502D01*
X133098519Y-96256812D01*
X133133874Y-96260294D01*
X133457080Y-96583500D01*
X133395422Y-96645157D01*
X132715000Y-96645157D01*
X132640311Y-96652513D01*
X132568492Y-96674299D01*
X132502304Y-96709678D01*
X132444289Y-96757289D01*
X132396678Y-96815304D01*
X132361299Y-96881492D01*
X132339513Y-96953311D01*
X132332157Y-97028000D01*
X132332157Y-98044000D01*
X132339513Y-98118689D01*
X132361299Y-98190508D01*
X132396442Y-98256254D01*
X132360506Y-98275463D01*
X132263815Y-98354815D01*
X132184463Y-98451506D01*
X132125498Y-98561820D01*
X132089188Y-98681518D01*
X132076928Y-98806000D01*
X132080000Y-98964750D01*
X132238750Y-99123500D01*
X133032500Y-99123500D01*
X133032500Y-99103500D01*
X133413500Y-99103500D01*
X133413500Y-99123500D01*
X133433500Y-99123500D01*
X133433500Y-99504500D01*
X133413500Y-99504500D01*
X133413500Y-100298250D01*
X133572250Y-100457000D01*
X133731000Y-100460072D01*
X133855482Y-100447812D01*
X133975180Y-100411502D01*
X134085494Y-100352537D01*
X134182185Y-100273185D01*
X134261537Y-100176494D01*
X134320502Y-100066180D01*
X134356812Y-99946482D01*
X134369072Y-99822000D01*
X134368818Y-99808892D01*
X134476748Y-99881008D01*
X134775755Y-100004861D01*
X135048590Y-100059131D01*
X135020107Y-100074355D01*
X134933148Y-100145721D01*
X134483713Y-100595157D01*
X133793000Y-100595157D01*
X133718311Y-100602513D01*
X133646492Y-100624299D01*
X133580304Y-100659678D01*
X133522289Y-100707289D01*
X133474678Y-100765304D01*
X133439299Y-100831492D01*
X133417513Y-100903311D01*
X133410157Y-100978000D01*
X133410157Y-101978000D01*
X133417513Y-102052689D01*
X133439299Y-102124508D01*
X133474678Y-102190696D01*
X133522289Y-102248711D01*
X133580304Y-102296322D01*
X133646492Y-102331701D01*
X133718311Y-102353487D01*
X133793000Y-102360843D01*
X135193000Y-102360843D01*
X135267689Y-102353487D01*
X135339508Y-102331701D01*
X135405696Y-102296322D01*
X135463711Y-102248711D01*
X135511322Y-102190696D01*
X135546701Y-102124508D01*
X135568487Y-102052689D01*
X135575843Y-101978000D01*
X135575843Y-101658287D01*
X135696157Y-101537974D01*
X135696157Y-101978000D01*
X135703513Y-102052689D01*
X135725299Y-102124508D01*
X135760678Y-102190696D01*
X135808289Y-102248711D01*
X135866304Y-102296322D01*
X135932492Y-102331701D01*
X136004311Y-102353487D01*
X136079000Y-102360843D01*
X136514818Y-102360843D01*
X136815935Y-102661961D01*
X136835815Y-102686185D01*
X136860039Y-102706065D01*
X136860043Y-102706069D01*
X136860053Y-102706078D01*
X137133431Y-102979456D01*
X137153315Y-103003685D01*
X137177543Y-103023568D01*
X137177544Y-103023569D01*
X137177550Y-103023574D01*
X137387427Y-103233451D01*
X137407315Y-103257685D01*
X137431548Y-103277573D01*
X137826219Y-103672245D01*
X137826299Y-103672508D01*
X137838759Y-103695818D01*
X133619665Y-103695818D01*
X133590981Y-103692993D01*
X133562297Y-103695818D01*
X133562290Y-103695818D01*
X133487264Y-103703208D01*
X133476458Y-103704272D01*
X133443053Y-103714406D01*
X133366337Y-103737677D01*
X133264848Y-103791924D01*
X133175892Y-103864928D01*
X133157596Y-103887222D01*
X132830195Y-104214622D01*
X132807911Y-104232910D01*
X132789623Y-104255194D01*
X132789620Y-104255197D01*
X132782378Y-104264022D01*
X132734907Y-104321866D01*
X132717426Y-104354571D01*
X132680659Y-104423356D01*
X132647254Y-104533477D01*
X132635975Y-104648000D01*
X132638801Y-104676694D01*
X132638800Y-106841188D01*
X132629678Y-106852304D01*
X132594299Y-106918492D01*
X132572513Y-106990311D01*
X132565157Y-107065000D01*
X132565157Y-107565000D01*
X132572513Y-107639689D01*
X132594299Y-107711508D01*
X132629678Y-107777696D01*
X132666858Y-107823000D01*
X132629678Y-107868304D01*
X132594299Y-107934492D01*
X132572513Y-108006311D01*
X132565157Y-108081000D01*
X132565157Y-108581000D01*
X132572513Y-108655689D01*
X132588000Y-108706744D01*
X132588000Y-109027982D01*
X132552289Y-109057289D01*
X132504678Y-109115304D01*
X132469299Y-109181492D01*
X132447513Y-109253311D01*
X132440157Y-109328000D01*
X132440157Y-110128000D01*
X132447513Y-110202689D01*
X132469299Y-110274508D01*
X132504678Y-110340696D01*
X132552289Y-110398711D01*
X132610304Y-110446322D01*
X132676492Y-110481701D01*
X132703850Y-110490000D01*
X132676492Y-110498299D01*
X132610304Y-110533678D01*
X132552289Y-110581289D01*
X132504678Y-110639304D01*
X132469299Y-110705492D01*
X132447513Y-110777311D01*
X132440157Y-110852000D01*
X132440157Y-111136818D01*
X131800049Y-111776927D01*
X131775814Y-111796816D01*
X131696462Y-111893508D01*
X131637497Y-112003822D01*
X131624085Y-112048034D01*
X131619578Y-112043527D01*
X131411571Y-111904541D01*
X131180445Y-111808805D01*
X130935084Y-111760000D01*
X131180445Y-111711195D01*
X131411571Y-111615459D01*
X131619578Y-111476473D01*
X131796473Y-111299578D01*
X131935459Y-111091571D01*
X132031195Y-110860445D01*
X132080000Y-110615084D01*
X132080000Y-110364916D01*
X132031195Y-110119555D01*
X131935459Y-109888429D01*
X131796473Y-109680422D01*
X131619578Y-109503527D01*
X131411571Y-109364541D01*
X131180445Y-109268805D01*
X130935084Y-109220000D01*
X131180445Y-109171195D01*
X131411571Y-109075459D01*
X131619578Y-108936473D01*
X131796473Y-108759578D01*
X131935459Y-108551571D01*
X132031195Y-108320445D01*
X132080000Y-108075084D01*
X132080000Y-107824916D01*
X132031195Y-107579555D01*
X131935459Y-107348429D01*
X131796473Y-107140422D01*
X131619578Y-106963527D01*
X131411571Y-106824541D01*
X131394673Y-106817541D01*
X131514644Y-106769627D01*
X131549009Y-106751258D01*
X131636495Y-106505902D01*
X130810000Y-105679408D01*
X130795858Y-105693550D01*
X130526450Y-105424142D01*
X130540592Y-105410000D01*
X131079408Y-105410000D01*
X131905902Y-106236495D01*
X132151258Y-106149009D01*
X132269660Y-105873143D01*
X132331968Y-105579478D01*
X132335787Y-105279301D01*
X132280971Y-104984146D01*
X132169627Y-104705356D01*
X132151258Y-104670991D01*
X131905902Y-104583505D01*
X131079408Y-105410000D01*
X130540592Y-105410000D01*
X130526450Y-105395858D01*
X130795858Y-105126450D01*
X130810000Y-105140592D01*
X131636495Y-104314098D01*
X131549009Y-104068742D01*
X131394623Y-104002479D01*
X131411571Y-103995459D01*
X131619578Y-103856473D01*
X131796473Y-103679578D01*
X131935459Y-103471571D01*
X132031195Y-103240445D01*
X132080000Y-102995084D01*
X132080000Y-102744916D01*
X132031195Y-102499555D01*
X131935459Y-102268429D01*
X131796473Y-102060422D01*
X131619578Y-101883527D01*
X131411571Y-101744541D01*
X131180445Y-101648805D01*
X130935084Y-101600000D01*
X131180445Y-101551195D01*
X131411571Y-101455459D01*
X131619578Y-101316473D01*
X131796473Y-101139578D01*
X131935459Y-100931571D01*
X132031195Y-100700445D01*
X132080000Y-100455084D01*
X132080000Y-100204916D01*
X132031195Y-99959555D01*
X131974218Y-99822000D01*
X132076928Y-99822000D01*
X132089188Y-99946482D01*
X132125498Y-100066180D01*
X132184463Y-100176494D01*
X132263815Y-100273185D01*
X132360506Y-100352537D01*
X132470820Y-100411502D01*
X132590518Y-100447812D01*
X132715000Y-100460072D01*
X132873750Y-100457000D01*
X133032500Y-100298250D01*
X133032500Y-99504500D01*
X132238750Y-99504500D01*
X132080000Y-99663250D01*
X132076928Y-99822000D01*
X131974218Y-99822000D01*
X131935459Y-99728429D01*
X131796473Y-99520422D01*
X131619578Y-99343527D01*
X131411571Y-99204541D01*
X131180445Y-99108805D01*
X130935084Y-99060000D01*
X131180445Y-99011195D01*
X131411571Y-98915459D01*
X131619578Y-98776473D01*
X131796473Y-98599578D01*
X131935459Y-98391571D01*
X132031195Y-98160445D01*
X132080000Y-97915084D01*
X132080000Y-97664916D01*
X132031195Y-97419555D01*
X131935459Y-97188429D01*
X131796473Y-96980422D01*
X131619578Y-96803527D01*
X131411571Y-96664541D01*
X131180445Y-96568805D01*
X130935084Y-96520000D01*
X131180445Y-96471195D01*
X131411571Y-96375459D01*
X131619578Y-96236473D01*
X131796473Y-96059578D01*
X131935459Y-95851571D01*
X132031195Y-95620445D01*
X132080000Y-95375084D01*
X132080000Y-95124916D01*
X132031195Y-94879555D01*
X131935459Y-94648429D01*
X131796473Y-94440422D01*
X131619578Y-94263527D01*
X131411571Y-94124541D01*
X131180445Y-94028805D01*
X130935084Y-93980000D01*
X131180445Y-93931195D01*
X131411571Y-93835459D01*
X131619578Y-93696473D01*
X131796473Y-93519578D01*
X131935459Y-93311571D01*
X132031195Y-93080445D01*
X132080000Y-92835084D01*
X132080000Y-92584916D01*
X132031195Y-92339555D01*
X131935459Y-92108429D01*
X131796473Y-91900422D01*
X131619578Y-91723527D01*
X131411571Y-91584541D01*
X131180445Y-91488805D01*
X130935084Y-91440000D01*
X131180445Y-91391195D01*
X131411571Y-91295459D01*
X131619578Y-91156473D01*
X131796473Y-90979578D01*
X131935459Y-90771571D01*
X132031195Y-90540445D01*
X132080000Y-90295084D01*
X132080000Y-90044916D01*
X132031195Y-89799555D01*
X131935459Y-89568429D01*
X131796473Y-89360422D01*
X131619578Y-89183527D01*
X131411571Y-89044541D01*
X131180445Y-88948805D01*
X130935084Y-88900000D01*
X131180445Y-88851195D01*
X131411571Y-88755459D01*
X131619578Y-88616473D01*
X131796473Y-88439578D01*
X131935459Y-88231571D01*
X132031195Y-88000445D01*
X132080000Y-87755084D01*
X132080000Y-87504916D01*
X132031195Y-87259555D01*
X131935459Y-87028429D01*
X131796473Y-86820422D01*
X131619578Y-86643527D01*
X131411571Y-86504541D01*
X131180445Y-86408805D01*
X130935084Y-86360000D01*
X131180445Y-86311195D01*
X131411571Y-86215459D01*
X131619578Y-86076473D01*
X131796473Y-85899578D01*
X131935459Y-85691571D01*
X132031195Y-85460445D01*
X132080000Y-85215084D01*
X132080000Y-84964916D01*
X132031195Y-84719555D01*
X131935459Y-84488429D01*
X131796473Y-84280422D01*
X131619578Y-84103527D01*
X131411571Y-83964541D01*
X131180445Y-83868805D01*
X130935084Y-83820000D01*
X131180445Y-83771195D01*
X131411571Y-83675459D01*
X131619578Y-83536473D01*
X131796473Y-83359578D01*
X131935459Y-83151571D01*
X132031195Y-82920445D01*
X132080000Y-82675084D01*
X132080000Y-82424916D01*
X132078562Y-82417687D01*
X132083999Y-82412250D01*
X132083999Y-81809000D01*
X131996499Y-81809000D01*
X131996499Y-81513000D01*
X132083999Y-81513000D01*
X132083999Y-80909750D01*
X132073250Y-80899001D01*
X132084000Y-80888251D01*
X132084000Y-80285001D01*
X132050180Y-80285001D01*
X132080000Y-80135084D01*
X132080000Y-79989001D01*
X132084000Y-79989001D01*
X132084000Y-78888000D01*
X131480750Y-78888000D01*
X131455114Y-78913636D01*
X131411571Y-78884541D01*
X131180445Y-78788805D01*
X130935084Y-78740000D01*
X131180445Y-78691195D01*
X131411571Y-78595459D01*
X131455114Y-78566364D01*
X131480750Y-78592000D01*
X132084000Y-78592000D01*
X132084000Y-78529500D01*
X132330000Y-78529500D01*
X132330000Y-78592000D01*
G36*
X135788500Y-110848500D02*
G01*
X135808500Y-110848500D01*
X135808500Y-111229500D01*
X135788500Y-111229500D01*
X135788500Y-111249500D01*
X135407500Y-111249500D01*
X135407500Y-111229500D01*
X135387500Y-111229500D01*
X135387500Y-110848500D01*
X135407500Y-110848500D01*
X135407500Y-110828500D01*
X135788500Y-110828500D01*
X135788500Y-110848500D01*
G37*
X135788500Y-110848500D02*
X135808500Y-110848500D01*
X135808500Y-111229500D01*
X135788500Y-111229500D01*
X135788500Y-111249500D01*
X135407500Y-111249500D01*
X135407500Y-111229500D01*
X135387500Y-111229500D01*
X135387500Y-110848500D01*
X135407500Y-110848500D01*
X135407500Y-110828500D01*
X135788500Y-110828500D01*
X135788500Y-110848500D01*
G36*
X144390411Y-101446050D02*
G01*
X144388544Y-101465001D01*
X144391001Y-101489945D01*
X144391001Y-101694052D01*
X144390581Y-101698323D01*
X144364299Y-101747492D01*
X144342513Y-101819311D01*
X144335157Y-101894000D01*
X144335157Y-102444000D01*
X144342513Y-102518689D01*
X144364299Y-102590508D01*
X144399678Y-102656696D01*
X144447289Y-102714711D01*
X144505304Y-102762322D01*
X144571492Y-102797701D01*
X144643311Y-102819487D01*
X144667842Y-102821903D01*
X144680578Y-102837422D01*
X144796608Y-102932645D01*
X144928985Y-103003402D01*
X145072622Y-103046974D01*
X145184574Y-103058000D01*
X145184576Y-103058000D01*
X145221999Y-103061686D01*
X145259422Y-103058000D01*
X146226477Y-103058000D01*
X146239678Y-103082696D01*
X146287289Y-103140711D01*
X146345304Y-103188322D01*
X146411492Y-103223701D01*
X146483311Y-103245487D01*
X146558000Y-103252843D01*
X147041053Y-103252843D01*
X147066000Y-103255300D01*
X147090947Y-103252843D01*
X147574000Y-103252843D01*
X147648689Y-103245487D01*
X147720508Y-103223701D01*
X147786696Y-103188322D01*
X147844711Y-103140711D01*
X147892322Y-103082696D01*
X147927701Y-103016508D01*
X147935135Y-102992000D01*
X149736319Y-102992000D01*
X149710463Y-103023506D01*
X149691254Y-103059442D01*
X149625508Y-103024299D01*
X149553689Y-103002513D01*
X149479000Y-102995157D01*
X148463000Y-102995157D01*
X148388311Y-103002513D01*
X148316492Y-103024299D01*
X148250304Y-103059678D01*
X148192289Y-103107289D01*
X148144678Y-103165304D01*
X148109299Y-103231492D01*
X148087513Y-103303311D01*
X148080157Y-103378000D01*
X148080157Y-103723729D01*
X148018500Y-103717657D01*
X146748500Y-103717657D01*
X146673811Y-103725013D01*
X146601992Y-103746799D01*
X146535804Y-103782178D01*
X146477789Y-103829789D01*
X146430178Y-103887804D01*
X146394799Y-103953992D01*
X146373013Y-104025811D01*
X146365657Y-104100500D01*
X146365657Y-104405000D01*
X146190951Y-104405000D01*
X146166007Y-104402543D01*
X146141063Y-104405000D01*
X146141061Y-104405000D01*
X146066423Y-104412351D01*
X145970665Y-104441399D01*
X145970663Y-104441400D01*
X145882412Y-104488571D01*
X145827818Y-104533376D01*
X145805060Y-104552052D01*
X145789157Y-104571430D01*
X145446441Y-104914147D01*
X145446436Y-104914151D01*
X145438010Y-104922577D01*
X145374779Y-104910000D01*
X145201237Y-104910000D01*
X145031030Y-104943856D01*
X144870698Y-105010268D01*
X144726403Y-105106682D01*
X144603690Y-105229395D01*
X144507276Y-105373690D01*
X144440864Y-105534022D01*
X144407008Y-105704229D01*
X144407008Y-105877771D01*
X144440864Y-106047978D01*
X144507276Y-106208310D01*
X144603690Y-106352605D01*
X144726403Y-106475318D01*
X144870698Y-106571732D01*
X145031030Y-106638144D01*
X145201237Y-106672000D01*
X145374779Y-106672000D01*
X145544986Y-106638144D01*
X145705318Y-106571732D01*
X145849613Y-106475318D01*
X145972326Y-106352605D01*
X146068740Y-106208310D01*
X146135152Y-106047978D01*
X146169008Y-105877771D01*
X146169008Y-105704229D01*
X146156431Y-105640998D01*
X146164857Y-105632572D01*
X146164861Y-105632567D01*
X146365657Y-105431772D01*
X146365657Y-105725500D01*
X146373013Y-105800189D01*
X146394799Y-105872008D01*
X146403347Y-105888000D01*
X146394799Y-105903992D01*
X146373013Y-105975811D01*
X146365657Y-106050500D01*
X146365657Y-106375500D01*
X146373013Y-106450189D01*
X146394799Y-106522008D01*
X146403347Y-106538000D01*
X146394799Y-106553992D01*
X146373013Y-106625811D01*
X146365657Y-106700500D01*
X146365657Y-107025500D01*
X146373013Y-107100189D01*
X146394799Y-107172008D01*
X146403347Y-107188000D01*
X146394799Y-107203992D01*
X146373013Y-107275811D01*
X146365657Y-107350500D01*
X146365657Y-107675500D01*
X146373013Y-107750189D01*
X146394799Y-107822008D01*
X146403347Y-107838000D01*
X146394799Y-107853992D01*
X146373013Y-107925811D01*
X146365657Y-108000500D01*
X146365657Y-108325500D01*
X146373013Y-108400189D01*
X146394799Y-108472008D01*
X146403347Y-108488000D01*
X146394799Y-108503992D01*
X146373013Y-108575811D01*
X146365657Y-108650500D01*
X146365657Y-108975500D01*
X146373013Y-109050189D01*
X146394799Y-109122008D01*
X146403347Y-109138000D01*
X146394799Y-109153992D01*
X146373013Y-109225811D01*
X146365657Y-109300500D01*
X146365657Y-109625500D01*
X146373013Y-109700189D01*
X146394799Y-109772008D01*
X146403347Y-109788000D01*
X146394799Y-109803992D01*
X146373013Y-109875811D01*
X146365657Y-109950500D01*
X146365657Y-110172500D01*
X145280000Y-110172500D01*
X145280000Y-110149229D01*
X145246144Y-109979022D01*
X145179732Y-109818690D01*
X145083318Y-109674395D01*
X144960605Y-109551682D01*
X144816310Y-109455268D01*
X144655978Y-109388856D01*
X144485771Y-109355000D01*
X144312229Y-109355000D01*
X144248998Y-109367577D01*
X143764000Y-108882580D01*
X143764000Y-103730991D01*
X143766457Y-103706047D01*
X143763286Y-103673856D01*
X143756649Y-103606463D01*
X143727601Y-103510705D01*
X143680429Y-103422453D01*
X143616997Y-103345160D01*
X143629000Y-103284819D01*
X143629000Y-103111277D01*
X143595144Y-102941070D01*
X143528732Y-102780738D01*
X143520182Y-102767942D01*
X143530696Y-102762322D01*
X143588711Y-102714711D01*
X143636322Y-102656696D01*
X143671701Y-102590508D01*
X143693487Y-102518689D01*
X143700843Y-102444000D01*
X143700843Y-102000823D01*
X143761312Y-101952923D01*
X143842325Y-101857619D01*
X143903189Y-101748341D01*
X143941564Y-101629289D01*
X143953000Y-101525750D01*
X143794250Y-101367000D01*
X142908500Y-101367000D01*
X142908500Y-101371400D01*
X142527500Y-101371400D01*
X142527500Y-101367000D01*
X142507500Y-101367000D01*
X142507500Y-101071000D01*
X142527500Y-101071000D01*
X142527500Y-101066600D01*
X142908500Y-101066600D01*
X142908500Y-101071000D01*
X143794250Y-101071000D01*
X143904806Y-100960445D01*
X144390411Y-101446050D01*
G37*
X144390411Y-101446050D02*
X144388544Y-101465001D01*
X144391001Y-101489945D01*
X144391001Y-101694052D01*
X144390581Y-101698323D01*
X144364299Y-101747492D01*
X144342513Y-101819311D01*
X144335157Y-101894000D01*
X144335157Y-102444000D01*
X144342513Y-102518689D01*
X144364299Y-102590508D01*
X144399678Y-102656696D01*
X144447289Y-102714711D01*
X144505304Y-102762322D01*
X144571492Y-102797701D01*
X144643311Y-102819487D01*
X144667842Y-102821903D01*
X144680578Y-102837422D01*
X144796608Y-102932645D01*
X144928985Y-103003402D01*
X145072622Y-103046974D01*
X145184574Y-103058000D01*
X145184576Y-103058000D01*
X145221999Y-103061686D01*
X145259422Y-103058000D01*
X146226477Y-103058000D01*
X146239678Y-103082696D01*
X146287289Y-103140711D01*
X146345304Y-103188322D01*
X146411492Y-103223701D01*
X146483311Y-103245487D01*
X146558000Y-103252843D01*
X147041053Y-103252843D01*
X147066000Y-103255300D01*
X147090947Y-103252843D01*
X147574000Y-103252843D01*
X147648689Y-103245487D01*
X147720508Y-103223701D01*
X147786696Y-103188322D01*
X147844711Y-103140711D01*
X147892322Y-103082696D01*
X147927701Y-103016508D01*
X147935135Y-102992000D01*
X149736319Y-102992000D01*
X149710463Y-103023506D01*
X149691254Y-103059442D01*
X149625508Y-103024299D01*
X149553689Y-103002513D01*
X149479000Y-102995157D01*
X148463000Y-102995157D01*
X148388311Y-103002513D01*
X148316492Y-103024299D01*
X148250304Y-103059678D01*
X148192289Y-103107289D01*
X148144678Y-103165304D01*
X148109299Y-103231492D01*
X148087513Y-103303311D01*
X148080157Y-103378000D01*
X148080157Y-103723729D01*
X148018500Y-103717657D01*
X146748500Y-103717657D01*
X146673811Y-103725013D01*
X146601992Y-103746799D01*
X146535804Y-103782178D01*
X146477789Y-103829789D01*
X146430178Y-103887804D01*
X146394799Y-103953992D01*
X146373013Y-104025811D01*
X146365657Y-104100500D01*
X146365657Y-104405000D01*
X146190951Y-104405000D01*
X146166007Y-104402543D01*
X146141063Y-104405000D01*
X146141061Y-104405000D01*
X146066423Y-104412351D01*
X145970665Y-104441399D01*
X145970663Y-104441400D01*
X145882412Y-104488571D01*
X145827818Y-104533376D01*
X145805060Y-104552052D01*
X145789157Y-104571430D01*
X145446441Y-104914147D01*
X145446436Y-104914151D01*
X145438010Y-104922577D01*
X145374779Y-104910000D01*
X145201237Y-104910000D01*
X145031030Y-104943856D01*
X144870698Y-105010268D01*
X144726403Y-105106682D01*
X144603690Y-105229395D01*
X144507276Y-105373690D01*
X144440864Y-105534022D01*
X144407008Y-105704229D01*
X144407008Y-105877771D01*
X144440864Y-106047978D01*
X144507276Y-106208310D01*
X144603690Y-106352605D01*
X144726403Y-106475318D01*
X144870698Y-106571732D01*
X145031030Y-106638144D01*
X145201237Y-106672000D01*
X145374779Y-106672000D01*
X145544986Y-106638144D01*
X145705318Y-106571732D01*
X145849613Y-106475318D01*
X145972326Y-106352605D01*
X146068740Y-106208310D01*
X146135152Y-106047978D01*
X146169008Y-105877771D01*
X146169008Y-105704229D01*
X146156431Y-105640998D01*
X146164857Y-105632572D01*
X146164861Y-105632567D01*
X146365657Y-105431772D01*
X146365657Y-105725500D01*
X146373013Y-105800189D01*
X146394799Y-105872008D01*
X146403347Y-105888000D01*
X146394799Y-105903992D01*
X146373013Y-105975811D01*
X146365657Y-106050500D01*
X146365657Y-106375500D01*
X146373013Y-106450189D01*
X146394799Y-106522008D01*
X146403347Y-106538000D01*
X146394799Y-106553992D01*
X146373013Y-106625811D01*
X146365657Y-106700500D01*
X146365657Y-107025500D01*
X146373013Y-107100189D01*
X146394799Y-107172008D01*
X146403347Y-107188000D01*
X146394799Y-107203992D01*
X146373013Y-107275811D01*
X146365657Y-107350500D01*
X146365657Y-107675500D01*
X146373013Y-107750189D01*
X146394799Y-107822008D01*
X146403347Y-107838000D01*
X146394799Y-107853992D01*
X146373013Y-107925811D01*
X146365657Y-108000500D01*
X146365657Y-108325500D01*
X146373013Y-108400189D01*
X146394799Y-108472008D01*
X146403347Y-108488000D01*
X146394799Y-108503992D01*
X146373013Y-108575811D01*
X146365657Y-108650500D01*
X146365657Y-108975500D01*
X146373013Y-109050189D01*
X146394799Y-109122008D01*
X146403347Y-109138000D01*
X146394799Y-109153992D01*
X146373013Y-109225811D01*
X146365657Y-109300500D01*
X146365657Y-109625500D01*
X146373013Y-109700189D01*
X146394799Y-109772008D01*
X146403347Y-109788000D01*
X146394799Y-109803992D01*
X146373013Y-109875811D01*
X146365657Y-109950500D01*
X146365657Y-110172500D01*
X145280000Y-110172500D01*
X145280000Y-110149229D01*
X145246144Y-109979022D01*
X145179732Y-109818690D01*
X145083318Y-109674395D01*
X144960605Y-109551682D01*
X144816310Y-109455268D01*
X144655978Y-109388856D01*
X144485771Y-109355000D01*
X144312229Y-109355000D01*
X144248998Y-109367577D01*
X143764000Y-108882580D01*
X143764000Y-103730991D01*
X143766457Y-103706047D01*
X143763286Y-103673856D01*
X143756649Y-103606463D01*
X143727601Y-103510705D01*
X143680429Y-103422453D01*
X143616997Y-103345160D01*
X143629000Y-103284819D01*
X143629000Y-103111277D01*
X143595144Y-102941070D01*
X143528732Y-102780738D01*
X143520182Y-102767942D01*
X143530696Y-102762322D01*
X143588711Y-102714711D01*
X143636322Y-102656696D01*
X143671701Y-102590508D01*
X143693487Y-102518689D01*
X143700843Y-102444000D01*
X143700843Y-102000823D01*
X143761312Y-101952923D01*
X143842325Y-101857619D01*
X143903189Y-101748341D01*
X143941564Y-101629289D01*
X143953000Y-101525750D01*
X143794250Y-101367000D01*
X142908500Y-101367000D01*
X142908500Y-101371400D01*
X142527500Y-101371400D01*
X142527500Y-101367000D01*
X142507500Y-101367000D01*
X142507500Y-101071000D01*
X142527500Y-101071000D01*
X142527500Y-101066600D01*
X142908500Y-101066600D01*
X142908500Y-101071000D01*
X143794250Y-101071000D01*
X143904806Y-100960445D01*
X144390411Y-101446050D01*
G36*
X136062304Y-107527322D02*
G01*
X136128492Y-107562701D01*
X136200311Y-107584487D01*
X136274662Y-107591810D01*
X136243506Y-107608463D01*
X136146815Y-107687815D01*
X136090728Y-107756157D01*
X134998000Y-107756157D01*
X134923311Y-107763513D01*
X134851492Y-107785299D01*
X134785304Y-107820678D01*
X134727289Y-107868289D01*
X134679678Y-107926304D01*
X134644299Y-107992492D01*
X134622513Y-108064311D01*
X134615157Y-108139000D01*
X134615157Y-109539000D01*
X134622513Y-109613689D01*
X134644299Y-109685508D01*
X134679678Y-109751696D01*
X134701031Y-109777715D01*
X134643506Y-109808463D01*
X134546815Y-109887815D01*
X134512001Y-109930236D01*
X134512001Y-107801351D01*
X134573760Y-107801351D01*
X134743967Y-107767495D01*
X134904299Y-107701083D01*
X135048594Y-107604669D01*
X135084263Y-107569000D01*
X135133257Y-107569000D01*
X135184311Y-107584487D01*
X135259000Y-107591843D01*
X135759000Y-107591843D01*
X135833689Y-107584487D01*
X135905508Y-107562701D01*
X135971696Y-107527322D01*
X136017000Y-107490142D01*
X136062304Y-107527322D01*
G37*
X136062304Y-107527322D02*
X136128492Y-107562701D01*
X136200311Y-107584487D01*
X136274662Y-107591810D01*
X136243506Y-107608463D01*
X136146815Y-107687815D01*
X136090728Y-107756157D01*
X134998000Y-107756157D01*
X134923311Y-107763513D01*
X134851492Y-107785299D01*
X134785304Y-107820678D01*
X134727289Y-107868289D01*
X134679678Y-107926304D01*
X134644299Y-107992492D01*
X134622513Y-108064311D01*
X134615157Y-108139000D01*
X134615157Y-109539000D01*
X134622513Y-109613689D01*
X134644299Y-109685508D01*
X134679678Y-109751696D01*
X134701031Y-109777715D01*
X134643506Y-109808463D01*
X134546815Y-109887815D01*
X134512001Y-109930236D01*
X134512001Y-107801351D01*
X134573760Y-107801351D01*
X134743967Y-107767495D01*
X134904299Y-107701083D01*
X135048594Y-107604669D01*
X135084263Y-107569000D01*
X135133257Y-107569000D01*
X135184311Y-107584487D01*
X135259000Y-107591843D01*
X135759000Y-107591843D01*
X135833689Y-107584487D01*
X135905508Y-107562701D01*
X135971696Y-107527322D01*
X136017000Y-107490142D01*
X136062304Y-107527322D01*
G36*
X137388500Y-108648500D02*
G01*
X137647000Y-108648500D01*
X137647000Y-108648502D01*
X137738248Y-108648502D01*
X137647000Y-108739750D01*
X137659747Y-108849199D01*
X137699250Y-108967881D01*
X137734339Y-109029500D01*
X137388500Y-109029500D01*
X137388500Y-109049500D01*
X137007500Y-109049500D01*
X137007500Y-109029500D01*
X136987500Y-109029500D01*
X136987500Y-108648500D01*
X137007500Y-108648500D01*
X137007500Y-108628500D01*
X137388500Y-108628500D01*
X137388500Y-108648500D01*
G37*
X137388500Y-108648500D02*
X137647000Y-108648500D01*
X137647000Y-108648502D01*
X137738248Y-108648502D01*
X137647000Y-108739750D01*
X137659747Y-108849199D01*
X137699250Y-108967881D01*
X137734339Y-109029500D01*
X137388500Y-109029500D01*
X137388500Y-109049500D01*
X137007500Y-109049500D01*
X137007500Y-109029500D01*
X136987500Y-109029500D01*
X136987500Y-108648500D01*
X137007500Y-108648500D01*
X137007500Y-108628500D01*
X137388500Y-108628500D01*
X137388500Y-108648500D01*
G36*
X140335000Y-108777500D02*
G01*
X140355000Y-108777500D01*
X140355000Y-108848500D01*
X140335000Y-108848500D01*
X140335000Y-108851700D01*
X139954000Y-108851700D01*
X139954000Y-108848500D01*
X139934000Y-108848500D01*
X139934000Y-108777500D01*
X139954000Y-108777500D01*
X139954000Y-108775500D01*
X140335000Y-108775500D01*
X140335000Y-108777500D01*
G37*
X140335000Y-108777500D02*
X140355000Y-108777500D01*
X140355000Y-108848500D01*
X140335000Y-108848500D01*
X140335000Y-108851700D01*
X139954000Y-108851700D01*
X139954000Y-108848500D01*
X139934000Y-108848500D01*
X139934000Y-108777500D01*
X139954000Y-108777500D01*
X139954000Y-108775500D01*
X140335000Y-108775500D01*
X140335000Y-108777500D01*
G36*
X138705000Y-108335000D02*
G01*
X138767500Y-108335000D01*
X138767500Y-108581000D01*
X138705000Y-108581000D01*
X138705000Y-108668500D01*
X138409000Y-108668500D01*
X138409000Y-108581000D01*
X138346500Y-108581000D01*
X138346500Y-108576250D01*
X138433000Y-108489750D01*
X138435122Y-108247500D01*
X138705000Y-108247500D01*
X138705000Y-108335000D01*
G37*
X138705000Y-108335000D02*
X138767500Y-108335000D01*
X138767500Y-108581000D01*
X138705000Y-108581000D01*
X138705000Y-108668500D01*
X138409000Y-108668500D01*
X138409000Y-108581000D01*
X138346500Y-108581000D01*
X138346500Y-108576250D01*
X138433000Y-108489750D01*
X138435122Y-108247500D01*
X138705000Y-108247500D01*
X138705000Y-108335000D01*
G36*
X137664000Y-106786000D02*
G01*
X137751500Y-106786000D01*
X137751500Y-107082000D01*
X137664000Y-107082000D01*
X137664000Y-107144500D01*
X137418000Y-107144500D01*
X137418000Y-107082000D01*
X137330500Y-107082000D01*
X137330500Y-106786000D01*
X137418000Y-106786000D01*
X137418000Y-106723500D01*
X137664000Y-106723500D01*
X137664000Y-106786000D01*
G37*
X137664000Y-106786000D02*
X137751500Y-106786000D01*
X137751500Y-107082000D01*
X137664000Y-107082000D01*
X137664000Y-107144500D01*
X137418000Y-107144500D01*
X137418000Y-107082000D01*
X137330500Y-107082000D01*
X137330500Y-106786000D01*
X137418000Y-106786000D01*
X137418000Y-106723500D01*
X137664000Y-106723500D01*
X137664000Y-106786000D01*
G36*
X141900856Y-102941070D02*
G01*
X141867000Y-103111277D01*
X141867000Y-103284819D01*
X141900856Y-103455026D01*
X141967268Y-103615358D01*
X142063682Y-103759653D01*
X142186395Y-103882366D01*
X142330690Y-103978780D01*
X142491022Y-104045192D01*
X142661229Y-104079048D01*
X142748001Y-104079048D01*
X142748001Y-105068214D01*
X142649320Y-105002278D01*
X142488988Y-104935866D01*
X142318781Y-104902010D01*
X142145239Y-104902010D01*
X141975032Y-104935866D01*
X141859000Y-104983928D01*
X141859000Y-103656943D01*
X141861457Y-103631999D01*
X141858154Y-103598462D01*
X141851649Y-103532415D01*
X141822601Y-103436657D01*
X141815009Y-103422453D01*
X141775429Y-103348404D01*
X141727850Y-103290429D01*
X141711948Y-103271052D01*
X141692570Y-103255149D01*
X141599294Y-103161873D01*
X141595812Y-103126518D01*
X141559502Y-103006820D01*
X141500537Y-102896506D01*
X141424620Y-102804000D01*
X141957633Y-102804000D01*
X141900856Y-102941070D01*
G37*
X141900856Y-102941070D02*
X141867000Y-103111277D01*
X141867000Y-103284819D01*
X141900856Y-103455026D01*
X141967268Y-103615358D01*
X142063682Y-103759653D01*
X142186395Y-103882366D01*
X142330690Y-103978780D01*
X142491022Y-104045192D01*
X142661229Y-104079048D01*
X142748001Y-104079048D01*
X142748001Y-105068214D01*
X142649320Y-105002278D01*
X142488988Y-104935866D01*
X142318781Y-104902010D01*
X142145239Y-104902010D01*
X141975032Y-104935866D01*
X141859000Y-104983928D01*
X141859000Y-103656943D01*
X141861457Y-103631999D01*
X141858154Y-103598462D01*
X141851649Y-103532415D01*
X141822601Y-103436657D01*
X141815009Y-103422453D01*
X141775429Y-103348404D01*
X141727850Y-103290429D01*
X141711948Y-103271052D01*
X141692570Y-103255149D01*
X141599294Y-103161873D01*
X141595812Y-103126518D01*
X141559502Y-103006820D01*
X141500537Y-102896506D01*
X141424620Y-102804000D01*
X141957633Y-102804000D01*
X141900856Y-102941070D01*
G36*
X150939500Y-103695500D02*
G01*
X150959500Y-103695500D01*
X150959500Y-104076500D01*
X150939500Y-104076500D01*
X150939500Y-104096500D01*
X150558500Y-104096500D01*
X150558500Y-104076500D01*
X150538500Y-104076500D01*
X150538500Y-103695500D01*
X150558500Y-103695500D01*
X150558500Y-103675500D01*
X150939500Y-103675500D01*
X150939500Y-103695500D01*
G37*
X150939500Y-103695500D02*
X150959500Y-103695500D01*
X150959500Y-104076500D01*
X150939500Y-104076500D01*
X150939500Y-104096500D01*
X150558500Y-104096500D01*
X150558500Y-104076500D01*
X150538500Y-104076500D01*
X150538500Y-103695500D01*
X150558500Y-103695500D01*
X150558500Y-103675500D01*
X150939500Y-103675500D01*
X150939500Y-103695500D01*
G36*
X153415978Y-92129305D02*
G01*
X153415979Y-93828024D01*
X153413521Y-93852978D01*
X153421225Y-93931195D01*
X153423330Y-93952563D01*
X153443482Y-94018994D01*
X153452378Y-94048321D01*
X153499549Y-94136573D01*
X153543073Y-94189607D01*
X153563031Y-94213926D01*
X153582408Y-94229828D01*
X153923989Y-94571409D01*
X153923990Y-96114035D01*
X153921532Y-96138989D01*
X153927294Y-96197487D01*
X153931341Y-96238574D01*
X153950693Y-96302368D01*
X153960389Y-96334332D01*
X154007560Y-96422584D01*
X154047454Y-96471195D01*
X154071042Y-96499937D01*
X154090419Y-96515839D01*
X154432000Y-96857421D01*
X154432001Y-100833643D01*
X154429061Y-100823952D01*
X154393682Y-100757764D01*
X154346071Y-100699749D01*
X154288056Y-100652138D01*
X154221868Y-100616759D01*
X154150049Y-100594973D01*
X154075360Y-100587617D01*
X153623390Y-100587617D01*
X153543000Y-100579699D01*
X153472074Y-100586685D01*
X153419027Y-100581460D01*
X153335199Y-100581460D01*
X153291539Y-100577160D01*
X153247879Y-100581460D01*
X153247873Y-100581460D01*
X153185362Y-100587617D01*
X152675360Y-100587617D01*
X152600671Y-100594973D01*
X152528852Y-100616759D01*
X152462664Y-100652138D01*
X152404649Y-100699749D01*
X152357038Y-100757764D01*
X152321659Y-100823952D01*
X152299873Y-100895771D01*
X152292517Y-100970460D01*
X152292517Y-101403794D01*
X152285864Y-101425726D01*
X152284911Y-101435406D01*
X152273000Y-101556334D01*
X152273000Y-101556340D01*
X152268700Y-101600000D01*
X152273000Y-101643661D01*
X152273001Y-102374763D01*
X152248403Y-102399361D01*
X152248403Y-101925500D01*
X152241047Y-101850811D01*
X152219261Y-101778992D01*
X152183882Y-101712804D01*
X152136271Y-101654789D01*
X152078256Y-101607178D01*
X152012068Y-101571799D01*
X151940249Y-101550013D01*
X151865560Y-101542657D01*
X151537078Y-101542657D01*
X151400303Y-101405883D01*
X151865560Y-101405883D01*
X151940249Y-101398527D01*
X152012068Y-101376741D01*
X152078256Y-101341362D01*
X152136271Y-101293751D01*
X152183882Y-101235736D01*
X152219261Y-101169548D01*
X152241047Y-101097729D01*
X152248403Y-101023040D01*
X152248403Y-100023040D01*
X152246520Y-100003919D01*
X152543252Y-99881008D01*
X152812352Y-99701202D01*
X153041202Y-99472352D01*
X153221008Y-99203252D01*
X153344861Y-98904245D01*
X153408000Y-98586821D01*
X153408000Y-98263179D01*
X153344861Y-97945755D01*
X153221008Y-97646748D01*
X153041202Y-97377648D01*
X152812352Y-97148798D01*
X152543252Y-96968992D01*
X152244245Y-96845139D01*
X151926821Y-96782000D01*
X151603179Y-96782000D01*
X151285755Y-96845139D01*
X150986748Y-96968992D01*
X150717648Y-97148798D01*
X150488798Y-97377648D01*
X150308992Y-97646748D01*
X150185139Y-97945755D01*
X150180843Y-97967353D01*
X150180843Y-97803000D01*
X150173487Y-97728311D01*
X150151701Y-97656492D01*
X150116322Y-97590304D01*
X150068711Y-97532289D01*
X150010696Y-97484678D01*
X149944508Y-97449299D01*
X149872689Y-97427513D01*
X149798000Y-97420157D01*
X149204178Y-97420157D01*
X149098000Y-97409699D01*
X148991821Y-97420157D01*
X148398000Y-97420157D01*
X148323311Y-97427513D01*
X148251492Y-97449299D01*
X148185304Y-97484678D01*
X148127289Y-97532289D01*
X148079678Y-97590304D01*
X148044299Y-97656492D01*
X148043433Y-97659348D01*
X148033939Y-97648392D01*
X147935157Y-97571658D01*
X147823303Y-97515670D01*
X147702676Y-97482579D01*
X147626750Y-97476500D01*
X147468000Y-97635250D01*
X147468000Y-98238500D01*
X147530500Y-98238500D01*
X147530500Y-98484500D01*
X147468000Y-98484500D01*
X147468000Y-98572000D01*
X147269750Y-98572000D01*
X147182250Y-98484500D01*
X146568750Y-98484500D01*
X146481250Y-98572000D01*
X146283000Y-98572000D01*
X146283000Y-98484500D01*
X146220500Y-98484500D01*
X146220500Y-98238500D01*
X146283000Y-98238500D01*
X146283000Y-98079750D01*
X146410000Y-98079750D01*
X146568750Y-98238500D01*
X147182250Y-98238500D01*
X147341000Y-98079750D01*
X147328253Y-97970301D01*
X147288750Y-97851619D01*
X147226853Y-97742924D01*
X147172000Y-97679621D01*
X147172000Y-97635250D01*
X147013250Y-97476500D01*
X146937324Y-97482579D01*
X146875500Y-97499539D01*
X146813676Y-97482579D01*
X146737750Y-97476500D01*
X146579000Y-97635250D01*
X146579000Y-97679621D01*
X146524147Y-97742924D01*
X146462250Y-97851619D01*
X146422747Y-97970301D01*
X146410000Y-98079750D01*
X146283000Y-98079750D01*
X146283000Y-97635250D01*
X146177000Y-97529250D01*
X146177000Y-97186189D01*
X146180072Y-97155000D01*
X146176217Y-97115861D01*
X146167812Y-97030518D01*
X146131502Y-96910820D01*
X146122680Y-96894315D01*
X146072538Y-96800506D01*
X146013069Y-96728043D01*
X146013065Y-96728039D01*
X145993185Y-96703815D01*
X145968960Y-96683934D01*
X145630729Y-96345704D01*
X145698595Y-96309429D01*
X145775948Y-96245948D01*
X145791855Y-96226565D01*
X145899997Y-96118423D01*
X145963229Y-96131000D01*
X146136771Y-96131000D01*
X146306978Y-96097144D01*
X146467310Y-96030732D01*
X146611605Y-95934318D01*
X146734318Y-95811605D01*
X146830732Y-95667310D01*
X146897144Y-95506978D01*
X146899136Y-95496963D01*
X147291525Y-95889352D01*
X147315382Y-95918422D01*
X147431412Y-96013645D01*
X147563789Y-96084402D01*
X147707426Y-96127974D01*
X147819378Y-96139000D01*
X147819380Y-96139000D01*
X147856803Y-96142686D01*
X147894226Y-96139000D01*
X150049655Y-96139000D01*
X150077690Y-96157732D01*
X150238022Y-96224144D01*
X150408229Y-96258000D01*
X150581771Y-96258000D01*
X150751978Y-96224144D01*
X150866631Y-96176653D01*
X150935311Y-96197487D01*
X151010000Y-96204843D01*
X153010000Y-96204843D01*
X153084689Y-96197487D01*
X153156508Y-96175701D01*
X153222696Y-96140322D01*
X153280711Y-96092711D01*
X153328322Y-96034696D01*
X153363701Y-95968508D01*
X153385487Y-95896689D01*
X153392843Y-95822000D01*
X153392843Y-94922000D01*
X153385487Y-94847311D01*
X153363701Y-94775492D01*
X153343126Y-94737000D01*
X153363701Y-94698508D01*
X153385487Y-94626689D01*
X153392843Y-94552000D01*
X153392843Y-93652000D01*
X153385487Y-93577311D01*
X153363701Y-93505492D01*
X153343126Y-93467000D01*
X153363701Y-93428508D01*
X153385487Y-93356689D01*
X153392843Y-93282000D01*
X153392843Y-92382000D01*
X153385487Y-92307311D01*
X153363701Y-92235492D01*
X153343126Y-92197000D01*
X153363701Y-92158508D01*
X153382665Y-92095992D01*
X153415978Y-92129305D01*
G37*
X153415978Y-92129305D02*
X153415979Y-93828024D01*
X153413521Y-93852978D01*
X153421225Y-93931195D01*
X153423330Y-93952563D01*
X153443482Y-94018994D01*
X153452378Y-94048321D01*
X153499549Y-94136573D01*
X153543073Y-94189607D01*
X153563031Y-94213926D01*
X153582408Y-94229828D01*
X153923989Y-94571409D01*
X153923990Y-96114035D01*
X153921532Y-96138989D01*
X153927294Y-96197487D01*
X153931341Y-96238574D01*
X153950693Y-96302368D01*
X153960389Y-96334332D01*
X154007560Y-96422584D01*
X154047454Y-96471195D01*
X154071042Y-96499937D01*
X154090419Y-96515839D01*
X154432000Y-96857421D01*
X154432001Y-100833643D01*
X154429061Y-100823952D01*
X154393682Y-100757764D01*
X154346071Y-100699749D01*
X154288056Y-100652138D01*
X154221868Y-100616759D01*
X154150049Y-100594973D01*
X154075360Y-100587617D01*
X153623390Y-100587617D01*
X153543000Y-100579699D01*
X153472074Y-100586685D01*
X153419027Y-100581460D01*
X153335199Y-100581460D01*
X153291539Y-100577160D01*
X153247879Y-100581460D01*
X153247873Y-100581460D01*
X153185362Y-100587617D01*
X152675360Y-100587617D01*
X152600671Y-100594973D01*
X152528852Y-100616759D01*
X152462664Y-100652138D01*
X152404649Y-100699749D01*
X152357038Y-100757764D01*
X152321659Y-100823952D01*
X152299873Y-100895771D01*
X152292517Y-100970460D01*
X152292517Y-101403794D01*
X152285864Y-101425726D01*
X152284911Y-101435406D01*
X152273000Y-101556334D01*
X152273000Y-101556340D01*
X152268700Y-101600000D01*
X152273000Y-101643661D01*
X152273001Y-102374763D01*
X152248403Y-102399361D01*
X152248403Y-101925500D01*
X152241047Y-101850811D01*
X152219261Y-101778992D01*
X152183882Y-101712804D01*
X152136271Y-101654789D01*
X152078256Y-101607178D01*
X152012068Y-101571799D01*
X151940249Y-101550013D01*
X151865560Y-101542657D01*
X151537078Y-101542657D01*
X151400303Y-101405883D01*
X151865560Y-101405883D01*
X151940249Y-101398527D01*
X152012068Y-101376741D01*
X152078256Y-101341362D01*
X152136271Y-101293751D01*
X152183882Y-101235736D01*
X152219261Y-101169548D01*
X152241047Y-101097729D01*
X152248403Y-101023040D01*
X152248403Y-100023040D01*
X152246520Y-100003919D01*
X152543252Y-99881008D01*
X152812352Y-99701202D01*
X153041202Y-99472352D01*
X153221008Y-99203252D01*
X153344861Y-98904245D01*
X153408000Y-98586821D01*
X153408000Y-98263179D01*
X153344861Y-97945755D01*
X153221008Y-97646748D01*
X153041202Y-97377648D01*
X152812352Y-97148798D01*
X152543252Y-96968992D01*
X152244245Y-96845139D01*
X151926821Y-96782000D01*
X151603179Y-96782000D01*
X151285755Y-96845139D01*
X150986748Y-96968992D01*
X150717648Y-97148798D01*
X150488798Y-97377648D01*
X150308992Y-97646748D01*
X150185139Y-97945755D01*
X150180843Y-97967353D01*
X150180843Y-97803000D01*
X150173487Y-97728311D01*
X150151701Y-97656492D01*
X150116322Y-97590304D01*
X150068711Y-97532289D01*
X150010696Y-97484678D01*
X149944508Y-97449299D01*
X149872689Y-97427513D01*
X149798000Y-97420157D01*
X149204178Y-97420157D01*
X149098000Y-97409699D01*
X148991821Y-97420157D01*
X148398000Y-97420157D01*
X148323311Y-97427513D01*
X148251492Y-97449299D01*
X148185304Y-97484678D01*
X148127289Y-97532289D01*
X148079678Y-97590304D01*
X148044299Y-97656492D01*
X148043433Y-97659348D01*
X148033939Y-97648392D01*
X147935157Y-97571658D01*
X147823303Y-97515670D01*
X147702676Y-97482579D01*
X147626750Y-97476500D01*
X147468000Y-97635250D01*
X147468000Y-98238500D01*
X147530500Y-98238500D01*
X147530500Y-98484500D01*
X147468000Y-98484500D01*
X147468000Y-98572000D01*
X147269750Y-98572000D01*
X147182250Y-98484500D01*
X146568750Y-98484500D01*
X146481250Y-98572000D01*
X146283000Y-98572000D01*
X146283000Y-98484500D01*
X146220500Y-98484500D01*
X146220500Y-98238500D01*
X146283000Y-98238500D01*
X146283000Y-98079750D01*
X146410000Y-98079750D01*
X146568750Y-98238500D01*
X147182250Y-98238500D01*
X147341000Y-98079750D01*
X147328253Y-97970301D01*
X147288750Y-97851619D01*
X147226853Y-97742924D01*
X147172000Y-97679621D01*
X147172000Y-97635250D01*
X147013250Y-97476500D01*
X146937324Y-97482579D01*
X146875500Y-97499539D01*
X146813676Y-97482579D01*
X146737750Y-97476500D01*
X146579000Y-97635250D01*
X146579000Y-97679621D01*
X146524147Y-97742924D01*
X146462250Y-97851619D01*
X146422747Y-97970301D01*
X146410000Y-98079750D01*
X146283000Y-98079750D01*
X146283000Y-97635250D01*
X146177000Y-97529250D01*
X146177000Y-97186189D01*
X146180072Y-97155000D01*
X146176217Y-97115861D01*
X146167812Y-97030518D01*
X146131502Y-96910820D01*
X146122680Y-96894315D01*
X146072538Y-96800506D01*
X146013069Y-96728043D01*
X146013065Y-96728039D01*
X145993185Y-96703815D01*
X145968960Y-96683934D01*
X145630729Y-96345704D01*
X145698595Y-96309429D01*
X145775948Y-96245948D01*
X145791855Y-96226565D01*
X145899997Y-96118423D01*
X145963229Y-96131000D01*
X146136771Y-96131000D01*
X146306978Y-96097144D01*
X146467310Y-96030732D01*
X146611605Y-95934318D01*
X146734318Y-95811605D01*
X146830732Y-95667310D01*
X146897144Y-95506978D01*
X146899136Y-95496963D01*
X147291525Y-95889352D01*
X147315382Y-95918422D01*
X147431412Y-96013645D01*
X147563789Y-96084402D01*
X147707426Y-96127974D01*
X147819378Y-96139000D01*
X147819380Y-96139000D01*
X147856803Y-96142686D01*
X147894226Y-96139000D01*
X150049655Y-96139000D01*
X150077690Y-96157732D01*
X150238022Y-96224144D01*
X150408229Y-96258000D01*
X150581771Y-96258000D01*
X150751978Y-96224144D01*
X150866631Y-96176653D01*
X150935311Y-96197487D01*
X151010000Y-96204843D01*
X153010000Y-96204843D01*
X153084689Y-96197487D01*
X153156508Y-96175701D01*
X153222696Y-96140322D01*
X153280711Y-96092711D01*
X153328322Y-96034696D01*
X153363701Y-95968508D01*
X153385487Y-95896689D01*
X153392843Y-95822000D01*
X153392843Y-94922000D01*
X153385487Y-94847311D01*
X153363701Y-94775492D01*
X153343126Y-94737000D01*
X153363701Y-94698508D01*
X153385487Y-94626689D01*
X153392843Y-94552000D01*
X153392843Y-93652000D01*
X153385487Y-93577311D01*
X153363701Y-93505492D01*
X153343126Y-93467000D01*
X153363701Y-93428508D01*
X153385487Y-93356689D01*
X153392843Y-93282000D01*
X153392843Y-92382000D01*
X153385487Y-92307311D01*
X153363701Y-92235492D01*
X153343126Y-92197000D01*
X153363701Y-92158508D01*
X153382665Y-92095992D01*
X153415978Y-92129305D01*
G36*
X148433443Y-100032571D02*
G01*
X148466342Y-100072659D01*
X148500259Y-100100494D01*
X149517164Y-101117400D01*
X148209570Y-101117400D01*
X148212072Y-101092000D01*
X148209000Y-100933250D01*
X148050250Y-100774500D01*
X147256500Y-100774500D01*
X147256500Y-100794500D01*
X146875500Y-100794500D01*
X146875500Y-100774500D01*
X146855500Y-100774500D01*
X146855500Y-100393500D01*
X146875500Y-100393500D01*
X146875500Y-100373500D01*
X147256500Y-100373500D01*
X147256500Y-100393500D01*
X148050250Y-100393500D01*
X148209000Y-100234750D01*
X148212072Y-100076000D01*
X148205818Y-100012500D01*
X148416970Y-100012500D01*
X148433443Y-100032571D01*
G37*
X148433443Y-100032571D02*
X148466342Y-100072659D01*
X148500259Y-100100494D01*
X149517164Y-101117400D01*
X148209570Y-101117400D01*
X148212072Y-101092000D01*
X148209000Y-100933250D01*
X148050250Y-100774500D01*
X147256500Y-100774500D01*
X147256500Y-100794500D01*
X146875500Y-100794500D01*
X146875500Y-100774500D01*
X146855500Y-100774500D01*
X146855500Y-100393500D01*
X146875500Y-100393500D01*
X146875500Y-100373500D01*
X147256500Y-100373500D01*
X147256500Y-100393500D01*
X148050250Y-100393500D01*
X148209000Y-100234750D01*
X148212072Y-100076000D01*
X148205818Y-100012500D01*
X148416970Y-100012500D01*
X148433443Y-100032571D01*
G36*
X144907001Y-97418026D02*
G01*
X144907001Y-97532928D01*
X144907000Y-97532928D01*
X144748250Y-97536000D01*
X144589500Y-97694750D01*
X144589500Y-98488500D01*
X144609500Y-98488500D01*
X144609500Y-98869500D01*
X144589500Y-98869500D01*
X144589500Y-98889500D01*
X144208500Y-98889500D01*
X144208500Y-98869500D01*
X144188500Y-98869500D01*
X144188500Y-98488500D01*
X144208500Y-98488500D01*
X144208500Y-97694750D01*
X144049750Y-97536000D01*
X143891000Y-97532928D01*
X143766518Y-97545188D01*
X143646820Y-97581498D01*
X143547367Y-97634657D01*
X143555957Y-97626068D01*
X143580185Y-97606185D01*
X143600074Y-97581950D01*
X143809950Y-97372074D01*
X143834185Y-97352185D01*
X143854074Y-97327950D01*
X144027024Y-97155000D01*
X144643975Y-97155000D01*
X144907001Y-97418026D01*
G37*
X144907001Y-97418026D02*
X144907001Y-97532928D01*
X144907000Y-97532928D01*
X144748250Y-97536000D01*
X144589500Y-97694750D01*
X144589500Y-98488500D01*
X144609500Y-98488500D01*
X144609500Y-98869500D01*
X144589500Y-98869500D01*
X144589500Y-98889500D01*
X144208500Y-98889500D01*
X144208500Y-98869500D01*
X144188500Y-98869500D01*
X144188500Y-98488500D01*
X144208500Y-98488500D01*
X144208500Y-97694750D01*
X144049750Y-97536000D01*
X143891000Y-97532928D01*
X143766518Y-97545188D01*
X143646820Y-97581498D01*
X143547367Y-97634657D01*
X143555957Y-97626068D01*
X143580185Y-97606185D01*
X143600074Y-97581950D01*
X143809950Y-97372074D01*
X143834185Y-97352185D01*
X143854074Y-97327950D01*
X144027024Y-97155000D01*
X144643975Y-97155000D01*
X144907001Y-97418026D01*
G36*
X143452599Y-91973211D02*
G01*
X143523355Y-92105588D01*
X143594721Y-92192547D01*
X143618579Y-92221618D01*
X143647649Y-92245475D01*
X145803037Y-94400864D01*
X145793022Y-94402856D01*
X145632690Y-94469268D01*
X145532396Y-94536282D01*
X145464318Y-94434395D01*
X145341605Y-94311682D01*
X145197310Y-94215268D01*
X145036978Y-94148856D01*
X144866771Y-94115000D01*
X144693229Y-94115000D01*
X144523022Y-94148856D01*
X144362690Y-94215268D01*
X144353235Y-94221585D01*
X144290732Y-94070690D01*
X144194318Y-93926395D01*
X144071605Y-93803682D01*
X143927310Y-93707268D01*
X143766978Y-93640856D01*
X143596771Y-93607000D01*
X143423229Y-93607000D01*
X143253022Y-93640856D01*
X143092690Y-93707268D01*
X142948395Y-93803682D01*
X142825682Y-93926395D01*
X142789865Y-93980000D01*
X142110823Y-93980000D01*
X142085879Y-93977543D01*
X142060935Y-93980000D01*
X142060932Y-93980000D01*
X141986294Y-93987351D01*
X141890536Y-94016399D01*
X141802284Y-94063571D01*
X141724931Y-94127052D01*
X141709024Y-94146435D01*
X141113437Y-94742022D01*
X140576002Y-94742022D01*
X143316961Y-92001065D01*
X143341185Y-91981185D01*
X143361854Y-91956000D01*
X143420537Y-91884495D01*
X143423823Y-91878348D01*
X143452599Y-91973211D01*
G37*
X143452599Y-91973211D02*
X143523355Y-92105588D01*
X143594721Y-92192547D01*
X143618579Y-92221618D01*
X143647649Y-92245475D01*
X145803037Y-94400864D01*
X145793022Y-94402856D01*
X145632690Y-94469268D01*
X145532396Y-94536282D01*
X145464318Y-94434395D01*
X145341605Y-94311682D01*
X145197310Y-94215268D01*
X145036978Y-94148856D01*
X144866771Y-94115000D01*
X144693229Y-94115000D01*
X144523022Y-94148856D01*
X144362690Y-94215268D01*
X144353235Y-94221585D01*
X144290732Y-94070690D01*
X144194318Y-93926395D01*
X144071605Y-93803682D01*
X143927310Y-93707268D01*
X143766978Y-93640856D01*
X143596771Y-93607000D01*
X143423229Y-93607000D01*
X143253022Y-93640856D01*
X143092690Y-93707268D01*
X142948395Y-93803682D01*
X142825682Y-93926395D01*
X142789865Y-93980000D01*
X142110823Y-93980000D01*
X142085879Y-93977543D01*
X142060935Y-93980000D01*
X142060932Y-93980000D01*
X141986294Y-93987351D01*
X141890536Y-94016399D01*
X141802284Y-94063571D01*
X141724931Y-94127052D01*
X141709024Y-94146435D01*
X141113437Y-94742022D01*
X140576002Y-94742022D01*
X143316961Y-92001065D01*
X143341185Y-91981185D01*
X143361854Y-91956000D01*
X143420537Y-91884495D01*
X143423823Y-91878348D01*
X143452599Y-91973211D01*
G36*
X147542648Y-71748798D02*
G01*
X147313798Y-71977648D01*
X147133992Y-72246748D01*
X147010139Y-72545755D01*
X146947000Y-72863179D01*
X146947000Y-73186821D01*
X147010139Y-73504245D01*
X147133992Y-73803252D01*
X147313798Y-74072352D01*
X147542648Y-74301202D01*
X147811748Y-74481008D01*
X148110755Y-74604861D01*
X148428179Y-74668000D01*
X148751821Y-74668000D01*
X149069245Y-74604861D01*
X149368252Y-74481008D01*
X149637352Y-74301202D01*
X149866202Y-74072352D01*
X150046008Y-73803252D01*
X150169861Y-73504245D01*
X150233000Y-73186821D01*
X150233000Y-72863179D01*
X150169861Y-72545755D01*
X150046008Y-72246748D01*
X149866202Y-71977648D01*
X149637352Y-71748798D01*
X149456564Y-71628000D01*
X150544712Y-71628000D01*
X150479463Y-71707506D01*
X150420498Y-71817820D01*
X150384188Y-71937518D01*
X150371928Y-72062000D01*
X150375000Y-72162750D01*
X150533750Y-72321500D01*
X151819500Y-72321500D01*
X151819500Y-72301500D01*
X152200500Y-72301500D01*
X152200500Y-72321500D01*
X152220500Y-72321500D01*
X152220500Y-72702500D01*
X152200500Y-72702500D01*
X152200500Y-72722500D01*
X151819500Y-72722500D01*
X151819500Y-72702500D01*
X150533750Y-72702500D01*
X150375000Y-72861250D01*
X150371928Y-72962000D01*
X150384188Y-73086482D01*
X150420498Y-73206180D01*
X150479463Y-73316494D01*
X150558815Y-73413185D01*
X150627157Y-73469272D01*
X150627157Y-74232000D01*
X150634513Y-74306689D01*
X150656299Y-74378508D01*
X150676874Y-74417000D01*
X150656299Y-74455492D01*
X150634513Y-74527311D01*
X150627157Y-74602000D01*
X150627157Y-75502000D01*
X150634513Y-75576689D01*
X150656299Y-75648508D01*
X150676874Y-75687000D01*
X150656299Y-75725492D01*
X150634513Y-75797311D01*
X150627157Y-75872000D01*
X150627157Y-76772000D01*
X150634513Y-76846689D01*
X150656299Y-76918508D01*
X150676874Y-76957000D01*
X150656299Y-76995492D01*
X150634513Y-77067311D01*
X150627157Y-77142000D01*
X150627157Y-78042000D01*
X150634513Y-78116689D01*
X150656299Y-78188508D01*
X150676874Y-78227000D01*
X150656299Y-78265492D01*
X150634513Y-78337311D01*
X150627157Y-78412000D01*
X150627157Y-79312000D01*
X150634513Y-79386689D01*
X150656299Y-79458508D01*
X150676874Y-79497000D01*
X150656299Y-79535492D01*
X150634513Y-79607311D01*
X150627157Y-79682000D01*
X150627157Y-80582000D01*
X150634513Y-80656689D01*
X150656299Y-80728508D01*
X150676874Y-80767000D01*
X150656299Y-80805492D01*
X150634513Y-80877311D01*
X150627157Y-80952000D01*
X150627157Y-81852000D01*
X150634513Y-81926689D01*
X150656299Y-81998508D01*
X150676874Y-82037000D01*
X150656299Y-82075492D01*
X150634513Y-82147311D01*
X150627157Y-82222000D01*
X150627157Y-83122000D01*
X150634513Y-83196689D01*
X150656299Y-83268508D01*
X150676874Y-83307000D01*
X150656299Y-83345492D01*
X150634513Y-83417311D01*
X150627157Y-83492000D01*
X150627157Y-84392000D01*
X150634513Y-84466689D01*
X150656299Y-84538508D01*
X150676874Y-84577000D01*
X150656299Y-84615492D01*
X150634513Y-84687311D01*
X150627157Y-84762000D01*
X150627157Y-85615028D01*
X150581771Y-85606000D01*
X150408229Y-85606000D01*
X150238022Y-85639856D01*
X150077690Y-85706268D01*
X149933395Y-85802682D01*
X149810682Y-85925395D01*
X149714268Y-86069690D01*
X149647856Y-86230022D01*
X149614000Y-86400229D01*
X149614000Y-86573771D01*
X149647856Y-86743978D01*
X149714268Y-86904310D01*
X149810682Y-87048605D01*
X149884077Y-87122000D01*
X149810682Y-87195395D01*
X149714268Y-87339690D01*
X149647856Y-87500022D01*
X149614000Y-87670229D01*
X149614000Y-87843771D01*
X149647856Y-88013978D01*
X149714268Y-88174310D01*
X149810682Y-88318605D01*
X149933395Y-88441318D01*
X150077690Y-88537732D01*
X150238022Y-88604144D01*
X150408229Y-88638000D01*
X150581771Y-88638000D01*
X150627157Y-88628972D01*
X150627157Y-89425028D01*
X150581771Y-89416000D01*
X150512025Y-89416000D01*
X150067907Y-88971883D01*
X150065487Y-88947311D01*
X150043701Y-88875492D01*
X150008322Y-88809304D01*
X149960711Y-88751289D01*
X149902696Y-88703678D01*
X149836508Y-88668299D01*
X149764689Y-88646513D01*
X149690000Y-88639157D01*
X148790000Y-88639157D01*
X148715311Y-88646513D01*
X148643492Y-88668299D01*
X148605000Y-88688874D01*
X148566508Y-88668299D01*
X148494689Y-88646513D01*
X148420000Y-88639157D01*
X147520000Y-88639157D01*
X147445311Y-88646513D01*
X147373492Y-88668299D01*
X147335000Y-88688874D01*
X147296508Y-88668299D01*
X147224689Y-88646513D01*
X147150000Y-88639157D01*
X146250000Y-88639157D01*
X146175311Y-88646513D01*
X146103492Y-88668299D01*
X146065000Y-88688874D01*
X146026508Y-88668299D01*
X145954689Y-88646513D01*
X145880000Y-88639157D01*
X144980000Y-88639157D01*
X144905311Y-88646513D01*
X144833492Y-88668299D01*
X144795000Y-88688874D01*
X144756508Y-88668299D01*
X144684689Y-88646513D01*
X144610000Y-88639157D01*
X143710000Y-88639157D01*
X143635311Y-88646513D01*
X143563492Y-88668299D01*
X143525000Y-88688874D01*
X143486508Y-88668299D01*
X143414689Y-88646513D01*
X143340000Y-88639157D01*
X142440000Y-88639157D01*
X142365311Y-88646513D01*
X142293492Y-88668299D01*
X142255000Y-88688874D01*
X142216508Y-88668299D01*
X142144689Y-88646513D01*
X142070000Y-88639157D01*
X141170000Y-88639157D01*
X141095311Y-88646513D01*
X141023492Y-88668299D01*
X140985000Y-88688874D01*
X140946508Y-88668299D01*
X140874689Y-88646513D01*
X140800000Y-88639157D01*
X139900000Y-88639157D01*
X139825311Y-88646513D01*
X139753492Y-88668299D01*
X139715000Y-88688874D01*
X139676508Y-88668299D01*
X139604689Y-88646513D01*
X139530000Y-88639157D01*
X138767272Y-88639157D01*
X138711185Y-88570815D01*
X138614494Y-88491463D01*
X138504180Y-88432498D01*
X138384482Y-88396188D01*
X138260000Y-88383928D01*
X138159250Y-88387000D01*
X138000500Y-88545750D01*
X138000500Y-89831500D01*
X138020500Y-89831500D01*
X138020500Y-90212500D01*
X138000500Y-90212500D01*
X138000500Y-90232500D01*
X137619500Y-90232500D01*
X137619500Y-90212500D01*
X136883750Y-90212500D01*
X136725000Y-90371250D01*
X136723409Y-90708206D01*
X136646576Y-90692923D01*
X136645000Y-90641250D01*
X136486250Y-90482500D01*
X135200500Y-90482500D01*
X135200500Y-90502500D01*
X134819500Y-90502500D01*
X134819500Y-90482500D01*
X134799500Y-90482500D01*
X134799500Y-90101500D01*
X134819500Y-90101500D01*
X134819500Y-90081500D01*
X135200500Y-90081500D01*
X135200500Y-90101500D01*
X136486250Y-90101500D01*
X136645000Y-89942750D01*
X136646269Y-89901138D01*
X136781978Y-89874144D01*
X136884929Y-89831500D01*
X137619500Y-89831500D01*
X137619500Y-88545750D01*
X137460750Y-88387000D01*
X137360000Y-88383928D01*
X137235518Y-88396188D01*
X137162316Y-88418393D01*
X137135923Y-88392000D01*
X137209318Y-88318605D01*
X137305732Y-88174310D01*
X137372144Y-88013978D01*
X137406000Y-87843771D01*
X137406000Y-87670229D01*
X137372144Y-87500022D01*
X137305732Y-87339690D01*
X137209318Y-87195395D01*
X137135923Y-87122000D01*
X137209318Y-87048605D01*
X137305732Y-86904310D01*
X137372144Y-86743978D01*
X137406000Y-86573771D01*
X137406000Y-86400229D01*
X137372144Y-86230022D01*
X137305732Y-86069690D01*
X137209318Y-85925395D01*
X137135923Y-85852000D01*
X137209318Y-85778605D01*
X137305732Y-85634310D01*
X137372144Y-85473978D01*
X137406000Y-85303771D01*
X137406000Y-85130229D01*
X137372144Y-84960022D01*
X137305732Y-84799690D01*
X137209318Y-84655395D01*
X137135923Y-84582000D01*
X137209318Y-84508605D01*
X137305732Y-84364310D01*
X137372144Y-84203978D01*
X137406000Y-84033771D01*
X137406000Y-83860229D01*
X137372144Y-83690022D01*
X137305732Y-83529690D01*
X137209318Y-83385395D01*
X137135923Y-83312000D01*
X137209318Y-83238605D01*
X137305732Y-83094310D01*
X137372144Y-82933978D01*
X137406000Y-82763771D01*
X137406000Y-82590229D01*
X137372144Y-82420022D01*
X137305732Y-82259690D01*
X137209318Y-82115395D01*
X137135923Y-82042000D01*
X137209318Y-81968605D01*
X137305732Y-81824310D01*
X137372144Y-81663978D01*
X137406000Y-81493771D01*
X137406000Y-81320229D01*
X137372144Y-81150022D01*
X137305732Y-80989690D01*
X137209318Y-80845395D01*
X137135923Y-80772000D01*
X137209318Y-80698605D01*
X137305732Y-80554310D01*
X137372144Y-80393978D01*
X137406000Y-80223771D01*
X137406000Y-80050229D01*
X137372144Y-79880022D01*
X137305732Y-79719690D01*
X137209318Y-79575395D01*
X137135923Y-79502000D01*
X137209318Y-79428605D01*
X137305732Y-79284310D01*
X137372144Y-79123978D01*
X137406000Y-78953771D01*
X137406000Y-78780229D01*
X137372144Y-78610022D01*
X137305732Y-78449690D01*
X137209318Y-78305395D01*
X137135923Y-78232000D01*
X137209318Y-78158605D01*
X137305732Y-78014310D01*
X137372144Y-77853978D01*
X137406000Y-77683771D01*
X137406000Y-77510229D01*
X137372144Y-77340022D01*
X137305732Y-77179690D01*
X137209318Y-77035395D01*
X137086605Y-76912682D01*
X136942310Y-76816268D01*
X136781978Y-76749856D01*
X136611771Y-76716000D01*
X136438229Y-76716000D01*
X136392843Y-76725028D01*
X136392843Y-75928972D01*
X136438229Y-75938000D01*
X136611771Y-75938000D01*
X136781978Y-75904144D01*
X136942310Y-75837732D01*
X137086605Y-75741318D01*
X137209318Y-75618605D01*
X137305732Y-75474310D01*
X137372144Y-75313978D01*
X137406000Y-75143771D01*
X137406000Y-74970229D01*
X137372144Y-74800022D01*
X137305732Y-74639690D01*
X137209318Y-74495395D01*
X137135923Y-74422000D01*
X137209318Y-74348605D01*
X137305732Y-74204310D01*
X137372144Y-74043978D01*
X137406000Y-73873771D01*
X137406000Y-73700229D01*
X137372144Y-73530022D01*
X137305732Y-73369690D01*
X137209318Y-73225395D01*
X137086605Y-73102682D01*
X136942310Y-73006268D01*
X136781978Y-72939856D01*
X136646576Y-72912923D01*
X136645000Y-72861250D01*
X136486250Y-72702500D01*
X135200500Y-72702500D01*
X135200500Y-72722500D01*
X134819500Y-72722500D01*
X134819500Y-72702500D01*
X134799500Y-72702500D01*
X134799500Y-72321500D01*
X134819500Y-72321500D01*
X134819500Y-72301500D01*
X135200500Y-72301500D01*
X135200500Y-72321500D01*
X136486250Y-72321500D01*
X136645000Y-72162750D01*
X136648072Y-72062000D01*
X136635812Y-71937518D01*
X136599502Y-71817820D01*
X136540537Y-71707506D01*
X136475288Y-71628000D01*
X147723436Y-71628000D01*
X147542648Y-71748798D01*
G37*
X147542648Y-71748798D02*
X147313798Y-71977648D01*
X147133992Y-72246748D01*
X147010139Y-72545755D01*
X146947000Y-72863179D01*
X146947000Y-73186821D01*
X147010139Y-73504245D01*
X147133992Y-73803252D01*
X147313798Y-74072352D01*
X147542648Y-74301202D01*
X147811748Y-74481008D01*
X148110755Y-74604861D01*
X148428179Y-74668000D01*
X148751821Y-74668000D01*
X149069245Y-74604861D01*
X149368252Y-74481008D01*
X149637352Y-74301202D01*
X149866202Y-74072352D01*
X150046008Y-73803252D01*
X150169861Y-73504245D01*
X150233000Y-73186821D01*
X150233000Y-72863179D01*
X150169861Y-72545755D01*
X150046008Y-72246748D01*
X149866202Y-71977648D01*
X149637352Y-71748798D01*
X149456564Y-71628000D01*
X150544712Y-71628000D01*
X150479463Y-71707506D01*
X150420498Y-71817820D01*
X150384188Y-71937518D01*
X150371928Y-72062000D01*
X150375000Y-72162750D01*
X150533750Y-72321500D01*
X151819500Y-72321500D01*
X151819500Y-72301500D01*
X152200500Y-72301500D01*
X152200500Y-72321500D01*
X152220500Y-72321500D01*
X152220500Y-72702500D01*
X152200500Y-72702500D01*
X152200500Y-72722500D01*
X151819500Y-72722500D01*
X151819500Y-72702500D01*
X150533750Y-72702500D01*
X150375000Y-72861250D01*
X150371928Y-72962000D01*
X150384188Y-73086482D01*
X150420498Y-73206180D01*
X150479463Y-73316494D01*
X150558815Y-73413185D01*
X150627157Y-73469272D01*
X150627157Y-74232000D01*
X150634513Y-74306689D01*
X150656299Y-74378508D01*
X150676874Y-74417000D01*
X150656299Y-74455492D01*
X150634513Y-74527311D01*
X150627157Y-74602000D01*
X150627157Y-75502000D01*
X150634513Y-75576689D01*
X150656299Y-75648508D01*
X150676874Y-75687000D01*
X150656299Y-75725492D01*
X150634513Y-75797311D01*
X150627157Y-75872000D01*
X150627157Y-76772000D01*
X150634513Y-76846689D01*
X150656299Y-76918508D01*
X150676874Y-76957000D01*
X150656299Y-76995492D01*
X150634513Y-77067311D01*
X150627157Y-77142000D01*
X150627157Y-78042000D01*
X150634513Y-78116689D01*
X150656299Y-78188508D01*
X150676874Y-78227000D01*
X150656299Y-78265492D01*
X150634513Y-78337311D01*
X150627157Y-78412000D01*
X150627157Y-79312000D01*
X150634513Y-79386689D01*
X150656299Y-79458508D01*
X150676874Y-79497000D01*
X150656299Y-79535492D01*
X150634513Y-79607311D01*
X150627157Y-79682000D01*
X150627157Y-80582000D01*
X150634513Y-80656689D01*
X150656299Y-80728508D01*
X150676874Y-80767000D01*
X150656299Y-80805492D01*
X150634513Y-80877311D01*
X150627157Y-80952000D01*
X150627157Y-81852000D01*
X150634513Y-81926689D01*
X150656299Y-81998508D01*
X150676874Y-82037000D01*
X150656299Y-82075492D01*
X150634513Y-82147311D01*
X150627157Y-82222000D01*
X150627157Y-83122000D01*
X150634513Y-83196689D01*
X150656299Y-83268508D01*
X150676874Y-83307000D01*
X150656299Y-83345492D01*
X150634513Y-83417311D01*
X150627157Y-83492000D01*
X150627157Y-84392000D01*
X150634513Y-84466689D01*
X150656299Y-84538508D01*
X150676874Y-84577000D01*
X150656299Y-84615492D01*
X150634513Y-84687311D01*
X150627157Y-84762000D01*
X150627157Y-85615028D01*
X150581771Y-85606000D01*
X150408229Y-85606000D01*
X150238022Y-85639856D01*
X150077690Y-85706268D01*
X149933395Y-85802682D01*
X149810682Y-85925395D01*
X149714268Y-86069690D01*
X149647856Y-86230022D01*
X149614000Y-86400229D01*
X149614000Y-86573771D01*
X149647856Y-86743978D01*
X149714268Y-86904310D01*
X149810682Y-87048605D01*
X149884077Y-87122000D01*
X149810682Y-87195395D01*
X149714268Y-87339690D01*
X149647856Y-87500022D01*
X149614000Y-87670229D01*
X149614000Y-87843771D01*
X149647856Y-88013978D01*
X149714268Y-88174310D01*
X149810682Y-88318605D01*
X149933395Y-88441318D01*
X150077690Y-88537732D01*
X150238022Y-88604144D01*
X150408229Y-88638000D01*
X150581771Y-88638000D01*
X150627157Y-88628972D01*
X150627157Y-89425028D01*
X150581771Y-89416000D01*
X150512025Y-89416000D01*
X150067907Y-88971883D01*
X150065487Y-88947311D01*
X150043701Y-88875492D01*
X150008322Y-88809304D01*
X149960711Y-88751289D01*
X149902696Y-88703678D01*
X149836508Y-88668299D01*
X149764689Y-88646513D01*
X149690000Y-88639157D01*
X148790000Y-88639157D01*
X148715311Y-88646513D01*
X148643492Y-88668299D01*
X148605000Y-88688874D01*
X148566508Y-88668299D01*
X148494689Y-88646513D01*
X148420000Y-88639157D01*
X147520000Y-88639157D01*
X147445311Y-88646513D01*
X147373492Y-88668299D01*
X147335000Y-88688874D01*
X147296508Y-88668299D01*
X147224689Y-88646513D01*
X147150000Y-88639157D01*
X146250000Y-88639157D01*
X146175311Y-88646513D01*
X146103492Y-88668299D01*
X146065000Y-88688874D01*
X146026508Y-88668299D01*
X145954689Y-88646513D01*
X145880000Y-88639157D01*
X144980000Y-88639157D01*
X144905311Y-88646513D01*
X144833492Y-88668299D01*
X144795000Y-88688874D01*
X144756508Y-88668299D01*
X144684689Y-88646513D01*
X144610000Y-88639157D01*
X143710000Y-88639157D01*
X143635311Y-88646513D01*
X143563492Y-88668299D01*
X143525000Y-88688874D01*
X143486508Y-88668299D01*
X143414689Y-88646513D01*
X143340000Y-88639157D01*
X142440000Y-88639157D01*
X142365311Y-88646513D01*
X142293492Y-88668299D01*
X142255000Y-88688874D01*
X142216508Y-88668299D01*
X142144689Y-88646513D01*
X142070000Y-88639157D01*
X141170000Y-88639157D01*
X141095311Y-88646513D01*
X141023492Y-88668299D01*
X140985000Y-88688874D01*
X140946508Y-88668299D01*
X140874689Y-88646513D01*
X140800000Y-88639157D01*
X139900000Y-88639157D01*
X139825311Y-88646513D01*
X139753492Y-88668299D01*
X139715000Y-88688874D01*
X139676508Y-88668299D01*
X139604689Y-88646513D01*
X139530000Y-88639157D01*
X138767272Y-88639157D01*
X138711185Y-88570815D01*
X138614494Y-88491463D01*
X138504180Y-88432498D01*
X138384482Y-88396188D01*
X138260000Y-88383928D01*
X138159250Y-88387000D01*
X138000500Y-88545750D01*
X138000500Y-89831500D01*
X138020500Y-89831500D01*
X138020500Y-90212500D01*
X138000500Y-90212500D01*
X138000500Y-90232500D01*
X137619500Y-90232500D01*
X137619500Y-90212500D01*
X136883750Y-90212500D01*
X136725000Y-90371250D01*
X136723409Y-90708206D01*
X136646576Y-90692923D01*
X136645000Y-90641250D01*
X136486250Y-90482500D01*
X135200500Y-90482500D01*
X135200500Y-90502500D01*
X134819500Y-90502500D01*
X134819500Y-90482500D01*
X134799500Y-90482500D01*
X134799500Y-90101500D01*
X134819500Y-90101500D01*
X134819500Y-90081500D01*
X135200500Y-90081500D01*
X135200500Y-90101500D01*
X136486250Y-90101500D01*
X136645000Y-89942750D01*
X136646269Y-89901138D01*
X136781978Y-89874144D01*
X136884929Y-89831500D01*
X137619500Y-89831500D01*
X137619500Y-88545750D01*
X137460750Y-88387000D01*
X137360000Y-88383928D01*
X137235518Y-88396188D01*
X137162316Y-88418393D01*
X137135923Y-88392000D01*
X137209318Y-88318605D01*
X137305732Y-88174310D01*
X137372144Y-88013978D01*
X137406000Y-87843771D01*
X137406000Y-87670229D01*
X137372144Y-87500022D01*
X137305732Y-87339690D01*
X137209318Y-87195395D01*
X137135923Y-87122000D01*
X137209318Y-87048605D01*
X137305732Y-86904310D01*
X137372144Y-86743978D01*
X137406000Y-86573771D01*
X137406000Y-86400229D01*
X137372144Y-86230022D01*
X137305732Y-86069690D01*
X137209318Y-85925395D01*
X137135923Y-85852000D01*
X137209318Y-85778605D01*
X137305732Y-85634310D01*
X137372144Y-85473978D01*
X137406000Y-85303771D01*
X137406000Y-85130229D01*
X137372144Y-84960022D01*
X137305732Y-84799690D01*
X137209318Y-84655395D01*
X137135923Y-84582000D01*
X137209318Y-84508605D01*
X137305732Y-84364310D01*
X137372144Y-84203978D01*
X137406000Y-84033771D01*
X137406000Y-83860229D01*
X137372144Y-83690022D01*
X137305732Y-83529690D01*
X137209318Y-83385395D01*
X137135923Y-83312000D01*
X137209318Y-83238605D01*
X137305732Y-83094310D01*
X137372144Y-82933978D01*
X137406000Y-82763771D01*
X137406000Y-82590229D01*
X137372144Y-82420022D01*
X137305732Y-82259690D01*
X137209318Y-82115395D01*
X137135923Y-82042000D01*
X137209318Y-81968605D01*
X137305732Y-81824310D01*
X137372144Y-81663978D01*
X137406000Y-81493771D01*
X137406000Y-81320229D01*
X137372144Y-81150022D01*
X137305732Y-80989690D01*
X137209318Y-80845395D01*
X137135923Y-80772000D01*
X137209318Y-80698605D01*
X137305732Y-80554310D01*
X137372144Y-80393978D01*
X137406000Y-80223771D01*
X137406000Y-80050229D01*
X137372144Y-79880022D01*
X137305732Y-79719690D01*
X137209318Y-79575395D01*
X137135923Y-79502000D01*
X137209318Y-79428605D01*
X137305732Y-79284310D01*
X137372144Y-79123978D01*
X137406000Y-78953771D01*
X137406000Y-78780229D01*
X137372144Y-78610022D01*
X137305732Y-78449690D01*
X137209318Y-78305395D01*
X137135923Y-78232000D01*
X137209318Y-78158605D01*
X137305732Y-78014310D01*
X137372144Y-77853978D01*
X137406000Y-77683771D01*
X137406000Y-77510229D01*
X137372144Y-77340022D01*
X137305732Y-77179690D01*
X137209318Y-77035395D01*
X137086605Y-76912682D01*
X136942310Y-76816268D01*
X136781978Y-76749856D01*
X136611771Y-76716000D01*
X136438229Y-76716000D01*
X136392843Y-76725028D01*
X136392843Y-75928972D01*
X136438229Y-75938000D01*
X136611771Y-75938000D01*
X136781978Y-75904144D01*
X136942310Y-75837732D01*
X137086605Y-75741318D01*
X137209318Y-75618605D01*
X137305732Y-75474310D01*
X137372144Y-75313978D01*
X137406000Y-75143771D01*
X137406000Y-74970229D01*
X137372144Y-74800022D01*
X137305732Y-74639690D01*
X137209318Y-74495395D01*
X137135923Y-74422000D01*
X137209318Y-74348605D01*
X137305732Y-74204310D01*
X137372144Y-74043978D01*
X137406000Y-73873771D01*
X137406000Y-73700229D01*
X137372144Y-73530022D01*
X137305732Y-73369690D01*
X137209318Y-73225395D01*
X137086605Y-73102682D01*
X136942310Y-73006268D01*
X136781978Y-72939856D01*
X136646576Y-72912923D01*
X136645000Y-72861250D01*
X136486250Y-72702500D01*
X135200500Y-72702500D01*
X135200500Y-72722500D01*
X134819500Y-72722500D01*
X134819500Y-72702500D01*
X134799500Y-72702500D01*
X134799500Y-72321500D01*
X134819500Y-72321500D01*
X134819500Y-72301500D01*
X135200500Y-72301500D01*
X135200500Y-72321500D01*
X136486250Y-72321500D01*
X136645000Y-72162750D01*
X136648072Y-72062000D01*
X136635812Y-71937518D01*
X136599502Y-71817820D01*
X136540537Y-71707506D01*
X136475288Y-71628000D01*
X147723436Y-71628000D01*
X147542648Y-71748798D01*
G36*
X156493550Y-87615858D02*
G01*
X156479408Y-87630000D01*
X156493550Y-87644142D01*
X156224142Y-87913550D01*
X156210000Y-87899408D01*
X156195858Y-87913550D01*
X155926450Y-87644142D01*
X155940592Y-87630000D01*
X155926450Y-87615858D01*
X156195858Y-87346450D01*
X156210000Y-87360592D01*
X156224142Y-87346450D01*
X156493550Y-87615858D01*
G37*
X156493550Y-87615858D02*
X156479408Y-87630000D01*
X156493550Y-87644142D01*
X156224142Y-87913550D01*
X156210000Y-87899408D01*
X156195858Y-87913550D01*
X155926450Y-87644142D01*
X155940592Y-87630000D01*
X155926450Y-87615858D01*
X156195858Y-87346450D01*
X156210000Y-87360592D01*
X156224142Y-87346450D01*
X156493550Y-87615858D01*
G36*
X154588550Y-72375858D02*
G01*
X154574408Y-72390000D01*
X154588550Y-72404142D01*
X154319142Y-72673550D01*
X154305000Y-72659408D01*
X154290858Y-72673550D01*
X154021450Y-72404142D01*
X154035592Y-72390000D01*
X154021450Y-72375858D01*
X154290858Y-72106450D01*
X154305000Y-72120592D01*
X154319142Y-72106450D01*
X154588550Y-72375858D01*
G37*
X154588550Y-72375858D02*
X154574408Y-72390000D01*
X154588550Y-72404142D01*
X154319142Y-72673550D01*
X154305000Y-72659408D01*
X154290858Y-72673550D01*
X154021450Y-72404142D01*
X154035592Y-72390000D01*
X154021450Y-72375858D01*
X154290858Y-72106450D01*
X154305000Y-72120592D01*
X154319142Y-72106450D01*
X154588550Y-72375858D01*
G36*
X156400500Y-72199500D02*
G01*
X156420500Y-72199500D01*
X156420500Y-72580500D01*
X156400500Y-72580500D01*
X156400500Y-72600500D01*
X156019500Y-72600500D01*
X156019500Y-72580500D01*
X155999500Y-72580500D01*
X155999500Y-72199500D01*
X156019500Y-72199500D01*
X156019500Y-72179500D01*
X156400500Y-72179500D01*
X156400500Y-72199500D01*
G37*
X156400500Y-72199500D02*
X156420500Y-72199500D01*
X156420500Y-72580500D01*
X156400500Y-72580500D01*
X156400500Y-72600500D01*
X156019500Y-72600500D01*
X156019500Y-72580500D01*
X155999500Y-72580500D01*
X155999500Y-72199500D01*
X156019500Y-72199500D01*
X156019500Y-72179500D01*
X156400500Y-72179500D01*
X156400500Y-72199500D01*
D46*
G36*
X145986500Y-83121500D02*
G01*
X139128500Y-83121500D01*
X139128500Y-76263500D01*
X145986500Y-76263500D01*
X145986500Y-83121500D01*
G37*
X145986500Y-83121500D02*
X139128500Y-83121500D01*
X139128500Y-76263500D01*
X145986500Y-76263500D01*
X145986500Y-83121500D01*
M02*
