G04 #@! TF.GenerationSoftware,KiCad,Pcbnew,5.1.5-52549c5~84~ubuntu18.04.1*
G04 #@! TF.CreationDate,2020-03-19T16:33:17+02:00*
G04 #@! TF.ProjectId,ESP32-DevKit-Lipo_Rev_C,45535033-322d-4446-9576-4b69742d4c69,C*
G04 #@! TF.SameCoordinates,Original*
G04 #@! TF.FileFunction,Legend,Top*
G04 #@! TF.FilePolarity,Positive*
%FSLAX46Y46*%
G04 Gerber Fmt 4.6, Leading zero omitted, Abs format (unit mm)*
G04 Created by KiCad (PCBNEW 5.1.5-52549c5~84~ubuntu18.04.1) date 2020-03-19 16:33:17*
%MOMM*%
%LPD*%
G04 APERTURE LIST*
%ADD10C,0.190500*%
%ADD11C,0.150000*%
%ADD12C,0.203200*%
%ADD13C,0.127000*%
%ADD14C,0.139700*%
%ADD15C,0.158750*%
%ADD16C,0.254000*%
%ADD17C,0.146050*%
%ADD18C,0.100000*%
%ADD19C,0.050000*%
%ADD20C,0.200000*%
%ADD21C,0.009000*%
G04 APERTURE END LIST*
D10*
X147474214Y-117529428D02*
X148054785Y-117529428D01*
X147764500Y-117819714D02*
X147764500Y-117239142D01*
D11*
X133731000Y-76962000D02*
X133858000Y-77216000D01*
X133731000Y-76962000D02*
X133604000Y-77216000D01*
X133731000Y-78549500D02*
X133604000Y-78676500D01*
X133731000Y-78359000D02*
X133731000Y-78549500D01*
X133731000Y-76962000D02*
X133731000Y-78359000D01*
D10*
X148744214Y-115243428D02*
X149324785Y-115243428D01*
X149034500Y-115533714D02*
X149034500Y-114953142D01*
X153316214Y-115243428D02*
X153896785Y-115243428D01*
D12*
X148844000Y-111188500D02*
G75*
G03X148844000Y-111188500I-190500J0D01*
G01*
X142621000Y-99631500D02*
G75*
G03X142621000Y-99631500I-190500J0D01*
G01*
D13*
X149654380Y-117387309D02*
X149968857Y-117387309D01*
X149799523Y-117580833D01*
X149872095Y-117580833D01*
X149920476Y-117605023D01*
X149944666Y-117629214D01*
X149968857Y-117677595D01*
X149968857Y-117798547D01*
X149944666Y-117846928D01*
X149920476Y-117871119D01*
X149872095Y-117895309D01*
X149726952Y-117895309D01*
X149678571Y-117871119D01*
X149654380Y-117846928D01*
X150186571Y-117846928D02*
X150210761Y-117871119D01*
X150186571Y-117895309D01*
X150162380Y-117871119D01*
X150186571Y-117846928D01*
X150186571Y-117895309D01*
X150380095Y-117387309D02*
X150718761Y-117387309D01*
X150501047Y-117895309D01*
X150839714Y-117387309D02*
X151009047Y-117895309D01*
X151178380Y-117387309D01*
X151976666Y-117895309D02*
X151734761Y-117895309D01*
X151734761Y-117387309D01*
X152146000Y-117895309D02*
X152146000Y-117556642D01*
X152146000Y-117387309D02*
X152121809Y-117411500D01*
X152146000Y-117435690D01*
X152170190Y-117411500D01*
X152146000Y-117387309D01*
X152146000Y-117435690D01*
X152387904Y-117556642D02*
X152387904Y-118064642D01*
X152387904Y-117580833D02*
X152436285Y-117556642D01*
X152533047Y-117556642D01*
X152581428Y-117580833D01*
X152605619Y-117605023D01*
X152629809Y-117653404D01*
X152629809Y-117798547D01*
X152605619Y-117846928D01*
X152581428Y-117871119D01*
X152533047Y-117895309D01*
X152436285Y-117895309D01*
X152387904Y-117871119D01*
X152920095Y-117895309D02*
X152871714Y-117871119D01*
X152847523Y-117846928D01*
X152823333Y-117798547D01*
X152823333Y-117653404D01*
X152847523Y-117605023D01*
X152871714Y-117580833D01*
X152920095Y-117556642D01*
X152992666Y-117556642D01*
X153041047Y-117580833D01*
X153065238Y-117605023D01*
X153089428Y-117653404D01*
X153089428Y-117798547D01*
X153065238Y-117846928D01*
X153041047Y-117871119D01*
X152992666Y-117895309D01*
X152920095Y-117895309D01*
X150331714Y-118518214D02*
X150404285Y-118542404D01*
X150428476Y-118566595D01*
X150452666Y-118614976D01*
X150452666Y-118687547D01*
X150428476Y-118735928D01*
X150404285Y-118760119D01*
X150355904Y-118784309D01*
X150162380Y-118784309D01*
X150162380Y-118276309D01*
X150331714Y-118276309D01*
X150380095Y-118300500D01*
X150404285Y-118324690D01*
X150428476Y-118373071D01*
X150428476Y-118421452D01*
X150404285Y-118469833D01*
X150380095Y-118494023D01*
X150331714Y-118518214D01*
X150162380Y-118518214D01*
X150888095Y-118784309D02*
X150888095Y-118518214D01*
X150863904Y-118469833D01*
X150815523Y-118445642D01*
X150718761Y-118445642D01*
X150670380Y-118469833D01*
X150888095Y-118760119D02*
X150839714Y-118784309D01*
X150718761Y-118784309D01*
X150670380Y-118760119D01*
X150646190Y-118711738D01*
X150646190Y-118663357D01*
X150670380Y-118614976D01*
X150718761Y-118590785D01*
X150839714Y-118590785D01*
X150888095Y-118566595D01*
X151057428Y-118445642D02*
X151250952Y-118445642D01*
X151130000Y-118276309D02*
X151130000Y-118711738D01*
X151154190Y-118760119D01*
X151202571Y-118784309D01*
X151250952Y-118784309D01*
X151347714Y-118445642D02*
X151541238Y-118445642D01*
X151420285Y-118276309D02*
X151420285Y-118711738D01*
X151444476Y-118760119D01*
X151492857Y-118784309D01*
X151541238Y-118784309D01*
X151904095Y-118760119D02*
X151855714Y-118784309D01*
X151758952Y-118784309D01*
X151710571Y-118760119D01*
X151686380Y-118711738D01*
X151686380Y-118518214D01*
X151710571Y-118469833D01*
X151758952Y-118445642D01*
X151855714Y-118445642D01*
X151904095Y-118469833D01*
X151928285Y-118518214D01*
X151928285Y-118566595D01*
X151686380Y-118614976D01*
X152146000Y-118784309D02*
X152146000Y-118445642D01*
X152146000Y-118542404D02*
X152170190Y-118494023D01*
X152194380Y-118469833D01*
X152242761Y-118445642D01*
X152291142Y-118445642D01*
X152412095Y-118445642D02*
X152533047Y-118784309D01*
X152654000Y-118445642D02*
X152533047Y-118784309D01*
X152484666Y-118905261D01*
X152460476Y-118929452D01*
X152412095Y-118953642D01*
D14*
X133221790Y-106458657D02*
X132955695Y-106644923D01*
X133221790Y-106777971D02*
X132662990Y-106777971D01*
X132662990Y-106565095D01*
X132689600Y-106511876D01*
X132716209Y-106485266D01*
X132769428Y-106458657D01*
X132849257Y-106458657D01*
X132902476Y-106485266D01*
X132929085Y-106511876D01*
X132955695Y-106565095D01*
X132955695Y-106777971D01*
X133221790Y-106139342D02*
X133195180Y-106192561D01*
X133168571Y-106219171D01*
X133115352Y-106245780D01*
X132955695Y-106245780D01*
X132902476Y-106219171D01*
X132875866Y-106192561D01*
X132849257Y-106139342D01*
X132849257Y-106059514D01*
X132875866Y-106006295D01*
X132902476Y-105979685D01*
X132955695Y-105953076D01*
X133115352Y-105953076D01*
X133168571Y-105979685D01*
X133195180Y-106006295D01*
X133221790Y-106059514D01*
X133221790Y-106139342D01*
X133221790Y-105713590D02*
X132662990Y-105713590D01*
X132929085Y-105713590D02*
X132929085Y-105394276D01*
X133221790Y-105394276D02*
X132662990Y-105394276D01*
X133195180Y-105154790D02*
X133221790Y-105074961D01*
X133221790Y-104941914D01*
X133195180Y-104888695D01*
X133168571Y-104862085D01*
X133115352Y-104835476D01*
X133062133Y-104835476D01*
X133008914Y-104862085D01*
X132982304Y-104888695D01*
X132955695Y-104941914D01*
X132929085Y-105048352D01*
X132902476Y-105101571D01*
X132875866Y-105128180D01*
X132822647Y-105154790D01*
X132769428Y-105154790D01*
X132716209Y-105128180D01*
X132689600Y-105101571D01*
X132662990Y-105048352D01*
X132662990Y-104915304D01*
X132689600Y-104835476D01*
X133168571Y-103850923D02*
X133195180Y-103877533D01*
X133221790Y-103957361D01*
X133221790Y-104010580D01*
X133195180Y-104090409D01*
X133141961Y-104143628D01*
X133088742Y-104170238D01*
X132982304Y-104196847D01*
X132902476Y-104196847D01*
X132796038Y-104170238D01*
X132742819Y-104143628D01*
X132689600Y-104090409D01*
X132662990Y-104010580D01*
X132662990Y-103957361D01*
X132689600Y-103877533D01*
X132716209Y-103850923D01*
X133221790Y-103531609D02*
X133195180Y-103584828D01*
X133168571Y-103611438D01*
X133115352Y-103638047D01*
X132955695Y-103638047D01*
X132902476Y-103611438D01*
X132875866Y-103584828D01*
X132849257Y-103531609D01*
X132849257Y-103451780D01*
X132875866Y-103398561D01*
X132902476Y-103371952D01*
X132955695Y-103345342D01*
X133115352Y-103345342D01*
X133168571Y-103371952D01*
X133195180Y-103398561D01*
X133221790Y-103451780D01*
X133221790Y-103531609D01*
X133221790Y-103105857D02*
X132849257Y-103105857D01*
X132902476Y-103105857D02*
X132875866Y-103079247D01*
X132849257Y-103026028D01*
X132849257Y-102946200D01*
X132875866Y-102892980D01*
X132929085Y-102866371D01*
X133221790Y-102866371D01*
X132929085Y-102866371D02*
X132875866Y-102839761D01*
X132849257Y-102786542D01*
X132849257Y-102706714D01*
X132875866Y-102653495D01*
X132929085Y-102626885D01*
X133221790Y-102626885D01*
X132849257Y-102360790D02*
X133408057Y-102360790D01*
X132875866Y-102360790D02*
X132849257Y-102307571D01*
X132849257Y-102201133D01*
X132875866Y-102147914D01*
X132902476Y-102121304D01*
X132955695Y-102094695D01*
X133115352Y-102094695D01*
X133168571Y-102121304D01*
X133195180Y-102147914D01*
X133221790Y-102201133D01*
X133221790Y-102307571D01*
X133195180Y-102360790D01*
X133221790Y-101775380D02*
X133195180Y-101828600D01*
X133141961Y-101855209D01*
X132662990Y-101855209D01*
X133221790Y-101562504D02*
X132849257Y-101562504D01*
X132662990Y-101562504D02*
X132689600Y-101589114D01*
X132716209Y-101562504D01*
X132689600Y-101535895D01*
X132662990Y-101562504D01*
X132716209Y-101562504D01*
X133221790Y-101056923D02*
X132929085Y-101056923D01*
X132875866Y-101083533D01*
X132849257Y-101136752D01*
X132849257Y-101243190D01*
X132875866Y-101296409D01*
X133195180Y-101056923D02*
X133221790Y-101110142D01*
X133221790Y-101243190D01*
X133195180Y-101296409D01*
X133141961Y-101323019D01*
X133088742Y-101323019D01*
X133035523Y-101296409D01*
X133008914Y-101243190D01*
X133008914Y-101110142D01*
X132982304Y-101056923D01*
X132849257Y-100790828D02*
X133221790Y-100790828D01*
X132902476Y-100790828D02*
X132875866Y-100764219D01*
X132849257Y-100711000D01*
X132849257Y-100631171D01*
X132875866Y-100577952D01*
X132929085Y-100551342D01*
X133221790Y-100551342D01*
X132849257Y-100365076D02*
X132849257Y-100152200D01*
X132662990Y-100285247D02*
X133141961Y-100285247D01*
X133195180Y-100258638D01*
X133221790Y-100205419D01*
X133221790Y-100152200D01*
D15*
X136189357Y-97505761D02*
X136189357Y-96870761D01*
X136431261Y-96870761D01*
X136491738Y-96901000D01*
X136521976Y-96931238D01*
X136552214Y-96991714D01*
X136552214Y-97082428D01*
X136521976Y-97142904D01*
X136491738Y-97173142D01*
X136431261Y-97203380D01*
X136189357Y-97203380D01*
X136824357Y-97505761D02*
X136824357Y-96870761D01*
X136824357Y-97112666D02*
X136884833Y-97082428D01*
X137005785Y-97082428D01*
X137066261Y-97112666D01*
X137096500Y-97142904D01*
X137126738Y-97203380D01*
X137126738Y-97384809D01*
X137096500Y-97445285D01*
X137066261Y-97475523D01*
X137005785Y-97505761D01*
X136884833Y-97505761D01*
X136824357Y-97475523D01*
X137398880Y-97263857D02*
X137882690Y-97263857D01*
X138396738Y-97173142D02*
X138185071Y-97173142D01*
X138185071Y-97505761D02*
X138185071Y-96870761D01*
X138487452Y-96870761D01*
X138729357Y-97505761D02*
X138729357Y-97082428D01*
X138729357Y-97203380D02*
X138759595Y-97142904D01*
X138789833Y-97112666D01*
X138850309Y-97082428D01*
X138910785Y-97082428D01*
X139364357Y-97475523D02*
X139303880Y-97505761D01*
X139182928Y-97505761D01*
X139122452Y-97475523D01*
X139092214Y-97415047D01*
X139092214Y-97173142D01*
X139122452Y-97112666D01*
X139182928Y-97082428D01*
X139303880Y-97082428D01*
X139364357Y-97112666D01*
X139394595Y-97173142D01*
X139394595Y-97233619D01*
X139092214Y-97294095D01*
X139908642Y-97475523D02*
X139848166Y-97505761D01*
X139727214Y-97505761D01*
X139666738Y-97475523D01*
X139636500Y-97415047D01*
X139636500Y-97173142D01*
X139666738Y-97112666D01*
X139727214Y-97082428D01*
X139848166Y-97082428D01*
X139908642Y-97112666D01*
X139938880Y-97173142D01*
X139938880Y-97233619D01*
X139636500Y-97294095D01*
D16*
X153851428Y-96822380D02*
X153851428Y-96483714D01*
X154383619Y-96338571D02*
X154383619Y-96822380D01*
X153367619Y-96822380D01*
X153367619Y-96338571D01*
X153367619Y-95999904D02*
X154383619Y-95322571D01*
X153367619Y-95322571D02*
X154383619Y-95999904D01*
X153367619Y-95080666D02*
X153367619Y-94500095D01*
X154383619Y-94790380D02*
X153367619Y-94790380D01*
X153464380Y-94209809D02*
X153416000Y-94161428D01*
X153367619Y-94064666D01*
X153367619Y-93822761D01*
X153416000Y-93726000D01*
X153464380Y-93677619D01*
X153561142Y-93629238D01*
X153657904Y-93629238D01*
X153803047Y-93677619D01*
X154383619Y-94258190D01*
X154383619Y-93629238D01*
X133150428Y-96822380D02*
X133150428Y-96483714D01*
X133682619Y-96338571D02*
X133682619Y-96822380D01*
X132666619Y-96822380D01*
X132666619Y-96338571D01*
X132666619Y-95999904D02*
X133682619Y-95322571D01*
X132666619Y-95322571D02*
X133682619Y-95999904D01*
X132666619Y-95080666D02*
X132666619Y-94500095D01*
X133682619Y-94790380D02*
X132666619Y-94790380D01*
X133682619Y-93629238D02*
X133682619Y-94209809D01*
X133682619Y-93919523D02*
X132666619Y-93919523D01*
X132811761Y-94016285D01*
X132908523Y-94113047D01*
X132956904Y-94209809D01*
D13*
X153981452Y-73088500D02*
X153933071Y-73064309D01*
X153860500Y-73064309D01*
X153787928Y-73088500D01*
X153739547Y-73136880D01*
X153715357Y-73185261D01*
X153691166Y-73282023D01*
X153691166Y-73354595D01*
X153715357Y-73451357D01*
X153739547Y-73499738D01*
X153787928Y-73548119D01*
X153860500Y-73572309D01*
X153908880Y-73572309D01*
X153981452Y-73548119D01*
X154005642Y-73523928D01*
X154005642Y-73354595D01*
X153908880Y-73354595D01*
X154223357Y-73572309D02*
X154223357Y-73064309D01*
X154513642Y-73572309D01*
X154513642Y-73064309D01*
X154755547Y-73572309D02*
X154755547Y-73064309D01*
X154876500Y-73064309D01*
X154949071Y-73088500D01*
X154997452Y-73136880D01*
X155021642Y-73185261D01*
X155045833Y-73282023D01*
X155045833Y-73354595D01*
X155021642Y-73451357D01*
X154997452Y-73499738D01*
X154949071Y-73548119D01*
X154876500Y-73572309D01*
X154755547Y-73572309D01*
X154686000Y-118923404D02*
X154661809Y-118971785D01*
X154661809Y-119044357D01*
X154686000Y-119116928D01*
X154734380Y-119165309D01*
X154782761Y-119189500D01*
X154879523Y-119213690D01*
X154952095Y-119213690D01*
X155048857Y-119189500D01*
X155097238Y-119165309D01*
X155145619Y-119116928D01*
X155169809Y-119044357D01*
X155169809Y-118995976D01*
X155145619Y-118923404D01*
X155121428Y-118899214D01*
X154952095Y-118899214D01*
X154952095Y-118995976D01*
X155169809Y-118681500D02*
X154661809Y-118681500D01*
X154661809Y-118487976D01*
X154686000Y-118439595D01*
X154710190Y-118415404D01*
X154758571Y-118391214D01*
X154831142Y-118391214D01*
X154879523Y-118415404D01*
X154903714Y-118439595D01*
X154927904Y-118487976D01*
X154927904Y-118681500D01*
X155169809Y-118173500D02*
X154661809Y-118173500D01*
X154661809Y-117834833D02*
X154661809Y-117738071D01*
X154686000Y-117689690D01*
X154734380Y-117641309D01*
X154831142Y-117617119D01*
X155000476Y-117617119D01*
X155097238Y-117641309D01*
X155145619Y-117689690D01*
X155169809Y-117738071D01*
X155169809Y-117834833D01*
X155145619Y-117883214D01*
X155097238Y-117931595D01*
X155000476Y-117955785D01*
X154831142Y-117955785D01*
X154734380Y-117931595D01*
X154686000Y-117883214D01*
X154661809Y-117834833D01*
X154661809Y-117181690D02*
X154661809Y-117278452D01*
X154686000Y-117326833D01*
X154710190Y-117351023D01*
X154782761Y-117399404D01*
X154879523Y-117423595D01*
X155073047Y-117423595D01*
X155121428Y-117399404D01*
X155145619Y-117375214D01*
X155169809Y-117326833D01*
X155169809Y-117230071D01*
X155145619Y-117181690D01*
X155121428Y-117157500D01*
X155073047Y-117133309D01*
X154952095Y-117133309D01*
X154903714Y-117157500D01*
X154879523Y-117181690D01*
X154855333Y-117230071D01*
X154855333Y-117326833D01*
X154879523Y-117375214D01*
X154903714Y-117399404D01*
X154952095Y-117423595D01*
X155460095Y-116611400D02*
X155411714Y-116587209D01*
X155339142Y-116587209D01*
X155266571Y-116611400D01*
X155218190Y-116659780D01*
X155194000Y-116708161D01*
X155169809Y-116804923D01*
X155169809Y-116877495D01*
X155194000Y-116974257D01*
X155218190Y-117022638D01*
X155266571Y-117071019D01*
X155339142Y-117095209D01*
X155387523Y-117095209D01*
X155460095Y-117071019D01*
X155484285Y-117046828D01*
X155484285Y-116877495D01*
X155387523Y-116877495D01*
X155702000Y-117095209D02*
X155702000Y-116587209D01*
X155895523Y-116587209D01*
X155943904Y-116611400D01*
X155968095Y-116635590D01*
X155992285Y-116683971D01*
X155992285Y-116756542D01*
X155968095Y-116804923D01*
X155943904Y-116829114D01*
X155895523Y-116853304D01*
X155702000Y-116853304D01*
X156210000Y-117095209D02*
X156210000Y-116587209D01*
X156548666Y-116587209D02*
X156645428Y-116587209D01*
X156693809Y-116611400D01*
X156742190Y-116659780D01*
X156766380Y-116756542D01*
X156766380Y-116925876D01*
X156742190Y-117022638D01*
X156693809Y-117071019D01*
X156645428Y-117095209D01*
X156548666Y-117095209D01*
X156500285Y-117071019D01*
X156451904Y-117022638D01*
X156427714Y-116925876D01*
X156427714Y-116756542D01*
X156451904Y-116659780D01*
X156500285Y-116611400D01*
X156548666Y-116587209D01*
X156935714Y-116587209D02*
X157274380Y-116587209D01*
X157056666Y-117095209D01*
X155460095Y-114071400D02*
X155411714Y-114047209D01*
X155339142Y-114047209D01*
X155266571Y-114071400D01*
X155218190Y-114119780D01*
X155194000Y-114168161D01*
X155169809Y-114264923D01*
X155169809Y-114337495D01*
X155194000Y-114434257D01*
X155218190Y-114482638D01*
X155266571Y-114531019D01*
X155339142Y-114555209D01*
X155387523Y-114555209D01*
X155460095Y-114531019D01*
X155484285Y-114506828D01*
X155484285Y-114337495D01*
X155387523Y-114337495D01*
X155702000Y-114555209D02*
X155702000Y-114047209D01*
X155895523Y-114047209D01*
X155943904Y-114071400D01*
X155968095Y-114095590D01*
X155992285Y-114143971D01*
X155992285Y-114216542D01*
X155968095Y-114264923D01*
X155943904Y-114289114D01*
X155895523Y-114313304D01*
X155702000Y-114313304D01*
X156210000Y-114555209D02*
X156210000Y-114047209D01*
X156548666Y-114047209D02*
X156645428Y-114047209D01*
X156693809Y-114071400D01*
X156742190Y-114119780D01*
X156766380Y-114216542D01*
X156766380Y-114385876D01*
X156742190Y-114482638D01*
X156693809Y-114531019D01*
X156645428Y-114555209D01*
X156548666Y-114555209D01*
X156500285Y-114531019D01*
X156451904Y-114482638D01*
X156427714Y-114385876D01*
X156427714Y-114216542D01*
X156451904Y-114119780D01*
X156500285Y-114071400D01*
X156548666Y-114047209D01*
X157056666Y-114264923D02*
X157008285Y-114240733D01*
X156984095Y-114216542D01*
X156959904Y-114168161D01*
X156959904Y-114143971D01*
X156984095Y-114095590D01*
X157008285Y-114071400D01*
X157056666Y-114047209D01*
X157153428Y-114047209D01*
X157201809Y-114071400D01*
X157226000Y-114095590D01*
X157250190Y-114143971D01*
X157250190Y-114168161D01*
X157226000Y-114216542D01*
X157201809Y-114240733D01*
X157153428Y-114264923D01*
X157056666Y-114264923D01*
X157008285Y-114289114D01*
X156984095Y-114313304D01*
X156959904Y-114361685D01*
X156959904Y-114458447D01*
X156984095Y-114506828D01*
X157008285Y-114531019D01*
X157056666Y-114555209D01*
X157153428Y-114555209D01*
X157201809Y-114531019D01*
X157226000Y-114506828D01*
X157250190Y-114458447D01*
X157250190Y-114361685D01*
X157226000Y-114313304D01*
X157201809Y-114289114D01*
X157153428Y-114264923D01*
X154964190Y-111506000D02*
X154915809Y-111481809D01*
X154843238Y-111481809D01*
X154770666Y-111506000D01*
X154722285Y-111554380D01*
X154698095Y-111602761D01*
X154673904Y-111699523D01*
X154673904Y-111772095D01*
X154698095Y-111868857D01*
X154722285Y-111917238D01*
X154770666Y-111965619D01*
X154843238Y-111989809D01*
X154891619Y-111989809D01*
X154964190Y-111965619D01*
X154988380Y-111941428D01*
X154988380Y-111772095D01*
X154891619Y-111772095D01*
X155206095Y-111989809D02*
X155206095Y-111481809D01*
X155399619Y-111481809D01*
X155448000Y-111506000D01*
X155472190Y-111530190D01*
X155496380Y-111578571D01*
X155496380Y-111651142D01*
X155472190Y-111699523D01*
X155448000Y-111723714D01*
X155399619Y-111747904D01*
X155206095Y-111747904D01*
X155714095Y-111989809D02*
X155714095Y-111481809D01*
X156052761Y-111481809D02*
X156149523Y-111481809D01*
X156197904Y-111506000D01*
X156246285Y-111554380D01*
X156270476Y-111651142D01*
X156270476Y-111820476D01*
X156246285Y-111917238D01*
X156197904Y-111965619D01*
X156149523Y-111989809D01*
X156052761Y-111989809D01*
X156004380Y-111965619D01*
X155956000Y-111917238D01*
X155931809Y-111820476D01*
X155931809Y-111651142D01*
X155956000Y-111554380D01*
X156004380Y-111506000D01*
X156052761Y-111481809D01*
X156754285Y-111989809D02*
X156464000Y-111989809D01*
X156609142Y-111989809D02*
X156609142Y-111481809D01*
X156560761Y-111554380D01*
X156512380Y-111602761D01*
X156464000Y-111626952D01*
X157213904Y-111481809D02*
X156972000Y-111481809D01*
X156947809Y-111723714D01*
X156972000Y-111699523D01*
X157020380Y-111675333D01*
X157141333Y-111675333D01*
X157189714Y-111699523D01*
X157213904Y-111723714D01*
X157238095Y-111772095D01*
X157238095Y-111893047D01*
X157213904Y-111941428D01*
X157189714Y-111965619D01*
X157141333Y-111989809D01*
X157020380Y-111989809D01*
X156972000Y-111965619D01*
X156947809Y-111941428D01*
X155460095Y-108966000D02*
X155411714Y-108941809D01*
X155339142Y-108941809D01*
X155266571Y-108966000D01*
X155218190Y-109014380D01*
X155194000Y-109062761D01*
X155169809Y-109159523D01*
X155169809Y-109232095D01*
X155194000Y-109328857D01*
X155218190Y-109377238D01*
X155266571Y-109425619D01*
X155339142Y-109449809D01*
X155387523Y-109449809D01*
X155460095Y-109425619D01*
X155484285Y-109401428D01*
X155484285Y-109232095D01*
X155387523Y-109232095D01*
X155702000Y-109449809D02*
X155702000Y-108941809D01*
X155895523Y-108941809D01*
X155943904Y-108966000D01*
X155968095Y-108990190D01*
X155992285Y-109038571D01*
X155992285Y-109111142D01*
X155968095Y-109159523D01*
X155943904Y-109183714D01*
X155895523Y-109207904D01*
X155702000Y-109207904D01*
X156210000Y-109449809D02*
X156210000Y-108941809D01*
X156548666Y-108941809D02*
X156645428Y-108941809D01*
X156693809Y-108966000D01*
X156742190Y-109014380D01*
X156766380Y-109111142D01*
X156766380Y-109280476D01*
X156742190Y-109377238D01*
X156693809Y-109425619D01*
X156645428Y-109449809D01*
X156548666Y-109449809D01*
X156500285Y-109425619D01*
X156451904Y-109377238D01*
X156427714Y-109280476D01*
X156427714Y-109111142D01*
X156451904Y-109014380D01*
X156500285Y-108966000D01*
X156548666Y-108941809D01*
X156959904Y-108990190D02*
X156984095Y-108966000D01*
X157032476Y-108941809D01*
X157153428Y-108941809D01*
X157201809Y-108966000D01*
X157226000Y-108990190D01*
X157250190Y-109038571D01*
X157250190Y-109086952D01*
X157226000Y-109159523D01*
X156935714Y-109449809D01*
X157250190Y-109449809D01*
X155460095Y-106426000D02*
X155411714Y-106401809D01*
X155339142Y-106401809D01*
X155266571Y-106426000D01*
X155218190Y-106474380D01*
X155194000Y-106522761D01*
X155169809Y-106619523D01*
X155169809Y-106692095D01*
X155194000Y-106788857D01*
X155218190Y-106837238D01*
X155266571Y-106885619D01*
X155339142Y-106909809D01*
X155387523Y-106909809D01*
X155460095Y-106885619D01*
X155484285Y-106861428D01*
X155484285Y-106692095D01*
X155387523Y-106692095D01*
X155702000Y-106909809D02*
X155702000Y-106401809D01*
X155895523Y-106401809D01*
X155943904Y-106426000D01*
X155968095Y-106450190D01*
X155992285Y-106498571D01*
X155992285Y-106571142D01*
X155968095Y-106619523D01*
X155943904Y-106643714D01*
X155895523Y-106667904D01*
X155702000Y-106667904D01*
X156210000Y-106909809D02*
X156210000Y-106401809D01*
X156548666Y-106401809D02*
X156645428Y-106401809D01*
X156693809Y-106426000D01*
X156742190Y-106474380D01*
X156766380Y-106571142D01*
X156766380Y-106740476D01*
X156742190Y-106837238D01*
X156693809Y-106885619D01*
X156645428Y-106909809D01*
X156548666Y-106909809D01*
X156500285Y-106885619D01*
X156451904Y-106837238D01*
X156427714Y-106740476D01*
X156427714Y-106571142D01*
X156451904Y-106474380D01*
X156500285Y-106426000D01*
X156548666Y-106401809D01*
X157080857Y-106401809D02*
X157129238Y-106401809D01*
X157177619Y-106426000D01*
X157201809Y-106450190D01*
X157226000Y-106498571D01*
X157250190Y-106595333D01*
X157250190Y-106716285D01*
X157226000Y-106813047D01*
X157201809Y-106861428D01*
X157177619Y-106885619D01*
X157129238Y-106909809D01*
X157080857Y-106909809D01*
X157032476Y-106885619D01*
X157008285Y-106861428D01*
X156984095Y-106813047D01*
X156959904Y-106716285D01*
X156959904Y-106595333D01*
X156984095Y-106498571D01*
X157008285Y-106450190D01*
X157032476Y-106426000D01*
X157080857Y-106401809D01*
X155460095Y-103886000D02*
X155411714Y-103861809D01*
X155339142Y-103861809D01*
X155266571Y-103886000D01*
X155218190Y-103934380D01*
X155194000Y-103982761D01*
X155169809Y-104079523D01*
X155169809Y-104152095D01*
X155194000Y-104248857D01*
X155218190Y-104297238D01*
X155266571Y-104345619D01*
X155339142Y-104369809D01*
X155387523Y-104369809D01*
X155460095Y-104345619D01*
X155484285Y-104321428D01*
X155484285Y-104152095D01*
X155387523Y-104152095D01*
X155702000Y-104369809D02*
X155702000Y-103861809D01*
X155895523Y-103861809D01*
X155943904Y-103886000D01*
X155968095Y-103910190D01*
X155992285Y-103958571D01*
X155992285Y-104031142D01*
X155968095Y-104079523D01*
X155943904Y-104103714D01*
X155895523Y-104127904D01*
X155702000Y-104127904D01*
X156210000Y-104369809D02*
X156210000Y-103861809D01*
X156548666Y-103861809D02*
X156645428Y-103861809D01*
X156693809Y-103886000D01*
X156742190Y-103934380D01*
X156766380Y-104031142D01*
X156766380Y-104200476D01*
X156742190Y-104297238D01*
X156693809Y-104345619D01*
X156645428Y-104369809D01*
X156548666Y-104369809D01*
X156500285Y-104345619D01*
X156451904Y-104297238D01*
X156427714Y-104200476D01*
X156427714Y-104031142D01*
X156451904Y-103934380D01*
X156500285Y-103886000D01*
X156548666Y-103861809D01*
X157201809Y-104031142D02*
X157201809Y-104369809D01*
X157080857Y-103837619D02*
X156959904Y-104200476D01*
X157274380Y-104200476D01*
X154964190Y-101346000D02*
X154915809Y-101321809D01*
X154843238Y-101321809D01*
X154770666Y-101346000D01*
X154722285Y-101394380D01*
X154698095Y-101442761D01*
X154673904Y-101539523D01*
X154673904Y-101612095D01*
X154698095Y-101708857D01*
X154722285Y-101757238D01*
X154770666Y-101805619D01*
X154843238Y-101829809D01*
X154891619Y-101829809D01*
X154964190Y-101805619D01*
X154988380Y-101781428D01*
X154988380Y-101612095D01*
X154891619Y-101612095D01*
X155206095Y-101829809D02*
X155206095Y-101321809D01*
X155399619Y-101321809D01*
X155448000Y-101346000D01*
X155472190Y-101370190D01*
X155496380Y-101418571D01*
X155496380Y-101491142D01*
X155472190Y-101539523D01*
X155448000Y-101563714D01*
X155399619Y-101587904D01*
X155206095Y-101587904D01*
X155714095Y-101829809D02*
X155714095Y-101321809D01*
X156052761Y-101321809D02*
X156149523Y-101321809D01*
X156197904Y-101346000D01*
X156246285Y-101394380D01*
X156270476Y-101491142D01*
X156270476Y-101660476D01*
X156246285Y-101757238D01*
X156197904Y-101805619D01*
X156149523Y-101829809D01*
X156052761Y-101829809D01*
X156004380Y-101805619D01*
X155956000Y-101757238D01*
X155931809Y-101660476D01*
X155931809Y-101491142D01*
X155956000Y-101394380D01*
X156004380Y-101346000D01*
X156052761Y-101321809D01*
X156754285Y-101829809D02*
X156464000Y-101829809D01*
X156609142Y-101829809D02*
X156609142Y-101321809D01*
X156560761Y-101394380D01*
X156512380Y-101442761D01*
X156464000Y-101466952D01*
X157189714Y-101321809D02*
X157092952Y-101321809D01*
X157044571Y-101346000D01*
X157020380Y-101370190D01*
X156972000Y-101442761D01*
X156947809Y-101539523D01*
X156947809Y-101733047D01*
X156972000Y-101781428D01*
X156996190Y-101805619D01*
X157044571Y-101829809D01*
X157141333Y-101829809D01*
X157189714Y-101805619D01*
X157213904Y-101781428D01*
X157238095Y-101733047D01*
X157238095Y-101612095D01*
X157213904Y-101563714D01*
X157189714Y-101539523D01*
X157141333Y-101515333D01*
X157044571Y-101515333D01*
X156996190Y-101539523D01*
X156972000Y-101563714D01*
X156947809Y-101612095D01*
X154964190Y-98806000D02*
X154915809Y-98781809D01*
X154843238Y-98781809D01*
X154770666Y-98806000D01*
X154722285Y-98854380D01*
X154698095Y-98902761D01*
X154673904Y-98999523D01*
X154673904Y-99072095D01*
X154698095Y-99168857D01*
X154722285Y-99217238D01*
X154770666Y-99265619D01*
X154843238Y-99289809D01*
X154891619Y-99289809D01*
X154964190Y-99265619D01*
X154988380Y-99241428D01*
X154988380Y-99072095D01*
X154891619Y-99072095D01*
X155206095Y-99289809D02*
X155206095Y-98781809D01*
X155399619Y-98781809D01*
X155448000Y-98806000D01*
X155472190Y-98830190D01*
X155496380Y-98878571D01*
X155496380Y-98951142D01*
X155472190Y-98999523D01*
X155448000Y-99023714D01*
X155399619Y-99047904D01*
X155206095Y-99047904D01*
X155714095Y-99289809D02*
X155714095Y-98781809D01*
X156052761Y-98781809D02*
X156149523Y-98781809D01*
X156197904Y-98806000D01*
X156246285Y-98854380D01*
X156270476Y-98951142D01*
X156270476Y-99120476D01*
X156246285Y-99217238D01*
X156197904Y-99265619D01*
X156149523Y-99289809D01*
X156052761Y-99289809D01*
X156004380Y-99265619D01*
X155956000Y-99217238D01*
X155931809Y-99120476D01*
X155931809Y-98951142D01*
X155956000Y-98854380D01*
X156004380Y-98806000D01*
X156052761Y-98781809D01*
X156754285Y-99289809D02*
X156464000Y-99289809D01*
X156609142Y-99289809D02*
X156609142Y-98781809D01*
X156560761Y-98854380D01*
X156512380Y-98902761D01*
X156464000Y-98926952D01*
X156923619Y-98781809D02*
X157262285Y-98781809D01*
X157044571Y-99289809D01*
X155460095Y-96266000D02*
X155411714Y-96241809D01*
X155339142Y-96241809D01*
X155266571Y-96266000D01*
X155218190Y-96314380D01*
X155194000Y-96362761D01*
X155169809Y-96459523D01*
X155169809Y-96532095D01*
X155194000Y-96628857D01*
X155218190Y-96677238D01*
X155266571Y-96725619D01*
X155339142Y-96749809D01*
X155387523Y-96749809D01*
X155460095Y-96725619D01*
X155484285Y-96701428D01*
X155484285Y-96532095D01*
X155387523Y-96532095D01*
X155702000Y-96749809D02*
X155702000Y-96241809D01*
X155895523Y-96241809D01*
X155943904Y-96266000D01*
X155968095Y-96290190D01*
X155992285Y-96338571D01*
X155992285Y-96411142D01*
X155968095Y-96459523D01*
X155943904Y-96483714D01*
X155895523Y-96507904D01*
X155702000Y-96507904D01*
X156210000Y-96749809D02*
X156210000Y-96241809D01*
X156548666Y-96241809D02*
X156645428Y-96241809D01*
X156693809Y-96266000D01*
X156742190Y-96314380D01*
X156766380Y-96411142D01*
X156766380Y-96580476D01*
X156742190Y-96677238D01*
X156693809Y-96725619D01*
X156645428Y-96749809D01*
X156548666Y-96749809D01*
X156500285Y-96725619D01*
X156451904Y-96677238D01*
X156427714Y-96580476D01*
X156427714Y-96411142D01*
X156451904Y-96314380D01*
X156500285Y-96266000D01*
X156548666Y-96241809D01*
X157226000Y-96241809D02*
X156984095Y-96241809D01*
X156959904Y-96483714D01*
X156984095Y-96459523D01*
X157032476Y-96435333D01*
X157153428Y-96435333D01*
X157201809Y-96459523D01*
X157226000Y-96483714D01*
X157250190Y-96532095D01*
X157250190Y-96653047D01*
X157226000Y-96701428D01*
X157201809Y-96725619D01*
X157153428Y-96749809D01*
X157032476Y-96749809D01*
X156984095Y-96725619D01*
X156959904Y-96701428D01*
X154964190Y-93726000D02*
X154915809Y-93701809D01*
X154843238Y-93701809D01*
X154770666Y-93726000D01*
X154722285Y-93774380D01*
X154698095Y-93822761D01*
X154673904Y-93919523D01*
X154673904Y-93992095D01*
X154698095Y-94088857D01*
X154722285Y-94137238D01*
X154770666Y-94185619D01*
X154843238Y-94209809D01*
X154891619Y-94209809D01*
X154964190Y-94185619D01*
X154988380Y-94161428D01*
X154988380Y-93992095D01*
X154891619Y-93992095D01*
X155206095Y-94209809D02*
X155206095Y-93701809D01*
X155399619Y-93701809D01*
X155448000Y-93726000D01*
X155472190Y-93750190D01*
X155496380Y-93798571D01*
X155496380Y-93871142D01*
X155472190Y-93919523D01*
X155448000Y-93943714D01*
X155399619Y-93967904D01*
X155206095Y-93967904D01*
X155714095Y-94209809D02*
X155714095Y-93701809D01*
X156052761Y-93701809D02*
X156149523Y-93701809D01*
X156197904Y-93726000D01*
X156246285Y-93774380D01*
X156270476Y-93871142D01*
X156270476Y-94040476D01*
X156246285Y-94137238D01*
X156197904Y-94185619D01*
X156149523Y-94209809D01*
X156052761Y-94209809D01*
X156004380Y-94185619D01*
X155956000Y-94137238D01*
X155931809Y-94040476D01*
X155931809Y-93871142D01*
X155956000Y-93774380D01*
X156004380Y-93726000D01*
X156052761Y-93701809D01*
X156754285Y-94209809D02*
X156464000Y-94209809D01*
X156609142Y-94209809D02*
X156609142Y-93701809D01*
X156560761Y-93774380D01*
X156512380Y-93822761D01*
X156464000Y-93846952D01*
X157044571Y-93919523D02*
X156996190Y-93895333D01*
X156972000Y-93871142D01*
X156947809Y-93822761D01*
X156947809Y-93798571D01*
X156972000Y-93750190D01*
X156996190Y-93726000D01*
X157044571Y-93701809D01*
X157141333Y-93701809D01*
X157189714Y-93726000D01*
X157213904Y-93750190D01*
X157238095Y-93798571D01*
X157238095Y-93822761D01*
X157213904Y-93871142D01*
X157189714Y-93895333D01*
X157141333Y-93919523D01*
X157044571Y-93919523D01*
X156996190Y-93943714D01*
X156972000Y-93967904D01*
X156947809Y-94016285D01*
X156947809Y-94113047D01*
X156972000Y-94161428D01*
X156996190Y-94185619D01*
X157044571Y-94209809D01*
X157141333Y-94209809D01*
X157189714Y-94185619D01*
X157213904Y-94161428D01*
X157238095Y-94113047D01*
X157238095Y-94016285D01*
X157213904Y-93967904D01*
X157189714Y-93943714D01*
X157141333Y-93919523D01*
X154964190Y-91186000D02*
X154915809Y-91161809D01*
X154843238Y-91161809D01*
X154770666Y-91186000D01*
X154722285Y-91234380D01*
X154698095Y-91282761D01*
X154673904Y-91379523D01*
X154673904Y-91452095D01*
X154698095Y-91548857D01*
X154722285Y-91597238D01*
X154770666Y-91645619D01*
X154843238Y-91669809D01*
X154891619Y-91669809D01*
X154964190Y-91645619D01*
X154988380Y-91621428D01*
X154988380Y-91452095D01*
X154891619Y-91452095D01*
X155206095Y-91669809D02*
X155206095Y-91161809D01*
X155399619Y-91161809D01*
X155448000Y-91186000D01*
X155472190Y-91210190D01*
X155496380Y-91258571D01*
X155496380Y-91331142D01*
X155472190Y-91379523D01*
X155448000Y-91403714D01*
X155399619Y-91427904D01*
X155206095Y-91427904D01*
X155714095Y-91669809D02*
X155714095Y-91161809D01*
X156052761Y-91161809D02*
X156149523Y-91161809D01*
X156197904Y-91186000D01*
X156246285Y-91234380D01*
X156270476Y-91331142D01*
X156270476Y-91500476D01*
X156246285Y-91597238D01*
X156197904Y-91645619D01*
X156149523Y-91669809D01*
X156052761Y-91669809D01*
X156004380Y-91645619D01*
X155956000Y-91597238D01*
X155931809Y-91500476D01*
X155931809Y-91331142D01*
X155956000Y-91234380D01*
X156004380Y-91186000D01*
X156052761Y-91161809D01*
X156754285Y-91669809D02*
X156464000Y-91669809D01*
X156609142Y-91669809D02*
X156609142Y-91161809D01*
X156560761Y-91234380D01*
X156512380Y-91282761D01*
X156464000Y-91306952D01*
X156996190Y-91669809D02*
X157092952Y-91669809D01*
X157141333Y-91645619D01*
X157165523Y-91621428D01*
X157213904Y-91548857D01*
X157238095Y-91452095D01*
X157238095Y-91258571D01*
X157213904Y-91210190D01*
X157189714Y-91186000D01*
X157141333Y-91161809D01*
X157044571Y-91161809D01*
X156996190Y-91186000D01*
X156972000Y-91210190D01*
X156947809Y-91258571D01*
X156947809Y-91379523D01*
X156972000Y-91427904D01*
X156996190Y-91452095D01*
X157044571Y-91476285D01*
X157141333Y-91476285D01*
X157189714Y-91452095D01*
X157213904Y-91427904D01*
X157238095Y-91379523D01*
X155822952Y-88646000D02*
X155774571Y-88621809D01*
X155702000Y-88621809D01*
X155629428Y-88646000D01*
X155581047Y-88694380D01*
X155556857Y-88742761D01*
X155532666Y-88839523D01*
X155532666Y-88912095D01*
X155556857Y-89008857D01*
X155581047Y-89057238D01*
X155629428Y-89105619D01*
X155702000Y-89129809D01*
X155750380Y-89129809D01*
X155822952Y-89105619D01*
X155847142Y-89081428D01*
X155847142Y-88912095D01*
X155750380Y-88912095D01*
X156064857Y-89129809D02*
X156064857Y-88621809D01*
X156355142Y-89129809D01*
X156355142Y-88621809D01*
X156597047Y-89129809D02*
X156597047Y-88621809D01*
X156718000Y-88621809D01*
X156790571Y-88646000D01*
X156838952Y-88694380D01*
X156863142Y-88742761D01*
X156887333Y-88839523D01*
X156887333Y-88912095D01*
X156863142Y-89008857D01*
X156838952Y-89057238D01*
X156790571Y-89105619D01*
X156718000Y-89129809D01*
X156597047Y-89129809D01*
X154964190Y-86106000D02*
X154915809Y-86081809D01*
X154843238Y-86081809D01*
X154770666Y-86106000D01*
X154722285Y-86154380D01*
X154698095Y-86202761D01*
X154673904Y-86299523D01*
X154673904Y-86372095D01*
X154698095Y-86468857D01*
X154722285Y-86517238D01*
X154770666Y-86565619D01*
X154843238Y-86589809D01*
X154891619Y-86589809D01*
X154964190Y-86565619D01*
X154988380Y-86541428D01*
X154988380Y-86372095D01*
X154891619Y-86372095D01*
X155206095Y-86589809D02*
X155206095Y-86081809D01*
X155399619Y-86081809D01*
X155448000Y-86106000D01*
X155472190Y-86130190D01*
X155496380Y-86178571D01*
X155496380Y-86251142D01*
X155472190Y-86299523D01*
X155448000Y-86323714D01*
X155399619Y-86347904D01*
X155206095Y-86347904D01*
X155714095Y-86589809D02*
X155714095Y-86081809D01*
X156052761Y-86081809D02*
X156149523Y-86081809D01*
X156197904Y-86106000D01*
X156246285Y-86154380D01*
X156270476Y-86251142D01*
X156270476Y-86420476D01*
X156246285Y-86517238D01*
X156197904Y-86565619D01*
X156149523Y-86589809D01*
X156052761Y-86589809D01*
X156004380Y-86565619D01*
X155956000Y-86517238D01*
X155931809Y-86420476D01*
X155931809Y-86251142D01*
X155956000Y-86154380D01*
X156004380Y-86106000D01*
X156052761Y-86081809D01*
X156464000Y-86130190D02*
X156488190Y-86106000D01*
X156536571Y-86081809D01*
X156657523Y-86081809D01*
X156705904Y-86106000D01*
X156730095Y-86130190D01*
X156754285Y-86178571D01*
X156754285Y-86226952D01*
X156730095Y-86299523D01*
X156439809Y-86589809D01*
X156754285Y-86589809D01*
X157238095Y-86589809D02*
X156947809Y-86589809D01*
X157092952Y-86589809D02*
X157092952Y-86081809D01*
X157044571Y-86154380D01*
X156996190Y-86202761D01*
X156947809Y-86226952D01*
X155460095Y-83591400D02*
X155411714Y-83567209D01*
X155339142Y-83567209D01*
X155266571Y-83591400D01*
X155218190Y-83639780D01*
X155194000Y-83688161D01*
X155169809Y-83784923D01*
X155169809Y-83857495D01*
X155194000Y-83954257D01*
X155218190Y-84002638D01*
X155266571Y-84051019D01*
X155339142Y-84075209D01*
X155387523Y-84075209D01*
X155460095Y-84051019D01*
X155484285Y-84026828D01*
X155484285Y-83857495D01*
X155387523Y-83857495D01*
X155702000Y-84075209D02*
X155702000Y-83567209D01*
X155895523Y-83567209D01*
X155943904Y-83591400D01*
X155968095Y-83615590D01*
X155992285Y-83663971D01*
X155992285Y-83736542D01*
X155968095Y-83784923D01*
X155943904Y-83809114D01*
X155895523Y-83833304D01*
X155702000Y-83833304D01*
X156210000Y-84075209D02*
X156210000Y-83567209D01*
X156548666Y-83567209D02*
X156645428Y-83567209D01*
X156693809Y-83591400D01*
X156742190Y-83639780D01*
X156766380Y-83736542D01*
X156766380Y-83905876D01*
X156742190Y-84002638D01*
X156693809Y-84051019D01*
X156645428Y-84075209D01*
X156548666Y-84075209D01*
X156500285Y-84051019D01*
X156451904Y-84002638D01*
X156427714Y-83905876D01*
X156427714Y-83736542D01*
X156451904Y-83639780D01*
X156500285Y-83591400D01*
X156548666Y-83567209D01*
X156935714Y-83567209D02*
X157250190Y-83567209D01*
X157080857Y-83760733D01*
X157153428Y-83760733D01*
X157201809Y-83784923D01*
X157226000Y-83809114D01*
X157250190Y-83857495D01*
X157250190Y-83978447D01*
X157226000Y-84026828D01*
X157201809Y-84051019D01*
X157153428Y-84075209D01*
X157008285Y-84075209D01*
X156959904Y-84051019D01*
X156935714Y-84026828D01*
X155460095Y-81051400D02*
X155411714Y-81027209D01*
X155339142Y-81027209D01*
X155266571Y-81051400D01*
X155218190Y-81099780D01*
X155194000Y-81148161D01*
X155169809Y-81244923D01*
X155169809Y-81317495D01*
X155194000Y-81414257D01*
X155218190Y-81462638D01*
X155266571Y-81511019D01*
X155339142Y-81535209D01*
X155387523Y-81535209D01*
X155460095Y-81511019D01*
X155484285Y-81486828D01*
X155484285Y-81317495D01*
X155387523Y-81317495D01*
X155702000Y-81535209D02*
X155702000Y-81027209D01*
X155895523Y-81027209D01*
X155943904Y-81051400D01*
X155968095Y-81075590D01*
X155992285Y-81123971D01*
X155992285Y-81196542D01*
X155968095Y-81244923D01*
X155943904Y-81269114D01*
X155895523Y-81293304D01*
X155702000Y-81293304D01*
X156210000Y-81535209D02*
X156210000Y-81027209D01*
X156548666Y-81027209D02*
X156645428Y-81027209D01*
X156693809Y-81051400D01*
X156742190Y-81099780D01*
X156766380Y-81196542D01*
X156766380Y-81365876D01*
X156742190Y-81462638D01*
X156693809Y-81511019D01*
X156645428Y-81535209D01*
X156548666Y-81535209D01*
X156500285Y-81511019D01*
X156451904Y-81462638D01*
X156427714Y-81365876D01*
X156427714Y-81196542D01*
X156451904Y-81099780D01*
X156500285Y-81051400D01*
X156548666Y-81027209D01*
X157250190Y-81535209D02*
X156959904Y-81535209D01*
X157105047Y-81535209D02*
X157105047Y-81027209D01*
X157056666Y-81099780D01*
X157008285Y-81148161D01*
X156959904Y-81172352D01*
X154964190Y-78511400D02*
X154915809Y-78487209D01*
X154843238Y-78487209D01*
X154770666Y-78511400D01*
X154722285Y-78559780D01*
X154698095Y-78608161D01*
X154673904Y-78704923D01*
X154673904Y-78777495D01*
X154698095Y-78874257D01*
X154722285Y-78922638D01*
X154770666Y-78971019D01*
X154843238Y-78995209D01*
X154891619Y-78995209D01*
X154964190Y-78971019D01*
X154988380Y-78946828D01*
X154988380Y-78777495D01*
X154891619Y-78777495D01*
X155206095Y-78995209D02*
X155206095Y-78487209D01*
X155399619Y-78487209D01*
X155448000Y-78511400D01*
X155472190Y-78535590D01*
X155496380Y-78583971D01*
X155496380Y-78656542D01*
X155472190Y-78704923D01*
X155448000Y-78729114D01*
X155399619Y-78753304D01*
X155206095Y-78753304D01*
X155714095Y-78995209D02*
X155714095Y-78487209D01*
X156052761Y-78487209D02*
X156149523Y-78487209D01*
X156197904Y-78511400D01*
X156246285Y-78559780D01*
X156270476Y-78656542D01*
X156270476Y-78825876D01*
X156246285Y-78922638D01*
X156197904Y-78971019D01*
X156149523Y-78995209D01*
X156052761Y-78995209D01*
X156004380Y-78971019D01*
X155956000Y-78922638D01*
X155931809Y-78825876D01*
X155931809Y-78656542D01*
X155956000Y-78559780D01*
X156004380Y-78511400D01*
X156052761Y-78487209D01*
X156464000Y-78535590D02*
X156488190Y-78511400D01*
X156536571Y-78487209D01*
X156657523Y-78487209D01*
X156705904Y-78511400D01*
X156730095Y-78535590D01*
X156754285Y-78583971D01*
X156754285Y-78632352D01*
X156730095Y-78704923D01*
X156439809Y-78995209D01*
X156754285Y-78995209D01*
X156947809Y-78535590D02*
X156972000Y-78511400D01*
X157020380Y-78487209D01*
X157141333Y-78487209D01*
X157189714Y-78511400D01*
X157213904Y-78535590D01*
X157238095Y-78583971D01*
X157238095Y-78632352D01*
X157213904Y-78704923D01*
X156923619Y-78995209D01*
X157238095Y-78995209D01*
X154964190Y-75971400D02*
X154915809Y-75947209D01*
X154843238Y-75947209D01*
X154770666Y-75971400D01*
X154722285Y-76019780D01*
X154698095Y-76068161D01*
X154673904Y-76164923D01*
X154673904Y-76237495D01*
X154698095Y-76334257D01*
X154722285Y-76382638D01*
X154770666Y-76431019D01*
X154843238Y-76455209D01*
X154891619Y-76455209D01*
X154964190Y-76431019D01*
X154988380Y-76406828D01*
X154988380Y-76237495D01*
X154891619Y-76237495D01*
X155206095Y-76455209D02*
X155206095Y-75947209D01*
X155399619Y-75947209D01*
X155448000Y-75971400D01*
X155472190Y-75995590D01*
X155496380Y-76043971D01*
X155496380Y-76116542D01*
X155472190Y-76164923D01*
X155448000Y-76189114D01*
X155399619Y-76213304D01*
X155206095Y-76213304D01*
X155714095Y-76455209D02*
X155714095Y-75947209D01*
X156052761Y-75947209D02*
X156149523Y-75947209D01*
X156197904Y-75971400D01*
X156246285Y-76019780D01*
X156270476Y-76116542D01*
X156270476Y-76285876D01*
X156246285Y-76382638D01*
X156197904Y-76431019D01*
X156149523Y-76455209D01*
X156052761Y-76455209D01*
X156004380Y-76431019D01*
X155956000Y-76382638D01*
X155931809Y-76285876D01*
X155931809Y-76116542D01*
X155956000Y-76019780D01*
X156004380Y-75971400D01*
X156052761Y-75947209D01*
X156464000Y-75995590D02*
X156488190Y-75971400D01*
X156536571Y-75947209D01*
X156657523Y-75947209D01*
X156705904Y-75971400D01*
X156730095Y-75995590D01*
X156754285Y-76043971D01*
X156754285Y-76092352D01*
X156730095Y-76164923D01*
X156439809Y-76455209D01*
X156754285Y-76455209D01*
X156923619Y-75947209D02*
X157238095Y-75947209D01*
X157068761Y-76140733D01*
X157141333Y-76140733D01*
X157189714Y-76164923D01*
X157213904Y-76189114D01*
X157238095Y-76237495D01*
X157238095Y-76358447D01*
X157213904Y-76406828D01*
X157189714Y-76431019D01*
X157141333Y-76455209D01*
X156996190Y-76455209D01*
X156947809Y-76431019D01*
X156923619Y-76406828D01*
X155822952Y-73431400D02*
X155774571Y-73407209D01*
X155702000Y-73407209D01*
X155629428Y-73431400D01*
X155581047Y-73479780D01*
X155556857Y-73528161D01*
X155532666Y-73624923D01*
X155532666Y-73697495D01*
X155556857Y-73794257D01*
X155581047Y-73842638D01*
X155629428Y-73891019D01*
X155702000Y-73915209D01*
X155750380Y-73915209D01*
X155822952Y-73891019D01*
X155847142Y-73866828D01*
X155847142Y-73697495D01*
X155750380Y-73697495D01*
X156064857Y-73915209D02*
X156064857Y-73407209D01*
X156355142Y-73915209D01*
X156355142Y-73407209D01*
X156597047Y-73915209D02*
X156597047Y-73407209D01*
X156718000Y-73407209D01*
X156790571Y-73431400D01*
X156838952Y-73479780D01*
X156863142Y-73528161D01*
X156887333Y-73624923D01*
X156887333Y-73697495D01*
X156863142Y-73794257D01*
X156838952Y-73842638D01*
X156790571Y-73891019D01*
X156718000Y-73915209D01*
X156597047Y-73915209D01*
X131928809Y-73018952D02*
X131928809Y-72704476D01*
X132122333Y-72873809D01*
X132122333Y-72801238D01*
X132146523Y-72752857D01*
X132170714Y-72728666D01*
X132219095Y-72704476D01*
X132340047Y-72704476D01*
X132388428Y-72728666D01*
X132412619Y-72752857D01*
X132436809Y-72801238D01*
X132436809Y-72946380D01*
X132412619Y-72994761D01*
X132388428Y-73018952D01*
X131928809Y-72559333D02*
X132436809Y-72390000D01*
X131928809Y-72220666D01*
X131928809Y-72099714D02*
X131928809Y-71785238D01*
X132122333Y-71954571D01*
X132122333Y-71882000D01*
X132146523Y-71833619D01*
X132170714Y-71809428D01*
X132219095Y-71785238D01*
X132340047Y-71785238D01*
X132388428Y-71809428D01*
X132412619Y-71833619D01*
X132436809Y-71882000D01*
X132436809Y-72027142D01*
X132412619Y-72075523D01*
X132388428Y-72099714D01*
D17*
X131455885Y-118913728D02*
X131900990Y-118913728D01*
X131678438Y-119136280D02*
X131678438Y-118691176D01*
X132457371Y-118552080D02*
X132179180Y-118552080D01*
X132151361Y-118830271D01*
X132179180Y-118802452D01*
X132234819Y-118774633D01*
X132373914Y-118774633D01*
X132429552Y-118802452D01*
X132457371Y-118830271D01*
X132485190Y-118885909D01*
X132485190Y-119025004D01*
X132457371Y-119080642D01*
X132429552Y-119108461D01*
X132373914Y-119136280D01*
X132234819Y-119136280D01*
X132179180Y-119108461D01*
X132151361Y-119080642D01*
X132652104Y-118552080D02*
X132846838Y-119136280D01*
X133041571Y-118552080D01*
D13*
X130072190Y-116611400D02*
X130023809Y-116587209D01*
X129951238Y-116587209D01*
X129878666Y-116611400D01*
X129830285Y-116659780D01*
X129806095Y-116708161D01*
X129781904Y-116804923D01*
X129781904Y-116877495D01*
X129806095Y-116974257D01*
X129830285Y-117022638D01*
X129878666Y-117071019D01*
X129951238Y-117095209D01*
X129999619Y-117095209D01*
X130072190Y-117071019D01*
X130096380Y-117046828D01*
X130096380Y-116877495D01*
X129999619Y-116877495D01*
X130314095Y-117095209D02*
X130314095Y-116587209D01*
X130507619Y-116587209D01*
X130556000Y-116611400D01*
X130580190Y-116635590D01*
X130604380Y-116683971D01*
X130604380Y-116756542D01*
X130580190Y-116804923D01*
X130556000Y-116829114D01*
X130507619Y-116853304D01*
X130314095Y-116853304D01*
X130822095Y-117095209D02*
X130822095Y-116587209D01*
X131160761Y-116587209D02*
X131257523Y-116587209D01*
X131305904Y-116611400D01*
X131354285Y-116659780D01*
X131378476Y-116756542D01*
X131378476Y-116925876D01*
X131354285Y-117022638D01*
X131305904Y-117071019D01*
X131257523Y-117095209D01*
X131160761Y-117095209D01*
X131112380Y-117071019D01*
X131064000Y-117022638D01*
X131039809Y-116925876D01*
X131039809Y-116756542D01*
X131064000Y-116659780D01*
X131112380Y-116611400D01*
X131160761Y-116587209D01*
X131862285Y-117095209D02*
X131572000Y-117095209D01*
X131717142Y-117095209D02*
X131717142Y-116587209D01*
X131668761Y-116659780D01*
X131620380Y-116708161D01*
X131572000Y-116732352D01*
X132346095Y-117095209D02*
X132055809Y-117095209D01*
X132200952Y-117095209D02*
X132200952Y-116587209D01*
X132152571Y-116659780D01*
X132104190Y-116708161D01*
X132055809Y-116732352D01*
X130072190Y-114071400D02*
X130023809Y-114047209D01*
X129951238Y-114047209D01*
X129878666Y-114071400D01*
X129830285Y-114119780D01*
X129806095Y-114168161D01*
X129781904Y-114264923D01*
X129781904Y-114337495D01*
X129806095Y-114434257D01*
X129830285Y-114482638D01*
X129878666Y-114531019D01*
X129951238Y-114555209D01*
X129999619Y-114555209D01*
X130072190Y-114531019D01*
X130096380Y-114506828D01*
X130096380Y-114337495D01*
X129999619Y-114337495D01*
X130314095Y-114555209D02*
X130314095Y-114047209D01*
X130507619Y-114047209D01*
X130556000Y-114071400D01*
X130580190Y-114095590D01*
X130604380Y-114143971D01*
X130604380Y-114216542D01*
X130580190Y-114264923D01*
X130556000Y-114289114D01*
X130507619Y-114313304D01*
X130314095Y-114313304D01*
X130822095Y-114555209D02*
X130822095Y-114047209D01*
X131160761Y-114047209D02*
X131257523Y-114047209D01*
X131305904Y-114071400D01*
X131354285Y-114119780D01*
X131378476Y-114216542D01*
X131378476Y-114385876D01*
X131354285Y-114482638D01*
X131305904Y-114531019D01*
X131257523Y-114555209D01*
X131160761Y-114555209D01*
X131112380Y-114531019D01*
X131064000Y-114482638D01*
X131039809Y-114385876D01*
X131039809Y-114216542D01*
X131064000Y-114119780D01*
X131112380Y-114071400D01*
X131160761Y-114047209D01*
X131862285Y-114555209D02*
X131572000Y-114555209D01*
X131717142Y-114555209D02*
X131717142Y-114047209D01*
X131668761Y-114119780D01*
X131620380Y-114168161D01*
X131572000Y-114192352D01*
X132176761Y-114047209D02*
X132225142Y-114047209D01*
X132273523Y-114071400D01*
X132297714Y-114095590D01*
X132321904Y-114143971D01*
X132346095Y-114240733D01*
X132346095Y-114361685D01*
X132321904Y-114458447D01*
X132297714Y-114506828D01*
X132273523Y-114531019D01*
X132225142Y-114555209D01*
X132176761Y-114555209D01*
X132128380Y-114531019D01*
X132104190Y-114506828D01*
X132080000Y-114458447D01*
X132055809Y-114361685D01*
X132055809Y-114240733D01*
X132080000Y-114143971D01*
X132104190Y-114095590D01*
X132128380Y-114071400D01*
X132176761Y-114047209D01*
X130060095Y-111531400D02*
X130011714Y-111507209D01*
X129939142Y-111507209D01*
X129866571Y-111531400D01*
X129818190Y-111579780D01*
X129794000Y-111628161D01*
X129769809Y-111724923D01*
X129769809Y-111797495D01*
X129794000Y-111894257D01*
X129818190Y-111942638D01*
X129866571Y-111991019D01*
X129939142Y-112015209D01*
X129987523Y-112015209D01*
X130060095Y-111991019D01*
X130084285Y-111966828D01*
X130084285Y-111797495D01*
X129987523Y-111797495D01*
X130302000Y-112015209D02*
X130302000Y-111507209D01*
X130495523Y-111507209D01*
X130543904Y-111531400D01*
X130568095Y-111555590D01*
X130592285Y-111603971D01*
X130592285Y-111676542D01*
X130568095Y-111724923D01*
X130543904Y-111749114D01*
X130495523Y-111773304D01*
X130302000Y-111773304D01*
X130810000Y-112015209D02*
X130810000Y-111507209D01*
X131148666Y-111507209D02*
X131245428Y-111507209D01*
X131293809Y-111531400D01*
X131342190Y-111579780D01*
X131366380Y-111676542D01*
X131366380Y-111845876D01*
X131342190Y-111942638D01*
X131293809Y-111991019D01*
X131245428Y-112015209D01*
X131148666Y-112015209D01*
X131100285Y-111991019D01*
X131051904Y-111942638D01*
X131027714Y-111845876D01*
X131027714Y-111676542D01*
X131051904Y-111579780D01*
X131100285Y-111531400D01*
X131148666Y-111507209D01*
X131608285Y-112015209D02*
X131705047Y-112015209D01*
X131753428Y-111991019D01*
X131777619Y-111966828D01*
X131826000Y-111894257D01*
X131850190Y-111797495D01*
X131850190Y-111603971D01*
X131826000Y-111555590D01*
X131801809Y-111531400D01*
X131753428Y-111507209D01*
X131656666Y-111507209D01*
X131608285Y-111531400D01*
X131584095Y-111555590D01*
X131559904Y-111603971D01*
X131559904Y-111724923D01*
X131584095Y-111773304D01*
X131608285Y-111797495D01*
X131656666Y-111821685D01*
X131753428Y-111821685D01*
X131801809Y-111797495D01*
X131826000Y-111773304D01*
X131850190Y-111724923D01*
X129995990Y-108991400D02*
X129947609Y-108967209D01*
X129875038Y-108967209D01*
X129802466Y-108991400D01*
X129754085Y-109039780D01*
X129729895Y-109088161D01*
X129705704Y-109184923D01*
X129705704Y-109257495D01*
X129729895Y-109354257D01*
X129754085Y-109402638D01*
X129802466Y-109451019D01*
X129875038Y-109475209D01*
X129923419Y-109475209D01*
X129995990Y-109451019D01*
X130020180Y-109426828D01*
X130020180Y-109257495D01*
X129923419Y-109257495D01*
X130237895Y-109475209D02*
X130237895Y-108967209D01*
X130431419Y-108967209D01*
X130479800Y-108991400D01*
X130503990Y-109015590D01*
X130528180Y-109063971D01*
X130528180Y-109136542D01*
X130503990Y-109184923D01*
X130479800Y-109209114D01*
X130431419Y-109233304D01*
X130237895Y-109233304D01*
X130745895Y-109475209D02*
X130745895Y-108967209D01*
X131084561Y-108967209D02*
X131181323Y-108967209D01*
X131229704Y-108991400D01*
X131278085Y-109039780D01*
X131302276Y-109136542D01*
X131302276Y-109305876D01*
X131278085Y-109402638D01*
X131229704Y-109451019D01*
X131181323Y-109475209D01*
X131084561Y-109475209D01*
X131036180Y-109451019D01*
X130987800Y-109402638D01*
X130963609Y-109305876D01*
X130963609Y-109136542D01*
X130987800Y-109039780D01*
X131036180Y-108991400D01*
X131084561Y-108967209D01*
X131786085Y-109475209D02*
X131495800Y-109475209D01*
X131640942Y-109475209D02*
X131640942Y-108967209D01*
X131592561Y-109039780D01*
X131544180Y-109088161D01*
X131495800Y-109112352D01*
X131955419Y-108967209D02*
X132269895Y-108967209D01*
X132100561Y-109160733D01*
X132173133Y-109160733D01*
X132221514Y-109184923D01*
X132245704Y-109209114D01*
X132269895Y-109257495D01*
X132269895Y-109378447D01*
X132245704Y-109426828D01*
X132221514Y-109451019D01*
X132173133Y-109475209D01*
X132027990Y-109475209D01*
X131979609Y-109451019D01*
X131955419Y-109426828D01*
X130448352Y-106451400D02*
X130399971Y-106427209D01*
X130327400Y-106427209D01*
X130254828Y-106451400D01*
X130206447Y-106499780D01*
X130182257Y-106548161D01*
X130158066Y-106644923D01*
X130158066Y-106717495D01*
X130182257Y-106814257D01*
X130206447Y-106862638D01*
X130254828Y-106911019D01*
X130327400Y-106935209D01*
X130375780Y-106935209D01*
X130448352Y-106911019D01*
X130472542Y-106886828D01*
X130472542Y-106717495D01*
X130375780Y-106717495D01*
X130690257Y-106935209D02*
X130690257Y-106427209D01*
X130980542Y-106935209D01*
X130980542Y-106427209D01*
X131222447Y-106935209D02*
X131222447Y-106427209D01*
X131343400Y-106427209D01*
X131415971Y-106451400D01*
X131464352Y-106499780D01*
X131488542Y-106548161D01*
X131512733Y-106644923D01*
X131512733Y-106717495D01*
X131488542Y-106814257D01*
X131464352Y-106862638D01*
X131415971Y-106911019D01*
X131343400Y-106935209D01*
X131222447Y-106935209D01*
X130072190Y-103911400D02*
X130023809Y-103887209D01*
X129951238Y-103887209D01*
X129878666Y-103911400D01*
X129830285Y-103959780D01*
X129806095Y-104008161D01*
X129781904Y-104104923D01*
X129781904Y-104177495D01*
X129806095Y-104274257D01*
X129830285Y-104322638D01*
X129878666Y-104371019D01*
X129951238Y-104395209D01*
X129999619Y-104395209D01*
X130072190Y-104371019D01*
X130096380Y-104346828D01*
X130096380Y-104177495D01*
X129999619Y-104177495D01*
X130314095Y-104395209D02*
X130314095Y-103887209D01*
X130507619Y-103887209D01*
X130556000Y-103911400D01*
X130580190Y-103935590D01*
X130604380Y-103983971D01*
X130604380Y-104056542D01*
X130580190Y-104104923D01*
X130556000Y-104129114D01*
X130507619Y-104153304D01*
X130314095Y-104153304D01*
X130822095Y-104395209D02*
X130822095Y-103887209D01*
X131160761Y-103887209D02*
X131257523Y-103887209D01*
X131305904Y-103911400D01*
X131354285Y-103959780D01*
X131378476Y-104056542D01*
X131378476Y-104225876D01*
X131354285Y-104322638D01*
X131305904Y-104371019D01*
X131257523Y-104395209D01*
X131160761Y-104395209D01*
X131112380Y-104371019D01*
X131064000Y-104322638D01*
X131039809Y-104225876D01*
X131039809Y-104056542D01*
X131064000Y-103959780D01*
X131112380Y-103911400D01*
X131160761Y-103887209D01*
X131862285Y-104395209D02*
X131572000Y-104395209D01*
X131717142Y-104395209D02*
X131717142Y-103887209D01*
X131668761Y-103959780D01*
X131620380Y-104008161D01*
X131572000Y-104032352D01*
X132055809Y-103935590D02*
X132080000Y-103911400D01*
X132128380Y-103887209D01*
X132249333Y-103887209D01*
X132297714Y-103911400D01*
X132321904Y-103935590D01*
X132346095Y-103983971D01*
X132346095Y-104032352D01*
X132321904Y-104104923D01*
X132031619Y-104395209D01*
X132346095Y-104395209D01*
X130072190Y-101371400D02*
X130023809Y-101347209D01*
X129951238Y-101347209D01*
X129878666Y-101371400D01*
X129830285Y-101419780D01*
X129806095Y-101468161D01*
X129781904Y-101564923D01*
X129781904Y-101637495D01*
X129806095Y-101734257D01*
X129830285Y-101782638D01*
X129878666Y-101831019D01*
X129951238Y-101855209D01*
X129999619Y-101855209D01*
X130072190Y-101831019D01*
X130096380Y-101806828D01*
X130096380Y-101637495D01*
X129999619Y-101637495D01*
X130314095Y-101855209D02*
X130314095Y-101347209D01*
X130507619Y-101347209D01*
X130556000Y-101371400D01*
X130580190Y-101395590D01*
X130604380Y-101443971D01*
X130604380Y-101516542D01*
X130580190Y-101564923D01*
X130556000Y-101589114D01*
X130507619Y-101613304D01*
X130314095Y-101613304D01*
X130822095Y-101855209D02*
X130822095Y-101347209D01*
X131160761Y-101347209D02*
X131257523Y-101347209D01*
X131305904Y-101371400D01*
X131354285Y-101419780D01*
X131378476Y-101516542D01*
X131378476Y-101685876D01*
X131354285Y-101782638D01*
X131305904Y-101831019D01*
X131257523Y-101855209D01*
X131160761Y-101855209D01*
X131112380Y-101831019D01*
X131064000Y-101782638D01*
X131039809Y-101685876D01*
X131039809Y-101516542D01*
X131064000Y-101419780D01*
X131112380Y-101371400D01*
X131160761Y-101347209D01*
X131862285Y-101855209D02*
X131572000Y-101855209D01*
X131717142Y-101855209D02*
X131717142Y-101347209D01*
X131668761Y-101419780D01*
X131620380Y-101468161D01*
X131572000Y-101492352D01*
X132297714Y-101516542D02*
X132297714Y-101855209D01*
X132176761Y-101323019D02*
X132055809Y-101685876D01*
X132370285Y-101685876D01*
X130072190Y-98831400D02*
X130023809Y-98807209D01*
X129951238Y-98807209D01*
X129878666Y-98831400D01*
X129830285Y-98879780D01*
X129806095Y-98928161D01*
X129781904Y-99024923D01*
X129781904Y-99097495D01*
X129806095Y-99194257D01*
X129830285Y-99242638D01*
X129878666Y-99291019D01*
X129951238Y-99315209D01*
X129999619Y-99315209D01*
X130072190Y-99291019D01*
X130096380Y-99266828D01*
X130096380Y-99097495D01*
X129999619Y-99097495D01*
X130314095Y-99315209D02*
X130314095Y-98807209D01*
X130507619Y-98807209D01*
X130556000Y-98831400D01*
X130580190Y-98855590D01*
X130604380Y-98903971D01*
X130604380Y-98976542D01*
X130580190Y-99024923D01*
X130556000Y-99049114D01*
X130507619Y-99073304D01*
X130314095Y-99073304D01*
X130822095Y-99315209D02*
X130822095Y-98807209D01*
X131160761Y-98807209D02*
X131257523Y-98807209D01*
X131305904Y-98831400D01*
X131354285Y-98879780D01*
X131378476Y-98976542D01*
X131378476Y-99145876D01*
X131354285Y-99242638D01*
X131305904Y-99291019D01*
X131257523Y-99315209D01*
X131160761Y-99315209D01*
X131112380Y-99291019D01*
X131064000Y-99242638D01*
X131039809Y-99145876D01*
X131039809Y-98976542D01*
X131064000Y-98879780D01*
X131112380Y-98831400D01*
X131160761Y-98807209D01*
X131572000Y-98855590D02*
X131596190Y-98831400D01*
X131644571Y-98807209D01*
X131765523Y-98807209D01*
X131813904Y-98831400D01*
X131838095Y-98855590D01*
X131862285Y-98903971D01*
X131862285Y-98952352D01*
X131838095Y-99024923D01*
X131547809Y-99315209D01*
X131862285Y-99315209D01*
X132031619Y-98807209D02*
X132370285Y-98807209D01*
X132152571Y-99315209D01*
X130072190Y-96291400D02*
X130023809Y-96267209D01*
X129951238Y-96267209D01*
X129878666Y-96291400D01*
X129830285Y-96339780D01*
X129806095Y-96388161D01*
X129781904Y-96484923D01*
X129781904Y-96557495D01*
X129806095Y-96654257D01*
X129830285Y-96702638D01*
X129878666Y-96751019D01*
X129951238Y-96775209D01*
X129999619Y-96775209D01*
X130072190Y-96751019D01*
X130096380Y-96726828D01*
X130096380Y-96557495D01*
X129999619Y-96557495D01*
X130314095Y-96775209D02*
X130314095Y-96267209D01*
X130507619Y-96267209D01*
X130556000Y-96291400D01*
X130580190Y-96315590D01*
X130604380Y-96363971D01*
X130604380Y-96436542D01*
X130580190Y-96484923D01*
X130556000Y-96509114D01*
X130507619Y-96533304D01*
X130314095Y-96533304D01*
X130822095Y-96775209D02*
X130822095Y-96267209D01*
X131160761Y-96267209D02*
X131257523Y-96267209D01*
X131305904Y-96291400D01*
X131354285Y-96339780D01*
X131378476Y-96436542D01*
X131378476Y-96605876D01*
X131354285Y-96702638D01*
X131305904Y-96751019D01*
X131257523Y-96775209D01*
X131160761Y-96775209D01*
X131112380Y-96751019D01*
X131064000Y-96702638D01*
X131039809Y-96605876D01*
X131039809Y-96436542D01*
X131064000Y-96339780D01*
X131112380Y-96291400D01*
X131160761Y-96267209D01*
X131572000Y-96315590D02*
X131596190Y-96291400D01*
X131644571Y-96267209D01*
X131765523Y-96267209D01*
X131813904Y-96291400D01*
X131838095Y-96315590D01*
X131862285Y-96363971D01*
X131862285Y-96412352D01*
X131838095Y-96484923D01*
X131547809Y-96775209D01*
X131862285Y-96775209D01*
X132297714Y-96267209D02*
X132200952Y-96267209D01*
X132152571Y-96291400D01*
X132128380Y-96315590D01*
X132080000Y-96388161D01*
X132055809Y-96484923D01*
X132055809Y-96678447D01*
X132080000Y-96726828D01*
X132104190Y-96751019D01*
X132152571Y-96775209D01*
X132249333Y-96775209D01*
X132297714Y-96751019D01*
X132321904Y-96726828D01*
X132346095Y-96678447D01*
X132346095Y-96557495D01*
X132321904Y-96509114D01*
X132297714Y-96484923D01*
X132249333Y-96460733D01*
X132152571Y-96460733D01*
X132104190Y-96484923D01*
X132080000Y-96509114D01*
X132055809Y-96557495D01*
X130072190Y-93751400D02*
X130023809Y-93727209D01*
X129951238Y-93727209D01*
X129878666Y-93751400D01*
X129830285Y-93799780D01*
X129806095Y-93848161D01*
X129781904Y-93944923D01*
X129781904Y-94017495D01*
X129806095Y-94114257D01*
X129830285Y-94162638D01*
X129878666Y-94211019D01*
X129951238Y-94235209D01*
X129999619Y-94235209D01*
X130072190Y-94211019D01*
X130096380Y-94186828D01*
X130096380Y-94017495D01*
X129999619Y-94017495D01*
X130314095Y-94235209D02*
X130314095Y-93727209D01*
X130507619Y-93727209D01*
X130556000Y-93751400D01*
X130580190Y-93775590D01*
X130604380Y-93823971D01*
X130604380Y-93896542D01*
X130580190Y-93944923D01*
X130556000Y-93969114D01*
X130507619Y-93993304D01*
X130314095Y-93993304D01*
X130822095Y-94235209D02*
X130822095Y-93727209D01*
X131160761Y-93727209D02*
X131257523Y-93727209D01*
X131305904Y-93751400D01*
X131354285Y-93799780D01*
X131378476Y-93896542D01*
X131378476Y-94065876D01*
X131354285Y-94162638D01*
X131305904Y-94211019D01*
X131257523Y-94235209D01*
X131160761Y-94235209D01*
X131112380Y-94211019D01*
X131064000Y-94162638D01*
X131039809Y-94065876D01*
X131039809Y-93896542D01*
X131064000Y-93799780D01*
X131112380Y-93751400D01*
X131160761Y-93727209D01*
X131572000Y-93775590D02*
X131596190Y-93751400D01*
X131644571Y-93727209D01*
X131765523Y-93727209D01*
X131813904Y-93751400D01*
X131838095Y-93775590D01*
X131862285Y-93823971D01*
X131862285Y-93872352D01*
X131838095Y-93944923D01*
X131547809Y-94235209D01*
X131862285Y-94235209D01*
X132321904Y-93727209D02*
X132080000Y-93727209D01*
X132055809Y-93969114D01*
X132080000Y-93944923D01*
X132128380Y-93920733D01*
X132249333Y-93920733D01*
X132297714Y-93944923D01*
X132321904Y-93969114D01*
X132346095Y-94017495D01*
X132346095Y-94138447D01*
X132321904Y-94186828D01*
X132297714Y-94211019D01*
X132249333Y-94235209D01*
X132128380Y-94235209D01*
X132080000Y-94211019D01*
X132055809Y-94186828D01*
X130072190Y-91211400D02*
X130023809Y-91187209D01*
X129951238Y-91187209D01*
X129878666Y-91211400D01*
X129830285Y-91259780D01*
X129806095Y-91308161D01*
X129781904Y-91404923D01*
X129781904Y-91477495D01*
X129806095Y-91574257D01*
X129830285Y-91622638D01*
X129878666Y-91671019D01*
X129951238Y-91695209D01*
X129999619Y-91695209D01*
X130072190Y-91671019D01*
X130096380Y-91646828D01*
X130096380Y-91477495D01*
X129999619Y-91477495D01*
X130314095Y-91695209D02*
X130314095Y-91187209D01*
X130507619Y-91187209D01*
X130556000Y-91211400D01*
X130580190Y-91235590D01*
X130604380Y-91283971D01*
X130604380Y-91356542D01*
X130580190Y-91404923D01*
X130556000Y-91429114D01*
X130507619Y-91453304D01*
X130314095Y-91453304D01*
X130822095Y-91695209D02*
X130822095Y-91187209D01*
X131160761Y-91187209D02*
X131257523Y-91187209D01*
X131305904Y-91211400D01*
X131354285Y-91259780D01*
X131378476Y-91356542D01*
X131378476Y-91525876D01*
X131354285Y-91622638D01*
X131305904Y-91671019D01*
X131257523Y-91695209D01*
X131160761Y-91695209D01*
X131112380Y-91671019D01*
X131064000Y-91622638D01*
X131039809Y-91525876D01*
X131039809Y-91356542D01*
X131064000Y-91259780D01*
X131112380Y-91211400D01*
X131160761Y-91187209D01*
X131547809Y-91187209D02*
X131862285Y-91187209D01*
X131692952Y-91380733D01*
X131765523Y-91380733D01*
X131813904Y-91404923D01*
X131838095Y-91429114D01*
X131862285Y-91477495D01*
X131862285Y-91598447D01*
X131838095Y-91646828D01*
X131813904Y-91671019D01*
X131765523Y-91695209D01*
X131620380Y-91695209D01*
X131572000Y-91671019D01*
X131547809Y-91646828D01*
X132031619Y-91187209D02*
X132346095Y-91187209D01*
X132176761Y-91380733D01*
X132249333Y-91380733D01*
X132297714Y-91404923D01*
X132321904Y-91429114D01*
X132346095Y-91477495D01*
X132346095Y-91598447D01*
X132321904Y-91646828D01*
X132297714Y-91671019D01*
X132249333Y-91695209D01*
X132104190Y-91695209D01*
X132055809Y-91671019D01*
X132031619Y-91646828D01*
X130072190Y-88671400D02*
X130023809Y-88647209D01*
X129951238Y-88647209D01*
X129878666Y-88671400D01*
X129830285Y-88719780D01*
X129806095Y-88768161D01*
X129781904Y-88864923D01*
X129781904Y-88937495D01*
X129806095Y-89034257D01*
X129830285Y-89082638D01*
X129878666Y-89131019D01*
X129951238Y-89155209D01*
X129999619Y-89155209D01*
X130072190Y-89131019D01*
X130096380Y-89106828D01*
X130096380Y-88937495D01*
X129999619Y-88937495D01*
X130314095Y-89155209D02*
X130314095Y-88647209D01*
X130507619Y-88647209D01*
X130556000Y-88671400D01*
X130580190Y-88695590D01*
X130604380Y-88743971D01*
X130604380Y-88816542D01*
X130580190Y-88864923D01*
X130556000Y-88889114D01*
X130507619Y-88913304D01*
X130314095Y-88913304D01*
X130822095Y-89155209D02*
X130822095Y-88647209D01*
X131160761Y-88647209D02*
X131257523Y-88647209D01*
X131305904Y-88671400D01*
X131354285Y-88719780D01*
X131378476Y-88816542D01*
X131378476Y-88985876D01*
X131354285Y-89082638D01*
X131305904Y-89131019D01*
X131257523Y-89155209D01*
X131160761Y-89155209D01*
X131112380Y-89131019D01*
X131064000Y-89082638D01*
X131039809Y-88985876D01*
X131039809Y-88816542D01*
X131064000Y-88719780D01*
X131112380Y-88671400D01*
X131160761Y-88647209D01*
X131547809Y-88647209D02*
X131862285Y-88647209D01*
X131692952Y-88840733D01*
X131765523Y-88840733D01*
X131813904Y-88864923D01*
X131838095Y-88889114D01*
X131862285Y-88937495D01*
X131862285Y-89058447D01*
X131838095Y-89106828D01*
X131813904Y-89131019D01*
X131765523Y-89155209D01*
X131620380Y-89155209D01*
X131572000Y-89131019D01*
X131547809Y-89106828D01*
X132055809Y-88695590D02*
X132080000Y-88671400D01*
X132128380Y-88647209D01*
X132249333Y-88647209D01*
X132297714Y-88671400D01*
X132321904Y-88695590D01*
X132346095Y-88743971D01*
X132346095Y-88792352D01*
X132321904Y-88864923D01*
X132031619Y-89155209D01*
X132346095Y-89155209D01*
X130084285Y-86131400D02*
X130035904Y-86107209D01*
X129963333Y-86107209D01*
X129890761Y-86131400D01*
X129842380Y-86179780D01*
X129818190Y-86228161D01*
X129794000Y-86324923D01*
X129794000Y-86397495D01*
X129818190Y-86494257D01*
X129842380Y-86542638D01*
X129890761Y-86591019D01*
X129963333Y-86615209D01*
X130011714Y-86615209D01*
X130084285Y-86591019D01*
X130108476Y-86566828D01*
X130108476Y-86397495D01*
X130011714Y-86397495D01*
X130326190Y-86615209D02*
X130326190Y-86107209D01*
X130519714Y-86107209D01*
X130568095Y-86131400D01*
X130592285Y-86155590D01*
X130616476Y-86203971D01*
X130616476Y-86276542D01*
X130592285Y-86324923D01*
X130568095Y-86349114D01*
X130519714Y-86373304D01*
X130326190Y-86373304D01*
X130834190Y-86615209D02*
X130834190Y-86107209D01*
X131027714Y-86107209D02*
X131342190Y-86107209D01*
X131172857Y-86300733D01*
X131245428Y-86300733D01*
X131293809Y-86324923D01*
X131318000Y-86349114D01*
X131342190Y-86397495D01*
X131342190Y-86518447D01*
X131318000Y-86566828D01*
X131293809Y-86591019D01*
X131245428Y-86615209D01*
X131100285Y-86615209D01*
X131051904Y-86591019D01*
X131027714Y-86566828D01*
X131801809Y-86107209D02*
X131559904Y-86107209D01*
X131535714Y-86349114D01*
X131559904Y-86324923D01*
X131608285Y-86300733D01*
X131729238Y-86300733D01*
X131777619Y-86324923D01*
X131801809Y-86349114D01*
X131826000Y-86397495D01*
X131826000Y-86518447D01*
X131801809Y-86566828D01*
X131777619Y-86591019D01*
X131729238Y-86615209D01*
X131608285Y-86615209D01*
X131559904Y-86591019D01*
X131535714Y-86566828D01*
X130084285Y-83591400D02*
X130035904Y-83567209D01*
X129963333Y-83567209D01*
X129890761Y-83591400D01*
X129842380Y-83639780D01*
X129818190Y-83688161D01*
X129794000Y-83784923D01*
X129794000Y-83857495D01*
X129818190Y-83954257D01*
X129842380Y-84002638D01*
X129890761Y-84051019D01*
X129963333Y-84075209D01*
X130011714Y-84075209D01*
X130084285Y-84051019D01*
X130108476Y-84026828D01*
X130108476Y-83857495D01*
X130011714Y-83857495D01*
X130326190Y-84075209D02*
X130326190Y-83567209D01*
X130519714Y-83567209D01*
X130568095Y-83591400D01*
X130592285Y-83615590D01*
X130616476Y-83663971D01*
X130616476Y-83736542D01*
X130592285Y-83784923D01*
X130568095Y-83809114D01*
X130519714Y-83833304D01*
X130326190Y-83833304D01*
X130834190Y-84075209D02*
X130834190Y-83567209D01*
X131027714Y-83567209D02*
X131342190Y-83567209D01*
X131172857Y-83760733D01*
X131245428Y-83760733D01*
X131293809Y-83784923D01*
X131318000Y-83809114D01*
X131342190Y-83857495D01*
X131342190Y-83978447D01*
X131318000Y-84026828D01*
X131293809Y-84051019D01*
X131245428Y-84075209D01*
X131100285Y-84075209D01*
X131051904Y-84051019D01*
X131027714Y-84026828D01*
X131777619Y-83736542D02*
X131777619Y-84075209D01*
X131656666Y-83543019D02*
X131535714Y-83905876D01*
X131850190Y-83905876D01*
X130084285Y-81051400D02*
X130035904Y-81027209D01*
X129963333Y-81027209D01*
X129890761Y-81051400D01*
X129842380Y-81099780D01*
X129818190Y-81148161D01*
X129794000Y-81244923D01*
X129794000Y-81317495D01*
X129818190Y-81414257D01*
X129842380Y-81462638D01*
X129890761Y-81511019D01*
X129963333Y-81535209D01*
X130011714Y-81535209D01*
X130084285Y-81511019D01*
X130108476Y-81486828D01*
X130108476Y-81317495D01*
X130011714Y-81317495D01*
X130326190Y-81535209D02*
X130326190Y-81027209D01*
X130519714Y-81027209D01*
X130568095Y-81051400D01*
X130592285Y-81075590D01*
X130616476Y-81123971D01*
X130616476Y-81196542D01*
X130592285Y-81244923D01*
X130568095Y-81269114D01*
X130519714Y-81293304D01*
X130326190Y-81293304D01*
X130834190Y-81535209D02*
X130834190Y-81027209D01*
X131027714Y-81027209D02*
X131342190Y-81027209D01*
X131172857Y-81220733D01*
X131245428Y-81220733D01*
X131293809Y-81244923D01*
X131318000Y-81269114D01*
X131342190Y-81317495D01*
X131342190Y-81438447D01*
X131318000Y-81486828D01*
X131293809Y-81511019D01*
X131245428Y-81535209D01*
X131100285Y-81535209D01*
X131051904Y-81511019D01*
X131027714Y-81486828D01*
X131584095Y-81535209D02*
X131680857Y-81535209D01*
X131729238Y-81511019D01*
X131753428Y-81486828D01*
X131801809Y-81414257D01*
X131826000Y-81317495D01*
X131826000Y-81123971D01*
X131801809Y-81075590D01*
X131777619Y-81051400D01*
X131729238Y-81027209D01*
X131632476Y-81027209D01*
X131584095Y-81051400D01*
X131559904Y-81075590D01*
X131535714Y-81123971D01*
X131535714Y-81244923D01*
X131559904Y-81293304D01*
X131584095Y-81317495D01*
X131632476Y-81341685D01*
X131729238Y-81341685D01*
X131777619Y-81317495D01*
X131801809Y-81293304D01*
X131826000Y-81244923D01*
X130084285Y-78511400D02*
X130035904Y-78487209D01*
X129963333Y-78487209D01*
X129890761Y-78511400D01*
X129842380Y-78559780D01*
X129818190Y-78608161D01*
X129794000Y-78704923D01*
X129794000Y-78777495D01*
X129818190Y-78874257D01*
X129842380Y-78922638D01*
X129890761Y-78971019D01*
X129963333Y-78995209D01*
X130011714Y-78995209D01*
X130084285Y-78971019D01*
X130108476Y-78946828D01*
X130108476Y-78777495D01*
X130011714Y-78777495D01*
X130326190Y-78995209D02*
X130326190Y-78487209D01*
X130519714Y-78487209D01*
X130568095Y-78511400D01*
X130592285Y-78535590D01*
X130616476Y-78583971D01*
X130616476Y-78656542D01*
X130592285Y-78704923D01*
X130568095Y-78729114D01*
X130519714Y-78753304D01*
X130326190Y-78753304D01*
X130834190Y-78995209D02*
X130834190Y-78487209D01*
X131027714Y-78487209D02*
X131342190Y-78487209D01*
X131172857Y-78680733D01*
X131245428Y-78680733D01*
X131293809Y-78704923D01*
X131318000Y-78729114D01*
X131342190Y-78777495D01*
X131342190Y-78898447D01*
X131318000Y-78946828D01*
X131293809Y-78971019D01*
X131245428Y-78995209D01*
X131100285Y-78995209D01*
X131051904Y-78971019D01*
X131027714Y-78946828D01*
X131777619Y-78487209D02*
X131680857Y-78487209D01*
X131632476Y-78511400D01*
X131608285Y-78535590D01*
X131559904Y-78608161D01*
X131535714Y-78704923D01*
X131535714Y-78898447D01*
X131559904Y-78946828D01*
X131584095Y-78971019D01*
X131632476Y-78995209D01*
X131729238Y-78995209D01*
X131777619Y-78971019D01*
X131801809Y-78946828D01*
X131826000Y-78898447D01*
X131826000Y-78777495D01*
X131801809Y-78729114D01*
X131777619Y-78704923D01*
X131729238Y-78680733D01*
X131632476Y-78680733D01*
X131584095Y-78704923D01*
X131559904Y-78729114D01*
X131535714Y-78777495D01*
X129927047Y-76189114D02*
X130096380Y-76189114D01*
X130168952Y-76455209D02*
X129927047Y-76455209D01*
X129927047Y-75947209D01*
X130168952Y-75947209D01*
X130386666Y-76455209D02*
X130386666Y-75947209D01*
X130676952Y-76455209D01*
X130676952Y-75947209D01*
X129927047Y-73407209D02*
X130241523Y-73407209D01*
X130072190Y-73600733D01*
X130144761Y-73600733D01*
X130193142Y-73624923D01*
X130217333Y-73649114D01*
X130241523Y-73697495D01*
X130241523Y-73818447D01*
X130217333Y-73866828D01*
X130193142Y-73891019D01*
X130144761Y-73915209D01*
X129999619Y-73915209D01*
X129951238Y-73891019D01*
X129927047Y-73866828D01*
X130386666Y-73407209D02*
X130556000Y-73915209D01*
X130725333Y-73407209D01*
X130846285Y-73407209D02*
X131160761Y-73407209D01*
X130991428Y-73600733D01*
X131064000Y-73600733D01*
X131112380Y-73624923D01*
X131136571Y-73649114D01*
X131160761Y-73697495D01*
X131160761Y-73818447D01*
X131136571Y-73866828D01*
X131112380Y-73891019D01*
X131064000Y-73915209D01*
X130918857Y-73915209D01*
X130870476Y-73891019D01*
X130846285Y-73866828D01*
D16*
X132666619Y-91246476D02*
X132666619Y-91052952D01*
X132715000Y-90956190D01*
X132811761Y-90859428D01*
X133005285Y-90811047D01*
X133343952Y-90811047D01*
X133537476Y-90859428D01*
X133634238Y-90956190D01*
X133682619Y-91052952D01*
X133682619Y-91246476D01*
X133634238Y-91343238D01*
X133537476Y-91440000D01*
X133343952Y-91488380D01*
X133005285Y-91488380D01*
X132811761Y-91440000D01*
X132715000Y-91343238D01*
X132666619Y-91246476D01*
X133682619Y-89891809D02*
X133682619Y-90375619D01*
X132666619Y-90375619D01*
X133682619Y-89553142D02*
X133005285Y-89553142D01*
X132666619Y-89553142D02*
X132715000Y-89601523D01*
X132763380Y-89553142D01*
X132715000Y-89504761D01*
X132666619Y-89553142D01*
X132763380Y-89553142D01*
X133682619Y-89069333D02*
X133005285Y-89069333D01*
X133102047Y-89069333D02*
X133053666Y-89020952D01*
X133005285Y-88924190D01*
X133005285Y-88779047D01*
X133053666Y-88682285D01*
X133150428Y-88633904D01*
X133682619Y-88633904D01*
X133150428Y-88633904D02*
X133053666Y-88585523D01*
X133005285Y-88488761D01*
X133005285Y-88343619D01*
X133053666Y-88246857D01*
X133150428Y-88198476D01*
X133682619Y-88198476D01*
X133634238Y-87327619D02*
X133682619Y-87424380D01*
X133682619Y-87617904D01*
X133634238Y-87714666D01*
X133537476Y-87763047D01*
X133150428Y-87763047D01*
X133053666Y-87714666D01*
X133005285Y-87617904D01*
X133005285Y-87424380D01*
X133053666Y-87327619D01*
X133150428Y-87279238D01*
X133247190Y-87279238D01*
X133343952Y-87763047D01*
X132666619Y-86940571D02*
X133682619Y-86263238D01*
X132666619Y-86263238D02*
X133682619Y-86940571D01*
X153851428Y-90225411D02*
X153851428Y-89886744D01*
X154383619Y-89808125D02*
X154383619Y-90291935D01*
X153367619Y-90164935D01*
X153367619Y-89681125D01*
X154335238Y-89415030D02*
X154383619Y-89275935D01*
X154383619Y-89034030D01*
X154335238Y-88931220D01*
X154286857Y-88876792D01*
X154190095Y-88816316D01*
X154093333Y-88804220D01*
X153996571Y-88840506D01*
X153948190Y-88882839D01*
X153899809Y-88973554D01*
X153851428Y-89161030D01*
X153803047Y-89251744D01*
X153754666Y-89294077D01*
X153657904Y-89330363D01*
X153561142Y-89318268D01*
X153464380Y-89257792D01*
X153416000Y-89203363D01*
X153367619Y-89100554D01*
X153367619Y-88858649D01*
X153416000Y-88719554D01*
X154383619Y-88405077D02*
X153367619Y-88278077D01*
X153367619Y-87891030D01*
X153416000Y-87800316D01*
X153464380Y-87757982D01*
X153561142Y-87721697D01*
X153706285Y-87739839D01*
X153803047Y-87800316D01*
X153851428Y-87854744D01*
X153899809Y-87957554D01*
X153899809Y-88344601D01*
X153367619Y-87358839D02*
X153367619Y-86729887D01*
X153754666Y-87116935D01*
X153754666Y-86971792D01*
X153803047Y-86881077D01*
X153851428Y-86838744D01*
X153948190Y-86802458D01*
X154190095Y-86832697D01*
X154286857Y-86893173D01*
X154335238Y-86947601D01*
X154383619Y-87050411D01*
X154383619Y-87340697D01*
X154335238Y-87431411D01*
X154286857Y-87473744D01*
X153464380Y-86354935D02*
X153416000Y-86300506D01*
X153367619Y-86197697D01*
X153367619Y-85955792D01*
X153416000Y-85865077D01*
X153464380Y-85822744D01*
X153561142Y-85786458D01*
X153657904Y-85798554D01*
X153803047Y-85865077D01*
X154383619Y-86518220D01*
X154383619Y-85889268D01*
X153996571Y-85405458D02*
X153996571Y-84631363D01*
X154383619Y-84195935D02*
X153367619Y-84068935D01*
X153367619Y-83827030D01*
X153416000Y-83687935D01*
X153512761Y-83603268D01*
X153609523Y-83566982D01*
X153803047Y-83542792D01*
X153948190Y-83560935D01*
X154141714Y-83633506D01*
X154238476Y-83693982D01*
X154335238Y-83802839D01*
X154383619Y-83954030D01*
X154383619Y-84195935D01*
X154335238Y-82786839D02*
X154383619Y-82889649D01*
X154383619Y-83083173D01*
X154335238Y-83173887D01*
X154238476Y-83210173D01*
X153851428Y-83161792D01*
X153754666Y-83101316D01*
X153706285Y-82998506D01*
X153706285Y-82804982D01*
X153754666Y-82714268D01*
X153851428Y-82677982D01*
X153948190Y-82690077D01*
X154044952Y-83185982D01*
X153706285Y-82321173D02*
X154383619Y-82163935D01*
X153706285Y-81837363D01*
X154383619Y-81534982D02*
X153367619Y-81407982D01*
X154383619Y-80954411D02*
X153803047Y-81317268D01*
X153367619Y-80827411D02*
X153948190Y-81480554D01*
X154383619Y-80518982D02*
X153706285Y-80434316D01*
X153367619Y-80391982D02*
X153416000Y-80446411D01*
X153464380Y-80404077D01*
X153416000Y-80349649D01*
X153367619Y-80391982D01*
X153464380Y-80404077D01*
X153706285Y-80095649D02*
X153706285Y-79708601D01*
X153367619Y-79908173D02*
X154238476Y-80017030D01*
X154335238Y-79980744D01*
X154383619Y-79890030D01*
X154383619Y-79793268D01*
X153996571Y-79406220D02*
X153996571Y-78632125D01*
X154383619Y-77712887D02*
X154383619Y-78196697D01*
X153367619Y-78069697D01*
X154383619Y-77374220D02*
X153706285Y-77289554D01*
X153367619Y-77247220D02*
X153416000Y-77301649D01*
X153464380Y-77259316D01*
X153416000Y-77204887D01*
X153367619Y-77247220D01*
X153464380Y-77259316D01*
X153706285Y-76805744D02*
X154722285Y-76932744D01*
X153754666Y-76811792D02*
X153706285Y-76708982D01*
X153706285Y-76515458D01*
X153754666Y-76424744D01*
X153803047Y-76382411D01*
X153899809Y-76346125D01*
X154190095Y-76382411D01*
X154286857Y-76442887D01*
X154335238Y-76497316D01*
X154383619Y-76600125D01*
X154383619Y-76793649D01*
X154335238Y-76884363D01*
X154383619Y-75826030D02*
X154335238Y-75916744D01*
X154286857Y-75959077D01*
X154190095Y-75995363D01*
X153899809Y-75959077D01*
X153803047Y-75898601D01*
X153754666Y-75844173D01*
X153706285Y-75741363D01*
X153706285Y-75596220D01*
X153754666Y-75505506D01*
X153803047Y-75463173D01*
X153899809Y-75426887D01*
X154190095Y-75463173D01*
X154286857Y-75523649D01*
X154335238Y-75578077D01*
X154383619Y-75680887D01*
X154383619Y-75826030D01*
X150660000Y-90572000D02*
X150060000Y-90572000D01*
X136360000Y-90572000D02*
X137010000Y-90572000D01*
X152510000Y-96472000D02*
X152510000Y-96172000D01*
X134510000Y-96472000D02*
X134510000Y-96172000D01*
X134510000Y-96472000D02*
X152510000Y-96472000D01*
X134510000Y-65072000D02*
X134510000Y-71692000D01*
X152510000Y-65072000D02*
X152510000Y-71692000D01*
X134510000Y-71072000D02*
X152510000Y-71072000D01*
X134510000Y-65072000D02*
X152510000Y-65072000D01*
X148366480Y-114635280D02*
X148366480Y-119128540D01*
X154401520Y-114635280D02*
X148366480Y-114635280D01*
X154401520Y-119151400D02*
X154401520Y-114635280D01*
X148353780Y-119151400D02*
X154401520Y-119151400D01*
D13*
X133807200Y-109093000D02*
X133807200Y-110109000D01*
X132588000Y-110109000D02*
X132588000Y-109093000D01*
D18*
X133223000Y-110750000D02*
X133223000Y-110230000D01*
X133113000Y-110580000D02*
X133333000Y-110580000D01*
X133113000Y-110580000D02*
X133213000Y-110470000D01*
X133333000Y-110580000D02*
X133233000Y-110480000D01*
X133113000Y-110390000D02*
X133333000Y-110390000D01*
D19*
X133468600Y-110312200D02*
X133578600Y-110442200D01*
X133577600Y-110443800D02*
X133567600Y-110363800D01*
X133577600Y-110443800D02*
X133497600Y-110443800D01*
X133577600Y-110659200D02*
X133497600Y-110659200D01*
X133577600Y-110659200D02*
X133567600Y-110579200D01*
X133447600Y-110519200D02*
X133557600Y-110649200D01*
D16*
X132651500Y-109080300D02*
X132778500Y-108927900D01*
X133743700Y-109080300D02*
X133616700Y-108940600D01*
X132778500Y-108927900D02*
X133604000Y-108927900D01*
X133705600Y-109093000D02*
X132664200Y-109093000D01*
X143060420Y-71866760D02*
X144988280Y-75211940D01*
X141003020Y-75577700D02*
X144767300Y-75575160D01*
X140705840Y-75295760D02*
X142684500Y-71871840D01*
X143019780Y-71815960D02*
G75*
G03X142730220Y-71815960I-144780J-144780D01*
G01*
X140703300Y-75331320D02*
G75*
G03X140924280Y-75572620I231140J-10160D01*
G01*
X144774920Y-75575160D02*
G75*
G03X144998440Y-75280520I-35560J259080D01*
G01*
D19*
X143060420Y-74543920D02*
X142938500Y-74632820D01*
X142938500Y-74632820D02*
X142882620Y-74681080D01*
X142882620Y-74681080D02*
X142798800Y-74775060D01*
X142722600Y-74891900D02*
X142476220Y-75308460D01*
X142798800Y-74775060D02*
X142722600Y-74891900D01*
X142476220Y-75308460D02*
X142397480Y-75295760D01*
X142394940Y-75295760D02*
X142361920Y-75275440D01*
X142356840Y-75270360D02*
X142339060Y-75248750D01*
X142339060Y-75247500D02*
X142321280Y-75199240D01*
X142321280Y-75199240D02*
X142311020Y-75125580D01*
X142311120Y-75125580D02*
X142308580Y-74998580D01*
X142308580Y-74998580D02*
X142323820Y-74863960D01*
X142323820Y-74863960D02*
X142356840Y-74742040D01*
X142356840Y-74736960D02*
X142400020Y-74648060D01*
X142400020Y-74648060D02*
X142453360Y-74569320D01*
X142453360Y-74569320D02*
X142699740Y-74345800D01*
X142697200Y-74348340D02*
X142201900Y-74043540D01*
X142201900Y-74043540D02*
X142123160Y-74183240D01*
X142123160Y-74183240D02*
X142039340Y-74307700D01*
X142039340Y-74307700D02*
X142036800Y-74366120D01*
X142034260Y-74366120D02*
X142049500Y-74434700D01*
X142049500Y-74434700D02*
X142036800Y-74721720D01*
X142036800Y-74721720D02*
X142067280Y-74780140D01*
X142067280Y-74780140D02*
X142097760Y-74863960D01*
X142097760Y-74863960D02*
X142120620Y-74988420D01*
X142120620Y-74988420D02*
X142128240Y-75100180D01*
X142128240Y-75100180D02*
X142113000Y-75214480D01*
X142113000Y-75214480D02*
X142082520Y-75283060D01*
X142082520Y-75283060D02*
X142041880Y-75316080D01*
X142041880Y-75316080D02*
X142001240Y-75326240D01*
X142001240Y-75326240D02*
X141960600Y-75311000D01*
X141955520Y-75308460D02*
X141927580Y-75277980D01*
X141927580Y-75277980D02*
X141640560Y-74462640D01*
X141638020Y-74465180D02*
X141625320Y-74404220D01*
X141625320Y-74401680D02*
X141625320Y-74287380D01*
X141625320Y-74284840D02*
X141640560Y-74193400D01*
X141640560Y-74190000D02*
X141709140Y-74050000D01*
X141709140Y-74053700D02*
X141841220Y-73850500D01*
X142039340Y-73530460D02*
X142133320Y-73411080D01*
X142133320Y-73411080D02*
X142176500Y-73365360D01*
X142179040Y-73362820D02*
X142212060Y-73339960D01*
X142212060Y-73339960D02*
X142283180Y-73319640D01*
X142283180Y-73319640D02*
X142946120Y-73230740D01*
X142946120Y-73230740D02*
X143217900Y-73182480D01*
X143220440Y-73185020D02*
X143334740Y-73136760D01*
X143334740Y-73136760D02*
X143507460Y-73027540D01*
X143512540Y-73027540D02*
X143916400Y-73726040D01*
X143916400Y-73726040D02*
X143784320Y-73847960D01*
X143781780Y-73850500D02*
X143682720Y-73992740D01*
X143576040Y-74101960D02*
X143365220Y-74300080D01*
X143687800Y-73990200D02*
X143573500Y-74104500D01*
D16*
X142189200Y-73507600D02*
X143332200Y-74173080D01*
X142394940Y-73441560D02*
X143418560Y-74079100D01*
X142666720Y-73372980D02*
X143555720Y-73947020D01*
X142968980Y-73337420D02*
X143667480Y-73797160D01*
X143233140Y-73294240D02*
X143769080Y-73680320D01*
X143388080Y-73228200D02*
X143614140Y-73418700D01*
X142285720Y-73439020D02*
X143263620Y-73294240D01*
X143471900Y-73177400D02*
X143652240Y-73474580D01*
X143647160Y-73799700D02*
X143469360Y-74020680D01*
X141955520Y-73883520D02*
X141754860Y-74259440D01*
X142110460Y-73934320D02*
X141823440Y-74373740D01*
X141726920Y-74338180D02*
X141998700Y-75171300D01*
X141922500Y-74295000D02*
X141904720Y-74696320D01*
X141904720Y-74703940D02*
X141996160Y-75029060D01*
X142450820Y-74932540D02*
X142430500Y-75181460D01*
X142524480Y-74688700D02*
X142450820Y-74932540D01*
X142880080Y-74363580D02*
X142524480Y-74688700D01*
X142628620Y-74790300D02*
X142935960Y-74465180D01*
X142430500Y-75181460D02*
X142628620Y-74790300D01*
X141754860Y-73482200D02*
X144967960Y-75422760D01*
X141968220Y-73764140D02*
X143073120Y-74429620D01*
X137668000Y-110193000D02*
X137668000Y-109685000D01*
X135128000Y-110193000D02*
X135128000Y-109685000D01*
X149352000Y-103124000D02*
X150368000Y-103124000D01*
X149352000Y-104648000D02*
X150368000Y-104648000D01*
X152908000Y-102895400D02*
X152908000Y-102184200D01*
X152069800Y-102895400D02*
X152908000Y-102895400D01*
X152069800Y-100050600D02*
X152908000Y-100050600D01*
X152908000Y-100761800D02*
X152908000Y-100050600D01*
X141708000Y-100403000D02*
X141708000Y-100003000D01*
X138708000Y-100403000D02*
X138708000Y-100003000D01*
D20*
X139958000Y-100303000D02*
G75*
G02X140458000Y-100303000I250000J0D01*
G01*
X139458000Y-100303000D02*
G75*
G02X139958000Y-100303000I250000J0D01*
G01*
X140458000Y-100303000D02*
G75*
G02X140958000Y-100303000I250000J0D01*
G01*
X139458000Y-100353000D02*
X139108000Y-100353000D01*
X140958000Y-100353000D02*
X141308000Y-100353000D01*
D16*
X148945600Y-109855000D02*
X149656800Y-109855000D01*
X148945600Y-109016800D02*
X148945600Y-109855000D01*
X151790400Y-109016800D02*
X151790400Y-109855000D01*
X151079200Y-109855000D02*
X151790400Y-109855000D01*
X152120600Y-109855000D02*
X152831800Y-109855000D01*
X152120600Y-109016800D02*
X152120600Y-109855000D01*
X154965400Y-109016800D02*
X154965400Y-109855000D01*
X154254200Y-109855000D02*
X154965400Y-109855000D01*
X150545800Y-114173000D02*
X149415500Y-114173000D01*
X150545800Y-111366300D02*
X149415500Y-111366300D01*
X146494500Y-103759000D02*
X141033500Y-103759000D01*
X146494500Y-110998000D02*
X146494500Y-103378000D01*
X141033500Y-103378000D02*
X141033500Y-110998000D01*
X146494500Y-110998000D02*
X141033500Y-110998000D01*
X141033500Y-103378000D02*
X146494500Y-103378000D01*
X144576800Y-102616000D02*
X143446500Y-102616000D01*
X144576800Y-99809300D02*
X143446500Y-99809300D01*
X153695400Y-105359200D02*
X153695400Y-104952800D01*
X152374600Y-103733600D02*
X153162000Y-103733600D01*
X152374600Y-104394000D02*
X152374600Y-103733600D01*
X152374600Y-106578400D02*
X152374600Y-105918000D01*
X153162000Y-106578400D02*
X152374600Y-106578400D01*
X139446000Y-119126000D02*
X139827000Y-118110000D01*
X147574000Y-119126000D02*
X147193000Y-118110000D01*
X147210000Y-113597000D02*
X147210000Y-114797000D01*
X139810000Y-118097000D02*
X139810000Y-117097000D01*
X147574000Y-119197000D02*
X139446000Y-119197000D01*
X147210000Y-117097000D02*
X147210000Y-118097000D01*
X146310000Y-112097000D02*
X145310000Y-112097000D01*
X141710000Y-112097000D02*
X140710000Y-112097000D01*
X139810000Y-113597000D02*
X139810000Y-114797000D01*
X147210000Y-118097000D02*
X139810000Y-118097000D01*
D13*
X134824738Y-115570000D02*
G75*
G03X134824738Y-115570000I-839738J0D01*
G01*
X133046000Y-113570000D02*
X132487200Y-113570000D01*
X135482800Y-113570000D02*
X134873200Y-113570000D01*
X133046000Y-117570000D02*
X132487200Y-117570000D01*
X135482000Y-117570000D02*
X134923200Y-117570000D01*
X132485000Y-113570000D02*
X132485000Y-117570000D01*
X135485000Y-113570000D02*
X135485000Y-117570000D01*
D21*
G36*
X142632973Y-94572916D02*
G01*
X142625647Y-94626002D01*
X142604880Y-94677066D01*
X142586533Y-94704862D01*
X142566762Y-94727796D01*
X142545316Y-94748611D01*
X142537091Y-94755295D01*
X142512200Y-94773750D01*
X142511990Y-95187135D01*
X142511780Y-95600520D01*
X142466060Y-95600520D01*
X142466060Y-94568010D01*
X142462993Y-94533815D01*
X142452425Y-94511758D01*
X142432302Y-94499743D01*
X142400571Y-94495675D01*
X142395126Y-94495620D01*
X142369471Y-94497395D01*
X142348642Y-94501928D01*
X142341368Y-94505349D01*
X142328147Y-94523345D01*
X142321167Y-94549891D01*
X142320437Y-94579667D01*
X142325968Y-94607350D01*
X142337768Y-94627617D01*
X142341138Y-94630503D01*
X142361243Y-94638286D01*
X142388749Y-94640836D01*
X142417520Y-94638449D01*
X142441420Y-94631426D01*
X142450820Y-94625160D01*
X142460675Y-94610476D01*
X142465275Y-94589019D01*
X142466060Y-94568010D01*
X142466060Y-95600520D01*
X142393670Y-95600520D01*
X142275560Y-95600520D01*
X142275538Y-95187135D01*
X142275516Y-94773750D01*
X142252201Y-94758510D01*
X142229413Y-94738852D01*
X142204732Y-94710103D01*
X142182010Y-94677288D01*
X142165096Y-94645432D01*
X142164549Y-94644138D01*
X142154092Y-94602865D01*
X142152886Y-94555699D01*
X142160640Y-94508625D01*
X142172735Y-94475796D01*
X142203619Y-94427660D01*
X142245067Y-94384707D01*
X142292441Y-94351609D01*
X142299757Y-94347791D01*
X142349277Y-94331142D01*
X142402753Y-94326996D01*
X142455427Y-94335355D01*
X142487583Y-94347791D01*
X142539067Y-94380713D01*
X142579907Y-94421705D01*
X142609544Y-94468748D01*
X142627419Y-94519825D01*
X142632973Y-94572916D01*
G37*
X142632973Y-94572916D02*
X142625647Y-94626002D01*
X142604880Y-94677066D01*
X142586533Y-94704862D01*
X142566762Y-94727796D01*
X142545316Y-94748611D01*
X142537091Y-94755295D01*
X142512200Y-94773750D01*
X142511990Y-95187135D01*
X142511780Y-95600520D01*
X142466060Y-95600520D01*
X142466060Y-94568010D01*
X142462993Y-94533815D01*
X142452425Y-94511758D01*
X142432302Y-94499743D01*
X142400571Y-94495675D01*
X142395126Y-94495620D01*
X142369471Y-94497395D01*
X142348642Y-94501928D01*
X142341368Y-94505349D01*
X142328147Y-94523345D01*
X142321167Y-94549891D01*
X142320437Y-94579667D01*
X142325968Y-94607350D01*
X142337768Y-94627617D01*
X142341138Y-94630503D01*
X142361243Y-94638286D01*
X142388749Y-94640836D01*
X142417520Y-94638449D01*
X142441420Y-94631426D01*
X142450820Y-94625160D01*
X142460675Y-94610476D01*
X142465275Y-94589019D01*
X142466060Y-94568010D01*
X142466060Y-95600520D01*
X142393670Y-95600520D01*
X142275560Y-95600520D01*
X142275538Y-95187135D01*
X142275516Y-94773750D01*
X142252201Y-94758510D01*
X142229413Y-94738852D01*
X142204732Y-94710103D01*
X142182010Y-94677288D01*
X142165096Y-94645432D01*
X142164549Y-94644138D01*
X142154092Y-94602865D01*
X142152886Y-94555699D01*
X142160640Y-94508625D01*
X142172735Y-94475796D01*
X142203619Y-94427660D01*
X142245067Y-94384707D01*
X142292441Y-94351609D01*
X142299757Y-94347791D01*
X142349277Y-94331142D01*
X142402753Y-94326996D01*
X142455427Y-94335355D01*
X142487583Y-94347791D01*
X142539067Y-94380713D01*
X142579907Y-94421705D01*
X142609544Y-94468748D01*
X142627419Y-94519825D01*
X142632973Y-94572916D01*
G36*
X141484319Y-95260469D02*
G01*
X141484196Y-95341315D01*
X141483828Y-95420484D01*
X141483215Y-95496439D01*
X141482356Y-95567645D01*
X141481251Y-95632565D01*
X141479900Y-95689665D01*
X141478301Y-95737407D01*
X141476455Y-95774258D01*
X141474361Y-95798680D01*
X141472436Y-95808410D01*
X141463077Y-95822554D01*
X141444708Y-95844533D01*
X141419511Y-95872183D01*
X141389672Y-95903335D01*
X141357374Y-95935824D01*
X141324802Y-95967484D01*
X141294138Y-95996148D01*
X141267568Y-96019650D01*
X141247274Y-96035824D01*
X141246860Y-96036073D01*
X141246860Y-95719070D01*
X141246860Y-95254221D01*
X141246860Y-94789372D01*
X141195629Y-94737746D01*
X141144399Y-94686120D01*
X140965316Y-94686120D01*
X140786232Y-94686120D01*
X140734606Y-94737351D01*
X140710714Y-94761358D01*
X140695636Y-94778321D01*
X140687344Y-94791906D01*
X140683812Y-94805780D01*
X140683012Y-94823609D01*
X140683002Y-94830696D01*
X140683817Y-94855693D01*
X140687666Y-94870776D01*
X140696707Y-94881243D01*
X140706339Y-94888050D01*
X140731007Y-94909443D01*
X140756443Y-94940045D01*
X140778743Y-94974561D01*
X140793520Y-95006302D01*
X140804400Y-95059092D01*
X140801596Y-95113326D01*
X140786045Y-95166152D01*
X140758684Y-95214717D01*
X140720449Y-95256166D01*
X140708291Y-95265835D01*
X140683400Y-95284290D01*
X140683190Y-95497459D01*
X140682980Y-95710627D01*
X140734211Y-95762254D01*
X140785441Y-95813880D01*
X140968321Y-95813880D01*
X141151200Y-95813880D01*
X141199030Y-95766475D01*
X141246860Y-95719070D01*
X141246860Y-96036073D01*
X141236839Y-96042102D01*
X141221810Y-96044766D01*
X141193967Y-96046904D01*
X141155595Y-96048531D01*
X141108978Y-96049660D01*
X141056400Y-96050304D01*
X141000144Y-96050478D01*
X140942497Y-96050195D01*
X140885740Y-96049470D01*
X140832160Y-96048314D01*
X140784039Y-96046743D01*
X140743663Y-96044770D01*
X140713314Y-96042409D01*
X140695279Y-96039672D01*
X140692748Y-96038842D01*
X140677702Y-96029161D01*
X140654750Y-96010578D01*
X140637260Y-95995121D01*
X140637260Y-95078550D01*
X140634193Y-95044355D01*
X140623625Y-95022298D01*
X140603502Y-95010283D01*
X140571771Y-95006215D01*
X140566326Y-95006160D01*
X140540671Y-95007935D01*
X140519842Y-95012468D01*
X140512568Y-95015889D01*
X140499347Y-95033885D01*
X140492367Y-95060431D01*
X140491637Y-95090207D01*
X140497168Y-95117890D01*
X140508968Y-95138157D01*
X140512338Y-95141043D01*
X140532443Y-95148826D01*
X140559949Y-95151376D01*
X140588720Y-95148989D01*
X140612620Y-95141966D01*
X140622020Y-95135700D01*
X140631875Y-95121016D01*
X140636475Y-95099559D01*
X140637260Y-95078550D01*
X140637260Y-95995121D01*
X140626142Y-95985295D01*
X140594127Y-95955509D01*
X140560953Y-95923423D01*
X140528872Y-95891234D01*
X140500131Y-95861144D01*
X140476980Y-95835352D01*
X140461669Y-95816058D01*
X140457136Y-95808410D01*
X140454109Y-95797799D01*
X140451687Y-95780833D01*
X140449815Y-95756081D01*
X140448439Y-95722113D01*
X140447505Y-95677498D01*
X140446958Y-95620806D01*
X140446746Y-95550605D01*
X140446738Y-95534090D01*
X140446716Y-95284290D01*
X140423401Y-95269050D01*
X140400613Y-95249392D01*
X140375932Y-95220643D01*
X140353210Y-95187828D01*
X140336296Y-95155972D01*
X140335749Y-95154678D01*
X140327498Y-95122773D01*
X140324355Y-95083296D01*
X140326317Y-95043035D01*
X140333386Y-95008775D01*
X140335749Y-95002422D01*
X140352320Y-94970723D01*
X140374869Y-94937845D01*
X140399544Y-94908813D01*
X140422496Y-94888652D01*
X140423401Y-94888050D01*
X140446716Y-94872810D01*
X140446738Y-94799011D01*
X140447565Y-94764419D01*
X140449761Y-94733387D01*
X140452935Y-94710589D01*
X140454756Y-94703761D01*
X140463218Y-94690425D01*
X140480811Y-94668949D01*
X140505415Y-94641473D01*
X140534908Y-94610132D01*
X140567168Y-94577067D01*
X140600076Y-94544414D01*
X140631508Y-94514312D01*
X140659344Y-94488899D01*
X140681462Y-94470313D01*
X140695742Y-94460692D01*
X140696070Y-94460545D01*
X140711337Y-94457317D01*
X140739520Y-94454613D01*
X140778305Y-94452434D01*
X140825377Y-94450782D01*
X140878421Y-94449656D01*
X140935123Y-94449059D01*
X140993167Y-94448991D01*
X141050240Y-94449454D01*
X141104026Y-94450448D01*
X141152210Y-94451976D01*
X141192479Y-94454038D01*
X141222517Y-94456635D01*
X141240009Y-94459768D01*
X141241390Y-94460276D01*
X141256011Y-94469892D01*
X141278405Y-94488763D01*
X141306368Y-94514624D01*
X141337698Y-94545211D01*
X141370192Y-94578257D01*
X141401646Y-94611498D01*
X141429858Y-94642667D01*
X141452625Y-94669499D01*
X141467743Y-94689729D01*
X141472156Y-94697585D01*
X141474462Y-94710744D01*
X141476527Y-94737583D01*
X141478350Y-94776565D01*
X141479931Y-94826156D01*
X141481271Y-94884819D01*
X141482367Y-94951019D01*
X141483221Y-95023219D01*
X141483831Y-95099885D01*
X141484197Y-95179480D01*
X141484319Y-95260469D01*
G37*
X141484319Y-95260469D02*
X141484196Y-95341315D01*
X141483828Y-95420484D01*
X141483215Y-95496439D01*
X141482356Y-95567645D01*
X141481251Y-95632565D01*
X141479900Y-95689665D01*
X141478301Y-95737407D01*
X141476455Y-95774258D01*
X141474361Y-95798680D01*
X141472436Y-95808410D01*
X141463077Y-95822554D01*
X141444708Y-95844533D01*
X141419511Y-95872183D01*
X141389672Y-95903335D01*
X141357374Y-95935824D01*
X141324802Y-95967484D01*
X141294138Y-95996148D01*
X141267568Y-96019650D01*
X141247274Y-96035824D01*
X141246860Y-96036073D01*
X141246860Y-95719070D01*
X141246860Y-95254221D01*
X141246860Y-94789372D01*
X141195629Y-94737746D01*
X141144399Y-94686120D01*
X140965316Y-94686120D01*
X140786232Y-94686120D01*
X140734606Y-94737351D01*
X140710714Y-94761358D01*
X140695636Y-94778321D01*
X140687344Y-94791906D01*
X140683812Y-94805780D01*
X140683012Y-94823609D01*
X140683002Y-94830696D01*
X140683817Y-94855693D01*
X140687666Y-94870776D01*
X140696707Y-94881243D01*
X140706339Y-94888050D01*
X140731007Y-94909443D01*
X140756443Y-94940045D01*
X140778743Y-94974561D01*
X140793520Y-95006302D01*
X140804400Y-95059092D01*
X140801596Y-95113326D01*
X140786045Y-95166152D01*
X140758684Y-95214717D01*
X140720449Y-95256166D01*
X140708291Y-95265835D01*
X140683400Y-95284290D01*
X140683190Y-95497459D01*
X140682980Y-95710627D01*
X140734211Y-95762254D01*
X140785441Y-95813880D01*
X140968321Y-95813880D01*
X141151200Y-95813880D01*
X141199030Y-95766475D01*
X141246860Y-95719070D01*
X141246860Y-96036073D01*
X141236839Y-96042102D01*
X141221810Y-96044766D01*
X141193967Y-96046904D01*
X141155595Y-96048531D01*
X141108978Y-96049660D01*
X141056400Y-96050304D01*
X141000144Y-96050478D01*
X140942497Y-96050195D01*
X140885740Y-96049470D01*
X140832160Y-96048314D01*
X140784039Y-96046743D01*
X140743663Y-96044770D01*
X140713314Y-96042409D01*
X140695279Y-96039672D01*
X140692748Y-96038842D01*
X140677702Y-96029161D01*
X140654750Y-96010578D01*
X140637260Y-95995121D01*
X140637260Y-95078550D01*
X140634193Y-95044355D01*
X140623625Y-95022298D01*
X140603502Y-95010283D01*
X140571771Y-95006215D01*
X140566326Y-95006160D01*
X140540671Y-95007935D01*
X140519842Y-95012468D01*
X140512568Y-95015889D01*
X140499347Y-95033885D01*
X140492367Y-95060431D01*
X140491637Y-95090207D01*
X140497168Y-95117890D01*
X140508968Y-95138157D01*
X140512338Y-95141043D01*
X140532443Y-95148826D01*
X140559949Y-95151376D01*
X140588720Y-95148989D01*
X140612620Y-95141966D01*
X140622020Y-95135700D01*
X140631875Y-95121016D01*
X140636475Y-95099559D01*
X140637260Y-95078550D01*
X140637260Y-95995121D01*
X140626142Y-95985295D01*
X140594127Y-95955509D01*
X140560953Y-95923423D01*
X140528872Y-95891234D01*
X140500131Y-95861144D01*
X140476980Y-95835352D01*
X140461669Y-95816058D01*
X140457136Y-95808410D01*
X140454109Y-95797799D01*
X140451687Y-95780833D01*
X140449815Y-95756081D01*
X140448439Y-95722113D01*
X140447505Y-95677498D01*
X140446958Y-95620806D01*
X140446746Y-95550605D01*
X140446738Y-95534090D01*
X140446716Y-95284290D01*
X140423401Y-95269050D01*
X140400613Y-95249392D01*
X140375932Y-95220643D01*
X140353210Y-95187828D01*
X140336296Y-95155972D01*
X140335749Y-95154678D01*
X140327498Y-95122773D01*
X140324355Y-95083296D01*
X140326317Y-95043035D01*
X140333386Y-95008775D01*
X140335749Y-95002422D01*
X140352320Y-94970723D01*
X140374869Y-94937845D01*
X140399544Y-94908813D01*
X140422496Y-94888652D01*
X140423401Y-94888050D01*
X140446716Y-94872810D01*
X140446738Y-94799011D01*
X140447565Y-94764419D01*
X140449761Y-94733387D01*
X140452935Y-94710589D01*
X140454756Y-94703761D01*
X140463218Y-94690425D01*
X140480811Y-94668949D01*
X140505415Y-94641473D01*
X140534908Y-94610132D01*
X140567168Y-94577067D01*
X140600076Y-94544414D01*
X140631508Y-94514312D01*
X140659344Y-94488899D01*
X140681462Y-94470313D01*
X140695742Y-94460692D01*
X140696070Y-94460545D01*
X140711337Y-94457317D01*
X140739520Y-94454613D01*
X140778305Y-94452434D01*
X140825377Y-94450782D01*
X140878421Y-94449656D01*
X140935123Y-94449059D01*
X140993167Y-94448991D01*
X141050240Y-94449454D01*
X141104026Y-94450448D01*
X141152210Y-94451976D01*
X141192479Y-94454038D01*
X141222517Y-94456635D01*
X141240009Y-94459768D01*
X141241390Y-94460276D01*
X141256011Y-94469892D01*
X141278405Y-94488763D01*
X141306368Y-94514624D01*
X141337698Y-94545211D01*
X141370192Y-94578257D01*
X141401646Y-94611498D01*
X141429858Y-94642667D01*
X141452625Y-94669499D01*
X141467743Y-94689729D01*
X141472156Y-94697585D01*
X141474462Y-94710744D01*
X141476527Y-94737583D01*
X141478350Y-94776565D01*
X141479931Y-94826156D01*
X141481271Y-94884819D01*
X141482367Y-94951019D01*
X141483221Y-95023219D01*
X141483831Y-95099885D01*
X141484197Y-95179480D01*
X141484319Y-95260469D01*
G36*
X146692302Y-95922094D02*
G01*
X146690114Y-95970273D01*
X146680154Y-96013558D01*
X146674205Y-96027742D01*
X146650667Y-96064381D01*
X146617921Y-96100932D01*
X146581020Y-96132350D01*
X146550882Y-96150900D01*
X146527520Y-96158751D01*
X146527520Y-95931990D01*
X146524454Y-95897795D01*
X146513885Y-95875738D01*
X146493762Y-95863723D01*
X146462031Y-95859655D01*
X146456586Y-95859600D01*
X146430931Y-95861375D01*
X146410102Y-95865908D01*
X146402828Y-95869329D01*
X146389607Y-95887325D01*
X146382627Y-95913871D01*
X146381897Y-95943647D01*
X146387428Y-95971330D01*
X146399228Y-95991597D01*
X146402597Y-95994483D01*
X146422703Y-96002266D01*
X146450209Y-96004816D01*
X146478980Y-96002429D01*
X146502880Y-95995406D01*
X146512280Y-95989140D01*
X146522135Y-95974456D01*
X146526735Y-95952999D01*
X146527520Y-95931990D01*
X146527520Y-96158751D01*
X146515252Y-96162874D01*
X146472496Y-96169290D01*
X146428877Y-96169784D01*
X146390657Y-96163993D01*
X146380634Y-96160770D01*
X146330767Y-96134326D01*
X146285409Y-96096044D01*
X146247960Y-96049288D01*
X146225783Y-96007577D01*
X146217614Y-95975803D01*
X146214589Y-95936414D01*
X146216685Y-95896131D01*
X146223879Y-95861675D01*
X146226314Y-95855133D01*
X146238480Y-95826015D01*
X146125920Y-95713267D01*
X146013361Y-95600520D01*
X145971311Y-95600520D01*
X145929261Y-95600520D01*
X145685465Y-95845123D01*
X145634437Y-95896019D01*
X145585963Y-95943788D01*
X145541248Y-95987287D01*
X145501496Y-96025369D01*
X145467911Y-96056888D01*
X145441696Y-96080701D01*
X145424057Y-96095660D01*
X145417150Y-96100393D01*
X145401417Y-96103808D01*
X145372922Y-96106628D01*
X145334134Y-96108854D01*
X145287518Y-96110484D01*
X145235543Y-96111516D01*
X145180675Y-96111948D01*
X145125381Y-96111780D01*
X145072129Y-96111009D01*
X145023386Y-96109635D01*
X144981618Y-96107655D01*
X144949294Y-96105069D01*
X144928880Y-96101874D01*
X144925170Y-96100684D01*
X144910549Y-96091068D01*
X144888155Y-96072197D01*
X144860192Y-96046336D01*
X144828862Y-96015749D01*
X144796368Y-95982703D01*
X144764914Y-95949462D01*
X144736702Y-95918293D01*
X144713935Y-95891461D01*
X144698817Y-95871231D01*
X144694404Y-95863375D01*
X144692119Y-95850253D01*
X144690070Y-95823392D01*
X144688257Y-95784292D01*
X144686681Y-95734453D01*
X144685342Y-95675374D01*
X144684239Y-95608556D01*
X144683373Y-95535497D01*
X144682744Y-95457698D01*
X144682351Y-95376658D01*
X144682194Y-95293877D01*
X144682275Y-95210854D01*
X144682591Y-95129089D01*
X144683145Y-95050082D01*
X144683935Y-94975333D01*
X144684961Y-94906340D01*
X144686224Y-94844604D01*
X144687724Y-94791625D01*
X144689460Y-94748901D01*
X144691433Y-94717933D01*
X144693642Y-94700221D01*
X144694404Y-94697585D01*
X144704040Y-94682256D01*
X144722609Y-94659002D01*
X144747910Y-94630089D01*
X144777739Y-94597783D01*
X144809894Y-94564348D01*
X144842171Y-94532050D01*
X144872367Y-94503155D01*
X144898280Y-94479928D01*
X144917706Y-94464635D01*
X144925170Y-94460276D01*
X144941101Y-94456881D01*
X144969757Y-94454093D01*
X145008674Y-94451913D01*
X145055382Y-94450339D01*
X145107415Y-94449369D01*
X145162307Y-94449001D01*
X145217589Y-94449235D01*
X145270794Y-94450068D01*
X145319456Y-94451500D01*
X145361107Y-94453529D01*
X145393281Y-94456153D01*
X145413509Y-94459372D01*
X145417150Y-94460567D01*
X145427514Y-94468079D01*
X145447362Y-94485309D01*
X145475490Y-94511112D01*
X145510695Y-94544343D01*
X145551772Y-94583855D01*
X145597517Y-94628504D01*
X145646727Y-94677144D01*
X145685465Y-94715837D01*
X145929261Y-94960440D01*
X145971311Y-94960440D01*
X146013361Y-94960440D01*
X146125920Y-94847692D01*
X146238480Y-94734945D01*
X146226314Y-94705827D01*
X146215577Y-94663661D01*
X146214378Y-94615810D01*
X146222440Y-94568244D01*
X146234195Y-94536756D01*
X146265079Y-94488620D01*
X146306527Y-94445667D01*
X146353901Y-94412569D01*
X146361217Y-94408751D01*
X146410737Y-94392102D01*
X146464213Y-94387956D01*
X146516887Y-94396315D01*
X146549043Y-94408751D01*
X146593471Y-94437297D01*
X146633961Y-94475123D01*
X146665706Y-94517484D01*
X146673452Y-94531663D01*
X146683498Y-94555926D01*
X146689052Y-94581259D01*
X146691201Y-94613559D01*
X146691350Y-94628970D01*
X146687866Y-94678951D01*
X146676083Y-94720444D01*
X146654006Y-94758189D01*
X146621366Y-94795206D01*
X146574104Y-94833813D01*
X146527520Y-94856034D01*
X146527520Y-94628970D01*
X146524454Y-94594775D01*
X146513885Y-94572718D01*
X146493762Y-94560703D01*
X146462031Y-94556635D01*
X146456586Y-94556580D01*
X146430931Y-94558355D01*
X146410102Y-94562888D01*
X146402828Y-94566309D01*
X146389607Y-94584305D01*
X146382627Y-94610851D01*
X146381897Y-94640627D01*
X146387428Y-94668310D01*
X146399228Y-94688577D01*
X146402597Y-94691463D01*
X146422703Y-94699246D01*
X146450209Y-94701796D01*
X146478980Y-94699409D01*
X146502880Y-94692386D01*
X146512280Y-94686120D01*
X146522135Y-94671436D01*
X146526735Y-94649979D01*
X146527520Y-94628970D01*
X146527520Y-94856034D01*
X146523808Y-94857805D01*
X146474594Y-94867346D01*
X146432270Y-94870509D01*
X146276060Y-95025600D01*
X146235079Y-95065836D01*
X146196617Y-95102749D01*
X146162256Y-95134885D01*
X146133578Y-95160793D01*
X146112163Y-95179023D01*
X146099594Y-95188121D01*
X146098399Y-95188675D01*
X146079362Y-95192570D01*
X146049132Y-95195197D01*
X146011425Y-95196594D01*
X145969957Y-95196801D01*
X145928445Y-95195855D01*
X145890604Y-95193795D01*
X145860150Y-95190659D01*
X145840800Y-95186487D01*
X145839570Y-95185993D01*
X145829206Y-95178481D01*
X145809358Y-95161251D01*
X145781230Y-95135448D01*
X145746025Y-95102217D01*
X145704948Y-95062705D01*
X145659203Y-95018056D01*
X145609993Y-94969416D01*
X145571255Y-94930723D01*
X145327459Y-94686120D01*
X145174810Y-94686120D01*
X145022161Y-94686120D01*
X144970931Y-94737746D01*
X144919700Y-94789372D01*
X144919700Y-94962536D01*
X144919700Y-95135700D01*
X145070195Y-95135678D01*
X145220690Y-95135656D01*
X145235930Y-95112341D01*
X145255326Y-95089837D01*
X145283717Y-95065345D01*
X145316041Y-95042762D01*
X145347237Y-95025986D01*
X145349163Y-95025165D01*
X145388013Y-95015310D01*
X145433431Y-95013551D01*
X145479267Y-95019586D01*
X145519371Y-95033112D01*
X145520343Y-95033591D01*
X145564771Y-95062137D01*
X145605261Y-95099963D01*
X145637006Y-95142324D01*
X145644752Y-95156503D01*
X145658040Y-95196748D01*
X145663602Y-95243914D01*
X145661414Y-95292093D01*
X145651454Y-95335378D01*
X145645505Y-95349562D01*
X145622011Y-95386149D01*
X145589355Y-95422619D01*
X145552561Y-95453954D01*
X145522182Y-95472616D01*
X145498820Y-95480398D01*
X145498820Y-95253810D01*
X145495754Y-95219615D01*
X145485185Y-95197558D01*
X145465062Y-95185543D01*
X145433331Y-95181475D01*
X145427886Y-95181420D01*
X145402231Y-95183195D01*
X145381402Y-95187728D01*
X145374128Y-95191149D01*
X145360907Y-95209145D01*
X145353927Y-95235691D01*
X145353197Y-95265467D01*
X145358728Y-95293150D01*
X145370528Y-95313417D01*
X145373897Y-95316303D01*
X145394003Y-95324086D01*
X145421509Y-95326636D01*
X145450280Y-95324249D01*
X145474180Y-95317226D01*
X145483580Y-95310960D01*
X145493435Y-95296276D01*
X145498035Y-95274819D01*
X145498820Y-95253810D01*
X145498820Y-95480398D01*
X145479263Y-95486912D01*
X145430660Y-95492798D01*
X145383111Y-95489826D01*
X145357800Y-95483572D01*
X145322860Y-95467662D01*
X145287246Y-95444849D01*
X145256185Y-95418921D01*
X145235930Y-95395279D01*
X145220690Y-95371964D01*
X145070195Y-95371942D01*
X144919700Y-95371920D01*
X144919700Y-95572149D01*
X144919700Y-95772379D01*
X144971326Y-95823609D01*
X145022952Y-95874840D01*
X145175206Y-95874840D01*
X145327459Y-95874840D01*
X145571255Y-95630237D01*
X145622283Y-95579341D01*
X145670757Y-95531572D01*
X145715472Y-95488073D01*
X145755224Y-95449991D01*
X145788809Y-95418471D01*
X145815024Y-95394659D01*
X145832663Y-95379700D01*
X145839570Y-95374967D01*
X145859377Y-95370076D01*
X145890554Y-95366587D01*
X145929296Y-95364500D01*
X145971795Y-95363815D01*
X146014248Y-95364532D01*
X146052849Y-95366652D01*
X146083791Y-95370174D01*
X146102950Y-95374957D01*
X146114620Y-95383043D01*
X146135292Y-95400536D01*
X146163337Y-95425926D01*
X146197123Y-95457701D01*
X146235021Y-95494352D01*
X146275398Y-95534368D01*
X146279799Y-95538787D01*
X146432127Y-95691960D01*
X146470707Y-95691960D01*
X146515054Y-95698929D01*
X146560370Y-95718360D01*
X146603514Y-95748042D01*
X146641342Y-95785763D01*
X146670713Y-95829309D01*
X146673452Y-95834683D01*
X146686740Y-95874928D01*
X146692302Y-95922094D01*
G37*
X146692302Y-95922094D02*
X146690114Y-95970273D01*
X146680154Y-96013558D01*
X146674205Y-96027742D01*
X146650667Y-96064381D01*
X146617921Y-96100932D01*
X146581020Y-96132350D01*
X146550882Y-96150900D01*
X146527520Y-96158751D01*
X146527520Y-95931990D01*
X146524454Y-95897795D01*
X146513885Y-95875738D01*
X146493762Y-95863723D01*
X146462031Y-95859655D01*
X146456586Y-95859600D01*
X146430931Y-95861375D01*
X146410102Y-95865908D01*
X146402828Y-95869329D01*
X146389607Y-95887325D01*
X146382627Y-95913871D01*
X146381897Y-95943647D01*
X146387428Y-95971330D01*
X146399228Y-95991597D01*
X146402597Y-95994483D01*
X146422703Y-96002266D01*
X146450209Y-96004816D01*
X146478980Y-96002429D01*
X146502880Y-95995406D01*
X146512280Y-95989140D01*
X146522135Y-95974456D01*
X146526735Y-95952999D01*
X146527520Y-95931990D01*
X146527520Y-96158751D01*
X146515252Y-96162874D01*
X146472496Y-96169290D01*
X146428877Y-96169784D01*
X146390657Y-96163993D01*
X146380634Y-96160770D01*
X146330767Y-96134326D01*
X146285409Y-96096044D01*
X146247960Y-96049288D01*
X146225783Y-96007577D01*
X146217614Y-95975803D01*
X146214589Y-95936414D01*
X146216685Y-95896131D01*
X146223879Y-95861675D01*
X146226314Y-95855133D01*
X146238480Y-95826015D01*
X146125920Y-95713267D01*
X146013361Y-95600520D01*
X145971311Y-95600520D01*
X145929261Y-95600520D01*
X145685465Y-95845123D01*
X145634437Y-95896019D01*
X145585963Y-95943788D01*
X145541248Y-95987287D01*
X145501496Y-96025369D01*
X145467911Y-96056888D01*
X145441696Y-96080701D01*
X145424057Y-96095660D01*
X145417150Y-96100393D01*
X145401417Y-96103808D01*
X145372922Y-96106628D01*
X145334134Y-96108854D01*
X145287518Y-96110484D01*
X145235543Y-96111516D01*
X145180675Y-96111948D01*
X145125381Y-96111780D01*
X145072129Y-96111009D01*
X145023386Y-96109635D01*
X144981618Y-96107655D01*
X144949294Y-96105069D01*
X144928880Y-96101874D01*
X144925170Y-96100684D01*
X144910549Y-96091068D01*
X144888155Y-96072197D01*
X144860192Y-96046336D01*
X144828862Y-96015749D01*
X144796368Y-95982703D01*
X144764914Y-95949462D01*
X144736702Y-95918293D01*
X144713935Y-95891461D01*
X144698817Y-95871231D01*
X144694404Y-95863375D01*
X144692119Y-95850253D01*
X144690070Y-95823392D01*
X144688257Y-95784292D01*
X144686681Y-95734453D01*
X144685342Y-95675374D01*
X144684239Y-95608556D01*
X144683373Y-95535497D01*
X144682744Y-95457698D01*
X144682351Y-95376658D01*
X144682194Y-95293877D01*
X144682275Y-95210854D01*
X144682591Y-95129089D01*
X144683145Y-95050082D01*
X144683935Y-94975333D01*
X144684961Y-94906340D01*
X144686224Y-94844604D01*
X144687724Y-94791625D01*
X144689460Y-94748901D01*
X144691433Y-94717933D01*
X144693642Y-94700221D01*
X144694404Y-94697585D01*
X144704040Y-94682256D01*
X144722609Y-94659002D01*
X144747910Y-94630089D01*
X144777739Y-94597783D01*
X144809894Y-94564348D01*
X144842171Y-94532050D01*
X144872367Y-94503155D01*
X144898280Y-94479928D01*
X144917706Y-94464635D01*
X144925170Y-94460276D01*
X144941101Y-94456881D01*
X144969757Y-94454093D01*
X145008674Y-94451913D01*
X145055382Y-94450339D01*
X145107415Y-94449369D01*
X145162307Y-94449001D01*
X145217589Y-94449235D01*
X145270794Y-94450068D01*
X145319456Y-94451500D01*
X145361107Y-94453529D01*
X145393281Y-94456153D01*
X145413509Y-94459372D01*
X145417150Y-94460567D01*
X145427514Y-94468079D01*
X145447362Y-94485309D01*
X145475490Y-94511112D01*
X145510695Y-94544343D01*
X145551772Y-94583855D01*
X145597517Y-94628504D01*
X145646727Y-94677144D01*
X145685465Y-94715837D01*
X145929261Y-94960440D01*
X145971311Y-94960440D01*
X146013361Y-94960440D01*
X146125920Y-94847692D01*
X146238480Y-94734945D01*
X146226314Y-94705827D01*
X146215577Y-94663661D01*
X146214378Y-94615810D01*
X146222440Y-94568244D01*
X146234195Y-94536756D01*
X146265079Y-94488620D01*
X146306527Y-94445667D01*
X146353901Y-94412569D01*
X146361217Y-94408751D01*
X146410737Y-94392102D01*
X146464213Y-94387956D01*
X146516887Y-94396315D01*
X146549043Y-94408751D01*
X146593471Y-94437297D01*
X146633961Y-94475123D01*
X146665706Y-94517484D01*
X146673452Y-94531663D01*
X146683498Y-94555926D01*
X146689052Y-94581259D01*
X146691201Y-94613559D01*
X146691350Y-94628970D01*
X146687866Y-94678951D01*
X146676083Y-94720444D01*
X146654006Y-94758189D01*
X146621366Y-94795206D01*
X146574104Y-94833813D01*
X146527520Y-94856034D01*
X146527520Y-94628970D01*
X146524454Y-94594775D01*
X146513885Y-94572718D01*
X146493762Y-94560703D01*
X146462031Y-94556635D01*
X146456586Y-94556580D01*
X146430931Y-94558355D01*
X146410102Y-94562888D01*
X146402828Y-94566309D01*
X146389607Y-94584305D01*
X146382627Y-94610851D01*
X146381897Y-94640627D01*
X146387428Y-94668310D01*
X146399228Y-94688577D01*
X146402597Y-94691463D01*
X146422703Y-94699246D01*
X146450209Y-94701796D01*
X146478980Y-94699409D01*
X146502880Y-94692386D01*
X146512280Y-94686120D01*
X146522135Y-94671436D01*
X146526735Y-94649979D01*
X146527520Y-94628970D01*
X146527520Y-94856034D01*
X146523808Y-94857805D01*
X146474594Y-94867346D01*
X146432270Y-94870509D01*
X146276060Y-95025600D01*
X146235079Y-95065836D01*
X146196617Y-95102749D01*
X146162256Y-95134885D01*
X146133578Y-95160793D01*
X146112163Y-95179023D01*
X146099594Y-95188121D01*
X146098399Y-95188675D01*
X146079362Y-95192570D01*
X146049132Y-95195197D01*
X146011425Y-95196594D01*
X145969957Y-95196801D01*
X145928445Y-95195855D01*
X145890604Y-95193795D01*
X145860150Y-95190659D01*
X145840800Y-95186487D01*
X145839570Y-95185993D01*
X145829206Y-95178481D01*
X145809358Y-95161251D01*
X145781230Y-95135448D01*
X145746025Y-95102217D01*
X145704948Y-95062705D01*
X145659203Y-95018056D01*
X145609993Y-94969416D01*
X145571255Y-94930723D01*
X145327459Y-94686120D01*
X145174810Y-94686120D01*
X145022161Y-94686120D01*
X144970931Y-94737746D01*
X144919700Y-94789372D01*
X144919700Y-94962536D01*
X144919700Y-95135700D01*
X145070195Y-95135678D01*
X145220690Y-95135656D01*
X145235930Y-95112341D01*
X145255326Y-95089837D01*
X145283717Y-95065345D01*
X145316041Y-95042762D01*
X145347237Y-95025986D01*
X145349163Y-95025165D01*
X145388013Y-95015310D01*
X145433431Y-95013551D01*
X145479267Y-95019586D01*
X145519371Y-95033112D01*
X145520343Y-95033591D01*
X145564771Y-95062137D01*
X145605261Y-95099963D01*
X145637006Y-95142324D01*
X145644752Y-95156503D01*
X145658040Y-95196748D01*
X145663602Y-95243914D01*
X145661414Y-95292093D01*
X145651454Y-95335378D01*
X145645505Y-95349562D01*
X145622011Y-95386149D01*
X145589355Y-95422619D01*
X145552561Y-95453954D01*
X145522182Y-95472616D01*
X145498820Y-95480398D01*
X145498820Y-95253810D01*
X145495754Y-95219615D01*
X145485185Y-95197558D01*
X145465062Y-95185543D01*
X145433331Y-95181475D01*
X145427886Y-95181420D01*
X145402231Y-95183195D01*
X145381402Y-95187728D01*
X145374128Y-95191149D01*
X145360907Y-95209145D01*
X145353927Y-95235691D01*
X145353197Y-95265467D01*
X145358728Y-95293150D01*
X145370528Y-95313417D01*
X145373897Y-95316303D01*
X145394003Y-95324086D01*
X145421509Y-95326636D01*
X145450280Y-95324249D01*
X145474180Y-95317226D01*
X145483580Y-95310960D01*
X145493435Y-95296276D01*
X145498035Y-95274819D01*
X145498820Y-95253810D01*
X145498820Y-95480398D01*
X145479263Y-95486912D01*
X145430660Y-95492798D01*
X145383111Y-95489826D01*
X145357800Y-95483572D01*
X145322860Y-95467662D01*
X145287246Y-95444849D01*
X145256185Y-95418921D01*
X145235930Y-95395279D01*
X145220690Y-95371964D01*
X145070195Y-95371942D01*
X144919700Y-95371920D01*
X144919700Y-95572149D01*
X144919700Y-95772379D01*
X144971326Y-95823609D01*
X145022952Y-95874840D01*
X145175206Y-95874840D01*
X145327459Y-95874840D01*
X145571255Y-95630237D01*
X145622283Y-95579341D01*
X145670757Y-95531572D01*
X145715472Y-95488073D01*
X145755224Y-95449991D01*
X145788809Y-95418471D01*
X145815024Y-95394659D01*
X145832663Y-95379700D01*
X145839570Y-95374967D01*
X145859377Y-95370076D01*
X145890554Y-95366587D01*
X145929296Y-95364500D01*
X145971795Y-95363815D01*
X146014248Y-95364532D01*
X146052849Y-95366652D01*
X146083791Y-95370174D01*
X146102950Y-95374957D01*
X146114620Y-95383043D01*
X146135292Y-95400536D01*
X146163337Y-95425926D01*
X146197123Y-95457701D01*
X146235021Y-95494352D01*
X146275398Y-95534368D01*
X146279799Y-95538787D01*
X146432127Y-95691960D01*
X146470707Y-95691960D01*
X146515054Y-95698929D01*
X146560370Y-95718360D01*
X146603514Y-95748042D01*
X146641342Y-95785763D01*
X146670713Y-95829309D01*
X146673452Y-95834683D01*
X146686740Y-95874928D01*
X146692302Y-95922094D01*
G36*
X144575057Y-95907021D02*
G01*
X144574454Y-95955796D01*
X144565170Y-96002946D01*
X144555576Y-96027742D01*
X144532415Y-96064127D01*
X144499912Y-96100594D01*
X144463084Y-96132112D01*
X144432522Y-96151065D01*
X144409160Y-96158681D01*
X144409160Y-95931990D01*
X144406093Y-95897795D01*
X144395525Y-95875738D01*
X144375402Y-95863723D01*
X144343671Y-95859655D01*
X144338226Y-95859600D01*
X144312571Y-95861375D01*
X144291742Y-95865908D01*
X144284468Y-95869329D01*
X144271247Y-95887325D01*
X144264267Y-95913871D01*
X144263537Y-95943647D01*
X144269068Y-95971330D01*
X144280868Y-95991597D01*
X144284238Y-95994483D01*
X144304343Y-96002266D01*
X144331849Y-96004816D01*
X144360620Y-96002429D01*
X144384520Y-95995406D01*
X144393920Y-95989140D01*
X144403775Y-95974456D01*
X144408375Y-95952999D01*
X144409160Y-95931990D01*
X144409160Y-96158681D01*
X144392719Y-96164041D01*
X144345735Y-96169235D01*
X144297475Y-96166672D01*
X144253850Y-96156373D01*
X144239463Y-96150312D01*
X144196301Y-96122247D01*
X144156304Y-96083753D01*
X144124119Y-96039570D01*
X144115835Y-96024204D01*
X144101288Y-95981365D01*
X144095474Y-95933759D01*
X144098683Y-95887372D01*
X144107649Y-95855862D01*
X144124220Y-95824163D01*
X144146769Y-95791285D01*
X144171444Y-95762253D01*
X144194396Y-95742092D01*
X144195301Y-95741490D01*
X144218616Y-95726250D01*
X144218638Y-95206185D01*
X144218660Y-94686120D01*
X144186219Y-94686120D01*
X144177486Y-94686327D01*
X144169286Y-94687644D01*
X144160402Y-94691112D01*
X144149618Y-94697775D01*
X144135714Y-94708673D01*
X144117476Y-94724850D01*
X144093683Y-94747347D01*
X144063121Y-94777208D01*
X144024571Y-94815473D01*
X143976816Y-94863186D01*
X143961429Y-94878580D01*
X143769080Y-95071040D01*
X143769102Y-95143375D01*
X143769267Y-95176999D01*
X143770354Y-95198842D01*
X143773283Y-95212361D01*
X143778977Y-95221015D01*
X143788356Y-95228263D01*
X143792439Y-95230950D01*
X143817862Y-95253062D01*
X143843698Y-95284597D01*
X143866162Y-95320331D01*
X143880732Y-95352820D01*
X143889257Y-95396481D01*
X143888654Y-95445256D01*
X143879370Y-95492406D01*
X143869776Y-95517202D01*
X143846615Y-95553587D01*
X143814112Y-95590053D01*
X143777284Y-95621572D01*
X143746722Y-95640524D01*
X143723360Y-95648141D01*
X143723360Y-95421450D01*
X143720293Y-95387255D01*
X143709725Y-95365198D01*
X143689602Y-95353183D01*
X143657871Y-95349115D01*
X143652426Y-95349060D01*
X143626771Y-95350835D01*
X143605942Y-95355368D01*
X143598668Y-95358789D01*
X143585447Y-95376785D01*
X143578467Y-95403331D01*
X143577737Y-95433107D01*
X143583268Y-95460790D01*
X143595068Y-95481057D01*
X143598438Y-95483943D01*
X143618543Y-95491726D01*
X143646049Y-95494276D01*
X143674820Y-95491889D01*
X143698720Y-95484866D01*
X143708120Y-95478600D01*
X143717975Y-95463916D01*
X143722575Y-95442459D01*
X143723360Y-95421450D01*
X143723360Y-95648141D01*
X143706919Y-95653501D01*
X143659935Y-95658695D01*
X143611675Y-95656132D01*
X143568050Y-95645833D01*
X143553664Y-95639772D01*
X143510501Y-95611707D01*
X143470504Y-95573213D01*
X143438319Y-95529030D01*
X143430035Y-95513664D01*
X143415488Y-95470825D01*
X143409674Y-95423219D01*
X143412883Y-95376832D01*
X143421849Y-95345322D01*
X143438420Y-95313623D01*
X143460969Y-95280745D01*
X143485644Y-95251713D01*
X143508596Y-95231552D01*
X143509501Y-95230950D01*
X143520306Y-95223405D01*
X143527120Y-95215600D01*
X143530864Y-95204078D01*
X143532460Y-95185379D01*
X143532828Y-95156046D01*
X143532838Y-95143375D01*
X143532860Y-95071040D01*
X143340511Y-94878580D01*
X143289924Y-94827999D01*
X143248887Y-94787160D01*
X143216183Y-94755022D01*
X143190594Y-94730543D01*
X143170904Y-94712679D01*
X143155895Y-94700390D01*
X143144350Y-94692632D01*
X143135051Y-94688364D01*
X143126781Y-94686543D01*
X143118323Y-94686127D01*
X143115721Y-94686120D01*
X143083280Y-94686120D01*
X143083302Y-95206185D01*
X143083324Y-95726250D01*
X143106639Y-95741490D01*
X143132062Y-95763602D01*
X143157898Y-95795137D01*
X143180362Y-95830871D01*
X143194932Y-95863360D01*
X143203457Y-95907021D01*
X143202854Y-95955796D01*
X143193570Y-96002946D01*
X143183976Y-96027742D01*
X143160756Y-96064213D01*
X143128205Y-96100694D01*
X143091367Y-96132136D01*
X143060922Y-96150900D01*
X143037560Y-96158751D01*
X143037560Y-95931990D01*
X143034493Y-95897795D01*
X143023925Y-95875738D01*
X143003802Y-95863723D01*
X142972071Y-95859655D01*
X142966626Y-95859600D01*
X142940971Y-95861375D01*
X142920142Y-95865908D01*
X142912868Y-95869329D01*
X142899647Y-95887325D01*
X142892667Y-95913871D01*
X142891937Y-95943647D01*
X142897468Y-95971330D01*
X142909268Y-95991597D01*
X142912638Y-95994483D01*
X142932743Y-96002266D01*
X142960249Y-96004816D01*
X142989020Y-96002429D01*
X143012920Y-95995406D01*
X143022320Y-95989140D01*
X143032175Y-95974456D01*
X143036775Y-95952999D01*
X143037560Y-95931990D01*
X143037560Y-96158751D01*
X143025292Y-96162874D01*
X142982536Y-96169290D01*
X142938917Y-96169784D01*
X142900697Y-96163993D01*
X142890674Y-96160770D01*
X142840807Y-96134326D01*
X142795449Y-96096044D01*
X142758000Y-96049288D01*
X142735823Y-96007577D01*
X142727731Y-95976138D01*
X142724648Y-95937049D01*
X142726564Y-95897051D01*
X142733468Y-95862885D01*
X142736049Y-95855862D01*
X142752620Y-95824163D01*
X142775169Y-95791285D01*
X142799844Y-95762253D01*
X142822796Y-95742092D01*
X142823701Y-95741490D01*
X142847016Y-95726250D01*
X142847038Y-95088075D01*
X142847060Y-94449900D01*
X143029444Y-94449900D01*
X143088251Y-94450240D01*
X143139650Y-94451214D01*
X143181798Y-94452748D01*
X143212855Y-94454771D01*
X143230979Y-94457211D01*
X143233279Y-94457880D01*
X143243473Y-94464977D01*
X143263018Y-94481654D01*
X143290561Y-94506643D01*
X143324748Y-94538674D01*
X143364224Y-94576481D01*
X143407637Y-94618795D01*
X143452904Y-94663621D01*
X143651079Y-94861383D01*
X143845335Y-94666304D01*
X143890938Y-94620887D01*
X143934097Y-94578625D01*
X143973422Y-94540823D01*
X144007523Y-94508791D01*
X144035009Y-94483835D01*
X144054491Y-94467264D01*
X144064110Y-94460563D01*
X144076272Y-94456940D01*
X144095130Y-94454172D01*
X144122393Y-94452172D01*
X144159768Y-94450852D01*
X144208961Y-94450123D01*
X144271679Y-94449900D01*
X144271755Y-94449900D01*
X144454880Y-94449900D01*
X144454902Y-95088075D01*
X144454924Y-95726250D01*
X144478239Y-95741490D01*
X144503662Y-95763602D01*
X144529498Y-95795137D01*
X144551962Y-95830871D01*
X144566532Y-95863360D01*
X144575057Y-95907021D01*
G37*
X144575057Y-95907021D02*
X144574454Y-95955796D01*
X144565170Y-96002946D01*
X144555576Y-96027742D01*
X144532415Y-96064127D01*
X144499912Y-96100594D01*
X144463084Y-96132112D01*
X144432522Y-96151065D01*
X144409160Y-96158681D01*
X144409160Y-95931990D01*
X144406093Y-95897795D01*
X144395525Y-95875738D01*
X144375402Y-95863723D01*
X144343671Y-95859655D01*
X144338226Y-95859600D01*
X144312571Y-95861375D01*
X144291742Y-95865908D01*
X144284468Y-95869329D01*
X144271247Y-95887325D01*
X144264267Y-95913871D01*
X144263537Y-95943647D01*
X144269068Y-95971330D01*
X144280868Y-95991597D01*
X144284238Y-95994483D01*
X144304343Y-96002266D01*
X144331849Y-96004816D01*
X144360620Y-96002429D01*
X144384520Y-95995406D01*
X144393920Y-95989140D01*
X144403775Y-95974456D01*
X144408375Y-95952999D01*
X144409160Y-95931990D01*
X144409160Y-96158681D01*
X144392719Y-96164041D01*
X144345735Y-96169235D01*
X144297475Y-96166672D01*
X144253850Y-96156373D01*
X144239463Y-96150312D01*
X144196301Y-96122247D01*
X144156304Y-96083753D01*
X144124119Y-96039570D01*
X144115835Y-96024204D01*
X144101288Y-95981365D01*
X144095474Y-95933759D01*
X144098683Y-95887372D01*
X144107649Y-95855862D01*
X144124220Y-95824163D01*
X144146769Y-95791285D01*
X144171444Y-95762253D01*
X144194396Y-95742092D01*
X144195301Y-95741490D01*
X144218616Y-95726250D01*
X144218638Y-95206185D01*
X144218660Y-94686120D01*
X144186219Y-94686120D01*
X144177486Y-94686327D01*
X144169286Y-94687644D01*
X144160402Y-94691112D01*
X144149618Y-94697775D01*
X144135714Y-94708673D01*
X144117476Y-94724850D01*
X144093683Y-94747347D01*
X144063121Y-94777208D01*
X144024571Y-94815473D01*
X143976816Y-94863186D01*
X143961429Y-94878580D01*
X143769080Y-95071040D01*
X143769102Y-95143375D01*
X143769267Y-95176999D01*
X143770354Y-95198842D01*
X143773283Y-95212361D01*
X143778977Y-95221015D01*
X143788356Y-95228263D01*
X143792439Y-95230950D01*
X143817862Y-95253062D01*
X143843698Y-95284597D01*
X143866162Y-95320331D01*
X143880732Y-95352820D01*
X143889257Y-95396481D01*
X143888654Y-95445256D01*
X143879370Y-95492406D01*
X143869776Y-95517202D01*
X143846615Y-95553587D01*
X143814112Y-95590053D01*
X143777284Y-95621572D01*
X143746722Y-95640524D01*
X143723360Y-95648141D01*
X143723360Y-95421450D01*
X143720293Y-95387255D01*
X143709725Y-95365198D01*
X143689602Y-95353183D01*
X143657871Y-95349115D01*
X143652426Y-95349060D01*
X143626771Y-95350835D01*
X143605942Y-95355368D01*
X143598668Y-95358789D01*
X143585447Y-95376785D01*
X143578467Y-95403331D01*
X143577737Y-95433107D01*
X143583268Y-95460790D01*
X143595068Y-95481057D01*
X143598438Y-95483943D01*
X143618543Y-95491726D01*
X143646049Y-95494276D01*
X143674820Y-95491889D01*
X143698720Y-95484866D01*
X143708120Y-95478600D01*
X143717975Y-95463916D01*
X143722575Y-95442459D01*
X143723360Y-95421450D01*
X143723360Y-95648141D01*
X143706919Y-95653501D01*
X143659935Y-95658695D01*
X143611675Y-95656132D01*
X143568050Y-95645833D01*
X143553664Y-95639772D01*
X143510501Y-95611707D01*
X143470504Y-95573213D01*
X143438319Y-95529030D01*
X143430035Y-95513664D01*
X143415488Y-95470825D01*
X143409674Y-95423219D01*
X143412883Y-95376832D01*
X143421849Y-95345322D01*
X143438420Y-95313623D01*
X143460969Y-95280745D01*
X143485644Y-95251713D01*
X143508596Y-95231552D01*
X143509501Y-95230950D01*
X143520306Y-95223405D01*
X143527120Y-95215600D01*
X143530864Y-95204078D01*
X143532460Y-95185379D01*
X143532828Y-95156046D01*
X143532838Y-95143375D01*
X143532860Y-95071040D01*
X143340511Y-94878580D01*
X143289924Y-94827999D01*
X143248887Y-94787160D01*
X143216183Y-94755022D01*
X143190594Y-94730543D01*
X143170904Y-94712679D01*
X143155895Y-94700390D01*
X143144350Y-94692632D01*
X143135051Y-94688364D01*
X143126781Y-94686543D01*
X143118323Y-94686127D01*
X143115721Y-94686120D01*
X143083280Y-94686120D01*
X143083302Y-95206185D01*
X143083324Y-95726250D01*
X143106639Y-95741490D01*
X143132062Y-95763602D01*
X143157898Y-95795137D01*
X143180362Y-95830871D01*
X143194932Y-95863360D01*
X143203457Y-95907021D01*
X143202854Y-95955796D01*
X143193570Y-96002946D01*
X143183976Y-96027742D01*
X143160756Y-96064213D01*
X143128205Y-96100694D01*
X143091367Y-96132136D01*
X143060922Y-96150900D01*
X143037560Y-96158751D01*
X143037560Y-95931990D01*
X143034493Y-95897795D01*
X143023925Y-95875738D01*
X143003802Y-95863723D01*
X142972071Y-95859655D01*
X142966626Y-95859600D01*
X142940971Y-95861375D01*
X142920142Y-95865908D01*
X142912868Y-95869329D01*
X142899647Y-95887325D01*
X142892667Y-95913871D01*
X142891937Y-95943647D01*
X142897468Y-95971330D01*
X142909268Y-95991597D01*
X142912638Y-95994483D01*
X142932743Y-96002266D01*
X142960249Y-96004816D01*
X142989020Y-96002429D01*
X143012920Y-95995406D01*
X143022320Y-95989140D01*
X143032175Y-95974456D01*
X143036775Y-95952999D01*
X143037560Y-95931990D01*
X143037560Y-96158751D01*
X143025292Y-96162874D01*
X142982536Y-96169290D01*
X142938917Y-96169784D01*
X142900697Y-96163993D01*
X142890674Y-96160770D01*
X142840807Y-96134326D01*
X142795449Y-96096044D01*
X142758000Y-96049288D01*
X142735823Y-96007577D01*
X142727731Y-95976138D01*
X142724648Y-95937049D01*
X142726564Y-95897051D01*
X142733468Y-95862885D01*
X142736049Y-95855862D01*
X142752620Y-95824163D01*
X142775169Y-95791285D01*
X142799844Y-95762253D01*
X142822796Y-95742092D01*
X142823701Y-95741490D01*
X142847016Y-95726250D01*
X142847038Y-95088075D01*
X142847060Y-94449900D01*
X143029444Y-94449900D01*
X143088251Y-94450240D01*
X143139650Y-94451214D01*
X143181798Y-94452748D01*
X143212855Y-94454771D01*
X143230979Y-94457211D01*
X143233279Y-94457880D01*
X143243473Y-94464977D01*
X143263018Y-94481654D01*
X143290561Y-94506643D01*
X143324748Y-94538674D01*
X143364224Y-94576481D01*
X143407637Y-94618795D01*
X143452904Y-94663621D01*
X143651079Y-94861383D01*
X143845335Y-94666304D01*
X143890938Y-94620887D01*
X143934097Y-94578625D01*
X143973422Y-94540823D01*
X144007523Y-94508791D01*
X144035009Y-94483835D01*
X144054491Y-94467264D01*
X144064110Y-94460563D01*
X144076272Y-94456940D01*
X144095130Y-94454172D01*
X144122393Y-94452172D01*
X144159768Y-94450852D01*
X144208961Y-94450123D01*
X144271679Y-94449900D01*
X144271755Y-94449900D01*
X144454880Y-94449900D01*
X144454902Y-95088075D01*
X144454924Y-95726250D01*
X144478239Y-95741490D01*
X144503662Y-95763602D01*
X144529498Y-95795137D01*
X144551962Y-95830871D01*
X144566532Y-95863360D01*
X144575057Y-95907021D01*
G36*
X142630842Y-95922094D02*
G01*
X142628654Y-95970273D01*
X142618694Y-96013558D01*
X142612745Y-96027742D01*
X142589207Y-96064381D01*
X142556461Y-96100932D01*
X142519560Y-96132350D01*
X142489422Y-96150900D01*
X142466060Y-96158740D01*
X142466060Y-95931990D01*
X142462993Y-95897795D01*
X142452425Y-95875738D01*
X142432302Y-95863723D01*
X142400571Y-95859655D01*
X142395126Y-95859600D01*
X142369471Y-95861375D01*
X142348642Y-95865908D01*
X142341368Y-95869329D01*
X142328147Y-95887325D01*
X142321167Y-95913871D01*
X142320437Y-95943647D01*
X142325968Y-95971330D01*
X142337768Y-95991597D01*
X142341138Y-95994483D01*
X142361243Y-96002266D01*
X142388749Y-96004816D01*
X142417520Y-96002429D01*
X142441420Y-95995406D01*
X142450820Y-95989140D01*
X142460675Y-95974456D01*
X142465275Y-95952999D01*
X142466060Y-95931990D01*
X142466060Y-96158740D01*
X142453446Y-96162973D01*
X142410351Y-96169359D01*
X142366433Y-96169700D01*
X142327990Y-96163637D01*
X142318730Y-96160617D01*
X142287232Y-96145013D01*
X142254103Y-96122825D01*
X142224560Y-96097987D01*
X142203817Y-96074432D01*
X142203170Y-96073459D01*
X142187930Y-96050144D01*
X142025760Y-96050122D01*
X141966492Y-96049844D01*
X141920586Y-96048956D01*
X141886176Y-96047349D01*
X141861391Y-96044914D01*
X141844363Y-96041544D01*
X141837445Y-96039176D01*
X141822116Y-96029540D01*
X141798862Y-96010971D01*
X141769949Y-95985670D01*
X141737643Y-95955840D01*
X141704208Y-95923686D01*
X141671910Y-95891409D01*
X141643015Y-95861213D01*
X141619788Y-95835300D01*
X141604495Y-95815874D01*
X141600136Y-95808410D01*
X141598273Y-95801664D01*
X141596637Y-95790195D01*
X141595213Y-95773117D01*
X141593988Y-95749543D01*
X141592951Y-95718586D01*
X141592086Y-95679358D01*
X141591381Y-95630974D01*
X141590822Y-95572546D01*
X141590397Y-95503186D01*
X141590091Y-95422009D01*
X141589892Y-95328128D01*
X141589787Y-95220654D01*
X141589760Y-95116895D01*
X141589760Y-94449900D01*
X141707870Y-94449900D01*
X141825980Y-94449900D01*
X141825980Y-95080659D01*
X141825980Y-95711419D01*
X141877606Y-95762649D01*
X141929232Y-95813880D01*
X142058581Y-95813858D01*
X142187930Y-95813836D01*
X142203170Y-95790521D01*
X142222566Y-95768018D01*
X142250957Y-95743525D01*
X142283281Y-95720942D01*
X142314477Y-95704166D01*
X142316403Y-95703345D01*
X142355253Y-95693490D01*
X142400671Y-95691731D01*
X142446507Y-95697766D01*
X142486611Y-95711292D01*
X142487583Y-95711771D01*
X142532011Y-95740317D01*
X142572501Y-95778143D01*
X142604246Y-95820504D01*
X142611992Y-95834683D01*
X142625280Y-95874928D01*
X142630842Y-95922094D01*
G37*
X142630842Y-95922094D02*
X142628654Y-95970273D01*
X142618694Y-96013558D01*
X142612745Y-96027742D01*
X142589207Y-96064381D01*
X142556461Y-96100932D01*
X142519560Y-96132350D01*
X142489422Y-96150900D01*
X142466060Y-96158740D01*
X142466060Y-95931990D01*
X142462993Y-95897795D01*
X142452425Y-95875738D01*
X142432302Y-95863723D01*
X142400571Y-95859655D01*
X142395126Y-95859600D01*
X142369471Y-95861375D01*
X142348642Y-95865908D01*
X142341368Y-95869329D01*
X142328147Y-95887325D01*
X142321167Y-95913871D01*
X142320437Y-95943647D01*
X142325968Y-95971330D01*
X142337768Y-95991597D01*
X142341138Y-95994483D01*
X142361243Y-96002266D01*
X142388749Y-96004816D01*
X142417520Y-96002429D01*
X142441420Y-95995406D01*
X142450820Y-95989140D01*
X142460675Y-95974456D01*
X142465275Y-95952999D01*
X142466060Y-95931990D01*
X142466060Y-96158740D01*
X142453446Y-96162973D01*
X142410351Y-96169359D01*
X142366433Y-96169700D01*
X142327990Y-96163637D01*
X142318730Y-96160617D01*
X142287232Y-96145013D01*
X142254103Y-96122825D01*
X142224560Y-96097987D01*
X142203817Y-96074432D01*
X142203170Y-96073459D01*
X142187930Y-96050144D01*
X142025760Y-96050122D01*
X141966492Y-96049844D01*
X141920586Y-96048956D01*
X141886176Y-96047349D01*
X141861391Y-96044914D01*
X141844363Y-96041544D01*
X141837445Y-96039176D01*
X141822116Y-96029540D01*
X141798862Y-96010971D01*
X141769949Y-95985670D01*
X141737643Y-95955840D01*
X141704208Y-95923686D01*
X141671910Y-95891409D01*
X141643015Y-95861213D01*
X141619788Y-95835300D01*
X141604495Y-95815874D01*
X141600136Y-95808410D01*
X141598273Y-95801664D01*
X141596637Y-95790195D01*
X141595213Y-95773117D01*
X141593988Y-95749543D01*
X141592951Y-95718586D01*
X141592086Y-95679358D01*
X141591381Y-95630974D01*
X141590822Y-95572546D01*
X141590397Y-95503186D01*
X141590091Y-95422009D01*
X141589892Y-95328128D01*
X141589787Y-95220654D01*
X141589760Y-95116895D01*
X141589760Y-94449900D01*
X141707870Y-94449900D01*
X141825980Y-94449900D01*
X141825980Y-95080659D01*
X141825980Y-95711419D01*
X141877606Y-95762649D01*
X141929232Y-95813880D01*
X142058581Y-95813858D01*
X142187930Y-95813836D01*
X142203170Y-95790521D01*
X142222566Y-95768018D01*
X142250957Y-95743525D01*
X142283281Y-95720942D01*
X142314477Y-95704166D01*
X142316403Y-95703345D01*
X142355253Y-95693490D01*
X142400671Y-95691731D01*
X142446507Y-95697766D01*
X142486611Y-95711292D01*
X142487583Y-95711771D01*
X142532011Y-95740317D01*
X142572501Y-95778143D01*
X142604246Y-95820504D01*
X142611992Y-95834683D01*
X142625280Y-95874928D01*
X142630842Y-95922094D01*
D16*
X137287000Y-115824000D02*
X136906000Y-115824000D01*
X137414000Y-115697000D02*
X136779000Y-115697000D01*
X137541000Y-115570000D02*
X136779000Y-115570000D01*
X137541000Y-115443000D02*
X136652000Y-115443000D01*
X136652000Y-115316000D02*
X137795000Y-115316000D01*
X137795000Y-115189000D02*
X136525000Y-115189000D01*
X136398000Y-115062000D02*
X137922000Y-115062000D01*
X138099800Y-116281200D02*
X138099800Y-116459000D01*
X136194800Y-116281200D02*
X136194800Y-116459000D01*
X138099800Y-116459000D02*
X136194800Y-116459000D01*
X138099800Y-114909600D02*
X136194800Y-114909600D01*
X138099800Y-116281200D02*
X136194800Y-116281200D01*
X137185400Y-116281200D02*
X136194800Y-114909600D01*
X138099800Y-114909600D02*
X137185400Y-116281200D01*
X137147300Y-114325400D02*
X137147300Y-116801900D01*
X149225000Y-100457000D02*
X148844000Y-100457000D01*
X149352000Y-100330000D02*
X148717000Y-100330000D01*
X149479000Y-100203000D02*
X148717000Y-100203000D01*
X149479000Y-100076000D02*
X148590000Y-100076000D01*
X148590000Y-99949000D02*
X149733000Y-99949000D01*
X149733000Y-99822000D02*
X148463000Y-99822000D01*
X148336000Y-99695000D02*
X149860000Y-99695000D01*
X150037800Y-100914200D02*
X150037800Y-101092000D01*
X148132800Y-100914200D02*
X148132800Y-101092000D01*
X150037800Y-101092000D02*
X148132800Y-101092000D01*
X150037800Y-99542600D02*
X148132800Y-99542600D01*
X150037800Y-100914200D02*
X148132800Y-100914200D01*
X149123400Y-100914200D02*
X148132800Y-99542600D01*
X150037800Y-99542600D02*
X149123400Y-100914200D01*
X149085300Y-98958400D02*
X149085300Y-101434900D01*
X136906000Y-103632000D02*
X136525000Y-103632000D01*
X137033000Y-103505000D02*
X136398000Y-103505000D01*
X137160000Y-103378000D02*
X136398000Y-103378000D01*
X137160000Y-103251000D02*
X136271000Y-103251000D01*
X136271000Y-103124000D02*
X137414000Y-103124000D01*
X137414000Y-102997000D02*
X136144000Y-102997000D01*
X136017000Y-102870000D02*
X137541000Y-102870000D01*
X137718800Y-104089200D02*
X137718800Y-104267000D01*
X135813800Y-104089200D02*
X135813800Y-104267000D01*
X137718800Y-104267000D02*
X135813800Y-104267000D01*
X137718800Y-102717600D02*
X135813800Y-102717600D01*
X137718800Y-104089200D02*
X135813800Y-104089200D01*
X136804400Y-104089200D02*
X135813800Y-102717600D01*
X137718800Y-102717600D02*
X136804400Y-104089200D01*
X136766300Y-102133400D02*
X136766300Y-104609900D01*
X134366000Y-103124000D02*
X134747000Y-103124000D01*
X134239000Y-103251000D02*
X134874000Y-103251000D01*
X134112000Y-103378000D02*
X134874000Y-103378000D01*
X134112000Y-103505000D02*
X135001000Y-103505000D01*
X135001000Y-103632000D02*
X133858000Y-103632000D01*
X133858000Y-103759000D02*
X135128000Y-103759000D01*
X135255000Y-103886000D02*
X133731000Y-103886000D01*
X133553200Y-102666800D02*
X133553200Y-102489000D01*
X135458200Y-102666800D02*
X135458200Y-102489000D01*
X133553200Y-102489000D02*
X135458200Y-102489000D01*
X133553200Y-104038400D02*
X135458200Y-104038400D01*
X133553200Y-102666800D02*
X135458200Y-102666800D01*
X134467600Y-102666800D02*
X135458200Y-104038400D01*
X133553200Y-104038400D02*
X134467600Y-102666800D01*
X134505700Y-104622600D02*
X134505700Y-102146100D01*
X153098500Y-112776000D02*
X154114500Y-112776000D01*
X153098500Y-114300000D02*
X154114500Y-114300000D01*
X146304000Y-101981000D02*
X146304000Y-100965000D01*
X147828000Y-101981000D02*
X147828000Y-100965000D01*
X143002000Y-97917000D02*
X144018000Y-97917000D01*
X143002000Y-99441000D02*
X144018000Y-99441000D01*
X147764500Y-98869500D02*
X147764500Y-99123500D01*
X147764500Y-98869500D02*
X147764500Y-98615500D01*
X146875500Y-98869500D02*
X146875500Y-98615500D01*
X146875500Y-98869500D02*
X146875500Y-99123500D01*
X133667500Y-83185000D02*
X133667500Y-83439000D01*
X133667500Y-83185000D02*
X133667500Y-82931000D01*
X132778500Y-83185000D02*
X132778500Y-82931000D01*
X132778500Y-83185000D02*
X132778500Y-83439000D01*
X133667500Y-107823000D02*
X133667500Y-108077000D01*
X133667500Y-107823000D02*
X133667500Y-107569000D01*
X132778500Y-107823000D02*
X132778500Y-107569000D01*
X132778500Y-107823000D02*
X132778500Y-108077000D01*
X153162000Y-112585500D02*
X152908000Y-112585500D01*
X153162000Y-112585500D02*
X153416000Y-112585500D01*
X153162000Y-111696500D02*
X153416000Y-111696500D01*
X153162000Y-111696500D02*
X152908000Y-111696500D01*
X132715000Y-79692501D02*
X132969000Y-79692501D01*
X132715000Y-79692501D02*
X132461000Y-79692501D01*
X132715000Y-80581501D02*
X132461000Y-80581501D01*
X132715000Y-80581501D02*
X132969000Y-80581501D01*
X136017000Y-107378500D02*
X135763000Y-107378500D01*
X136017000Y-107378500D02*
X136271000Y-107378500D01*
X136017000Y-106489500D02*
X136271000Y-106489500D01*
X136017000Y-106489500D02*
X135763000Y-106489500D01*
X138557000Y-99314000D02*
X138557000Y-99568000D01*
X138557000Y-99314000D02*
X138557000Y-99060000D01*
X137668000Y-99314000D02*
X137668000Y-99060000D01*
X137668000Y-99314000D02*
X137668000Y-99568000D01*
X149606000Y-106743500D02*
X149352000Y-106743500D01*
X149606000Y-106743500D02*
X149860000Y-106743500D01*
X149606000Y-105854500D02*
X149860000Y-105854500D01*
X149606000Y-105854500D02*
X149352000Y-105854500D01*
X149606000Y-105854500D02*
X149352000Y-105854500D01*
X149606000Y-105854500D02*
X149860000Y-105854500D01*
X149606000Y-104965500D02*
X149860000Y-104965500D01*
X149606000Y-104965500D02*
X149352000Y-104965500D01*
X152019000Y-110426500D02*
X152273000Y-110426500D01*
X152019000Y-110426500D02*
X151765000Y-110426500D01*
X152019000Y-111315500D02*
X151765000Y-111315500D01*
X152019000Y-111315500D02*
X152273000Y-111315500D01*
X145986500Y-98869500D02*
X145986500Y-99123500D01*
X145986500Y-98869500D02*
X145986500Y-98615500D01*
X145097500Y-98869500D02*
X145097500Y-98615500D01*
X145097500Y-98869500D02*
X145097500Y-99123500D01*
X146875500Y-98869500D02*
X146875500Y-99123500D01*
X146875500Y-98869500D02*
X146875500Y-98615500D01*
X145986500Y-98869500D02*
X145986500Y-98615500D01*
X145986500Y-98869500D02*
X145986500Y-99123500D01*
X132778500Y-74168000D02*
X132778500Y-73914000D01*
X132778500Y-74168000D02*
X132778500Y-74422000D01*
X133667500Y-74168000D02*
X133667500Y-74422000D01*
X133667500Y-74168000D02*
X133667500Y-73914000D01*
X132715000Y-77660500D02*
X132461000Y-77660500D01*
X132715000Y-77660500D02*
X132969000Y-77660500D01*
X132715000Y-76771500D02*
X132969000Y-76771500D01*
X132715000Y-76771500D02*
X132461000Y-76771500D01*
X132715000Y-78295500D02*
X132969000Y-78295500D01*
X132715000Y-78295500D02*
X132461000Y-78295500D01*
X132715000Y-79184500D02*
X132461000Y-79184500D01*
X132715000Y-79184500D02*
X132969000Y-79184500D01*
X138938000Y-102806500D02*
X139192000Y-102806500D01*
X138938000Y-102806500D02*
X138684000Y-102806500D01*
X138938000Y-103695500D02*
X138684000Y-103695500D01*
X138938000Y-103695500D02*
X139192000Y-103695500D01*
X139001500Y-108966000D02*
X139001500Y-109220000D01*
X139001500Y-108966000D02*
X139001500Y-108712000D01*
X138112500Y-108966000D02*
X138112500Y-108712000D01*
X138112500Y-108966000D02*
X138112500Y-109220000D01*
X138112500Y-110998000D02*
X138112500Y-110744000D01*
X138112500Y-110998000D02*
X138112500Y-111252000D01*
X139001500Y-110998000D02*
X139001500Y-111252000D01*
X139001500Y-110998000D02*
X139001500Y-110744000D01*
X138049000Y-106489500D02*
X138303000Y-106489500D01*
X138049000Y-106489500D02*
X137795000Y-106489500D01*
X138049000Y-107378500D02*
X137795000Y-107378500D01*
X138049000Y-107378500D02*
X138303000Y-107378500D01*
X132714999Y-82105500D02*
X132460999Y-82105500D01*
X132714999Y-82105500D02*
X132968999Y-82105500D01*
X132714999Y-81216500D02*
X132968999Y-81216500D01*
X132714999Y-81216500D02*
X132460999Y-81216500D01*
X133985000Y-97917000D02*
X133985000Y-98933000D01*
X132461000Y-97917000D02*
X132461000Y-98933000D01*
D10*
X132932714Y-72970571D02*
X133549571Y-72970571D01*
X133622142Y-72934285D01*
X133658428Y-72898000D01*
X133694714Y-72825428D01*
X133694714Y-72680285D01*
X133658428Y-72607714D01*
X133622142Y-72571428D01*
X133549571Y-72535142D01*
X132932714Y-72535142D01*
X132932714Y-71809428D02*
X132932714Y-72172285D01*
X133295571Y-72208571D01*
X133259285Y-72172285D01*
X133223000Y-72099714D01*
X133223000Y-71918285D01*
X133259285Y-71845714D01*
X133295571Y-71809428D01*
X133368142Y-71773142D01*
X133549571Y-71773142D01*
X133622142Y-71809428D01*
X133658428Y-71845714D01*
X133694714Y-71918285D01*
X133694714Y-72099714D01*
X133658428Y-72172285D01*
X133622142Y-72208571D01*
D16*
X148479632Y-87852368D02*
X148479632Y-87783947D01*
X148513842Y-87681315D01*
X148684895Y-87510263D01*
X148787526Y-87476052D01*
X148855947Y-87476052D01*
X148958579Y-87510263D01*
X149027000Y-87578684D01*
X149095421Y-87715526D01*
X149095421Y-88536578D01*
X149540157Y-88091841D01*
X149676999Y-86997105D02*
X150155946Y-87476052D01*
X149232263Y-86894474D02*
X149574368Y-87578684D01*
X150019104Y-87133947D01*
X138745157Y-88091841D02*
X138334631Y-88502367D01*
X138539894Y-88297104D02*
X137821474Y-87578684D01*
X137855684Y-87749736D01*
X137855684Y-87886578D01*
X137821474Y-87989210D01*
X138676736Y-86723421D02*
X138334631Y-87065526D01*
X138642526Y-87441842D01*
X138642526Y-87373421D01*
X138676736Y-87270789D01*
X138847789Y-87099737D01*
X138950420Y-87065526D01*
X139018841Y-87065526D01*
X139121473Y-87099737D01*
X139292525Y-87270789D01*
X139326736Y-87373421D01*
X139326736Y-87441842D01*
X139292525Y-87544473D01*
X139121473Y-87715526D01*
X139018841Y-87749736D01*
X138950420Y-87749736D01*
D10*
X150014214Y-73641857D02*
X150014214Y-73170142D01*
X150304500Y-73424142D01*
X150304500Y-73315285D01*
X150340785Y-73242714D01*
X150377071Y-73206428D01*
X150449642Y-73170142D01*
X150631071Y-73170142D01*
X150703642Y-73206428D01*
X150739928Y-73242714D01*
X150776214Y-73315285D01*
X150776214Y-73533000D01*
X150739928Y-73605571D01*
X150703642Y-73641857D01*
X150340785Y-72734714D02*
X150304500Y-72807285D01*
X150268214Y-72843571D01*
X150195642Y-72879857D01*
X150159357Y-72879857D01*
X150086785Y-72843571D01*
X150050500Y-72807285D01*
X150014214Y-72734714D01*
X150014214Y-72589571D01*
X150050500Y-72517000D01*
X150086785Y-72480714D01*
X150159357Y-72444428D01*
X150195642Y-72444428D01*
X150268214Y-72480714D01*
X150304500Y-72517000D01*
X150340785Y-72589571D01*
X150340785Y-72734714D01*
X150377071Y-72807285D01*
X150413357Y-72843571D01*
X150485928Y-72879857D01*
X150631071Y-72879857D01*
X150703642Y-72843571D01*
X150739928Y-72807285D01*
X150776214Y-72734714D01*
X150776214Y-72589571D01*
X150739928Y-72517000D01*
X150703642Y-72480714D01*
X150631071Y-72444428D01*
X150485928Y-72444428D01*
X150413357Y-72480714D01*
X150377071Y-72517000D01*
X150340785Y-72589571D01*
D16*
X148450904Y-94917380D02*
X148499285Y-94869000D01*
X148596047Y-94820619D01*
X148837952Y-94820619D01*
X148934714Y-94869000D01*
X148983095Y-94917380D01*
X149031476Y-95014142D01*
X149031476Y-95110904D01*
X148983095Y-95256047D01*
X148402523Y-95836619D01*
X149031476Y-95836619D01*
X149660428Y-94820619D02*
X149757190Y-94820619D01*
X149853952Y-94869000D01*
X149902333Y-94917380D01*
X149950714Y-95014142D01*
X149999095Y-95207666D01*
X149999095Y-95449571D01*
X149950714Y-95643095D01*
X149902333Y-95739857D01*
X149853952Y-95788238D01*
X149757190Y-95836619D01*
X149660428Y-95836619D01*
X149563666Y-95788238D01*
X149515285Y-95739857D01*
X149466904Y-95643095D01*
X149418523Y-95449571D01*
X149418523Y-95207666D01*
X149466904Y-95014142D01*
X149515285Y-94917380D01*
X149563666Y-94869000D01*
X149660428Y-94820619D01*
X137093476Y-95836619D02*
X136512904Y-95836619D01*
X136803190Y-95836619D02*
X136803190Y-94820619D01*
X136706428Y-94965761D01*
X136609666Y-95062523D01*
X136512904Y-95110904D01*
X137577285Y-95836619D02*
X137770809Y-95836619D01*
X137867571Y-95788238D01*
X137915952Y-95739857D01*
X138012714Y-95594714D01*
X138061095Y-95401190D01*
X138061095Y-95014142D01*
X138012714Y-94917380D01*
X137964333Y-94869000D01*
X137867571Y-94820619D01*
X137674047Y-94820619D01*
X137577285Y-94869000D01*
X137528904Y-94917380D01*
X137480523Y-95014142D01*
X137480523Y-95256047D01*
X137528904Y-95352809D01*
X137577285Y-95401190D01*
X137674047Y-95449571D01*
X137867571Y-95449571D01*
X137964333Y-95401190D01*
X138012714Y-95352809D01*
X138061095Y-95256047D01*
X137450285Y-72976619D02*
X136869714Y-72976619D01*
X137160000Y-72976619D02*
X137160000Y-71960619D01*
X137063238Y-72105761D01*
X136966476Y-72202523D01*
X136869714Y-72250904D01*
X140002380Y-68283666D02*
X140607142Y-68283666D01*
X139881428Y-68646523D02*
X140304761Y-67376523D01*
X140728095Y-68646523D01*
X141151428Y-67799857D02*
X141151428Y-68646523D01*
X141151428Y-67920809D02*
X141211904Y-67860333D01*
X141332857Y-67799857D01*
X141514285Y-67799857D01*
X141635238Y-67860333D01*
X141695714Y-67981285D01*
X141695714Y-68646523D01*
X142119047Y-67799857D02*
X142602857Y-67799857D01*
X142300476Y-67376523D02*
X142300476Y-68465095D01*
X142360952Y-68586047D01*
X142481904Y-68646523D01*
X142602857Y-68646523D01*
X143510000Y-68586047D02*
X143389047Y-68646523D01*
X143147142Y-68646523D01*
X143026190Y-68586047D01*
X142965714Y-68465095D01*
X142965714Y-67981285D01*
X143026190Y-67860333D01*
X143147142Y-67799857D01*
X143389047Y-67799857D01*
X143510000Y-67860333D01*
X143570476Y-67981285D01*
X143570476Y-68102238D01*
X142965714Y-68223190D01*
X144114761Y-67799857D02*
X144114761Y-68646523D01*
X144114761Y-67920809D02*
X144175238Y-67860333D01*
X144296190Y-67799857D01*
X144477619Y-67799857D01*
X144598571Y-67860333D01*
X144659047Y-67981285D01*
X144659047Y-68646523D01*
X145263809Y-67799857D02*
X145263809Y-68646523D01*
X145263809Y-67920809D02*
X145324285Y-67860333D01*
X145445238Y-67799857D01*
X145626666Y-67799857D01*
X145747619Y-67860333D01*
X145808095Y-67981285D01*
X145808095Y-68646523D01*
X146957142Y-68646523D02*
X146957142Y-67981285D01*
X146896666Y-67860333D01*
X146775714Y-67799857D01*
X146533809Y-67799857D01*
X146412857Y-67860333D01*
X146957142Y-68586047D02*
X146836190Y-68646523D01*
X146533809Y-68646523D01*
X146412857Y-68586047D01*
X146352380Y-68465095D01*
X146352380Y-68344142D01*
X146412857Y-68223190D01*
X146533809Y-68162714D01*
X146836190Y-68162714D01*
X146957142Y-68102238D01*
D10*
X134329714Y-71682428D02*
X134293428Y-71755000D01*
X134257142Y-71791285D01*
X134184571Y-71827571D01*
X133966857Y-71827571D01*
X133894285Y-71791285D01*
X133858000Y-71755000D01*
X133821714Y-71682428D01*
X133821714Y-71573571D01*
X133858000Y-71501000D01*
X133894285Y-71464714D01*
X133966857Y-71428428D01*
X134184571Y-71428428D01*
X134257142Y-71464714D01*
X134293428Y-71501000D01*
X134329714Y-71573571D01*
X134329714Y-71682428D01*
D13*
X154903714Y-116186857D02*
X154927904Y-116114285D01*
X154952095Y-116090095D01*
X155000476Y-116065904D01*
X155073047Y-116065904D01*
X155121428Y-116090095D01*
X155145619Y-116114285D01*
X155169809Y-116162666D01*
X155169809Y-116356190D01*
X154661809Y-116356190D01*
X154661809Y-116186857D01*
X154686000Y-116138476D01*
X154710190Y-116114285D01*
X154758571Y-116090095D01*
X154806952Y-116090095D01*
X154855333Y-116114285D01*
X154879523Y-116138476D01*
X154903714Y-116186857D01*
X154903714Y-116356190D01*
X155024666Y-115872380D02*
X155024666Y-115630476D01*
X155169809Y-115920761D02*
X154661809Y-115751428D01*
X155169809Y-115582095D01*
X154661809Y-115485333D02*
X154661809Y-115195047D01*
X155169809Y-115340190D02*
X154661809Y-115340190D01*
X155169809Y-114759619D02*
X155169809Y-115049904D01*
X155169809Y-114904761D02*
X154661809Y-114904761D01*
X154734380Y-114953142D01*
X154782761Y-115001523D01*
X154806952Y-115049904D01*
D10*
X149188714Y-116930714D02*
X148753285Y-116930714D01*
X148971000Y-116930714D02*
X148971000Y-116168714D01*
X148898428Y-116277571D01*
X148825857Y-116350142D01*
X148753285Y-116386428D01*
X153579285Y-116241285D02*
X153615571Y-116205000D01*
X153688142Y-116168714D01*
X153869571Y-116168714D01*
X153942142Y-116205000D01*
X153978428Y-116241285D01*
X154014714Y-116313857D01*
X154014714Y-116386428D01*
X153978428Y-116495285D01*
X153543000Y-116930714D01*
X154014714Y-116930714D01*
D13*
X134483928Y-111191523D02*
X134508119Y-111215714D01*
X134532309Y-111288285D01*
X134532309Y-111336666D01*
X134508119Y-111409238D01*
X134459738Y-111457619D01*
X134411357Y-111481809D01*
X134314595Y-111506000D01*
X134242023Y-111506000D01*
X134145261Y-111481809D01*
X134096880Y-111457619D01*
X134048500Y-111409238D01*
X134024309Y-111336666D01*
X134024309Y-111288285D01*
X134048500Y-111215714D01*
X134072690Y-111191523D01*
X134532309Y-110973809D02*
X134024309Y-110973809D01*
X134266214Y-110973809D02*
X134266214Y-110683523D01*
X134532309Y-110683523D02*
X134024309Y-110683523D01*
X134387166Y-110465809D02*
X134387166Y-110223904D01*
X134532309Y-110514190D02*
X134024309Y-110344857D01*
X134532309Y-110175523D01*
X134532309Y-109715904D02*
X134290404Y-109885238D01*
X134532309Y-110006190D02*
X134024309Y-110006190D01*
X134024309Y-109812666D01*
X134048500Y-109764285D01*
X134072690Y-109740095D01*
X134121071Y-109715904D01*
X134193642Y-109715904D01*
X134242023Y-109740095D01*
X134266214Y-109764285D01*
X134290404Y-109812666D01*
X134290404Y-110006190D01*
X134048500Y-109232095D02*
X134024309Y-109280476D01*
X134024309Y-109353047D01*
X134048500Y-109425619D01*
X134096880Y-109474000D01*
X134145261Y-109498190D01*
X134242023Y-109522380D01*
X134314595Y-109522380D01*
X134411357Y-109498190D01*
X134459738Y-109474000D01*
X134508119Y-109425619D01*
X134532309Y-109353047D01*
X134532309Y-109304666D01*
X134508119Y-109232095D01*
X134483928Y-109207904D01*
X134314595Y-109207904D01*
X134314595Y-109304666D01*
X134532309Y-108990190D02*
X134024309Y-108990190D01*
X134532309Y-108748285D02*
X134024309Y-108748285D01*
X134532309Y-108458000D01*
X134024309Y-108458000D01*
X134048500Y-107950000D02*
X134024309Y-107998380D01*
X134024309Y-108070952D01*
X134048500Y-108143523D01*
X134096880Y-108191904D01*
X134145261Y-108216095D01*
X134242023Y-108240285D01*
X134314595Y-108240285D01*
X134411357Y-108216095D01*
X134459738Y-108191904D01*
X134508119Y-108143523D01*
X134532309Y-108070952D01*
X134532309Y-108022571D01*
X134508119Y-107950000D01*
X134483928Y-107925809D01*
X134314595Y-107925809D01*
X134314595Y-108022571D01*
X134532309Y-107442000D02*
X134532309Y-107732285D01*
X134532309Y-107587142D02*
X134024309Y-107587142D01*
X134096880Y-107635523D01*
X134145261Y-107683904D01*
X134169452Y-107732285D01*
X153676047Y-71310500D02*
X153627666Y-71286309D01*
X153555095Y-71286309D01*
X153482523Y-71310500D01*
X153434142Y-71358880D01*
X153409952Y-71407261D01*
X153385761Y-71504023D01*
X153385761Y-71576595D01*
X153409952Y-71673357D01*
X153434142Y-71721738D01*
X153482523Y-71770119D01*
X153555095Y-71794309D01*
X153603476Y-71794309D01*
X153676047Y-71770119D01*
X153700238Y-71745928D01*
X153700238Y-71576595D01*
X153603476Y-71576595D01*
X153917952Y-71794309D02*
X153917952Y-71286309D01*
X154208238Y-71794309D01*
X154208238Y-71286309D01*
X154450142Y-71794309D02*
X154450142Y-71286309D01*
X154571095Y-71286309D01*
X154643666Y-71310500D01*
X154692047Y-71358880D01*
X154716238Y-71407261D01*
X154740428Y-71504023D01*
X154740428Y-71576595D01*
X154716238Y-71673357D01*
X154692047Y-71721738D01*
X154643666Y-71770119D01*
X154571095Y-71794309D01*
X154450142Y-71794309D01*
X155224238Y-71794309D02*
X154933952Y-71794309D01*
X155079095Y-71794309D02*
X155079095Y-71286309D01*
X155030714Y-71358880D01*
X154982333Y-71407261D01*
X154933952Y-71431452D01*
X136349619Y-112482690D02*
X136301238Y-112458500D01*
X136252857Y-112410119D01*
X136180285Y-112337547D01*
X136131904Y-112313357D01*
X136083523Y-112313357D01*
X136107714Y-112434309D02*
X136059333Y-112410119D01*
X136010952Y-112361738D01*
X135986761Y-112264976D01*
X135986761Y-112095642D01*
X136010952Y-111998880D01*
X136059333Y-111950500D01*
X136107714Y-111926309D01*
X136204476Y-111926309D01*
X136252857Y-111950500D01*
X136301238Y-111998880D01*
X136325428Y-112095642D01*
X136325428Y-112264976D01*
X136301238Y-112361738D01*
X136252857Y-112410119D01*
X136204476Y-112434309D01*
X136107714Y-112434309D01*
X136809238Y-112434309D02*
X136518952Y-112434309D01*
X136664095Y-112434309D02*
X136664095Y-111926309D01*
X136615714Y-111998880D01*
X136567333Y-112047261D01*
X136518952Y-112071452D01*
D20*
X135616904Y-107753142D02*
X135578809Y-107829333D01*
X135540714Y-107867428D01*
X135464523Y-107905523D01*
X135235952Y-107905523D01*
X135159761Y-107867428D01*
X135121666Y-107829333D01*
X135083571Y-107753142D01*
X135083571Y-107638857D01*
X135121666Y-107562666D01*
X135159761Y-107524571D01*
X135235952Y-107486476D01*
X135464523Y-107486476D01*
X135540714Y-107524571D01*
X135578809Y-107562666D01*
X135616904Y-107638857D01*
X135616904Y-107753142D01*
D15*
X147595166Y-103858785D02*
X147564928Y-103889023D01*
X147474214Y-103919261D01*
X147413738Y-103919261D01*
X147323023Y-103889023D01*
X147262547Y-103828547D01*
X147232309Y-103768071D01*
X147202071Y-103647119D01*
X147202071Y-103556404D01*
X147232309Y-103435452D01*
X147262547Y-103374976D01*
X147323023Y-103314500D01*
X147413738Y-103284261D01*
X147474214Y-103284261D01*
X147564928Y-103314500D01*
X147595166Y-103344738D01*
X148139452Y-103495928D02*
X148139452Y-103919261D01*
X147988261Y-103254023D02*
X147837071Y-103707595D01*
X148230166Y-103707595D01*
X153437166Y-100411642D02*
X153225500Y-100411642D01*
X153225500Y-100744261D02*
X153225500Y-100109261D01*
X153527880Y-100109261D01*
X153769785Y-100411642D02*
X153981452Y-100411642D01*
X154072166Y-100744261D02*
X153769785Y-100744261D01*
X153769785Y-100109261D01*
X154072166Y-100109261D01*
X154253595Y-100109261D02*
X154616452Y-100109261D01*
X154435023Y-100744261D02*
X154435023Y-100109261D01*
X155160738Y-100744261D02*
X154797880Y-100744261D01*
X154979309Y-100744261D02*
X154979309Y-100109261D01*
X154918833Y-100199976D01*
X154858357Y-100260452D01*
X154797880Y-100290690D01*
D14*
X138555790Y-101439133D02*
X138555790Y-101705228D01*
X137996990Y-101705228D01*
X138555790Y-100960161D02*
X138555790Y-101279476D01*
X138555790Y-101119819D02*
X137996990Y-101119819D01*
X138076819Y-101173038D01*
X138130038Y-101226257D01*
X138156647Y-101279476D01*
D13*
X150646190Y-107871380D02*
X150622000Y-107919761D01*
X150573619Y-107968142D01*
X150501047Y-108040714D01*
X150476857Y-108089095D01*
X150476857Y-108137476D01*
X150597809Y-108113285D02*
X150573619Y-108161666D01*
X150525238Y-108210047D01*
X150428476Y-108234238D01*
X150259142Y-108234238D01*
X150162380Y-108210047D01*
X150114000Y-108161666D01*
X150089809Y-108113285D01*
X150089809Y-108016523D01*
X150114000Y-107968142D01*
X150162380Y-107919761D01*
X150259142Y-107895571D01*
X150428476Y-107895571D01*
X150525238Y-107919761D01*
X150573619Y-107968142D01*
X150597809Y-108016523D01*
X150597809Y-108113285D01*
X150138190Y-107702047D02*
X150114000Y-107677857D01*
X150089809Y-107629476D01*
X150089809Y-107508523D01*
X150114000Y-107460142D01*
X150138190Y-107435952D01*
X150186571Y-107411761D01*
X150234952Y-107411761D01*
X150307523Y-107435952D01*
X150597809Y-107726238D01*
X150597809Y-107411761D01*
X153821190Y-107871380D02*
X153797000Y-107919761D01*
X153748619Y-107968142D01*
X153676047Y-108040714D01*
X153651857Y-108089095D01*
X153651857Y-108137476D01*
X153772809Y-108113285D02*
X153748619Y-108161666D01*
X153700238Y-108210047D01*
X153603476Y-108234238D01*
X153434142Y-108234238D01*
X153337380Y-108210047D01*
X153289000Y-108161666D01*
X153264809Y-108113285D01*
X153264809Y-108016523D01*
X153289000Y-107968142D01*
X153337380Y-107919761D01*
X153434142Y-107895571D01*
X153603476Y-107895571D01*
X153700238Y-107919761D01*
X153748619Y-107968142D01*
X153772809Y-108016523D01*
X153772809Y-108113285D01*
X153264809Y-107726238D02*
X153264809Y-107411761D01*
X153458333Y-107581095D01*
X153458333Y-107508523D01*
X153482523Y-107460142D01*
X153506714Y-107435952D01*
X153555095Y-107411761D01*
X153676047Y-107411761D01*
X153724428Y-107435952D01*
X153748619Y-107460142D01*
X153772809Y-107508523D01*
X153772809Y-107653666D01*
X153748619Y-107702047D01*
X153724428Y-107726238D01*
D15*
X150972761Y-113259809D02*
X151486809Y-113259809D01*
X151547285Y-113229571D01*
X151577523Y-113199333D01*
X151607761Y-113138857D01*
X151607761Y-113017904D01*
X151577523Y-112957428D01*
X151547285Y-112927190D01*
X151486809Y-112896952D01*
X150972761Y-112896952D01*
X151607761Y-112261952D02*
X151607761Y-112624809D01*
X151607761Y-112443380D02*
X150972761Y-112443380D01*
X151063476Y-112503857D01*
X151123952Y-112564333D01*
X151154190Y-112624809D01*
X140930690Y-102458761D02*
X140930690Y-102972809D01*
X140960928Y-103033285D01*
X140991166Y-103063523D01*
X141051642Y-103093761D01*
X141172595Y-103093761D01*
X141233071Y-103063523D01*
X141263309Y-103033285D01*
X141293547Y-102972809D01*
X141293547Y-102458761D01*
X141565690Y-102519238D02*
X141595928Y-102489000D01*
X141656404Y-102458761D01*
X141807595Y-102458761D01*
X141868071Y-102489000D01*
X141898309Y-102519238D01*
X141928547Y-102579714D01*
X141928547Y-102640190D01*
X141898309Y-102730904D01*
X141535452Y-103093761D01*
X141928547Y-103093761D01*
D16*
X140667619Y-103450571D02*
X140619238Y-103547333D01*
X140570857Y-103595714D01*
X140474095Y-103644095D01*
X140183809Y-103644095D01*
X140087047Y-103595714D01*
X140038666Y-103547333D01*
X139990285Y-103450571D01*
X139990285Y-103305428D01*
X140038666Y-103208666D01*
X140087047Y-103160285D01*
X140183809Y-103111904D01*
X140474095Y-103111904D01*
X140570857Y-103160285D01*
X140619238Y-103208666D01*
X140667619Y-103305428D01*
X140667619Y-103450571D01*
D15*
X144931190Y-100871261D02*
X144931190Y-101385309D01*
X144961428Y-101445785D01*
X144991666Y-101476023D01*
X145052142Y-101506261D01*
X145173095Y-101506261D01*
X145233571Y-101476023D01*
X145263809Y-101445785D01*
X145294047Y-101385309D01*
X145294047Y-100871261D01*
X145535952Y-100871261D02*
X145929047Y-100871261D01*
X145717380Y-101113166D01*
X145808095Y-101113166D01*
X145868571Y-101143404D01*
X145898809Y-101173642D01*
X145929047Y-101234119D01*
X145929047Y-101385309D01*
X145898809Y-101445785D01*
X145868571Y-101476023D01*
X145808095Y-101506261D01*
X145626666Y-101506261D01*
X145566190Y-101476023D01*
X145535952Y-101445785D01*
X153455309Y-103411261D02*
X153455309Y-102776261D01*
X153606500Y-102776261D01*
X153697214Y-102806500D01*
X153757690Y-102866976D01*
X153787928Y-102927452D01*
X153818166Y-103048404D01*
X153818166Y-103139119D01*
X153787928Y-103260071D01*
X153757690Y-103320547D01*
X153697214Y-103381023D01*
X153606500Y-103411261D01*
X153455309Y-103411261D01*
X154029833Y-102776261D02*
X154422928Y-102776261D01*
X154211261Y-103018166D01*
X154301976Y-103018166D01*
X154362452Y-103048404D01*
X154392690Y-103078642D01*
X154422928Y-103139119D01*
X154422928Y-103290309D01*
X154392690Y-103350785D01*
X154362452Y-103381023D01*
X154301976Y-103411261D01*
X154120547Y-103411261D01*
X154060071Y-103381023D01*
X154029833Y-103350785D01*
X138463261Y-117595952D02*
X138977309Y-117595952D01*
X139037785Y-117565714D01*
X139068023Y-117535476D01*
X139098261Y-117475000D01*
X139098261Y-117354047D01*
X139068023Y-117293571D01*
X139037785Y-117263333D01*
X138977309Y-117233095D01*
X138463261Y-117233095D01*
X139068023Y-116960952D02*
X139098261Y-116870238D01*
X139098261Y-116719047D01*
X139068023Y-116658571D01*
X139037785Y-116628333D01*
X138977309Y-116598095D01*
X138916833Y-116598095D01*
X138856357Y-116628333D01*
X138826119Y-116658571D01*
X138795880Y-116719047D01*
X138765642Y-116840000D01*
X138735404Y-116900476D01*
X138705166Y-116930714D01*
X138644690Y-116960952D01*
X138584214Y-116960952D01*
X138523738Y-116930714D01*
X138493500Y-116900476D01*
X138463261Y-116840000D01*
X138463261Y-116688809D01*
X138493500Y-116598095D01*
X138765642Y-116114285D02*
X138795880Y-116023571D01*
X138826119Y-115993333D01*
X138886595Y-115963095D01*
X138977309Y-115963095D01*
X139037785Y-115993333D01*
X139068023Y-116023571D01*
X139098261Y-116084047D01*
X139098261Y-116325952D01*
X138463261Y-116325952D01*
X138463261Y-116114285D01*
X138493500Y-116053809D01*
X138523738Y-116023571D01*
X138584214Y-115993333D01*
X138644690Y-115993333D01*
X138705166Y-116023571D01*
X138735404Y-116053809D01*
X138765642Y-116114285D01*
X138765642Y-116325952D01*
X138856357Y-115690952D02*
X138856357Y-115207142D01*
X138463261Y-114904761D02*
X138977309Y-114904761D01*
X139037785Y-114874523D01*
X139068023Y-114844285D01*
X139098261Y-114783809D01*
X139098261Y-114662857D01*
X139068023Y-114602380D01*
X139037785Y-114572142D01*
X138977309Y-114541904D01*
X138463261Y-114541904D01*
X138916833Y-114269761D02*
X138916833Y-113967380D01*
X139098261Y-114330238D02*
X138463261Y-114118571D01*
X139098261Y-113906904D01*
X139098261Y-113332380D02*
X138795880Y-113544047D01*
X139098261Y-113695238D02*
X138463261Y-113695238D01*
X138463261Y-113453333D01*
X138493500Y-113392857D01*
X138523738Y-113362619D01*
X138584214Y-113332380D01*
X138674928Y-113332380D01*
X138735404Y-113362619D01*
X138765642Y-113392857D01*
X138795880Y-113453333D01*
X138795880Y-113695238D01*
X138463261Y-113150952D02*
X138463261Y-112788095D01*
X139098261Y-112969523D02*
X138463261Y-112969523D01*
X139098261Y-112243809D02*
X139098261Y-112606666D01*
X139098261Y-112425238D02*
X138463261Y-112425238D01*
X138553976Y-112485714D01*
X138614452Y-112546190D01*
X138644690Y-112606666D01*
D10*
X133204857Y-112739714D02*
X132950857Y-112376857D01*
X132769428Y-112739714D02*
X132769428Y-111977714D01*
X133059714Y-111977714D01*
X133132285Y-112014000D01*
X133168571Y-112050285D01*
X133204857Y-112122857D01*
X133204857Y-112231714D01*
X133168571Y-112304285D01*
X133132285Y-112340571D01*
X133059714Y-112376857D01*
X132769428Y-112376857D01*
X133495142Y-112703428D02*
X133604000Y-112739714D01*
X133785428Y-112739714D01*
X133858000Y-112703428D01*
X133894285Y-112667142D01*
X133930571Y-112594571D01*
X133930571Y-112522000D01*
X133894285Y-112449428D01*
X133858000Y-112413142D01*
X133785428Y-112376857D01*
X133640285Y-112340571D01*
X133567714Y-112304285D01*
X133531428Y-112268000D01*
X133495142Y-112195428D01*
X133495142Y-112122857D01*
X133531428Y-112050285D01*
X133567714Y-112014000D01*
X133640285Y-111977714D01*
X133821714Y-111977714D01*
X133930571Y-112014000D01*
X134148285Y-111977714D02*
X134583714Y-111977714D01*
X134366000Y-112739714D02*
X134366000Y-111977714D01*
X135236857Y-112739714D02*
X134801428Y-112739714D01*
X135019142Y-112739714D02*
X135019142Y-111977714D01*
X134946571Y-112086571D01*
X134874000Y-112159142D01*
X134801428Y-112195428D01*
D13*
X136785047Y-118720809D02*
X136785047Y-118212809D01*
X136906000Y-118212809D01*
X136978571Y-118237000D01*
X137026952Y-118285380D01*
X137051142Y-118333761D01*
X137075333Y-118430523D01*
X137075333Y-118503095D01*
X137051142Y-118599857D01*
X137026952Y-118648238D01*
X136978571Y-118696619D01*
X136906000Y-118720809D01*
X136785047Y-118720809D01*
X137559142Y-118720809D02*
X137268857Y-118720809D01*
X137414000Y-118720809D02*
X137414000Y-118212809D01*
X137365619Y-118285380D01*
X137317238Y-118333761D01*
X137268857Y-118357952D01*
D15*
X150972761Y-99846190D02*
X150337761Y-99846190D01*
X150337761Y-99695000D01*
X150368000Y-99604285D01*
X150428476Y-99543809D01*
X150488952Y-99513571D01*
X150609904Y-99483333D01*
X150700619Y-99483333D01*
X150821571Y-99513571D01*
X150882047Y-99543809D01*
X150942523Y-99604285D01*
X150972761Y-99695000D01*
X150972761Y-99846190D01*
X150398238Y-99241428D02*
X150368000Y-99211190D01*
X150337761Y-99150714D01*
X150337761Y-98999523D01*
X150368000Y-98939047D01*
X150398238Y-98908809D01*
X150458714Y-98878571D01*
X150519190Y-98878571D01*
X150609904Y-98908809D01*
X150972761Y-99271666D01*
X150972761Y-98878571D01*
X136310309Y-100744261D02*
X136310309Y-100109261D01*
X136461500Y-100109261D01*
X136552214Y-100139500D01*
X136612690Y-100199976D01*
X136642928Y-100260452D01*
X136673166Y-100381404D01*
X136673166Y-100472119D01*
X136642928Y-100593071D01*
X136612690Y-100653547D01*
X136552214Y-100714023D01*
X136461500Y-100744261D01*
X136310309Y-100744261D01*
X137217452Y-100320928D02*
X137217452Y-100744261D01*
X137066261Y-100079023D02*
X136915071Y-100532595D01*
X137308166Y-100532595D01*
X134024309Y-100744261D02*
X134024309Y-100109261D01*
X134175500Y-100109261D01*
X134266214Y-100139500D01*
X134326690Y-100199976D01*
X134356928Y-100260452D01*
X134387166Y-100381404D01*
X134387166Y-100472119D01*
X134356928Y-100593071D01*
X134326690Y-100653547D01*
X134266214Y-100714023D01*
X134175500Y-100744261D01*
X134024309Y-100744261D01*
X134961690Y-100109261D02*
X134659309Y-100109261D01*
X134629071Y-100411642D01*
X134659309Y-100381404D01*
X134719785Y-100351166D01*
X134870976Y-100351166D01*
X134931452Y-100381404D01*
X134961690Y-100411642D01*
X134991928Y-100472119D01*
X134991928Y-100623309D01*
X134961690Y-100683785D01*
X134931452Y-100714023D01*
X134870976Y-100744261D01*
X134719785Y-100744261D01*
X134659309Y-100714023D01*
X134629071Y-100683785D01*
D13*
X154601333Y-112766928D02*
X154577142Y-112791119D01*
X154504571Y-112815309D01*
X154456190Y-112815309D01*
X154383619Y-112791119D01*
X154335238Y-112742738D01*
X154311047Y-112694357D01*
X154286857Y-112597595D01*
X154286857Y-112525023D01*
X154311047Y-112428261D01*
X154335238Y-112379880D01*
X154383619Y-112331500D01*
X154456190Y-112307309D01*
X154504571Y-112307309D01*
X154577142Y-112331500D01*
X154601333Y-112355690D01*
X155085142Y-112815309D02*
X154794857Y-112815309D01*
X154940000Y-112815309D02*
X154940000Y-112307309D01*
X154891619Y-112379880D01*
X154843238Y-112428261D01*
X154794857Y-112452452D01*
D15*
X145753666Y-103160285D02*
X145723428Y-103190523D01*
X145632714Y-103220761D01*
X145572238Y-103220761D01*
X145481523Y-103190523D01*
X145421047Y-103130047D01*
X145390809Y-103069571D01*
X145360571Y-102948619D01*
X145360571Y-102857904D01*
X145390809Y-102736952D01*
X145421047Y-102676476D01*
X145481523Y-102616000D01*
X145572238Y-102585761D01*
X145632714Y-102585761D01*
X145723428Y-102616000D01*
X145753666Y-102646238D01*
X146297952Y-102585761D02*
X146177000Y-102585761D01*
X146116523Y-102616000D01*
X146086285Y-102646238D01*
X146025809Y-102736952D01*
X145995571Y-102857904D01*
X145995571Y-103099809D01*
X146025809Y-103160285D01*
X146056047Y-103190523D01*
X146116523Y-103220761D01*
X146237476Y-103220761D01*
X146297952Y-103190523D01*
X146328190Y-103160285D01*
X146358428Y-103099809D01*
X146358428Y-102948619D01*
X146328190Y-102888142D01*
X146297952Y-102857904D01*
X146237476Y-102827666D01*
X146116523Y-102827666D01*
X146056047Y-102857904D01*
X146025809Y-102888142D01*
X145995571Y-102948619D01*
X143404166Y-97508785D02*
X143373928Y-97539023D01*
X143283214Y-97569261D01*
X143222738Y-97569261D01*
X143132023Y-97539023D01*
X143071547Y-97478547D01*
X143041309Y-97418071D01*
X143011071Y-97297119D01*
X143011071Y-97206404D01*
X143041309Y-97085452D01*
X143071547Y-97024976D01*
X143132023Y-96964500D01*
X143222738Y-96934261D01*
X143283214Y-96934261D01*
X143373928Y-96964500D01*
X143404166Y-96994738D01*
X143615833Y-96934261D02*
X144039166Y-96934261D01*
X143767023Y-97569261D01*
D13*
X148121309Y-97620666D02*
X147879404Y-97790000D01*
X148121309Y-97910952D02*
X147613309Y-97910952D01*
X147613309Y-97717428D01*
X147637500Y-97669047D01*
X147661690Y-97644857D01*
X147710071Y-97620666D01*
X147782642Y-97620666D01*
X147831023Y-97644857D01*
X147855214Y-97669047D01*
X147879404Y-97717428D01*
X147879404Y-97910952D01*
X148121309Y-97136857D02*
X148121309Y-97427142D01*
X148121309Y-97282000D02*
X147613309Y-97282000D01*
X147685880Y-97330380D01*
X147734261Y-97378761D01*
X147758452Y-97427142D01*
X133138333Y-84621309D02*
X132969000Y-84379404D01*
X132848047Y-84621309D02*
X132848047Y-84113309D01*
X133041571Y-84113309D01*
X133089952Y-84137500D01*
X133114142Y-84161690D01*
X133138333Y-84210071D01*
X133138333Y-84282642D01*
X133114142Y-84331023D01*
X133089952Y-84355214D01*
X133041571Y-84379404D01*
X132848047Y-84379404D01*
X133331857Y-84161690D02*
X133356047Y-84137500D01*
X133404428Y-84113309D01*
X133525380Y-84113309D01*
X133573761Y-84137500D01*
X133597952Y-84161690D01*
X133622142Y-84210071D01*
X133622142Y-84258452D01*
X133597952Y-84331023D01*
X133307666Y-84621309D01*
X133622142Y-84621309D01*
D15*
X132494261Y-107928833D02*
X132191880Y-108140500D01*
X132494261Y-108291690D02*
X131859261Y-108291690D01*
X131859261Y-108049785D01*
X131889500Y-107989309D01*
X131919738Y-107959071D01*
X131980214Y-107928833D01*
X132070928Y-107928833D01*
X132131404Y-107959071D01*
X132161642Y-107989309D01*
X132191880Y-108049785D01*
X132191880Y-108291690D01*
X131859261Y-107717166D02*
X131859261Y-107324071D01*
X132101166Y-107535738D01*
X132101166Y-107445023D01*
X132131404Y-107384547D01*
X132161642Y-107354309D01*
X132222119Y-107324071D01*
X132373309Y-107324071D01*
X132433785Y-107354309D01*
X132464023Y-107384547D01*
X132494261Y-107445023D01*
X132494261Y-107626452D01*
X132464023Y-107686928D01*
X132433785Y-107717166D01*
D13*
X153902833Y-111672309D02*
X153733500Y-111430404D01*
X153612547Y-111672309D02*
X153612547Y-111164309D01*
X153806071Y-111164309D01*
X153854452Y-111188500D01*
X153878642Y-111212690D01*
X153902833Y-111261071D01*
X153902833Y-111333642D01*
X153878642Y-111382023D01*
X153854452Y-111406214D01*
X153806071Y-111430404D01*
X153612547Y-111430404D01*
X154338261Y-111333642D02*
X154338261Y-111672309D01*
X154217309Y-111140119D02*
X154096357Y-111502976D01*
X154410833Y-111502976D01*
X133392333Y-79706409D02*
X133223000Y-79464504D01*
X133102047Y-79706409D02*
X133102047Y-79198409D01*
X133295571Y-79198409D01*
X133343952Y-79222600D01*
X133368142Y-79246790D01*
X133392333Y-79295171D01*
X133392333Y-79367742D01*
X133368142Y-79416123D01*
X133343952Y-79440314D01*
X133295571Y-79464504D01*
X133102047Y-79464504D01*
X133851952Y-79198409D02*
X133610047Y-79198409D01*
X133585857Y-79440314D01*
X133610047Y-79416123D01*
X133658428Y-79391933D01*
X133779380Y-79391933D01*
X133827761Y-79416123D01*
X133851952Y-79440314D01*
X133876142Y-79488695D01*
X133876142Y-79609647D01*
X133851952Y-79658028D01*
X133827761Y-79682219D01*
X133779380Y-79706409D01*
X133658428Y-79706409D01*
X133610047Y-79682219D01*
X133585857Y-79658028D01*
X136821333Y-106465309D02*
X136652000Y-106223404D01*
X136531047Y-106465309D02*
X136531047Y-105957309D01*
X136724571Y-105957309D01*
X136772952Y-105981500D01*
X136797142Y-106005690D01*
X136821333Y-106054071D01*
X136821333Y-106126642D01*
X136797142Y-106175023D01*
X136772952Y-106199214D01*
X136724571Y-106223404D01*
X136531047Y-106223404D01*
X137256761Y-105957309D02*
X137160000Y-105957309D01*
X137111619Y-105981500D01*
X137087428Y-106005690D01*
X137039047Y-106078261D01*
X137014857Y-106175023D01*
X137014857Y-106368547D01*
X137039047Y-106416928D01*
X137063238Y-106441119D01*
X137111619Y-106465309D01*
X137208380Y-106465309D01*
X137256761Y-106441119D01*
X137280952Y-106416928D01*
X137305142Y-106368547D01*
X137305142Y-106247595D01*
X137280952Y-106199214D01*
X137256761Y-106175023D01*
X137208380Y-106150833D01*
X137111619Y-106150833D01*
X137063238Y-106175023D01*
X137039047Y-106199214D01*
X137014857Y-106247595D01*
D15*
X136990666Y-98839261D02*
X136779000Y-98536880D01*
X136627809Y-98839261D02*
X136627809Y-98204261D01*
X136869714Y-98204261D01*
X136930190Y-98234500D01*
X136960428Y-98264738D01*
X136990666Y-98325214D01*
X136990666Y-98415928D01*
X136960428Y-98476404D01*
X136930190Y-98506642D01*
X136869714Y-98536880D01*
X136627809Y-98536880D01*
X137202333Y-98204261D02*
X137625666Y-98204261D01*
X137353523Y-98839261D01*
D13*
X150854833Y-106655809D02*
X150685500Y-106413904D01*
X150564547Y-106655809D02*
X150564547Y-106147809D01*
X150758071Y-106147809D01*
X150806452Y-106172000D01*
X150830642Y-106196190D01*
X150854833Y-106244571D01*
X150854833Y-106317142D01*
X150830642Y-106365523D01*
X150806452Y-106389714D01*
X150758071Y-106413904D01*
X150564547Y-106413904D01*
X151145119Y-106365523D02*
X151096738Y-106341333D01*
X151072547Y-106317142D01*
X151048357Y-106268761D01*
X151048357Y-106244571D01*
X151072547Y-106196190D01*
X151096738Y-106172000D01*
X151145119Y-106147809D01*
X151241880Y-106147809D01*
X151290261Y-106172000D01*
X151314452Y-106196190D01*
X151338642Y-106244571D01*
X151338642Y-106268761D01*
X151314452Y-106317142D01*
X151290261Y-106341333D01*
X151241880Y-106365523D01*
X151145119Y-106365523D01*
X151096738Y-106389714D01*
X151072547Y-106413904D01*
X151048357Y-106462285D01*
X151048357Y-106559047D01*
X151072547Y-106607428D01*
X151096738Y-106631619D01*
X151145119Y-106655809D01*
X151241880Y-106655809D01*
X151290261Y-106631619D01*
X151314452Y-106607428D01*
X151338642Y-106559047D01*
X151338642Y-106462285D01*
X151314452Y-106413904D01*
X151290261Y-106389714D01*
X151241880Y-106365523D01*
X151042309Y-105367666D02*
X150800404Y-105537000D01*
X151042309Y-105657952D02*
X150534309Y-105657952D01*
X150534309Y-105464428D01*
X150558500Y-105416047D01*
X150582690Y-105391857D01*
X150631071Y-105367666D01*
X150703642Y-105367666D01*
X150752023Y-105391857D01*
X150776214Y-105416047D01*
X150800404Y-105464428D01*
X150800404Y-105657952D01*
X151042309Y-105125761D02*
X151042309Y-105029000D01*
X151018119Y-104980619D01*
X150993928Y-104956428D01*
X150921357Y-104908047D01*
X150824595Y-104883857D01*
X150631071Y-104883857D01*
X150582690Y-104908047D01*
X150558500Y-104932238D01*
X150534309Y-104980619D01*
X150534309Y-105077380D01*
X150558500Y-105125761D01*
X150582690Y-105149952D01*
X150631071Y-105174142D01*
X150752023Y-105174142D01*
X150800404Y-105149952D01*
X150824595Y-105125761D01*
X150848785Y-105077380D01*
X150848785Y-104980619D01*
X150824595Y-104932238D01*
X150800404Y-104908047D01*
X150752023Y-104883857D01*
X148644428Y-110656309D02*
X148475095Y-110414404D01*
X148354142Y-110656309D02*
X148354142Y-110148309D01*
X148547666Y-110148309D01*
X148596047Y-110172500D01*
X148620238Y-110196690D01*
X148644428Y-110245071D01*
X148644428Y-110317642D01*
X148620238Y-110366023D01*
X148596047Y-110390214D01*
X148547666Y-110414404D01*
X148354142Y-110414404D01*
X149128238Y-110656309D02*
X148837952Y-110656309D01*
X148983095Y-110656309D02*
X148983095Y-110148309D01*
X148934714Y-110220880D01*
X148886333Y-110269261D01*
X148837952Y-110293452D01*
X149442714Y-110148309D02*
X149491095Y-110148309D01*
X149539476Y-110172500D01*
X149563666Y-110196690D01*
X149587857Y-110245071D01*
X149612047Y-110341833D01*
X149612047Y-110462785D01*
X149587857Y-110559547D01*
X149563666Y-110607928D01*
X149539476Y-110632119D01*
X149491095Y-110656309D01*
X149442714Y-110656309D01*
X149394333Y-110632119D01*
X149370142Y-110607928D01*
X149345952Y-110559547D01*
X149321761Y-110462785D01*
X149321761Y-110341833D01*
X149345952Y-110245071D01*
X149370142Y-110196690D01*
X149394333Y-110172500D01*
X149442714Y-110148309D01*
X145771809Y-97672071D02*
X145529904Y-97841404D01*
X145771809Y-97962357D02*
X145263809Y-97962357D01*
X145263809Y-97768833D01*
X145288000Y-97720452D01*
X145312190Y-97696261D01*
X145360571Y-97672071D01*
X145433142Y-97672071D01*
X145481523Y-97696261D01*
X145505714Y-97720452D01*
X145529904Y-97768833D01*
X145529904Y-97962357D01*
X145771809Y-97188261D02*
X145771809Y-97478547D01*
X145771809Y-97333404D02*
X145263809Y-97333404D01*
X145336380Y-97381785D01*
X145384761Y-97430166D01*
X145408952Y-97478547D01*
X145771809Y-96704452D02*
X145771809Y-96994738D01*
X145771809Y-96849595D02*
X145263809Y-96849595D01*
X145336380Y-96897976D01*
X145384761Y-96946357D01*
X145408952Y-96994738D01*
X146660809Y-97672071D02*
X146418904Y-97841404D01*
X146660809Y-97962357D02*
X146152809Y-97962357D01*
X146152809Y-97768833D01*
X146177000Y-97720452D01*
X146201190Y-97696261D01*
X146249571Y-97672071D01*
X146322142Y-97672071D01*
X146370523Y-97696261D01*
X146394714Y-97720452D01*
X146418904Y-97768833D01*
X146418904Y-97962357D01*
X146660809Y-97188261D02*
X146660809Y-97478547D01*
X146660809Y-97333404D02*
X146152809Y-97333404D01*
X146225380Y-97381785D01*
X146273761Y-97430166D01*
X146297952Y-97478547D01*
X146201190Y-96994738D02*
X146177000Y-96970547D01*
X146152809Y-96922166D01*
X146152809Y-96801214D01*
X146177000Y-96752833D01*
X146201190Y-96728642D01*
X146249571Y-96704452D01*
X146297952Y-96704452D01*
X146370523Y-96728642D01*
X146660809Y-97018928D01*
X146660809Y-96704452D01*
X132563809Y-74494571D02*
X132321904Y-74663904D01*
X132563809Y-74784857D02*
X132055809Y-74784857D01*
X132055809Y-74591333D01*
X132080000Y-74542952D01*
X132104190Y-74518761D01*
X132152571Y-74494571D01*
X132225142Y-74494571D01*
X132273523Y-74518761D01*
X132297714Y-74542952D01*
X132321904Y-74591333D01*
X132321904Y-74784857D01*
X132563809Y-74010761D02*
X132563809Y-74301047D01*
X132563809Y-74155904D02*
X132055809Y-74155904D01*
X132128380Y-74204285D01*
X132176761Y-74252666D01*
X132200952Y-74301047D01*
X132055809Y-73841428D02*
X132055809Y-73526952D01*
X132249333Y-73696285D01*
X132249333Y-73623714D01*
X132273523Y-73575333D01*
X132297714Y-73551142D01*
X132346095Y-73526952D01*
X132467047Y-73526952D01*
X132515428Y-73551142D01*
X132539619Y-73575333D01*
X132563809Y-73623714D01*
X132563809Y-73768857D01*
X132539619Y-73817238D01*
X132515428Y-73841428D01*
X132182809Y-76463071D02*
X131940904Y-76632404D01*
X132182809Y-76753357D02*
X131674809Y-76753357D01*
X131674809Y-76559833D01*
X131699000Y-76511452D01*
X131723190Y-76487261D01*
X131771571Y-76463071D01*
X131844142Y-76463071D01*
X131892523Y-76487261D01*
X131916714Y-76511452D01*
X131940904Y-76559833D01*
X131940904Y-76753357D01*
X132182809Y-75979261D02*
X132182809Y-76269547D01*
X132182809Y-76124404D02*
X131674809Y-76124404D01*
X131747380Y-76172785D01*
X131795761Y-76221166D01*
X131819952Y-76269547D01*
X131674809Y-75519642D02*
X131674809Y-75761547D01*
X131916714Y-75785738D01*
X131892523Y-75761547D01*
X131868333Y-75713166D01*
X131868333Y-75592214D01*
X131892523Y-75543833D01*
X131916714Y-75519642D01*
X131965095Y-75495452D01*
X132086047Y-75495452D01*
X132134428Y-75519642D01*
X132158619Y-75543833D01*
X132182809Y-75592214D01*
X132182809Y-75713166D01*
X132158619Y-75761547D01*
X132134428Y-75785738D01*
X133770309Y-76463071D02*
X133528404Y-76632404D01*
X133770309Y-76753357D02*
X133262309Y-76753357D01*
X133262309Y-76559833D01*
X133286500Y-76511452D01*
X133310690Y-76487261D01*
X133359071Y-76463071D01*
X133431642Y-76463071D01*
X133480023Y-76487261D01*
X133504214Y-76511452D01*
X133528404Y-76559833D01*
X133528404Y-76753357D01*
X133770309Y-75979261D02*
X133770309Y-76269547D01*
X133770309Y-76124404D02*
X133262309Y-76124404D01*
X133334880Y-76172785D01*
X133383261Y-76221166D01*
X133407452Y-76269547D01*
X133262309Y-75543833D02*
X133262309Y-75640595D01*
X133286500Y-75688976D01*
X133310690Y-75713166D01*
X133383261Y-75761547D01*
X133480023Y-75785738D01*
X133673547Y-75785738D01*
X133721928Y-75761547D01*
X133746119Y-75737357D01*
X133770309Y-75688976D01*
X133770309Y-75592214D01*
X133746119Y-75543833D01*
X133721928Y-75519642D01*
X133673547Y-75495452D01*
X133552595Y-75495452D01*
X133504214Y-75519642D01*
X133480023Y-75543833D01*
X133455833Y-75592214D01*
X133455833Y-75688976D01*
X133480023Y-75737357D01*
X133504214Y-75761547D01*
X133552595Y-75785738D01*
X139294809Y-104911071D02*
X139052904Y-105080404D01*
X139294809Y-105201357D02*
X138786809Y-105201357D01*
X138786809Y-105007833D01*
X138811000Y-104959452D01*
X138835190Y-104935261D01*
X138883571Y-104911071D01*
X138956142Y-104911071D01*
X139004523Y-104935261D01*
X139028714Y-104959452D01*
X139052904Y-105007833D01*
X139052904Y-105201357D01*
X139294809Y-104427261D02*
X139294809Y-104717547D01*
X139294809Y-104572404D02*
X138786809Y-104572404D01*
X138859380Y-104620785D01*
X138907761Y-104669166D01*
X138931952Y-104717547D01*
X138786809Y-104257928D02*
X138786809Y-103919261D01*
X139294809Y-104136976D01*
X138789833Y-108004428D02*
X138765642Y-108028619D01*
X138693071Y-108052809D01*
X138644690Y-108052809D01*
X138572119Y-108028619D01*
X138523738Y-107980238D01*
X138499547Y-107931857D01*
X138475357Y-107835095D01*
X138475357Y-107762523D01*
X138499547Y-107665761D01*
X138523738Y-107617380D01*
X138572119Y-107569000D01*
X138644690Y-107544809D01*
X138693071Y-107544809D01*
X138765642Y-107569000D01*
X138789833Y-107593190D01*
X138983357Y-107593190D02*
X139007547Y-107569000D01*
X139055928Y-107544809D01*
X139176880Y-107544809D01*
X139225261Y-107569000D01*
X139249452Y-107593190D01*
X139273642Y-107641571D01*
X139273642Y-107689952D01*
X139249452Y-107762523D01*
X138959166Y-108052809D01*
X139273642Y-108052809D01*
D15*
X139657666Y-111224785D02*
X139627428Y-111255023D01*
X139536714Y-111285261D01*
X139476238Y-111285261D01*
X139385523Y-111255023D01*
X139325047Y-111194547D01*
X139294809Y-111134071D01*
X139264571Y-111013119D01*
X139264571Y-110922404D01*
X139294809Y-110801452D01*
X139325047Y-110740976D01*
X139385523Y-110680500D01*
X139476238Y-110650261D01*
X139536714Y-110650261D01*
X139627428Y-110680500D01*
X139657666Y-110710738D01*
X139869333Y-110650261D02*
X140262428Y-110650261D01*
X140050761Y-110892166D01*
X140141476Y-110892166D01*
X140201952Y-110922404D01*
X140232190Y-110952642D01*
X140262428Y-111013119D01*
X140262428Y-111164309D01*
X140232190Y-111224785D01*
X140201952Y-111255023D01*
X140141476Y-111285261D01*
X139960047Y-111285261D01*
X139899571Y-111255023D01*
X139869333Y-111224785D01*
D13*
X138789833Y-106416928D02*
X138765642Y-106441119D01*
X138693071Y-106465309D01*
X138644690Y-106465309D01*
X138572119Y-106441119D01*
X138523738Y-106392738D01*
X138499547Y-106344357D01*
X138475357Y-106247595D01*
X138475357Y-106175023D01*
X138499547Y-106078261D01*
X138523738Y-106029880D01*
X138572119Y-105981500D01*
X138644690Y-105957309D01*
X138693071Y-105957309D01*
X138765642Y-105981500D01*
X138789833Y-106005690D01*
X139249452Y-105957309D02*
X139007547Y-105957309D01*
X138983357Y-106199214D01*
X139007547Y-106175023D01*
X139055928Y-106150833D01*
X139176880Y-106150833D01*
X139225261Y-106175023D01*
X139249452Y-106199214D01*
X139273642Y-106247595D01*
X139273642Y-106368547D01*
X139249452Y-106416928D01*
X139225261Y-106441119D01*
X139176880Y-106465309D01*
X139055928Y-106465309D01*
X139007547Y-106441119D01*
X138983357Y-106416928D01*
X132185833Y-82794928D02*
X132161642Y-82819119D01*
X132089071Y-82843309D01*
X132040690Y-82843309D01*
X131968119Y-82819119D01*
X131919738Y-82770738D01*
X131895547Y-82722357D01*
X131871357Y-82625595D01*
X131871357Y-82553023D01*
X131895547Y-82456261D01*
X131919738Y-82407880D01*
X131968119Y-82359500D01*
X132040690Y-82335309D01*
X132089071Y-82335309D01*
X132161642Y-82359500D01*
X132185833Y-82383690D01*
X132427738Y-82843309D02*
X132524500Y-82843309D01*
X132572880Y-82819119D01*
X132597071Y-82794928D01*
X132645452Y-82722357D01*
X132669642Y-82625595D01*
X132669642Y-82432071D01*
X132645452Y-82383690D01*
X132621261Y-82359500D01*
X132572880Y-82335309D01*
X132476119Y-82335309D01*
X132427738Y-82359500D01*
X132403547Y-82383690D01*
X132379357Y-82432071D01*
X132379357Y-82553023D01*
X132403547Y-82601404D01*
X132427738Y-82625595D01*
X132476119Y-82649785D01*
X132572880Y-82649785D01*
X132621261Y-82625595D01*
X132645452Y-82601404D01*
X132669642Y-82553023D01*
D15*
X134387166Y-97381785D02*
X134356928Y-97412023D01*
X134266214Y-97442261D01*
X134205738Y-97442261D01*
X134115023Y-97412023D01*
X134054547Y-97351547D01*
X134024309Y-97291071D01*
X133994071Y-97170119D01*
X133994071Y-97079404D01*
X134024309Y-96958452D01*
X134054547Y-96897976D01*
X134115023Y-96837500D01*
X134205738Y-96807261D01*
X134266214Y-96807261D01*
X134356928Y-96837500D01*
X134387166Y-96867738D01*
X134750023Y-97079404D02*
X134689547Y-97049166D01*
X134659309Y-97018928D01*
X134629071Y-96958452D01*
X134629071Y-96928214D01*
X134659309Y-96867738D01*
X134689547Y-96837500D01*
X134750023Y-96807261D01*
X134870976Y-96807261D01*
X134931452Y-96837500D01*
X134961690Y-96867738D01*
X134991928Y-96928214D01*
X134991928Y-96958452D01*
X134961690Y-97018928D01*
X134931452Y-97049166D01*
X134870976Y-97079404D01*
X134750023Y-97079404D01*
X134689547Y-97109642D01*
X134659309Y-97139880D01*
X134629071Y-97200357D01*
X134629071Y-97321309D01*
X134659309Y-97381785D01*
X134689547Y-97412023D01*
X134750023Y-97442261D01*
X134870976Y-97442261D01*
X134931452Y-97412023D01*
X134961690Y-97381785D01*
X134991928Y-97321309D01*
X134991928Y-97200357D01*
X134961690Y-97139880D01*
X134931452Y-97109642D01*
X134870976Y-97079404D01*
M02*
