G04 #@! TF.GenerationSoftware,KiCad,Pcbnew,5.1.5-52549c5~84~ubuntu18.04.1*
G04 #@! TF.CreationDate,2020-03-19T15:54:58+02:00*
G04 #@! TF.ProjectId,ESP32-DevKit-Lipo_Rev_C,45535033-322d-4446-9576-4b69742d4c69,C*
G04 #@! TF.SameCoordinates,Original*
G04 #@! TF.FileFunction,Soldermask,Top*
G04 #@! TF.FilePolarity,Negative*
%FSLAX46Y46*%
G04 Gerber Fmt 4.6, Leading zero omitted, Abs format (unit mm)*
G04 Created by KiCad (PCBNEW 5.1.5-52549c5~84~ubuntu18.04.1) date 2020-03-19 15:54:58*
%MOMM*%
%LPD*%
G04 APERTURE LIST*
%ADD10R,2.101600X1.001600*%
%ADD11R,1.001600X2.101600*%
%ADD12R,5.101600X5.101600*%
%ADD13C,2.101600*%
%ADD14C,1.501600*%
%ADD15R,1.501600X1.501600*%
%ADD16R,0.901600X0.901600*%
%ADD17C,1.101600*%
%ADD18R,1.301600X1.501600*%
%ADD19R,1.117600X1.117600*%
%ADD20C,1.879600*%
%ADD21R,1.879600X1.879600*%
%ADD22R,1.501600X1.101600*%
%ADD23C,1.254000*%
%ADD24R,3.101600X1.701600*%
%ADD25R,1.101600X1.501600*%
%ADD26R,1.301600X0.651600*%
%ADD27R,1.371600X0.426600*%
%ADD28R,0.601600X1.751600*%
%ADD29R,0.426600X1.751600*%
%ADD30C,0.701600*%
%ADD31R,1.201600X1.101600*%
%ADD32O,1.301600X1.901600*%
%ADD33R,1.601600X1.001600*%
%ADD34C,0.801600*%
%ADD35R,0.651600X0.601600*%
%ADD36R,0.601600X0.651600*%
G04 APERTURE END LIST*
D10*
X152010000Y-94102000D03*
X152010000Y-92832000D03*
X152010000Y-91562000D03*
X152010000Y-90292000D03*
X152010000Y-95372000D03*
X135010000Y-95372000D03*
X135010000Y-90292000D03*
X135010000Y-91562000D03*
X135010000Y-92832000D03*
X135010000Y-94102000D03*
X135010000Y-72512000D03*
X135010000Y-73782000D03*
X135010000Y-75052000D03*
X135010000Y-76322000D03*
X135010000Y-77592000D03*
X135010000Y-78862000D03*
X135010000Y-80132000D03*
X135010000Y-81402000D03*
X135010000Y-82672000D03*
X135010000Y-83942000D03*
X135010000Y-85212000D03*
X135010000Y-86482000D03*
X135010000Y-87752000D03*
X135010000Y-89022000D03*
D11*
X137810000Y-90022000D03*
X139080000Y-90022000D03*
X140350000Y-90022000D03*
X141620000Y-90022000D03*
X142890000Y-90022000D03*
X144160000Y-90022000D03*
X145430000Y-90022000D03*
X146700000Y-90022000D03*
X147970000Y-90022000D03*
X149240000Y-90022000D03*
D10*
X152010000Y-89022000D03*
X152010000Y-87752000D03*
X152010000Y-86482000D03*
X152010000Y-85212000D03*
X152010000Y-83942000D03*
X152010000Y-82672000D03*
X152010000Y-81402000D03*
X152010000Y-80132000D03*
X152010000Y-78862000D03*
X152010000Y-77592000D03*
X152010000Y-76322000D03*
X152010000Y-75052000D03*
X152010000Y-73782000D03*
X152010000Y-72512000D03*
D12*
X142510000Y-80022000D03*
D13*
X142510000Y-80022000D03*
D14*
X152384760Y-116222780D03*
D15*
X150355300Y-116225320D03*
D16*
X133223000Y-109728000D03*
X133223000Y-111252000D03*
D17*
X154305000Y-72390000D03*
D18*
X137198000Y-108839000D03*
X135598000Y-111039000D03*
X137198000Y-111039000D03*
X135598000Y-108839000D03*
D19*
X150749000Y-103886000D03*
X148971000Y-103886000D03*
D20*
X130810000Y-80010000D03*
X130810000Y-77470000D03*
X130810000Y-74930000D03*
D21*
X130810000Y-72390000D03*
D20*
X130810000Y-82550000D03*
X130810000Y-85090000D03*
X130810000Y-90170000D03*
X130810000Y-87630000D03*
X130810000Y-92710000D03*
X130810000Y-95250000D03*
X130810000Y-100330000D03*
X130810000Y-97790000D03*
X130810000Y-102870000D03*
X130810000Y-105410000D03*
X130810000Y-110490000D03*
X130810000Y-107950000D03*
X130810000Y-118110000D03*
X130810000Y-115570000D03*
X130810000Y-113030000D03*
X156210000Y-80010000D03*
X156210000Y-77470000D03*
X156210000Y-74930000D03*
D21*
X156210000Y-72390000D03*
D20*
X156210000Y-82550000D03*
X156210000Y-85090000D03*
X156210000Y-90170000D03*
X156210000Y-87630000D03*
X156210000Y-92710000D03*
X156210000Y-95250000D03*
X156210000Y-100330000D03*
X156210000Y-97790000D03*
X156210000Y-102870000D03*
X156210000Y-105410000D03*
X156210000Y-110490000D03*
X156210000Y-107950000D03*
X156210000Y-118110000D03*
X156210000Y-115570000D03*
X156210000Y-113030000D03*
D22*
X151165560Y-100523040D03*
X151165560Y-102425500D03*
X153375360Y-101470460D03*
D23*
X151765000Y-98425000D03*
X135255000Y-98425000D03*
X148590000Y-73025000D03*
D24*
X140208000Y-99003000D03*
X140208000Y-101403000D03*
D25*
X151317960Y-108112560D03*
X149415500Y-108112560D03*
X150370540Y-110322360D03*
X154492960Y-108112560D03*
X152590500Y-108112560D03*
X153545540Y-110322360D03*
D26*
X148687000Y-111826000D03*
X148687000Y-112776000D03*
X148687000Y-113726000D03*
X151287000Y-111826000D03*
X151287000Y-113726000D03*
D27*
X140144500Y-104263000D03*
X140144500Y-104913000D03*
X140144500Y-105563000D03*
X140144500Y-106213000D03*
X140144500Y-106863000D03*
X140144500Y-107513000D03*
X140144500Y-108163000D03*
X140144500Y-108813000D03*
X140144500Y-109463000D03*
X140144500Y-110113000D03*
X147383500Y-110113000D03*
X147383500Y-109463000D03*
X147383500Y-108813000D03*
X147383500Y-108163000D03*
X147383500Y-107513000D03*
X147383500Y-106863000D03*
X147383500Y-106213000D03*
X147383500Y-105563000D03*
X147383500Y-104913000D03*
X147383500Y-104263000D03*
D26*
X142718000Y-100269000D03*
X142718000Y-101219000D03*
X142718000Y-102169000D03*
X145318000Y-100269000D03*
X145318000Y-102169000D03*
D22*
X151935000Y-105156000D03*
X154135000Y-104206000D03*
X154135000Y-106106000D03*
D28*
X142122500Y-112547000D03*
D29*
X142860000Y-112547000D03*
X143510000Y-112547000D03*
X144160000Y-112547000D03*
D28*
X144897500Y-112547000D03*
D30*
X141510000Y-113797000D03*
X145510000Y-113797000D03*
D31*
X142010000Y-117097000D03*
X145010000Y-117097000D03*
D32*
X139910000Y-115947000D03*
X139910000Y-112477000D03*
X147110000Y-112477000D03*
X147110000Y-115947000D03*
D33*
X133985000Y-113393000D03*
X133985000Y-117747000D03*
D34*
X134885000Y-115570000D03*
X133085000Y-115570000D03*
D22*
X137160000Y-113670000D03*
X137160000Y-117470000D03*
X149098000Y-98303000D03*
X149098000Y-102103000D03*
X136779000Y-101478000D03*
X136779000Y-105278000D03*
X134493000Y-105278000D03*
X134493000Y-101478000D03*
D19*
X154495500Y-113538000D03*
X152717500Y-113538000D03*
X147066000Y-100584000D03*
X147066000Y-102362000D03*
X144399000Y-98679000D03*
X142621000Y-98679000D03*
D35*
X147320000Y-98361500D03*
X147320000Y-99377500D03*
X133223000Y-82677000D03*
X133223000Y-83693000D03*
X133223000Y-107315000D03*
X133223000Y-108331000D03*
D36*
X153670000Y-112141000D03*
X152654000Y-112141000D03*
X132207000Y-80137001D03*
X133223000Y-80137001D03*
X136525000Y-106934000D03*
X135509000Y-106934000D03*
D35*
X138112500Y-98806000D03*
X138112500Y-99822000D03*
D36*
X150114000Y-106299000D03*
X149098000Y-106299000D03*
X150114000Y-105410000D03*
X149098000Y-105410000D03*
X151511000Y-110871000D03*
X152527000Y-110871000D03*
D35*
X145542000Y-98361500D03*
X145542000Y-99377500D03*
X146431000Y-98361500D03*
X146431000Y-99377500D03*
X133223000Y-74676000D03*
X133223000Y-73660000D03*
D36*
X133223000Y-77216000D03*
X132207000Y-77216000D03*
X132207000Y-78740000D03*
X133223000Y-78740000D03*
X138430000Y-103251000D03*
X139446000Y-103251000D03*
D35*
X138557000Y-108458000D03*
X138557000Y-109474000D03*
X138557000Y-111506000D03*
X138557000Y-110490000D03*
D36*
X137541000Y-106934000D03*
X138557000Y-106934000D03*
X133222999Y-81661000D03*
X132206999Y-81661000D03*
D23*
X144145000Y-115062000D03*
D19*
X133223000Y-99314000D03*
X133223000Y-97536000D03*
M02*
