G04 #@! TF.GenerationSoftware,KiCad,Pcbnew,5.1.5-52549c5~84~ubuntu18.04.1*
G04 #@! TF.CreationDate,2020-03-19T16:10:52+02:00*
G04 #@! TF.ProjectId,ESP32-DevKit-Lipo_Rev_C,45535033-322d-4446-9576-4b69742d4c69,C*
G04 #@! TF.SameCoordinates,Original*
G04 #@! TF.FileFunction,Legend,Bot*
G04 #@! TF.FilePolarity,Positive*
%FSLAX46Y46*%
G04 Gerber Fmt 4.6, Leading zero omitted, Abs format (unit mm)*
G04 Created by KiCad (PCBNEW 5.1.5-52549c5~84~ubuntu18.04.1) date 2020-03-19 16:10:52*
%MOMM*%
%LPD*%
G04 APERTURE LIST*
%ADD10C,0.254000*%
%ADD11C,0.222250*%
%ADD12C,0.177800*%
%ADD13C,0.158750*%
%ADD14C,0.139700*%
%ADD15C,0.317500*%
%ADD16C,0.152400*%
%ADD17C,0.150000*%
%ADD18C,0.420000*%
%ADD19C,0.370000*%
%ADD20C,0.400000*%
%ADD21C,0.380000*%
%ADD22C,1.000000*%
%ADD23C,0.127000*%
%ADD24C,0.700000*%
%ADD25C,0.500000*%
%ADD26C,0.100000*%
%ADD27C,0.180000*%
G04 APERTURE END LIST*
D10*
X148209000Y-113157000D02*
X148844000Y-113792000D01*
X148209000Y-111760000D02*
X148209000Y-113157000D01*
X154026809Y-115152714D02*
X153059190Y-115152714D01*
X149581809Y-115152714D02*
X148614190Y-115152714D01*
X149098000Y-115636523D02*
X149098000Y-114668904D01*
X138176000Y-76200000D02*
X138176000Y-71120000D01*
X141224000Y-81280000D02*
X141224000Y-76200000D01*
X148844000Y-116840000D02*
X149225000Y-116840000D01*
X149345618Y-114293618D02*
X148844000Y-113792000D01*
X148844000Y-111760000D02*
X148844000Y-113792000D01*
X147955000Y-114935000D02*
X147955000Y-115951000D01*
X138176000Y-119253000D02*
X138049000Y-119380000D01*
X131826000Y-119380000D02*
X138049000Y-119380000D01*
X131826000Y-71120000D02*
X138176000Y-71120000D01*
X148844000Y-71120000D02*
X155194000Y-71120000D01*
X148971000Y-119380000D02*
X155321000Y-119380000D01*
X142113000Y-115316000D02*
X146304000Y-115316000D01*
X147701000Y-118110000D02*
X148971000Y-119380000D01*
X145209380Y-109861047D02*
X145693190Y-110199714D01*
X145209380Y-110441619D02*
X146225380Y-110441619D01*
X146225380Y-110054571D01*
X146177000Y-109957809D01*
X146128619Y-109909428D01*
X146031857Y-109861047D01*
X145886714Y-109861047D01*
X145789952Y-109909428D01*
X145741571Y-109957809D01*
X145693190Y-110054571D01*
X145693190Y-110441619D01*
X145257761Y-109038571D02*
X145209380Y-109135333D01*
X145209380Y-109328857D01*
X145257761Y-109425619D01*
X145354523Y-109474000D01*
X145741571Y-109474000D01*
X145838333Y-109425619D01*
X145886714Y-109328857D01*
X145886714Y-109135333D01*
X145838333Y-109038571D01*
X145741571Y-108990190D01*
X145644809Y-108990190D01*
X145548047Y-109474000D01*
X145886714Y-108651523D02*
X145209380Y-108409619D01*
X145886714Y-108167714D01*
X145112619Y-108022571D02*
X145112619Y-107248476D01*
X145306142Y-106426000D02*
X145257761Y-106474380D01*
X145209380Y-106619523D01*
X145209380Y-106716285D01*
X145257761Y-106861428D01*
X145354523Y-106958190D01*
X145451285Y-107006571D01*
X145644809Y-107054952D01*
X145789952Y-107054952D01*
X145983476Y-107006571D01*
X146080238Y-106958190D01*
X146177000Y-106861428D01*
X146225380Y-106716285D01*
X146225380Y-106619523D01*
X146177000Y-106474380D01*
X146128619Y-106426000D01*
X144822333Y-98733428D02*
X144870714Y-98781809D01*
X145015857Y-98878571D01*
X145112619Y-98926952D01*
X145257761Y-98975333D01*
X145499666Y-99023714D01*
X145693190Y-99023714D01*
X145935095Y-98975333D01*
X146080238Y-98926952D01*
X146177000Y-98878571D01*
X146322142Y-98781809D01*
X146370523Y-98733428D01*
X145306142Y-97765809D02*
X145257761Y-97814190D01*
X145209380Y-97959333D01*
X145209380Y-98056095D01*
X145257761Y-98201238D01*
X145354523Y-98298000D01*
X145451285Y-98346380D01*
X145644809Y-98394761D01*
X145789952Y-98394761D01*
X145983476Y-98346380D01*
X146080238Y-98298000D01*
X146177000Y-98201238D01*
X146225380Y-98056095D01*
X146225380Y-97959333D01*
X146177000Y-97814190D01*
X146128619Y-97765809D01*
X144822333Y-97427142D02*
X144870714Y-97378761D01*
X145015857Y-97282000D01*
X145112619Y-97233619D01*
X145257761Y-97185238D01*
X145499666Y-97136857D01*
X145693190Y-97136857D01*
X145935095Y-97185238D01*
X146080238Y-97233619D01*
X146177000Y-97282000D01*
X146322142Y-97378761D01*
X146370523Y-97427142D01*
X146128619Y-96701428D02*
X146177000Y-96653047D01*
X146225380Y-96556285D01*
X146225380Y-96314380D01*
X146177000Y-96217619D01*
X146128619Y-96169238D01*
X146031857Y-96120857D01*
X145935095Y-96120857D01*
X145789952Y-96169238D01*
X145209380Y-96749809D01*
X145209380Y-96120857D01*
X146225380Y-95491904D02*
X146225380Y-95395142D01*
X146177000Y-95298380D01*
X146128619Y-95250000D01*
X146031857Y-95201619D01*
X145838333Y-95153238D01*
X145596428Y-95153238D01*
X145402904Y-95201619D01*
X145306142Y-95250000D01*
X145257761Y-95298380D01*
X145209380Y-95395142D01*
X145209380Y-95491904D01*
X145257761Y-95588666D01*
X145306142Y-95637047D01*
X145402904Y-95685428D01*
X145596428Y-95733809D01*
X145838333Y-95733809D01*
X146031857Y-95685428D01*
X146128619Y-95637047D01*
X146177000Y-95588666D01*
X146225380Y-95491904D01*
X146128619Y-94766190D02*
X146177000Y-94717809D01*
X146225380Y-94621047D01*
X146225380Y-94379142D01*
X146177000Y-94282380D01*
X146128619Y-94234000D01*
X146031857Y-94185619D01*
X145935095Y-94185619D01*
X145789952Y-94234000D01*
X145209380Y-94814571D01*
X145209380Y-94185619D01*
X146225380Y-93556666D02*
X146225380Y-93459904D01*
X146177000Y-93363142D01*
X146128619Y-93314761D01*
X146031857Y-93266380D01*
X145838333Y-93218000D01*
X145596428Y-93218000D01*
X145402904Y-93266380D01*
X145306142Y-93314761D01*
X145257761Y-93363142D01*
X145209380Y-93459904D01*
X145209380Y-93556666D01*
X145257761Y-93653428D01*
X145306142Y-93701809D01*
X145402904Y-93750190D01*
X145596428Y-93798571D01*
X145838333Y-93798571D01*
X146031857Y-93750190D01*
X146128619Y-93701809D01*
X146177000Y-93653428D01*
X146225380Y-93556666D01*
D11*
X138789833Y-111188500D02*
X139678833Y-111188500D01*
X138789833Y-110807500D02*
X139255500Y-110807500D01*
X139340166Y-110849833D01*
X139382500Y-110934500D01*
X139382500Y-111061500D01*
X139340166Y-111146166D01*
X139297833Y-111188500D01*
X139382500Y-110511166D02*
X139382500Y-110172500D01*
X139678833Y-110384166D02*
X138916833Y-110384166D01*
X138832166Y-110341833D01*
X138789833Y-110257166D01*
X138789833Y-110172500D01*
X139382500Y-110003166D02*
X139382500Y-109664500D01*
X139678833Y-109876166D02*
X138916833Y-109876166D01*
X138832166Y-109833833D01*
X138789833Y-109749166D01*
X138789833Y-109664500D01*
X139382500Y-109368166D02*
X138493500Y-109368166D01*
X139340166Y-109368166D02*
X139382500Y-109283500D01*
X139382500Y-109114166D01*
X139340166Y-109029500D01*
X139297833Y-108987166D01*
X139213166Y-108944833D01*
X138959166Y-108944833D01*
X138874500Y-108987166D01*
X138832166Y-109029500D01*
X138789833Y-109114166D01*
X138789833Y-109283500D01*
X138832166Y-109368166D01*
X138832166Y-108606166D02*
X138789833Y-108521500D01*
X138789833Y-108352166D01*
X138832166Y-108267500D01*
X138916833Y-108225166D01*
X138959166Y-108225166D01*
X139043833Y-108267500D01*
X139086166Y-108352166D01*
X139086166Y-108479166D01*
X139128500Y-108563833D01*
X139213166Y-108606166D01*
X139255500Y-108606166D01*
X139340166Y-108563833D01*
X139382500Y-108479166D01*
X139382500Y-108352166D01*
X139340166Y-108267500D01*
X138874500Y-107844166D02*
X138832166Y-107801833D01*
X138789833Y-107844166D01*
X138832166Y-107886500D01*
X138874500Y-107844166D01*
X138789833Y-107844166D01*
X139340166Y-107844166D02*
X139297833Y-107801833D01*
X139255500Y-107844166D01*
X139297833Y-107886500D01*
X139340166Y-107844166D01*
X139255500Y-107844166D01*
X139721166Y-106785833D02*
X138578166Y-107547833D01*
X139721166Y-105854500D02*
X138578166Y-106616500D01*
X139382500Y-105642833D02*
X138789833Y-105473500D01*
X139213166Y-105304166D01*
X138789833Y-105134833D01*
X139382500Y-104965500D01*
X139382500Y-104711500D02*
X138789833Y-104542166D01*
X139213166Y-104372833D01*
X138789833Y-104203500D01*
X139382500Y-104034166D01*
X139382500Y-103780166D02*
X138789833Y-103610833D01*
X139213166Y-103441500D01*
X138789833Y-103272166D01*
X139382500Y-103102833D01*
X138874500Y-102764166D02*
X138832166Y-102721833D01*
X138789833Y-102764166D01*
X138832166Y-102806500D01*
X138874500Y-102764166D01*
X138789833Y-102764166D01*
X138789833Y-102213833D02*
X138832166Y-102298500D01*
X138874500Y-102340833D01*
X138959166Y-102383166D01*
X139213166Y-102383166D01*
X139297833Y-102340833D01*
X139340166Y-102298500D01*
X139382500Y-102213833D01*
X139382500Y-102086833D01*
X139340166Y-102002166D01*
X139297833Y-101959833D01*
X139213166Y-101917500D01*
X138959166Y-101917500D01*
X138874500Y-101959833D01*
X138832166Y-102002166D01*
X138789833Y-102086833D01*
X138789833Y-102213833D01*
X138789833Y-101409500D02*
X138832166Y-101494166D01*
X138916833Y-101536500D01*
X139678833Y-101536500D01*
X138789833Y-101070833D02*
X139382500Y-101070833D01*
X139678833Y-101070833D02*
X139636500Y-101113166D01*
X139594166Y-101070833D01*
X139636500Y-101028500D01*
X139678833Y-101070833D01*
X139594166Y-101070833D01*
X138789833Y-100647500D02*
X139382500Y-100647500D01*
X139297833Y-100647500D02*
X139340166Y-100605166D01*
X139382500Y-100520500D01*
X139382500Y-100393500D01*
X139340166Y-100308833D01*
X139255500Y-100266500D01*
X138789833Y-100266500D01*
X139255500Y-100266500D02*
X139340166Y-100224166D01*
X139382500Y-100139500D01*
X139382500Y-100012500D01*
X139340166Y-99927833D01*
X139255500Y-99885500D01*
X138789833Y-99885500D01*
X138832166Y-99123500D02*
X138789833Y-99208166D01*
X138789833Y-99377500D01*
X138832166Y-99462166D01*
X138916833Y-99504500D01*
X139255500Y-99504500D01*
X139340166Y-99462166D01*
X139382500Y-99377500D01*
X139382500Y-99208166D01*
X139340166Y-99123500D01*
X139255500Y-99081166D01*
X139170833Y-99081166D01*
X139086166Y-99504500D01*
X138789833Y-98784833D02*
X139382500Y-98319166D01*
X139382500Y-98784833D02*
X138789833Y-98319166D01*
X138874500Y-97980500D02*
X138832166Y-97938166D01*
X138789833Y-97980500D01*
X138832166Y-98022833D01*
X138874500Y-97980500D01*
X138789833Y-97980500D01*
X138832166Y-97176166D02*
X138789833Y-97260833D01*
X138789833Y-97430166D01*
X138832166Y-97514833D01*
X138874500Y-97557166D01*
X138959166Y-97599499D01*
X139213166Y-97599499D01*
X139297833Y-97557166D01*
X139340166Y-97514833D01*
X139382500Y-97430166D01*
X139382500Y-97260833D01*
X139340166Y-97176166D01*
X138789833Y-96668166D02*
X138832166Y-96752833D01*
X138874500Y-96795166D01*
X138959166Y-96837499D01*
X139213166Y-96837499D01*
X139297833Y-96795166D01*
X139340166Y-96752833D01*
X139382500Y-96668166D01*
X139382500Y-96541166D01*
X139340166Y-96456499D01*
X139297833Y-96414166D01*
X139213166Y-96371833D01*
X138959166Y-96371833D01*
X138874500Y-96414166D01*
X138832166Y-96456499D01*
X138789833Y-96541166D01*
X138789833Y-96668166D01*
X138789833Y-95990833D02*
X139382500Y-95990833D01*
X139297833Y-95990833D02*
X139340166Y-95948499D01*
X139382500Y-95863833D01*
X139382500Y-95736833D01*
X139340166Y-95652166D01*
X139255500Y-95609833D01*
X138789833Y-95609833D01*
X139255500Y-95609833D02*
X139340166Y-95567499D01*
X139382500Y-95482833D01*
X139382500Y-95355833D01*
X139340166Y-95271166D01*
X139255500Y-95228833D01*
X138789833Y-95228833D01*
X139721166Y-94170499D02*
X138578166Y-94932499D01*
D10*
X140843000Y-114300000D02*
X147326382Y-114300000D01*
X140843000Y-110871000D02*
X140843000Y-114300000D01*
X147320000Y-110871000D02*
X140843000Y-110871000D01*
X148209000Y-111760000D02*
X147320000Y-110871000D01*
X147955000Y-114935000D02*
X147326382Y-114306382D01*
D12*
X154155563Y-112052100D02*
X154223296Y-112018233D01*
X154324896Y-112018233D01*
X154426496Y-112052100D01*
X154494230Y-112119833D01*
X154528096Y-112187566D01*
X154561963Y-112323033D01*
X154561963Y-112424633D01*
X154528096Y-112560100D01*
X154494230Y-112627833D01*
X154426496Y-112695566D01*
X154324896Y-112729433D01*
X154257163Y-112729433D01*
X154155563Y-112695566D01*
X154121696Y-112661700D01*
X154121696Y-112424633D01*
X154257163Y-112424633D01*
X153816896Y-112729433D02*
X153816896Y-112018233D01*
X153545963Y-112018233D01*
X153478230Y-112052100D01*
X153444363Y-112085966D01*
X153410496Y-112153700D01*
X153410496Y-112255300D01*
X153444363Y-112323033D01*
X153478230Y-112356900D01*
X153545963Y-112390766D01*
X153816896Y-112390766D01*
X153105696Y-112729433D02*
X153105696Y-112018233D01*
X152631563Y-112018233D02*
X152496096Y-112018233D01*
X152428363Y-112052100D01*
X152360630Y-112119833D01*
X152326763Y-112255300D01*
X152326763Y-112492366D01*
X152360630Y-112627833D01*
X152428363Y-112695566D01*
X152496096Y-112729433D01*
X152631563Y-112729433D01*
X152699296Y-112695566D01*
X152767030Y-112627833D01*
X152800896Y-112492366D01*
X152800896Y-112255300D01*
X152767030Y-112119833D01*
X152699296Y-112052100D01*
X152631563Y-112018233D01*
X151920363Y-112323033D02*
X151988096Y-112289166D01*
X152021963Y-112255300D01*
X152055830Y-112187566D01*
X152055830Y-112153700D01*
X152021963Y-112085966D01*
X151988096Y-112052100D01*
X151920363Y-112018233D01*
X151784896Y-112018233D01*
X151717163Y-112052100D01*
X151683296Y-112085966D01*
X151649430Y-112153700D01*
X151649430Y-112187566D01*
X151683296Y-112255300D01*
X151717163Y-112289166D01*
X151784896Y-112323033D01*
X151920363Y-112323033D01*
X151988096Y-112356900D01*
X152021963Y-112390766D01*
X152055830Y-112458500D01*
X152055830Y-112593966D01*
X152021963Y-112661700D01*
X151988096Y-112695566D01*
X151920363Y-112729433D01*
X151784896Y-112729433D01*
X151717163Y-112695566D01*
X151683296Y-112661700D01*
X151649430Y-112593966D01*
X151649430Y-112458500D01*
X151683296Y-112390766D01*
X151717163Y-112356900D01*
X151784896Y-112323033D01*
X150836630Y-111984366D02*
X151446230Y-112898766D01*
X154561963Y-113940166D02*
X154460363Y-113974033D01*
X154291030Y-113974033D01*
X154223296Y-113940166D01*
X154189430Y-113906300D01*
X154155563Y-113838566D01*
X154155563Y-113770833D01*
X154189430Y-113703100D01*
X154223296Y-113669233D01*
X154291030Y-113635366D01*
X154426496Y-113601500D01*
X154494230Y-113567633D01*
X154528096Y-113533766D01*
X154561963Y-113466033D01*
X154561963Y-113398300D01*
X154528096Y-113330566D01*
X154494230Y-113296700D01*
X154426496Y-113262833D01*
X154257163Y-113262833D01*
X154155563Y-113296700D01*
X153850763Y-113974033D02*
X153850763Y-113262833D01*
X153681430Y-113262833D01*
X153579830Y-113296700D01*
X153512096Y-113364433D01*
X153478230Y-113432166D01*
X153444363Y-113567633D01*
X153444363Y-113669233D01*
X153478230Y-113804700D01*
X153512096Y-113872433D01*
X153579830Y-113940166D01*
X153681430Y-113974033D01*
X153850763Y-113974033D01*
X153308896Y-114041766D02*
X152767030Y-114041766D01*
X152597696Y-113974033D02*
X152597696Y-113262833D01*
X152428363Y-113262833D01*
X152326763Y-113296700D01*
X152259030Y-113364433D01*
X152225163Y-113432166D01*
X152191296Y-113567633D01*
X152191296Y-113669233D01*
X152225163Y-113804700D01*
X152259030Y-113872433D01*
X152326763Y-113940166D01*
X152428363Y-113974033D01*
X152597696Y-113974033D01*
X151920363Y-113770833D02*
X151581696Y-113770833D01*
X151988096Y-113974033D02*
X151751030Y-113262833D01*
X151513963Y-113974033D01*
X151378496Y-113262833D02*
X150972096Y-113262833D01*
X151175296Y-113974033D02*
X151175296Y-113262833D01*
X150768896Y-113770833D02*
X150430230Y-113770833D01*
X150836630Y-113974033D02*
X150599563Y-113262833D01*
X150362496Y-113974033D01*
X149752896Y-113974033D02*
X150159296Y-113974033D01*
X149956096Y-113974033D02*
X149956096Y-113262833D01*
X150023830Y-113364433D01*
X150091563Y-113432166D01*
X150159296Y-113466033D01*
D10*
X142113000Y-115316000D02*
X142113000Y-118110000D01*
X147701000Y-118110000D02*
X142113000Y-118110000D01*
X148844000Y-116840000D02*
X147955000Y-115951000D01*
D12*
X145773563Y-115735100D02*
X145841296Y-115701233D01*
X145942896Y-115701233D01*
X146044496Y-115735100D01*
X146112230Y-115802833D01*
X146146096Y-115870566D01*
X146179963Y-116006033D01*
X146179963Y-116107633D01*
X146146096Y-116243100D01*
X146112230Y-116310833D01*
X146044496Y-116378566D01*
X145942896Y-116412433D01*
X145875163Y-116412433D01*
X145773563Y-116378566D01*
X145739696Y-116344700D01*
X145739696Y-116107633D01*
X145875163Y-116107633D01*
X145434896Y-116412433D02*
X145434896Y-115701233D01*
X145163963Y-115701233D01*
X145096230Y-115735100D01*
X145062363Y-115768966D01*
X145028496Y-115836700D01*
X145028496Y-115938300D01*
X145062363Y-116006033D01*
X145096230Y-116039900D01*
X145163963Y-116073766D01*
X145434896Y-116073766D01*
X144723696Y-116412433D02*
X144723696Y-115701233D01*
X144249563Y-115701233D02*
X144114096Y-115701233D01*
X144046363Y-115735100D01*
X143978630Y-115802833D01*
X143944763Y-115938300D01*
X143944763Y-116175366D01*
X143978630Y-116310833D01*
X144046363Y-116378566D01*
X144114096Y-116412433D01*
X144249563Y-116412433D01*
X144317296Y-116378566D01*
X144385030Y-116310833D01*
X144418896Y-116175366D01*
X144418896Y-115938300D01*
X144385030Y-115802833D01*
X144317296Y-115735100D01*
X144249563Y-115701233D01*
X143335163Y-115701233D02*
X143470630Y-115701233D01*
X143538363Y-115735100D01*
X143572230Y-115768966D01*
X143639963Y-115870566D01*
X143673830Y-116006033D01*
X143673830Y-116276966D01*
X143639963Y-116344700D01*
X143606096Y-116378566D01*
X143538363Y-116412433D01*
X143402896Y-116412433D01*
X143335163Y-116378566D01*
X143301296Y-116344700D01*
X143267430Y-116276966D01*
X143267430Y-116107633D01*
X143301296Y-116039900D01*
X143335163Y-116006033D01*
X143402896Y-115972166D01*
X143538363Y-115972166D01*
X143606096Y-116006033D01*
X143639963Y-116039900D01*
X143673830Y-116107633D01*
X142454630Y-115667366D02*
X143064230Y-116581766D01*
X146179963Y-117623166D02*
X146078363Y-117657033D01*
X145909030Y-117657033D01*
X145841296Y-117623166D01*
X145807430Y-117589300D01*
X145773563Y-117521566D01*
X145773563Y-117453833D01*
X145807430Y-117386100D01*
X145841296Y-117352233D01*
X145909030Y-117318366D01*
X146044496Y-117284500D01*
X146112230Y-117250633D01*
X146146096Y-117216766D01*
X146179963Y-117149033D01*
X146179963Y-117081300D01*
X146146096Y-117013566D01*
X146112230Y-116979700D01*
X146044496Y-116945833D01*
X145875163Y-116945833D01*
X145773563Y-116979700D01*
X145468763Y-117657033D02*
X145468763Y-116945833D01*
X145299430Y-116945833D01*
X145197830Y-116979700D01*
X145130096Y-117047433D01*
X145096230Y-117115166D01*
X145062363Y-117250633D01*
X145062363Y-117352233D01*
X145096230Y-117487700D01*
X145130096Y-117555433D01*
X145197830Y-117623166D01*
X145299430Y-117657033D01*
X145468763Y-117657033D01*
X144926896Y-117724766D02*
X144385030Y-117724766D01*
X143809296Y-117589300D02*
X143843163Y-117623166D01*
X143944763Y-117657033D01*
X144012496Y-117657033D01*
X144114096Y-117623166D01*
X144181830Y-117555433D01*
X144215696Y-117487700D01*
X144249563Y-117352233D01*
X144249563Y-117250633D01*
X144215696Y-117115166D01*
X144181830Y-117047433D01*
X144114096Y-116979700D01*
X144012496Y-116945833D01*
X143944763Y-116945833D01*
X143843163Y-116979700D01*
X143809296Y-117013566D01*
X143165830Y-117657033D02*
X143504496Y-117657033D01*
X143504496Y-116945833D01*
X142928763Y-117657033D02*
X142928763Y-116945833D01*
X142522363Y-117657033D02*
X142827163Y-117250633D01*
X142522363Y-116945833D02*
X142928763Y-117352233D01*
X145646563Y-111290100D02*
X145714296Y-111256233D01*
X145815896Y-111256233D01*
X145917496Y-111290100D01*
X145985230Y-111357833D01*
X146019096Y-111425566D01*
X146052963Y-111561033D01*
X146052963Y-111662633D01*
X146019096Y-111798100D01*
X145985230Y-111865833D01*
X145917496Y-111933566D01*
X145815896Y-111967433D01*
X145748163Y-111967433D01*
X145646563Y-111933566D01*
X145612696Y-111899700D01*
X145612696Y-111662633D01*
X145748163Y-111662633D01*
X145307896Y-111967433D02*
X145307896Y-111256233D01*
X145036963Y-111256233D01*
X144969230Y-111290100D01*
X144935363Y-111323966D01*
X144901496Y-111391700D01*
X144901496Y-111493300D01*
X144935363Y-111561033D01*
X144969230Y-111594900D01*
X145036963Y-111628766D01*
X145307896Y-111628766D01*
X144596696Y-111967433D02*
X144596696Y-111256233D01*
X144122563Y-111256233D02*
X143987096Y-111256233D01*
X143919363Y-111290100D01*
X143851630Y-111357833D01*
X143817763Y-111493300D01*
X143817763Y-111730366D01*
X143851630Y-111865833D01*
X143919363Y-111933566D01*
X143987096Y-111967433D01*
X144122563Y-111967433D01*
X144190296Y-111933566D01*
X144258030Y-111865833D01*
X144291896Y-111730366D01*
X144291896Y-111493300D01*
X144258030Y-111357833D01*
X144190296Y-111290100D01*
X144122563Y-111256233D01*
X143580696Y-111256233D02*
X143106563Y-111256233D01*
X143411363Y-111967433D01*
X142327630Y-111222366D02*
X142937230Y-112136766D01*
X146052963Y-113178166D02*
X145951363Y-113212033D01*
X145782030Y-113212033D01*
X145714296Y-113178166D01*
X145680430Y-113144300D01*
X145646563Y-113076566D01*
X145646563Y-113008833D01*
X145680430Y-112941100D01*
X145714296Y-112907233D01*
X145782030Y-112873366D01*
X145917496Y-112839500D01*
X145985230Y-112805633D01*
X146019096Y-112771766D01*
X146052963Y-112704033D01*
X146052963Y-112636300D01*
X146019096Y-112568566D01*
X145985230Y-112534700D01*
X145917496Y-112500833D01*
X145748163Y-112500833D01*
X145646563Y-112534700D01*
X145341763Y-113212033D02*
X145341763Y-112500833D01*
X145172430Y-112500833D01*
X145070830Y-112534700D01*
X145003096Y-112602433D01*
X144969230Y-112670166D01*
X144935363Y-112805633D01*
X144935363Y-112907233D01*
X144969230Y-113042700D01*
X145003096Y-113110433D01*
X145070830Y-113178166D01*
X145172430Y-113212033D01*
X145341763Y-113212033D01*
X144799896Y-113279766D02*
X144258030Y-113279766D01*
X144088696Y-113212033D02*
X144088696Y-112500833D01*
X143919363Y-112500833D01*
X143817763Y-112534700D01*
X143750030Y-112602433D01*
X143716163Y-112670166D01*
X143682296Y-112805633D01*
X143682296Y-112907233D01*
X143716163Y-113042700D01*
X143750030Y-113110433D01*
X143817763Y-113178166D01*
X143919363Y-113212033D01*
X144088696Y-113212033D01*
X143411363Y-113008833D02*
X143072696Y-113008833D01*
X143479096Y-113212033D02*
X143242030Y-112500833D01*
X143004963Y-113212033D01*
X142869496Y-112500833D02*
X142463096Y-112500833D01*
X142666296Y-113212033D02*
X142666296Y-112500833D01*
X142259896Y-113008833D02*
X141921230Y-113008833D01*
X142327630Y-113212033D02*
X142090563Y-112500833D01*
X141853496Y-113212033D01*
X141480963Y-112500833D02*
X141413230Y-112500833D01*
X141345496Y-112534700D01*
X141311630Y-112568566D01*
X141277763Y-112636300D01*
X141243896Y-112771766D01*
X141243896Y-112941100D01*
X141277763Y-113076566D01*
X141311630Y-113144300D01*
X141345496Y-113178166D01*
X141413230Y-113212033D01*
X141480963Y-113212033D01*
X141548696Y-113178166D01*
X141582563Y-113144300D01*
X141616430Y-113076566D01*
X141650296Y-112941100D01*
X141650296Y-112771766D01*
X141616430Y-112636300D01*
X141582563Y-112568566D01*
X141548696Y-112534700D01*
X141480963Y-112500833D01*
D10*
X153875619Y-109728000D02*
X153972380Y-109679619D01*
X154117523Y-109679619D01*
X154262666Y-109728000D01*
X154359428Y-109824761D01*
X154407809Y-109921523D01*
X154456190Y-110115047D01*
X154456190Y-110260190D01*
X154407809Y-110453714D01*
X154359428Y-110550476D01*
X154262666Y-110647238D01*
X154117523Y-110695619D01*
X154020761Y-110695619D01*
X153875619Y-110647238D01*
X153827238Y-110598857D01*
X153827238Y-110260190D01*
X154020761Y-110260190D01*
X153391809Y-110695619D02*
X153391809Y-109679619D01*
X153004761Y-109679619D01*
X152908000Y-109728000D01*
X152859619Y-109776380D01*
X152811238Y-109873142D01*
X152811238Y-110018285D01*
X152859619Y-110115047D01*
X152908000Y-110163428D01*
X153004761Y-110211809D01*
X153391809Y-110211809D01*
X152375809Y-110695619D02*
X152375809Y-109679619D01*
X151698476Y-109679619D02*
X151504952Y-109679619D01*
X151408190Y-109728000D01*
X151311428Y-109824761D01*
X151263047Y-110018285D01*
X151263047Y-110356952D01*
X151311428Y-110550476D01*
X151408190Y-110647238D01*
X151504952Y-110695619D01*
X151698476Y-110695619D01*
X151795238Y-110647238D01*
X151892000Y-110550476D01*
X151940380Y-110356952D01*
X151940380Y-110018285D01*
X151892000Y-109824761D01*
X151795238Y-109728000D01*
X151698476Y-109679619D01*
X150295428Y-110695619D02*
X150876000Y-110695619D01*
X150585714Y-110695619D02*
X150585714Y-109679619D01*
X150682476Y-109824761D01*
X150779238Y-109921523D01*
X150876000Y-109969904D01*
X149376190Y-109679619D02*
X149860000Y-109679619D01*
X149908380Y-110163428D01*
X149860000Y-110115047D01*
X149763238Y-110066666D01*
X149521333Y-110066666D01*
X149424571Y-110115047D01*
X149376190Y-110163428D01*
X149327809Y-110260190D01*
X149327809Y-110502095D01*
X149376190Y-110598857D01*
X149424571Y-110647238D01*
X149521333Y-110695619D01*
X149763238Y-110695619D01*
X149860000Y-110647238D01*
X149908380Y-110598857D01*
X153639761Y-107315000D02*
X153760714Y-107254523D01*
X153942142Y-107254523D01*
X154123571Y-107315000D01*
X154244523Y-107435952D01*
X154305000Y-107556904D01*
X154365476Y-107798809D01*
X154365476Y-107980238D01*
X154305000Y-108222142D01*
X154244523Y-108343095D01*
X154123571Y-108464047D01*
X153942142Y-108524523D01*
X153821190Y-108524523D01*
X153639761Y-108464047D01*
X153579285Y-108403571D01*
X153579285Y-107980238D01*
X153821190Y-107980238D01*
X153035000Y-108524523D02*
X153035000Y-107254523D01*
X152551190Y-107254523D01*
X152430238Y-107315000D01*
X152369761Y-107375476D01*
X152309285Y-107496428D01*
X152309285Y-107677857D01*
X152369761Y-107798809D01*
X152430238Y-107859285D01*
X152551190Y-107919761D01*
X153035000Y-107919761D01*
X151765000Y-108524523D02*
X151765000Y-107254523D01*
X150918333Y-107254523D02*
X150676428Y-107254523D01*
X150555476Y-107315000D01*
X150434523Y-107435952D01*
X150374047Y-107677857D01*
X150374047Y-108101190D01*
X150434523Y-108343095D01*
X150555476Y-108464047D01*
X150676428Y-108524523D01*
X150918333Y-108524523D01*
X151039285Y-108464047D01*
X151160238Y-108343095D01*
X151220714Y-108101190D01*
X151220714Y-107677857D01*
X151160238Y-107435952D01*
X151039285Y-107315000D01*
X150918333Y-107254523D01*
X149890238Y-107375476D02*
X149829761Y-107315000D01*
X149708809Y-107254523D01*
X149406428Y-107254523D01*
X149285476Y-107315000D01*
X149225000Y-107375476D01*
X149164523Y-107496428D01*
X149164523Y-107617380D01*
X149225000Y-107798809D01*
X149950714Y-108524523D01*
X149164523Y-108524523D01*
X153639761Y-104775000D02*
X153760714Y-104714523D01*
X153942142Y-104714523D01*
X154123571Y-104775000D01*
X154244523Y-104895952D01*
X154305000Y-105016904D01*
X154365476Y-105258809D01*
X154365476Y-105440238D01*
X154305000Y-105682142D01*
X154244523Y-105803095D01*
X154123571Y-105924047D01*
X153942142Y-105984523D01*
X153821190Y-105984523D01*
X153639761Y-105924047D01*
X153579285Y-105863571D01*
X153579285Y-105440238D01*
X153821190Y-105440238D01*
X153035000Y-105984523D02*
X153035000Y-104714523D01*
X152551190Y-104714523D01*
X152430238Y-104775000D01*
X152369761Y-104835476D01*
X152309285Y-104956428D01*
X152309285Y-105137857D01*
X152369761Y-105258809D01*
X152430238Y-105319285D01*
X152551190Y-105379761D01*
X153035000Y-105379761D01*
X151765000Y-105984523D02*
X151765000Y-104714523D01*
X150918333Y-104714523D02*
X150676428Y-104714523D01*
X150555476Y-104775000D01*
X150434523Y-104895952D01*
X150374047Y-105137857D01*
X150374047Y-105561190D01*
X150434523Y-105803095D01*
X150555476Y-105924047D01*
X150676428Y-105984523D01*
X150918333Y-105984523D01*
X151039285Y-105924047D01*
X151160238Y-105803095D01*
X151220714Y-105561190D01*
X151220714Y-105137857D01*
X151160238Y-104895952D01*
X151039285Y-104775000D01*
X150918333Y-104714523D01*
X149587857Y-104714523D02*
X149466904Y-104714523D01*
X149345952Y-104775000D01*
X149285476Y-104835476D01*
X149225000Y-104956428D01*
X149164523Y-105198333D01*
X149164523Y-105500714D01*
X149225000Y-105742619D01*
X149285476Y-105863571D01*
X149345952Y-105924047D01*
X149466904Y-105984523D01*
X149587857Y-105984523D01*
X149708809Y-105924047D01*
X149769285Y-105863571D01*
X149829761Y-105742619D01*
X149890238Y-105500714D01*
X149890238Y-105198333D01*
X149829761Y-104956428D01*
X149769285Y-104835476D01*
X149708809Y-104775000D01*
X149587857Y-104714523D01*
X153639761Y-102235000D02*
X153760714Y-102174523D01*
X153942142Y-102174523D01*
X154123571Y-102235000D01*
X154244523Y-102355952D01*
X154305000Y-102476904D01*
X154365476Y-102718809D01*
X154365476Y-102900238D01*
X154305000Y-103142142D01*
X154244523Y-103263095D01*
X154123571Y-103384047D01*
X153942142Y-103444523D01*
X153821190Y-103444523D01*
X153639761Y-103384047D01*
X153579285Y-103323571D01*
X153579285Y-102900238D01*
X153821190Y-102900238D01*
X153035000Y-103444523D02*
X153035000Y-102174523D01*
X152551190Y-102174523D01*
X152430238Y-102235000D01*
X152369761Y-102295476D01*
X152309285Y-102416428D01*
X152309285Y-102597857D01*
X152369761Y-102718809D01*
X152430238Y-102779285D01*
X152551190Y-102839761D01*
X153035000Y-102839761D01*
X151765000Y-103444523D02*
X151765000Y-102174523D01*
X150918333Y-102174523D02*
X150676428Y-102174523D01*
X150555476Y-102235000D01*
X150434523Y-102355952D01*
X150374047Y-102597857D01*
X150374047Y-103021190D01*
X150434523Y-103263095D01*
X150555476Y-103384047D01*
X150676428Y-103444523D01*
X150918333Y-103444523D01*
X151039285Y-103384047D01*
X151160238Y-103263095D01*
X151220714Y-103021190D01*
X151220714Y-102597857D01*
X151160238Y-102355952D01*
X151039285Y-102235000D01*
X150918333Y-102174523D01*
X149285476Y-102597857D02*
X149285476Y-103444523D01*
X149587857Y-102114047D02*
X149890238Y-103021190D01*
X149104047Y-103021190D01*
X153875619Y-99822000D02*
X153972380Y-99773619D01*
X154117523Y-99773619D01*
X154262666Y-99822000D01*
X154359428Y-99918761D01*
X154407809Y-100015523D01*
X154456190Y-100209047D01*
X154456190Y-100354190D01*
X154407809Y-100547714D01*
X154359428Y-100644476D01*
X154262666Y-100741238D01*
X154117523Y-100789619D01*
X154020761Y-100789619D01*
X153875619Y-100741238D01*
X153827238Y-100692857D01*
X153827238Y-100354190D01*
X154020761Y-100354190D01*
X153391809Y-100789619D02*
X153391809Y-99773619D01*
X153004761Y-99773619D01*
X152908000Y-99822000D01*
X152859619Y-99870380D01*
X152811238Y-99967142D01*
X152811238Y-100112285D01*
X152859619Y-100209047D01*
X152908000Y-100257428D01*
X153004761Y-100305809D01*
X153391809Y-100305809D01*
X152375809Y-100789619D02*
X152375809Y-99773619D01*
X151698476Y-99773619D02*
X151504952Y-99773619D01*
X151408190Y-99822000D01*
X151311428Y-99918761D01*
X151263047Y-100112285D01*
X151263047Y-100450952D01*
X151311428Y-100644476D01*
X151408190Y-100741238D01*
X151504952Y-100789619D01*
X151698476Y-100789619D01*
X151795238Y-100741238D01*
X151892000Y-100644476D01*
X151940380Y-100450952D01*
X151940380Y-100112285D01*
X151892000Y-99918761D01*
X151795238Y-99822000D01*
X151698476Y-99773619D01*
X150295428Y-100789619D02*
X150876000Y-100789619D01*
X150585714Y-100789619D02*
X150585714Y-99773619D01*
X150682476Y-99918761D01*
X150779238Y-100015523D01*
X150876000Y-100063904D01*
X149424571Y-99773619D02*
X149618095Y-99773619D01*
X149714857Y-99822000D01*
X149763238Y-99870380D01*
X149860000Y-100015523D01*
X149908380Y-100209047D01*
X149908380Y-100596095D01*
X149860000Y-100692857D01*
X149811619Y-100741238D01*
X149714857Y-100789619D01*
X149521333Y-100789619D01*
X149424571Y-100741238D01*
X149376190Y-100692857D01*
X149327809Y-100596095D01*
X149327809Y-100354190D01*
X149376190Y-100257428D01*
X149424571Y-100209047D01*
X149521333Y-100160666D01*
X149714857Y-100160666D01*
X149811619Y-100209047D01*
X149860000Y-100257428D01*
X149908380Y-100354190D01*
X153875619Y-97282000D02*
X153972380Y-97233619D01*
X154117523Y-97233619D01*
X154262666Y-97282000D01*
X154359428Y-97378761D01*
X154407809Y-97475523D01*
X154456190Y-97669047D01*
X154456190Y-97814190D01*
X154407809Y-98007714D01*
X154359428Y-98104476D01*
X154262666Y-98201238D01*
X154117523Y-98249619D01*
X154020761Y-98249619D01*
X153875619Y-98201238D01*
X153827238Y-98152857D01*
X153827238Y-97814190D01*
X154020761Y-97814190D01*
X153391809Y-98249619D02*
X153391809Y-97233619D01*
X153004761Y-97233619D01*
X152908000Y-97282000D01*
X152859619Y-97330380D01*
X152811238Y-97427142D01*
X152811238Y-97572285D01*
X152859619Y-97669047D01*
X152908000Y-97717428D01*
X153004761Y-97765809D01*
X153391809Y-97765809D01*
X152375809Y-98249619D02*
X152375809Y-97233619D01*
X151698476Y-97233619D02*
X151504952Y-97233619D01*
X151408190Y-97282000D01*
X151311428Y-97378761D01*
X151263047Y-97572285D01*
X151263047Y-97910952D01*
X151311428Y-98104476D01*
X151408190Y-98201238D01*
X151504952Y-98249619D01*
X151698476Y-98249619D01*
X151795238Y-98201238D01*
X151892000Y-98104476D01*
X151940380Y-97910952D01*
X151940380Y-97572285D01*
X151892000Y-97378761D01*
X151795238Y-97282000D01*
X151698476Y-97233619D01*
X150295428Y-98249619D02*
X150876000Y-98249619D01*
X150585714Y-98249619D02*
X150585714Y-97233619D01*
X150682476Y-97378761D01*
X150779238Y-97475523D01*
X150876000Y-97523904D01*
X149956761Y-97233619D02*
X149279428Y-97233619D01*
X149714857Y-98249619D01*
X153639761Y-94615000D02*
X153760714Y-94554523D01*
X153942142Y-94554523D01*
X154123571Y-94615000D01*
X154244523Y-94735952D01*
X154305000Y-94856904D01*
X154365476Y-95098809D01*
X154365476Y-95280238D01*
X154305000Y-95522142D01*
X154244523Y-95643095D01*
X154123571Y-95764047D01*
X153942142Y-95824523D01*
X153821190Y-95824523D01*
X153639761Y-95764047D01*
X153579285Y-95703571D01*
X153579285Y-95280238D01*
X153821190Y-95280238D01*
X153035000Y-95824523D02*
X153035000Y-94554523D01*
X152551190Y-94554523D01*
X152430238Y-94615000D01*
X152369761Y-94675476D01*
X152309285Y-94796428D01*
X152309285Y-94977857D01*
X152369761Y-95098809D01*
X152430238Y-95159285D01*
X152551190Y-95219761D01*
X153035000Y-95219761D01*
X151765000Y-95824523D02*
X151765000Y-94554523D01*
X150918333Y-94554523D02*
X150676428Y-94554523D01*
X150555476Y-94615000D01*
X150434523Y-94735952D01*
X150374047Y-94977857D01*
X150374047Y-95401190D01*
X150434523Y-95643095D01*
X150555476Y-95764047D01*
X150676428Y-95824523D01*
X150918333Y-95824523D01*
X151039285Y-95764047D01*
X151160238Y-95643095D01*
X151220714Y-95401190D01*
X151220714Y-94977857D01*
X151160238Y-94735952D01*
X151039285Y-94615000D01*
X150918333Y-94554523D01*
X149225000Y-94554523D02*
X149829761Y-94554523D01*
X149890238Y-95159285D01*
X149829761Y-95098809D01*
X149708809Y-95038333D01*
X149406428Y-95038333D01*
X149285476Y-95098809D01*
X149225000Y-95159285D01*
X149164523Y-95280238D01*
X149164523Y-95582619D01*
X149225000Y-95703571D01*
X149285476Y-95764047D01*
X149406428Y-95824523D01*
X149708809Y-95824523D01*
X149829761Y-95764047D01*
X149890238Y-95703571D01*
X153875619Y-92202000D02*
X153972380Y-92153619D01*
X154117523Y-92153619D01*
X154262666Y-92202000D01*
X154359428Y-92298761D01*
X154407809Y-92395523D01*
X154456190Y-92589047D01*
X154456190Y-92734190D01*
X154407809Y-92927714D01*
X154359428Y-93024476D01*
X154262666Y-93121238D01*
X154117523Y-93169619D01*
X154020761Y-93169619D01*
X153875619Y-93121238D01*
X153827238Y-93072857D01*
X153827238Y-92734190D01*
X154020761Y-92734190D01*
X153391809Y-93169619D02*
X153391809Y-92153619D01*
X153004761Y-92153619D01*
X152908000Y-92202000D01*
X152859619Y-92250380D01*
X152811238Y-92347142D01*
X152811238Y-92492285D01*
X152859619Y-92589047D01*
X152908000Y-92637428D01*
X153004761Y-92685809D01*
X153391809Y-92685809D01*
X152375809Y-93169619D02*
X152375809Y-92153619D01*
X151698476Y-92153619D02*
X151504952Y-92153619D01*
X151408190Y-92202000D01*
X151311428Y-92298761D01*
X151263047Y-92492285D01*
X151263047Y-92830952D01*
X151311428Y-93024476D01*
X151408190Y-93121238D01*
X151504952Y-93169619D01*
X151698476Y-93169619D01*
X151795238Y-93121238D01*
X151892000Y-93024476D01*
X151940380Y-92830952D01*
X151940380Y-92492285D01*
X151892000Y-92298761D01*
X151795238Y-92202000D01*
X151698476Y-92153619D01*
X150295428Y-93169619D02*
X150876000Y-93169619D01*
X150585714Y-93169619D02*
X150585714Y-92153619D01*
X150682476Y-92298761D01*
X150779238Y-92395523D01*
X150876000Y-92443904D01*
X149714857Y-92589047D02*
X149811619Y-92540666D01*
X149860000Y-92492285D01*
X149908380Y-92395523D01*
X149908380Y-92347142D01*
X149860000Y-92250380D01*
X149811619Y-92202000D01*
X149714857Y-92153619D01*
X149521333Y-92153619D01*
X149424571Y-92202000D01*
X149376190Y-92250380D01*
X149327809Y-92347142D01*
X149327809Y-92395523D01*
X149376190Y-92492285D01*
X149424571Y-92540666D01*
X149521333Y-92589047D01*
X149714857Y-92589047D01*
X149811619Y-92637428D01*
X149860000Y-92685809D01*
X149908380Y-92782571D01*
X149908380Y-92976095D01*
X149860000Y-93072857D01*
X149811619Y-93121238D01*
X149714857Y-93169619D01*
X149521333Y-93169619D01*
X149424571Y-93121238D01*
X149376190Y-93072857D01*
X149327809Y-92976095D01*
X149327809Y-92782571D01*
X149376190Y-92685809D01*
X149424571Y-92637428D01*
X149521333Y-92589047D01*
X153875619Y-89662000D02*
X153972380Y-89613619D01*
X154117523Y-89613619D01*
X154262666Y-89662000D01*
X154359428Y-89758761D01*
X154407809Y-89855523D01*
X154456190Y-90049047D01*
X154456190Y-90194190D01*
X154407809Y-90387714D01*
X154359428Y-90484476D01*
X154262666Y-90581238D01*
X154117523Y-90629619D01*
X154020761Y-90629619D01*
X153875619Y-90581238D01*
X153827238Y-90532857D01*
X153827238Y-90194190D01*
X154020761Y-90194190D01*
X153391809Y-90629619D02*
X153391809Y-89613619D01*
X153004761Y-89613619D01*
X152908000Y-89662000D01*
X152859619Y-89710380D01*
X152811238Y-89807142D01*
X152811238Y-89952285D01*
X152859619Y-90049047D01*
X152908000Y-90097428D01*
X153004761Y-90145809D01*
X153391809Y-90145809D01*
X152375809Y-90629619D02*
X152375809Y-89613619D01*
X151698476Y-89613619D02*
X151504952Y-89613619D01*
X151408190Y-89662000D01*
X151311428Y-89758761D01*
X151263047Y-89952285D01*
X151263047Y-90290952D01*
X151311428Y-90484476D01*
X151408190Y-90581238D01*
X151504952Y-90629619D01*
X151698476Y-90629619D01*
X151795238Y-90581238D01*
X151892000Y-90484476D01*
X151940380Y-90290952D01*
X151940380Y-89952285D01*
X151892000Y-89758761D01*
X151795238Y-89662000D01*
X151698476Y-89613619D01*
X150295428Y-90629619D02*
X150876000Y-90629619D01*
X150585714Y-90629619D02*
X150585714Y-89613619D01*
X150682476Y-89758761D01*
X150779238Y-89855523D01*
X150876000Y-89903904D01*
X149811619Y-90629619D02*
X149618095Y-90629619D01*
X149521333Y-90581238D01*
X149472952Y-90532857D01*
X149376190Y-90387714D01*
X149327809Y-90194190D01*
X149327809Y-89807142D01*
X149376190Y-89710380D01*
X149424571Y-89662000D01*
X149521333Y-89613619D01*
X149714857Y-89613619D01*
X149811619Y-89662000D01*
X149860000Y-89710380D01*
X149908380Y-89807142D01*
X149908380Y-90049047D01*
X149860000Y-90145809D01*
X149811619Y-90194190D01*
X149714857Y-90242571D01*
X149521333Y-90242571D01*
X149424571Y-90194190D01*
X149376190Y-90145809D01*
X149327809Y-90049047D01*
X152732619Y-86995000D02*
X152853571Y-86934523D01*
X153035000Y-86934523D01*
X153216428Y-86995000D01*
X153337380Y-87115952D01*
X153397857Y-87236904D01*
X153458333Y-87478809D01*
X153458333Y-87660238D01*
X153397857Y-87902142D01*
X153337380Y-88023095D01*
X153216428Y-88144047D01*
X153035000Y-88204523D01*
X152914047Y-88204523D01*
X152732619Y-88144047D01*
X152672142Y-88083571D01*
X152672142Y-87660238D01*
X152914047Y-87660238D01*
X152127857Y-88204523D02*
X152127857Y-86934523D01*
X151402142Y-88204523D01*
X151402142Y-86934523D01*
X150797380Y-88204523D02*
X150797380Y-86934523D01*
X150495000Y-86934523D01*
X150313571Y-86995000D01*
X150192619Y-87115952D01*
X150132142Y-87236904D01*
X150071666Y-87478809D01*
X150071666Y-87660238D01*
X150132142Y-87902142D01*
X150192619Y-88023095D01*
X150313571Y-88144047D01*
X150495000Y-88204523D01*
X150797380Y-88204523D01*
X153875619Y-84582000D02*
X153972380Y-84533619D01*
X154117523Y-84533619D01*
X154262666Y-84582000D01*
X154359428Y-84678761D01*
X154407809Y-84775523D01*
X154456190Y-84969047D01*
X154456190Y-85114190D01*
X154407809Y-85307714D01*
X154359428Y-85404476D01*
X154262666Y-85501238D01*
X154117523Y-85549619D01*
X154020761Y-85549619D01*
X153875619Y-85501238D01*
X153827238Y-85452857D01*
X153827238Y-85114190D01*
X154020761Y-85114190D01*
X153391809Y-85549619D02*
X153391809Y-84533619D01*
X153004761Y-84533619D01*
X152908000Y-84582000D01*
X152859619Y-84630380D01*
X152811238Y-84727142D01*
X152811238Y-84872285D01*
X152859619Y-84969047D01*
X152908000Y-85017428D01*
X153004761Y-85065809D01*
X153391809Y-85065809D01*
X152375809Y-85549619D02*
X152375809Y-84533619D01*
X151698476Y-84533619D02*
X151504952Y-84533619D01*
X151408190Y-84582000D01*
X151311428Y-84678761D01*
X151263047Y-84872285D01*
X151263047Y-85210952D01*
X151311428Y-85404476D01*
X151408190Y-85501238D01*
X151504952Y-85549619D01*
X151698476Y-85549619D01*
X151795238Y-85501238D01*
X151892000Y-85404476D01*
X151940380Y-85210952D01*
X151940380Y-84872285D01*
X151892000Y-84678761D01*
X151795238Y-84582000D01*
X151698476Y-84533619D01*
X150876000Y-84630380D02*
X150827619Y-84582000D01*
X150730857Y-84533619D01*
X150488952Y-84533619D01*
X150392190Y-84582000D01*
X150343809Y-84630380D01*
X150295428Y-84727142D01*
X150295428Y-84823904D01*
X150343809Y-84969047D01*
X150924380Y-85549619D01*
X150295428Y-85549619D01*
X149327809Y-85549619D02*
X149908380Y-85549619D01*
X149618095Y-85549619D02*
X149618095Y-84533619D01*
X149714857Y-84678761D01*
X149811619Y-84775523D01*
X149908380Y-84823904D01*
D12*
X154028563Y-81572100D02*
X154096296Y-81538233D01*
X154197896Y-81538233D01*
X154299496Y-81572100D01*
X154367230Y-81639833D01*
X154401096Y-81707566D01*
X154434963Y-81843033D01*
X154434963Y-81944633D01*
X154401096Y-82080100D01*
X154367230Y-82147833D01*
X154299496Y-82215566D01*
X154197896Y-82249433D01*
X154130163Y-82249433D01*
X154028563Y-82215566D01*
X153994696Y-82181700D01*
X153994696Y-81944633D01*
X154130163Y-81944633D01*
X153689896Y-82249433D02*
X153689896Y-81538233D01*
X153418963Y-81538233D01*
X153351230Y-81572100D01*
X153317363Y-81605966D01*
X153283496Y-81673700D01*
X153283496Y-81775300D01*
X153317363Y-81843033D01*
X153351230Y-81876900D01*
X153418963Y-81910766D01*
X153689896Y-81910766D01*
X152978696Y-82249433D02*
X152978696Y-81538233D01*
X152504563Y-81538233D02*
X152369096Y-81538233D01*
X152301363Y-81572100D01*
X152233630Y-81639833D01*
X152199763Y-81775300D01*
X152199763Y-82012366D01*
X152233630Y-82147833D01*
X152301363Y-82215566D01*
X152369096Y-82249433D01*
X152504563Y-82249433D01*
X152572296Y-82215566D01*
X152640030Y-82147833D01*
X152673896Y-82012366D01*
X152673896Y-81775300D01*
X152640030Y-81639833D01*
X152572296Y-81572100D01*
X152504563Y-81538233D01*
X151962696Y-81538233D02*
X151522430Y-81538233D01*
X151759496Y-81809166D01*
X151657896Y-81809166D01*
X151590163Y-81843033D01*
X151556296Y-81876900D01*
X151522430Y-81944633D01*
X151522430Y-82113966D01*
X151556296Y-82181700D01*
X151590163Y-82215566D01*
X151657896Y-82249433D01*
X151861096Y-82249433D01*
X151928830Y-82215566D01*
X151962696Y-82181700D01*
X150709630Y-81504366D02*
X151319230Y-82418766D01*
X154401096Y-82782833D02*
X154401096Y-83358566D01*
X154367230Y-83426300D01*
X154333363Y-83460166D01*
X154265630Y-83494033D01*
X154130163Y-83494033D01*
X154062430Y-83460166D01*
X154028563Y-83426300D01*
X153994696Y-83358566D01*
X153994696Y-82782833D01*
X153520563Y-82782833D02*
X153452830Y-82782833D01*
X153385096Y-82816700D01*
X153351230Y-82850566D01*
X153317363Y-82918300D01*
X153283496Y-83053766D01*
X153283496Y-83223100D01*
X153317363Y-83358566D01*
X153351230Y-83426300D01*
X153385096Y-83460166D01*
X153452830Y-83494033D01*
X153520563Y-83494033D01*
X153588296Y-83460166D01*
X153622163Y-83426300D01*
X153656030Y-83358566D01*
X153689896Y-83223100D01*
X153689896Y-83053766D01*
X153656030Y-82918300D01*
X153622163Y-82850566D01*
X153588296Y-82816700D01*
X153520563Y-82782833D01*
X152572296Y-83494033D02*
X152809363Y-83155366D01*
X152978696Y-83494033D02*
X152978696Y-82782833D01*
X152707763Y-82782833D01*
X152640030Y-82816700D01*
X152606163Y-82850566D01*
X152572296Y-82918300D01*
X152572296Y-83019900D01*
X152606163Y-83087633D01*
X152640030Y-83121500D01*
X152707763Y-83155366D01*
X152978696Y-83155366D01*
X152335230Y-82782833D02*
X151861096Y-83494033D01*
X151861096Y-82782833D02*
X152335230Y-83494033D01*
X151590163Y-83494033D02*
X151590163Y-82782833D01*
X151420830Y-82782833D01*
X151319230Y-82816700D01*
X151251496Y-82884433D01*
X151217630Y-82952166D01*
X151183763Y-83087633D01*
X151183763Y-83189233D01*
X151217630Y-83324700D01*
X151251496Y-83392433D01*
X151319230Y-83460166D01*
X151420830Y-83494033D01*
X151590163Y-83494033D01*
X154028563Y-79032100D02*
X154096296Y-78998233D01*
X154197896Y-78998233D01*
X154299496Y-79032100D01*
X154367230Y-79099833D01*
X154401096Y-79167566D01*
X154434963Y-79303033D01*
X154434963Y-79404633D01*
X154401096Y-79540100D01*
X154367230Y-79607833D01*
X154299496Y-79675566D01*
X154197896Y-79709433D01*
X154130163Y-79709433D01*
X154028563Y-79675566D01*
X153994696Y-79641700D01*
X153994696Y-79404633D01*
X154130163Y-79404633D01*
X153689896Y-79709433D02*
X153689896Y-78998233D01*
X153418963Y-78998233D01*
X153351230Y-79032100D01*
X153317363Y-79065966D01*
X153283496Y-79133700D01*
X153283496Y-79235300D01*
X153317363Y-79303033D01*
X153351230Y-79336900D01*
X153418963Y-79370766D01*
X153689896Y-79370766D01*
X152978696Y-79709433D02*
X152978696Y-78998233D01*
X152504563Y-78998233D02*
X152369096Y-78998233D01*
X152301363Y-79032100D01*
X152233630Y-79099833D01*
X152199763Y-79235300D01*
X152199763Y-79472366D01*
X152233630Y-79607833D01*
X152301363Y-79675566D01*
X152369096Y-79709433D01*
X152504563Y-79709433D01*
X152572296Y-79675566D01*
X152640030Y-79607833D01*
X152673896Y-79472366D01*
X152673896Y-79235300D01*
X152640030Y-79099833D01*
X152572296Y-79032100D01*
X152504563Y-78998233D01*
X151522430Y-79709433D02*
X151928830Y-79709433D01*
X151725630Y-79709433D02*
X151725630Y-78998233D01*
X151793363Y-79099833D01*
X151861096Y-79167566D01*
X151928830Y-79201433D01*
X150709630Y-78964366D02*
X151319230Y-79878766D01*
X154401096Y-80242833D02*
X154401096Y-80818566D01*
X154367230Y-80886300D01*
X154333363Y-80920166D01*
X154265630Y-80954033D01*
X154130163Y-80954033D01*
X154062430Y-80920166D01*
X154028563Y-80886300D01*
X153994696Y-80818566D01*
X153994696Y-80242833D01*
X153520563Y-80242833D02*
X153452830Y-80242833D01*
X153385096Y-80276700D01*
X153351230Y-80310566D01*
X153317363Y-80378300D01*
X153283496Y-80513766D01*
X153283496Y-80683100D01*
X153317363Y-80818566D01*
X153351230Y-80886300D01*
X153385096Y-80920166D01*
X153452830Y-80954033D01*
X153520563Y-80954033D01*
X153588296Y-80920166D01*
X153622163Y-80886300D01*
X153656030Y-80818566D01*
X153689896Y-80683100D01*
X153689896Y-80513766D01*
X153656030Y-80378300D01*
X153622163Y-80310566D01*
X153588296Y-80276700D01*
X153520563Y-80242833D01*
X153080296Y-80242833D02*
X152673896Y-80242833D01*
X152877096Y-80954033D02*
X152877096Y-80242833D01*
X152504563Y-80242833D02*
X152030430Y-80954033D01*
X152030430Y-80242833D02*
X152504563Y-80954033D01*
X151759496Y-80954033D02*
X151759496Y-80242833D01*
X151590163Y-80242833D01*
X151488563Y-80276700D01*
X151420830Y-80344433D01*
X151386963Y-80412166D01*
X151353096Y-80547633D01*
X151353096Y-80649233D01*
X151386963Y-80784700D01*
X151420830Y-80852433D01*
X151488563Y-80920166D01*
X151590163Y-80954033D01*
X151759496Y-80954033D01*
D10*
X153289000Y-116840000D02*
X155194000Y-116840000D01*
X149352000Y-114300000D02*
X155194000Y-114296827D01*
X148844000Y-111760000D02*
X155194000Y-111760000D01*
X148844000Y-109220000D02*
X155194000Y-109220000D01*
X148844000Y-106680000D02*
X155194000Y-106680000D01*
X148844000Y-104140000D02*
X155194000Y-104140000D01*
X148844000Y-101600000D02*
X155194000Y-101600000D01*
X148844000Y-99060000D02*
X155194000Y-99060000D01*
X148844000Y-96520000D02*
X155194000Y-96520000D01*
X148844000Y-93980000D02*
X155194000Y-93980000D01*
X148844000Y-91440000D02*
X155194000Y-91440000D01*
X148844000Y-88900000D02*
X155194000Y-88900000D01*
X148844000Y-86360000D02*
X155194000Y-86360000D01*
X148844000Y-83820000D02*
X155194000Y-83820000D01*
X148844000Y-81280000D02*
X155194000Y-81280000D01*
X153875619Y-76708000D02*
X153972380Y-76659619D01*
X154117523Y-76659619D01*
X154262666Y-76708000D01*
X154359428Y-76804761D01*
X154407809Y-76901523D01*
X154456190Y-77095047D01*
X154456190Y-77240190D01*
X154407809Y-77433714D01*
X154359428Y-77530476D01*
X154262666Y-77627238D01*
X154117523Y-77675619D01*
X154020761Y-77675619D01*
X153875619Y-77627238D01*
X153827238Y-77578857D01*
X153827238Y-77240190D01*
X154020761Y-77240190D01*
X153391809Y-77675619D02*
X153391809Y-76659619D01*
X153004761Y-76659619D01*
X152908000Y-76708000D01*
X152859619Y-76756380D01*
X152811238Y-76853142D01*
X152811238Y-76998285D01*
X152859619Y-77095047D01*
X152908000Y-77143428D01*
X153004761Y-77191809D01*
X153391809Y-77191809D01*
X152375809Y-77675619D02*
X152375809Y-76659619D01*
X151698476Y-76659619D02*
X151504952Y-76659619D01*
X151408190Y-76708000D01*
X151311428Y-76804761D01*
X151263047Y-76998285D01*
X151263047Y-77336952D01*
X151311428Y-77530476D01*
X151408190Y-77627238D01*
X151504952Y-77675619D01*
X151698476Y-77675619D01*
X151795238Y-77627238D01*
X151892000Y-77530476D01*
X151940380Y-77336952D01*
X151940380Y-76998285D01*
X151892000Y-76804761D01*
X151795238Y-76708000D01*
X151698476Y-76659619D01*
X150876000Y-76756380D02*
X150827619Y-76708000D01*
X150730857Y-76659619D01*
X150488952Y-76659619D01*
X150392190Y-76708000D01*
X150343809Y-76756380D01*
X150295428Y-76853142D01*
X150295428Y-76949904D01*
X150343809Y-77095047D01*
X150924380Y-77675619D01*
X150295428Y-77675619D01*
X149908380Y-76756380D02*
X149860000Y-76708000D01*
X149763238Y-76659619D01*
X149521333Y-76659619D01*
X149424571Y-76708000D01*
X149376190Y-76756380D01*
X149327809Y-76853142D01*
X149327809Y-76949904D01*
X149376190Y-77095047D01*
X149956761Y-77675619D01*
X149327809Y-77675619D01*
X148844000Y-78740000D02*
X155194000Y-78740000D01*
X153875619Y-74168000D02*
X153972380Y-74119619D01*
X154117523Y-74119619D01*
X154262666Y-74168000D01*
X154359428Y-74264761D01*
X154407809Y-74361523D01*
X154456190Y-74555047D01*
X154456190Y-74700190D01*
X154407809Y-74893714D01*
X154359428Y-74990476D01*
X154262666Y-75087238D01*
X154117523Y-75135619D01*
X154020761Y-75135619D01*
X153875619Y-75087238D01*
X153827238Y-75038857D01*
X153827238Y-74700190D01*
X154020761Y-74700190D01*
X153391809Y-75135619D02*
X153391809Y-74119619D01*
X153004761Y-74119619D01*
X152908000Y-74168000D01*
X152859619Y-74216380D01*
X152811238Y-74313142D01*
X152811238Y-74458285D01*
X152859619Y-74555047D01*
X152908000Y-74603428D01*
X153004761Y-74651809D01*
X153391809Y-74651809D01*
X152375809Y-75135619D02*
X152375809Y-74119619D01*
X151698476Y-74119619D02*
X151504952Y-74119619D01*
X151408190Y-74168000D01*
X151311428Y-74264761D01*
X151263047Y-74458285D01*
X151263047Y-74796952D01*
X151311428Y-74990476D01*
X151408190Y-75087238D01*
X151504952Y-75135619D01*
X151698476Y-75135619D01*
X151795238Y-75087238D01*
X151892000Y-74990476D01*
X151940380Y-74796952D01*
X151940380Y-74458285D01*
X151892000Y-74264761D01*
X151795238Y-74168000D01*
X151698476Y-74119619D01*
X150876000Y-74216380D02*
X150827619Y-74168000D01*
X150730857Y-74119619D01*
X150488952Y-74119619D01*
X150392190Y-74168000D01*
X150343809Y-74216380D01*
X150295428Y-74313142D01*
X150295428Y-74409904D01*
X150343809Y-74555047D01*
X150924380Y-75135619D01*
X150295428Y-75135619D01*
X149956761Y-74119619D02*
X149327809Y-74119619D01*
X149666476Y-74506666D01*
X149521333Y-74506666D01*
X149424571Y-74555047D01*
X149376190Y-74603428D01*
X149327809Y-74700190D01*
X149327809Y-74942095D01*
X149376190Y-75038857D01*
X149424571Y-75087238D01*
X149521333Y-75135619D01*
X149811619Y-75135619D01*
X149908380Y-75087238D01*
X149956761Y-75038857D01*
X148844000Y-76200000D02*
X155194000Y-76200000D01*
X148844000Y-111760446D02*
X148844000Y-71120000D01*
X148844000Y-73660000D02*
X155194000Y-73660000D01*
X131826000Y-73660000D02*
X138176000Y-73660000D01*
X131826000Y-76200000D02*
X141224000Y-76200000D01*
X131826000Y-78740000D02*
X141224000Y-78740000D01*
X131699000Y-81280000D02*
X141224000Y-81280000D01*
X131826000Y-83820000D02*
X138176000Y-83820000D01*
X131826000Y-86360000D02*
X138176000Y-86360000D01*
X131826000Y-88900000D02*
X138176000Y-88900000D01*
X131826000Y-91440000D02*
X138176000Y-91440000D01*
X131826000Y-93980000D02*
X138176000Y-93980000D01*
X131826000Y-96520000D02*
X138176000Y-96520000D01*
X131826000Y-99060000D02*
X138176000Y-99060000D01*
X131826000Y-101600000D02*
X138176000Y-101600000D01*
X131826000Y-104140000D02*
X138176000Y-104140000D01*
X131826000Y-106680000D02*
X138176000Y-106680000D01*
X138176000Y-109220000D02*
X138176000Y-81280000D01*
X138176000Y-109220000D02*
X138176000Y-119253000D01*
X131826000Y-116840000D02*
X138176000Y-116840000D01*
X131826000Y-109220000D02*
X138176000Y-109220000D01*
X131826000Y-111760000D02*
X138176000Y-111760000D01*
X131826000Y-114300000D02*
X138176000Y-114300000D01*
X137014857Y-118200714D02*
X136047238Y-118200714D01*
X136531047Y-118684523D02*
X136531047Y-117716904D01*
X134837714Y-117414523D02*
X135442476Y-117414523D01*
X135502952Y-118019285D01*
X135442476Y-117958809D01*
X135321523Y-117898333D01*
X135019142Y-117898333D01*
X134898190Y-117958809D01*
X134837714Y-118019285D01*
X134777238Y-118140238D01*
X134777238Y-118442619D01*
X134837714Y-118563571D01*
X134898190Y-118624047D01*
X135019142Y-118684523D01*
X135321523Y-118684523D01*
X135442476Y-118624047D01*
X135502952Y-118563571D01*
X134414380Y-117414523D02*
X133991047Y-118684523D01*
X133567714Y-117414523D01*
D13*
X137335002Y-114696875D02*
X137395479Y-114666636D01*
X137486193Y-114666636D01*
X137576907Y-114696875D01*
X137637383Y-114757351D01*
X137667622Y-114817827D01*
X137697860Y-114938779D01*
X137697860Y-115029494D01*
X137667622Y-115150446D01*
X137637383Y-115210922D01*
X137576907Y-115271398D01*
X137486193Y-115301636D01*
X137425717Y-115301636D01*
X137335002Y-115271398D01*
X137304764Y-115241160D01*
X137304764Y-115029494D01*
X137425717Y-115029494D01*
X137032622Y-115301636D02*
X137032622Y-114666636D01*
X136790717Y-114666636D01*
X136730241Y-114696875D01*
X136700002Y-114727113D01*
X136669764Y-114787589D01*
X136669764Y-114878303D01*
X136700002Y-114938779D01*
X136730241Y-114969017D01*
X136790717Y-114999255D01*
X137032622Y-114999255D01*
X136397622Y-115301636D02*
X136397622Y-114666636D01*
X135974288Y-114666636D02*
X135853336Y-114666636D01*
X135792860Y-114696875D01*
X135732383Y-114757351D01*
X135702145Y-114878303D01*
X135702145Y-115089970D01*
X135732383Y-115210922D01*
X135792860Y-115271398D01*
X135853336Y-115301636D01*
X135974288Y-115301636D01*
X136034764Y-115271398D01*
X136095241Y-115210922D01*
X136125479Y-115089970D01*
X136125479Y-114878303D01*
X136095241Y-114757351D01*
X136034764Y-114696875D01*
X135974288Y-114666636D01*
X135097383Y-115301636D02*
X135460241Y-115301636D01*
X135278812Y-115301636D02*
X135278812Y-114666636D01*
X135339288Y-114757351D01*
X135399764Y-114817827D01*
X135460241Y-114848065D01*
X134492622Y-115301636D02*
X134855479Y-115301636D01*
X134674050Y-115301636D02*
X134674050Y-114666636D01*
X134734526Y-114757351D01*
X134795002Y-114817827D01*
X134855479Y-114848065D01*
X133766907Y-114636398D02*
X134311193Y-115452827D01*
X137697860Y-116382648D02*
X137607145Y-116412886D01*
X137455955Y-116412886D01*
X137395479Y-116382648D01*
X137365241Y-116352410D01*
X137335002Y-116291934D01*
X137335002Y-116231458D01*
X137365241Y-116170982D01*
X137395479Y-116140744D01*
X137455955Y-116110505D01*
X137576907Y-116080267D01*
X137637383Y-116050029D01*
X137667622Y-116019791D01*
X137697860Y-115959315D01*
X137697860Y-115898839D01*
X137667622Y-115838363D01*
X137637383Y-115808125D01*
X137576907Y-115777886D01*
X137425717Y-115777886D01*
X137335002Y-115808125D01*
X137062860Y-116412886D02*
X137062860Y-115777886D01*
X136911669Y-115777886D01*
X136820955Y-115808125D01*
X136760479Y-115868601D01*
X136730241Y-115929077D01*
X136700002Y-116050029D01*
X136700002Y-116140744D01*
X136730241Y-116261696D01*
X136760479Y-116322172D01*
X136820955Y-116382648D01*
X136911669Y-116412886D01*
X137062860Y-116412886D01*
X136579050Y-116473363D02*
X136095241Y-116473363D01*
X135581193Y-116352410D02*
X135611431Y-116382648D01*
X135702145Y-116412886D01*
X135762622Y-116412886D01*
X135853336Y-116382648D01*
X135913812Y-116322172D01*
X135944050Y-116261696D01*
X135974288Y-116140744D01*
X135974288Y-116050029D01*
X135944050Y-115929077D01*
X135913812Y-115868601D01*
X135853336Y-115808125D01*
X135762622Y-115777886D01*
X135702145Y-115777886D01*
X135611431Y-115808125D01*
X135581193Y-115838363D01*
X135309050Y-116412886D02*
X135309050Y-115777886D01*
X135097383Y-116231458D01*
X134885717Y-115777886D01*
X134885717Y-116412886D01*
X134583336Y-116412886D02*
X134583336Y-115777886D01*
X134432145Y-115777886D01*
X134341431Y-115808125D01*
X134280955Y-115868601D01*
X134250717Y-115929077D01*
X134220479Y-116050029D01*
X134220479Y-116140744D01*
X134250717Y-116261696D01*
X134280955Y-116322172D01*
X134341431Y-116382648D01*
X134432145Y-116412886D01*
X134583336Y-116412886D01*
X136954002Y-112156875D02*
X137014479Y-112126636D01*
X137105193Y-112126636D01*
X137195907Y-112156875D01*
X137256383Y-112217351D01*
X137286622Y-112277827D01*
X137316860Y-112398779D01*
X137316860Y-112489494D01*
X137286622Y-112610446D01*
X137256383Y-112670922D01*
X137195907Y-112731398D01*
X137105193Y-112761636D01*
X137044717Y-112761636D01*
X136954002Y-112731398D01*
X136923764Y-112701160D01*
X136923764Y-112489494D01*
X137044717Y-112489494D01*
X136651622Y-112761636D02*
X136651622Y-112126636D01*
X136409717Y-112126636D01*
X136349241Y-112156875D01*
X136319002Y-112187113D01*
X136288764Y-112247589D01*
X136288764Y-112338303D01*
X136319002Y-112398779D01*
X136349241Y-112429017D01*
X136409717Y-112459255D01*
X136651622Y-112459255D01*
X136016622Y-112761636D02*
X136016622Y-112126636D01*
X135593288Y-112126636D02*
X135472336Y-112126636D01*
X135411860Y-112156875D01*
X135351383Y-112217351D01*
X135321145Y-112338303D01*
X135321145Y-112549970D01*
X135351383Y-112670922D01*
X135411860Y-112731398D01*
X135472336Y-112761636D01*
X135593288Y-112761636D01*
X135653764Y-112731398D01*
X135714241Y-112670922D01*
X135744479Y-112549970D01*
X135744479Y-112338303D01*
X135714241Y-112217351D01*
X135653764Y-112156875D01*
X135593288Y-112126636D01*
X134716383Y-112761636D02*
X135079241Y-112761636D01*
X134897812Y-112761636D02*
X134897812Y-112126636D01*
X134958288Y-112217351D01*
X135018764Y-112277827D01*
X135079241Y-112308065D01*
X134323288Y-112126636D02*
X134262812Y-112126636D01*
X134202336Y-112156875D01*
X134172098Y-112187113D01*
X134141860Y-112247589D01*
X134111622Y-112368541D01*
X134111622Y-112519732D01*
X134141860Y-112640684D01*
X134172098Y-112701160D01*
X134202336Y-112731398D01*
X134262812Y-112761636D01*
X134323288Y-112761636D01*
X134383764Y-112731398D01*
X134414002Y-112701160D01*
X134444241Y-112640684D01*
X134474479Y-112519732D01*
X134474479Y-112368541D01*
X134444241Y-112247589D01*
X134414002Y-112187113D01*
X134383764Y-112156875D01*
X134323288Y-112126636D01*
X133385907Y-112096398D02*
X133930193Y-112912827D01*
X137316860Y-113842648D02*
X137226145Y-113872886D01*
X137074955Y-113872886D01*
X137014479Y-113842648D01*
X136984241Y-113812410D01*
X136954002Y-113751934D01*
X136954002Y-113691458D01*
X136984241Y-113630982D01*
X137014479Y-113600744D01*
X137074955Y-113570505D01*
X137195907Y-113540267D01*
X137256383Y-113510029D01*
X137286622Y-113479791D01*
X137316860Y-113419315D01*
X137316860Y-113358839D01*
X137286622Y-113298363D01*
X137256383Y-113268125D01*
X137195907Y-113237886D01*
X137044717Y-113237886D01*
X136954002Y-113268125D01*
X136681860Y-113872886D02*
X136681860Y-113237886D01*
X136530669Y-113237886D01*
X136439955Y-113268125D01*
X136379479Y-113328601D01*
X136349241Y-113389077D01*
X136319002Y-113510029D01*
X136319002Y-113600744D01*
X136349241Y-113721696D01*
X136379479Y-113782172D01*
X136439955Y-113842648D01*
X136530669Y-113872886D01*
X136681860Y-113872886D01*
X136198050Y-113933363D02*
X135714241Y-113933363D01*
X135563050Y-113872886D02*
X135563050Y-113237886D01*
X135411860Y-113237886D01*
X135321145Y-113268125D01*
X135260669Y-113328601D01*
X135230431Y-113389077D01*
X135200193Y-113510029D01*
X135200193Y-113600744D01*
X135230431Y-113721696D01*
X135260669Y-113782172D01*
X135321145Y-113842648D01*
X135411860Y-113872886D01*
X135563050Y-113872886D01*
X134958288Y-113691458D02*
X134655907Y-113691458D01*
X135018764Y-113872886D02*
X134807098Y-113237886D01*
X134595431Y-113872886D01*
X134474479Y-113237886D02*
X134111622Y-113237886D01*
X134293050Y-113872886D02*
X134293050Y-113237886D01*
X133930193Y-113691458D02*
X133627812Y-113691458D01*
X133990669Y-113872886D02*
X133779002Y-113237886D01*
X133567336Y-113872886D01*
X133416145Y-113237886D02*
X133023050Y-113237886D01*
X133234717Y-113479791D01*
X133144002Y-113479791D01*
X133083526Y-113510029D01*
X133053288Y-113540267D01*
X133023050Y-113600744D01*
X133023050Y-113751934D01*
X133053288Y-113812410D01*
X133083526Y-113842648D01*
X133144002Y-113872886D01*
X133325431Y-113872886D01*
X133385907Y-113842648D01*
X133416145Y-113812410D01*
X136700002Y-109616875D02*
X136760479Y-109586636D01*
X136851193Y-109586636D01*
X136941907Y-109616875D01*
X137002383Y-109677351D01*
X137032622Y-109737827D01*
X137062860Y-109858779D01*
X137062860Y-109949494D01*
X137032622Y-110070446D01*
X137002383Y-110130922D01*
X136941907Y-110191398D01*
X136851193Y-110221636D01*
X136790717Y-110221636D01*
X136700002Y-110191398D01*
X136669764Y-110161160D01*
X136669764Y-109949494D01*
X136790717Y-109949494D01*
X136397622Y-110221636D02*
X136397622Y-109586636D01*
X136155717Y-109586636D01*
X136095241Y-109616875D01*
X136065002Y-109647113D01*
X136034764Y-109707589D01*
X136034764Y-109798303D01*
X136065002Y-109858779D01*
X136095241Y-109889017D01*
X136155717Y-109919255D01*
X136397622Y-109919255D01*
X135762622Y-110221636D02*
X135762622Y-109586636D01*
X135339288Y-109586636D02*
X135218336Y-109586636D01*
X135157860Y-109616875D01*
X135097383Y-109677351D01*
X135067145Y-109798303D01*
X135067145Y-110009970D01*
X135097383Y-110130922D01*
X135157860Y-110191398D01*
X135218336Y-110221636D01*
X135339288Y-110221636D01*
X135399764Y-110191398D01*
X135460241Y-110130922D01*
X135490479Y-110009970D01*
X135490479Y-109798303D01*
X135460241Y-109677351D01*
X135399764Y-109616875D01*
X135339288Y-109586636D01*
X134764764Y-110221636D02*
X134643812Y-110221636D01*
X134583336Y-110191398D01*
X134553098Y-110161160D01*
X134492622Y-110070446D01*
X134462383Y-109949494D01*
X134462383Y-109707589D01*
X134492622Y-109647113D01*
X134522860Y-109616875D01*
X134583336Y-109586636D01*
X134704288Y-109586636D01*
X134764764Y-109616875D01*
X134795002Y-109647113D01*
X134825241Y-109707589D01*
X134825241Y-109858779D01*
X134795002Y-109919255D01*
X134764764Y-109949494D01*
X134704288Y-109979732D01*
X134583336Y-109979732D01*
X134522860Y-109949494D01*
X134492622Y-109919255D01*
X134462383Y-109858779D01*
X133736669Y-109556398D02*
X134280955Y-110372827D01*
X137062860Y-111302648D02*
X136972145Y-111332886D01*
X136820955Y-111332886D01*
X136760479Y-111302648D01*
X136730241Y-111272410D01*
X136700002Y-111211934D01*
X136700002Y-111151458D01*
X136730241Y-111090982D01*
X136760479Y-111060744D01*
X136820955Y-111030505D01*
X136941907Y-111000267D01*
X137002383Y-110970029D01*
X137032622Y-110939791D01*
X137062860Y-110879315D01*
X137062860Y-110818839D01*
X137032622Y-110758363D01*
X137002383Y-110728125D01*
X136941907Y-110697886D01*
X136790717Y-110697886D01*
X136700002Y-110728125D01*
X136427860Y-111332886D02*
X136427860Y-110697886D01*
X136276669Y-110697886D01*
X136185955Y-110728125D01*
X136125479Y-110788601D01*
X136095241Y-110849077D01*
X136065002Y-110970029D01*
X136065002Y-111060744D01*
X136095241Y-111181696D01*
X136125479Y-111242172D01*
X136185955Y-111302648D01*
X136276669Y-111332886D01*
X136427860Y-111332886D01*
X135944050Y-111393363D02*
X135460241Y-111393363D01*
X135309050Y-111332886D02*
X135309050Y-110697886D01*
X135157860Y-110697886D01*
X135067145Y-110728125D01*
X135006669Y-110788601D01*
X134976431Y-110849077D01*
X134946193Y-110970029D01*
X134946193Y-111060744D01*
X134976431Y-111181696D01*
X135006669Y-111242172D01*
X135067145Y-111302648D01*
X135157860Y-111332886D01*
X135309050Y-111332886D01*
X134704288Y-111151458D02*
X134401907Y-111151458D01*
X134764764Y-111332886D02*
X134553098Y-110697886D01*
X134341431Y-111332886D01*
X134220479Y-110697886D02*
X133857622Y-110697886D01*
X134039050Y-111332886D02*
X134039050Y-110697886D01*
X133676193Y-111151458D02*
X133373812Y-111151458D01*
X133736669Y-111332886D02*
X133525002Y-110697886D01*
X133313336Y-111332886D01*
X133131907Y-110758363D02*
X133101669Y-110728125D01*
X133041193Y-110697886D01*
X132890002Y-110697886D01*
X132829526Y-110728125D01*
X132799288Y-110758363D01*
X132769050Y-110818839D01*
X132769050Y-110879315D01*
X132799288Y-110970029D01*
X133162145Y-111332886D01*
X132769050Y-111332886D01*
D10*
X137111619Y-107823000D02*
X137208380Y-107774619D01*
X137353523Y-107774619D01*
X137498666Y-107823000D01*
X137595428Y-107919761D01*
X137643809Y-108016523D01*
X137692190Y-108210047D01*
X137692190Y-108355190D01*
X137643809Y-108548714D01*
X137595428Y-108645476D01*
X137498666Y-108742238D01*
X137353523Y-108790619D01*
X137256761Y-108790619D01*
X137111619Y-108742238D01*
X137063238Y-108693857D01*
X137063238Y-108355190D01*
X137256761Y-108355190D01*
X136627809Y-108790619D02*
X136627809Y-107774619D01*
X136240761Y-107774619D01*
X136144000Y-107823000D01*
X136095619Y-107871380D01*
X136047238Y-107968142D01*
X136047238Y-108113285D01*
X136095619Y-108210047D01*
X136144000Y-108258428D01*
X136240761Y-108306809D01*
X136627809Y-108306809D01*
X135611809Y-108790619D02*
X135611809Y-107774619D01*
X134934476Y-107774619D02*
X134740952Y-107774619D01*
X134644190Y-107823000D01*
X134547428Y-107919761D01*
X134499047Y-108113285D01*
X134499047Y-108451952D01*
X134547428Y-108645476D01*
X134644190Y-108742238D01*
X134740952Y-108790619D01*
X134934476Y-108790619D01*
X135031238Y-108742238D01*
X135128000Y-108645476D01*
X135176380Y-108451952D01*
X135176380Y-108113285D01*
X135128000Y-107919761D01*
X135031238Y-107823000D01*
X134934476Y-107774619D01*
X133531428Y-108790619D02*
X134112000Y-108790619D01*
X133821714Y-108790619D02*
X133821714Y-107774619D01*
X133918476Y-107919761D01*
X134015238Y-108016523D01*
X134112000Y-108064904D01*
X133192761Y-107774619D02*
X132563809Y-107774619D01*
X132902476Y-108161666D01*
X132757333Y-108161666D01*
X132660571Y-108210047D01*
X132612190Y-108258428D01*
X132563809Y-108355190D01*
X132563809Y-108597095D01*
X132612190Y-108693857D01*
X132660571Y-108742238D01*
X132757333Y-108790619D01*
X133047619Y-108790619D01*
X133144380Y-108742238D01*
X133192761Y-108693857D01*
X136222619Y-104775000D02*
X136343571Y-104714523D01*
X136525000Y-104714523D01*
X136706428Y-104775000D01*
X136827380Y-104895952D01*
X136887857Y-105016904D01*
X136948333Y-105258809D01*
X136948333Y-105440238D01*
X136887857Y-105682142D01*
X136827380Y-105803095D01*
X136706428Y-105924047D01*
X136525000Y-105984523D01*
X136404047Y-105984523D01*
X136222619Y-105924047D01*
X136162142Y-105863571D01*
X136162142Y-105440238D01*
X136404047Y-105440238D01*
X135617857Y-105984523D02*
X135617857Y-104714523D01*
X134892142Y-105984523D01*
X134892142Y-104714523D01*
X134287380Y-105984523D02*
X134287380Y-104714523D01*
X133985000Y-104714523D01*
X133803571Y-104775000D01*
X133682619Y-104895952D01*
X133622142Y-105016904D01*
X133561666Y-105258809D01*
X133561666Y-105440238D01*
X133622142Y-105682142D01*
X133682619Y-105803095D01*
X133803571Y-105924047D01*
X133985000Y-105984523D01*
X134287380Y-105984523D01*
X137111619Y-102362000D02*
X137208380Y-102313619D01*
X137353523Y-102313619D01*
X137498666Y-102362000D01*
X137595428Y-102458761D01*
X137643809Y-102555523D01*
X137692190Y-102749047D01*
X137692190Y-102894190D01*
X137643809Y-103087714D01*
X137595428Y-103184476D01*
X137498666Y-103281238D01*
X137353523Y-103329619D01*
X137256761Y-103329619D01*
X137111619Y-103281238D01*
X137063238Y-103232857D01*
X137063238Y-102894190D01*
X137256761Y-102894190D01*
X136627809Y-103329619D02*
X136627809Y-102313619D01*
X136240761Y-102313619D01*
X136144000Y-102362000D01*
X136095619Y-102410380D01*
X136047238Y-102507142D01*
X136047238Y-102652285D01*
X136095619Y-102749047D01*
X136144000Y-102797428D01*
X136240761Y-102845809D01*
X136627809Y-102845809D01*
X135611809Y-103329619D02*
X135611809Y-102313619D01*
X134934476Y-102313619D02*
X134740952Y-102313619D01*
X134644190Y-102362000D01*
X134547428Y-102458761D01*
X134499047Y-102652285D01*
X134499047Y-102990952D01*
X134547428Y-103184476D01*
X134644190Y-103281238D01*
X134740952Y-103329619D01*
X134934476Y-103329619D01*
X135031238Y-103281238D01*
X135128000Y-103184476D01*
X135176380Y-102990952D01*
X135176380Y-102652285D01*
X135128000Y-102458761D01*
X135031238Y-102362000D01*
X134934476Y-102313619D01*
X133531428Y-103329619D02*
X134112000Y-103329619D01*
X133821714Y-103329619D02*
X133821714Y-102313619D01*
X133918476Y-102458761D01*
X134015238Y-102555523D01*
X134112000Y-102603904D01*
X133144380Y-102410380D02*
X133096000Y-102362000D01*
X132999238Y-102313619D01*
X132757333Y-102313619D01*
X132660571Y-102362000D01*
X132612190Y-102410380D01*
X132563809Y-102507142D01*
X132563809Y-102603904D01*
X132612190Y-102749047D01*
X133192761Y-103329619D01*
X132563809Y-103329619D01*
X137111619Y-99822000D02*
X137208380Y-99773619D01*
X137353523Y-99773619D01*
X137498666Y-99822000D01*
X137595428Y-99918761D01*
X137643809Y-100015523D01*
X137692190Y-100209047D01*
X137692190Y-100354190D01*
X137643809Y-100547714D01*
X137595428Y-100644476D01*
X137498666Y-100741238D01*
X137353523Y-100789619D01*
X137256761Y-100789619D01*
X137111619Y-100741238D01*
X137063238Y-100692857D01*
X137063238Y-100354190D01*
X137256761Y-100354190D01*
X136627809Y-100789619D02*
X136627809Y-99773619D01*
X136240761Y-99773619D01*
X136144000Y-99822000D01*
X136095619Y-99870380D01*
X136047238Y-99967142D01*
X136047238Y-100112285D01*
X136095619Y-100209047D01*
X136144000Y-100257428D01*
X136240761Y-100305809D01*
X136627809Y-100305809D01*
X135611809Y-100789619D02*
X135611809Y-99773619D01*
X134934476Y-99773619D02*
X134740952Y-99773619D01*
X134644190Y-99822000D01*
X134547428Y-99918761D01*
X134499047Y-100112285D01*
X134499047Y-100450952D01*
X134547428Y-100644476D01*
X134644190Y-100741238D01*
X134740952Y-100789619D01*
X134934476Y-100789619D01*
X135031238Y-100741238D01*
X135128000Y-100644476D01*
X135176380Y-100450952D01*
X135176380Y-100112285D01*
X135128000Y-99918761D01*
X135031238Y-99822000D01*
X134934476Y-99773619D01*
X133531428Y-100789619D02*
X134112000Y-100789619D01*
X133821714Y-100789619D02*
X133821714Y-99773619D01*
X133918476Y-99918761D01*
X134015238Y-100015523D01*
X134112000Y-100063904D01*
X132660571Y-100112285D02*
X132660571Y-100789619D01*
X132902476Y-99725238D02*
X133144380Y-100450952D01*
X132515428Y-100450952D01*
X137111619Y-97282000D02*
X137208380Y-97233619D01*
X137353523Y-97233619D01*
X137498666Y-97282000D01*
X137595428Y-97378761D01*
X137643809Y-97475523D01*
X137692190Y-97669047D01*
X137692190Y-97814190D01*
X137643809Y-98007714D01*
X137595428Y-98104476D01*
X137498666Y-98201238D01*
X137353523Y-98249619D01*
X137256761Y-98249619D01*
X137111619Y-98201238D01*
X137063238Y-98152857D01*
X137063238Y-97814190D01*
X137256761Y-97814190D01*
X136627809Y-98249619D02*
X136627809Y-97233619D01*
X136240761Y-97233619D01*
X136144000Y-97282000D01*
X136095619Y-97330380D01*
X136047238Y-97427142D01*
X136047238Y-97572285D01*
X136095619Y-97669047D01*
X136144000Y-97717428D01*
X136240761Y-97765809D01*
X136627809Y-97765809D01*
X135611809Y-98249619D02*
X135611809Y-97233619D01*
X134934476Y-97233619D02*
X134740952Y-97233619D01*
X134644190Y-97282000D01*
X134547428Y-97378761D01*
X134499047Y-97572285D01*
X134499047Y-97910952D01*
X134547428Y-98104476D01*
X134644190Y-98201238D01*
X134740952Y-98249619D01*
X134934476Y-98249619D01*
X135031238Y-98201238D01*
X135128000Y-98104476D01*
X135176380Y-97910952D01*
X135176380Y-97572285D01*
X135128000Y-97378761D01*
X135031238Y-97282000D01*
X134934476Y-97233619D01*
X134112000Y-97330380D02*
X134063619Y-97282000D01*
X133966857Y-97233619D01*
X133724952Y-97233619D01*
X133628190Y-97282000D01*
X133579809Y-97330380D01*
X133531428Y-97427142D01*
X133531428Y-97523904D01*
X133579809Y-97669047D01*
X134160380Y-98249619D01*
X133531428Y-98249619D01*
X133192761Y-97233619D02*
X132515428Y-97233619D01*
X132950857Y-98249619D01*
X137111619Y-94742000D02*
X137208380Y-94693619D01*
X137353523Y-94693619D01*
X137498666Y-94742000D01*
X137595428Y-94838761D01*
X137643809Y-94935523D01*
X137692190Y-95129047D01*
X137692190Y-95274190D01*
X137643809Y-95467714D01*
X137595428Y-95564476D01*
X137498666Y-95661238D01*
X137353523Y-95709619D01*
X137256761Y-95709619D01*
X137111619Y-95661238D01*
X137063238Y-95612857D01*
X137063238Y-95274190D01*
X137256761Y-95274190D01*
X136627809Y-95709619D02*
X136627809Y-94693619D01*
X136240761Y-94693619D01*
X136144000Y-94742000D01*
X136095619Y-94790380D01*
X136047238Y-94887142D01*
X136047238Y-95032285D01*
X136095619Y-95129047D01*
X136144000Y-95177428D01*
X136240761Y-95225809D01*
X136627809Y-95225809D01*
X135611809Y-95709619D02*
X135611809Y-94693619D01*
X134934476Y-94693619D02*
X134740952Y-94693619D01*
X134644190Y-94742000D01*
X134547428Y-94838761D01*
X134499047Y-95032285D01*
X134499047Y-95370952D01*
X134547428Y-95564476D01*
X134644190Y-95661238D01*
X134740952Y-95709619D01*
X134934476Y-95709619D01*
X135031238Y-95661238D01*
X135128000Y-95564476D01*
X135176380Y-95370952D01*
X135176380Y-95032285D01*
X135128000Y-94838761D01*
X135031238Y-94742000D01*
X134934476Y-94693619D01*
X134112000Y-94790380D02*
X134063619Y-94742000D01*
X133966857Y-94693619D01*
X133724952Y-94693619D01*
X133628190Y-94742000D01*
X133579809Y-94790380D01*
X133531428Y-94887142D01*
X133531428Y-94983904D01*
X133579809Y-95129047D01*
X134160380Y-95709619D01*
X133531428Y-95709619D01*
X132660571Y-94693619D02*
X132854095Y-94693619D01*
X132950857Y-94742000D01*
X132999238Y-94790380D01*
X133096000Y-94935523D01*
X133144380Y-95129047D01*
X133144380Y-95516095D01*
X133096000Y-95612857D01*
X133047619Y-95661238D01*
X132950857Y-95709619D01*
X132757333Y-95709619D01*
X132660571Y-95661238D01*
X132612190Y-95612857D01*
X132563809Y-95516095D01*
X132563809Y-95274190D01*
X132612190Y-95177428D01*
X132660571Y-95129047D01*
X132757333Y-95080666D01*
X132950857Y-95080666D01*
X133047619Y-95129047D01*
X133096000Y-95177428D01*
X133144380Y-95274190D01*
X137111619Y-92202000D02*
X137208380Y-92153619D01*
X137353523Y-92153619D01*
X137498666Y-92202000D01*
X137595428Y-92298761D01*
X137643809Y-92395523D01*
X137692190Y-92589047D01*
X137692190Y-92734190D01*
X137643809Y-92927714D01*
X137595428Y-93024476D01*
X137498666Y-93121238D01*
X137353523Y-93169619D01*
X137256761Y-93169619D01*
X137111619Y-93121238D01*
X137063238Y-93072857D01*
X137063238Y-92734190D01*
X137256761Y-92734190D01*
X136627809Y-93169619D02*
X136627809Y-92153619D01*
X136240761Y-92153619D01*
X136144000Y-92202000D01*
X136095619Y-92250380D01*
X136047238Y-92347142D01*
X136047238Y-92492285D01*
X136095619Y-92589047D01*
X136144000Y-92637428D01*
X136240761Y-92685809D01*
X136627809Y-92685809D01*
X135611809Y-93169619D02*
X135611809Y-92153619D01*
X134934476Y-92153619D02*
X134740952Y-92153619D01*
X134644190Y-92202000D01*
X134547428Y-92298761D01*
X134499047Y-92492285D01*
X134499047Y-92830952D01*
X134547428Y-93024476D01*
X134644190Y-93121238D01*
X134740952Y-93169619D01*
X134934476Y-93169619D01*
X135031238Y-93121238D01*
X135128000Y-93024476D01*
X135176380Y-92830952D01*
X135176380Y-92492285D01*
X135128000Y-92298761D01*
X135031238Y-92202000D01*
X134934476Y-92153619D01*
X134112000Y-92250380D02*
X134063619Y-92202000D01*
X133966857Y-92153619D01*
X133724952Y-92153619D01*
X133628190Y-92202000D01*
X133579809Y-92250380D01*
X133531428Y-92347142D01*
X133531428Y-92443904D01*
X133579809Y-92589047D01*
X134160380Y-93169619D01*
X133531428Y-93169619D01*
X132612190Y-92153619D02*
X133096000Y-92153619D01*
X133144380Y-92637428D01*
X133096000Y-92589047D01*
X132999238Y-92540666D01*
X132757333Y-92540666D01*
X132660571Y-92589047D01*
X132612190Y-92637428D01*
X132563809Y-92734190D01*
X132563809Y-92976095D01*
X132612190Y-93072857D01*
X132660571Y-93121238D01*
X132757333Y-93169619D01*
X132999238Y-93169619D01*
X133096000Y-93121238D01*
X133144380Y-93072857D01*
X137111619Y-89662000D02*
X137208380Y-89613619D01*
X137353523Y-89613619D01*
X137498666Y-89662000D01*
X137595428Y-89758761D01*
X137643809Y-89855523D01*
X137692190Y-90049047D01*
X137692190Y-90194190D01*
X137643809Y-90387714D01*
X137595428Y-90484476D01*
X137498666Y-90581238D01*
X137353523Y-90629619D01*
X137256761Y-90629619D01*
X137111619Y-90581238D01*
X137063238Y-90532857D01*
X137063238Y-90194190D01*
X137256761Y-90194190D01*
X136627809Y-90629619D02*
X136627809Y-89613619D01*
X136240761Y-89613619D01*
X136144000Y-89662000D01*
X136095619Y-89710380D01*
X136047238Y-89807142D01*
X136047238Y-89952285D01*
X136095619Y-90049047D01*
X136144000Y-90097428D01*
X136240761Y-90145809D01*
X136627809Y-90145809D01*
X135611809Y-90629619D02*
X135611809Y-89613619D01*
X134934476Y-89613619D02*
X134740952Y-89613619D01*
X134644190Y-89662000D01*
X134547428Y-89758761D01*
X134499047Y-89952285D01*
X134499047Y-90290952D01*
X134547428Y-90484476D01*
X134644190Y-90581238D01*
X134740952Y-90629619D01*
X134934476Y-90629619D01*
X135031238Y-90581238D01*
X135128000Y-90484476D01*
X135176380Y-90290952D01*
X135176380Y-89952285D01*
X135128000Y-89758761D01*
X135031238Y-89662000D01*
X134934476Y-89613619D01*
X134160380Y-89613619D02*
X133531428Y-89613619D01*
X133870095Y-90000666D01*
X133724952Y-90000666D01*
X133628190Y-90049047D01*
X133579809Y-90097428D01*
X133531428Y-90194190D01*
X133531428Y-90436095D01*
X133579809Y-90532857D01*
X133628190Y-90581238D01*
X133724952Y-90629619D01*
X134015238Y-90629619D01*
X134112000Y-90581238D01*
X134160380Y-90532857D01*
X133192761Y-89613619D02*
X132563809Y-89613619D01*
X132902476Y-90000666D01*
X132757333Y-90000666D01*
X132660571Y-90049047D01*
X132612190Y-90097428D01*
X132563809Y-90194190D01*
X132563809Y-90436095D01*
X132612190Y-90532857D01*
X132660571Y-90581238D01*
X132757333Y-90629619D01*
X133047619Y-90629619D01*
X133144380Y-90581238D01*
X133192761Y-90532857D01*
X137111619Y-87122000D02*
X137208380Y-87073619D01*
X137353523Y-87073619D01*
X137498666Y-87122000D01*
X137595428Y-87218761D01*
X137643809Y-87315523D01*
X137692190Y-87509047D01*
X137692190Y-87654190D01*
X137643809Y-87847714D01*
X137595428Y-87944476D01*
X137498666Y-88041238D01*
X137353523Y-88089619D01*
X137256761Y-88089619D01*
X137111619Y-88041238D01*
X137063238Y-87992857D01*
X137063238Y-87654190D01*
X137256761Y-87654190D01*
X136627809Y-88089619D02*
X136627809Y-87073619D01*
X136240761Y-87073619D01*
X136144000Y-87122000D01*
X136095619Y-87170380D01*
X136047238Y-87267142D01*
X136047238Y-87412285D01*
X136095619Y-87509047D01*
X136144000Y-87557428D01*
X136240761Y-87605809D01*
X136627809Y-87605809D01*
X135611809Y-88089619D02*
X135611809Y-87073619D01*
X134934476Y-87073619D02*
X134740952Y-87073619D01*
X134644190Y-87122000D01*
X134547428Y-87218761D01*
X134499047Y-87412285D01*
X134499047Y-87750952D01*
X134547428Y-87944476D01*
X134644190Y-88041238D01*
X134740952Y-88089619D01*
X134934476Y-88089619D01*
X135031238Y-88041238D01*
X135128000Y-87944476D01*
X135176380Y-87750952D01*
X135176380Y-87412285D01*
X135128000Y-87218761D01*
X135031238Y-87122000D01*
X134934476Y-87073619D01*
X134160380Y-87073619D02*
X133531428Y-87073619D01*
X133870095Y-87460666D01*
X133724952Y-87460666D01*
X133628190Y-87509047D01*
X133579809Y-87557428D01*
X133531428Y-87654190D01*
X133531428Y-87896095D01*
X133579809Y-87992857D01*
X133628190Y-88041238D01*
X133724952Y-88089619D01*
X134015238Y-88089619D01*
X134112000Y-88041238D01*
X134160380Y-87992857D01*
X133144380Y-87170380D02*
X133096000Y-87122000D01*
X132999238Y-87073619D01*
X132757333Y-87073619D01*
X132660571Y-87122000D01*
X132612190Y-87170380D01*
X132563809Y-87267142D01*
X132563809Y-87363904D01*
X132612190Y-87509047D01*
X133192761Y-88089619D01*
X132563809Y-88089619D01*
X136325428Y-84645500D02*
X136422190Y-84597119D01*
X136567333Y-84597119D01*
X136712476Y-84645500D01*
X136809238Y-84742261D01*
X136857619Y-84839023D01*
X136906000Y-85032547D01*
X136906000Y-85177690D01*
X136857619Y-85371214D01*
X136809238Y-85467976D01*
X136712476Y-85564738D01*
X136567333Y-85613119D01*
X136470571Y-85613119D01*
X136325428Y-85564738D01*
X136277047Y-85516357D01*
X136277047Y-85177690D01*
X136470571Y-85177690D01*
X135841619Y-85613119D02*
X135841619Y-84597119D01*
X135454571Y-84597119D01*
X135357809Y-84645500D01*
X135309428Y-84693880D01*
X135261047Y-84790642D01*
X135261047Y-84935785D01*
X135309428Y-85032547D01*
X135357809Y-85080928D01*
X135454571Y-85129309D01*
X135841619Y-85129309D01*
X134825619Y-85613119D02*
X134825619Y-84597119D01*
X134438571Y-84597119D02*
X133809619Y-84597119D01*
X134148285Y-84984166D01*
X134003142Y-84984166D01*
X133906380Y-85032547D01*
X133858000Y-85080928D01*
X133809619Y-85177690D01*
X133809619Y-85419595D01*
X133858000Y-85516357D01*
X133906380Y-85564738D01*
X134003142Y-85613119D01*
X134293428Y-85613119D01*
X134390190Y-85564738D01*
X134438571Y-85516357D01*
X132890380Y-84597119D02*
X133374190Y-84597119D01*
X133422571Y-85080928D01*
X133374190Y-85032547D01*
X133277428Y-84984166D01*
X133035523Y-84984166D01*
X132938761Y-85032547D01*
X132890380Y-85080928D01*
X132842000Y-85177690D01*
X132842000Y-85419595D01*
X132890380Y-85516357D01*
X132938761Y-85564738D01*
X133035523Y-85613119D01*
X133277428Y-85613119D01*
X133374190Y-85564738D01*
X133422571Y-85516357D01*
X136325428Y-82105500D02*
X136422190Y-82057119D01*
X136567333Y-82057119D01*
X136712476Y-82105500D01*
X136809238Y-82202261D01*
X136857619Y-82299023D01*
X136906000Y-82492547D01*
X136906000Y-82637690D01*
X136857619Y-82831214D01*
X136809238Y-82927976D01*
X136712476Y-83024738D01*
X136567333Y-83073119D01*
X136470571Y-83073119D01*
X136325428Y-83024738D01*
X136277047Y-82976357D01*
X136277047Y-82637690D01*
X136470571Y-82637690D01*
X135841619Y-83073119D02*
X135841619Y-82057119D01*
X135454571Y-82057119D01*
X135357809Y-82105500D01*
X135309428Y-82153880D01*
X135261047Y-82250642D01*
X135261047Y-82395785D01*
X135309428Y-82492547D01*
X135357809Y-82540928D01*
X135454571Y-82589309D01*
X135841619Y-82589309D01*
X134825619Y-83073119D02*
X134825619Y-82057119D01*
X134438571Y-82057119D02*
X133809619Y-82057119D01*
X134148285Y-82444166D01*
X134003142Y-82444166D01*
X133906380Y-82492547D01*
X133858000Y-82540928D01*
X133809619Y-82637690D01*
X133809619Y-82879595D01*
X133858000Y-82976357D01*
X133906380Y-83024738D01*
X134003142Y-83073119D01*
X134293428Y-83073119D01*
X134390190Y-83024738D01*
X134438571Y-82976357D01*
X132938761Y-82395785D02*
X132938761Y-83073119D01*
X133180666Y-82008738D02*
X133422571Y-82734452D01*
X132793619Y-82734452D01*
D14*
X133985038Y-80503907D02*
X134041486Y-80522723D01*
X134097933Y-80579170D01*
X134135565Y-80654433D01*
X134135565Y-80729696D01*
X134116749Y-80786144D01*
X134060301Y-80880223D01*
X134003854Y-80936670D01*
X133909775Y-80993117D01*
X133853328Y-81011933D01*
X133778065Y-81011933D01*
X133702802Y-80974301D01*
X133665170Y-80936670D01*
X133627539Y-80861407D01*
X133627539Y-80823775D01*
X133759249Y-80692065D01*
X133834512Y-80767328D01*
X133420565Y-80692065D02*
X133815696Y-80296934D01*
X133665170Y-80146407D01*
X133608723Y-80127592D01*
X133571091Y-80127592D01*
X133514644Y-80146407D01*
X133458197Y-80202855D01*
X133439381Y-80259302D01*
X133439381Y-80296934D01*
X133458197Y-80353381D01*
X133608723Y-80503907D01*
X133025434Y-80296934D02*
X133420565Y-79901802D01*
X133270039Y-79751276D02*
X133025434Y-79506671D01*
X133006618Y-79788908D01*
X132950171Y-79732460D01*
X132893723Y-79713645D01*
X132856092Y-79713645D01*
X132799645Y-79732460D01*
X132705566Y-79826539D01*
X132686750Y-79882987D01*
X132686750Y-79920618D01*
X132705566Y-79977065D01*
X132818460Y-80089960D01*
X132874908Y-80108776D01*
X132912539Y-80108776D01*
X132442145Y-79713645D02*
X132366882Y-79638381D01*
X132348066Y-79581934D01*
X132348066Y-79544303D01*
X132366882Y-79450224D01*
X132423329Y-79356145D01*
X132573855Y-79205619D01*
X132630303Y-79186803D01*
X132667934Y-79186803D01*
X132724381Y-79205619D01*
X132799645Y-79280882D01*
X132818460Y-79337329D01*
X132818460Y-79374961D01*
X132799645Y-79431408D01*
X132705566Y-79525487D01*
X132649118Y-79544303D01*
X132611487Y-79544303D01*
X132555039Y-79525487D01*
X132479776Y-79450224D01*
X132460961Y-79393776D01*
X132460961Y-79356145D01*
X132479776Y-79299698D01*
X133985038Y-77963907D02*
X134041486Y-77982723D01*
X134097933Y-78039170D01*
X134135565Y-78114433D01*
X134135565Y-78189696D01*
X134116749Y-78246144D01*
X134060301Y-78340223D01*
X134003854Y-78396670D01*
X133909775Y-78453117D01*
X133853328Y-78471933D01*
X133778065Y-78471933D01*
X133702802Y-78434301D01*
X133665170Y-78396670D01*
X133627539Y-78321407D01*
X133627539Y-78283775D01*
X133759249Y-78152065D01*
X133834512Y-78227328D01*
X133420565Y-78152065D02*
X133815696Y-77756934D01*
X133665170Y-77606407D01*
X133608723Y-77587592D01*
X133571091Y-77587592D01*
X133514644Y-77606407D01*
X133458197Y-77662855D01*
X133439381Y-77719302D01*
X133439381Y-77756934D01*
X133458197Y-77813381D01*
X133608723Y-77963907D01*
X133025434Y-77756934D02*
X133420565Y-77361802D01*
X133270039Y-77211276D02*
X133025434Y-76966671D01*
X133006618Y-77248908D01*
X132950171Y-77192460D01*
X132893723Y-77173645D01*
X132856092Y-77173645D01*
X132799645Y-77192460D01*
X132705566Y-77286539D01*
X132686750Y-77342987D01*
X132686750Y-77380618D01*
X132705566Y-77437065D01*
X132818460Y-77549960D01*
X132874908Y-77568776D01*
X132912539Y-77568776D01*
X132686750Y-76627987D02*
X132762013Y-76703250D01*
X132780829Y-76759698D01*
X132780829Y-76797329D01*
X132762013Y-76891408D01*
X132705566Y-76985487D01*
X132555039Y-77136013D01*
X132498592Y-77154829D01*
X132460961Y-77154829D01*
X132404513Y-77136013D01*
X132329250Y-77060750D01*
X132310434Y-77004303D01*
X132310434Y-76966671D01*
X132329250Y-76910224D01*
X132423329Y-76816145D01*
X132479776Y-76797329D01*
X132517408Y-76797329D01*
X132573855Y-76816145D01*
X132649118Y-76891408D01*
X132667934Y-76947855D01*
X132667934Y-76985487D01*
X132649118Y-77041934D01*
D10*
X137716380Y-74857428D02*
X137377714Y-74857428D01*
X137232571Y-75389619D02*
X137716380Y-75389619D01*
X137716380Y-74373619D01*
X137232571Y-74373619D01*
X136845523Y-75341238D02*
X136700380Y-75389619D01*
X136458476Y-75389619D01*
X136361714Y-75341238D01*
X136313333Y-75292857D01*
X136264952Y-75196095D01*
X136264952Y-75099333D01*
X136313333Y-75002571D01*
X136361714Y-74954190D01*
X136458476Y-74905809D01*
X136652000Y-74857428D01*
X136748761Y-74809047D01*
X136797142Y-74760666D01*
X136845523Y-74663904D01*
X136845523Y-74567142D01*
X136797142Y-74470380D01*
X136748761Y-74422000D01*
X136652000Y-74373619D01*
X136410095Y-74373619D01*
X136264952Y-74422000D01*
X135829523Y-75389619D02*
X135829523Y-74373619D01*
X135442476Y-74373619D01*
X135345714Y-74422000D01*
X135297333Y-74470380D01*
X135248952Y-74567142D01*
X135248952Y-74712285D01*
X135297333Y-74809047D01*
X135345714Y-74857428D01*
X135442476Y-74905809D01*
X135829523Y-74905809D01*
X135055428Y-75486380D02*
X134281333Y-75486380D01*
X134039428Y-74857428D02*
X133700761Y-74857428D01*
X133555619Y-75389619D02*
X134039428Y-75389619D01*
X134039428Y-74373619D01*
X133555619Y-74373619D01*
X133120190Y-75389619D02*
X133120190Y-74373619D01*
X132539619Y-75389619D01*
X132539619Y-74373619D01*
X153748619Y-71755000D02*
X153869571Y-71694523D01*
X154051000Y-71694523D01*
X154232428Y-71755000D01*
X154353380Y-71875952D01*
X154413857Y-71996904D01*
X154474333Y-72238809D01*
X154474333Y-72420238D01*
X154413857Y-72662142D01*
X154353380Y-72783095D01*
X154232428Y-72904047D01*
X154051000Y-72964523D01*
X153930047Y-72964523D01*
X153748619Y-72904047D01*
X153688142Y-72843571D01*
X153688142Y-72420238D01*
X153930047Y-72420238D01*
X153143857Y-72964523D02*
X153143857Y-71694523D01*
X152418142Y-72964523D01*
X152418142Y-71694523D01*
X151813380Y-72964523D02*
X151813380Y-71694523D01*
X151511000Y-71694523D01*
X151329571Y-71755000D01*
X151208619Y-71875952D01*
X151148142Y-71996904D01*
X151087666Y-72238809D01*
X151087666Y-72420238D01*
X151148142Y-72662142D01*
X151208619Y-72783095D01*
X151329571Y-72904047D01*
X151511000Y-72964523D01*
X151813380Y-72964523D01*
X135684380Y-71694523D02*
X134898190Y-71694523D01*
X135321523Y-72178333D01*
X135140095Y-72178333D01*
X135019142Y-72238809D01*
X134958666Y-72299285D01*
X134898190Y-72420238D01*
X134898190Y-72722619D01*
X134958666Y-72843571D01*
X135019142Y-72904047D01*
X135140095Y-72964523D01*
X135502952Y-72964523D01*
X135623904Y-72904047D01*
X135684380Y-72843571D01*
X134535333Y-71694523D02*
X134112000Y-72964523D01*
X133688666Y-71694523D01*
X133386285Y-71694523D02*
X132600095Y-71694523D01*
X133023428Y-72178333D01*
X132842000Y-72178333D01*
X132721047Y-72238809D01*
X132660571Y-72299285D01*
X132600095Y-72420238D01*
X132600095Y-72722619D01*
X132660571Y-72843571D01*
X132721047Y-72904047D01*
X132842000Y-72964523D01*
X133204857Y-72964523D01*
X133325809Y-72904047D01*
X133386285Y-72843571D01*
D15*
X147668342Y-110429523D02*
X147668342Y-109989257D01*
X146976495Y-109800571D02*
X146976495Y-110429523D01*
X148297295Y-110429523D01*
X148297295Y-109800571D01*
X147039390Y-109297409D02*
X146976495Y-109108723D01*
X146976495Y-108794247D01*
X147039390Y-108668457D01*
X147102285Y-108605561D01*
X147228076Y-108542666D01*
X147353866Y-108542666D01*
X147479657Y-108605561D01*
X147542552Y-108668457D01*
X147605447Y-108794247D01*
X147668342Y-109045828D01*
X147731238Y-109171619D01*
X147794133Y-109234514D01*
X147919923Y-109297409D01*
X148045714Y-109297409D01*
X148171504Y-109234514D01*
X148234400Y-109171619D01*
X148297295Y-109045828D01*
X148297295Y-108731352D01*
X148234400Y-108542666D01*
X146976495Y-107976609D02*
X148297295Y-107976609D01*
X148297295Y-107473447D01*
X148234400Y-107347657D01*
X148171504Y-107284761D01*
X148045714Y-107221866D01*
X147857028Y-107221866D01*
X147731238Y-107284761D01*
X147668342Y-107347657D01*
X147605447Y-107473447D01*
X147605447Y-107976609D01*
X148297295Y-106781600D02*
X148297295Y-105963961D01*
X147794133Y-106404228D01*
X147794133Y-106215542D01*
X147731238Y-106089752D01*
X147668342Y-106026857D01*
X147542552Y-105963961D01*
X147228076Y-105963961D01*
X147102285Y-106026857D01*
X147039390Y-106089752D01*
X146976495Y-106215542D01*
X146976495Y-106592914D01*
X147039390Y-106718704D01*
X147102285Y-106781600D01*
X148171504Y-105460800D02*
X148234400Y-105397904D01*
X148297295Y-105272114D01*
X148297295Y-104957638D01*
X148234400Y-104831847D01*
X148171504Y-104768952D01*
X148045714Y-104706057D01*
X147919923Y-104706057D01*
X147731238Y-104768952D01*
X146976495Y-105523695D01*
X146976495Y-104706057D01*
X147479657Y-104140000D02*
X147479657Y-103133676D01*
X146976495Y-102504723D02*
X148297295Y-102504723D01*
X148297295Y-102190247D01*
X148234400Y-102001561D01*
X148108609Y-101875771D01*
X147982819Y-101812876D01*
X147731238Y-101749980D01*
X147542552Y-101749980D01*
X147290971Y-101812876D01*
X147165180Y-101875771D01*
X147039390Y-102001561D01*
X146976495Y-102190247D01*
X146976495Y-102504723D01*
X147039390Y-100680761D02*
X146976495Y-100806552D01*
X146976495Y-101058133D01*
X147039390Y-101183923D01*
X147165180Y-101246819D01*
X147668342Y-101246819D01*
X147794133Y-101183923D01*
X147857028Y-101058133D01*
X147857028Y-100806552D01*
X147794133Y-100680761D01*
X147668342Y-100617866D01*
X147542552Y-100617866D01*
X147416761Y-101246819D01*
X147857028Y-100177600D02*
X146976495Y-99863123D01*
X147857028Y-99548647D01*
X146976495Y-99045485D02*
X148297295Y-99045485D01*
X146976495Y-98290742D02*
X147731238Y-98856800D01*
X148297295Y-98290742D02*
X147542552Y-99045485D01*
X146976495Y-97724685D02*
X147857028Y-97724685D01*
X148297295Y-97724685D02*
X148234400Y-97787580D01*
X148171504Y-97724685D01*
X148234400Y-97661790D01*
X148297295Y-97724685D01*
X148171504Y-97724685D01*
X147857028Y-97284419D02*
X147857028Y-96781257D01*
X148297295Y-97095733D02*
X147165180Y-97095733D01*
X147039390Y-97032838D01*
X146976495Y-96907047D01*
X146976495Y-96781257D01*
X147479657Y-96340990D02*
X147479657Y-95334666D01*
X146976495Y-94076761D02*
X146976495Y-94705714D01*
X148297295Y-94705714D01*
X146976495Y-93636495D02*
X147857028Y-93636495D01*
X148297295Y-93636495D02*
X148234400Y-93699390D01*
X148171504Y-93636495D01*
X148234400Y-93573600D01*
X148297295Y-93636495D01*
X148171504Y-93636495D01*
X147857028Y-93007542D02*
X146536228Y-93007542D01*
X147794133Y-93007542D02*
X147857028Y-92881752D01*
X147857028Y-92630171D01*
X147794133Y-92504380D01*
X147731238Y-92441485D01*
X147605447Y-92378590D01*
X147228076Y-92378590D01*
X147102285Y-92441485D01*
X147039390Y-92504380D01*
X146976495Y-92630171D01*
X146976495Y-92881752D01*
X147039390Y-93007542D01*
X146976495Y-91623847D02*
X147039390Y-91749638D01*
X147102285Y-91812533D01*
X147228076Y-91875428D01*
X147605447Y-91875428D01*
X147731238Y-91812533D01*
X147794133Y-91749638D01*
X147857028Y-91623847D01*
X147857028Y-91435161D01*
X147794133Y-91309371D01*
X147731238Y-91246476D01*
X147605447Y-91183580D01*
X147228076Y-91183580D01*
X147102285Y-91246476D01*
X147039390Y-91309371D01*
X146976495Y-91435161D01*
X146976495Y-91623847D01*
D16*
X150495000Y-117475000D02*
G75*
G02X150749000Y-117729000I0J-254000D01*
G01*
X149225000Y-117729000D02*
G75*
G02X149479000Y-117475000I254000J0D01*
G01*
X149479000Y-118491000D02*
G75*
G02X149225000Y-118237000I0J254000D01*
G01*
X150749000Y-118237000D02*
G75*
G02X150495000Y-118491000I-254000J0D01*
G01*
D17*
X150749000Y-117729000D02*
X150749000Y-118237000D01*
X150495000Y-118491000D02*
X149479000Y-118491000D01*
X149225000Y-118237000D02*
X149225000Y-117729000D01*
X149479000Y-117475000D02*
X150495000Y-117475000D01*
D10*
X129540000Y-71120000D02*
X132080000Y-71120000D01*
X131826000Y-76200000D02*
X132080000Y-76454000D01*
X132080000Y-75946000D02*
X131826000Y-76200000D01*
X132080000Y-73406000D02*
X132080000Y-71628000D01*
X131826000Y-73660000D02*
X132080000Y-73406000D01*
X132080000Y-73914000D02*
X131826000Y-73660000D01*
X132080000Y-75946000D02*
X132080000Y-73914000D01*
X132080000Y-71628000D02*
X132080000Y-71120000D01*
X132080000Y-71374000D02*
X131826000Y-71120000D01*
X129794000Y-71120000D02*
X129540000Y-71374000D01*
X132080000Y-78486000D02*
X132080000Y-76454000D01*
X131826000Y-78740000D02*
X132080000Y-78486000D01*
X132080000Y-81534000D02*
X131826000Y-81280000D01*
X132080000Y-81026000D02*
X132080000Y-78994000D01*
X131826000Y-81280000D02*
X132080000Y-81026000D01*
X129540000Y-81026000D02*
X129794000Y-81280000D01*
X129540000Y-78994000D02*
X129540000Y-81026000D01*
X129794000Y-78740000D02*
X129540000Y-78994000D01*
X129540000Y-78486000D02*
X129794000Y-78740000D01*
X129540000Y-76454000D02*
X129540000Y-78486000D01*
X129794000Y-76200000D02*
X129540000Y-76454000D01*
X129540000Y-75946000D02*
X129794000Y-76200000D01*
X129540000Y-73914000D02*
X129540000Y-75946000D01*
X129794000Y-73660000D02*
X129540000Y-73914000D01*
X129540000Y-73406000D02*
X129794000Y-73660000D01*
X129540000Y-71374000D02*
X129540000Y-73406000D01*
X129540000Y-71120000D02*
X129540000Y-71374000D01*
X129794000Y-81280000D02*
X129540000Y-81534000D01*
X129540000Y-81534000D02*
X129540000Y-83566000D01*
X129540000Y-86106000D02*
X129794000Y-86360000D01*
X132080000Y-83566000D02*
X132080000Y-81534000D01*
X132080000Y-78994000D02*
X131826000Y-78740000D01*
X131826000Y-86360000D02*
X132080000Y-86106000D01*
X129540000Y-84074000D02*
X129540000Y-86106000D01*
X129794000Y-83820000D02*
X129540000Y-84074000D01*
X132080000Y-86106000D02*
X132080000Y-84074000D01*
X131826000Y-83820000D02*
X132080000Y-83566000D01*
X132080000Y-84074000D02*
X131826000Y-83820000D01*
X129540000Y-83566000D02*
X129794000Y-83820000D01*
X129540000Y-86106000D02*
X129794000Y-86360000D01*
X131826000Y-86360000D02*
X132080000Y-86106000D01*
X132080000Y-86106000D02*
X132080000Y-84074000D01*
X129540000Y-84074000D02*
X129540000Y-86106000D01*
X129794000Y-83820000D02*
X129540000Y-84074000D01*
X132080000Y-84074000D02*
X131826000Y-83820000D01*
X132080000Y-89154000D02*
X131826000Y-88900000D01*
X129794000Y-88900000D02*
X129540000Y-89154000D01*
X129540000Y-89154000D02*
X129540000Y-91186000D01*
X132080000Y-91186000D02*
X132080000Y-89154000D01*
X131826000Y-91440000D02*
X132080000Y-91186000D01*
X129540000Y-91186000D02*
X129794000Y-91440000D01*
X129540000Y-88646000D02*
X129794000Y-88900000D01*
X132080000Y-89154000D02*
X131826000Y-88900000D01*
X131826000Y-88900000D02*
X132080000Y-88646000D01*
X132080000Y-91186000D02*
X132080000Y-89154000D01*
X129794000Y-88900000D02*
X129540000Y-89154000D01*
X129540000Y-89154000D02*
X129540000Y-91186000D01*
X131826000Y-91440000D02*
X132080000Y-91186000D01*
X132080000Y-88646000D02*
X132080000Y-86614000D01*
X129540000Y-91186000D02*
X129794000Y-91440000D01*
X129540000Y-86614000D02*
X129540000Y-88646000D01*
X129794000Y-86360000D02*
X129540000Y-86614000D01*
X132080000Y-86614000D02*
X131826000Y-86360000D01*
X132080000Y-91694000D02*
X131826000Y-91440000D01*
X129794000Y-91440000D02*
X129540000Y-91694000D01*
X129540000Y-91694000D02*
X129540000Y-93726000D01*
X129540000Y-96266000D02*
X129794000Y-96520000D01*
X132080000Y-93726000D02*
X132080000Y-91694000D01*
X131826000Y-96520000D02*
X132080000Y-96266000D01*
X129540000Y-94234000D02*
X129540000Y-96266000D01*
X129794000Y-93980000D02*
X129540000Y-94234000D01*
X132080000Y-96266000D02*
X132080000Y-94234000D01*
X131826000Y-93980000D02*
X132080000Y-93726000D01*
X132080000Y-94234000D02*
X131826000Y-93980000D01*
X129540000Y-93726000D02*
X129794000Y-93980000D01*
X129540000Y-96266000D02*
X129794000Y-96520000D01*
X131826000Y-96520000D02*
X132080000Y-96266000D01*
X132080000Y-96266000D02*
X132080000Y-94234000D01*
X129540000Y-94234000D02*
X129540000Y-96266000D01*
X129794000Y-93980000D02*
X129540000Y-94234000D01*
X132080000Y-94234000D02*
X131826000Y-93980000D01*
X132080000Y-99314000D02*
X131826000Y-99060000D01*
X129794000Y-99060000D02*
X129540000Y-99314000D01*
X129540000Y-99314000D02*
X129540000Y-101346000D01*
X132080000Y-101346000D02*
X132080000Y-99314000D01*
X131826000Y-101600000D02*
X132080000Y-101346000D01*
X129540000Y-101346000D02*
X129794000Y-101600000D01*
X129540000Y-98806000D02*
X129794000Y-99060000D01*
X132080000Y-99314000D02*
X131826000Y-99060000D01*
X131826000Y-99060000D02*
X132080000Y-98806000D01*
X132080000Y-101346000D02*
X132080000Y-99314000D01*
X129794000Y-99060000D02*
X129540000Y-99314000D01*
X129540000Y-99314000D02*
X129540000Y-101346000D01*
X131826000Y-101600000D02*
X132080000Y-101346000D01*
X132080000Y-98806000D02*
X132080000Y-96774000D01*
X129540000Y-101346000D02*
X129794000Y-101600000D01*
X129540000Y-96774000D02*
X129540000Y-98806000D01*
X129794000Y-96520000D02*
X129540000Y-96774000D01*
X132080000Y-96774000D02*
X131826000Y-96520000D01*
X132080000Y-101854000D02*
X131826000Y-101600000D01*
X129794000Y-101600000D02*
X129540000Y-101854000D01*
X129540000Y-101854000D02*
X129540000Y-103886000D01*
X129540000Y-106426000D02*
X129794000Y-106680000D01*
X132080000Y-103886000D02*
X132080000Y-101854000D01*
X131826000Y-106680000D02*
X132080000Y-106426000D01*
X129540000Y-104394000D02*
X129540000Y-106426000D01*
X129794000Y-104140000D02*
X129540000Y-104394000D01*
X132080000Y-106426000D02*
X132080000Y-104394000D01*
X131826000Y-104140000D02*
X132080000Y-103886000D01*
X132080000Y-104394000D02*
X131826000Y-104140000D01*
X129540000Y-103886000D02*
X129794000Y-104140000D01*
X129540000Y-106426000D02*
X129794000Y-106680000D01*
X131826000Y-106680000D02*
X132080000Y-106426000D01*
X132080000Y-106426000D02*
X132080000Y-104394000D01*
X129540000Y-104394000D02*
X129540000Y-106426000D01*
X129794000Y-104140000D02*
X129540000Y-104394000D01*
X132080000Y-104394000D02*
X131826000Y-104140000D01*
X132080000Y-109474000D02*
X131826000Y-109220000D01*
X129794000Y-109220000D02*
X129540000Y-109474000D01*
X129540000Y-109474000D02*
X129540000Y-111506000D01*
X132080000Y-111506000D02*
X132080000Y-109474000D01*
X131826000Y-111760000D02*
X132080000Y-111506000D01*
X129540000Y-111506000D02*
X129794000Y-111760000D01*
X129540000Y-108966000D02*
X129794000Y-109220000D01*
X132080000Y-109474000D02*
X131826000Y-109220000D01*
X131826000Y-109220000D02*
X132080000Y-108966000D01*
X132080000Y-111506000D02*
X132080000Y-109474000D01*
X129794000Y-109220000D02*
X129540000Y-109474000D01*
X129540000Y-109474000D02*
X129540000Y-111506000D01*
X131826000Y-111760000D02*
X132080000Y-111506000D01*
X132080000Y-108966000D02*
X132080000Y-106934000D01*
X129540000Y-111506000D02*
X129794000Y-111760000D01*
X129540000Y-106934000D02*
X129540000Y-108966000D01*
X129794000Y-106680000D02*
X129540000Y-106934000D01*
X132080000Y-106934000D02*
X131826000Y-106680000D01*
X132080000Y-117094000D02*
X131826000Y-116840000D01*
X129794000Y-116840000D02*
X129540000Y-117094000D01*
X129540000Y-117094000D02*
X129540000Y-119126000D01*
X129540000Y-119126000D02*
X129794000Y-119380000D01*
X132080000Y-119126000D02*
X132080000Y-117094000D01*
X131826000Y-119380000D02*
X132080000Y-119126000D01*
X129794000Y-119380000D02*
X131826000Y-119380000D01*
X129540000Y-119126000D02*
X129794000Y-119380000D01*
X131826000Y-119380000D02*
X132080000Y-119126000D01*
X132080000Y-114554000D02*
X131826000Y-114300000D01*
X129794000Y-114300000D02*
X129540000Y-114554000D01*
X129540000Y-114554000D02*
X129540000Y-116586000D01*
X132080000Y-116586000D02*
X132080000Y-114554000D01*
X131826000Y-116840000D02*
X132080000Y-116586000D01*
X129540000Y-116586000D02*
X129794000Y-116840000D01*
X129540000Y-114046000D02*
X129794000Y-114300000D01*
X132080000Y-114554000D02*
X131826000Y-114300000D01*
X131826000Y-114300000D02*
X132080000Y-114046000D01*
X132080000Y-116586000D02*
X132080000Y-114554000D01*
X129794000Y-114300000D02*
X129540000Y-114554000D01*
X129540000Y-114554000D02*
X129540000Y-116586000D01*
X131826000Y-116840000D02*
X132080000Y-116586000D01*
X132080000Y-114046000D02*
X132080000Y-112014000D01*
X129540000Y-116586000D02*
X129794000Y-116840000D01*
X129540000Y-112014000D02*
X129540000Y-114046000D01*
X129794000Y-111760000D02*
X129540000Y-112014000D01*
X132080000Y-112014000D02*
X131826000Y-111760000D01*
X154940000Y-71120000D02*
X157480000Y-71120000D01*
X157226000Y-76200000D02*
X157480000Y-76454000D01*
X157480000Y-75946000D02*
X157226000Y-76200000D01*
X157480000Y-73406000D02*
X157480000Y-71628000D01*
X157226000Y-73660000D02*
X157480000Y-73406000D01*
X157480000Y-73914000D02*
X157226000Y-73660000D01*
X157480000Y-75946000D02*
X157480000Y-73914000D01*
X157480000Y-71628000D02*
X157480000Y-71120000D01*
X157480000Y-71374000D02*
X157226000Y-71120000D01*
X155194000Y-71120000D02*
X154940000Y-71374000D01*
X157480000Y-78486000D02*
X157480000Y-76454000D01*
X157226000Y-78740000D02*
X157480000Y-78486000D01*
X157480000Y-81534000D02*
X157226000Y-81280000D01*
X157480000Y-81026000D02*
X157480000Y-78994000D01*
X157226000Y-81280000D02*
X157480000Y-81026000D01*
X154940000Y-81026000D02*
X155194000Y-81280000D01*
X154940000Y-78994000D02*
X154940000Y-81026000D01*
X155194000Y-78740000D02*
X154940000Y-78994000D01*
X154940000Y-78486000D02*
X155194000Y-78740000D01*
X154940000Y-76454000D02*
X154940000Y-78486000D01*
X155194000Y-76200000D02*
X154940000Y-76454000D01*
X154940000Y-75946000D02*
X155194000Y-76200000D01*
X154940000Y-73914000D02*
X154940000Y-75946000D01*
X155194000Y-73660000D02*
X154940000Y-73914000D01*
X154940000Y-73406000D02*
X155194000Y-73660000D01*
X154940000Y-71374000D02*
X154940000Y-73406000D01*
X154940000Y-71120000D02*
X154940000Y-71374000D01*
X155194000Y-81280000D02*
X154940000Y-81534000D01*
X154940000Y-81534000D02*
X154940000Y-83566000D01*
X154940000Y-86106000D02*
X155194000Y-86360000D01*
X157480000Y-83566000D02*
X157480000Y-81534000D01*
X157480000Y-78994000D02*
X157226000Y-78740000D01*
X157226000Y-86360000D02*
X157480000Y-86106000D01*
X154940000Y-84074000D02*
X154940000Y-86106000D01*
X155194000Y-83820000D02*
X154940000Y-84074000D01*
X157480000Y-86106000D02*
X157480000Y-84074000D01*
X157226000Y-83820000D02*
X157480000Y-83566000D01*
X157480000Y-84074000D02*
X157226000Y-83820000D01*
X154940000Y-83566000D02*
X155194000Y-83820000D01*
X154940000Y-86106000D02*
X155194000Y-86360000D01*
X157226000Y-86360000D02*
X157480000Y-86106000D01*
X157480000Y-86106000D02*
X157480000Y-84074000D01*
X154940000Y-84074000D02*
X154940000Y-86106000D01*
X155194000Y-83820000D02*
X154940000Y-84074000D01*
X157480000Y-84074000D02*
X157226000Y-83820000D01*
X157480000Y-89154000D02*
X157226000Y-88900000D01*
X155194000Y-88900000D02*
X154940000Y-89154000D01*
X154940000Y-89154000D02*
X154940000Y-91186000D01*
X157480000Y-91186000D02*
X157480000Y-89154000D01*
X157226000Y-91440000D02*
X157480000Y-91186000D01*
X154940000Y-91186000D02*
X155194000Y-91440000D01*
X154940000Y-88646000D02*
X155194000Y-88900000D01*
X157480000Y-89154000D02*
X157226000Y-88900000D01*
X157226000Y-88900000D02*
X157480000Y-88646000D01*
X157480000Y-91186000D02*
X157480000Y-89154000D01*
X155194000Y-88900000D02*
X154940000Y-89154000D01*
X154940000Y-89154000D02*
X154940000Y-91186000D01*
X157226000Y-91440000D02*
X157480000Y-91186000D01*
X157480000Y-88646000D02*
X157480000Y-86614000D01*
X154940000Y-91186000D02*
X155194000Y-91440000D01*
X154940000Y-86614000D02*
X154940000Y-88646000D01*
X155194000Y-86360000D02*
X154940000Y-86614000D01*
X157480000Y-86614000D02*
X157226000Y-86360000D01*
X157480000Y-91694000D02*
X157226000Y-91440000D01*
X155194000Y-91440000D02*
X154940000Y-91694000D01*
X154940000Y-91694000D02*
X154940000Y-93726000D01*
X154940000Y-96266000D02*
X155194000Y-96520000D01*
X157480000Y-93726000D02*
X157480000Y-91694000D01*
X157226000Y-96520000D02*
X157480000Y-96266000D01*
X154940000Y-94234000D02*
X154940000Y-96266000D01*
X155194000Y-93980000D02*
X154940000Y-94234000D01*
X157480000Y-96266000D02*
X157480000Y-94234000D01*
X157226000Y-93980000D02*
X157480000Y-93726000D01*
X157480000Y-94234000D02*
X157226000Y-93980000D01*
X154940000Y-93726000D02*
X155194000Y-93980000D01*
X154940000Y-96266000D02*
X155194000Y-96520000D01*
X157226000Y-96520000D02*
X157480000Y-96266000D01*
X157480000Y-96266000D02*
X157480000Y-94234000D01*
X154940000Y-94234000D02*
X154940000Y-96266000D01*
X155194000Y-93980000D02*
X154940000Y-94234000D01*
X157480000Y-94234000D02*
X157226000Y-93980000D01*
X157480000Y-99314000D02*
X157226000Y-99060000D01*
X155194000Y-99060000D02*
X154940000Y-99314000D01*
X154940000Y-99314000D02*
X154940000Y-101346000D01*
X157480000Y-101346000D02*
X157480000Y-99314000D01*
X157226000Y-101600000D02*
X157480000Y-101346000D01*
X154940000Y-101346000D02*
X155194000Y-101600000D01*
X154940000Y-98806000D02*
X155194000Y-99060000D01*
X157480000Y-99314000D02*
X157226000Y-99060000D01*
X157226000Y-99060000D02*
X157480000Y-98806000D01*
X157480000Y-101346000D02*
X157480000Y-99314000D01*
X155194000Y-99060000D02*
X154940000Y-99314000D01*
X154940000Y-99314000D02*
X154940000Y-101346000D01*
X157226000Y-101600000D02*
X157480000Y-101346000D01*
X157480000Y-98806000D02*
X157480000Y-96774000D01*
X154940000Y-101346000D02*
X155194000Y-101600000D01*
X154940000Y-96774000D02*
X154940000Y-98806000D01*
X155194000Y-96520000D02*
X154940000Y-96774000D01*
X157480000Y-96774000D02*
X157226000Y-96520000D01*
X157480000Y-101854000D02*
X157226000Y-101600000D01*
X155194000Y-101600000D02*
X154940000Y-101854000D01*
X154940000Y-101854000D02*
X154940000Y-103886000D01*
X154940000Y-106426000D02*
X155194000Y-106680000D01*
X157480000Y-103886000D02*
X157480000Y-101854000D01*
X157226000Y-106680000D02*
X157480000Y-106426000D01*
X154940000Y-104394000D02*
X154940000Y-106426000D01*
X155194000Y-104140000D02*
X154940000Y-104394000D01*
X157480000Y-106426000D02*
X157480000Y-104394000D01*
X157226000Y-104140000D02*
X157480000Y-103886000D01*
X157480000Y-104394000D02*
X157226000Y-104140000D01*
X154940000Y-103886000D02*
X155194000Y-104140000D01*
X154940000Y-106426000D02*
X155194000Y-106680000D01*
X157226000Y-106680000D02*
X157480000Y-106426000D01*
X157480000Y-106426000D02*
X157480000Y-104394000D01*
X154940000Y-104394000D02*
X154940000Y-106426000D01*
X155194000Y-104140000D02*
X154940000Y-104394000D01*
X157480000Y-104394000D02*
X157226000Y-104140000D01*
X157480000Y-109474000D02*
X157226000Y-109220000D01*
X155194000Y-109220000D02*
X154940000Y-109474000D01*
X154940000Y-109474000D02*
X154940000Y-111506000D01*
X157480000Y-111506000D02*
X157480000Y-109474000D01*
X157226000Y-111760000D02*
X157480000Y-111506000D01*
X154940000Y-111506000D02*
X155194000Y-111760000D01*
X154940000Y-108966000D02*
X155194000Y-109220000D01*
X157480000Y-109474000D02*
X157226000Y-109220000D01*
X157226000Y-109220000D02*
X157480000Y-108966000D01*
X157480000Y-111506000D02*
X157480000Y-109474000D01*
X155194000Y-109220000D02*
X154940000Y-109474000D01*
X154940000Y-109474000D02*
X154940000Y-111506000D01*
X157226000Y-111760000D02*
X157480000Y-111506000D01*
X157480000Y-108966000D02*
X157480000Y-106934000D01*
X154940000Y-111506000D02*
X155194000Y-111760000D01*
X154940000Y-106934000D02*
X154940000Y-108966000D01*
X155194000Y-106680000D02*
X154940000Y-106934000D01*
X157480000Y-106934000D02*
X157226000Y-106680000D01*
X157480000Y-117094000D02*
X157226000Y-116840000D01*
X155194000Y-116840000D02*
X154940000Y-117094000D01*
X154940000Y-117094000D02*
X154940000Y-119126000D01*
X154940000Y-119126000D02*
X155194000Y-119380000D01*
X157480000Y-119126000D02*
X157480000Y-117094000D01*
X157226000Y-119380000D02*
X157480000Y-119126000D01*
X155194000Y-119380000D02*
X157226000Y-119380000D01*
X154940000Y-119126000D02*
X155194000Y-119380000D01*
X157226000Y-119380000D02*
X157480000Y-119126000D01*
X157480000Y-114554000D02*
X157226000Y-114300000D01*
X155194000Y-114300000D02*
X154940000Y-114554000D01*
X154940000Y-114554000D02*
X154940000Y-116586000D01*
X157480000Y-116586000D02*
X157480000Y-114554000D01*
X157226000Y-116840000D02*
X157480000Y-116586000D01*
X154940000Y-116586000D02*
X155194000Y-116840000D01*
X154940000Y-114046000D02*
X155194000Y-114300000D01*
X157480000Y-114554000D02*
X157226000Y-114300000D01*
X157226000Y-114300000D02*
X157480000Y-114046000D01*
X157480000Y-116586000D02*
X157480000Y-114554000D01*
X155194000Y-114300000D02*
X154940000Y-114554000D01*
X154940000Y-114554000D02*
X154940000Y-116586000D01*
X157226000Y-116840000D02*
X157480000Y-116586000D01*
X157480000Y-114046000D02*
X157480000Y-112014000D01*
X154940000Y-116586000D02*
X155194000Y-116840000D01*
X154940000Y-112014000D02*
X154940000Y-114046000D01*
X155194000Y-111760000D02*
X154940000Y-112014000D01*
X157480000Y-112014000D02*
X157226000Y-111760000D01*
D18*
X141302740Y-88856820D02*
X142725140Y-88305640D01*
D19*
X141488160Y-89202260D02*
X141282420Y-88884760D01*
D20*
X140939520Y-89992200D02*
X141470380Y-89212420D01*
D21*
X141478000Y-90568780D02*
X140939520Y-90004900D01*
D19*
X141478000Y-90553540D02*
X142311120Y-90020140D01*
X143238220Y-90378280D02*
X142354300Y-90020140D01*
X143479520Y-91356180D02*
X143261080Y-90406220D01*
D21*
X144256760Y-91346020D02*
X143469360Y-91351100D01*
D19*
X144269460Y-91358720D02*
X144449800Y-90340180D01*
X144485360Y-90309700D02*
X145351500Y-89961720D01*
X146253200Y-90538300D02*
X145402300Y-89982040D01*
D21*
X146276060Y-90548460D02*
X146809460Y-90048080D01*
D19*
X146834860Y-89999820D02*
X146182080Y-89171780D01*
X146192240Y-89110820D02*
X146598640Y-88265000D01*
X147632420Y-88005920D02*
X146618960Y-88211660D01*
X147645120Y-88013540D02*
X147645120Y-87228680D01*
X147624800Y-87246460D02*
X146606260Y-87033100D01*
X146606260Y-87033100D02*
X146156680Y-86131400D01*
X146161760Y-86118700D02*
X146796200Y-85214460D01*
X146794220Y-85214460D02*
X146248120Y-84660740D01*
X146245580Y-84660740D02*
X145455640Y-85277960D01*
X145455640Y-85277960D02*
X144518380Y-84937600D01*
X144518380Y-84937600D02*
X144289780Y-83855560D01*
X144289780Y-83855560D02*
X143454120Y-83855560D01*
X143454120Y-83855560D02*
X143283940Y-84869020D01*
X143283940Y-84869020D02*
X142372080Y-85275420D01*
X140924280Y-85224620D02*
X141490700Y-86060280D01*
X141490700Y-86060280D02*
X141305280Y-86398100D01*
X141305280Y-86398100D02*
X142745460Y-86972140D01*
X142748000Y-86961980D02*
G75*
G02X144612360Y-86591140I1117600J-746760D01*
G01*
X144597120Y-86580980D02*
G75*
G02X144795240Y-88506300I-863600J-1061720D01*
G01*
X144769840Y-88531700D02*
G75*
G02X142915640Y-88455500I-889000J965200D01*
G01*
X142372080Y-85275420D02*
X141485620Y-84655660D01*
X140931900Y-85209380D02*
X141478000Y-84655660D01*
D17*
X141122400Y-88775540D02*
X142791180Y-88125300D01*
X141325600Y-89159080D02*
X141104620Y-88813640D01*
X141335760Y-89171780D02*
X140771880Y-89997280D01*
X140764260Y-90004900D02*
X141457680Y-90726260D01*
X141460220Y-90733880D02*
X142323820Y-90136980D01*
X143367760Y-91495880D02*
X143172180Y-90424000D01*
X144360900Y-91495880D02*
X143375380Y-91495880D01*
X144363440Y-91498420D02*
X144566640Y-90327480D01*
X144561560Y-90429080D02*
X145394680Y-90093800D01*
X146245580Y-90690700D02*
X145392140Y-90096340D01*
X146281140Y-90711020D02*
X146994880Y-90037920D01*
X146997420Y-90025220D02*
X146281140Y-89054940D01*
X146349720Y-89090500D02*
X146728180Y-88186260D01*
X147744180Y-88102440D02*
X146718020Y-88303100D01*
X147751800Y-88092280D02*
X147751800Y-87127080D01*
X147751800Y-87127080D02*
X146580860Y-86901020D01*
X146662140Y-86911180D02*
X146324320Y-86106000D01*
X146276060Y-86225380D02*
X146949160Y-85214460D01*
X146951700Y-85209380D02*
X146260820Y-84515960D01*
X146253200Y-84510880D02*
X145262600Y-85214460D01*
X145371820Y-85125560D02*
X144503140Y-84759800D01*
X143601440Y-83822540D02*
X143377920Y-84929980D01*
X144343120Y-83738720D02*
X143385540Y-83741260D01*
X143154400Y-84876640D02*
X143365220Y-83753960D01*
X143187420Y-84772500D02*
X142206980Y-85153500D01*
X141551660Y-84805520D02*
X141020800Y-85290660D01*
X140776960Y-85201760D02*
X141467840Y-84518500D01*
X141391640Y-86088220D02*
X140771880Y-85211920D01*
X141086840Y-85224620D02*
X141615160Y-86045040D01*
X141419580Y-85907880D02*
X141091920Y-86436200D01*
X141091920Y-86436200D02*
X142072360Y-86822280D01*
X142770860Y-86827360D02*
X141389100Y-86299040D01*
X144172940Y-91203780D02*
X143522700Y-91203780D01*
X144117060Y-91346020D02*
X144363440Y-90230960D01*
X145384520Y-89816940D02*
X144386300Y-90203020D01*
X145379440Y-89811860D02*
X146288760Y-90413840D01*
X146733260Y-90055700D02*
X146011900Y-89171780D01*
X142712440Y-86784180D02*
X142834360Y-86606380D01*
X142834360Y-86606380D02*
X143545560Y-86230460D01*
X143545560Y-86230460D02*
X144063720Y-86230460D01*
X144051020Y-86225380D02*
X144724120Y-86459060D01*
X144724120Y-86459060D02*
X145153380Y-86969600D01*
X145153380Y-86969600D02*
X145313400Y-87784940D01*
X145321020Y-87784940D02*
X144891760Y-88656160D01*
X144891760Y-88656160D02*
X144160240Y-89075260D01*
X144155160Y-89080340D02*
X143332200Y-88948260D01*
X143301720Y-88943180D02*
X143131540Y-88849200D01*
X143301720Y-88943180D02*
X143131540Y-88849200D01*
X143080740Y-88719660D02*
X142742920Y-88460580D01*
X142966440Y-88351360D02*
X142791180Y-88125300D01*
X142963900Y-86850220D02*
X142798800Y-87104220D01*
X142509240Y-86987380D02*
X142793720Y-87109300D01*
X146014440Y-89166700D02*
X146507200Y-88183720D01*
X143101060Y-88836500D02*
X142834360Y-88529160D01*
D22*
X141671040Y-89852500D02*
X142692120Y-88999060D01*
X143875760Y-90888820D02*
X143936720Y-89471500D01*
X146161760Y-89903300D02*
X145054320Y-88841580D01*
X147137120Y-87642700D02*
X145623280Y-87637620D01*
X146080480Y-85377020D02*
X145013680Y-86489540D01*
X143896080Y-84386420D02*
X143809720Y-85854540D01*
X141843760Y-89176860D02*
X142605760Y-88811100D01*
X142742920Y-89842340D02*
X143222980Y-89278460D01*
X143388080Y-90091260D02*
X143515080Y-89385140D01*
X144632680Y-89766140D02*
X144472660Y-89324180D01*
X145112740Y-89590880D02*
X144823180Y-89133680D01*
X145889980Y-88592660D02*
X145531840Y-88417400D01*
X146149060Y-88158320D02*
X145539460Y-87990680D01*
X146133820Y-86893400D02*
X145448020Y-87114380D01*
X145882360Y-86306660D02*
X145295620Y-86725760D01*
X145013680Y-85437980D02*
X144647920Y-86093300D01*
X144320260Y-85196680D02*
X144172940Y-85918040D01*
X143162020Y-86032340D02*
X143055340Y-85422740D01*
X142742920Y-86352380D02*
X142415260Y-85735160D01*
X142605760Y-86466680D02*
X141592300Y-85285580D01*
X142697200Y-86466680D02*
X141965680Y-86133940D01*
D17*
X141274000Y-71580000D02*
X140512000Y-71580000D01*
X141274000Y-76152000D02*
X141274000Y-71580000D01*
X140512000Y-76152000D02*
X141274000Y-76152000D01*
X140512000Y-71580000D02*
X140512000Y-76152000D01*
X141223200Y-71630800D02*
X141223200Y-76050400D01*
X141121600Y-76101200D02*
X141121600Y-71630800D01*
X140969200Y-71630800D02*
X140969200Y-76050400D01*
X140816800Y-71630800D02*
X140816800Y-76050400D01*
X141070800Y-76101200D02*
X141070800Y-71681600D01*
X140918400Y-76101200D02*
X140918400Y-71630800D01*
X140715200Y-71681600D02*
X140715200Y-76050400D01*
X140613600Y-76101200D02*
X140613600Y-71681600D01*
D10*
X146050000Y-75946000D02*
X141859000Y-71755000D01*
X141986000Y-75819000D02*
X145923000Y-71755000D01*
X142367000Y-74803000D02*
X142367000Y-73406000D01*
X142367000Y-74803000D02*
X145415000Y-75057000D01*
X145542000Y-75311000D02*
X145542000Y-72390000D01*
X141986000Y-74295000D02*
X142240000Y-74295000D01*
X141986000Y-74803000D02*
X141986000Y-74295000D01*
X142367000Y-74803000D02*
X141986000Y-74803000D01*
X142875000Y-72898000D02*
X144907000Y-72771000D01*
X142768609Y-72898000D02*
G75*
G03X142768609Y-72898000I-401609J0D01*
G01*
X146177000Y-74676000D02*
X145669000Y-74676000D01*
X146177000Y-74803000D02*
X146177000Y-74676000D01*
X145669000Y-74803000D02*
X146177000Y-74803000D01*
X145034000Y-72390000D02*
X145542000Y-72390000D01*
X145034000Y-72771000D02*
X145034000Y-72390000D01*
X145542000Y-72771000D02*
X145034000Y-72771000D01*
X145415000Y-72644000D02*
X145288000Y-72644000D01*
X145542000Y-72644000D02*
X145161000Y-72517000D01*
X145415000Y-72644000D02*
X145288000Y-72644000D01*
X145415000Y-72517000D02*
X145034000Y-72517000D01*
X145415000Y-72644000D02*
X145415000Y-72517000D01*
X145034000Y-72644000D02*
X145415000Y-72644000D01*
X144653000Y-74041000D02*
X145034000Y-74041000D01*
X144653000Y-73152000D02*
X144653000Y-74041000D01*
X145034000Y-73152000D02*
X144653000Y-73152000D01*
X145034000Y-74041000D02*
X145034000Y-73152000D01*
X144907000Y-73914000D02*
X144907000Y-73279000D01*
X146431000Y-73660000D02*
X146431000Y-74041000D01*
X146304000Y-73660000D02*
X146431000Y-73660000D01*
X146304000Y-74041000D02*
X146304000Y-73660000D01*
X146431000Y-74041000D02*
X146304000Y-74041000D01*
X145669000Y-72771000D02*
G75*
G02X145669000Y-75057000I-1143000J-1143000D01*
G01*
D23*
X142494000Y-72898000D02*
G75*
G03X142494000Y-72898000I-127000J0D01*
G01*
D20*
X142831447Y-110096300D02*
G75*
G03X142831447Y-110096300I-337447J0D01*
G01*
D24*
X143268700Y-110109000D02*
X143776700Y-109601000D01*
X143852900Y-108508800D02*
X143243300Y-107873800D01*
X141287500Y-107899200D02*
X140703300Y-108458000D01*
X140690600Y-106273600D02*
X141147800Y-106730800D01*
X140690600Y-105287800D02*
X140690600Y-106273600D01*
D20*
X141082324Y-104775000D02*
G75*
G03X141082324Y-104775000I-366324J0D01*
G01*
D24*
X143408400Y-104775000D02*
X141808200Y-104775000D01*
D20*
X144315318Y-104762300D02*
G75*
G03X144315318Y-104762300I-373518J0D01*
G01*
X141101059Y-103543100D02*
G75*
G03X141101059Y-103543100I-359659J0D01*
G01*
D24*
X141249400Y-103555800D02*
X143840200Y-103555800D01*
X143840200Y-103555800D02*
X143840200Y-102717600D01*
X143840200Y-102717600D02*
X143332200Y-102108000D01*
X142544800Y-102006400D02*
X143256000Y-102006400D01*
X143332200Y-101930200D02*
X143840200Y-101295200D01*
D20*
X142382318Y-102006400D02*
G75*
G03X142382318Y-102006400I-370918J0D01*
G01*
D24*
X143840200Y-101295200D02*
X143840200Y-100406200D01*
D20*
X141091929Y-100393500D02*
G75*
G03X141091929Y-100393500I-363229J0D01*
G01*
X140969266Y-94564200D02*
G75*
G03X140969266Y-94564200I-329466J0D01*
G01*
D24*
X140995400Y-94894400D02*
X141808200Y-95732600D01*
D25*
X141909800Y-96240600D02*
X141909800Y-95707200D01*
D24*
X140690600Y-97383600D02*
X141808200Y-96240600D01*
X140690600Y-98704400D02*
X140690600Y-97383600D01*
X141122400Y-99136200D02*
X140690600Y-98704400D01*
X143357600Y-99136200D02*
X141122400Y-99136200D01*
X143383000Y-99136200D02*
X143891000Y-98653600D01*
X143865600Y-98605500D02*
X143865600Y-97383600D01*
X143865600Y-97383600D02*
X142798800Y-96291400D01*
D25*
X142684500Y-96266000D02*
X142684500Y-95707200D01*
D24*
X143675100Y-94843600D02*
X142781400Y-95707200D01*
D20*
X144390135Y-94475300D02*
G75*
G03X144390135Y-94475300I-359435J0D01*
G01*
D24*
X142290800Y-97917000D02*
X142290800Y-99136200D01*
D20*
X142650459Y-97409000D02*
G75*
G03X142650459Y-97409000I-359659J0D01*
G01*
D24*
X140677900Y-109537500D02*
X140677900Y-108496100D01*
X141236700Y-110096300D02*
X141998700Y-110096300D01*
X141249400Y-110109000D02*
X140677900Y-109524800D01*
X143217900Y-110109000D02*
X142976600Y-110109000D01*
X143256000Y-107886500D02*
X141325600Y-107886500D01*
X143865600Y-108508800D02*
X143865600Y-109512100D01*
X143852900Y-100393500D02*
X141249400Y-100393500D01*
X141135100Y-106730800D02*
X143865600Y-106730800D01*
D26*
X144208500Y-106730800D02*
X144208500Y-107010200D01*
X144208500Y-107035600D02*
X141058900Y-107035600D01*
X144208500Y-107022900D02*
X144208500Y-107035600D01*
X144208500Y-107010200D02*
X144208500Y-107022900D01*
X144119600Y-106895900D02*
X144132300Y-106959400D01*
X144208500Y-106413300D02*
X141173200Y-106413300D01*
X144208500Y-106718100D02*
X144208500Y-106413300D01*
X144132300Y-106591100D02*
X144132300Y-106476800D01*
X143522700Y-105092500D02*
X141503400Y-105092500D01*
X141503400Y-104457500D02*
X143522700Y-104457500D01*
X141503400Y-104482900D02*
X141503400Y-104457500D01*
X141503400Y-105092500D02*
X141503400Y-104482900D01*
X141566900Y-104952800D02*
X141566900Y-105016300D01*
X141566900Y-104609900D02*
X141566900Y-104521000D01*
X141160500Y-103873300D02*
X144145000Y-103873300D01*
X144157700Y-102628700D02*
X143675100Y-102044500D01*
X144157700Y-103873300D02*
X144157700Y-102628700D01*
X144094200Y-103720900D02*
X144094200Y-103797100D01*
X141135100Y-100063300D02*
X144145000Y-100063300D01*
X144157700Y-101384100D02*
X143662400Y-102006400D01*
X144157700Y-101358700D02*
X144157700Y-101384100D01*
X144157700Y-100063300D02*
X144157700Y-101358700D01*
X144145000Y-100063300D02*
X144157700Y-100063300D01*
X144081500Y-100215700D02*
X144081500Y-100114100D01*
X144195800Y-97269300D02*
X142951200Y-96012000D01*
X144195800Y-97320100D02*
X144195800Y-97269300D01*
X144195800Y-98691700D02*
X144195800Y-97320100D01*
D16*
X135509000Y-79629000D02*
G75*
G02X135763000Y-79883000I0J-254000D01*
G01*
X134239000Y-79883000D02*
G75*
G02X134493000Y-79629000I254000J0D01*
G01*
X134493000Y-80645000D02*
G75*
G02X134239000Y-80391000I0J254000D01*
G01*
X135763000Y-80391000D02*
G75*
G02X135509000Y-80645000I-254000J0D01*
G01*
D17*
X135763000Y-79883000D02*
X135763000Y-80391000D01*
X135509000Y-80645000D02*
X134493000Y-80645000D01*
X134239000Y-80391000D02*
X134239000Y-79883000D01*
X134493000Y-79629000D02*
X135509000Y-79629000D01*
D16*
X135509000Y-77089000D02*
G75*
G02X135763000Y-77343000I0J-254000D01*
G01*
X134239000Y-77343000D02*
G75*
G02X134493000Y-77089000I254000J0D01*
G01*
X134493000Y-78105000D02*
G75*
G02X134239000Y-77851000I0J254000D01*
G01*
X135763000Y-77851000D02*
G75*
G02X135509000Y-78105000I-254000J0D01*
G01*
D17*
X135763000Y-77343000D02*
X135763000Y-77851000D01*
X135509000Y-78105000D02*
X134493000Y-78105000D01*
X134239000Y-77851000D02*
X134239000Y-77343000D01*
X134493000Y-77089000D02*
X135509000Y-77089000D01*
D23*
X153352500Y-118899214D02*
X153279928Y-118923404D01*
X153255738Y-118947595D01*
X153231547Y-118995976D01*
X153231547Y-119068547D01*
X153255738Y-119116928D01*
X153279928Y-119141119D01*
X153328309Y-119165309D01*
X153521833Y-119165309D01*
X153521833Y-118657309D01*
X153352500Y-118657309D01*
X153304119Y-118681500D01*
X153279928Y-118705690D01*
X153255738Y-118754071D01*
X153255738Y-118802452D01*
X153279928Y-118850833D01*
X153304119Y-118875023D01*
X153352500Y-118899214D01*
X153521833Y-118899214D01*
X153038023Y-119020166D02*
X152796119Y-119020166D01*
X153086404Y-119165309D02*
X152917071Y-118657309D01*
X152747738Y-119165309D01*
X152650976Y-118657309D02*
X152360690Y-118657309D01*
X152505833Y-119165309D02*
X152505833Y-118657309D01*
X152312309Y-119213690D02*
X151925261Y-119213690D01*
X151804309Y-119165309D02*
X151804309Y-118657309D01*
X151610785Y-118657309D01*
X151562404Y-118681500D01*
X151538214Y-118705690D01*
X151514023Y-118754071D01*
X151514023Y-118826642D01*
X151538214Y-118875023D01*
X151562404Y-118899214D01*
X151610785Y-118923404D01*
X151804309Y-118923404D01*
X151344690Y-118657309D02*
X151223738Y-119165309D01*
X151126976Y-118802452D01*
X151030214Y-119165309D01*
X150909261Y-118657309D01*
X150425452Y-119165309D02*
X150594785Y-118923404D01*
X150715738Y-119165309D02*
X150715738Y-118657309D01*
X150522214Y-118657309D01*
X150473833Y-118681500D01*
X150449642Y-118705690D01*
X150425452Y-118754071D01*
X150425452Y-118826642D01*
X150449642Y-118875023D01*
X150473833Y-118899214D01*
X150522214Y-118923404D01*
X150715738Y-118923404D01*
X150328690Y-119213690D02*
X149941642Y-119213690D01*
X149820690Y-118899214D02*
X149651357Y-118899214D01*
X149578785Y-119165309D02*
X149820690Y-119165309D01*
X149820690Y-118657309D01*
X149578785Y-118657309D01*
X149094976Y-119165309D02*
X149385261Y-119165309D01*
X149240119Y-119165309D02*
X149240119Y-118657309D01*
X149288500Y-118729880D01*
X149336880Y-118778261D01*
X149385261Y-118802452D01*
X154427551Y-119129051D02*
X154786762Y-118769841D01*
X154701235Y-118684315D01*
X154632814Y-118650104D01*
X154564393Y-118650104D01*
X154513078Y-118667209D01*
X154427551Y-118718525D01*
X154376236Y-118769841D01*
X154324920Y-118855367D01*
X154307815Y-118906683D01*
X154307815Y-118975104D01*
X154342025Y-119043525D01*
X154427551Y-119129051D01*
X154119657Y-118889578D02*
X153845973Y-118615894D01*
X153623605Y-118256683D02*
X153623605Y-118290894D01*
X153657815Y-118359315D01*
X153692026Y-118393525D01*
X153760447Y-118427736D01*
X153828868Y-118427736D01*
X153880183Y-118410631D01*
X153965710Y-118359315D01*
X154017025Y-118307999D01*
X154068341Y-118222473D01*
X154085446Y-118171157D01*
X154085446Y-118102736D01*
X154051236Y-118034315D01*
X154017025Y-118000105D01*
X153948604Y-117965894D01*
X153914394Y-117965894D01*
X153384131Y-118085631D02*
X153435447Y-118102736D01*
X153469658Y-118102736D01*
X153520973Y-118085631D01*
X153623605Y-117982999D01*
X153640710Y-117931684D01*
X153640710Y-117897473D01*
X153623605Y-117846158D01*
X153572289Y-117794842D01*
X153520973Y-117777737D01*
X153486763Y-117777737D01*
X153435447Y-117794842D01*
X153332816Y-117897473D01*
X153315710Y-117948789D01*
X153315710Y-117982999D01*
X153332816Y-118034315D01*
X153384131Y-118085631D01*
X153110447Y-117811947D02*
X153349921Y-117572474D01*
X153315710Y-117606684D02*
X153315710Y-117572474D01*
X153298605Y-117521158D01*
X153247289Y-117469842D01*
X153195974Y-117452737D01*
X153144658Y-117469842D01*
X152956500Y-117658000D01*
X153144658Y-117469842D02*
X153161763Y-117418526D01*
X153144658Y-117367211D01*
X153093342Y-117315895D01*
X153042026Y-117298790D01*
X152990711Y-117315895D01*
X152802553Y-117504053D01*
X152443343Y-117144842D02*
X152648606Y-117350105D01*
X152545974Y-117247474D02*
X152905184Y-116888264D01*
X152888079Y-116973790D01*
X152888079Y-117042211D01*
X152905184Y-117093527D01*
D10*
X139409714Y-75625476D02*
X139409714Y-75202142D01*
X138744476Y-75020714D02*
X138744476Y-75625476D01*
X140014476Y-75625476D01*
X140014476Y-75020714D01*
X140014476Y-74597380D02*
X138744476Y-73750714D01*
X140014476Y-73750714D02*
X138744476Y-74597380D01*
X140014476Y-73448333D02*
X140014476Y-72722619D01*
X138744476Y-73085476D02*
X140014476Y-73085476D01*
X138744476Y-71634047D02*
X138744476Y-72359761D01*
X138744476Y-71996904D02*
X140014476Y-71996904D01*
X139833047Y-72117857D01*
X139712095Y-72238809D01*
X139651619Y-72359761D01*
X147664714Y-75625476D02*
X147664714Y-75202142D01*
X146999476Y-75020714D02*
X146999476Y-75625476D01*
X148269476Y-75625476D01*
X148269476Y-75020714D01*
X148269476Y-74597380D02*
X146999476Y-73750714D01*
X148269476Y-73750714D02*
X146999476Y-74597380D01*
X148269476Y-73448333D02*
X148269476Y-72722619D01*
X146999476Y-73085476D02*
X148269476Y-73085476D01*
X148148523Y-72359761D02*
X148209000Y-72299285D01*
X148269476Y-72178333D01*
X148269476Y-71875952D01*
X148209000Y-71755000D01*
X148148523Y-71694523D01*
X148027571Y-71634047D01*
X147906619Y-71634047D01*
X147725190Y-71694523D01*
X146999476Y-72420238D01*
X146999476Y-71634047D01*
X139090620Y-92576298D02*
X139143001Y-92681060D01*
X139195382Y-92733440D01*
X139300144Y-92785821D01*
X139614430Y-92785821D01*
X139719192Y-92733440D01*
X139771573Y-92681060D01*
X139823954Y-92576298D01*
X139823954Y-92419155D01*
X139771573Y-92314393D01*
X139719192Y-92262012D01*
X139614430Y-92209631D01*
X139300144Y-92209631D01*
X139195382Y-92262012D01*
X139143001Y-92314393D01*
X139090620Y-92419155D01*
X139090620Y-92576298D01*
X139823954Y-91738202D02*
X138723954Y-91738202D01*
X139771573Y-91738202D02*
X139823954Y-91633440D01*
X139823954Y-91423917D01*
X139771573Y-91319155D01*
X139719192Y-91266774D01*
X139614430Y-91214393D01*
X139300144Y-91214393D01*
X139195382Y-91266774D01*
X139143001Y-91319155D01*
X139090620Y-91423917D01*
X139090620Y-91633440D01*
X139143001Y-91738202D01*
X139143001Y-90323917D02*
X139090620Y-90428679D01*
X139090620Y-90638202D01*
X139143001Y-90742964D01*
X139247763Y-90795345D01*
X139666811Y-90795345D01*
X139771573Y-90742964D01*
X139823954Y-90638202D01*
X139823954Y-90428679D01*
X139771573Y-90323917D01*
X139666811Y-90271536D01*
X139562049Y-90271536D01*
X139457287Y-90795345D01*
X139823954Y-89800107D02*
X139090620Y-89800107D01*
X139719192Y-89800107D02*
X139771573Y-89747726D01*
X139823954Y-89642964D01*
X139823954Y-89485821D01*
X139771573Y-89381060D01*
X139666811Y-89328679D01*
X139090620Y-89328679D01*
D27*
X139044419Y-88260797D02*
X140044419Y-88260797D01*
X139044419Y-87832225D02*
X139568228Y-87832225D01*
X139663466Y-87879844D01*
X139711085Y-87975082D01*
X139711085Y-88117940D01*
X139663466Y-88213178D01*
X139615847Y-88260797D01*
X139044419Y-86927463D02*
X139568228Y-86927463D01*
X139663466Y-86975082D01*
X139711085Y-87070320D01*
X139711085Y-87260797D01*
X139663466Y-87356035D01*
X139092038Y-86927463D02*
X139044419Y-87022701D01*
X139044419Y-87260797D01*
X139092038Y-87356035D01*
X139187276Y-87403654D01*
X139282514Y-87403654D01*
X139377752Y-87356035D01*
X139425371Y-87260797D01*
X139425371Y-87022701D01*
X139472990Y-86927463D01*
X139044419Y-86451273D02*
X139711085Y-86451273D01*
X139520609Y-86451273D02*
X139615847Y-86403654D01*
X139663466Y-86356035D01*
X139711085Y-86260797D01*
X139711085Y-86165559D01*
X139044419Y-85403654D02*
X140044419Y-85403654D01*
X139092038Y-85403654D02*
X139044419Y-85498892D01*
X139044419Y-85689368D01*
X139092038Y-85784606D01*
X139139657Y-85832225D01*
X139234895Y-85879844D01*
X139520609Y-85879844D01*
X139615847Y-85832225D01*
X139663466Y-85784606D01*
X139711085Y-85689368D01*
X139711085Y-85498892D01*
X139663466Y-85403654D01*
X139711085Y-85022701D02*
X139044419Y-84832225D01*
X139520609Y-84641749D01*
X139044419Y-84451273D01*
X139711085Y-84260797D01*
X139044419Y-83451273D02*
X139568228Y-83451273D01*
X139663466Y-83498892D01*
X139711085Y-83594130D01*
X139711085Y-83784606D01*
X139663466Y-83879844D01*
X139092038Y-83451273D02*
X139044419Y-83546511D01*
X139044419Y-83784606D01*
X139092038Y-83879844D01*
X139187276Y-83927463D01*
X139282514Y-83927463D01*
X139377752Y-83879844D01*
X139425371Y-83784606D01*
X139425371Y-83546511D01*
X139472990Y-83451273D01*
X139044419Y-82975082D02*
X139711085Y-82975082D01*
X139520609Y-82975082D02*
X139615847Y-82927463D01*
X139663466Y-82879844D01*
X139711085Y-82784606D01*
X139711085Y-82689368D01*
X139092038Y-81975082D02*
X139044419Y-82070320D01*
X139044419Y-82260797D01*
X139092038Y-82356035D01*
X139187276Y-82403654D01*
X139568228Y-82403654D01*
X139663466Y-82356035D01*
X139711085Y-82260797D01*
X139711085Y-82070320D01*
X139663466Y-81975082D01*
X139568228Y-81927463D01*
X139472990Y-81927463D01*
X139377752Y-82403654D01*
D23*
X139887352Y-80732939D02*
X139810884Y-80730850D01*
X139779879Y-80745308D01*
X139740600Y-80782498D01*
X139715779Y-80850692D01*
X139721963Y-80904429D01*
X139736421Y-80935434D01*
X139773611Y-80974713D01*
X139955464Y-81040902D01*
X140129210Y-80563539D01*
X139970089Y-80505623D01*
X139916352Y-80511807D01*
X139885347Y-80526265D01*
X139846068Y-80563455D01*
X139829521Y-80608918D01*
X139835705Y-80662655D01*
X139850163Y-80693660D01*
X139887352Y-80732939D01*
X140046474Y-80790855D01*
X139550473Y-80739040D02*
X139323157Y-80656304D01*
X139546295Y-80891977D02*
X139560920Y-80356698D01*
X139228052Y-80776146D01*
X139310872Y-80265688D02*
X139038093Y-80166404D01*
X139000736Y-80693410D02*
X139174482Y-80216046D01*
X138802336Y-80672684D02*
X138438630Y-80540306D01*
X138372525Y-80439017D02*
X138296056Y-80436927D01*
X138182398Y-80395559D01*
X138145208Y-80356280D01*
X138130750Y-80325275D01*
X138124566Y-80271538D01*
X138141113Y-80226075D01*
X138180392Y-80188885D01*
X138211398Y-80174427D01*
X138265134Y-80168243D01*
X138364334Y-80178606D01*
X138418071Y-80172422D01*
X138449077Y-80157964D01*
X138488355Y-80120774D01*
X138504903Y-80075311D01*
X138498718Y-80021574D01*
X138484260Y-79990569D01*
X138447071Y-79951290D01*
X138333413Y-79909922D01*
X138256944Y-79907832D01*
X137977897Y-80037954D02*
X137818776Y-79980039D01*
X137659571Y-80205266D02*
X137886887Y-80288002D01*
X138060633Y-79810638D01*
X137833317Y-79727902D01*
X137454986Y-80130803D02*
X137628733Y-79653439D01*
X137182207Y-80031520D01*
X137355953Y-79554156D01*
X136985896Y-79934325D02*
X136909428Y-79932236D01*
X136795770Y-79890868D01*
X136758580Y-79851589D01*
X136744122Y-79820584D01*
X136737938Y-79766847D01*
X136754485Y-79721384D01*
X136793764Y-79684194D01*
X136824769Y-79669736D01*
X136878506Y-79663552D01*
X136977706Y-79673915D01*
X137031443Y-79667730D01*
X137062448Y-79653272D01*
X137101727Y-79616083D01*
X137118274Y-79570619D01*
X137112090Y-79516883D01*
X137097632Y-79485877D01*
X137060442Y-79446598D01*
X136946784Y-79405230D01*
X136870316Y-79403141D01*
X136597370Y-79870142D02*
X136233664Y-79737764D01*
X136227563Y-79400885D02*
X136068442Y-79342969D01*
X135909237Y-79568196D02*
X136136553Y-79650933D01*
X136310299Y-79173569D01*
X136082983Y-79090832D01*
X135454605Y-79402724D02*
X135727384Y-79502007D01*
X135590994Y-79452365D02*
X135764741Y-78975002D01*
X135785383Y-79059744D01*
X135814299Y-79121754D01*
X135851488Y-79161033D01*
X140143988Y-78546407D02*
X140317734Y-78069043D01*
X140135881Y-78002854D01*
X140082144Y-78009039D01*
X140051139Y-78023497D01*
X140011860Y-78060686D01*
X139987039Y-78128881D01*
X139993223Y-78182618D01*
X140007681Y-78213623D01*
X140044871Y-78252902D01*
X140226724Y-78319091D01*
X139885833Y-77911845D02*
X139598429Y-78347840D01*
X139631607Y-77973772D01*
X139416576Y-78281651D01*
X139476664Y-77762919D01*
X138848286Y-78074810D02*
X139090143Y-77905410D01*
X139121065Y-78174094D02*
X139294811Y-77696730D01*
X139112958Y-77630541D01*
X139059222Y-77636725D01*
X139028216Y-77651183D01*
X138988937Y-77688373D01*
X138964117Y-77756568D01*
X138970301Y-77810305D01*
X138984759Y-77841310D01*
X139021949Y-77880589D01*
X139203801Y-77946778D01*
X138740812Y-78087179D02*
X138377106Y-77954801D01*
X138311001Y-77853512D02*
X138234532Y-77851422D01*
X138120874Y-77810054D01*
X138083685Y-77770775D01*
X138069227Y-77739770D01*
X138063042Y-77686033D01*
X138079590Y-77640570D01*
X138118868Y-77603380D01*
X138149874Y-77588922D01*
X138203610Y-77582738D01*
X138302811Y-77593101D01*
X138356547Y-77586917D01*
X138387553Y-77572459D01*
X138426832Y-77535269D01*
X138443379Y-77489806D01*
X138437194Y-77436069D01*
X138422736Y-77405064D01*
X138385547Y-77365785D01*
X138271889Y-77324417D01*
X138195420Y-77322328D01*
X137916373Y-77452449D02*
X137757252Y-77394534D01*
X137598047Y-77619761D02*
X137825363Y-77702497D01*
X137999109Y-77225133D01*
X137771793Y-77142397D01*
X137393463Y-77545298D02*
X137567209Y-77067934D01*
X137120683Y-77446015D01*
X137294429Y-76968651D01*
X136924372Y-77348820D02*
X136847904Y-77346731D01*
X136734246Y-77305363D01*
X136697056Y-77266084D01*
X136682598Y-77235079D01*
X136676414Y-77181342D01*
X136692961Y-77135879D01*
X136732240Y-77098689D01*
X136763245Y-77084231D01*
X136816982Y-77078047D01*
X136916182Y-77088410D01*
X136969919Y-77082225D01*
X137000924Y-77067767D01*
X137040203Y-77030578D01*
X137056750Y-76985114D01*
X137050566Y-76931378D01*
X137036108Y-76900372D01*
X136998919Y-76861093D01*
X136885260Y-76819725D01*
X136808792Y-76817636D01*
X136535846Y-77284637D02*
X136172140Y-77152259D01*
X136166039Y-76815380D02*
X136006918Y-76757464D01*
X135847713Y-76982691D02*
X136075029Y-77065428D01*
X136248775Y-76588064D01*
X136021459Y-76505327D01*
X135393081Y-76817219D02*
X135665860Y-76916502D01*
X135529470Y-76866860D02*
X135703217Y-76389497D01*
X135723859Y-76474239D01*
X135752775Y-76536249D01*
X135789965Y-76575528D01*
M02*
