G04 #@! TF.GenerationSoftware,KiCad,Pcbnew,5.1.0-rc2-unknown-036be7d~80~ubuntu16.04.1*
G04 #@! TF.CreationDate,2023-10-02T14:06:35+03:00*
G04 #@! TF.ProjectId,ESP32-DevKit-Lipo_Rev_D,45535033-322d-4446-9576-4b69742d4c69,D*
G04 #@! TF.SameCoordinates,Original*
G04 #@! TF.FileFunction,Copper,L2,Bot*
G04 #@! TF.FilePolarity,Positive*
%FSLAX46Y46*%
G04 Gerber Fmt 4.6, Leading zero omitted, Abs format (unit mm)*
G04 Created by KiCad (PCBNEW 5.1.0-rc2-unknown-036be7d~80~ubuntu16.04.1) date 2023-10-02 14:06:35*
%MOMM*%
%LPD*%
G04 APERTURE LIST*
%ADD10C,1.300000*%
%ADD11C,2.000000*%
%ADD12C,1.400000*%
%ADD13R,1.400000X1.400000*%
%ADD14R,0.508000X0.762000*%
%ADD15C,1.000000*%
%ADD16C,1.778000*%
%ADD17R,1.778000X1.778000*%
%ADD18O,1.200000X1.800000*%
%ADD19C,1.016000*%
%ADD20C,0.762000*%
%ADD21C,0.254000*%
%ADD22C,0.508000*%
%ADD23C,1.270000*%
G04 APERTURE END LIST*
D10*
X144310000Y-80022000D03*
X140710000Y-80022000D03*
X142510000Y-81822000D03*
X142510000Y-78222000D03*
X144310000Y-78222000D03*
X140710000Y-78222000D03*
X144310000Y-81822000D03*
D11*
X142510000Y-80022000D03*
D10*
X140710000Y-81822000D03*
D12*
X152384760Y-116222780D03*
D13*
X150355300Y-116225320D03*
D14*
X150368000Y-117983000D03*
X149606000Y-117983000D03*
D15*
X152400000Y-117983000D03*
D16*
X130810000Y-80010000D03*
X130810000Y-77470000D03*
X130810000Y-74930000D03*
D17*
X130810000Y-72390000D03*
D16*
X130810000Y-82550000D03*
X130810000Y-85090000D03*
X130810000Y-90170000D03*
X130810000Y-87630000D03*
X130810000Y-92710000D03*
X130810000Y-95250000D03*
X130810000Y-100330000D03*
X130810000Y-97790000D03*
X130810000Y-102870000D03*
X130810000Y-105410000D03*
X130810000Y-110490000D03*
X130810000Y-107950000D03*
X130810000Y-118110000D03*
X130810000Y-115570000D03*
X130810000Y-113030000D03*
X156210000Y-80010000D03*
X156210000Y-77470000D03*
X156210000Y-74930000D03*
D17*
X156210000Y-72390000D03*
D16*
X156210000Y-82550000D03*
X156210000Y-85090000D03*
X156210000Y-90170000D03*
X156210000Y-87630000D03*
X156210000Y-92710000D03*
X156210000Y-95250000D03*
X156210000Y-100330000D03*
X156210000Y-97790000D03*
X156210000Y-102870000D03*
X156210000Y-105410000D03*
X156210000Y-110490000D03*
X156210000Y-107950000D03*
X156210000Y-118110000D03*
X156210000Y-115570000D03*
X156210000Y-113030000D03*
D18*
X139910000Y-115947000D03*
X139910000Y-112477000D03*
X147110000Y-112477000D03*
X147110000Y-115947000D03*
D14*
X135382000Y-80137000D03*
X134620000Y-80137000D03*
X135382000Y-77597000D03*
X134620000Y-77597000D03*
D15*
X136525000Y-116459000D03*
X137668000Y-116459000D03*
X150241000Y-113538000D03*
X132715000Y-76200000D03*
X149352000Y-99314000D03*
X135255000Y-118364000D03*
X143510000Y-117094000D03*
X154304598Y-118236598D03*
X146558000Y-72009000D03*
X150495000Y-72009000D03*
X131953000Y-83820000D03*
X136525000Y-90297000D03*
X132842000Y-103251000D03*
X137810000Y-88504000D03*
X137810000Y-87107000D03*
X137810000Y-85852000D03*
X144145000Y-72009000D03*
X141605000Y-72009000D03*
X139065000Y-72009000D03*
X136525000Y-72009000D03*
X140335000Y-73025000D03*
X142875000Y-73025000D03*
X145415000Y-73025000D03*
X146558000Y-74295000D03*
X144145000Y-74295000D03*
X141605000Y-74295000D03*
X142875000Y-75565000D03*
X145415000Y-75565000D03*
X149860000Y-75565000D03*
X150114000Y-85090000D03*
X149987000Y-96774000D03*
X149860000Y-78105000D03*
X149860000Y-80645000D03*
X148590000Y-76835000D03*
X148590000Y-79375000D03*
X146050000Y-79375000D03*
X146050000Y-81915000D03*
X146050000Y-76835000D03*
X146050000Y-83820000D03*
X146050000Y-86995000D03*
X144780000Y-98933000D03*
X144399000Y-106807000D03*
X137731500Y-111315500D03*
X137795000Y-110109000D03*
X143510000Y-101092000D03*
X137414000Y-103759000D03*
X146939000Y-98933000D03*
X146685000Y-103378000D03*
X147320000Y-80645000D03*
X147320000Y-78105000D03*
X144780000Y-85725000D03*
X147320000Y-85725000D03*
X147320000Y-75565000D03*
X142367000Y-88138000D03*
X141478000Y-87122000D03*
X150114000Y-83820000D03*
X148590000Y-81661000D03*
X142240000Y-93726000D03*
X144780000Y-97663000D03*
X132588000Y-118110000D03*
X147320000Y-83820000D03*
X136525000Y-75057000D03*
X140335000Y-105283000D03*
X133731000Y-112395000D03*
X142748000Y-103124000D03*
X139700000Y-96266000D03*
X135509000Y-110363000D03*
X137414000Y-106680000D03*
X152019000Y-105918000D03*
X150749000Y-109982000D03*
X136525000Y-91567000D03*
X136525000Y-89027000D03*
X136525000Y-86487000D03*
X136525000Y-87757000D03*
X136525000Y-85217000D03*
X136525000Y-83947000D03*
X136525000Y-81407000D03*
X136525000Y-82677000D03*
X136525000Y-80137000D03*
X136525000Y-78867000D03*
X150495000Y-86487000D03*
X150495000Y-87757000D03*
X150495000Y-91567000D03*
X150495000Y-90297000D03*
X140970000Y-109474000D03*
X145288000Y-109347000D03*
X145288000Y-110744000D03*
X135636000Y-113665000D03*
X151892000Y-103505000D03*
X133223000Y-80899000D03*
X143002000Y-106426000D03*
X138938000Y-103378000D03*
X146050000Y-95250000D03*
X144780000Y-94996000D03*
X136525000Y-77597000D03*
X136517042Y-92832000D03*
X137160000Y-95377000D03*
X137129768Y-94077599D03*
X150495000Y-95377000D03*
X150495000Y-94107000D03*
X150495000Y-92837000D03*
X133223000Y-77978000D03*
X144272000Y-93599000D03*
X136525000Y-73787000D03*
X140843000Y-98933000D03*
X141986000Y-98933000D03*
X146431000Y-109982000D03*
X148082000Y-103378000D03*
D19*
X137668000Y-116459000D02*
X136525000Y-116459000D01*
D20*
X136906000Y-116459000D02*
X136525000Y-116459000D01*
X137033000Y-116459000D02*
X136906000Y-116459000D01*
D19*
X150241000Y-113411000D02*
X150241000Y-113538000D01*
X149352000Y-99314000D02*
X149352000Y-104013000D01*
X149352000Y-104013000D02*
X147701000Y-105664000D01*
X147701000Y-110871000D02*
X150241000Y-113411000D01*
X147701000Y-105664000D02*
X147701000Y-110871000D01*
D21*
X149352000Y-98425000D02*
X149352000Y-99314000D01*
X137668000Y-72898000D02*
X139573000Y-74803000D01*
X139573000Y-74803000D02*
X139573000Y-83566000D01*
X139573000Y-83566000D02*
X143256000Y-87249000D01*
X143256000Y-87249000D02*
X143256000Y-95631000D01*
X135890000Y-72898000D02*
X137668000Y-72898000D01*
X147574000Y-96647000D02*
X149352000Y-98425000D01*
X132715000Y-76200000D02*
X132715000Y-76073000D01*
X143256000Y-95631000D02*
X144272000Y-96647000D01*
X132715000Y-76073000D02*
X135890000Y-72898000D01*
X144272000Y-96647000D02*
X147574000Y-96647000D01*
D19*
X150114000Y-113538000D02*
X150241000Y-113538000D01*
X140378180Y-114173000D02*
X141140180Y-114935000D01*
X138303000Y-115824000D02*
X138303000Y-115189000D01*
X138303000Y-115189000D02*
X139319000Y-114173000D01*
X139319000Y-114173000D02*
X140378180Y-114173000D01*
X141140180Y-114935000D02*
X145887440Y-114935000D01*
X145887440Y-114935000D02*
X146649440Y-114173000D01*
X137668000Y-116459000D02*
X138303000Y-115824000D01*
X146649440Y-114173000D02*
X148717000Y-114173000D01*
X148717000Y-114173000D02*
X149733000Y-113157000D01*
X149733000Y-113157000D02*
X150114000Y-113538000D01*
X136271000Y-116713000D02*
X136525000Y-116459000D01*
X132207000Y-116713000D02*
X136271000Y-116713000D01*
X130810000Y-118110000D02*
X132207000Y-116713000D01*
X139954000Y-116205000D02*
X139954000Y-115951000D01*
D22*
X147110000Y-115947000D02*
X144395000Y-115947000D01*
D19*
X147110000Y-112477000D02*
X147193000Y-112394000D01*
D23*
X147110000Y-112477000D02*
X145714000Y-112477000D01*
X145714000Y-112477000D02*
X145079000Y-112477000D01*
D19*
X147193000Y-112477000D02*
X145714000Y-112477000D01*
X139065000Y-117094000D02*
X139954000Y-116205000D01*
D22*
X139910000Y-115947000D02*
X140847000Y-115947000D01*
X140847000Y-115947000D02*
X144395000Y-115947000D01*
D19*
X132842000Y-103378000D02*
X132842000Y-103251000D01*
X130810000Y-105410000D02*
X132842000Y-103378000D01*
X137810000Y-85852000D02*
X137810000Y-90282000D01*
X137795000Y-90297000D02*
X137810000Y-90282000D01*
X136525000Y-90297000D02*
X137795000Y-90297000D01*
X137795000Y-90297000D02*
X138430000Y-90932000D01*
X138430000Y-90932000D02*
X138430000Y-100838000D01*
X144145000Y-72009000D02*
X144145000Y-74295000D01*
X145415000Y-73025000D02*
X145415000Y-75565000D01*
X142875000Y-73025000D02*
X142875000Y-75565000D01*
X153670000Y-85090000D02*
X155448000Y-86868000D01*
X150114000Y-85090000D02*
X153670000Y-85090000D01*
X155448000Y-86868000D02*
X156210000Y-87630000D01*
X146050000Y-76835000D02*
X146050000Y-79375000D01*
X146050000Y-79375000D02*
X146050000Y-81915000D01*
X146050000Y-81915000D02*
X146050000Y-84455000D01*
X146050000Y-84455000D02*
X146050000Y-86995000D01*
X146050000Y-76200000D02*
X145415000Y-75565000D01*
X146050000Y-76835000D02*
X146050000Y-76200000D01*
X148590000Y-76835000D02*
X148590000Y-79375000D01*
X149860000Y-78105000D02*
X149860000Y-80645000D01*
X149860000Y-78105000D02*
X149860000Y-75565000D01*
X148590000Y-76835000D02*
X148590000Y-72263000D01*
X148590000Y-72263000D02*
X148336000Y-72009000D01*
X150495000Y-72009000D02*
X148336000Y-72009000D01*
X148336000Y-72009000D02*
X146558000Y-72009000D01*
X141605000Y-117221000D02*
X140462000Y-117221000D01*
X139065000Y-117221000D02*
X139065000Y-117094000D01*
X140462000Y-117221000D02*
X139065000Y-117221000D01*
X147066000Y-117221000D02*
X147066000Y-115951000D01*
X146558000Y-117221000D02*
X147066000Y-117221000D01*
X141605000Y-117221000D02*
X146558000Y-117221000D01*
D22*
X140847000Y-115947000D02*
X141474000Y-115947000D01*
X141605000Y-116078000D02*
X141605000Y-117221000D01*
X141474000Y-115947000D02*
X141605000Y-116078000D01*
D23*
X139910000Y-112477000D02*
X145079000Y-112477000D01*
D19*
X142367000Y-104648000D02*
X144018000Y-104648000D01*
X138557000Y-100838000D02*
X142367000Y-104648000D01*
X138430000Y-100838000D02*
X138557000Y-100838000D01*
X137795000Y-110109000D02*
X137795000Y-111252000D01*
X137795000Y-111252000D02*
X137731500Y-111315500D01*
X138430000Y-101092000D02*
X138430000Y-100838000D01*
X137414000Y-102108000D02*
X138430000Y-101092000D01*
X137414000Y-103759000D02*
X137414000Y-102108000D01*
X138049000Y-110109000D02*
X137795000Y-110109000D01*
X144399000Y-106807000D02*
X144399000Y-107315000D01*
X144399000Y-107315000D02*
X143891000Y-107823000D01*
X143891000Y-107823000D02*
X140335000Y-107823000D01*
X140335000Y-107823000D02*
X138049000Y-110109000D01*
D21*
X153162000Y-111252000D02*
X152019000Y-110109000D01*
X154304598Y-118236598D02*
X154178000Y-118110000D01*
X154178000Y-118110000D02*
X154178000Y-115189000D01*
X153162000Y-114173000D02*
X153162000Y-111252000D01*
X154178000Y-115189000D02*
X153162000Y-114173000D01*
D22*
X136398000Y-112649000D02*
X137731500Y-111315500D01*
X135128000Y-112649000D02*
X136398000Y-112649000D01*
X134493000Y-113284000D02*
X135128000Y-112649000D01*
X134493000Y-114173000D02*
X134493000Y-113284000D01*
X135001000Y-114681000D02*
X134493000Y-114173000D01*
X139910000Y-112477000D02*
X139357000Y-113030000D01*
X139357000Y-113030000D02*
X138811000Y-113030000D01*
X138811000Y-113030000D02*
X137160000Y-114681000D01*
X137160000Y-114681000D02*
X135001000Y-114681000D01*
D21*
X151003000Y-102362000D02*
X151257000Y-102616000D01*
X151003000Y-97790000D02*
X151003000Y-102362000D01*
X149987000Y-96774000D02*
X151003000Y-97790000D01*
D19*
X144399000Y-105664000D02*
X144399000Y-106807000D01*
X146685000Y-103378000D02*
X144399000Y-105664000D01*
X146685000Y-99187000D02*
X146685000Y-103378000D01*
X146939000Y-98933000D02*
X146685000Y-99187000D01*
X144018000Y-105410000D02*
X144399000Y-105791000D01*
X144018000Y-104648000D02*
X144018000Y-105410000D01*
X147320000Y-78105000D02*
X147320000Y-75565000D01*
X147320000Y-78105000D02*
X147320000Y-80645000D01*
X144018000Y-97536000D02*
X144018000Y-104648000D01*
X142367000Y-96901000D02*
X142367000Y-88138000D01*
X143002000Y-97536000D02*
X142367000Y-96901000D01*
X144018000Y-97536000D02*
X143002000Y-97536000D01*
X142367000Y-88011000D02*
X141478000Y-87122000D01*
X142367000Y-88138000D02*
X142367000Y-88011000D01*
X148590000Y-79375000D02*
X148590000Y-81661000D01*
D20*
X150114000Y-85090000D02*
X150114000Y-83820000D01*
D19*
X144653000Y-97536000D02*
X144018000Y-97536000D01*
X144780000Y-97663000D02*
X144653000Y-97536000D01*
X146939000Y-97663000D02*
X146939000Y-98933000D01*
X146812000Y-97536000D02*
X146939000Y-97663000D01*
X144907000Y-97536000D02*
X146812000Y-97536000D01*
X144780000Y-97663000D02*
X144907000Y-97536000D01*
D20*
X132842000Y-101915646D02*
X132842000Y-103378000D01*
X133350000Y-101407646D02*
X132842000Y-101915646D01*
X133350000Y-100584000D02*
X133350000Y-101407646D01*
X133858039Y-94807313D02*
X133858039Y-100075961D01*
X136525000Y-90297000D02*
X136144001Y-90297000D01*
X136144001Y-90297000D02*
X134873996Y-91567005D01*
X134873996Y-93791356D02*
X133858039Y-94807313D01*
X133858039Y-100075961D02*
X133350000Y-100584000D01*
X134873996Y-91567005D02*
X134873996Y-93791356D01*
D19*
X132842000Y-118364000D02*
X137795000Y-118364000D01*
X137795000Y-118364000D02*
X139065000Y-117094000D01*
X132588000Y-118110000D02*
X132842000Y-118364000D01*
X147320000Y-80645000D02*
X147320000Y-83820000D01*
X147320000Y-83820000D02*
X147320000Y-85725000D01*
D21*
X137795000Y-84578292D02*
X137795000Y-76327000D01*
X138938000Y-85721292D02*
X137795000Y-84578292D01*
X139700000Y-96266000D02*
X139573000Y-96139000D01*
X137795000Y-76327000D02*
X136525000Y-75057000D01*
X139573000Y-96139000D02*
X139573000Y-90297000D01*
X139573000Y-90297000D02*
X138938000Y-89662000D01*
X138938000Y-89662000D02*
X138938000Y-85721292D01*
X139573000Y-96393000D02*
X139700000Y-96266000D01*
X139573000Y-100023048D02*
X139573000Y-96393000D01*
X142673952Y-103124000D02*
X139573000Y-100023048D01*
X142748000Y-103124000D02*
X142673952Y-103124000D01*
X140208000Y-105283000D02*
X140335000Y-105283000D01*
X136652000Y-108839000D02*
X140208000Y-105283000D01*
X134620000Y-111506000D02*
X135763000Y-111506000D01*
X135763000Y-111506000D02*
X136652000Y-110617000D01*
X133731000Y-112395000D02*
X134620000Y-111506000D01*
X136652000Y-110617000D02*
X136652000Y-108839000D01*
D19*
X135509000Y-108585000D02*
X135509000Y-110363000D01*
X137414000Y-106680000D02*
X135509000Y-108585000D01*
D22*
X153035000Y-117348000D02*
X152400000Y-117983000D01*
D21*
X152654000Y-111887000D02*
X150749000Y-109982000D01*
X153543000Y-115570000D02*
X152654000Y-114681000D01*
X153035000Y-117348000D02*
X153543000Y-116840000D01*
X153543000Y-116840000D02*
X153543000Y-115570000D01*
X152654000Y-114681000D02*
X152654000Y-111887000D01*
X151765000Y-105918000D02*
X152019000Y-105918000D01*
X150622000Y-109855000D02*
X150622000Y-107061000D01*
X150622000Y-107061000D02*
X151765000Y-105918000D01*
X150749000Y-109982000D02*
X150622000Y-109855000D01*
D19*
X130810000Y-107950000D02*
X131572000Y-107188000D01*
D21*
X136525000Y-91567000D02*
X135635996Y-92456004D01*
X135635996Y-92456004D02*
X135635995Y-94107003D01*
X132079999Y-105413693D02*
X132079999Y-106680001D01*
X135635995Y-94107003D02*
X134620040Y-95122958D01*
X132079999Y-106680001D02*
X131572000Y-107188000D01*
X134620040Y-102873652D02*
X132079999Y-105413693D01*
X134620040Y-95122958D02*
X134620040Y-102873652D01*
D20*
X136525000Y-89027000D02*
X135890000Y-89027000D01*
D19*
X130810000Y-102870000D02*
X131572000Y-102108000D01*
D21*
X132334000Y-101346000D02*
X131572000Y-102108000D01*
X135382000Y-89981355D02*
X134111986Y-91251369D01*
X135382000Y-89535000D02*
X135382000Y-89981355D01*
X134111986Y-91251369D02*
X134111986Y-93472014D01*
X135890000Y-89027000D02*
X135382000Y-89535000D01*
X134111986Y-93472014D02*
X133096029Y-94487971D01*
X133096029Y-94487971D02*
X133096029Y-97583249D01*
X133096029Y-97583249D02*
X132842000Y-97837278D01*
X132842000Y-97837278D02*
X132842000Y-99822000D01*
X132842000Y-99822000D02*
X132334000Y-100330000D01*
X132334000Y-100330000D02*
X132334000Y-101346000D01*
D20*
X136525000Y-86487000D02*
X135890000Y-86487000D01*
D19*
X130810000Y-97790000D02*
X131572000Y-97028000D01*
D21*
X132080008Y-96519992D02*
X131572000Y-97028000D01*
X132080008Y-94023554D02*
X132080008Y-96519992D01*
X133095966Y-93007596D02*
X132080008Y-94023554D01*
X134112000Y-89749126D02*
X133095966Y-90765160D01*
X133095966Y-90765160D02*
X133095966Y-93007596D01*
X135890000Y-86487000D02*
X135763000Y-86487000D01*
X135763000Y-86487000D02*
X134112000Y-88138000D01*
X134112000Y-88138000D02*
X134112000Y-89749126D01*
D19*
X130810000Y-100330000D02*
X131572000Y-99568000D01*
D20*
X135890000Y-87757000D02*
X136525000Y-87757000D01*
D21*
X134747000Y-89897919D02*
X133603976Y-91040943D01*
X133603976Y-91040943D02*
X133603976Y-93218022D01*
X134747000Y-88773000D02*
X134747000Y-89897919D01*
X135763000Y-87757000D02*
X134747000Y-88773000D01*
X132588019Y-94233979D02*
X132588019Y-97372825D01*
X135890000Y-87757000D02*
X135763000Y-87757000D01*
X132207000Y-97753844D02*
X132207000Y-98933000D01*
X133603976Y-93218022D02*
X132588019Y-94233979D01*
X131698999Y-99441001D02*
X131572000Y-99568000D01*
X132588019Y-97372825D02*
X132207000Y-97753844D01*
X132207000Y-98933000D02*
X131698999Y-99441001D01*
D20*
X136525000Y-85217000D02*
X135890000Y-85217000D01*
D19*
X130810000Y-94742000D02*
X131191000Y-94361000D01*
X130810000Y-95250000D02*
X130810000Y-94742000D01*
D21*
X131191000Y-94194128D02*
X131191000Y-94361000D01*
X132587934Y-92797194D02*
X131191000Y-94194128D01*
X132587955Y-90554735D02*
X132587955Y-92380009D01*
X132587955Y-92380009D02*
X132587934Y-92380030D01*
X135890000Y-85217000D02*
X135890000Y-85244120D01*
X135890000Y-85244120D02*
X133604000Y-87530120D01*
X132587934Y-92380030D02*
X132587934Y-92797194D01*
X133604000Y-87530120D02*
X133604000Y-89538690D01*
X133604000Y-89538690D02*
X132587955Y-90554735D01*
D20*
X136525000Y-83947000D02*
X135944894Y-83947000D01*
D19*
X130810000Y-92710000D02*
X131572000Y-91948000D01*
D21*
X132079944Y-91440057D02*
X131572000Y-91948000D01*
X132079944Y-90344310D02*
X132079944Y-91440057D01*
X132969000Y-89455254D02*
X132079944Y-90344310D01*
X135944894Y-83947000D02*
X134874000Y-85017894D01*
X134874000Y-85017894D02*
X134874000Y-85541684D01*
X134874000Y-85541684D02*
X132969000Y-87446684D01*
X132969000Y-87446684D02*
X132969000Y-89455254D01*
D19*
X130810000Y-87630000D02*
X131572000Y-86868000D01*
D21*
X135509000Y-81915000D02*
X135574356Y-81915000D01*
X135574356Y-81915000D02*
X135574366Y-81914990D01*
X135574366Y-81914990D02*
X136017000Y-81914990D01*
D20*
X136271000Y-81407000D02*
X136017000Y-81661000D01*
X136525000Y-81407000D02*
X136271000Y-81407000D01*
D21*
X135445500Y-81915000D02*
X135509000Y-81915000D01*
X135953500Y-81407000D02*
X136271000Y-81407000D01*
X131572000Y-86868000D02*
X133350000Y-85090000D01*
X133350000Y-85090000D02*
X133350000Y-84582000D01*
X133350000Y-84582000D02*
X135128000Y-82804000D01*
X135128000Y-82232500D02*
X135953500Y-81407000D01*
X135128000Y-82804000D02*
X135128000Y-82232500D01*
D20*
X136525000Y-82677000D02*
X135890000Y-82677000D01*
D19*
X130810000Y-90170000D02*
X131572000Y-89408000D01*
D21*
X132334000Y-88646000D02*
X131508500Y-89471500D01*
X132334000Y-87363248D02*
X132334000Y-88646000D01*
X135890000Y-82677000D02*
X135890000Y-82760436D01*
X134112000Y-84538436D02*
X134112000Y-85585248D01*
X135890000Y-82760436D02*
X134112000Y-84538436D01*
X134112000Y-85585248D02*
X132334000Y-87363248D01*
D22*
X135382000Y-80137000D02*
X135382000Y-81026000D01*
D20*
X136525000Y-80137000D02*
X136271000Y-80137000D01*
X136271000Y-80137000D02*
X135509001Y-80137000D01*
D22*
X135382000Y-81026000D02*
X136271000Y-80137000D01*
D19*
X131953000Y-85090000D02*
X130810000Y-85090000D01*
D21*
X134620000Y-81788000D02*
X135382000Y-81026000D01*
X134620000Y-82550000D02*
X134620000Y-81788000D01*
X132080000Y-85090000D02*
X134620000Y-82550000D01*
X131953000Y-85090000D02*
X132080000Y-85090000D01*
D20*
X136525000Y-78867000D02*
X135890000Y-78867000D01*
D19*
X131572000Y-81788000D02*
X130810000Y-82550000D01*
D21*
X132207000Y-81153000D02*
X131572000Y-81788000D01*
X135890000Y-78867000D02*
X135382000Y-79375000D01*
X132969000Y-79375000D02*
X132207000Y-80137000D01*
X135382000Y-79375000D02*
X132969000Y-79375000D01*
X132207000Y-80137000D02*
X132207000Y-81153000D01*
D20*
X150495000Y-86487000D02*
X151202106Y-86487000D01*
X151202106Y-86487000D02*
X152527000Y-86487000D01*
D19*
X156210000Y-100330000D02*
X155448000Y-99568000D01*
D21*
X152527000Y-86487000D02*
X154939999Y-88899999D01*
X154939999Y-88899999D02*
X154939999Y-99059999D01*
X154939999Y-99059999D02*
X155448000Y-99568000D01*
D20*
X150495000Y-87757000D02*
X151202106Y-87757000D01*
X151202106Y-87757000D02*
X152527000Y-87757000D01*
D19*
X156210000Y-102362000D02*
X155829000Y-101981000D01*
X156210000Y-102870000D02*
X156210000Y-102362000D01*
D21*
X155829000Y-101790500D02*
X155829000Y-101981000D01*
X152527000Y-87757000D02*
X154431989Y-89661989D01*
X154432044Y-100393544D02*
X155829000Y-101790500D01*
X154432044Y-99270478D02*
X154432044Y-100393544D01*
X154431989Y-89661989D02*
X154431989Y-99270423D01*
X154431989Y-99270423D02*
X154432044Y-99270478D01*
D19*
X155829000Y-110109000D02*
X155829000Y-109601000D01*
X156210000Y-110490000D02*
X155829000Y-110109000D01*
X155829000Y-109601000D02*
X156337000Y-110109000D01*
D20*
X150495000Y-91567000D02*
X152527000Y-91567000D01*
D21*
X154940021Y-108712021D02*
X155829000Y-109601000D01*
X154431988Y-108203988D02*
X154940021Y-108712021D01*
X152527000Y-91567000D02*
X153415969Y-92455969D01*
X153415969Y-92455969D02*
X153415969Y-100841661D01*
X153415969Y-100841661D02*
X154431988Y-101857680D01*
X154431988Y-101857680D02*
X154431988Y-108203988D01*
D20*
X150495000Y-90297000D02*
X151202106Y-90297000D01*
X151202106Y-90297000D02*
X152527000Y-90297000D01*
D19*
X156210000Y-107950000D02*
X155511500Y-107251500D01*
X156210000Y-107950000D02*
X155448000Y-107188000D01*
D21*
X155448000Y-107188000D02*
X155511500Y-107251500D01*
X152527000Y-90297000D02*
X153923980Y-91693980D01*
X153923980Y-91693980D02*
X153923980Y-100631236D01*
X153923980Y-100631236D02*
X154939999Y-101647255D01*
X154939999Y-101647255D02*
X154939999Y-106679999D01*
X154939999Y-106679999D02*
X155448000Y-107188000D01*
X141097000Y-109347000D02*
X140970000Y-109474000D01*
X145288000Y-109347000D02*
X141097000Y-109347000D01*
X145034000Y-110744000D02*
X145288000Y-110744000D01*
X135636000Y-113665000D02*
X136906000Y-113665000D01*
X136906000Y-113665000D02*
X139446000Y-111125000D01*
X139446000Y-111125000D02*
X144653000Y-111125000D01*
X144653000Y-111125000D02*
X145034000Y-110744000D01*
D19*
X150368000Y-116238020D02*
X150368000Y-116967000D01*
X150355300Y-116225320D02*
X150368000Y-116238020D01*
D22*
X150368000Y-116967000D02*
X150368000Y-117983000D01*
X150355300Y-116225320D02*
X150355300Y-116090700D01*
D19*
X150355300Y-116090700D02*
X151257000Y-115189000D01*
D22*
X151066500Y-115379500D02*
X151257000Y-115189000D01*
X149606000Y-110363000D02*
X149606000Y-110236000D01*
X150495000Y-111252000D02*
X149606000Y-110363000D01*
X150749000Y-111252000D02*
X150495000Y-111252000D01*
D20*
X151892000Y-112395000D02*
X150749000Y-111252000D01*
X151892000Y-114554000D02*
X151892000Y-112395000D01*
X151257000Y-115189000D02*
X151892000Y-114554000D01*
X149606000Y-106553000D02*
X149606000Y-110236000D01*
X151892000Y-104267000D02*
X149606000Y-106553000D01*
X151892000Y-103505000D02*
X151892000Y-104267000D01*
D22*
X134620000Y-80137000D02*
X134493000Y-80137000D01*
D20*
X133223000Y-80391000D02*
X133223000Y-80899000D01*
X134493000Y-80137000D02*
X133477000Y-80137000D01*
X133477000Y-80137000D02*
X133223000Y-80391000D01*
X134493000Y-80645000D02*
X134493000Y-80137000D01*
D19*
X134175500Y-80899000D02*
X134366000Y-80708500D01*
X133223000Y-80899000D02*
X134175500Y-80899000D01*
X155067000Y-82550000D02*
X156210000Y-82550000D01*
D21*
X149987000Y-82550000D02*
X155067000Y-82550000D01*
X148971000Y-83566000D02*
X149987000Y-82550000D01*
X146050000Y-95250000D02*
X146177000Y-95123000D01*
X146177000Y-95123000D02*
X147955000Y-95123000D01*
X147955000Y-95123000D02*
X148971000Y-94107000D01*
X148971000Y-94107000D02*
X148971000Y-83566000D01*
X142875000Y-106426000D02*
X143002000Y-106426000D01*
X139827000Y-103378000D02*
X142875000Y-106426000D01*
X138938000Y-103378000D02*
X139827000Y-103378000D01*
X144780000Y-94996000D02*
X145415000Y-94361000D01*
X148209000Y-83439000D02*
X149860000Y-81788000D01*
X145415000Y-94361000D02*
X147701000Y-94361000D01*
X154432000Y-81788000D02*
X155321001Y-80898999D01*
X148209000Y-93853000D02*
X148209000Y-83439000D01*
D19*
X156210000Y-80010000D02*
X155321001Y-80898999D01*
D21*
X147701000Y-94361000D02*
X148209000Y-93853000D01*
X149860000Y-81788000D02*
X154432000Y-81788000D01*
D19*
X131826000Y-78994000D02*
X130810000Y-80010000D01*
D22*
X135636000Y-77597000D02*
X135382000Y-77597000D01*
D20*
X136525000Y-77597000D02*
X136144000Y-77597000D01*
X136144000Y-77597000D02*
X135636000Y-77597000D01*
D22*
X135382000Y-77597000D02*
X135382000Y-78105000D01*
X135890000Y-77597000D02*
X136144000Y-77597000D01*
X135382000Y-78105000D02*
X135890000Y-77597000D01*
D21*
X131953000Y-78867000D02*
X131826000Y-78994000D01*
X134747000Y-78867000D02*
X131953000Y-78867000D01*
X135382000Y-78105000D02*
X135382000Y-78232000D01*
X135382000Y-78232000D02*
X134747000Y-78867000D01*
D19*
X130810000Y-110490000D02*
X131572000Y-109728000D01*
D21*
X136144000Y-93205042D02*
X136517042Y-92832000D01*
X136144000Y-93205042D02*
X136512042Y-93205042D01*
X136144000Y-93205042D02*
X136144000Y-92666434D01*
X136144000Y-92666434D02*
X136249217Y-92561217D01*
X136144000Y-93726000D02*
X136144000Y-93205042D01*
X136144000Y-93218000D02*
X136398000Y-93472000D01*
X136144000Y-93205042D02*
X136144000Y-93218000D01*
X136144000Y-93726000D02*
X136398000Y-93472000D01*
X136777521Y-93092479D02*
X136517042Y-92832000D01*
X136398000Y-93472000D02*
X136777521Y-93092479D01*
X136144000Y-94317434D02*
X136144000Y-93726000D01*
X135255000Y-95206434D02*
X136144000Y-94317434D01*
X131572000Y-109728000D02*
X132588010Y-108711990D01*
X132588010Y-105624118D02*
X135255000Y-102957128D01*
X132588010Y-108711990D02*
X132588010Y-105624118D01*
X135255000Y-102957128D02*
X135255000Y-95206434D01*
D19*
X130810000Y-115570000D02*
X131572000Y-114808000D01*
D21*
X132715000Y-113665000D02*
X131572000Y-114808000D01*
X132715000Y-111125000D02*
X132715000Y-113665000D01*
X133985000Y-109855000D02*
X132715000Y-111125000D01*
X136525000Y-96012000D02*
X136525000Y-103124000D01*
X137160000Y-95377000D02*
X136525000Y-96012000D01*
X136525000Y-103124000D02*
X133985000Y-105664000D01*
X133985000Y-105664000D02*
X133985000Y-109855000D01*
D19*
X130810000Y-113030000D02*
X131572000Y-112268000D01*
D21*
X135890000Y-95317367D02*
X136629769Y-94577598D01*
X135890000Y-103040564D02*
X135890000Y-95317367D01*
X133223000Y-105707564D02*
X135890000Y-103040564D01*
X136629769Y-94577598D02*
X137129768Y-94077599D01*
X131572000Y-112268000D02*
X132080001Y-111759999D01*
X132080001Y-111759999D02*
X132080001Y-110743999D01*
X132080001Y-110743999D02*
X133223000Y-109601000D01*
X133223000Y-109601000D02*
X133223000Y-105707564D01*
D19*
X156210000Y-118110000D02*
X155448000Y-117348000D01*
D20*
X150495000Y-95377000D02*
X151257000Y-95377000D01*
D21*
X154686000Y-116586000D02*
X155448000Y-117348000D01*
X151638000Y-101727000D02*
X152907951Y-102996951D01*
X152907951Y-102996951D02*
X152907951Y-109854951D01*
X151257000Y-95377000D02*
X151638000Y-95758000D01*
X152907951Y-109854951D02*
X153670000Y-110617000D01*
X154051000Y-114173000D02*
X154686000Y-114808000D01*
X154686000Y-114808000D02*
X154686000Y-116586000D01*
X153670000Y-110617000D02*
X153670000Y-112776000D01*
X151638000Y-95758000D02*
X151638000Y-101727000D01*
X153670000Y-112776000D02*
X154051000Y-113157000D01*
X154051000Y-113157000D02*
X154051000Y-114173000D01*
D19*
X156210000Y-115062000D02*
X155829000Y-114681000D01*
X156210000Y-115570000D02*
X156210000Y-115062000D01*
X155829000Y-114681000D02*
X155829000Y-115570000D01*
X155829000Y-115570000D02*
X155956000Y-115697000D01*
D20*
X150495000Y-94107000D02*
X152019000Y-94107000D01*
D21*
X154813000Y-113665000D02*
X155829000Y-114681000D01*
X154813000Y-112903000D02*
X154813000Y-113665000D01*
X154305000Y-112395000D02*
X154813000Y-112903000D01*
X153415961Y-109219961D02*
X154305000Y-110109000D01*
X154305000Y-110109000D02*
X154305000Y-112395000D01*
X152019000Y-94107000D02*
X152399949Y-94487949D01*
X152399950Y-101262514D02*
X153415961Y-102278527D01*
X152399949Y-94487949D02*
X152399950Y-101262514D01*
X153415961Y-102278527D02*
X153415961Y-109219961D01*
D19*
X156210000Y-113030000D02*
X155448000Y-112268000D01*
D20*
X150495000Y-92837000D02*
X152527000Y-92837000D01*
D21*
X154813000Y-111633000D02*
X155448000Y-112268000D01*
X154813000Y-109601000D02*
X154813000Y-111633000D01*
X152527000Y-92837000D02*
X152907958Y-93217958D01*
X152907958Y-93217958D02*
X152907959Y-101052087D01*
X152907959Y-101052087D02*
X153923978Y-102068106D01*
X153923978Y-108711978D02*
X154813000Y-109601000D01*
X153923978Y-102068106D02*
X153923978Y-108711978D01*
D22*
X134620000Y-77597000D02*
X134493000Y-77597000D01*
D20*
X134493000Y-77851000D02*
X134493000Y-77597000D01*
D19*
X133223000Y-77978000D02*
X134366000Y-77978000D01*
D20*
X134366000Y-77978000D02*
X134493000Y-77851000D01*
D19*
X133858000Y-77978000D02*
X133223000Y-77978000D01*
X134112000Y-77724000D02*
X133858000Y-77978000D01*
D20*
X134112000Y-77597000D02*
X133731000Y-77978000D01*
X134493000Y-77597000D02*
X134112000Y-77597000D01*
D22*
X149098000Y-117602000D02*
X149098000Y-115316000D01*
X149606000Y-117983000D02*
X149479000Y-117983000D01*
X149479000Y-117983000D02*
X149098000Y-117602000D01*
D21*
X150368000Y-114808000D02*
X149606000Y-114808000D01*
X151130000Y-114046000D02*
X150368000Y-114808000D01*
X144482425Y-96138989D02*
X147954989Y-96138989D01*
X143764000Y-95420564D02*
X144482425Y-96138989D01*
X147954989Y-96138989D02*
X150495000Y-98679000D01*
X143764000Y-94107000D02*
X143764000Y-95420564D01*
X144272000Y-93599000D02*
X143764000Y-94107000D01*
X150495000Y-104394000D02*
X148717000Y-106172000D01*
X150495000Y-98679000D02*
X150495000Y-104394000D01*
X149606000Y-114808000D02*
X149098000Y-115316000D01*
X148717000Y-106172000D02*
X148717000Y-110490000D01*
X151130000Y-112903000D02*
X151130000Y-114046000D01*
X148717000Y-110490000D02*
X151130000Y-112903000D01*
D19*
X137160000Y-73787000D02*
X136525000Y-73787000D01*
X138684000Y-84074000D02*
X138684000Y-75311000D01*
X140081000Y-85471000D02*
X138684000Y-84074000D01*
X140716000Y-89789000D02*
X140081000Y-89154000D01*
X138684000Y-75311000D02*
X137160000Y-73787000D01*
X140716000Y-94996000D02*
X140716000Y-89789000D01*
X141097000Y-98679000D02*
X141097000Y-95377000D01*
X140081000Y-89154000D02*
X140081000Y-85471000D01*
X140843000Y-98933000D02*
X141097000Y-98679000D01*
X141097000Y-95377000D02*
X140716000Y-94996000D01*
X141986000Y-98933000D02*
X140843000Y-98933000D01*
X141986000Y-98933000D02*
X141097000Y-98044000D01*
X141097000Y-98044000D02*
X141097000Y-98679000D01*
D21*
X146558000Y-109855000D02*
X146431000Y-109982000D01*
X146558000Y-105156000D02*
X146558000Y-109855000D01*
X148082000Y-103632000D02*
X146558000Y-105156000D01*
X148082000Y-103378000D02*
X148082000Y-103632000D01*
G36*
X153163427Y-112815429D02*
G01*
X153169352Y-112875585D01*
X153188971Y-112940260D01*
X153198400Y-112971343D01*
X153245571Y-113059595D01*
X153291862Y-113116000D01*
X153309053Y-113136948D01*
X153328430Y-113152850D01*
X153543000Y-113367421D01*
X153543001Y-114148046D01*
X153540543Y-114173000D01*
X153546817Y-114236697D01*
X153550352Y-114272585D01*
X153559682Y-114303341D01*
X153579400Y-114368343D01*
X153626571Y-114456595D01*
X153672159Y-114512144D01*
X153690053Y-114533948D01*
X153709430Y-114549850D01*
X154178000Y-115018420D01*
X154178001Y-116561046D01*
X154175543Y-116586000D01*
X154184458Y-116676505D01*
X154185352Y-116685585D01*
X154206669Y-116755857D01*
X154214400Y-116781343D01*
X154261571Y-116869595D01*
X154309150Y-116927570D01*
X154325053Y-116946948D01*
X154344430Y-116962850D01*
X154570379Y-117188799D01*
X154554700Y-117348000D01*
X154571864Y-117522274D01*
X154622698Y-117689852D01*
X154705248Y-117844291D01*
X154788505Y-117945740D01*
X154940000Y-118097235D01*
X154940000Y-118235084D01*
X154988805Y-118480445D01*
X155084541Y-118711571D01*
X155191736Y-118872000D01*
X149181421Y-118872000D01*
X148077855Y-117768435D01*
X148061948Y-117749052D01*
X147984595Y-117685571D01*
X147896343Y-117638399D01*
X147800585Y-117609351D01*
X147725947Y-117602000D01*
X147725944Y-117602000D01*
X147701000Y-117599543D01*
X147676056Y-117602000D01*
X139343943Y-117602000D01*
X139318999Y-117599543D01*
X139294055Y-117602000D01*
X139294053Y-117602000D01*
X139219415Y-117609351D01*
X139123657Y-117638399D01*
X139123655Y-117638400D01*
X139035404Y-117685571D01*
X138985555Y-117726481D01*
X138958052Y-117749052D01*
X138942150Y-117768429D01*
X137838580Y-118872000D01*
X131828264Y-118872000D01*
X131935459Y-118711571D01*
X132031195Y-118480445D01*
X132080000Y-118235084D01*
X132080000Y-118097235D01*
X132575235Y-117602000D01*
X136227340Y-117602000D01*
X136271000Y-117606300D01*
X136314660Y-117602000D01*
X136314667Y-117602000D01*
X136445274Y-117589136D01*
X136612851Y-117538303D01*
X136767291Y-117455753D01*
X136898588Y-117348000D01*
X137624340Y-117348000D01*
X137668000Y-117352300D01*
X137711660Y-117348000D01*
X137711667Y-117348000D01*
X137842274Y-117335136D01*
X138009851Y-117284303D01*
X138164291Y-117201753D01*
X138299659Y-117090659D01*
X138327498Y-117056737D01*
X138734235Y-116650001D01*
X138792604Y-116803318D01*
X138922607Y-117010622D01*
X139090555Y-117188580D01*
X139289994Y-117330354D01*
X139530961Y-117422395D01*
X139719500Y-117306256D01*
X139719500Y-116137500D01*
X140100500Y-116137500D01*
X140100500Y-117306256D01*
X140289039Y-117422395D01*
X140530006Y-117330354D01*
X140729445Y-117188580D01*
X140897393Y-117010622D01*
X141027396Y-116803318D01*
X141114458Y-116574635D01*
X141155233Y-116333361D01*
X145864767Y-116333361D01*
X145905542Y-116574635D01*
X145992604Y-116803318D01*
X146122607Y-117010622D01*
X146290555Y-117188580D01*
X146489994Y-117330354D01*
X146730961Y-117422395D01*
X146919500Y-117306256D01*
X146919500Y-116137500D01*
X147300500Y-116137500D01*
X147300500Y-117306256D01*
X147489039Y-117422395D01*
X147730006Y-117330354D01*
X147929445Y-117188580D01*
X148097393Y-117010622D01*
X148227396Y-116803318D01*
X148314458Y-116574635D01*
X148355233Y-116333361D01*
X148194662Y-116137500D01*
X147300500Y-116137500D01*
X146919500Y-116137500D01*
X146025338Y-116137500D01*
X145864767Y-116333361D01*
X141155233Y-116333361D01*
X140994662Y-116137500D01*
X140100500Y-116137500D01*
X139719500Y-116137500D01*
X139699500Y-116137500D01*
X139699500Y-115756500D01*
X139719500Y-115756500D01*
X139719500Y-115736500D01*
X140100500Y-115736500D01*
X140100500Y-115756500D01*
X140791214Y-115756500D01*
X140798329Y-115760303D01*
X140888317Y-115787600D01*
X140965905Y-115811136D01*
X140982505Y-115812771D01*
X141096513Y-115824000D01*
X141096520Y-115824000D01*
X141140180Y-115828300D01*
X141183840Y-115824000D01*
X145843780Y-115824000D01*
X145887440Y-115828300D01*
X145931100Y-115824000D01*
X145931107Y-115824000D01*
X146061714Y-115811136D01*
X146229291Y-115760303D01*
X146236406Y-115756500D01*
X146919500Y-115756500D01*
X146919500Y-115736500D01*
X147300500Y-115736500D01*
X147300500Y-115756500D01*
X148194662Y-115756500D01*
X148355233Y-115560639D01*
X148314458Y-115319365D01*
X148227396Y-115090682D01*
X148209409Y-115062000D01*
X148513748Y-115062000D01*
X148508499Y-115071820D01*
X148472189Y-115191518D01*
X148463001Y-115284808D01*
X148463000Y-117570819D01*
X148459929Y-117602000D01*
X148463000Y-117633181D01*
X148463000Y-117633191D01*
X148472188Y-117726481D01*
X148508498Y-117846179D01*
X148567463Y-117956493D01*
X148646815Y-118053185D01*
X148671050Y-118073074D01*
X148969942Y-118371966D01*
X148976513Y-118438689D01*
X148998299Y-118510508D01*
X149033678Y-118576696D01*
X149081289Y-118634711D01*
X149139304Y-118682322D01*
X149205492Y-118717701D01*
X149277311Y-118739487D01*
X149352000Y-118746843D01*
X149860000Y-118746843D01*
X149934689Y-118739487D01*
X149987000Y-118723619D01*
X150039311Y-118739487D01*
X150114000Y-118746843D01*
X150622000Y-118746843D01*
X150696689Y-118739487D01*
X150768508Y-118717701D01*
X150834696Y-118682322D01*
X150892711Y-118634711D01*
X150940322Y-118576696D01*
X150975701Y-118510508D01*
X150997487Y-118438689D01*
X151004843Y-118364000D01*
X151004843Y-117602000D01*
X151003994Y-117593377D01*
X151110753Y-117463291D01*
X151193303Y-117308851D01*
X151202457Y-117278674D01*
X151267996Y-117243642D01*
X151326011Y-117196031D01*
X151373622Y-117138016D01*
X151409001Y-117071828D01*
X151430787Y-117000009D01*
X151438143Y-116925320D01*
X151438143Y-116899989D01*
X152115352Y-116222780D01*
X152101210Y-116208638D01*
X152370618Y-115939230D01*
X152384760Y-115953372D01*
X152398902Y-115939230D01*
X152668310Y-116208638D01*
X152654168Y-116222780D01*
X152668310Y-116236922D01*
X152398902Y-116506330D01*
X152384760Y-116492188D01*
X151694082Y-117182866D01*
X151751667Y-117385410D01*
X151715682Y-117421395D01*
X151619268Y-117565690D01*
X151552856Y-117726022D01*
X151519000Y-117896229D01*
X151519000Y-118069771D01*
X151552856Y-118239978D01*
X151619268Y-118400310D01*
X151715682Y-118544605D01*
X151838395Y-118667318D01*
X151982690Y-118763732D01*
X152143022Y-118830144D01*
X152313229Y-118864000D01*
X152486771Y-118864000D01*
X152656978Y-118830144D01*
X152817310Y-118763732D01*
X152961605Y-118667318D01*
X153084318Y-118544605D01*
X153180732Y-118400310D01*
X153247144Y-118239978D01*
X153281000Y-118069771D01*
X153281000Y-118000025D01*
X153506069Y-117774957D01*
X153565538Y-117702494D01*
X153624502Y-117592180D01*
X153660811Y-117472481D01*
X153664293Y-117437127D01*
X153884570Y-117216851D01*
X153903948Y-117200948D01*
X153943580Y-117152656D01*
X153967429Y-117123596D01*
X154014600Y-117035345D01*
X154014601Y-117035342D01*
X154043649Y-116939585D01*
X154051000Y-116864947D01*
X154051000Y-116864945D01*
X154053457Y-116840001D01*
X154051000Y-116815057D01*
X154051000Y-115594944D01*
X154053457Y-115570000D01*
X154049601Y-115530852D01*
X154043649Y-115470415D01*
X154014601Y-115374657D01*
X153967429Y-115286405D01*
X153903948Y-115209052D01*
X153884565Y-115193145D01*
X153162000Y-114470580D01*
X153162000Y-112800944D01*
X153163427Y-112815429D01*
X153163427Y-112815429D01*
G37*
X153163427Y-112815429D02*
X153169352Y-112875585D01*
X153188971Y-112940260D01*
X153198400Y-112971343D01*
X153245571Y-113059595D01*
X153291862Y-113116000D01*
X153309053Y-113136948D01*
X153328430Y-113152850D01*
X153543000Y-113367421D01*
X153543001Y-114148046D01*
X153540543Y-114173000D01*
X153546817Y-114236697D01*
X153550352Y-114272585D01*
X153559682Y-114303341D01*
X153579400Y-114368343D01*
X153626571Y-114456595D01*
X153672159Y-114512144D01*
X153690053Y-114533948D01*
X153709430Y-114549850D01*
X154178000Y-115018420D01*
X154178001Y-116561046D01*
X154175543Y-116586000D01*
X154184458Y-116676505D01*
X154185352Y-116685585D01*
X154206669Y-116755857D01*
X154214400Y-116781343D01*
X154261571Y-116869595D01*
X154309150Y-116927570D01*
X154325053Y-116946948D01*
X154344430Y-116962850D01*
X154570379Y-117188799D01*
X154554700Y-117348000D01*
X154571864Y-117522274D01*
X154622698Y-117689852D01*
X154705248Y-117844291D01*
X154788505Y-117945740D01*
X154940000Y-118097235D01*
X154940000Y-118235084D01*
X154988805Y-118480445D01*
X155084541Y-118711571D01*
X155191736Y-118872000D01*
X149181421Y-118872000D01*
X148077855Y-117768435D01*
X148061948Y-117749052D01*
X147984595Y-117685571D01*
X147896343Y-117638399D01*
X147800585Y-117609351D01*
X147725947Y-117602000D01*
X147725944Y-117602000D01*
X147701000Y-117599543D01*
X147676056Y-117602000D01*
X139343943Y-117602000D01*
X139318999Y-117599543D01*
X139294055Y-117602000D01*
X139294053Y-117602000D01*
X139219415Y-117609351D01*
X139123657Y-117638399D01*
X139123655Y-117638400D01*
X139035404Y-117685571D01*
X138985555Y-117726481D01*
X138958052Y-117749052D01*
X138942150Y-117768429D01*
X137838580Y-118872000D01*
X131828264Y-118872000D01*
X131935459Y-118711571D01*
X132031195Y-118480445D01*
X132080000Y-118235084D01*
X132080000Y-118097235D01*
X132575235Y-117602000D01*
X136227340Y-117602000D01*
X136271000Y-117606300D01*
X136314660Y-117602000D01*
X136314667Y-117602000D01*
X136445274Y-117589136D01*
X136612851Y-117538303D01*
X136767291Y-117455753D01*
X136898588Y-117348000D01*
X137624340Y-117348000D01*
X137668000Y-117352300D01*
X137711660Y-117348000D01*
X137711667Y-117348000D01*
X137842274Y-117335136D01*
X138009851Y-117284303D01*
X138164291Y-117201753D01*
X138299659Y-117090659D01*
X138327498Y-117056737D01*
X138734235Y-116650001D01*
X138792604Y-116803318D01*
X138922607Y-117010622D01*
X139090555Y-117188580D01*
X139289994Y-117330354D01*
X139530961Y-117422395D01*
X139719500Y-117306256D01*
X139719500Y-116137500D01*
X140100500Y-116137500D01*
X140100500Y-117306256D01*
X140289039Y-117422395D01*
X140530006Y-117330354D01*
X140729445Y-117188580D01*
X140897393Y-117010622D01*
X141027396Y-116803318D01*
X141114458Y-116574635D01*
X141155233Y-116333361D01*
X145864767Y-116333361D01*
X145905542Y-116574635D01*
X145992604Y-116803318D01*
X146122607Y-117010622D01*
X146290555Y-117188580D01*
X146489994Y-117330354D01*
X146730961Y-117422395D01*
X146919500Y-117306256D01*
X146919500Y-116137500D01*
X147300500Y-116137500D01*
X147300500Y-117306256D01*
X147489039Y-117422395D01*
X147730006Y-117330354D01*
X147929445Y-117188580D01*
X148097393Y-117010622D01*
X148227396Y-116803318D01*
X148314458Y-116574635D01*
X148355233Y-116333361D01*
X148194662Y-116137500D01*
X147300500Y-116137500D01*
X146919500Y-116137500D01*
X146025338Y-116137500D01*
X145864767Y-116333361D01*
X141155233Y-116333361D01*
X140994662Y-116137500D01*
X140100500Y-116137500D01*
X139719500Y-116137500D01*
X139699500Y-116137500D01*
X139699500Y-115756500D01*
X139719500Y-115756500D01*
X139719500Y-115736500D01*
X140100500Y-115736500D01*
X140100500Y-115756500D01*
X140791214Y-115756500D01*
X140798329Y-115760303D01*
X140888317Y-115787600D01*
X140965905Y-115811136D01*
X140982505Y-115812771D01*
X141096513Y-115824000D01*
X141096520Y-115824000D01*
X141140180Y-115828300D01*
X141183840Y-115824000D01*
X145843780Y-115824000D01*
X145887440Y-115828300D01*
X145931100Y-115824000D01*
X145931107Y-115824000D01*
X146061714Y-115811136D01*
X146229291Y-115760303D01*
X146236406Y-115756500D01*
X146919500Y-115756500D01*
X146919500Y-115736500D01*
X147300500Y-115736500D01*
X147300500Y-115756500D01*
X148194662Y-115756500D01*
X148355233Y-115560639D01*
X148314458Y-115319365D01*
X148227396Y-115090682D01*
X148209409Y-115062000D01*
X148513748Y-115062000D01*
X148508499Y-115071820D01*
X148472189Y-115191518D01*
X148463001Y-115284808D01*
X148463000Y-117570819D01*
X148459929Y-117602000D01*
X148463000Y-117633181D01*
X148463000Y-117633191D01*
X148472188Y-117726481D01*
X148508498Y-117846179D01*
X148567463Y-117956493D01*
X148646815Y-118053185D01*
X148671050Y-118073074D01*
X148969942Y-118371966D01*
X148976513Y-118438689D01*
X148998299Y-118510508D01*
X149033678Y-118576696D01*
X149081289Y-118634711D01*
X149139304Y-118682322D01*
X149205492Y-118717701D01*
X149277311Y-118739487D01*
X149352000Y-118746843D01*
X149860000Y-118746843D01*
X149934689Y-118739487D01*
X149987000Y-118723619D01*
X150039311Y-118739487D01*
X150114000Y-118746843D01*
X150622000Y-118746843D01*
X150696689Y-118739487D01*
X150768508Y-118717701D01*
X150834696Y-118682322D01*
X150892711Y-118634711D01*
X150940322Y-118576696D01*
X150975701Y-118510508D01*
X150997487Y-118438689D01*
X151004843Y-118364000D01*
X151004843Y-117602000D01*
X151003994Y-117593377D01*
X151110753Y-117463291D01*
X151193303Y-117308851D01*
X151202457Y-117278674D01*
X151267996Y-117243642D01*
X151326011Y-117196031D01*
X151373622Y-117138016D01*
X151409001Y-117071828D01*
X151430787Y-117000009D01*
X151438143Y-116925320D01*
X151438143Y-116899989D01*
X152115352Y-116222780D01*
X152101210Y-116208638D01*
X152370618Y-115939230D01*
X152384760Y-115953372D01*
X152398902Y-115939230D01*
X152668310Y-116208638D01*
X152654168Y-116222780D01*
X152668310Y-116236922D01*
X152398902Y-116506330D01*
X152384760Y-116492188D01*
X151694082Y-117182866D01*
X151751667Y-117385410D01*
X151715682Y-117421395D01*
X151619268Y-117565690D01*
X151552856Y-117726022D01*
X151519000Y-117896229D01*
X151519000Y-118069771D01*
X151552856Y-118239978D01*
X151619268Y-118400310D01*
X151715682Y-118544605D01*
X151838395Y-118667318D01*
X151982690Y-118763732D01*
X152143022Y-118830144D01*
X152313229Y-118864000D01*
X152486771Y-118864000D01*
X152656978Y-118830144D01*
X152817310Y-118763732D01*
X152961605Y-118667318D01*
X153084318Y-118544605D01*
X153180732Y-118400310D01*
X153247144Y-118239978D01*
X153281000Y-118069771D01*
X153281000Y-118000025D01*
X153506069Y-117774957D01*
X153565538Y-117702494D01*
X153624502Y-117592180D01*
X153660811Y-117472481D01*
X153664293Y-117437127D01*
X153884570Y-117216851D01*
X153903948Y-117200948D01*
X153943580Y-117152656D01*
X153967429Y-117123596D01*
X154014600Y-117035345D01*
X154014601Y-117035342D01*
X154043649Y-116939585D01*
X154051000Y-116864947D01*
X154051000Y-116864945D01*
X154053457Y-116840001D01*
X154051000Y-116815057D01*
X154051000Y-115594944D01*
X154053457Y-115570000D01*
X154049601Y-115530852D01*
X154043649Y-115470415D01*
X154014601Y-115374657D01*
X153967429Y-115286405D01*
X153903948Y-115209052D01*
X153884565Y-115193145D01*
X153162000Y-114470580D01*
X153162000Y-112800944D01*
X153163427Y-112815429D01*
G36*
X137287000Y-84553348D02*
G01*
X137284543Y-84578292D01*
X137287000Y-84603236D01*
X137287000Y-84603238D01*
X137294351Y-84677876D01*
X137323399Y-84773634D01*
X137370571Y-84861887D01*
X137434052Y-84939240D01*
X137453435Y-84955147D01*
X138430001Y-85931714D01*
X138430000Y-89637056D01*
X138427543Y-89662000D01*
X138430000Y-89686944D01*
X138430000Y-89686946D01*
X138437351Y-89761584D01*
X138466399Y-89857342D01*
X138513571Y-89945595D01*
X138577052Y-90022948D01*
X138596435Y-90038855D01*
X139065001Y-90507421D01*
X139065000Y-95655077D01*
X139015682Y-95704395D01*
X138919268Y-95848690D01*
X138852856Y-96009022D01*
X138819000Y-96179229D01*
X138819000Y-96352771D01*
X138852856Y-96522978D01*
X138919268Y-96683310D01*
X139015682Y-96827605D01*
X139065001Y-96876924D01*
X139065000Y-99998104D01*
X139062543Y-100023048D01*
X139065000Y-100047992D01*
X139065000Y-100047994D01*
X139072351Y-100122632D01*
X139101399Y-100218390D01*
X139148571Y-100306643D01*
X139212052Y-100383996D01*
X139231435Y-100399903D01*
X141867292Y-103035761D01*
X141867000Y-103037229D01*
X141867000Y-103210771D01*
X141900856Y-103380978D01*
X141967268Y-103541310D01*
X142063682Y-103685605D01*
X142186395Y-103808318D01*
X142330690Y-103904732D01*
X142491022Y-103971144D01*
X142661229Y-104005000D01*
X142834771Y-104005000D01*
X143004978Y-103971144D01*
X143165310Y-103904732D01*
X143309605Y-103808318D01*
X143432318Y-103685605D01*
X143528732Y-103541310D01*
X143595144Y-103380978D01*
X143629000Y-103210771D01*
X143629000Y-103037229D01*
X143595144Y-102867022D01*
X143528732Y-102706690D01*
X143432318Y-102562395D01*
X143309605Y-102439682D01*
X143165310Y-102343268D01*
X143004978Y-102276856D01*
X142834771Y-102243000D01*
X142661229Y-102243000D01*
X142536235Y-102267863D01*
X140081000Y-99812628D01*
X140081000Y-99393282D01*
X140100247Y-99429291D01*
X140211341Y-99564659D01*
X140346709Y-99675753D01*
X140501149Y-99758303D01*
X140668726Y-99809136D01*
X140799333Y-99822000D01*
X140799340Y-99822000D01*
X140843000Y-99826300D01*
X140886660Y-99822000D01*
X141942340Y-99822000D01*
X141986000Y-99826300D01*
X142029660Y-99822000D01*
X142029667Y-99822000D01*
X142143675Y-99810771D01*
X142160275Y-99809136D01*
X142211108Y-99793716D01*
X142327851Y-99758303D01*
X142482291Y-99675753D01*
X142617659Y-99564659D01*
X142728753Y-99429291D01*
X142811303Y-99274851D01*
X142862136Y-99107274D01*
X142862909Y-99099431D01*
X142865301Y-99075136D01*
X142879301Y-98933000D01*
X142862136Y-98758726D01*
X142811303Y-98591149D01*
X142728753Y-98436709D01*
X142617659Y-98301341D01*
X142583741Y-98273505D01*
X141986000Y-97675765D01*
X141986000Y-95420659D01*
X141990300Y-95376999D01*
X141986000Y-95333339D01*
X141986000Y-95333333D01*
X141973136Y-95202726D01*
X141973136Y-95202724D01*
X141939974Y-95093405D01*
X141922303Y-95035149D01*
X141839753Y-94880709D01*
X141728659Y-94745341D01*
X141694731Y-94717497D01*
X141605000Y-94627766D01*
X141605000Y-89832660D01*
X141609300Y-89789000D01*
X141605000Y-89745340D01*
X141605000Y-89745333D01*
X141592136Y-89614726D01*
X141584213Y-89588605D01*
X141563726Y-89521069D01*
X141541303Y-89447149D01*
X141458753Y-89292709D01*
X141380753Y-89197666D01*
X141375495Y-89191259D01*
X141375494Y-89191258D01*
X141347659Y-89157341D01*
X141313741Y-89129505D01*
X140970000Y-88785765D01*
X140970000Y-85681420D01*
X142748000Y-87459420D01*
X142748001Y-95606046D01*
X142745543Y-95631000D01*
X142753037Y-95707082D01*
X142755352Y-95730585D01*
X142764924Y-95762139D01*
X142784400Y-95826343D01*
X142831571Y-95914595D01*
X142855413Y-95943646D01*
X142895053Y-95991948D01*
X142914430Y-96007850D01*
X143895149Y-96988570D01*
X143911052Y-97007948D01*
X143930429Y-97023850D01*
X143988404Y-97071429D01*
X144009306Y-97082601D01*
X144076657Y-97118601D01*
X144172415Y-97147649D01*
X144247053Y-97155000D01*
X144247056Y-97155000D01*
X144272000Y-97157457D01*
X144296944Y-97155000D01*
X147363580Y-97155000D01*
X148814031Y-98605451D01*
X148720341Y-98682341D01*
X148609247Y-98817710D01*
X148526697Y-98972150D01*
X148475864Y-99139727D01*
X148463000Y-99270334D01*
X148463001Y-102582228D01*
X148338978Y-102530856D01*
X148168771Y-102497000D01*
X147995229Y-102497000D01*
X147825022Y-102530856D01*
X147664690Y-102597268D01*
X147520395Y-102693682D01*
X147397682Y-102816395D01*
X147301268Y-102960690D01*
X147234856Y-103121022D01*
X147201000Y-103291229D01*
X147201000Y-103464771D01*
X147234856Y-103634978D01*
X147271686Y-103723893D01*
X146216435Y-104779145D01*
X146197052Y-104795052D01*
X146133571Y-104872405D01*
X146086399Y-104960658D01*
X146057351Y-105056416D01*
X146051713Y-105113661D01*
X146047543Y-105156000D01*
X146050000Y-105180944D01*
X146050001Y-108901657D01*
X145972318Y-108785395D01*
X145849605Y-108662682D01*
X145705310Y-108566268D01*
X145544978Y-108499856D01*
X145374771Y-108466000D01*
X145201229Y-108466000D01*
X145031022Y-108499856D01*
X144870690Y-108566268D01*
X144726395Y-108662682D01*
X144603682Y-108785395D01*
X144567865Y-108839000D01*
X141580923Y-108839000D01*
X141531605Y-108789682D01*
X141387310Y-108693268D01*
X141226978Y-108626856D01*
X141056771Y-108593000D01*
X140883229Y-108593000D01*
X140713022Y-108626856D01*
X140552690Y-108693268D01*
X140408395Y-108789682D01*
X140285682Y-108912395D01*
X140189268Y-109056690D01*
X140122856Y-109217022D01*
X140089000Y-109387229D01*
X140089000Y-109560771D01*
X140122856Y-109730978D01*
X140189268Y-109891310D01*
X140285682Y-110035605D01*
X140408395Y-110158318D01*
X140552690Y-110254732D01*
X140713022Y-110321144D01*
X140883229Y-110355000D01*
X141056771Y-110355000D01*
X141226978Y-110321144D01*
X141387310Y-110254732D01*
X141531605Y-110158318D01*
X141654318Y-110035605D01*
X141750732Y-109891310D01*
X141765772Y-109855000D01*
X144567865Y-109855000D01*
X144603682Y-109908605D01*
X144726395Y-110031318D01*
X144747620Y-110045500D01*
X144726395Y-110059682D01*
X144603682Y-110182395D01*
X144507268Y-110326690D01*
X144440856Y-110487022D01*
X144415002Y-110617000D01*
X139470943Y-110617000D01*
X139445999Y-110614543D01*
X139421055Y-110617000D01*
X139421053Y-110617000D01*
X139346415Y-110624351D01*
X139250657Y-110653399D01*
X139250655Y-110653400D01*
X139162404Y-110700571D01*
X139113558Y-110740658D01*
X139085052Y-110764052D01*
X139069150Y-110783429D01*
X136695580Y-113157000D01*
X136356135Y-113157000D01*
X136320318Y-113103395D01*
X136197605Y-112980682D01*
X136053310Y-112884268D01*
X135892978Y-112817856D01*
X135722771Y-112784000D01*
X135549229Y-112784000D01*
X135379022Y-112817856D01*
X135218690Y-112884268D01*
X135074395Y-112980682D01*
X134951682Y-113103395D01*
X134855268Y-113247690D01*
X134788856Y-113408022D01*
X134755000Y-113578229D01*
X134755000Y-113751771D01*
X134788856Y-113921978D01*
X134855268Y-114082310D01*
X134951682Y-114226605D01*
X135074395Y-114349318D01*
X135218690Y-114445732D01*
X135379022Y-114512144D01*
X135549229Y-114546000D01*
X135722771Y-114546000D01*
X135892978Y-114512144D01*
X136053310Y-114445732D01*
X136197605Y-114349318D01*
X136320318Y-114226605D01*
X136356135Y-114173000D01*
X136881056Y-114173000D01*
X136906000Y-114175457D01*
X136930944Y-114173000D01*
X136930947Y-114173000D01*
X137005585Y-114165649D01*
X137101343Y-114136601D01*
X137189595Y-114089429D01*
X137266948Y-114025948D01*
X137282855Y-114006565D01*
X138675000Y-112614421D01*
X138675000Y-112667502D01*
X138825336Y-112667502D01*
X138664767Y-112863361D01*
X138705542Y-113104635D01*
X138792604Y-113333318D01*
X138845687Y-113417965D01*
X138822709Y-113430247D01*
X138687341Y-113541341D01*
X138659505Y-113575259D01*
X137705259Y-114529506D01*
X137671342Y-114557341D01*
X137643507Y-114591258D01*
X137643505Y-114591260D01*
X137560248Y-114692709D01*
X137477698Y-114847148D01*
X137448069Y-114944821D01*
X137426864Y-115014726D01*
X137414000Y-115145333D01*
X137414000Y-115145340D01*
X137409700Y-115189000D01*
X137414000Y-115232660D01*
X137414000Y-115455764D01*
X137299765Y-115570000D01*
X136568659Y-115570000D01*
X136524999Y-115565700D01*
X136481339Y-115570000D01*
X136481333Y-115570000D01*
X136383924Y-115579594D01*
X136350724Y-115582864D01*
X136295570Y-115599595D01*
X136183149Y-115633697D01*
X136028709Y-115716247D01*
X135897412Y-115824000D01*
X135571018Y-115824000D01*
X135587908Y-115783225D01*
X135616000Y-115641997D01*
X135616000Y-115498003D01*
X135587908Y-115356775D01*
X135532804Y-115223742D01*
X135452805Y-115104015D01*
X135350985Y-115002195D01*
X135231258Y-114922196D01*
X135098225Y-114867092D01*
X134956997Y-114839000D01*
X134813003Y-114839000D01*
X134671775Y-114867092D01*
X134538742Y-114922196D01*
X134419015Y-115002195D01*
X134317195Y-115104015D01*
X134237196Y-115223742D01*
X134182092Y-115356775D01*
X134154000Y-115498003D01*
X134154000Y-115641997D01*
X134182092Y-115783225D01*
X134198982Y-115824000D01*
X133771018Y-115824000D01*
X133787908Y-115783225D01*
X133816000Y-115641997D01*
X133816000Y-115498003D01*
X133787908Y-115356775D01*
X133732804Y-115223742D01*
X133652805Y-115104015D01*
X133550985Y-115002195D01*
X133431258Y-114922196D01*
X133298225Y-114867092D01*
X133156997Y-114839000D01*
X133013003Y-114839000D01*
X132871775Y-114867092D01*
X132738742Y-114922196D01*
X132619015Y-115002195D01*
X132517195Y-115104015D01*
X132437196Y-115223742D01*
X132382092Y-115356775D01*
X132354000Y-115498003D01*
X132354000Y-115641997D01*
X132382092Y-115783225D01*
X132398982Y-115824000D01*
X132250659Y-115824000D01*
X132206999Y-115819700D01*
X132163339Y-115824000D01*
X132163333Y-115824000D01*
X132065924Y-115833594D01*
X132052180Y-115834948D01*
X132080000Y-115695084D01*
X132080000Y-115557236D01*
X132231495Y-115405741D01*
X132314752Y-115304292D01*
X132397302Y-115149852D01*
X132448136Y-114982275D01*
X132465300Y-114808000D01*
X132449621Y-114648800D01*
X133056571Y-114041850D01*
X133075948Y-114025948D01*
X133115579Y-113977657D01*
X133139429Y-113948596D01*
X133171067Y-113889405D01*
X133186601Y-113860343D01*
X133215649Y-113764585D01*
X133223000Y-113689947D01*
X133223000Y-113689945D01*
X133225457Y-113665001D01*
X133223000Y-113640057D01*
X133223000Y-113115135D01*
X133313690Y-113175732D01*
X133474022Y-113242144D01*
X133644229Y-113276000D01*
X133817771Y-113276000D01*
X133987978Y-113242144D01*
X134148310Y-113175732D01*
X134292605Y-113079318D01*
X134415318Y-112956605D01*
X134511732Y-112812310D01*
X134578144Y-112651978D01*
X134612000Y-112481771D01*
X134612000Y-112308229D01*
X134599423Y-112244997D01*
X134830420Y-112014000D01*
X135738056Y-112014000D01*
X135763000Y-112016457D01*
X135787944Y-112014000D01*
X135787947Y-112014000D01*
X135862585Y-112006649D01*
X135958343Y-111977601D01*
X136046595Y-111930429D01*
X136123948Y-111866948D01*
X136139855Y-111847565D01*
X136993565Y-110993855D01*
X137012948Y-110977948D01*
X137076429Y-110900595D01*
X137123601Y-110812343D01*
X137152649Y-110716585D01*
X137160000Y-110641947D01*
X137160000Y-110641944D01*
X137162457Y-110617000D01*
X137160000Y-110592053D01*
X137160000Y-109049420D01*
X140079069Y-106130352D01*
X140248229Y-106164000D01*
X140421771Y-106164000D01*
X140591978Y-106130144D01*
X140752310Y-106063732D01*
X140896605Y-105967318D01*
X141019318Y-105844605D01*
X141115732Y-105700310D01*
X141182144Y-105539978D01*
X141196813Y-105466233D01*
X142121000Y-106390421D01*
X142121000Y-106512771D01*
X142154856Y-106682978D01*
X142221268Y-106843310D01*
X142317682Y-106987605D01*
X142440395Y-107110318D01*
X142584690Y-107206732D01*
X142745022Y-107273144D01*
X142915229Y-107307000D01*
X143088771Y-107307000D01*
X143258978Y-107273144D01*
X143419310Y-107206732D01*
X143563605Y-107110318D01*
X143686318Y-106987605D01*
X143782732Y-106843310D01*
X143849144Y-106682978D01*
X143883000Y-106512771D01*
X143883000Y-106339229D01*
X143849144Y-106169022D01*
X143782732Y-106008690D01*
X143686318Y-105864395D01*
X143563605Y-105741682D01*
X143419310Y-105645268D01*
X143258978Y-105578856D01*
X143088771Y-105545000D01*
X142915229Y-105545000D01*
X142746069Y-105578648D01*
X140203855Y-103036435D01*
X140187948Y-103017052D01*
X140110595Y-102953571D01*
X140022343Y-102906399D01*
X139926585Y-102877351D01*
X139851947Y-102870000D01*
X139851944Y-102870000D01*
X139827000Y-102867543D01*
X139802056Y-102870000D01*
X139658135Y-102870000D01*
X139622318Y-102816395D01*
X139499605Y-102693682D01*
X139355310Y-102597268D01*
X139194978Y-102530856D01*
X139024771Y-102497000D01*
X138851229Y-102497000D01*
X138681022Y-102530856D01*
X138520690Y-102597268D01*
X138376395Y-102693682D01*
X138253682Y-102816395D01*
X138157268Y-102960690D01*
X138090856Y-103121022D01*
X138057000Y-103291229D01*
X138057000Y-103464771D01*
X138090856Y-103634978D01*
X138157268Y-103795310D01*
X138253682Y-103939605D01*
X138376395Y-104062318D01*
X138520690Y-104158732D01*
X138681022Y-104225144D01*
X138851229Y-104259000D01*
X139024771Y-104259000D01*
X139194978Y-104225144D01*
X139355310Y-104158732D01*
X139499605Y-104062318D01*
X139622318Y-103939605D01*
X139641491Y-103910911D01*
X140151767Y-104421187D01*
X140078022Y-104435856D01*
X139917690Y-104502268D01*
X139773395Y-104598682D01*
X139650682Y-104721395D01*
X139554268Y-104865690D01*
X139487856Y-105026022D01*
X139454000Y-105196229D01*
X139454000Y-105318579D01*
X138284717Y-106487862D01*
X138239302Y-106338148D01*
X138156752Y-106183709D01*
X138045659Y-106048341D01*
X137910291Y-105937248D01*
X137755852Y-105854698D01*
X137588275Y-105803864D01*
X137414000Y-105786700D01*
X137239725Y-105803864D01*
X137072147Y-105854698D01*
X136917708Y-105937248D01*
X136816259Y-106020505D01*
X134911264Y-107925501D01*
X134877341Y-107953341D01*
X134766247Y-108088710D01*
X134683697Y-108243150D01*
X134632864Y-108410727D01*
X134620000Y-108541334D01*
X134620000Y-108541340D01*
X134615700Y-108585000D01*
X134620000Y-108628660D01*
X134620001Y-110406667D01*
X134632865Y-110537274D01*
X134683698Y-110704851D01*
X134766248Y-110859291D01*
X134877342Y-110994659D01*
X134881413Y-110998000D01*
X134644944Y-110998000D01*
X134620000Y-110995543D01*
X134595056Y-110998000D01*
X134595053Y-110998000D01*
X134520415Y-111005351D01*
X134424657Y-111034399D01*
X134336405Y-111081571D01*
X134259052Y-111145052D01*
X134243145Y-111164435D01*
X133881003Y-111526577D01*
X133817771Y-111514000D01*
X133644229Y-111514000D01*
X133474022Y-111547856D01*
X133313690Y-111614268D01*
X133223000Y-111674865D01*
X133223000Y-111335420D01*
X134326571Y-110231850D01*
X134345948Y-110215948D01*
X134377630Y-110177343D01*
X134409429Y-110138596D01*
X134456600Y-110050345D01*
X134456601Y-110050342D01*
X134485649Y-109954585D01*
X134493000Y-109879947D01*
X134493000Y-109879945D01*
X134495457Y-109855001D01*
X134493000Y-109830057D01*
X134493000Y-105874420D01*
X136866571Y-103500850D01*
X136885948Y-103484948D01*
X136925579Y-103436657D01*
X136949429Y-103407596D01*
X136996600Y-103319345D01*
X137002863Y-103298699D01*
X137025649Y-103223585D01*
X137033000Y-103148947D01*
X137033000Y-103148945D01*
X137035457Y-103124001D01*
X137033000Y-103099057D01*
X137033000Y-96249998D01*
X137073229Y-96258000D01*
X137246771Y-96258000D01*
X137416978Y-96224144D01*
X137577310Y-96157732D01*
X137721605Y-96061318D01*
X137844318Y-95938605D01*
X137940732Y-95794310D01*
X138007144Y-95633978D01*
X138041000Y-95463771D01*
X138041000Y-95290229D01*
X138007144Y-95120022D01*
X137940732Y-94959690D01*
X137844318Y-94815395D01*
X137741107Y-94712184D01*
X137814086Y-94639204D01*
X137910500Y-94494909D01*
X137976912Y-94334577D01*
X138010768Y-94164370D01*
X138010768Y-93990828D01*
X137976912Y-93820621D01*
X137910500Y-93660289D01*
X137814086Y-93515994D01*
X137691373Y-93393281D01*
X137547078Y-93296867D01*
X137386746Y-93230455D01*
X137311762Y-93215540D01*
X137364186Y-93088978D01*
X137398042Y-92918771D01*
X137398042Y-92745229D01*
X137364186Y-92575022D01*
X137297774Y-92414690D01*
X137201360Y-92270395D01*
X137134444Y-92203479D01*
X137209318Y-92128605D01*
X137305732Y-91984310D01*
X137372144Y-91823978D01*
X137406000Y-91653771D01*
X137406000Y-91480229D01*
X137372144Y-91310022D01*
X137305732Y-91149690D01*
X137209318Y-91005395D01*
X137086605Y-90882682D01*
X136942310Y-90786268D01*
X136781978Y-90719856D01*
X136611771Y-90686000D01*
X136438229Y-90686000D01*
X136268022Y-90719856D01*
X136107690Y-90786268D01*
X135963395Y-90882682D01*
X135840682Y-91005395D01*
X135744268Y-91149690D01*
X135677856Y-91310022D01*
X135644000Y-91480229D01*
X135644000Y-91653771D01*
X135656577Y-91717003D01*
X135294426Y-92079154D01*
X135275049Y-92095056D01*
X135259147Y-92114433D01*
X135259146Y-92114434D01*
X135211567Y-92172409D01*
X135174368Y-92242005D01*
X135164396Y-92260661D01*
X135135359Y-92356385D01*
X135135348Y-92356420D01*
X135125539Y-92456004D01*
X135127997Y-92480958D01*
X135127995Y-93896582D01*
X134278475Y-94746103D01*
X134259092Y-94762010D01*
X134195611Y-94839363D01*
X134148439Y-94927616D01*
X134119391Y-95023374D01*
X134113987Y-95078246D01*
X134109583Y-95122958D01*
X134112040Y-95147902D01*
X134112041Y-102663230D01*
X132116629Y-104658643D01*
X131905902Y-104583505D01*
X131079408Y-105410000D01*
X131093550Y-105424142D01*
X130824142Y-105693550D01*
X130810000Y-105679408D01*
X130795858Y-105693550D01*
X130526450Y-105424142D01*
X130540592Y-105410000D01*
X130526450Y-105395858D01*
X130795858Y-105126450D01*
X130810000Y-105140592D01*
X131636495Y-104314098D01*
X131549009Y-104068742D01*
X131394623Y-104002479D01*
X131411571Y-103995459D01*
X131619578Y-103856473D01*
X131796473Y-103679578D01*
X131935459Y-103471571D01*
X132031195Y-103240445D01*
X132080000Y-102995084D01*
X132080000Y-102857236D01*
X132231495Y-102705741D01*
X132314752Y-102604292D01*
X132397302Y-102449852D01*
X132448136Y-102282275D01*
X132465300Y-102108000D01*
X132449621Y-101948799D01*
X132675565Y-101722855D01*
X132694948Y-101706948D01*
X132758429Y-101629595D01*
X132805601Y-101541343D01*
X132834649Y-101445585D01*
X132842000Y-101370947D01*
X132842000Y-101370944D01*
X132844457Y-101346000D01*
X132842000Y-101321056D01*
X132842000Y-100540420D01*
X133183570Y-100198851D01*
X133202948Y-100182948D01*
X133242579Y-100134657D01*
X133266429Y-100105596D01*
X133313600Y-100017345D01*
X133313601Y-100017343D01*
X133342649Y-99921585D01*
X133350000Y-99846947D01*
X133350000Y-99846945D01*
X133352457Y-99822001D01*
X133350000Y-99797057D01*
X133350000Y-98047698D01*
X133437594Y-97960104D01*
X133456977Y-97944197D01*
X133520458Y-97866844D01*
X133536261Y-97837278D01*
X133567629Y-97778594D01*
X133580036Y-97737694D01*
X133596678Y-97682834D01*
X133604029Y-97608196D01*
X133604029Y-97608194D01*
X133606486Y-97583250D01*
X133604029Y-97558306D01*
X133604029Y-94698391D01*
X134453557Y-93848864D01*
X134472934Y-93832962D01*
X134524852Y-93769699D01*
X134536415Y-93755610D01*
X134583586Y-93667359D01*
X134583587Y-93667357D01*
X134612635Y-93571599D01*
X134619986Y-93496961D01*
X134619986Y-93496959D01*
X134622443Y-93472015D01*
X134619986Y-93447071D01*
X134619986Y-91461789D01*
X135723571Y-90358205D01*
X135742948Y-90342303D01*
X135789736Y-90285291D01*
X135806429Y-90264951D01*
X135842527Y-90197415D01*
X135853601Y-90176698D01*
X135882649Y-90080940D01*
X135890000Y-90006301D01*
X135890000Y-90006300D01*
X135892457Y-89981356D01*
X135890000Y-89956412D01*
X135890000Y-89789000D01*
X136079655Y-89789000D01*
X136107690Y-89807732D01*
X136268022Y-89874144D01*
X136438229Y-89908000D01*
X136611771Y-89908000D01*
X136781978Y-89874144D01*
X136942310Y-89807732D01*
X137086605Y-89711318D01*
X137209318Y-89588605D01*
X137305732Y-89444310D01*
X137372144Y-89283978D01*
X137406000Y-89113771D01*
X137406000Y-88940229D01*
X137372144Y-88770022D01*
X137305732Y-88609690D01*
X137209318Y-88465395D01*
X137135923Y-88392000D01*
X137209318Y-88318605D01*
X137305732Y-88174310D01*
X137372144Y-88013978D01*
X137406000Y-87843771D01*
X137406000Y-87670229D01*
X137372144Y-87500022D01*
X137305732Y-87339690D01*
X137209318Y-87195395D01*
X137135923Y-87122000D01*
X137209318Y-87048605D01*
X137305732Y-86904310D01*
X137372144Y-86743978D01*
X137406000Y-86573771D01*
X137406000Y-86400229D01*
X137372144Y-86230022D01*
X137305732Y-86069690D01*
X137209318Y-85925395D01*
X137135923Y-85852000D01*
X137209318Y-85778605D01*
X137305732Y-85634310D01*
X137372144Y-85473978D01*
X137406000Y-85303771D01*
X137406000Y-85130229D01*
X137372144Y-84960022D01*
X137305732Y-84799690D01*
X137209318Y-84655395D01*
X137135923Y-84582000D01*
X137209318Y-84508605D01*
X137287000Y-84392345D01*
X137287000Y-84553348D01*
X137287000Y-84553348D01*
G37*
X137287000Y-84553348D02*
X137284543Y-84578292D01*
X137287000Y-84603236D01*
X137287000Y-84603238D01*
X137294351Y-84677876D01*
X137323399Y-84773634D01*
X137370571Y-84861887D01*
X137434052Y-84939240D01*
X137453435Y-84955147D01*
X138430001Y-85931714D01*
X138430000Y-89637056D01*
X138427543Y-89662000D01*
X138430000Y-89686944D01*
X138430000Y-89686946D01*
X138437351Y-89761584D01*
X138466399Y-89857342D01*
X138513571Y-89945595D01*
X138577052Y-90022948D01*
X138596435Y-90038855D01*
X139065001Y-90507421D01*
X139065000Y-95655077D01*
X139015682Y-95704395D01*
X138919268Y-95848690D01*
X138852856Y-96009022D01*
X138819000Y-96179229D01*
X138819000Y-96352771D01*
X138852856Y-96522978D01*
X138919268Y-96683310D01*
X139015682Y-96827605D01*
X139065001Y-96876924D01*
X139065000Y-99998104D01*
X139062543Y-100023048D01*
X139065000Y-100047992D01*
X139065000Y-100047994D01*
X139072351Y-100122632D01*
X139101399Y-100218390D01*
X139148571Y-100306643D01*
X139212052Y-100383996D01*
X139231435Y-100399903D01*
X141867292Y-103035761D01*
X141867000Y-103037229D01*
X141867000Y-103210771D01*
X141900856Y-103380978D01*
X141967268Y-103541310D01*
X142063682Y-103685605D01*
X142186395Y-103808318D01*
X142330690Y-103904732D01*
X142491022Y-103971144D01*
X142661229Y-104005000D01*
X142834771Y-104005000D01*
X143004978Y-103971144D01*
X143165310Y-103904732D01*
X143309605Y-103808318D01*
X143432318Y-103685605D01*
X143528732Y-103541310D01*
X143595144Y-103380978D01*
X143629000Y-103210771D01*
X143629000Y-103037229D01*
X143595144Y-102867022D01*
X143528732Y-102706690D01*
X143432318Y-102562395D01*
X143309605Y-102439682D01*
X143165310Y-102343268D01*
X143004978Y-102276856D01*
X142834771Y-102243000D01*
X142661229Y-102243000D01*
X142536235Y-102267863D01*
X140081000Y-99812628D01*
X140081000Y-99393282D01*
X140100247Y-99429291D01*
X140211341Y-99564659D01*
X140346709Y-99675753D01*
X140501149Y-99758303D01*
X140668726Y-99809136D01*
X140799333Y-99822000D01*
X140799340Y-99822000D01*
X140843000Y-99826300D01*
X140886660Y-99822000D01*
X141942340Y-99822000D01*
X141986000Y-99826300D01*
X142029660Y-99822000D01*
X142029667Y-99822000D01*
X142143675Y-99810771D01*
X142160275Y-99809136D01*
X142211108Y-99793716D01*
X142327851Y-99758303D01*
X142482291Y-99675753D01*
X142617659Y-99564659D01*
X142728753Y-99429291D01*
X142811303Y-99274851D01*
X142862136Y-99107274D01*
X142862909Y-99099431D01*
X142865301Y-99075136D01*
X142879301Y-98933000D01*
X142862136Y-98758726D01*
X142811303Y-98591149D01*
X142728753Y-98436709D01*
X142617659Y-98301341D01*
X142583741Y-98273505D01*
X141986000Y-97675765D01*
X141986000Y-95420659D01*
X141990300Y-95376999D01*
X141986000Y-95333339D01*
X141986000Y-95333333D01*
X141973136Y-95202726D01*
X141973136Y-95202724D01*
X141939974Y-95093405D01*
X141922303Y-95035149D01*
X141839753Y-94880709D01*
X141728659Y-94745341D01*
X141694731Y-94717497D01*
X141605000Y-94627766D01*
X141605000Y-89832660D01*
X141609300Y-89789000D01*
X141605000Y-89745340D01*
X141605000Y-89745333D01*
X141592136Y-89614726D01*
X141584213Y-89588605D01*
X141563726Y-89521069D01*
X141541303Y-89447149D01*
X141458753Y-89292709D01*
X141380753Y-89197666D01*
X141375495Y-89191259D01*
X141375494Y-89191258D01*
X141347659Y-89157341D01*
X141313741Y-89129505D01*
X140970000Y-88785765D01*
X140970000Y-85681420D01*
X142748000Y-87459420D01*
X142748001Y-95606046D01*
X142745543Y-95631000D01*
X142753037Y-95707082D01*
X142755352Y-95730585D01*
X142764924Y-95762139D01*
X142784400Y-95826343D01*
X142831571Y-95914595D01*
X142855413Y-95943646D01*
X142895053Y-95991948D01*
X142914430Y-96007850D01*
X143895149Y-96988570D01*
X143911052Y-97007948D01*
X143930429Y-97023850D01*
X143988404Y-97071429D01*
X144009306Y-97082601D01*
X144076657Y-97118601D01*
X144172415Y-97147649D01*
X144247053Y-97155000D01*
X144247056Y-97155000D01*
X144272000Y-97157457D01*
X144296944Y-97155000D01*
X147363580Y-97155000D01*
X148814031Y-98605451D01*
X148720341Y-98682341D01*
X148609247Y-98817710D01*
X148526697Y-98972150D01*
X148475864Y-99139727D01*
X148463000Y-99270334D01*
X148463001Y-102582228D01*
X148338978Y-102530856D01*
X148168771Y-102497000D01*
X147995229Y-102497000D01*
X147825022Y-102530856D01*
X147664690Y-102597268D01*
X147520395Y-102693682D01*
X147397682Y-102816395D01*
X147301268Y-102960690D01*
X147234856Y-103121022D01*
X147201000Y-103291229D01*
X147201000Y-103464771D01*
X147234856Y-103634978D01*
X147271686Y-103723893D01*
X146216435Y-104779145D01*
X146197052Y-104795052D01*
X146133571Y-104872405D01*
X146086399Y-104960658D01*
X146057351Y-105056416D01*
X146051713Y-105113661D01*
X146047543Y-105156000D01*
X146050000Y-105180944D01*
X146050001Y-108901657D01*
X145972318Y-108785395D01*
X145849605Y-108662682D01*
X145705310Y-108566268D01*
X145544978Y-108499856D01*
X145374771Y-108466000D01*
X145201229Y-108466000D01*
X145031022Y-108499856D01*
X144870690Y-108566268D01*
X144726395Y-108662682D01*
X144603682Y-108785395D01*
X144567865Y-108839000D01*
X141580923Y-108839000D01*
X141531605Y-108789682D01*
X141387310Y-108693268D01*
X141226978Y-108626856D01*
X141056771Y-108593000D01*
X140883229Y-108593000D01*
X140713022Y-108626856D01*
X140552690Y-108693268D01*
X140408395Y-108789682D01*
X140285682Y-108912395D01*
X140189268Y-109056690D01*
X140122856Y-109217022D01*
X140089000Y-109387229D01*
X140089000Y-109560771D01*
X140122856Y-109730978D01*
X140189268Y-109891310D01*
X140285682Y-110035605D01*
X140408395Y-110158318D01*
X140552690Y-110254732D01*
X140713022Y-110321144D01*
X140883229Y-110355000D01*
X141056771Y-110355000D01*
X141226978Y-110321144D01*
X141387310Y-110254732D01*
X141531605Y-110158318D01*
X141654318Y-110035605D01*
X141750732Y-109891310D01*
X141765772Y-109855000D01*
X144567865Y-109855000D01*
X144603682Y-109908605D01*
X144726395Y-110031318D01*
X144747620Y-110045500D01*
X144726395Y-110059682D01*
X144603682Y-110182395D01*
X144507268Y-110326690D01*
X144440856Y-110487022D01*
X144415002Y-110617000D01*
X139470943Y-110617000D01*
X139445999Y-110614543D01*
X139421055Y-110617000D01*
X139421053Y-110617000D01*
X139346415Y-110624351D01*
X139250657Y-110653399D01*
X139250655Y-110653400D01*
X139162404Y-110700571D01*
X139113558Y-110740658D01*
X139085052Y-110764052D01*
X139069150Y-110783429D01*
X136695580Y-113157000D01*
X136356135Y-113157000D01*
X136320318Y-113103395D01*
X136197605Y-112980682D01*
X136053310Y-112884268D01*
X135892978Y-112817856D01*
X135722771Y-112784000D01*
X135549229Y-112784000D01*
X135379022Y-112817856D01*
X135218690Y-112884268D01*
X135074395Y-112980682D01*
X134951682Y-113103395D01*
X134855268Y-113247690D01*
X134788856Y-113408022D01*
X134755000Y-113578229D01*
X134755000Y-113751771D01*
X134788856Y-113921978D01*
X134855268Y-114082310D01*
X134951682Y-114226605D01*
X135074395Y-114349318D01*
X135218690Y-114445732D01*
X135379022Y-114512144D01*
X135549229Y-114546000D01*
X135722771Y-114546000D01*
X135892978Y-114512144D01*
X136053310Y-114445732D01*
X136197605Y-114349318D01*
X136320318Y-114226605D01*
X136356135Y-114173000D01*
X136881056Y-114173000D01*
X136906000Y-114175457D01*
X136930944Y-114173000D01*
X136930947Y-114173000D01*
X137005585Y-114165649D01*
X137101343Y-114136601D01*
X137189595Y-114089429D01*
X137266948Y-114025948D01*
X137282855Y-114006565D01*
X138675000Y-112614421D01*
X138675000Y-112667502D01*
X138825336Y-112667502D01*
X138664767Y-112863361D01*
X138705542Y-113104635D01*
X138792604Y-113333318D01*
X138845687Y-113417965D01*
X138822709Y-113430247D01*
X138687341Y-113541341D01*
X138659505Y-113575259D01*
X137705259Y-114529506D01*
X137671342Y-114557341D01*
X137643507Y-114591258D01*
X137643505Y-114591260D01*
X137560248Y-114692709D01*
X137477698Y-114847148D01*
X137448069Y-114944821D01*
X137426864Y-115014726D01*
X137414000Y-115145333D01*
X137414000Y-115145340D01*
X137409700Y-115189000D01*
X137414000Y-115232660D01*
X137414000Y-115455764D01*
X137299765Y-115570000D01*
X136568659Y-115570000D01*
X136524999Y-115565700D01*
X136481339Y-115570000D01*
X136481333Y-115570000D01*
X136383924Y-115579594D01*
X136350724Y-115582864D01*
X136295570Y-115599595D01*
X136183149Y-115633697D01*
X136028709Y-115716247D01*
X135897412Y-115824000D01*
X135571018Y-115824000D01*
X135587908Y-115783225D01*
X135616000Y-115641997D01*
X135616000Y-115498003D01*
X135587908Y-115356775D01*
X135532804Y-115223742D01*
X135452805Y-115104015D01*
X135350985Y-115002195D01*
X135231258Y-114922196D01*
X135098225Y-114867092D01*
X134956997Y-114839000D01*
X134813003Y-114839000D01*
X134671775Y-114867092D01*
X134538742Y-114922196D01*
X134419015Y-115002195D01*
X134317195Y-115104015D01*
X134237196Y-115223742D01*
X134182092Y-115356775D01*
X134154000Y-115498003D01*
X134154000Y-115641997D01*
X134182092Y-115783225D01*
X134198982Y-115824000D01*
X133771018Y-115824000D01*
X133787908Y-115783225D01*
X133816000Y-115641997D01*
X133816000Y-115498003D01*
X133787908Y-115356775D01*
X133732804Y-115223742D01*
X133652805Y-115104015D01*
X133550985Y-115002195D01*
X133431258Y-114922196D01*
X133298225Y-114867092D01*
X133156997Y-114839000D01*
X133013003Y-114839000D01*
X132871775Y-114867092D01*
X132738742Y-114922196D01*
X132619015Y-115002195D01*
X132517195Y-115104015D01*
X132437196Y-115223742D01*
X132382092Y-115356775D01*
X132354000Y-115498003D01*
X132354000Y-115641997D01*
X132382092Y-115783225D01*
X132398982Y-115824000D01*
X132250659Y-115824000D01*
X132206999Y-115819700D01*
X132163339Y-115824000D01*
X132163333Y-115824000D01*
X132065924Y-115833594D01*
X132052180Y-115834948D01*
X132080000Y-115695084D01*
X132080000Y-115557236D01*
X132231495Y-115405741D01*
X132314752Y-115304292D01*
X132397302Y-115149852D01*
X132448136Y-114982275D01*
X132465300Y-114808000D01*
X132449621Y-114648800D01*
X133056571Y-114041850D01*
X133075948Y-114025948D01*
X133115579Y-113977657D01*
X133139429Y-113948596D01*
X133171067Y-113889405D01*
X133186601Y-113860343D01*
X133215649Y-113764585D01*
X133223000Y-113689947D01*
X133223000Y-113689945D01*
X133225457Y-113665001D01*
X133223000Y-113640057D01*
X133223000Y-113115135D01*
X133313690Y-113175732D01*
X133474022Y-113242144D01*
X133644229Y-113276000D01*
X133817771Y-113276000D01*
X133987978Y-113242144D01*
X134148310Y-113175732D01*
X134292605Y-113079318D01*
X134415318Y-112956605D01*
X134511732Y-112812310D01*
X134578144Y-112651978D01*
X134612000Y-112481771D01*
X134612000Y-112308229D01*
X134599423Y-112244997D01*
X134830420Y-112014000D01*
X135738056Y-112014000D01*
X135763000Y-112016457D01*
X135787944Y-112014000D01*
X135787947Y-112014000D01*
X135862585Y-112006649D01*
X135958343Y-111977601D01*
X136046595Y-111930429D01*
X136123948Y-111866948D01*
X136139855Y-111847565D01*
X136993565Y-110993855D01*
X137012948Y-110977948D01*
X137076429Y-110900595D01*
X137123601Y-110812343D01*
X137152649Y-110716585D01*
X137160000Y-110641947D01*
X137160000Y-110641944D01*
X137162457Y-110617000D01*
X137160000Y-110592053D01*
X137160000Y-109049420D01*
X140079069Y-106130352D01*
X140248229Y-106164000D01*
X140421771Y-106164000D01*
X140591978Y-106130144D01*
X140752310Y-106063732D01*
X140896605Y-105967318D01*
X141019318Y-105844605D01*
X141115732Y-105700310D01*
X141182144Y-105539978D01*
X141196813Y-105466233D01*
X142121000Y-106390421D01*
X142121000Y-106512771D01*
X142154856Y-106682978D01*
X142221268Y-106843310D01*
X142317682Y-106987605D01*
X142440395Y-107110318D01*
X142584690Y-107206732D01*
X142745022Y-107273144D01*
X142915229Y-107307000D01*
X143088771Y-107307000D01*
X143258978Y-107273144D01*
X143419310Y-107206732D01*
X143563605Y-107110318D01*
X143686318Y-106987605D01*
X143782732Y-106843310D01*
X143849144Y-106682978D01*
X143883000Y-106512771D01*
X143883000Y-106339229D01*
X143849144Y-106169022D01*
X143782732Y-106008690D01*
X143686318Y-105864395D01*
X143563605Y-105741682D01*
X143419310Y-105645268D01*
X143258978Y-105578856D01*
X143088771Y-105545000D01*
X142915229Y-105545000D01*
X142746069Y-105578648D01*
X140203855Y-103036435D01*
X140187948Y-103017052D01*
X140110595Y-102953571D01*
X140022343Y-102906399D01*
X139926585Y-102877351D01*
X139851947Y-102870000D01*
X139851944Y-102870000D01*
X139827000Y-102867543D01*
X139802056Y-102870000D01*
X139658135Y-102870000D01*
X139622318Y-102816395D01*
X139499605Y-102693682D01*
X139355310Y-102597268D01*
X139194978Y-102530856D01*
X139024771Y-102497000D01*
X138851229Y-102497000D01*
X138681022Y-102530856D01*
X138520690Y-102597268D01*
X138376395Y-102693682D01*
X138253682Y-102816395D01*
X138157268Y-102960690D01*
X138090856Y-103121022D01*
X138057000Y-103291229D01*
X138057000Y-103464771D01*
X138090856Y-103634978D01*
X138157268Y-103795310D01*
X138253682Y-103939605D01*
X138376395Y-104062318D01*
X138520690Y-104158732D01*
X138681022Y-104225144D01*
X138851229Y-104259000D01*
X139024771Y-104259000D01*
X139194978Y-104225144D01*
X139355310Y-104158732D01*
X139499605Y-104062318D01*
X139622318Y-103939605D01*
X139641491Y-103910911D01*
X140151767Y-104421187D01*
X140078022Y-104435856D01*
X139917690Y-104502268D01*
X139773395Y-104598682D01*
X139650682Y-104721395D01*
X139554268Y-104865690D01*
X139487856Y-105026022D01*
X139454000Y-105196229D01*
X139454000Y-105318579D01*
X138284717Y-106487862D01*
X138239302Y-106338148D01*
X138156752Y-106183709D01*
X138045659Y-106048341D01*
X137910291Y-105937248D01*
X137755852Y-105854698D01*
X137588275Y-105803864D01*
X137414000Y-105786700D01*
X137239725Y-105803864D01*
X137072147Y-105854698D01*
X136917708Y-105937248D01*
X136816259Y-106020505D01*
X134911264Y-107925501D01*
X134877341Y-107953341D01*
X134766247Y-108088710D01*
X134683697Y-108243150D01*
X134632864Y-108410727D01*
X134620000Y-108541334D01*
X134620000Y-108541340D01*
X134615700Y-108585000D01*
X134620000Y-108628660D01*
X134620001Y-110406667D01*
X134632865Y-110537274D01*
X134683698Y-110704851D01*
X134766248Y-110859291D01*
X134877342Y-110994659D01*
X134881413Y-110998000D01*
X134644944Y-110998000D01*
X134620000Y-110995543D01*
X134595056Y-110998000D01*
X134595053Y-110998000D01*
X134520415Y-111005351D01*
X134424657Y-111034399D01*
X134336405Y-111081571D01*
X134259052Y-111145052D01*
X134243145Y-111164435D01*
X133881003Y-111526577D01*
X133817771Y-111514000D01*
X133644229Y-111514000D01*
X133474022Y-111547856D01*
X133313690Y-111614268D01*
X133223000Y-111674865D01*
X133223000Y-111335420D01*
X134326571Y-110231850D01*
X134345948Y-110215948D01*
X134377630Y-110177343D01*
X134409429Y-110138596D01*
X134456600Y-110050345D01*
X134456601Y-110050342D01*
X134485649Y-109954585D01*
X134493000Y-109879947D01*
X134493000Y-109879945D01*
X134495457Y-109855001D01*
X134493000Y-109830057D01*
X134493000Y-105874420D01*
X136866571Y-103500850D01*
X136885948Y-103484948D01*
X136925579Y-103436657D01*
X136949429Y-103407596D01*
X136996600Y-103319345D01*
X137002863Y-103298699D01*
X137025649Y-103223585D01*
X137033000Y-103148947D01*
X137033000Y-103148945D01*
X137035457Y-103124001D01*
X137033000Y-103099057D01*
X137033000Y-96249998D01*
X137073229Y-96258000D01*
X137246771Y-96258000D01*
X137416978Y-96224144D01*
X137577310Y-96157732D01*
X137721605Y-96061318D01*
X137844318Y-95938605D01*
X137940732Y-95794310D01*
X138007144Y-95633978D01*
X138041000Y-95463771D01*
X138041000Y-95290229D01*
X138007144Y-95120022D01*
X137940732Y-94959690D01*
X137844318Y-94815395D01*
X137741107Y-94712184D01*
X137814086Y-94639204D01*
X137910500Y-94494909D01*
X137976912Y-94334577D01*
X138010768Y-94164370D01*
X138010768Y-93990828D01*
X137976912Y-93820621D01*
X137910500Y-93660289D01*
X137814086Y-93515994D01*
X137691373Y-93393281D01*
X137547078Y-93296867D01*
X137386746Y-93230455D01*
X137311762Y-93215540D01*
X137364186Y-93088978D01*
X137398042Y-92918771D01*
X137398042Y-92745229D01*
X137364186Y-92575022D01*
X137297774Y-92414690D01*
X137201360Y-92270395D01*
X137134444Y-92203479D01*
X137209318Y-92128605D01*
X137305732Y-91984310D01*
X137372144Y-91823978D01*
X137406000Y-91653771D01*
X137406000Y-91480229D01*
X137372144Y-91310022D01*
X137305732Y-91149690D01*
X137209318Y-91005395D01*
X137086605Y-90882682D01*
X136942310Y-90786268D01*
X136781978Y-90719856D01*
X136611771Y-90686000D01*
X136438229Y-90686000D01*
X136268022Y-90719856D01*
X136107690Y-90786268D01*
X135963395Y-90882682D01*
X135840682Y-91005395D01*
X135744268Y-91149690D01*
X135677856Y-91310022D01*
X135644000Y-91480229D01*
X135644000Y-91653771D01*
X135656577Y-91717003D01*
X135294426Y-92079154D01*
X135275049Y-92095056D01*
X135259147Y-92114433D01*
X135259146Y-92114434D01*
X135211567Y-92172409D01*
X135174368Y-92242005D01*
X135164396Y-92260661D01*
X135135359Y-92356385D01*
X135135348Y-92356420D01*
X135125539Y-92456004D01*
X135127997Y-92480958D01*
X135127995Y-93896582D01*
X134278475Y-94746103D01*
X134259092Y-94762010D01*
X134195611Y-94839363D01*
X134148439Y-94927616D01*
X134119391Y-95023374D01*
X134113987Y-95078246D01*
X134109583Y-95122958D01*
X134112040Y-95147902D01*
X134112041Y-102663230D01*
X132116629Y-104658643D01*
X131905902Y-104583505D01*
X131079408Y-105410000D01*
X131093550Y-105424142D01*
X130824142Y-105693550D01*
X130810000Y-105679408D01*
X130795858Y-105693550D01*
X130526450Y-105424142D01*
X130540592Y-105410000D01*
X130526450Y-105395858D01*
X130795858Y-105126450D01*
X130810000Y-105140592D01*
X131636495Y-104314098D01*
X131549009Y-104068742D01*
X131394623Y-104002479D01*
X131411571Y-103995459D01*
X131619578Y-103856473D01*
X131796473Y-103679578D01*
X131935459Y-103471571D01*
X132031195Y-103240445D01*
X132080000Y-102995084D01*
X132080000Y-102857236D01*
X132231495Y-102705741D01*
X132314752Y-102604292D01*
X132397302Y-102449852D01*
X132448136Y-102282275D01*
X132465300Y-102108000D01*
X132449621Y-101948799D01*
X132675565Y-101722855D01*
X132694948Y-101706948D01*
X132758429Y-101629595D01*
X132805601Y-101541343D01*
X132834649Y-101445585D01*
X132842000Y-101370947D01*
X132842000Y-101370944D01*
X132844457Y-101346000D01*
X132842000Y-101321056D01*
X132842000Y-100540420D01*
X133183570Y-100198851D01*
X133202948Y-100182948D01*
X133242579Y-100134657D01*
X133266429Y-100105596D01*
X133313600Y-100017345D01*
X133313601Y-100017343D01*
X133342649Y-99921585D01*
X133350000Y-99846947D01*
X133350000Y-99846945D01*
X133352457Y-99822001D01*
X133350000Y-99797057D01*
X133350000Y-98047698D01*
X133437594Y-97960104D01*
X133456977Y-97944197D01*
X133520458Y-97866844D01*
X133536261Y-97837278D01*
X133567629Y-97778594D01*
X133580036Y-97737694D01*
X133596678Y-97682834D01*
X133604029Y-97608196D01*
X133604029Y-97608194D01*
X133606486Y-97583250D01*
X133604029Y-97558306D01*
X133604029Y-94698391D01*
X134453557Y-93848864D01*
X134472934Y-93832962D01*
X134524852Y-93769699D01*
X134536415Y-93755610D01*
X134583586Y-93667359D01*
X134583587Y-93667357D01*
X134612635Y-93571599D01*
X134619986Y-93496961D01*
X134619986Y-93496959D01*
X134622443Y-93472015D01*
X134619986Y-93447071D01*
X134619986Y-91461789D01*
X135723571Y-90358205D01*
X135742948Y-90342303D01*
X135789736Y-90285291D01*
X135806429Y-90264951D01*
X135842527Y-90197415D01*
X135853601Y-90176698D01*
X135882649Y-90080940D01*
X135890000Y-90006301D01*
X135890000Y-90006300D01*
X135892457Y-89981356D01*
X135890000Y-89956412D01*
X135890000Y-89789000D01*
X136079655Y-89789000D01*
X136107690Y-89807732D01*
X136268022Y-89874144D01*
X136438229Y-89908000D01*
X136611771Y-89908000D01*
X136781978Y-89874144D01*
X136942310Y-89807732D01*
X137086605Y-89711318D01*
X137209318Y-89588605D01*
X137305732Y-89444310D01*
X137372144Y-89283978D01*
X137406000Y-89113771D01*
X137406000Y-88940229D01*
X137372144Y-88770022D01*
X137305732Y-88609690D01*
X137209318Y-88465395D01*
X137135923Y-88392000D01*
X137209318Y-88318605D01*
X137305732Y-88174310D01*
X137372144Y-88013978D01*
X137406000Y-87843771D01*
X137406000Y-87670229D01*
X137372144Y-87500022D01*
X137305732Y-87339690D01*
X137209318Y-87195395D01*
X137135923Y-87122000D01*
X137209318Y-87048605D01*
X137305732Y-86904310D01*
X137372144Y-86743978D01*
X137406000Y-86573771D01*
X137406000Y-86400229D01*
X137372144Y-86230022D01*
X137305732Y-86069690D01*
X137209318Y-85925395D01*
X137135923Y-85852000D01*
X137209318Y-85778605D01*
X137305732Y-85634310D01*
X137372144Y-85473978D01*
X137406000Y-85303771D01*
X137406000Y-85130229D01*
X137372144Y-84960022D01*
X137305732Y-84799690D01*
X137209318Y-84655395D01*
X137135923Y-84582000D01*
X137209318Y-84508605D01*
X137287000Y-84392345D01*
X137287000Y-84553348D01*
G36*
X146812001Y-110827330D02*
G01*
X146807700Y-110871000D01*
X146824864Y-111045274D01*
X146830152Y-111062706D01*
X146730961Y-111001605D01*
X146489994Y-111093646D01*
X146290555Y-111235420D01*
X146122607Y-111413378D01*
X145992604Y-111620682D01*
X145905542Y-111849365D01*
X145864767Y-112090639D01*
X146025338Y-112286500D01*
X146919500Y-112286500D01*
X146919500Y-112266500D01*
X147300500Y-112266500D01*
X147300500Y-112286500D01*
X147320500Y-112286500D01*
X147320500Y-112667500D01*
X147300500Y-112667500D01*
X147300500Y-112687500D01*
X146919500Y-112687500D01*
X146919500Y-112667500D01*
X146025338Y-112667500D01*
X145864767Y-112863361D01*
X145905542Y-113104635D01*
X145982280Y-113306201D01*
X145944112Y-113268033D01*
X145832574Y-113193506D01*
X145708640Y-113142171D01*
X145577073Y-113116000D01*
X145442927Y-113116000D01*
X145311360Y-113142171D01*
X145187426Y-113193506D01*
X145075888Y-113268033D01*
X144981033Y-113362888D01*
X144906506Y-113474426D01*
X144855171Y-113598360D01*
X144829000Y-113729927D01*
X144829000Y-113864073D01*
X144855171Y-113995640D01*
X144876031Y-114046000D01*
X142143969Y-114046000D01*
X142164829Y-113995640D01*
X142191000Y-113864073D01*
X142191000Y-113729927D01*
X142164829Y-113598360D01*
X142113494Y-113474426D01*
X142038967Y-113362888D01*
X141944112Y-113268033D01*
X141832574Y-113193506D01*
X141708640Y-113142171D01*
X141577073Y-113116000D01*
X141442927Y-113116000D01*
X141311360Y-113142171D01*
X141187426Y-113193506D01*
X141075888Y-113268033D01*
X141037720Y-113306201D01*
X141114458Y-113104635D01*
X141155233Y-112863361D01*
X140994662Y-112667500D01*
X140100500Y-112667500D01*
X140100500Y-112687500D01*
X139719500Y-112687500D01*
X139719500Y-112667500D01*
X139699500Y-112667500D01*
X139699500Y-112286500D01*
X139719500Y-112286500D01*
X139719500Y-112266500D01*
X140100500Y-112266500D01*
X140100500Y-112286500D01*
X140994662Y-112286500D01*
X141155233Y-112090639D01*
X141114458Y-111849365D01*
X141032086Y-111633000D01*
X144628056Y-111633000D01*
X144653000Y-111635457D01*
X144677944Y-111633000D01*
X144677947Y-111633000D01*
X144752585Y-111625649D01*
X144848343Y-111596601D01*
X144933853Y-111550895D01*
X145031022Y-111591144D01*
X145201229Y-111625000D01*
X145374771Y-111625000D01*
X145544978Y-111591144D01*
X145705310Y-111524732D01*
X145849605Y-111428318D01*
X145972318Y-111305605D01*
X146068732Y-111161310D01*
X146135144Y-111000978D01*
X146169000Y-110830771D01*
X146169000Y-110827064D01*
X146174022Y-110829144D01*
X146344229Y-110863000D01*
X146517771Y-110863000D01*
X146687978Y-110829144D01*
X146812001Y-110777772D01*
X146812001Y-110827330D01*
X146812001Y-110827330D01*
G37*
X146812001Y-110827330D02*
X146807700Y-110871000D01*
X146824864Y-111045274D01*
X146830152Y-111062706D01*
X146730961Y-111001605D01*
X146489994Y-111093646D01*
X146290555Y-111235420D01*
X146122607Y-111413378D01*
X145992604Y-111620682D01*
X145905542Y-111849365D01*
X145864767Y-112090639D01*
X146025338Y-112286500D01*
X146919500Y-112286500D01*
X146919500Y-112266500D01*
X147300500Y-112266500D01*
X147300500Y-112286500D01*
X147320500Y-112286500D01*
X147320500Y-112667500D01*
X147300500Y-112667500D01*
X147300500Y-112687500D01*
X146919500Y-112687500D01*
X146919500Y-112667500D01*
X146025338Y-112667500D01*
X145864767Y-112863361D01*
X145905542Y-113104635D01*
X145982280Y-113306201D01*
X145944112Y-113268033D01*
X145832574Y-113193506D01*
X145708640Y-113142171D01*
X145577073Y-113116000D01*
X145442927Y-113116000D01*
X145311360Y-113142171D01*
X145187426Y-113193506D01*
X145075888Y-113268033D01*
X144981033Y-113362888D01*
X144906506Y-113474426D01*
X144855171Y-113598360D01*
X144829000Y-113729927D01*
X144829000Y-113864073D01*
X144855171Y-113995640D01*
X144876031Y-114046000D01*
X142143969Y-114046000D01*
X142164829Y-113995640D01*
X142191000Y-113864073D01*
X142191000Y-113729927D01*
X142164829Y-113598360D01*
X142113494Y-113474426D01*
X142038967Y-113362888D01*
X141944112Y-113268033D01*
X141832574Y-113193506D01*
X141708640Y-113142171D01*
X141577073Y-113116000D01*
X141442927Y-113116000D01*
X141311360Y-113142171D01*
X141187426Y-113193506D01*
X141075888Y-113268033D01*
X141037720Y-113306201D01*
X141114458Y-113104635D01*
X141155233Y-112863361D01*
X140994662Y-112667500D01*
X140100500Y-112667500D01*
X140100500Y-112687500D01*
X139719500Y-112687500D01*
X139719500Y-112667500D01*
X139699500Y-112667500D01*
X139699500Y-112286500D01*
X139719500Y-112286500D01*
X139719500Y-112266500D01*
X140100500Y-112266500D01*
X140100500Y-112286500D01*
X140994662Y-112286500D01*
X141155233Y-112090639D01*
X141114458Y-111849365D01*
X141032086Y-111633000D01*
X144628056Y-111633000D01*
X144653000Y-111635457D01*
X144677944Y-111633000D01*
X144677947Y-111633000D01*
X144752585Y-111625649D01*
X144848343Y-111596601D01*
X144933853Y-111550895D01*
X145031022Y-111591144D01*
X145201229Y-111625000D01*
X145374771Y-111625000D01*
X145544978Y-111591144D01*
X145705310Y-111524732D01*
X145849605Y-111428318D01*
X145972318Y-111305605D01*
X146068732Y-111161310D01*
X146135144Y-111000978D01*
X146169000Y-110830771D01*
X146169000Y-110827064D01*
X146174022Y-110829144D01*
X146344229Y-110863000D01*
X146517771Y-110863000D01*
X146687978Y-110829144D01*
X146812001Y-110777772D01*
X146812001Y-110827330D01*
G36*
X152399952Y-109829997D02*
G01*
X152397494Y-109854951D01*
X152403277Y-109913657D01*
X152407303Y-109954536D01*
X152423951Y-110009416D01*
X152436351Y-110050294D01*
X152483522Y-110138546D01*
X152499749Y-110158318D01*
X152547004Y-110215899D01*
X152566381Y-110231801D01*
X153162000Y-110827421D01*
X153162001Y-111862061D01*
X153161757Y-111859584D01*
X153154649Y-111787415D01*
X153125601Y-111691657D01*
X153078429Y-111603405D01*
X153014948Y-111526052D01*
X152995565Y-111510145D01*
X151617423Y-110132003D01*
X151630000Y-110068771D01*
X151630000Y-109895229D01*
X151596144Y-109725022D01*
X151529732Y-109564690D01*
X151433318Y-109420395D01*
X151310605Y-109297682D01*
X151166310Y-109201268D01*
X151130000Y-109186228D01*
X151130000Y-107271420D01*
X151673107Y-106728314D01*
X151762022Y-106765144D01*
X151932229Y-106799000D01*
X152105771Y-106799000D01*
X152275978Y-106765144D01*
X152399952Y-106713792D01*
X152399952Y-109829997D01*
X152399952Y-109829997D01*
G37*
X152399952Y-109829997D02*
X152397494Y-109854951D01*
X152403277Y-109913657D01*
X152407303Y-109954536D01*
X152423951Y-110009416D01*
X152436351Y-110050294D01*
X152483522Y-110138546D01*
X152499749Y-110158318D01*
X152547004Y-110215899D01*
X152566381Y-110231801D01*
X153162000Y-110827421D01*
X153162001Y-111862061D01*
X153161757Y-111859584D01*
X153154649Y-111787415D01*
X153125601Y-111691657D01*
X153078429Y-111603405D01*
X153014948Y-111526052D01*
X152995565Y-111510145D01*
X151617423Y-110132003D01*
X151630000Y-110068771D01*
X151630000Y-109895229D01*
X151596144Y-109725022D01*
X151529732Y-109564690D01*
X151433318Y-109420395D01*
X151310605Y-109297682D01*
X151166310Y-109201268D01*
X151130000Y-109186228D01*
X151130000Y-107271420D01*
X151673107Y-106728314D01*
X151762022Y-106765144D01*
X151932229Y-106799000D01*
X152105771Y-106799000D01*
X152275978Y-106765144D01*
X152399952Y-106713792D01*
X152399952Y-109829997D01*
G36*
X154435341Y-83181659D02*
G01*
X154570709Y-83292753D01*
X154725149Y-83375303D01*
X154892726Y-83426136D01*
X155023333Y-83439000D01*
X155302949Y-83439000D01*
X155400422Y-83536473D01*
X155608429Y-83675459D01*
X155839555Y-83771195D01*
X156084916Y-83820000D01*
X155839555Y-83868805D01*
X155608429Y-83964541D01*
X155400422Y-84103527D01*
X155223527Y-84280422D01*
X155084541Y-84488429D01*
X154988805Y-84719555D01*
X154940000Y-84964916D01*
X154940000Y-85215084D01*
X154988805Y-85460445D01*
X155084541Y-85691571D01*
X155223527Y-85899578D01*
X155400422Y-86076473D01*
X155608429Y-86215459D01*
X155625327Y-86222459D01*
X155505356Y-86270373D01*
X155470991Y-86288742D01*
X155383505Y-86534098D01*
X156210000Y-87360592D01*
X156224142Y-87346450D01*
X156493550Y-87615858D01*
X156479408Y-87630000D01*
X156493550Y-87644142D01*
X156224142Y-87913550D01*
X156210000Y-87899408D01*
X156195858Y-87913550D01*
X155926450Y-87644142D01*
X155940592Y-87630000D01*
X155114098Y-86803505D01*
X154868742Y-86890991D01*
X154750340Y-87166857D01*
X154688032Y-87460522D01*
X154684213Y-87760699D01*
X154721867Y-87963447D01*
X153288448Y-86530028D01*
X153292686Y-86487000D01*
X153277974Y-86337622D01*
X153234402Y-86193985D01*
X153163645Y-86061608D01*
X153068422Y-85945578D01*
X152952392Y-85850355D01*
X152820015Y-85779598D01*
X152676378Y-85736026D01*
X152564426Y-85725000D01*
X150940345Y-85725000D01*
X150912310Y-85706268D01*
X150751978Y-85639856D01*
X150581771Y-85606000D01*
X150408229Y-85606000D01*
X150238022Y-85639856D01*
X150077690Y-85706268D01*
X149933395Y-85802682D01*
X149810682Y-85925395D01*
X149714268Y-86069690D01*
X149647856Y-86230022D01*
X149614000Y-86400229D01*
X149614000Y-86573771D01*
X149647856Y-86743978D01*
X149714268Y-86904310D01*
X149810682Y-87048605D01*
X149884077Y-87122000D01*
X149810682Y-87195395D01*
X149714268Y-87339690D01*
X149647856Y-87500022D01*
X149614000Y-87670229D01*
X149614000Y-87843771D01*
X149647856Y-88013978D01*
X149714268Y-88174310D01*
X149810682Y-88318605D01*
X149933395Y-88441318D01*
X150077690Y-88537732D01*
X150238022Y-88604144D01*
X150408229Y-88638000D01*
X150581771Y-88638000D01*
X150751978Y-88604144D01*
X150912310Y-88537732D01*
X150940345Y-88519000D01*
X152564426Y-88519000D01*
X152570028Y-88518448D01*
X153923989Y-89872410D01*
X153923989Y-90975568D01*
X153288448Y-90340028D01*
X153292686Y-90297000D01*
X153277974Y-90147622D01*
X153234402Y-90003985D01*
X153163645Y-89871608D01*
X153068422Y-89755578D01*
X152952392Y-89660355D01*
X152820015Y-89589598D01*
X152676378Y-89546026D01*
X152564426Y-89535000D01*
X150940345Y-89535000D01*
X150912310Y-89516268D01*
X150751978Y-89449856D01*
X150581771Y-89416000D01*
X150408229Y-89416000D01*
X150238022Y-89449856D01*
X150077690Y-89516268D01*
X149933395Y-89612682D01*
X149810682Y-89735395D01*
X149714268Y-89879690D01*
X149647856Y-90040022D01*
X149614000Y-90210229D01*
X149614000Y-90383771D01*
X149647856Y-90553978D01*
X149714268Y-90714310D01*
X149810682Y-90858605D01*
X149884077Y-90932000D01*
X149810682Y-91005395D01*
X149714268Y-91149690D01*
X149647856Y-91310022D01*
X149614000Y-91480229D01*
X149614000Y-91653771D01*
X149647856Y-91823978D01*
X149714268Y-91984310D01*
X149810682Y-92128605D01*
X149884077Y-92202000D01*
X149810682Y-92275395D01*
X149714268Y-92419690D01*
X149647856Y-92580022D01*
X149614000Y-92750229D01*
X149614000Y-92923771D01*
X149647856Y-93093978D01*
X149714268Y-93254310D01*
X149810682Y-93398605D01*
X149884077Y-93472000D01*
X149810682Y-93545395D01*
X149714268Y-93689690D01*
X149647856Y-93850022D01*
X149614000Y-94020229D01*
X149614000Y-94193771D01*
X149647856Y-94363978D01*
X149714268Y-94524310D01*
X149810682Y-94668605D01*
X149884077Y-94742000D01*
X149810682Y-94815395D01*
X149714268Y-94959690D01*
X149647856Y-95120022D01*
X149614000Y-95290229D01*
X149614000Y-95463771D01*
X149647856Y-95633978D01*
X149714268Y-95794310D01*
X149810682Y-95938605D01*
X149933395Y-96061318D01*
X150077690Y-96157732D01*
X150238022Y-96224144D01*
X150408229Y-96258000D01*
X150581771Y-96258000D01*
X150751978Y-96224144D01*
X150912310Y-96157732D01*
X150940345Y-96139000D01*
X151130000Y-96139000D01*
X151130001Y-101702046D01*
X151127543Y-101727000D01*
X151133208Y-101784511D01*
X151137352Y-101826585D01*
X151145698Y-101854098D01*
X151166400Y-101922343D01*
X151213571Y-102010595D01*
X151248392Y-102053024D01*
X151277053Y-102087948D01*
X151296430Y-102103850D01*
X151816580Y-102624000D01*
X151805229Y-102624000D01*
X151635022Y-102657856D01*
X151474690Y-102724268D01*
X151330395Y-102820682D01*
X151207682Y-102943395D01*
X151111268Y-103087690D01*
X151044856Y-103248022D01*
X151011000Y-103418229D01*
X151011000Y-103591771D01*
X151044856Y-103761978D01*
X151111268Y-103922310D01*
X151130000Y-103950345D01*
X151130000Y-103951369D01*
X151003000Y-104078369D01*
X151003000Y-98703943D01*
X151005457Y-98678999D01*
X151001787Y-98641740D01*
X150995649Y-98579415D01*
X150966601Y-98483657D01*
X150921914Y-98400054D01*
X150919429Y-98395404D01*
X150871850Y-98337429D01*
X150855948Y-98318052D01*
X150836571Y-98302150D01*
X148331844Y-95797424D01*
X148315937Y-95778041D01*
X148238584Y-95714560D01*
X148150332Y-95667388D01*
X148054574Y-95638340D01*
X147979997Y-95630995D01*
X148054585Y-95623649D01*
X148150343Y-95594601D01*
X148238595Y-95547429D01*
X148315948Y-95483948D01*
X148331855Y-95464565D01*
X149312571Y-94483850D01*
X149331948Y-94467948D01*
X149363647Y-94429322D01*
X149395429Y-94390596D01*
X149430704Y-94324601D01*
X149442601Y-94302343D01*
X149471649Y-94206585D01*
X149479000Y-94131947D01*
X149479000Y-94131944D01*
X149481457Y-94107000D01*
X149479000Y-94082053D01*
X149479000Y-83776420D01*
X150197421Y-83058000D01*
X154333856Y-83058000D01*
X154435341Y-83181659D01*
X154435341Y-83181659D01*
G37*
X154435341Y-83181659D02*
X154570709Y-83292753D01*
X154725149Y-83375303D01*
X154892726Y-83426136D01*
X155023333Y-83439000D01*
X155302949Y-83439000D01*
X155400422Y-83536473D01*
X155608429Y-83675459D01*
X155839555Y-83771195D01*
X156084916Y-83820000D01*
X155839555Y-83868805D01*
X155608429Y-83964541D01*
X155400422Y-84103527D01*
X155223527Y-84280422D01*
X155084541Y-84488429D01*
X154988805Y-84719555D01*
X154940000Y-84964916D01*
X154940000Y-85215084D01*
X154988805Y-85460445D01*
X155084541Y-85691571D01*
X155223527Y-85899578D01*
X155400422Y-86076473D01*
X155608429Y-86215459D01*
X155625327Y-86222459D01*
X155505356Y-86270373D01*
X155470991Y-86288742D01*
X155383505Y-86534098D01*
X156210000Y-87360592D01*
X156224142Y-87346450D01*
X156493550Y-87615858D01*
X156479408Y-87630000D01*
X156493550Y-87644142D01*
X156224142Y-87913550D01*
X156210000Y-87899408D01*
X156195858Y-87913550D01*
X155926450Y-87644142D01*
X155940592Y-87630000D01*
X155114098Y-86803505D01*
X154868742Y-86890991D01*
X154750340Y-87166857D01*
X154688032Y-87460522D01*
X154684213Y-87760699D01*
X154721867Y-87963447D01*
X153288448Y-86530028D01*
X153292686Y-86487000D01*
X153277974Y-86337622D01*
X153234402Y-86193985D01*
X153163645Y-86061608D01*
X153068422Y-85945578D01*
X152952392Y-85850355D01*
X152820015Y-85779598D01*
X152676378Y-85736026D01*
X152564426Y-85725000D01*
X150940345Y-85725000D01*
X150912310Y-85706268D01*
X150751978Y-85639856D01*
X150581771Y-85606000D01*
X150408229Y-85606000D01*
X150238022Y-85639856D01*
X150077690Y-85706268D01*
X149933395Y-85802682D01*
X149810682Y-85925395D01*
X149714268Y-86069690D01*
X149647856Y-86230022D01*
X149614000Y-86400229D01*
X149614000Y-86573771D01*
X149647856Y-86743978D01*
X149714268Y-86904310D01*
X149810682Y-87048605D01*
X149884077Y-87122000D01*
X149810682Y-87195395D01*
X149714268Y-87339690D01*
X149647856Y-87500022D01*
X149614000Y-87670229D01*
X149614000Y-87843771D01*
X149647856Y-88013978D01*
X149714268Y-88174310D01*
X149810682Y-88318605D01*
X149933395Y-88441318D01*
X150077690Y-88537732D01*
X150238022Y-88604144D01*
X150408229Y-88638000D01*
X150581771Y-88638000D01*
X150751978Y-88604144D01*
X150912310Y-88537732D01*
X150940345Y-88519000D01*
X152564426Y-88519000D01*
X152570028Y-88518448D01*
X153923989Y-89872410D01*
X153923989Y-90975568D01*
X153288448Y-90340028D01*
X153292686Y-90297000D01*
X153277974Y-90147622D01*
X153234402Y-90003985D01*
X153163645Y-89871608D01*
X153068422Y-89755578D01*
X152952392Y-89660355D01*
X152820015Y-89589598D01*
X152676378Y-89546026D01*
X152564426Y-89535000D01*
X150940345Y-89535000D01*
X150912310Y-89516268D01*
X150751978Y-89449856D01*
X150581771Y-89416000D01*
X150408229Y-89416000D01*
X150238022Y-89449856D01*
X150077690Y-89516268D01*
X149933395Y-89612682D01*
X149810682Y-89735395D01*
X149714268Y-89879690D01*
X149647856Y-90040022D01*
X149614000Y-90210229D01*
X149614000Y-90383771D01*
X149647856Y-90553978D01*
X149714268Y-90714310D01*
X149810682Y-90858605D01*
X149884077Y-90932000D01*
X149810682Y-91005395D01*
X149714268Y-91149690D01*
X149647856Y-91310022D01*
X149614000Y-91480229D01*
X149614000Y-91653771D01*
X149647856Y-91823978D01*
X149714268Y-91984310D01*
X149810682Y-92128605D01*
X149884077Y-92202000D01*
X149810682Y-92275395D01*
X149714268Y-92419690D01*
X149647856Y-92580022D01*
X149614000Y-92750229D01*
X149614000Y-92923771D01*
X149647856Y-93093978D01*
X149714268Y-93254310D01*
X149810682Y-93398605D01*
X149884077Y-93472000D01*
X149810682Y-93545395D01*
X149714268Y-93689690D01*
X149647856Y-93850022D01*
X149614000Y-94020229D01*
X149614000Y-94193771D01*
X149647856Y-94363978D01*
X149714268Y-94524310D01*
X149810682Y-94668605D01*
X149884077Y-94742000D01*
X149810682Y-94815395D01*
X149714268Y-94959690D01*
X149647856Y-95120022D01*
X149614000Y-95290229D01*
X149614000Y-95463771D01*
X149647856Y-95633978D01*
X149714268Y-95794310D01*
X149810682Y-95938605D01*
X149933395Y-96061318D01*
X150077690Y-96157732D01*
X150238022Y-96224144D01*
X150408229Y-96258000D01*
X150581771Y-96258000D01*
X150751978Y-96224144D01*
X150912310Y-96157732D01*
X150940345Y-96139000D01*
X151130000Y-96139000D01*
X151130001Y-101702046D01*
X151127543Y-101727000D01*
X151133208Y-101784511D01*
X151137352Y-101826585D01*
X151145698Y-101854098D01*
X151166400Y-101922343D01*
X151213571Y-102010595D01*
X151248392Y-102053024D01*
X151277053Y-102087948D01*
X151296430Y-102103850D01*
X151816580Y-102624000D01*
X151805229Y-102624000D01*
X151635022Y-102657856D01*
X151474690Y-102724268D01*
X151330395Y-102820682D01*
X151207682Y-102943395D01*
X151111268Y-103087690D01*
X151044856Y-103248022D01*
X151011000Y-103418229D01*
X151011000Y-103591771D01*
X151044856Y-103761978D01*
X151111268Y-103922310D01*
X151130000Y-103950345D01*
X151130000Y-103951369D01*
X151003000Y-104078369D01*
X151003000Y-98703943D01*
X151005457Y-98678999D01*
X151001787Y-98641740D01*
X150995649Y-98579415D01*
X150966601Y-98483657D01*
X150921914Y-98400054D01*
X150919429Y-98395404D01*
X150871850Y-98337429D01*
X150855948Y-98318052D01*
X150836571Y-98302150D01*
X148331844Y-95797424D01*
X148315937Y-95778041D01*
X148238584Y-95714560D01*
X148150332Y-95667388D01*
X148054574Y-95638340D01*
X147979997Y-95630995D01*
X148054585Y-95623649D01*
X148150343Y-95594601D01*
X148238595Y-95547429D01*
X148315948Y-95483948D01*
X148331855Y-95464565D01*
X149312571Y-94483850D01*
X149331948Y-94467948D01*
X149363647Y-94429322D01*
X149395429Y-94390596D01*
X149430704Y-94324601D01*
X149442601Y-94302343D01*
X149471649Y-94206585D01*
X149479000Y-94131947D01*
X149479000Y-94131944D01*
X149481457Y-94107000D01*
X149479000Y-94082053D01*
X149479000Y-83776420D01*
X150197421Y-83058000D01*
X154333856Y-83058000D01*
X154435341Y-83181659D01*
G36*
X154686000Y-72040750D02*
G01*
X154844750Y-72199500D01*
X156019500Y-72199500D01*
X156019500Y-72179500D01*
X156400500Y-72179500D01*
X156400500Y-72199500D01*
X156420500Y-72199500D01*
X156420500Y-72580500D01*
X156400500Y-72580500D01*
X156400500Y-72600500D01*
X156019500Y-72600500D01*
X156019500Y-72580500D01*
X154844750Y-72580500D01*
X154686000Y-72739250D01*
X154686000Y-73341542D01*
X154710403Y-73464223D01*
X154758270Y-73579785D01*
X154827763Y-73683789D01*
X154916211Y-73772237D01*
X155020215Y-73841730D01*
X155135777Y-73889597D01*
X155258458Y-73914000D01*
X155444612Y-73914000D01*
X155400422Y-73943527D01*
X155223527Y-74120422D01*
X155084541Y-74328429D01*
X154988805Y-74559555D01*
X154940000Y-74804916D01*
X154940000Y-75055084D01*
X154988805Y-75300445D01*
X155084541Y-75531571D01*
X155223527Y-75739578D01*
X155400422Y-75916473D01*
X155608429Y-76055459D01*
X155839555Y-76151195D01*
X156084916Y-76200000D01*
X155839555Y-76248805D01*
X155608429Y-76344541D01*
X155400422Y-76483527D01*
X155223527Y-76660422D01*
X155084541Y-76868429D01*
X154988805Y-77099555D01*
X154940000Y-77344916D01*
X154940000Y-77595084D01*
X154988805Y-77840445D01*
X155084541Y-78071571D01*
X155223527Y-78279578D01*
X155400422Y-78456473D01*
X155608429Y-78595459D01*
X155839555Y-78691195D01*
X156084916Y-78740000D01*
X155839555Y-78788805D01*
X155608429Y-78884541D01*
X155400422Y-79023527D01*
X155223527Y-79200422D01*
X155084541Y-79408429D01*
X154988805Y-79639555D01*
X154940000Y-79884916D01*
X154940000Y-80022765D01*
X154661506Y-80301259D01*
X154578249Y-80402708D01*
X154495699Y-80557147D01*
X154444865Y-80724725D01*
X154427701Y-80898999D01*
X154443380Y-81058199D01*
X154221580Y-81280000D01*
X149884944Y-81280000D01*
X149860000Y-81277543D01*
X149835056Y-81280000D01*
X149835053Y-81280000D01*
X149760415Y-81287351D01*
X149664657Y-81316399D01*
X149576405Y-81363571D01*
X149499052Y-81427052D01*
X149483145Y-81446435D01*
X147867430Y-83062150D01*
X147848053Y-83078052D01*
X147832151Y-83097429D01*
X147832150Y-83097430D01*
X147784571Y-83155405D01*
X147743611Y-83232037D01*
X147737400Y-83243657D01*
X147710830Y-83331248D01*
X147708352Y-83339416D01*
X147698543Y-83439000D01*
X147701001Y-83463954D01*
X147701000Y-93642579D01*
X147490580Y-93853000D01*
X145439944Y-93853000D01*
X145415000Y-93850543D01*
X145390056Y-93853000D01*
X145390053Y-93853000D01*
X145315415Y-93860351D01*
X145219657Y-93889399D01*
X145131405Y-93936571D01*
X145062255Y-93993320D01*
X145119144Y-93855978D01*
X145153000Y-93685771D01*
X145153000Y-93512229D01*
X145119144Y-93342022D01*
X145052732Y-93181690D01*
X144956318Y-93037395D01*
X144833605Y-92914682D01*
X144689310Y-92818268D01*
X144528978Y-92751856D01*
X144358771Y-92718000D01*
X144185229Y-92718000D01*
X144015022Y-92751856D01*
X143854690Y-92818268D01*
X143764000Y-92878865D01*
X143764000Y-87273944D01*
X143766457Y-87249000D01*
X143762039Y-87204146D01*
X143756649Y-87149415D01*
X143727601Y-87053657D01*
X143680429Y-86965405D01*
X143616948Y-86888052D01*
X143597565Y-86872145D01*
X140081000Y-83355580D01*
X140081000Y-74827944D01*
X140083457Y-74803000D01*
X140074618Y-74713258D01*
X140073649Y-74703415D01*
X140044601Y-74607657D01*
X139997429Y-74519405D01*
X139933948Y-74442052D01*
X139914565Y-74426145D01*
X138044855Y-72556435D01*
X138028948Y-72537052D01*
X137951595Y-72473571D01*
X137863343Y-72426399D01*
X137767585Y-72397351D01*
X137692947Y-72390000D01*
X137692944Y-72390000D01*
X137668000Y-72387543D01*
X137643056Y-72390000D01*
X135914943Y-72390000D01*
X135889999Y-72387543D01*
X135865055Y-72390000D01*
X135865053Y-72390000D01*
X135790415Y-72397351D01*
X135694657Y-72426399D01*
X135653576Y-72448357D01*
X135606404Y-72473571D01*
X135551810Y-72518376D01*
X135529052Y-72537052D01*
X135513150Y-72556429D01*
X132750580Y-75319000D01*
X132628229Y-75319000D01*
X132458022Y-75352856D01*
X132297690Y-75419268D01*
X132153395Y-75515682D01*
X132030682Y-75638395D01*
X131934268Y-75782690D01*
X131867856Y-75943022D01*
X131834000Y-76113229D01*
X131834000Y-76286771D01*
X131867856Y-76456978D01*
X131934268Y-76617310D01*
X132030682Y-76761605D01*
X132153395Y-76884318D01*
X132297690Y-76980732D01*
X132458022Y-77047144D01*
X132628229Y-77081000D01*
X132801771Y-77081000D01*
X132971978Y-77047144D01*
X133132310Y-76980732D01*
X133276605Y-76884318D01*
X133399318Y-76761605D01*
X133495732Y-76617310D01*
X133562144Y-76456978D01*
X133596000Y-76286771D01*
X133596000Y-76113229D01*
X133562352Y-75944068D01*
X135639564Y-73866856D01*
X135648864Y-73961274D01*
X135699697Y-74128851D01*
X135782247Y-74283291D01*
X135893341Y-74418659D01*
X135906565Y-74429512D01*
X135840682Y-74495395D01*
X135744268Y-74639690D01*
X135677856Y-74800022D01*
X135644000Y-74970229D01*
X135644000Y-75143771D01*
X135677856Y-75313978D01*
X135744268Y-75474310D01*
X135840682Y-75618605D01*
X135963395Y-75741318D01*
X136107690Y-75837732D01*
X136268022Y-75904144D01*
X136438229Y-75938000D01*
X136611771Y-75938000D01*
X136675002Y-75925423D01*
X137287001Y-76537422D01*
X137287001Y-77151657D01*
X137209318Y-77035395D01*
X137086605Y-76912682D01*
X136942310Y-76816268D01*
X136781978Y-76749856D01*
X136611771Y-76716000D01*
X136438229Y-76716000D01*
X136268022Y-76749856D01*
X136107690Y-76816268D01*
X136079655Y-76835000D01*
X135654713Y-76835000D01*
X135636000Y-76833157D01*
X135128000Y-76833157D01*
X135053311Y-76840513D01*
X135001000Y-76856381D01*
X134948689Y-76840513D01*
X134874000Y-76833157D01*
X134511713Y-76833157D01*
X134493000Y-76831314D01*
X134474287Y-76833157D01*
X134366000Y-76833157D01*
X134347287Y-76835000D01*
X134155659Y-76835000D01*
X134111999Y-76830700D01*
X133937724Y-76847864D01*
X133770148Y-76898698D01*
X133615709Y-76981249D01*
X133514260Y-77064506D01*
X133489766Y-77089000D01*
X133179333Y-77089000D01*
X133048726Y-77101864D01*
X132881149Y-77152697D01*
X132726709Y-77235247D01*
X132591341Y-77346341D01*
X132480247Y-77481709D01*
X132397697Y-77636149D01*
X132346864Y-77803726D01*
X132329699Y-77978000D01*
X132346864Y-78152274D01*
X132394983Y-78310905D01*
X132322291Y-78251248D01*
X132167852Y-78168698D01*
X132000274Y-78117864D01*
X131910439Y-78109016D01*
X131935459Y-78071571D01*
X132031195Y-77840445D01*
X132080000Y-77595084D01*
X132080000Y-77344916D01*
X132031195Y-77099555D01*
X131935459Y-76868429D01*
X131796473Y-76660422D01*
X131619578Y-76483527D01*
X131411571Y-76344541D01*
X131180445Y-76248805D01*
X130935084Y-76200000D01*
X131180445Y-76151195D01*
X131411571Y-76055459D01*
X131619578Y-75916473D01*
X131796473Y-75739578D01*
X131935459Y-75531571D01*
X132031195Y-75300445D01*
X132080000Y-75055084D01*
X132080000Y-74804916D01*
X132031195Y-74559555D01*
X131935459Y-74328429D01*
X131796473Y-74120422D01*
X131619578Y-73943527D01*
X131411571Y-73804541D01*
X131180445Y-73708805D01*
X130944349Y-73661843D01*
X131699000Y-73661843D01*
X131773689Y-73654487D01*
X131845508Y-73632701D01*
X131911696Y-73597322D01*
X131969711Y-73549711D01*
X132017322Y-73491696D01*
X132052701Y-73425508D01*
X132074487Y-73353689D01*
X132081843Y-73279000D01*
X132081843Y-71628000D01*
X154686000Y-71628000D01*
X154686000Y-72040750D01*
X154686000Y-72040750D01*
G37*
X154686000Y-72040750D02*
X154844750Y-72199500D01*
X156019500Y-72199500D01*
X156019500Y-72179500D01*
X156400500Y-72179500D01*
X156400500Y-72199500D01*
X156420500Y-72199500D01*
X156420500Y-72580500D01*
X156400500Y-72580500D01*
X156400500Y-72600500D01*
X156019500Y-72600500D01*
X156019500Y-72580500D01*
X154844750Y-72580500D01*
X154686000Y-72739250D01*
X154686000Y-73341542D01*
X154710403Y-73464223D01*
X154758270Y-73579785D01*
X154827763Y-73683789D01*
X154916211Y-73772237D01*
X155020215Y-73841730D01*
X155135777Y-73889597D01*
X155258458Y-73914000D01*
X155444612Y-73914000D01*
X155400422Y-73943527D01*
X155223527Y-74120422D01*
X155084541Y-74328429D01*
X154988805Y-74559555D01*
X154940000Y-74804916D01*
X154940000Y-75055084D01*
X154988805Y-75300445D01*
X155084541Y-75531571D01*
X155223527Y-75739578D01*
X155400422Y-75916473D01*
X155608429Y-76055459D01*
X155839555Y-76151195D01*
X156084916Y-76200000D01*
X155839555Y-76248805D01*
X155608429Y-76344541D01*
X155400422Y-76483527D01*
X155223527Y-76660422D01*
X155084541Y-76868429D01*
X154988805Y-77099555D01*
X154940000Y-77344916D01*
X154940000Y-77595084D01*
X154988805Y-77840445D01*
X155084541Y-78071571D01*
X155223527Y-78279578D01*
X155400422Y-78456473D01*
X155608429Y-78595459D01*
X155839555Y-78691195D01*
X156084916Y-78740000D01*
X155839555Y-78788805D01*
X155608429Y-78884541D01*
X155400422Y-79023527D01*
X155223527Y-79200422D01*
X155084541Y-79408429D01*
X154988805Y-79639555D01*
X154940000Y-79884916D01*
X154940000Y-80022765D01*
X154661506Y-80301259D01*
X154578249Y-80402708D01*
X154495699Y-80557147D01*
X154444865Y-80724725D01*
X154427701Y-80898999D01*
X154443380Y-81058199D01*
X154221580Y-81280000D01*
X149884944Y-81280000D01*
X149860000Y-81277543D01*
X149835056Y-81280000D01*
X149835053Y-81280000D01*
X149760415Y-81287351D01*
X149664657Y-81316399D01*
X149576405Y-81363571D01*
X149499052Y-81427052D01*
X149483145Y-81446435D01*
X147867430Y-83062150D01*
X147848053Y-83078052D01*
X147832151Y-83097429D01*
X147832150Y-83097430D01*
X147784571Y-83155405D01*
X147743611Y-83232037D01*
X147737400Y-83243657D01*
X147710830Y-83331248D01*
X147708352Y-83339416D01*
X147698543Y-83439000D01*
X147701001Y-83463954D01*
X147701000Y-93642579D01*
X147490580Y-93853000D01*
X145439944Y-93853000D01*
X145415000Y-93850543D01*
X145390056Y-93853000D01*
X145390053Y-93853000D01*
X145315415Y-93860351D01*
X145219657Y-93889399D01*
X145131405Y-93936571D01*
X145062255Y-93993320D01*
X145119144Y-93855978D01*
X145153000Y-93685771D01*
X145153000Y-93512229D01*
X145119144Y-93342022D01*
X145052732Y-93181690D01*
X144956318Y-93037395D01*
X144833605Y-92914682D01*
X144689310Y-92818268D01*
X144528978Y-92751856D01*
X144358771Y-92718000D01*
X144185229Y-92718000D01*
X144015022Y-92751856D01*
X143854690Y-92818268D01*
X143764000Y-92878865D01*
X143764000Y-87273944D01*
X143766457Y-87249000D01*
X143762039Y-87204146D01*
X143756649Y-87149415D01*
X143727601Y-87053657D01*
X143680429Y-86965405D01*
X143616948Y-86888052D01*
X143597565Y-86872145D01*
X140081000Y-83355580D01*
X140081000Y-74827944D01*
X140083457Y-74803000D01*
X140074618Y-74713258D01*
X140073649Y-74703415D01*
X140044601Y-74607657D01*
X139997429Y-74519405D01*
X139933948Y-74442052D01*
X139914565Y-74426145D01*
X138044855Y-72556435D01*
X138028948Y-72537052D01*
X137951595Y-72473571D01*
X137863343Y-72426399D01*
X137767585Y-72397351D01*
X137692947Y-72390000D01*
X137692944Y-72390000D01*
X137668000Y-72387543D01*
X137643056Y-72390000D01*
X135914943Y-72390000D01*
X135889999Y-72387543D01*
X135865055Y-72390000D01*
X135865053Y-72390000D01*
X135790415Y-72397351D01*
X135694657Y-72426399D01*
X135653576Y-72448357D01*
X135606404Y-72473571D01*
X135551810Y-72518376D01*
X135529052Y-72537052D01*
X135513150Y-72556429D01*
X132750580Y-75319000D01*
X132628229Y-75319000D01*
X132458022Y-75352856D01*
X132297690Y-75419268D01*
X132153395Y-75515682D01*
X132030682Y-75638395D01*
X131934268Y-75782690D01*
X131867856Y-75943022D01*
X131834000Y-76113229D01*
X131834000Y-76286771D01*
X131867856Y-76456978D01*
X131934268Y-76617310D01*
X132030682Y-76761605D01*
X132153395Y-76884318D01*
X132297690Y-76980732D01*
X132458022Y-77047144D01*
X132628229Y-77081000D01*
X132801771Y-77081000D01*
X132971978Y-77047144D01*
X133132310Y-76980732D01*
X133276605Y-76884318D01*
X133399318Y-76761605D01*
X133495732Y-76617310D01*
X133562144Y-76456978D01*
X133596000Y-76286771D01*
X133596000Y-76113229D01*
X133562352Y-75944068D01*
X135639564Y-73866856D01*
X135648864Y-73961274D01*
X135699697Y-74128851D01*
X135782247Y-74283291D01*
X135893341Y-74418659D01*
X135906565Y-74429512D01*
X135840682Y-74495395D01*
X135744268Y-74639690D01*
X135677856Y-74800022D01*
X135644000Y-74970229D01*
X135644000Y-75143771D01*
X135677856Y-75313978D01*
X135744268Y-75474310D01*
X135840682Y-75618605D01*
X135963395Y-75741318D01*
X136107690Y-75837732D01*
X136268022Y-75904144D01*
X136438229Y-75938000D01*
X136611771Y-75938000D01*
X136675002Y-75925423D01*
X137287001Y-76537422D01*
X137287001Y-77151657D01*
X137209318Y-77035395D01*
X137086605Y-76912682D01*
X136942310Y-76816268D01*
X136781978Y-76749856D01*
X136611771Y-76716000D01*
X136438229Y-76716000D01*
X136268022Y-76749856D01*
X136107690Y-76816268D01*
X136079655Y-76835000D01*
X135654713Y-76835000D01*
X135636000Y-76833157D01*
X135128000Y-76833157D01*
X135053311Y-76840513D01*
X135001000Y-76856381D01*
X134948689Y-76840513D01*
X134874000Y-76833157D01*
X134511713Y-76833157D01*
X134493000Y-76831314D01*
X134474287Y-76833157D01*
X134366000Y-76833157D01*
X134347287Y-76835000D01*
X134155659Y-76835000D01*
X134111999Y-76830700D01*
X133937724Y-76847864D01*
X133770148Y-76898698D01*
X133615709Y-76981249D01*
X133514260Y-77064506D01*
X133489766Y-77089000D01*
X133179333Y-77089000D01*
X133048726Y-77101864D01*
X132881149Y-77152697D01*
X132726709Y-77235247D01*
X132591341Y-77346341D01*
X132480247Y-77481709D01*
X132397697Y-77636149D01*
X132346864Y-77803726D01*
X132329699Y-77978000D01*
X132346864Y-78152274D01*
X132394983Y-78310905D01*
X132322291Y-78251248D01*
X132167852Y-78168698D01*
X132000274Y-78117864D01*
X131910439Y-78109016D01*
X131935459Y-78071571D01*
X132031195Y-77840445D01*
X132080000Y-77595084D01*
X132080000Y-77344916D01*
X132031195Y-77099555D01*
X131935459Y-76868429D01*
X131796473Y-76660422D01*
X131619578Y-76483527D01*
X131411571Y-76344541D01*
X131180445Y-76248805D01*
X130935084Y-76200000D01*
X131180445Y-76151195D01*
X131411571Y-76055459D01*
X131619578Y-75916473D01*
X131796473Y-75739578D01*
X131935459Y-75531571D01*
X132031195Y-75300445D01*
X132080000Y-75055084D01*
X132080000Y-74804916D01*
X132031195Y-74559555D01*
X131935459Y-74328429D01*
X131796473Y-74120422D01*
X131619578Y-73943527D01*
X131411571Y-73804541D01*
X131180445Y-73708805D01*
X130944349Y-73661843D01*
X131699000Y-73661843D01*
X131773689Y-73654487D01*
X131845508Y-73632701D01*
X131911696Y-73597322D01*
X131969711Y-73549711D01*
X132017322Y-73491696D01*
X132052701Y-73425508D01*
X132074487Y-73353689D01*
X132081843Y-73279000D01*
X132081843Y-71628000D01*
X154686000Y-71628000D01*
X154686000Y-72040750D01*
G36*
X132591341Y-81530659D02*
G01*
X132726709Y-81641753D01*
X132881149Y-81724303D01*
X133048726Y-81775136D01*
X133179333Y-81788000D01*
X134109543Y-81788000D01*
X134112001Y-81812954D01*
X134112000Y-82339579D01*
X132212011Y-84239568D01*
X132127274Y-84213864D01*
X131996667Y-84201000D01*
X131717051Y-84201000D01*
X131619578Y-84103527D01*
X131411571Y-83964541D01*
X131180445Y-83868805D01*
X130935084Y-83820000D01*
X131180445Y-83771195D01*
X131411571Y-83675459D01*
X131619578Y-83536473D01*
X131796473Y-83359578D01*
X131935459Y-83151571D01*
X132031195Y-82920445D01*
X132080000Y-82675084D01*
X132080000Y-82537236D01*
X132231495Y-82385741D01*
X132314752Y-82284292D01*
X132397302Y-82129852D01*
X132448136Y-81962275D01*
X132465300Y-81788000D01*
X132449621Y-81628799D01*
X132548565Y-81529855D01*
X132567948Y-81513948D01*
X132572787Y-81508051D01*
X132591341Y-81530659D01*
X132591341Y-81530659D01*
G37*
X132591341Y-81530659D02*
X132726709Y-81641753D01*
X132881149Y-81724303D01*
X133048726Y-81775136D01*
X133179333Y-81788000D01*
X134109543Y-81788000D01*
X134112001Y-81812954D01*
X134112000Y-82339579D01*
X132212011Y-84239568D01*
X132127274Y-84213864D01*
X131996667Y-84201000D01*
X131717051Y-84201000D01*
X131619578Y-84103527D01*
X131411571Y-83964541D01*
X131180445Y-83868805D01*
X130935084Y-83820000D01*
X131180445Y-83771195D01*
X131411571Y-83675459D01*
X131619578Y-83536473D01*
X131796473Y-83359578D01*
X131935459Y-83151571D01*
X132031195Y-82920445D01*
X132080000Y-82675084D01*
X132080000Y-82537236D01*
X132231495Y-82385741D01*
X132314752Y-82284292D01*
X132397302Y-82129852D01*
X132448136Y-81962275D01*
X132465300Y-81788000D01*
X132449621Y-81628799D01*
X132548565Y-81529855D01*
X132567948Y-81513948D01*
X132572787Y-81508051D01*
X132591341Y-81530659D01*
M02*
