M48
; DRILL file {KiCad 5.1.0-rc2-unknown-036be7d~80~ubuntu16.04.1} date  2.10.2023 (пн) 14:06:39 EEST
; FORMAT={-:-/ absolute / inch / decimal}
; #@! TF.CreationDate,2023-10-02T14:06:39+03:00*
; #@! TF.GenerationSoftware,Kicad,Pcbnew,5.1.0-rc2-unknown-036be7d~80~ubuntu16.04.1
; #@! TF.FileFunction,Plated,1,2,PTH
FMAT,2
INCH
T1C0.0236
T2C0.0354
T3C0.0394
T4C0.0512
%
G90
G05
T1
X5.195Y-3.3
X5.22Y-4.65
X5.225Y-3.0
X5.23Y-4.065
X5.245Y-3.07
X5.245Y-3.185
X5.265Y-4.425
X5.325Y-4.66
X5.335Y-4.345
X5.34Y-4.475
X5.3747Y-3.6548
X5.375Y-2.835
X5.375Y-2.905
X5.375Y-2.955
X5.375Y-3.055
X5.375Y-3.105
X5.375Y-3.155
X5.375Y-3.205
X5.375Y-3.255
X5.375Y-3.305
X5.375Y-3.355
X5.375Y-3.405
X5.375Y-3.455
X5.375Y-3.505
X5.375Y-3.555
X5.375Y-3.605
X5.375Y-4.585
X5.3988Y-3.7038
X5.4Y-3.755
X5.41Y-4.085
X5.41Y-4.2
X5.42Y-4.585
X5.4225Y-4.3825
X5.425Y-4.335
X5.4256Y-3.38
X5.4256Y-3.4294
X5.4256Y-3.4844
X5.47Y-4.07
X5.475Y-2.835
X5.5Y-3.79
X5.525Y-2.875
X5.525Y-4.145
X5.545Y-3.895
X5.55Y-4.31
X5.57Y-3.43
X5.575Y-2.835
X5.575Y-2.925
X5.59Y-3.895
X5.6Y-3.69
X5.605Y-3.47
X5.62Y-4.06
X5.625Y-2.875
X5.625Y-2.975
X5.63Y-4.19
X5.65Y-3.98
X5.65Y-4.61
X5.675Y-2.835
X5.675Y-2.925
X5.68Y-3.685
X5.685Y-4.205
X5.7Y-3.375
X5.7Y-3.74
X5.7Y-3.845
X5.7Y-3.895
X5.72Y-4.305
X5.72Y-4.36
X5.725Y-2.875
X5.725Y-2.975
X5.75Y-3.025
X5.75Y-3.125
X5.75Y-3.225
X5.75Y-3.3
X5.75Y-3.425
X5.75Y-3.75
X5.765Y-4.33
X5.77Y-2.835
X5.77Y-2.925
X5.775Y-4.07
X5.785Y-3.895
X5.8Y-2.975
X5.8Y-3.075
X5.8Y-3.175
X5.8Y-3.3
X5.8Y-3.375
X5.83Y-4.07
X5.85Y-3.025
X5.85Y-3.125
X5.85Y-3.215
X5.88Y-3.91
X5.9Y-2.975
X5.9Y-3.075
X5.9Y-3.175
X5.905Y-3.81
X5.91Y-3.3
X5.91Y-3.35
X5.915Y-4.47
X5.925Y-2.835
X5.925Y-3.405
X5.925Y-3.455
X5.925Y-3.555
X5.925Y-3.605
X5.925Y-3.655
X5.925Y-3.705
X5.925Y-3.755
X5.935Y-4.33
X5.98Y-4.075
X5.985Y-4.17
X6.075Y-4.655
X5.5398Y-3.0796
X5.5398Y-3.1505
X5.5398Y-3.2213
X5.6106Y-3.0796
X5.6106Y-3.2213
X5.6815Y-3.0796
X5.6815Y-3.1505
X5.6815Y-3.2213
T2
X5.9195Y-4.5758
X5.9994Y-4.5757
T3
X6.15Y-2.85
X6.15Y-2.95
X6.15Y-3.05
X6.15Y-3.15
X6.15Y-3.25
X6.15Y-3.35
X6.15Y-3.45
X6.15Y-3.55
X6.15Y-3.65
X6.15Y-3.75
X6.15Y-3.85
X6.15Y-3.95
X6.15Y-4.05
X6.15Y-4.15
X6.15Y-4.25
X6.15Y-4.35
X6.15Y-4.45
X6.15Y-4.55
X6.15Y-4.65
X5.15Y-2.85
X5.15Y-2.95
X5.15Y-3.05
X5.15Y-3.15
X5.15Y-3.25
X5.15Y-3.35
X5.15Y-3.45
X5.15Y-3.55
X5.15Y-3.65
X5.15Y-3.75
X5.15Y-3.85
X5.15Y-3.95
X5.15Y-4.05
X5.15Y-4.15
X5.15Y-4.25
X5.15Y-4.35
X5.15Y-4.45
X5.15Y-4.55
X5.15Y-4.65
T4
X5.6106Y-3.1505
T1
G00X5.5083Y-4.4164
M15
G01X5.5083Y-4.44
M16
G05
G00X5.5083Y-4.553
M15
G01X5.5083Y-4.5767
M16
G05
G00X5.7917Y-4.4164
M15
G01X5.7917Y-4.44
M16
G05
G00X5.7917Y-4.553
M15
G01X5.7917Y-4.5767
M16
G05
T0
M30
