G04 #@! TF.GenerationSoftware,KiCad,Pcbnew,5.1.0-rc2-unknown-036be7d~80~ubuntu16.04.1*
G04 #@! TF.CreationDate,2023-10-02T14:06:35+03:00*
G04 #@! TF.ProjectId,ESP32-DevKit-Lipo_Rev_D,45535033-322d-4446-9576-4b69742d4c69,D*
G04 #@! TF.SameCoordinates,Original*
G04 #@! TF.FileFunction,Legend,Top*
G04 #@! TF.FilePolarity,Positive*
%FSLAX46Y46*%
G04 Gerber Fmt 4.6, Leading zero omitted, Abs format (unit mm)*
G04 Created by KiCad (PCBNEW 5.1.0-rc2-unknown-036be7d~80~ubuntu16.04.1) date 2023-10-02 14:06:35*
%MOMM*%
%LPD*%
G04 APERTURE LIST*
%ADD10C,0.254000*%
%ADD11C,0.222250*%
%ADD12C,0.127000*%
%ADD13C,0.190500*%
%ADD14C,0.203200*%
%ADD15C,0.177800*%
%ADD16C,0.146050*%
%ADD17C,0.100000*%
%ADD18C,0.050000*%
%ADD19C,0.009000*%
%ADD20C,0.158750*%
G04 APERTURE END LIST*
D10*
X152527000Y-111379000D02*
X152273000Y-111125000D01*
X152273000Y-111125000D02*
X151638000Y-111125000D01*
D11*
X138514666Y-94043500D02*
X138684000Y-94636166D01*
X138853333Y-94212833D01*
X139022666Y-94636166D01*
X139192000Y-94043500D01*
X139446000Y-94043500D02*
X139615333Y-94636166D01*
X139784666Y-94212833D01*
X139954000Y-94636166D01*
X140123333Y-94043500D01*
X140377333Y-94043500D02*
X140546666Y-94636166D01*
X140716000Y-94212833D01*
X140885333Y-94636166D01*
X141054666Y-94043500D01*
X141393333Y-94551500D02*
X141435666Y-94593833D01*
X141393333Y-94636166D01*
X141351000Y-94593833D01*
X141393333Y-94551500D01*
X141393333Y-94636166D01*
X141943666Y-94636166D02*
X141859000Y-94593833D01*
X141816666Y-94551500D01*
X141774333Y-94466833D01*
X141774333Y-94212833D01*
X141816666Y-94128166D01*
X141859000Y-94085833D01*
X141943666Y-94043500D01*
X142070666Y-94043500D01*
X142155333Y-94085833D01*
X142197666Y-94128166D01*
X142240000Y-94212833D01*
X142240000Y-94466833D01*
X142197666Y-94551500D01*
X142155333Y-94593833D01*
X142070666Y-94636166D01*
X141943666Y-94636166D01*
X142748000Y-94636166D02*
X142663333Y-94593833D01*
X142621000Y-94509166D01*
X142621000Y-93747166D01*
X143086666Y-94636166D02*
X143086666Y-94043500D01*
X143086666Y-93747166D02*
X143044333Y-93789500D01*
X143086666Y-93831833D01*
X143129000Y-93789500D01*
X143086666Y-93747166D01*
X143086666Y-93831833D01*
X143510000Y-94636166D02*
X143510000Y-94043500D01*
X143510000Y-94128166D02*
X143552333Y-94085833D01*
X143637000Y-94043500D01*
X143764000Y-94043500D01*
X143848666Y-94085833D01*
X143891000Y-94170500D01*
X143891000Y-94636166D01*
X143891000Y-94170500D02*
X143933333Y-94085833D01*
X144018000Y-94043500D01*
X144145000Y-94043500D01*
X144229666Y-94085833D01*
X144272000Y-94170500D01*
X144272000Y-94636166D01*
X145034000Y-94593833D02*
X144949333Y-94636166D01*
X144780000Y-94636166D01*
X144695333Y-94593833D01*
X144653000Y-94509166D01*
X144653000Y-94170500D01*
X144695333Y-94085833D01*
X144780000Y-94043500D01*
X144949333Y-94043500D01*
X145034000Y-94085833D01*
X145076333Y-94170500D01*
X145076333Y-94255166D01*
X144653000Y-94339833D01*
X145372666Y-94636166D02*
X145838333Y-94043500D01*
X145372666Y-94043500D02*
X145838333Y-94636166D01*
X146177000Y-94551500D02*
X146219333Y-94593833D01*
X146177000Y-94636166D01*
X146134666Y-94593833D01*
X146177000Y-94551500D01*
X146177000Y-94636166D01*
X146981333Y-94593833D02*
X146896666Y-94636166D01*
X146727333Y-94636166D01*
X146642666Y-94593833D01*
X146600333Y-94551500D01*
X146558000Y-94466833D01*
X146558000Y-94212833D01*
X146600333Y-94128166D01*
X146642666Y-94085833D01*
X146727333Y-94043500D01*
X146896666Y-94043500D01*
X146981333Y-94085833D01*
X147489333Y-94636166D02*
X147404666Y-94593833D01*
X147362333Y-94551500D01*
X147320000Y-94466833D01*
X147320000Y-94212833D01*
X147362333Y-94128166D01*
X147404666Y-94085833D01*
X147489333Y-94043500D01*
X147616333Y-94043500D01*
X147701000Y-94085833D01*
X147743333Y-94128166D01*
X147785666Y-94212833D01*
X147785666Y-94466833D01*
X147743333Y-94551500D01*
X147701000Y-94593833D01*
X147616333Y-94636166D01*
X147489333Y-94636166D01*
X148166666Y-94636166D02*
X148166666Y-94043500D01*
X148166666Y-94128166D02*
X148209000Y-94085833D01*
X148293666Y-94043500D01*
X148420666Y-94043500D01*
X148505333Y-94085833D01*
X148547666Y-94170500D01*
X148547666Y-94636166D01*
X148547666Y-94170500D02*
X148590000Y-94085833D01*
X148674666Y-94043500D01*
X148801666Y-94043500D01*
X148886333Y-94085833D01*
X148928666Y-94170500D01*
X148928666Y-94636166D01*
D12*
X131801809Y-73907952D02*
X131801809Y-73593476D01*
X131995333Y-73762809D01*
X131995333Y-73690238D01*
X132019523Y-73641857D01*
X132043714Y-73617666D01*
X132092095Y-73593476D01*
X132213047Y-73593476D01*
X132261428Y-73617666D01*
X132285619Y-73641857D01*
X132309809Y-73690238D01*
X132309809Y-73835380D01*
X132285619Y-73883761D01*
X132261428Y-73907952D01*
X131801809Y-73448333D02*
X132309809Y-73279000D01*
X131801809Y-73109666D01*
X131801809Y-72988714D02*
X131801809Y-72674238D01*
X131995333Y-72843571D01*
X131995333Y-72771000D01*
X132019523Y-72722619D01*
X132043714Y-72698428D01*
X132092095Y-72674238D01*
X132213047Y-72674238D01*
X132261428Y-72698428D01*
X132285619Y-72722619D01*
X132309809Y-72771000D01*
X132309809Y-72916142D01*
X132285619Y-72964523D01*
X132261428Y-72988714D01*
D13*
X147474214Y-117529428D02*
X148054785Y-117529428D01*
X147764500Y-117819714D02*
X147764500Y-117239142D01*
X148744214Y-115243428D02*
X149324785Y-115243428D01*
X149034500Y-115533714D02*
X149034500Y-114953142D01*
X153316214Y-115243428D02*
X153896785Y-115243428D01*
D14*
X148755100Y-111150400D02*
G75*
G03X148755100Y-111150400I-190500J0D01*
G01*
X147002500Y-108458000D02*
G75*
G03X147002500Y-108458000I-190500J0D01*
G01*
D12*
X149654380Y-117387309D02*
X149968857Y-117387309D01*
X149799523Y-117580833D01*
X149872095Y-117580833D01*
X149920476Y-117605023D01*
X149944666Y-117629214D01*
X149968857Y-117677595D01*
X149968857Y-117798547D01*
X149944666Y-117846928D01*
X149920476Y-117871119D01*
X149872095Y-117895309D01*
X149726952Y-117895309D01*
X149678571Y-117871119D01*
X149654380Y-117846928D01*
X150186571Y-117846928D02*
X150210761Y-117871119D01*
X150186571Y-117895309D01*
X150162380Y-117871119D01*
X150186571Y-117846928D01*
X150186571Y-117895309D01*
X150380095Y-117387309D02*
X150718761Y-117387309D01*
X150501047Y-117895309D01*
X150839714Y-117387309D02*
X151009047Y-117895309D01*
X151178380Y-117387309D01*
X151976666Y-117895309D02*
X151734761Y-117895309D01*
X151734761Y-117387309D01*
X152146000Y-117895309D02*
X152146000Y-117556642D01*
X152146000Y-117387309D02*
X152121809Y-117411500D01*
X152146000Y-117435690D01*
X152170190Y-117411500D01*
X152146000Y-117387309D01*
X152146000Y-117435690D01*
X152387904Y-117556642D02*
X152387904Y-118064642D01*
X152387904Y-117580833D02*
X152436285Y-117556642D01*
X152533047Y-117556642D01*
X152581428Y-117580833D01*
X152605619Y-117605023D01*
X152629809Y-117653404D01*
X152629809Y-117798547D01*
X152605619Y-117846928D01*
X152581428Y-117871119D01*
X152533047Y-117895309D01*
X152436285Y-117895309D01*
X152387904Y-117871119D01*
X152920095Y-117895309D02*
X152871714Y-117871119D01*
X152847523Y-117846928D01*
X152823333Y-117798547D01*
X152823333Y-117653404D01*
X152847523Y-117605023D01*
X152871714Y-117580833D01*
X152920095Y-117556642D01*
X152992666Y-117556642D01*
X153041047Y-117580833D01*
X153065238Y-117605023D01*
X153089428Y-117653404D01*
X153089428Y-117798547D01*
X153065238Y-117846928D01*
X153041047Y-117871119D01*
X152992666Y-117895309D01*
X152920095Y-117895309D01*
X150331714Y-118518214D02*
X150404285Y-118542404D01*
X150428476Y-118566595D01*
X150452666Y-118614976D01*
X150452666Y-118687547D01*
X150428476Y-118735928D01*
X150404285Y-118760119D01*
X150355904Y-118784309D01*
X150162380Y-118784309D01*
X150162380Y-118276309D01*
X150331714Y-118276309D01*
X150380095Y-118300500D01*
X150404285Y-118324690D01*
X150428476Y-118373071D01*
X150428476Y-118421452D01*
X150404285Y-118469833D01*
X150380095Y-118494023D01*
X150331714Y-118518214D01*
X150162380Y-118518214D01*
X150888095Y-118784309D02*
X150888095Y-118518214D01*
X150863904Y-118469833D01*
X150815523Y-118445642D01*
X150718761Y-118445642D01*
X150670380Y-118469833D01*
X150888095Y-118760119D02*
X150839714Y-118784309D01*
X150718761Y-118784309D01*
X150670380Y-118760119D01*
X150646190Y-118711738D01*
X150646190Y-118663357D01*
X150670380Y-118614976D01*
X150718761Y-118590785D01*
X150839714Y-118590785D01*
X150888095Y-118566595D01*
X151057428Y-118445642D02*
X151250952Y-118445642D01*
X151130000Y-118276309D02*
X151130000Y-118711738D01*
X151154190Y-118760119D01*
X151202571Y-118784309D01*
X151250952Y-118784309D01*
X151347714Y-118445642D02*
X151541238Y-118445642D01*
X151420285Y-118276309D02*
X151420285Y-118711738D01*
X151444476Y-118760119D01*
X151492857Y-118784309D01*
X151541238Y-118784309D01*
X151904095Y-118760119D02*
X151855714Y-118784309D01*
X151758952Y-118784309D01*
X151710571Y-118760119D01*
X151686380Y-118711738D01*
X151686380Y-118518214D01*
X151710571Y-118469833D01*
X151758952Y-118445642D01*
X151855714Y-118445642D01*
X151904095Y-118469833D01*
X151928285Y-118518214D01*
X151928285Y-118566595D01*
X151686380Y-118614976D01*
X152146000Y-118784309D02*
X152146000Y-118445642D01*
X152146000Y-118542404D02*
X152170190Y-118494023D01*
X152194380Y-118469833D01*
X152242761Y-118445642D01*
X152291142Y-118445642D01*
X152412095Y-118445642D02*
X152533047Y-118784309D01*
X152654000Y-118445642D02*
X152533047Y-118784309D01*
X152484666Y-118905261D01*
X152460476Y-118929452D01*
X152412095Y-118953642D01*
D15*
X137591800Y-97476733D02*
X137354733Y-97138066D01*
X137185400Y-97476733D02*
X137185400Y-96765533D01*
X137456333Y-96765533D01*
X137524066Y-96799400D01*
X137557933Y-96833266D01*
X137591800Y-96901000D01*
X137591800Y-97002600D01*
X137557933Y-97070333D01*
X137524066Y-97104200D01*
X137456333Y-97138066D01*
X137185400Y-97138066D01*
X137998200Y-97476733D02*
X137930466Y-97442866D01*
X137896600Y-97409000D01*
X137862733Y-97341266D01*
X137862733Y-97138066D01*
X137896600Y-97070333D01*
X137930466Y-97036466D01*
X137998200Y-97002600D01*
X138099800Y-97002600D01*
X138167533Y-97036466D01*
X138201400Y-97070333D01*
X138235266Y-97138066D01*
X138235266Y-97341266D01*
X138201400Y-97409000D01*
X138167533Y-97442866D01*
X138099800Y-97476733D01*
X137998200Y-97476733D01*
X138540066Y-97476733D02*
X138540066Y-96765533D01*
X138540066Y-97104200D02*
X138946466Y-97104200D01*
X138946466Y-97476733D02*
X138946466Y-96765533D01*
X139251266Y-97442866D02*
X139352866Y-97476733D01*
X139522200Y-97476733D01*
X139589933Y-97442866D01*
X139623800Y-97409000D01*
X139657666Y-97341266D01*
X139657666Y-97273533D01*
X139623800Y-97205800D01*
X139589933Y-97171933D01*
X139522200Y-97138066D01*
X139386733Y-97104200D01*
X139319000Y-97070333D01*
X139285133Y-97036466D01*
X139251266Y-96968733D01*
X139251266Y-96901000D01*
X139285133Y-96833266D01*
X139319000Y-96799400D01*
X139386733Y-96765533D01*
X139556066Y-96765533D01*
X139657666Y-96799400D01*
X140910733Y-97409000D02*
X140876866Y-97442866D01*
X140775266Y-97476733D01*
X140707533Y-97476733D01*
X140605933Y-97442866D01*
X140538200Y-97375133D01*
X140504333Y-97307400D01*
X140470466Y-97171933D01*
X140470466Y-97070333D01*
X140504333Y-96934866D01*
X140538200Y-96867133D01*
X140605933Y-96799400D01*
X140707533Y-96765533D01*
X140775266Y-96765533D01*
X140876866Y-96799400D01*
X140910733Y-96833266D01*
X141317133Y-97476733D02*
X141249400Y-97442866D01*
X141215533Y-97409000D01*
X141181666Y-97341266D01*
X141181666Y-97138066D01*
X141215533Y-97070333D01*
X141249400Y-97036466D01*
X141317133Y-97002600D01*
X141418733Y-97002600D01*
X141486466Y-97036466D01*
X141520333Y-97070333D01*
X141554200Y-97138066D01*
X141554200Y-97341266D01*
X141520333Y-97409000D01*
X141486466Y-97442866D01*
X141418733Y-97476733D01*
X141317133Y-97476733D01*
X141859000Y-97476733D02*
X141859000Y-97002600D01*
X141859000Y-97070333D02*
X141892866Y-97036466D01*
X141960600Y-97002600D01*
X142062200Y-97002600D01*
X142129933Y-97036466D01*
X142163800Y-97104200D01*
X142163800Y-97476733D01*
X142163800Y-97104200D02*
X142197666Y-97036466D01*
X142265400Y-97002600D01*
X142367000Y-97002600D01*
X142434733Y-97036466D01*
X142468600Y-97104200D01*
X142468600Y-97476733D01*
X142807266Y-97002600D02*
X142807266Y-97713800D01*
X142807266Y-97036466D02*
X142875000Y-97002600D01*
X143010466Y-97002600D01*
X143078200Y-97036466D01*
X143112066Y-97070333D01*
X143145933Y-97138066D01*
X143145933Y-97341266D01*
X143112066Y-97409000D01*
X143078200Y-97442866D01*
X143010466Y-97476733D01*
X142875000Y-97476733D01*
X142807266Y-97442866D01*
X143552333Y-97476733D02*
X143484600Y-97442866D01*
X143450733Y-97375133D01*
X143450733Y-96765533D01*
X143823266Y-97476733D02*
X143823266Y-97002600D01*
X143823266Y-96765533D02*
X143789400Y-96799400D01*
X143823266Y-96833266D01*
X143857133Y-96799400D01*
X143823266Y-96765533D01*
X143823266Y-96833266D01*
X144466733Y-97476733D02*
X144466733Y-97104200D01*
X144432866Y-97036466D01*
X144365133Y-97002600D01*
X144229666Y-97002600D01*
X144161933Y-97036466D01*
X144466733Y-97442866D02*
X144399000Y-97476733D01*
X144229666Y-97476733D01*
X144161933Y-97442866D01*
X144128066Y-97375133D01*
X144128066Y-97307400D01*
X144161933Y-97239666D01*
X144229666Y-97205800D01*
X144399000Y-97205800D01*
X144466733Y-97171933D01*
X144805400Y-97002600D02*
X144805400Y-97476733D01*
X144805400Y-97070333D02*
X144839266Y-97036466D01*
X144907000Y-97002600D01*
X145008600Y-97002600D01*
X145076333Y-97036466D01*
X145110200Y-97104200D01*
X145110200Y-97476733D01*
X145347266Y-97002600D02*
X145618200Y-97002600D01*
X145448866Y-96765533D02*
X145448866Y-97375133D01*
X145482733Y-97442866D01*
X145550466Y-97476733D01*
X145618200Y-97476733D01*
D13*
X133440714Y-104974571D02*
X132678714Y-104974571D01*
X132678714Y-104684285D01*
X132715000Y-104611714D01*
X132751285Y-104575428D01*
X132823857Y-104539142D01*
X132932714Y-104539142D01*
X133005285Y-104575428D01*
X133041571Y-104611714D01*
X133077857Y-104684285D01*
X133077857Y-104974571D01*
X133440714Y-104212571D02*
X132678714Y-104212571D01*
X132969000Y-104212571D02*
X132932714Y-104140000D01*
X132932714Y-103994857D01*
X132969000Y-103922285D01*
X133005285Y-103886000D01*
X133077857Y-103849714D01*
X133295571Y-103849714D01*
X133368142Y-103886000D01*
X133404428Y-103922285D01*
X133440714Y-103994857D01*
X133440714Y-104140000D01*
X133404428Y-104212571D01*
X133150428Y-103523142D02*
X133150428Y-102942571D01*
X133041571Y-102325714D02*
X133041571Y-102579714D01*
X133440714Y-102579714D02*
X132678714Y-102579714D01*
X132678714Y-102216857D01*
X133440714Y-101926571D02*
X132932714Y-101926571D01*
X133077857Y-101926571D02*
X133005285Y-101890285D01*
X132969000Y-101854000D01*
X132932714Y-101781428D01*
X132932714Y-101708857D01*
X133404428Y-101164571D02*
X133440714Y-101237142D01*
X133440714Y-101382285D01*
X133404428Y-101454857D01*
X133331857Y-101491142D01*
X133041571Y-101491142D01*
X132969000Y-101454857D01*
X132932714Y-101382285D01*
X132932714Y-101237142D01*
X132969000Y-101164571D01*
X133041571Y-101128285D01*
X133114142Y-101128285D01*
X133186714Y-101491142D01*
X133404428Y-100511428D02*
X133440714Y-100584000D01*
X133440714Y-100729142D01*
X133404428Y-100801714D01*
X133331857Y-100838000D01*
X133041571Y-100838000D01*
X132969000Y-100801714D01*
X132932714Y-100729142D01*
X132932714Y-100584000D01*
X132969000Y-100511428D01*
X133041571Y-100475142D01*
X133114142Y-100475142D01*
X133186714Y-100838000D01*
D10*
X153851428Y-96314380D02*
X153851428Y-95975714D01*
X154383619Y-95830571D02*
X154383619Y-96314380D01*
X153367619Y-96314380D01*
X153367619Y-95830571D01*
X153367619Y-95491904D02*
X154383619Y-94814571D01*
X153367619Y-94814571D02*
X154383619Y-95491904D01*
X153367619Y-94572666D02*
X153367619Y-93992095D01*
X154383619Y-94282380D02*
X153367619Y-94282380D01*
X153464380Y-93701809D02*
X153416000Y-93653428D01*
X153367619Y-93556666D01*
X153367619Y-93314761D01*
X153416000Y-93218000D01*
X153464380Y-93169619D01*
X153561142Y-93121238D01*
X153657904Y-93121238D01*
X153803047Y-93169619D01*
X154383619Y-93750190D01*
X154383619Y-93121238D01*
X133150428Y-96314380D02*
X133150428Y-95975714D01*
X133682619Y-95830571D02*
X133682619Y-96314380D01*
X132666619Y-96314380D01*
X132666619Y-95830571D01*
X132666619Y-95491904D02*
X133682619Y-94814571D01*
X132666619Y-94814571D02*
X133682619Y-95491904D01*
X132666619Y-94572666D02*
X132666619Y-93992095D01*
X133682619Y-94282380D02*
X132666619Y-94282380D01*
X133682619Y-93121238D02*
X133682619Y-93701809D01*
X133682619Y-93411523D02*
X132666619Y-93411523D01*
X132811761Y-93508285D01*
X132908523Y-93605047D01*
X132956904Y-93701809D01*
D12*
X153981452Y-73088500D02*
X153933071Y-73064309D01*
X153860500Y-73064309D01*
X153787928Y-73088500D01*
X153739547Y-73136880D01*
X153715357Y-73185261D01*
X153691166Y-73282023D01*
X153691166Y-73354595D01*
X153715357Y-73451357D01*
X153739547Y-73499738D01*
X153787928Y-73548119D01*
X153860500Y-73572309D01*
X153908880Y-73572309D01*
X153981452Y-73548119D01*
X154005642Y-73523928D01*
X154005642Y-73354595D01*
X153908880Y-73354595D01*
X154223357Y-73572309D02*
X154223357Y-73064309D01*
X154513642Y-73572309D01*
X154513642Y-73064309D01*
X154755547Y-73572309D02*
X154755547Y-73064309D01*
X154876500Y-73064309D01*
X154949071Y-73088500D01*
X154997452Y-73136880D01*
X155021642Y-73185261D01*
X155045833Y-73282023D01*
X155045833Y-73354595D01*
X155021642Y-73451357D01*
X154997452Y-73499738D01*
X154949071Y-73548119D01*
X154876500Y-73572309D01*
X154755547Y-73572309D01*
X154686000Y-118923404D02*
X154661809Y-118971785D01*
X154661809Y-119044357D01*
X154686000Y-119116928D01*
X154734380Y-119165309D01*
X154782761Y-119189500D01*
X154879523Y-119213690D01*
X154952095Y-119213690D01*
X155048857Y-119189500D01*
X155097238Y-119165309D01*
X155145619Y-119116928D01*
X155169809Y-119044357D01*
X155169809Y-118995976D01*
X155145619Y-118923404D01*
X155121428Y-118899214D01*
X154952095Y-118899214D01*
X154952095Y-118995976D01*
X155169809Y-118681500D02*
X154661809Y-118681500D01*
X154661809Y-118487976D01*
X154686000Y-118439595D01*
X154710190Y-118415404D01*
X154758571Y-118391214D01*
X154831142Y-118391214D01*
X154879523Y-118415404D01*
X154903714Y-118439595D01*
X154927904Y-118487976D01*
X154927904Y-118681500D01*
X155169809Y-118173500D02*
X154661809Y-118173500D01*
X154661809Y-117834833D02*
X154661809Y-117738071D01*
X154686000Y-117689690D01*
X154734380Y-117641309D01*
X154831142Y-117617119D01*
X155000476Y-117617119D01*
X155097238Y-117641309D01*
X155145619Y-117689690D01*
X155169809Y-117738071D01*
X155169809Y-117834833D01*
X155145619Y-117883214D01*
X155097238Y-117931595D01*
X155000476Y-117955785D01*
X154831142Y-117955785D01*
X154734380Y-117931595D01*
X154686000Y-117883214D01*
X154661809Y-117834833D01*
X154661809Y-117181690D02*
X154661809Y-117278452D01*
X154686000Y-117326833D01*
X154710190Y-117351023D01*
X154782761Y-117399404D01*
X154879523Y-117423595D01*
X155073047Y-117423595D01*
X155121428Y-117399404D01*
X155145619Y-117375214D01*
X155169809Y-117326833D01*
X155169809Y-117230071D01*
X155145619Y-117181690D01*
X155121428Y-117157500D01*
X155073047Y-117133309D01*
X154952095Y-117133309D01*
X154903714Y-117157500D01*
X154879523Y-117181690D01*
X154855333Y-117230071D01*
X154855333Y-117326833D01*
X154879523Y-117375214D01*
X154903714Y-117399404D01*
X154952095Y-117423595D01*
X155460095Y-116611400D02*
X155411714Y-116587209D01*
X155339142Y-116587209D01*
X155266571Y-116611400D01*
X155218190Y-116659780D01*
X155194000Y-116708161D01*
X155169809Y-116804923D01*
X155169809Y-116877495D01*
X155194000Y-116974257D01*
X155218190Y-117022638D01*
X155266571Y-117071019D01*
X155339142Y-117095209D01*
X155387523Y-117095209D01*
X155460095Y-117071019D01*
X155484285Y-117046828D01*
X155484285Y-116877495D01*
X155387523Y-116877495D01*
X155702000Y-117095209D02*
X155702000Y-116587209D01*
X155895523Y-116587209D01*
X155943904Y-116611400D01*
X155968095Y-116635590D01*
X155992285Y-116683971D01*
X155992285Y-116756542D01*
X155968095Y-116804923D01*
X155943904Y-116829114D01*
X155895523Y-116853304D01*
X155702000Y-116853304D01*
X156210000Y-117095209D02*
X156210000Y-116587209D01*
X156548666Y-116587209D02*
X156645428Y-116587209D01*
X156693809Y-116611400D01*
X156742190Y-116659780D01*
X156766380Y-116756542D01*
X156766380Y-116925876D01*
X156742190Y-117022638D01*
X156693809Y-117071019D01*
X156645428Y-117095209D01*
X156548666Y-117095209D01*
X156500285Y-117071019D01*
X156451904Y-117022638D01*
X156427714Y-116925876D01*
X156427714Y-116756542D01*
X156451904Y-116659780D01*
X156500285Y-116611400D01*
X156548666Y-116587209D01*
X156935714Y-116587209D02*
X157274380Y-116587209D01*
X157056666Y-117095209D01*
X155460095Y-114071400D02*
X155411714Y-114047209D01*
X155339142Y-114047209D01*
X155266571Y-114071400D01*
X155218190Y-114119780D01*
X155194000Y-114168161D01*
X155169809Y-114264923D01*
X155169809Y-114337495D01*
X155194000Y-114434257D01*
X155218190Y-114482638D01*
X155266571Y-114531019D01*
X155339142Y-114555209D01*
X155387523Y-114555209D01*
X155460095Y-114531019D01*
X155484285Y-114506828D01*
X155484285Y-114337495D01*
X155387523Y-114337495D01*
X155702000Y-114555209D02*
X155702000Y-114047209D01*
X155895523Y-114047209D01*
X155943904Y-114071400D01*
X155968095Y-114095590D01*
X155992285Y-114143971D01*
X155992285Y-114216542D01*
X155968095Y-114264923D01*
X155943904Y-114289114D01*
X155895523Y-114313304D01*
X155702000Y-114313304D01*
X156210000Y-114555209D02*
X156210000Y-114047209D01*
X156548666Y-114047209D02*
X156645428Y-114047209D01*
X156693809Y-114071400D01*
X156742190Y-114119780D01*
X156766380Y-114216542D01*
X156766380Y-114385876D01*
X156742190Y-114482638D01*
X156693809Y-114531019D01*
X156645428Y-114555209D01*
X156548666Y-114555209D01*
X156500285Y-114531019D01*
X156451904Y-114482638D01*
X156427714Y-114385876D01*
X156427714Y-114216542D01*
X156451904Y-114119780D01*
X156500285Y-114071400D01*
X156548666Y-114047209D01*
X157056666Y-114264923D02*
X157008285Y-114240733D01*
X156984095Y-114216542D01*
X156959904Y-114168161D01*
X156959904Y-114143971D01*
X156984095Y-114095590D01*
X157008285Y-114071400D01*
X157056666Y-114047209D01*
X157153428Y-114047209D01*
X157201809Y-114071400D01*
X157226000Y-114095590D01*
X157250190Y-114143971D01*
X157250190Y-114168161D01*
X157226000Y-114216542D01*
X157201809Y-114240733D01*
X157153428Y-114264923D01*
X157056666Y-114264923D01*
X157008285Y-114289114D01*
X156984095Y-114313304D01*
X156959904Y-114361685D01*
X156959904Y-114458447D01*
X156984095Y-114506828D01*
X157008285Y-114531019D01*
X157056666Y-114555209D01*
X157153428Y-114555209D01*
X157201809Y-114531019D01*
X157226000Y-114506828D01*
X157250190Y-114458447D01*
X157250190Y-114361685D01*
X157226000Y-114313304D01*
X157201809Y-114289114D01*
X157153428Y-114264923D01*
X154964190Y-111506000D02*
X154915809Y-111481809D01*
X154843238Y-111481809D01*
X154770666Y-111506000D01*
X154722285Y-111554380D01*
X154698095Y-111602761D01*
X154673904Y-111699523D01*
X154673904Y-111772095D01*
X154698095Y-111868857D01*
X154722285Y-111917238D01*
X154770666Y-111965619D01*
X154843238Y-111989809D01*
X154891619Y-111989809D01*
X154964190Y-111965619D01*
X154988380Y-111941428D01*
X154988380Y-111772095D01*
X154891619Y-111772095D01*
X155206095Y-111989809D02*
X155206095Y-111481809D01*
X155399619Y-111481809D01*
X155448000Y-111506000D01*
X155472190Y-111530190D01*
X155496380Y-111578571D01*
X155496380Y-111651142D01*
X155472190Y-111699523D01*
X155448000Y-111723714D01*
X155399619Y-111747904D01*
X155206095Y-111747904D01*
X155714095Y-111989809D02*
X155714095Y-111481809D01*
X156052761Y-111481809D02*
X156149523Y-111481809D01*
X156197904Y-111506000D01*
X156246285Y-111554380D01*
X156270476Y-111651142D01*
X156270476Y-111820476D01*
X156246285Y-111917238D01*
X156197904Y-111965619D01*
X156149523Y-111989809D01*
X156052761Y-111989809D01*
X156004380Y-111965619D01*
X155956000Y-111917238D01*
X155931809Y-111820476D01*
X155931809Y-111651142D01*
X155956000Y-111554380D01*
X156004380Y-111506000D01*
X156052761Y-111481809D01*
X156754285Y-111989809D02*
X156464000Y-111989809D01*
X156609142Y-111989809D02*
X156609142Y-111481809D01*
X156560761Y-111554380D01*
X156512380Y-111602761D01*
X156464000Y-111626952D01*
X157213904Y-111481809D02*
X156972000Y-111481809D01*
X156947809Y-111723714D01*
X156972000Y-111699523D01*
X157020380Y-111675333D01*
X157141333Y-111675333D01*
X157189714Y-111699523D01*
X157213904Y-111723714D01*
X157238095Y-111772095D01*
X157238095Y-111893047D01*
X157213904Y-111941428D01*
X157189714Y-111965619D01*
X157141333Y-111989809D01*
X157020380Y-111989809D01*
X156972000Y-111965619D01*
X156947809Y-111941428D01*
X155460095Y-108966000D02*
X155411714Y-108941809D01*
X155339142Y-108941809D01*
X155266571Y-108966000D01*
X155218190Y-109014380D01*
X155194000Y-109062761D01*
X155169809Y-109159523D01*
X155169809Y-109232095D01*
X155194000Y-109328857D01*
X155218190Y-109377238D01*
X155266571Y-109425619D01*
X155339142Y-109449809D01*
X155387523Y-109449809D01*
X155460095Y-109425619D01*
X155484285Y-109401428D01*
X155484285Y-109232095D01*
X155387523Y-109232095D01*
X155702000Y-109449809D02*
X155702000Y-108941809D01*
X155895523Y-108941809D01*
X155943904Y-108966000D01*
X155968095Y-108990190D01*
X155992285Y-109038571D01*
X155992285Y-109111142D01*
X155968095Y-109159523D01*
X155943904Y-109183714D01*
X155895523Y-109207904D01*
X155702000Y-109207904D01*
X156210000Y-109449809D02*
X156210000Y-108941809D01*
X156548666Y-108941809D02*
X156645428Y-108941809D01*
X156693809Y-108966000D01*
X156742190Y-109014380D01*
X156766380Y-109111142D01*
X156766380Y-109280476D01*
X156742190Y-109377238D01*
X156693809Y-109425619D01*
X156645428Y-109449809D01*
X156548666Y-109449809D01*
X156500285Y-109425619D01*
X156451904Y-109377238D01*
X156427714Y-109280476D01*
X156427714Y-109111142D01*
X156451904Y-109014380D01*
X156500285Y-108966000D01*
X156548666Y-108941809D01*
X156959904Y-108990190D02*
X156984095Y-108966000D01*
X157032476Y-108941809D01*
X157153428Y-108941809D01*
X157201809Y-108966000D01*
X157226000Y-108990190D01*
X157250190Y-109038571D01*
X157250190Y-109086952D01*
X157226000Y-109159523D01*
X156935714Y-109449809D01*
X157250190Y-109449809D01*
X155460095Y-106426000D02*
X155411714Y-106401809D01*
X155339142Y-106401809D01*
X155266571Y-106426000D01*
X155218190Y-106474380D01*
X155194000Y-106522761D01*
X155169809Y-106619523D01*
X155169809Y-106692095D01*
X155194000Y-106788857D01*
X155218190Y-106837238D01*
X155266571Y-106885619D01*
X155339142Y-106909809D01*
X155387523Y-106909809D01*
X155460095Y-106885619D01*
X155484285Y-106861428D01*
X155484285Y-106692095D01*
X155387523Y-106692095D01*
X155702000Y-106909809D02*
X155702000Y-106401809D01*
X155895523Y-106401809D01*
X155943904Y-106426000D01*
X155968095Y-106450190D01*
X155992285Y-106498571D01*
X155992285Y-106571142D01*
X155968095Y-106619523D01*
X155943904Y-106643714D01*
X155895523Y-106667904D01*
X155702000Y-106667904D01*
X156210000Y-106909809D02*
X156210000Y-106401809D01*
X156548666Y-106401809D02*
X156645428Y-106401809D01*
X156693809Y-106426000D01*
X156742190Y-106474380D01*
X156766380Y-106571142D01*
X156766380Y-106740476D01*
X156742190Y-106837238D01*
X156693809Y-106885619D01*
X156645428Y-106909809D01*
X156548666Y-106909809D01*
X156500285Y-106885619D01*
X156451904Y-106837238D01*
X156427714Y-106740476D01*
X156427714Y-106571142D01*
X156451904Y-106474380D01*
X156500285Y-106426000D01*
X156548666Y-106401809D01*
X157080857Y-106401809D02*
X157129238Y-106401809D01*
X157177619Y-106426000D01*
X157201809Y-106450190D01*
X157226000Y-106498571D01*
X157250190Y-106595333D01*
X157250190Y-106716285D01*
X157226000Y-106813047D01*
X157201809Y-106861428D01*
X157177619Y-106885619D01*
X157129238Y-106909809D01*
X157080857Y-106909809D01*
X157032476Y-106885619D01*
X157008285Y-106861428D01*
X156984095Y-106813047D01*
X156959904Y-106716285D01*
X156959904Y-106595333D01*
X156984095Y-106498571D01*
X157008285Y-106450190D01*
X157032476Y-106426000D01*
X157080857Y-106401809D01*
X155460095Y-103886000D02*
X155411714Y-103861809D01*
X155339142Y-103861809D01*
X155266571Y-103886000D01*
X155218190Y-103934380D01*
X155194000Y-103982761D01*
X155169809Y-104079523D01*
X155169809Y-104152095D01*
X155194000Y-104248857D01*
X155218190Y-104297238D01*
X155266571Y-104345619D01*
X155339142Y-104369809D01*
X155387523Y-104369809D01*
X155460095Y-104345619D01*
X155484285Y-104321428D01*
X155484285Y-104152095D01*
X155387523Y-104152095D01*
X155702000Y-104369809D02*
X155702000Y-103861809D01*
X155895523Y-103861809D01*
X155943904Y-103886000D01*
X155968095Y-103910190D01*
X155992285Y-103958571D01*
X155992285Y-104031142D01*
X155968095Y-104079523D01*
X155943904Y-104103714D01*
X155895523Y-104127904D01*
X155702000Y-104127904D01*
X156210000Y-104369809D02*
X156210000Y-103861809D01*
X156548666Y-103861809D02*
X156645428Y-103861809D01*
X156693809Y-103886000D01*
X156742190Y-103934380D01*
X156766380Y-104031142D01*
X156766380Y-104200476D01*
X156742190Y-104297238D01*
X156693809Y-104345619D01*
X156645428Y-104369809D01*
X156548666Y-104369809D01*
X156500285Y-104345619D01*
X156451904Y-104297238D01*
X156427714Y-104200476D01*
X156427714Y-104031142D01*
X156451904Y-103934380D01*
X156500285Y-103886000D01*
X156548666Y-103861809D01*
X157201809Y-104031142D02*
X157201809Y-104369809D01*
X157080857Y-103837619D02*
X156959904Y-104200476D01*
X157274380Y-104200476D01*
X154964190Y-101346000D02*
X154915809Y-101321809D01*
X154843238Y-101321809D01*
X154770666Y-101346000D01*
X154722285Y-101394380D01*
X154698095Y-101442761D01*
X154673904Y-101539523D01*
X154673904Y-101612095D01*
X154698095Y-101708857D01*
X154722285Y-101757238D01*
X154770666Y-101805619D01*
X154843238Y-101829809D01*
X154891619Y-101829809D01*
X154964190Y-101805619D01*
X154988380Y-101781428D01*
X154988380Y-101612095D01*
X154891619Y-101612095D01*
X155206095Y-101829809D02*
X155206095Y-101321809D01*
X155399619Y-101321809D01*
X155448000Y-101346000D01*
X155472190Y-101370190D01*
X155496380Y-101418571D01*
X155496380Y-101491142D01*
X155472190Y-101539523D01*
X155448000Y-101563714D01*
X155399619Y-101587904D01*
X155206095Y-101587904D01*
X155714095Y-101829809D02*
X155714095Y-101321809D01*
X156052761Y-101321809D02*
X156149523Y-101321809D01*
X156197904Y-101346000D01*
X156246285Y-101394380D01*
X156270476Y-101491142D01*
X156270476Y-101660476D01*
X156246285Y-101757238D01*
X156197904Y-101805619D01*
X156149523Y-101829809D01*
X156052761Y-101829809D01*
X156004380Y-101805619D01*
X155956000Y-101757238D01*
X155931809Y-101660476D01*
X155931809Y-101491142D01*
X155956000Y-101394380D01*
X156004380Y-101346000D01*
X156052761Y-101321809D01*
X156754285Y-101829809D02*
X156464000Y-101829809D01*
X156609142Y-101829809D02*
X156609142Y-101321809D01*
X156560761Y-101394380D01*
X156512380Y-101442761D01*
X156464000Y-101466952D01*
X157189714Y-101321809D02*
X157092952Y-101321809D01*
X157044571Y-101346000D01*
X157020380Y-101370190D01*
X156972000Y-101442761D01*
X156947809Y-101539523D01*
X156947809Y-101733047D01*
X156972000Y-101781428D01*
X156996190Y-101805619D01*
X157044571Y-101829809D01*
X157141333Y-101829809D01*
X157189714Y-101805619D01*
X157213904Y-101781428D01*
X157238095Y-101733047D01*
X157238095Y-101612095D01*
X157213904Y-101563714D01*
X157189714Y-101539523D01*
X157141333Y-101515333D01*
X157044571Y-101515333D01*
X156996190Y-101539523D01*
X156972000Y-101563714D01*
X156947809Y-101612095D01*
X154964190Y-98806000D02*
X154915809Y-98781809D01*
X154843238Y-98781809D01*
X154770666Y-98806000D01*
X154722285Y-98854380D01*
X154698095Y-98902761D01*
X154673904Y-98999523D01*
X154673904Y-99072095D01*
X154698095Y-99168857D01*
X154722285Y-99217238D01*
X154770666Y-99265619D01*
X154843238Y-99289809D01*
X154891619Y-99289809D01*
X154964190Y-99265619D01*
X154988380Y-99241428D01*
X154988380Y-99072095D01*
X154891619Y-99072095D01*
X155206095Y-99289809D02*
X155206095Y-98781809D01*
X155399619Y-98781809D01*
X155448000Y-98806000D01*
X155472190Y-98830190D01*
X155496380Y-98878571D01*
X155496380Y-98951142D01*
X155472190Y-98999523D01*
X155448000Y-99023714D01*
X155399619Y-99047904D01*
X155206095Y-99047904D01*
X155714095Y-99289809D02*
X155714095Y-98781809D01*
X156052761Y-98781809D02*
X156149523Y-98781809D01*
X156197904Y-98806000D01*
X156246285Y-98854380D01*
X156270476Y-98951142D01*
X156270476Y-99120476D01*
X156246285Y-99217238D01*
X156197904Y-99265619D01*
X156149523Y-99289809D01*
X156052761Y-99289809D01*
X156004380Y-99265619D01*
X155956000Y-99217238D01*
X155931809Y-99120476D01*
X155931809Y-98951142D01*
X155956000Y-98854380D01*
X156004380Y-98806000D01*
X156052761Y-98781809D01*
X156754285Y-99289809D02*
X156464000Y-99289809D01*
X156609142Y-99289809D02*
X156609142Y-98781809D01*
X156560761Y-98854380D01*
X156512380Y-98902761D01*
X156464000Y-98926952D01*
X156923619Y-98781809D02*
X157262285Y-98781809D01*
X157044571Y-99289809D01*
X155460095Y-96266000D02*
X155411714Y-96241809D01*
X155339142Y-96241809D01*
X155266571Y-96266000D01*
X155218190Y-96314380D01*
X155194000Y-96362761D01*
X155169809Y-96459523D01*
X155169809Y-96532095D01*
X155194000Y-96628857D01*
X155218190Y-96677238D01*
X155266571Y-96725619D01*
X155339142Y-96749809D01*
X155387523Y-96749809D01*
X155460095Y-96725619D01*
X155484285Y-96701428D01*
X155484285Y-96532095D01*
X155387523Y-96532095D01*
X155702000Y-96749809D02*
X155702000Y-96241809D01*
X155895523Y-96241809D01*
X155943904Y-96266000D01*
X155968095Y-96290190D01*
X155992285Y-96338571D01*
X155992285Y-96411142D01*
X155968095Y-96459523D01*
X155943904Y-96483714D01*
X155895523Y-96507904D01*
X155702000Y-96507904D01*
X156210000Y-96749809D02*
X156210000Y-96241809D01*
X156548666Y-96241809D02*
X156645428Y-96241809D01*
X156693809Y-96266000D01*
X156742190Y-96314380D01*
X156766380Y-96411142D01*
X156766380Y-96580476D01*
X156742190Y-96677238D01*
X156693809Y-96725619D01*
X156645428Y-96749809D01*
X156548666Y-96749809D01*
X156500285Y-96725619D01*
X156451904Y-96677238D01*
X156427714Y-96580476D01*
X156427714Y-96411142D01*
X156451904Y-96314380D01*
X156500285Y-96266000D01*
X156548666Y-96241809D01*
X157226000Y-96241809D02*
X156984095Y-96241809D01*
X156959904Y-96483714D01*
X156984095Y-96459523D01*
X157032476Y-96435333D01*
X157153428Y-96435333D01*
X157201809Y-96459523D01*
X157226000Y-96483714D01*
X157250190Y-96532095D01*
X157250190Y-96653047D01*
X157226000Y-96701428D01*
X157201809Y-96725619D01*
X157153428Y-96749809D01*
X157032476Y-96749809D01*
X156984095Y-96725619D01*
X156959904Y-96701428D01*
X154964190Y-93726000D02*
X154915809Y-93701809D01*
X154843238Y-93701809D01*
X154770666Y-93726000D01*
X154722285Y-93774380D01*
X154698095Y-93822761D01*
X154673904Y-93919523D01*
X154673904Y-93992095D01*
X154698095Y-94088857D01*
X154722285Y-94137238D01*
X154770666Y-94185619D01*
X154843238Y-94209809D01*
X154891619Y-94209809D01*
X154964190Y-94185619D01*
X154988380Y-94161428D01*
X154988380Y-93992095D01*
X154891619Y-93992095D01*
X155206095Y-94209809D02*
X155206095Y-93701809D01*
X155399619Y-93701809D01*
X155448000Y-93726000D01*
X155472190Y-93750190D01*
X155496380Y-93798571D01*
X155496380Y-93871142D01*
X155472190Y-93919523D01*
X155448000Y-93943714D01*
X155399619Y-93967904D01*
X155206095Y-93967904D01*
X155714095Y-94209809D02*
X155714095Y-93701809D01*
X156052761Y-93701809D02*
X156149523Y-93701809D01*
X156197904Y-93726000D01*
X156246285Y-93774380D01*
X156270476Y-93871142D01*
X156270476Y-94040476D01*
X156246285Y-94137238D01*
X156197904Y-94185619D01*
X156149523Y-94209809D01*
X156052761Y-94209809D01*
X156004380Y-94185619D01*
X155956000Y-94137238D01*
X155931809Y-94040476D01*
X155931809Y-93871142D01*
X155956000Y-93774380D01*
X156004380Y-93726000D01*
X156052761Y-93701809D01*
X156754285Y-94209809D02*
X156464000Y-94209809D01*
X156609142Y-94209809D02*
X156609142Y-93701809D01*
X156560761Y-93774380D01*
X156512380Y-93822761D01*
X156464000Y-93846952D01*
X157044571Y-93919523D02*
X156996190Y-93895333D01*
X156972000Y-93871142D01*
X156947809Y-93822761D01*
X156947809Y-93798571D01*
X156972000Y-93750190D01*
X156996190Y-93726000D01*
X157044571Y-93701809D01*
X157141333Y-93701809D01*
X157189714Y-93726000D01*
X157213904Y-93750190D01*
X157238095Y-93798571D01*
X157238095Y-93822761D01*
X157213904Y-93871142D01*
X157189714Y-93895333D01*
X157141333Y-93919523D01*
X157044571Y-93919523D01*
X156996190Y-93943714D01*
X156972000Y-93967904D01*
X156947809Y-94016285D01*
X156947809Y-94113047D01*
X156972000Y-94161428D01*
X156996190Y-94185619D01*
X157044571Y-94209809D01*
X157141333Y-94209809D01*
X157189714Y-94185619D01*
X157213904Y-94161428D01*
X157238095Y-94113047D01*
X157238095Y-94016285D01*
X157213904Y-93967904D01*
X157189714Y-93943714D01*
X157141333Y-93919523D01*
X154964190Y-91186000D02*
X154915809Y-91161809D01*
X154843238Y-91161809D01*
X154770666Y-91186000D01*
X154722285Y-91234380D01*
X154698095Y-91282761D01*
X154673904Y-91379523D01*
X154673904Y-91452095D01*
X154698095Y-91548857D01*
X154722285Y-91597238D01*
X154770666Y-91645619D01*
X154843238Y-91669809D01*
X154891619Y-91669809D01*
X154964190Y-91645619D01*
X154988380Y-91621428D01*
X154988380Y-91452095D01*
X154891619Y-91452095D01*
X155206095Y-91669809D02*
X155206095Y-91161809D01*
X155399619Y-91161809D01*
X155448000Y-91186000D01*
X155472190Y-91210190D01*
X155496380Y-91258571D01*
X155496380Y-91331142D01*
X155472190Y-91379523D01*
X155448000Y-91403714D01*
X155399619Y-91427904D01*
X155206095Y-91427904D01*
X155714095Y-91669809D02*
X155714095Y-91161809D01*
X156052761Y-91161809D02*
X156149523Y-91161809D01*
X156197904Y-91186000D01*
X156246285Y-91234380D01*
X156270476Y-91331142D01*
X156270476Y-91500476D01*
X156246285Y-91597238D01*
X156197904Y-91645619D01*
X156149523Y-91669809D01*
X156052761Y-91669809D01*
X156004380Y-91645619D01*
X155956000Y-91597238D01*
X155931809Y-91500476D01*
X155931809Y-91331142D01*
X155956000Y-91234380D01*
X156004380Y-91186000D01*
X156052761Y-91161809D01*
X156754285Y-91669809D02*
X156464000Y-91669809D01*
X156609142Y-91669809D02*
X156609142Y-91161809D01*
X156560761Y-91234380D01*
X156512380Y-91282761D01*
X156464000Y-91306952D01*
X156996190Y-91669809D02*
X157092952Y-91669809D01*
X157141333Y-91645619D01*
X157165523Y-91621428D01*
X157213904Y-91548857D01*
X157238095Y-91452095D01*
X157238095Y-91258571D01*
X157213904Y-91210190D01*
X157189714Y-91186000D01*
X157141333Y-91161809D01*
X157044571Y-91161809D01*
X156996190Y-91186000D01*
X156972000Y-91210190D01*
X156947809Y-91258571D01*
X156947809Y-91379523D01*
X156972000Y-91427904D01*
X156996190Y-91452095D01*
X157044571Y-91476285D01*
X157141333Y-91476285D01*
X157189714Y-91452095D01*
X157213904Y-91427904D01*
X157238095Y-91379523D01*
X155822952Y-88646000D02*
X155774571Y-88621809D01*
X155702000Y-88621809D01*
X155629428Y-88646000D01*
X155581047Y-88694380D01*
X155556857Y-88742761D01*
X155532666Y-88839523D01*
X155532666Y-88912095D01*
X155556857Y-89008857D01*
X155581047Y-89057238D01*
X155629428Y-89105619D01*
X155702000Y-89129809D01*
X155750380Y-89129809D01*
X155822952Y-89105619D01*
X155847142Y-89081428D01*
X155847142Y-88912095D01*
X155750380Y-88912095D01*
X156064857Y-89129809D02*
X156064857Y-88621809D01*
X156355142Y-89129809D01*
X156355142Y-88621809D01*
X156597047Y-89129809D02*
X156597047Y-88621809D01*
X156718000Y-88621809D01*
X156790571Y-88646000D01*
X156838952Y-88694380D01*
X156863142Y-88742761D01*
X156887333Y-88839523D01*
X156887333Y-88912095D01*
X156863142Y-89008857D01*
X156838952Y-89057238D01*
X156790571Y-89105619D01*
X156718000Y-89129809D01*
X156597047Y-89129809D01*
X154964190Y-86106000D02*
X154915809Y-86081809D01*
X154843238Y-86081809D01*
X154770666Y-86106000D01*
X154722285Y-86154380D01*
X154698095Y-86202761D01*
X154673904Y-86299523D01*
X154673904Y-86372095D01*
X154698095Y-86468857D01*
X154722285Y-86517238D01*
X154770666Y-86565619D01*
X154843238Y-86589809D01*
X154891619Y-86589809D01*
X154964190Y-86565619D01*
X154988380Y-86541428D01*
X154988380Y-86372095D01*
X154891619Y-86372095D01*
X155206095Y-86589809D02*
X155206095Y-86081809D01*
X155399619Y-86081809D01*
X155448000Y-86106000D01*
X155472190Y-86130190D01*
X155496380Y-86178571D01*
X155496380Y-86251142D01*
X155472190Y-86299523D01*
X155448000Y-86323714D01*
X155399619Y-86347904D01*
X155206095Y-86347904D01*
X155714095Y-86589809D02*
X155714095Y-86081809D01*
X156052761Y-86081809D02*
X156149523Y-86081809D01*
X156197904Y-86106000D01*
X156246285Y-86154380D01*
X156270476Y-86251142D01*
X156270476Y-86420476D01*
X156246285Y-86517238D01*
X156197904Y-86565619D01*
X156149523Y-86589809D01*
X156052761Y-86589809D01*
X156004380Y-86565619D01*
X155956000Y-86517238D01*
X155931809Y-86420476D01*
X155931809Y-86251142D01*
X155956000Y-86154380D01*
X156004380Y-86106000D01*
X156052761Y-86081809D01*
X156464000Y-86130190D02*
X156488190Y-86106000D01*
X156536571Y-86081809D01*
X156657523Y-86081809D01*
X156705904Y-86106000D01*
X156730095Y-86130190D01*
X156754285Y-86178571D01*
X156754285Y-86226952D01*
X156730095Y-86299523D01*
X156439809Y-86589809D01*
X156754285Y-86589809D01*
X157238095Y-86589809D02*
X156947809Y-86589809D01*
X157092952Y-86589809D02*
X157092952Y-86081809D01*
X157044571Y-86154380D01*
X156996190Y-86202761D01*
X156947809Y-86226952D01*
X155460095Y-83591400D02*
X155411714Y-83567209D01*
X155339142Y-83567209D01*
X155266571Y-83591400D01*
X155218190Y-83639780D01*
X155194000Y-83688161D01*
X155169809Y-83784923D01*
X155169809Y-83857495D01*
X155194000Y-83954257D01*
X155218190Y-84002638D01*
X155266571Y-84051019D01*
X155339142Y-84075209D01*
X155387523Y-84075209D01*
X155460095Y-84051019D01*
X155484285Y-84026828D01*
X155484285Y-83857495D01*
X155387523Y-83857495D01*
X155702000Y-84075209D02*
X155702000Y-83567209D01*
X155895523Y-83567209D01*
X155943904Y-83591400D01*
X155968095Y-83615590D01*
X155992285Y-83663971D01*
X155992285Y-83736542D01*
X155968095Y-83784923D01*
X155943904Y-83809114D01*
X155895523Y-83833304D01*
X155702000Y-83833304D01*
X156210000Y-84075209D02*
X156210000Y-83567209D01*
X156548666Y-83567209D02*
X156645428Y-83567209D01*
X156693809Y-83591400D01*
X156742190Y-83639780D01*
X156766380Y-83736542D01*
X156766380Y-83905876D01*
X156742190Y-84002638D01*
X156693809Y-84051019D01*
X156645428Y-84075209D01*
X156548666Y-84075209D01*
X156500285Y-84051019D01*
X156451904Y-84002638D01*
X156427714Y-83905876D01*
X156427714Y-83736542D01*
X156451904Y-83639780D01*
X156500285Y-83591400D01*
X156548666Y-83567209D01*
X156935714Y-83567209D02*
X157250190Y-83567209D01*
X157080857Y-83760733D01*
X157153428Y-83760733D01*
X157201809Y-83784923D01*
X157226000Y-83809114D01*
X157250190Y-83857495D01*
X157250190Y-83978447D01*
X157226000Y-84026828D01*
X157201809Y-84051019D01*
X157153428Y-84075209D01*
X157008285Y-84075209D01*
X156959904Y-84051019D01*
X156935714Y-84026828D01*
X155460095Y-81051400D02*
X155411714Y-81027209D01*
X155339142Y-81027209D01*
X155266571Y-81051400D01*
X155218190Y-81099780D01*
X155194000Y-81148161D01*
X155169809Y-81244923D01*
X155169809Y-81317495D01*
X155194000Y-81414257D01*
X155218190Y-81462638D01*
X155266571Y-81511019D01*
X155339142Y-81535209D01*
X155387523Y-81535209D01*
X155460095Y-81511019D01*
X155484285Y-81486828D01*
X155484285Y-81317495D01*
X155387523Y-81317495D01*
X155702000Y-81535209D02*
X155702000Y-81027209D01*
X155895523Y-81027209D01*
X155943904Y-81051400D01*
X155968095Y-81075590D01*
X155992285Y-81123971D01*
X155992285Y-81196542D01*
X155968095Y-81244923D01*
X155943904Y-81269114D01*
X155895523Y-81293304D01*
X155702000Y-81293304D01*
X156210000Y-81535209D02*
X156210000Y-81027209D01*
X156548666Y-81027209D02*
X156645428Y-81027209D01*
X156693809Y-81051400D01*
X156742190Y-81099780D01*
X156766380Y-81196542D01*
X156766380Y-81365876D01*
X156742190Y-81462638D01*
X156693809Y-81511019D01*
X156645428Y-81535209D01*
X156548666Y-81535209D01*
X156500285Y-81511019D01*
X156451904Y-81462638D01*
X156427714Y-81365876D01*
X156427714Y-81196542D01*
X156451904Y-81099780D01*
X156500285Y-81051400D01*
X156548666Y-81027209D01*
X157250190Y-81535209D02*
X156959904Y-81535209D01*
X157105047Y-81535209D02*
X157105047Y-81027209D01*
X157056666Y-81099780D01*
X157008285Y-81148161D01*
X156959904Y-81172352D01*
X154964190Y-78511400D02*
X154915809Y-78487209D01*
X154843238Y-78487209D01*
X154770666Y-78511400D01*
X154722285Y-78559780D01*
X154698095Y-78608161D01*
X154673904Y-78704923D01*
X154673904Y-78777495D01*
X154698095Y-78874257D01*
X154722285Y-78922638D01*
X154770666Y-78971019D01*
X154843238Y-78995209D01*
X154891619Y-78995209D01*
X154964190Y-78971019D01*
X154988380Y-78946828D01*
X154988380Y-78777495D01*
X154891619Y-78777495D01*
X155206095Y-78995209D02*
X155206095Y-78487209D01*
X155399619Y-78487209D01*
X155448000Y-78511400D01*
X155472190Y-78535590D01*
X155496380Y-78583971D01*
X155496380Y-78656542D01*
X155472190Y-78704923D01*
X155448000Y-78729114D01*
X155399619Y-78753304D01*
X155206095Y-78753304D01*
X155714095Y-78995209D02*
X155714095Y-78487209D01*
X156052761Y-78487209D02*
X156149523Y-78487209D01*
X156197904Y-78511400D01*
X156246285Y-78559780D01*
X156270476Y-78656542D01*
X156270476Y-78825876D01*
X156246285Y-78922638D01*
X156197904Y-78971019D01*
X156149523Y-78995209D01*
X156052761Y-78995209D01*
X156004380Y-78971019D01*
X155956000Y-78922638D01*
X155931809Y-78825876D01*
X155931809Y-78656542D01*
X155956000Y-78559780D01*
X156004380Y-78511400D01*
X156052761Y-78487209D01*
X156464000Y-78535590D02*
X156488190Y-78511400D01*
X156536571Y-78487209D01*
X156657523Y-78487209D01*
X156705904Y-78511400D01*
X156730095Y-78535590D01*
X156754285Y-78583971D01*
X156754285Y-78632352D01*
X156730095Y-78704923D01*
X156439809Y-78995209D01*
X156754285Y-78995209D01*
X156947809Y-78535590D02*
X156972000Y-78511400D01*
X157020380Y-78487209D01*
X157141333Y-78487209D01*
X157189714Y-78511400D01*
X157213904Y-78535590D01*
X157238095Y-78583971D01*
X157238095Y-78632352D01*
X157213904Y-78704923D01*
X156923619Y-78995209D01*
X157238095Y-78995209D01*
X154964190Y-75971400D02*
X154915809Y-75947209D01*
X154843238Y-75947209D01*
X154770666Y-75971400D01*
X154722285Y-76019780D01*
X154698095Y-76068161D01*
X154673904Y-76164923D01*
X154673904Y-76237495D01*
X154698095Y-76334257D01*
X154722285Y-76382638D01*
X154770666Y-76431019D01*
X154843238Y-76455209D01*
X154891619Y-76455209D01*
X154964190Y-76431019D01*
X154988380Y-76406828D01*
X154988380Y-76237495D01*
X154891619Y-76237495D01*
X155206095Y-76455209D02*
X155206095Y-75947209D01*
X155399619Y-75947209D01*
X155448000Y-75971400D01*
X155472190Y-75995590D01*
X155496380Y-76043971D01*
X155496380Y-76116542D01*
X155472190Y-76164923D01*
X155448000Y-76189114D01*
X155399619Y-76213304D01*
X155206095Y-76213304D01*
X155714095Y-76455209D02*
X155714095Y-75947209D01*
X156052761Y-75947209D02*
X156149523Y-75947209D01*
X156197904Y-75971400D01*
X156246285Y-76019780D01*
X156270476Y-76116542D01*
X156270476Y-76285876D01*
X156246285Y-76382638D01*
X156197904Y-76431019D01*
X156149523Y-76455209D01*
X156052761Y-76455209D01*
X156004380Y-76431019D01*
X155956000Y-76382638D01*
X155931809Y-76285876D01*
X155931809Y-76116542D01*
X155956000Y-76019780D01*
X156004380Y-75971400D01*
X156052761Y-75947209D01*
X156464000Y-75995590D02*
X156488190Y-75971400D01*
X156536571Y-75947209D01*
X156657523Y-75947209D01*
X156705904Y-75971400D01*
X156730095Y-75995590D01*
X156754285Y-76043971D01*
X156754285Y-76092352D01*
X156730095Y-76164923D01*
X156439809Y-76455209D01*
X156754285Y-76455209D01*
X156923619Y-75947209D02*
X157238095Y-75947209D01*
X157068761Y-76140733D01*
X157141333Y-76140733D01*
X157189714Y-76164923D01*
X157213904Y-76189114D01*
X157238095Y-76237495D01*
X157238095Y-76358447D01*
X157213904Y-76406828D01*
X157189714Y-76431019D01*
X157141333Y-76455209D01*
X156996190Y-76455209D01*
X156947809Y-76431019D01*
X156923619Y-76406828D01*
X155822952Y-73431400D02*
X155774571Y-73407209D01*
X155702000Y-73407209D01*
X155629428Y-73431400D01*
X155581047Y-73479780D01*
X155556857Y-73528161D01*
X155532666Y-73624923D01*
X155532666Y-73697495D01*
X155556857Y-73794257D01*
X155581047Y-73842638D01*
X155629428Y-73891019D01*
X155702000Y-73915209D01*
X155750380Y-73915209D01*
X155822952Y-73891019D01*
X155847142Y-73866828D01*
X155847142Y-73697495D01*
X155750380Y-73697495D01*
X156064857Y-73915209D02*
X156064857Y-73407209D01*
X156355142Y-73915209D01*
X156355142Y-73407209D01*
X156597047Y-73915209D02*
X156597047Y-73407209D01*
X156718000Y-73407209D01*
X156790571Y-73431400D01*
X156838952Y-73479780D01*
X156863142Y-73528161D01*
X156887333Y-73624923D01*
X156887333Y-73697495D01*
X156863142Y-73794257D01*
X156838952Y-73842638D01*
X156790571Y-73891019D01*
X156718000Y-73915209D01*
X156597047Y-73915209D01*
D16*
X131582885Y-118913728D02*
X132027990Y-118913728D01*
X131805438Y-119136280D02*
X131805438Y-118691176D01*
X132584371Y-118552080D02*
X132306180Y-118552080D01*
X132278361Y-118830271D01*
X132306180Y-118802452D01*
X132361819Y-118774633D01*
X132500914Y-118774633D01*
X132556552Y-118802452D01*
X132584371Y-118830271D01*
X132612190Y-118885909D01*
X132612190Y-119025004D01*
X132584371Y-119080642D01*
X132556552Y-119108461D01*
X132500914Y-119136280D01*
X132361819Y-119136280D01*
X132306180Y-119108461D01*
X132278361Y-119080642D01*
X132779104Y-118552080D02*
X132973838Y-119136280D01*
X133168571Y-118552080D01*
D12*
X130072190Y-116611400D02*
X130023809Y-116587209D01*
X129951238Y-116587209D01*
X129878666Y-116611400D01*
X129830285Y-116659780D01*
X129806095Y-116708161D01*
X129781904Y-116804923D01*
X129781904Y-116877495D01*
X129806095Y-116974257D01*
X129830285Y-117022638D01*
X129878666Y-117071019D01*
X129951238Y-117095209D01*
X129999619Y-117095209D01*
X130072190Y-117071019D01*
X130096380Y-117046828D01*
X130096380Y-116877495D01*
X129999619Y-116877495D01*
X130314095Y-117095209D02*
X130314095Y-116587209D01*
X130507619Y-116587209D01*
X130556000Y-116611400D01*
X130580190Y-116635590D01*
X130604380Y-116683971D01*
X130604380Y-116756542D01*
X130580190Y-116804923D01*
X130556000Y-116829114D01*
X130507619Y-116853304D01*
X130314095Y-116853304D01*
X130822095Y-117095209D02*
X130822095Y-116587209D01*
X131160761Y-116587209D02*
X131257523Y-116587209D01*
X131305904Y-116611400D01*
X131354285Y-116659780D01*
X131378476Y-116756542D01*
X131378476Y-116925876D01*
X131354285Y-117022638D01*
X131305904Y-117071019D01*
X131257523Y-117095209D01*
X131160761Y-117095209D01*
X131112380Y-117071019D01*
X131064000Y-117022638D01*
X131039809Y-116925876D01*
X131039809Y-116756542D01*
X131064000Y-116659780D01*
X131112380Y-116611400D01*
X131160761Y-116587209D01*
X131862285Y-117095209D02*
X131572000Y-117095209D01*
X131717142Y-117095209D02*
X131717142Y-116587209D01*
X131668761Y-116659780D01*
X131620380Y-116708161D01*
X131572000Y-116732352D01*
X132346095Y-117095209D02*
X132055809Y-117095209D01*
X132200952Y-117095209D02*
X132200952Y-116587209D01*
X132152571Y-116659780D01*
X132104190Y-116708161D01*
X132055809Y-116732352D01*
X130072190Y-114071400D02*
X130023809Y-114047209D01*
X129951238Y-114047209D01*
X129878666Y-114071400D01*
X129830285Y-114119780D01*
X129806095Y-114168161D01*
X129781904Y-114264923D01*
X129781904Y-114337495D01*
X129806095Y-114434257D01*
X129830285Y-114482638D01*
X129878666Y-114531019D01*
X129951238Y-114555209D01*
X129999619Y-114555209D01*
X130072190Y-114531019D01*
X130096380Y-114506828D01*
X130096380Y-114337495D01*
X129999619Y-114337495D01*
X130314095Y-114555209D02*
X130314095Y-114047209D01*
X130507619Y-114047209D01*
X130556000Y-114071400D01*
X130580190Y-114095590D01*
X130604380Y-114143971D01*
X130604380Y-114216542D01*
X130580190Y-114264923D01*
X130556000Y-114289114D01*
X130507619Y-114313304D01*
X130314095Y-114313304D01*
X130822095Y-114555209D02*
X130822095Y-114047209D01*
X131160761Y-114047209D02*
X131257523Y-114047209D01*
X131305904Y-114071400D01*
X131354285Y-114119780D01*
X131378476Y-114216542D01*
X131378476Y-114385876D01*
X131354285Y-114482638D01*
X131305904Y-114531019D01*
X131257523Y-114555209D01*
X131160761Y-114555209D01*
X131112380Y-114531019D01*
X131064000Y-114482638D01*
X131039809Y-114385876D01*
X131039809Y-114216542D01*
X131064000Y-114119780D01*
X131112380Y-114071400D01*
X131160761Y-114047209D01*
X131862285Y-114555209D02*
X131572000Y-114555209D01*
X131717142Y-114555209D02*
X131717142Y-114047209D01*
X131668761Y-114119780D01*
X131620380Y-114168161D01*
X131572000Y-114192352D01*
X132176761Y-114047209D02*
X132225142Y-114047209D01*
X132273523Y-114071400D01*
X132297714Y-114095590D01*
X132321904Y-114143971D01*
X132346095Y-114240733D01*
X132346095Y-114361685D01*
X132321904Y-114458447D01*
X132297714Y-114506828D01*
X132273523Y-114531019D01*
X132225142Y-114555209D01*
X132176761Y-114555209D01*
X132128380Y-114531019D01*
X132104190Y-114506828D01*
X132080000Y-114458447D01*
X132055809Y-114361685D01*
X132055809Y-114240733D01*
X132080000Y-114143971D01*
X132104190Y-114095590D01*
X132128380Y-114071400D01*
X132176761Y-114047209D01*
X130060095Y-111531400D02*
X130011714Y-111507209D01*
X129939142Y-111507209D01*
X129866571Y-111531400D01*
X129818190Y-111579780D01*
X129794000Y-111628161D01*
X129769809Y-111724923D01*
X129769809Y-111797495D01*
X129794000Y-111894257D01*
X129818190Y-111942638D01*
X129866571Y-111991019D01*
X129939142Y-112015209D01*
X129987523Y-112015209D01*
X130060095Y-111991019D01*
X130084285Y-111966828D01*
X130084285Y-111797495D01*
X129987523Y-111797495D01*
X130302000Y-112015209D02*
X130302000Y-111507209D01*
X130495523Y-111507209D01*
X130543904Y-111531400D01*
X130568095Y-111555590D01*
X130592285Y-111603971D01*
X130592285Y-111676542D01*
X130568095Y-111724923D01*
X130543904Y-111749114D01*
X130495523Y-111773304D01*
X130302000Y-111773304D01*
X130810000Y-112015209D02*
X130810000Y-111507209D01*
X131148666Y-111507209D02*
X131245428Y-111507209D01*
X131293809Y-111531400D01*
X131342190Y-111579780D01*
X131366380Y-111676542D01*
X131366380Y-111845876D01*
X131342190Y-111942638D01*
X131293809Y-111991019D01*
X131245428Y-112015209D01*
X131148666Y-112015209D01*
X131100285Y-111991019D01*
X131051904Y-111942638D01*
X131027714Y-111845876D01*
X131027714Y-111676542D01*
X131051904Y-111579780D01*
X131100285Y-111531400D01*
X131148666Y-111507209D01*
X131608285Y-112015209D02*
X131705047Y-112015209D01*
X131753428Y-111991019D01*
X131777619Y-111966828D01*
X131826000Y-111894257D01*
X131850190Y-111797495D01*
X131850190Y-111603971D01*
X131826000Y-111555590D01*
X131801809Y-111531400D01*
X131753428Y-111507209D01*
X131656666Y-111507209D01*
X131608285Y-111531400D01*
X131584095Y-111555590D01*
X131559904Y-111603971D01*
X131559904Y-111724923D01*
X131584095Y-111773304D01*
X131608285Y-111797495D01*
X131656666Y-111821685D01*
X131753428Y-111821685D01*
X131801809Y-111797495D01*
X131826000Y-111773304D01*
X131850190Y-111724923D01*
X129995990Y-108991400D02*
X129947609Y-108967209D01*
X129875038Y-108967209D01*
X129802466Y-108991400D01*
X129754085Y-109039780D01*
X129729895Y-109088161D01*
X129705704Y-109184923D01*
X129705704Y-109257495D01*
X129729895Y-109354257D01*
X129754085Y-109402638D01*
X129802466Y-109451019D01*
X129875038Y-109475209D01*
X129923419Y-109475209D01*
X129995990Y-109451019D01*
X130020180Y-109426828D01*
X130020180Y-109257495D01*
X129923419Y-109257495D01*
X130237895Y-109475209D02*
X130237895Y-108967209D01*
X130431419Y-108967209D01*
X130479800Y-108991400D01*
X130503990Y-109015590D01*
X130528180Y-109063971D01*
X130528180Y-109136542D01*
X130503990Y-109184923D01*
X130479800Y-109209114D01*
X130431419Y-109233304D01*
X130237895Y-109233304D01*
X130745895Y-109475209D02*
X130745895Y-108967209D01*
X131084561Y-108967209D02*
X131181323Y-108967209D01*
X131229704Y-108991400D01*
X131278085Y-109039780D01*
X131302276Y-109136542D01*
X131302276Y-109305876D01*
X131278085Y-109402638D01*
X131229704Y-109451019D01*
X131181323Y-109475209D01*
X131084561Y-109475209D01*
X131036180Y-109451019D01*
X130987800Y-109402638D01*
X130963609Y-109305876D01*
X130963609Y-109136542D01*
X130987800Y-109039780D01*
X131036180Y-108991400D01*
X131084561Y-108967209D01*
X131786085Y-109475209D02*
X131495800Y-109475209D01*
X131640942Y-109475209D02*
X131640942Y-108967209D01*
X131592561Y-109039780D01*
X131544180Y-109088161D01*
X131495800Y-109112352D01*
X131955419Y-108967209D02*
X132269895Y-108967209D01*
X132100561Y-109160733D01*
X132173133Y-109160733D01*
X132221514Y-109184923D01*
X132245704Y-109209114D01*
X132269895Y-109257495D01*
X132269895Y-109378447D01*
X132245704Y-109426828D01*
X132221514Y-109451019D01*
X132173133Y-109475209D01*
X132027990Y-109475209D01*
X131979609Y-109451019D01*
X131955419Y-109426828D01*
X130448352Y-106451400D02*
X130399971Y-106427209D01*
X130327400Y-106427209D01*
X130254828Y-106451400D01*
X130206447Y-106499780D01*
X130182257Y-106548161D01*
X130158066Y-106644923D01*
X130158066Y-106717495D01*
X130182257Y-106814257D01*
X130206447Y-106862638D01*
X130254828Y-106911019D01*
X130327400Y-106935209D01*
X130375780Y-106935209D01*
X130448352Y-106911019D01*
X130472542Y-106886828D01*
X130472542Y-106717495D01*
X130375780Y-106717495D01*
X130690257Y-106935209D02*
X130690257Y-106427209D01*
X130980542Y-106935209D01*
X130980542Y-106427209D01*
X131222447Y-106935209D02*
X131222447Y-106427209D01*
X131343400Y-106427209D01*
X131415971Y-106451400D01*
X131464352Y-106499780D01*
X131488542Y-106548161D01*
X131512733Y-106644923D01*
X131512733Y-106717495D01*
X131488542Y-106814257D01*
X131464352Y-106862638D01*
X131415971Y-106911019D01*
X131343400Y-106935209D01*
X131222447Y-106935209D01*
X130072190Y-103911400D02*
X130023809Y-103887209D01*
X129951238Y-103887209D01*
X129878666Y-103911400D01*
X129830285Y-103959780D01*
X129806095Y-104008161D01*
X129781904Y-104104923D01*
X129781904Y-104177495D01*
X129806095Y-104274257D01*
X129830285Y-104322638D01*
X129878666Y-104371019D01*
X129951238Y-104395209D01*
X129999619Y-104395209D01*
X130072190Y-104371019D01*
X130096380Y-104346828D01*
X130096380Y-104177495D01*
X129999619Y-104177495D01*
X130314095Y-104395209D02*
X130314095Y-103887209D01*
X130507619Y-103887209D01*
X130556000Y-103911400D01*
X130580190Y-103935590D01*
X130604380Y-103983971D01*
X130604380Y-104056542D01*
X130580190Y-104104923D01*
X130556000Y-104129114D01*
X130507619Y-104153304D01*
X130314095Y-104153304D01*
X130822095Y-104395209D02*
X130822095Y-103887209D01*
X131160761Y-103887209D02*
X131257523Y-103887209D01*
X131305904Y-103911400D01*
X131354285Y-103959780D01*
X131378476Y-104056542D01*
X131378476Y-104225876D01*
X131354285Y-104322638D01*
X131305904Y-104371019D01*
X131257523Y-104395209D01*
X131160761Y-104395209D01*
X131112380Y-104371019D01*
X131064000Y-104322638D01*
X131039809Y-104225876D01*
X131039809Y-104056542D01*
X131064000Y-103959780D01*
X131112380Y-103911400D01*
X131160761Y-103887209D01*
X131862285Y-104395209D02*
X131572000Y-104395209D01*
X131717142Y-104395209D02*
X131717142Y-103887209D01*
X131668761Y-103959780D01*
X131620380Y-104008161D01*
X131572000Y-104032352D01*
X132055809Y-103935590D02*
X132080000Y-103911400D01*
X132128380Y-103887209D01*
X132249333Y-103887209D01*
X132297714Y-103911400D01*
X132321904Y-103935590D01*
X132346095Y-103983971D01*
X132346095Y-104032352D01*
X132321904Y-104104923D01*
X132031619Y-104395209D01*
X132346095Y-104395209D01*
X130072190Y-101371400D02*
X130023809Y-101347209D01*
X129951238Y-101347209D01*
X129878666Y-101371400D01*
X129830285Y-101419780D01*
X129806095Y-101468161D01*
X129781904Y-101564923D01*
X129781904Y-101637495D01*
X129806095Y-101734257D01*
X129830285Y-101782638D01*
X129878666Y-101831019D01*
X129951238Y-101855209D01*
X129999619Y-101855209D01*
X130072190Y-101831019D01*
X130096380Y-101806828D01*
X130096380Y-101637495D01*
X129999619Y-101637495D01*
X130314095Y-101855209D02*
X130314095Y-101347209D01*
X130507619Y-101347209D01*
X130556000Y-101371400D01*
X130580190Y-101395590D01*
X130604380Y-101443971D01*
X130604380Y-101516542D01*
X130580190Y-101564923D01*
X130556000Y-101589114D01*
X130507619Y-101613304D01*
X130314095Y-101613304D01*
X130822095Y-101855209D02*
X130822095Y-101347209D01*
X131160761Y-101347209D02*
X131257523Y-101347209D01*
X131305904Y-101371400D01*
X131354285Y-101419780D01*
X131378476Y-101516542D01*
X131378476Y-101685876D01*
X131354285Y-101782638D01*
X131305904Y-101831019D01*
X131257523Y-101855209D01*
X131160761Y-101855209D01*
X131112380Y-101831019D01*
X131064000Y-101782638D01*
X131039809Y-101685876D01*
X131039809Y-101516542D01*
X131064000Y-101419780D01*
X131112380Y-101371400D01*
X131160761Y-101347209D01*
X131862285Y-101855209D02*
X131572000Y-101855209D01*
X131717142Y-101855209D02*
X131717142Y-101347209D01*
X131668761Y-101419780D01*
X131620380Y-101468161D01*
X131572000Y-101492352D01*
X132297714Y-101516542D02*
X132297714Y-101855209D01*
X132176761Y-101323019D02*
X132055809Y-101685876D01*
X132370285Y-101685876D01*
X130072190Y-98831400D02*
X130023809Y-98807209D01*
X129951238Y-98807209D01*
X129878666Y-98831400D01*
X129830285Y-98879780D01*
X129806095Y-98928161D01*
X129781904Y-99024923D01*
X129781904Y-99097495D01*
X129806095Y-99194257D01*
X129830285Y-99242638D01*
X129878666Y-99291019D01*
X129951238Y-99315209D01*
X129999619Y-99315209D01*
X130072190Y-99291019D01*
X130096380Y-99266828D01*
X130096380Y-99097495D01*
X129999619Y-99097495D01*
X130314095Y-99315209D02*
X130314095Y-98807209D01*
X130507619Y-98807209D01*
X130556000Y-98831400D01*
X130580190Y-98855590D01*
X130604380Y-98903971D01*
X130604380Y-98976542D01*
X130580190Y-99024923D01*
X130556000Y-99049114D01*
X130507619Y-99073304D01*
X130314095Y-99073304D01*
X130822095Y-99315209D02*
X130822095Y-98807209D01*
X131160761Y-98807209D02*
X131257523Y-98807209D01*
X131305904Y-98831400D01*
X131354285Y-98879780D01*
X131378476Y-98976542D01*
X131378476Y-99145876D01*
X131354285Y-99242638D01*
X131305904Y-99291019D01*
X131257523Y-99315209D01*
X131160761Y-99315209D01*
X131112380Y-99291019D01*
X131064000Y-99242638D01*
X131039809Y-99145876D01*
X131039809Y-98976542D01*
X131064000Y-98879780D01*
X131112380Y-98831400D01*
X131160761Y-98807209D01*
X131572000Y-98855590D02*
X131596190Y-98831400D01*
X131644571Y-98807209D01*
X131765523Y-98807209D01*
X131813904Y-98831400D01*
X131838095Y-98855590D01*
X131862285Y-98903971D01*
X131862285Y-98952352D01*
X131838095Y-99024923D01*
X131547809Y-99315209D01*
X131862285Y-99315209D01*
X132031619Y-98807209D02*
X132370285Y-98807209D01*
X132152571Y-99315209D01*
X130072190Y-96291400D02*
X130023809Y-96267209D01*
X129951238Y-96267209D01*
X129878666Y-96291400D01*
X129830285Y-96339780D01*
X129806095Y-96388161D01*
X129781904Y-96484923D01*
X129781904Y-96557495D01*
X129806095Y-96654257D01*
X129830285Y-96702638D01*
X129878666Y-96751019D01*
X129951238Y-96775209D01*
X129999619Y-96775209D01*
X130072190Y-96751019D01*
X130096380Y-96726828D01*
X130096380Y-96557495D01*
X129999619Y-96557495D01*
X130314095Y-96775209D02*
X130314095Y-96267209D01*
X130507619Y-96267209D01*
X130556000Y-96291400D01*
X130580190Y-96315590D01*
X130604380Y-96363971D01*
X130604380Y-96436542D01*
X130580190Y-96484923D01*
X130556000Y-96509114D01*
X130507619Y-96533304D01*
X130314095Y-96533304D01*
X130822095Y-96775209D02*
X130822095Y-96267209D01*
X131160761Y-96267209D02*
X131257523Y-96267209D01*
X131305904Y-96291400D01*
X131354285Y-96339780D01*
X131378476Y-96436542D01*
X131378476Y-96605876D01*
X131354285Y-96702638D01*
X131305904Y-96751019D01*
X131257523Y-96775209D01*
X131160761Y-96775209D01*
X131112380Y-96751019D01*
X131064000Y-96702638D01*
X131039809Y-96605876D01*
X131039809Y-96436542D01*
X131064000Y-96339780D01*
X131112380Y-96291400D01*
X131160761Y-96267209D01*
X131572000Y-96315590D02*
X131596190Y-96291400D01*
X131644571Y-96267209D01*
X131765523Y-96267209D01*
X131813904Y-96291400D01*
X131838095Y-96315590D01*
X131862285Y-96363971D01*
X131862285Y-96412352D01*
X131838095Y-96484923D01*
X131547809Y-96775209D01*
X131862285Y-96775209D01*
X132297714Y-96267209D02*
X132200952Y-96267209D01*
X132152571Y-96291400D01*
X132128380Y-96315590D01*
X132080000Y-96388161D01*
X132055809Y-96484923D01*
X132055809Y-96678447D01*
X132080000Y-96726828D01*
X132104190Y-96751019D01*
X132152571Y-96775209D01*
X132249333Y-96775209D01*
X132297714Y-96751019D01*
X132321904Y-96726828D01*
X132346095Y-96678447D01*
X132346095Y-96557495D01*
X132321904Y-96509114D01*
X132297714Y-96484923D01*
X132249333Y-96460733D01*
X132152571Y-96460733D01*
X132104190Y-96484923D01*
X132080000Y-96509114D01*
X132055809Y-96557495D01*
X130072190Y-93751400D02*
X130023809Y-93727209D01*
X129951238Y-93727209D01*
X129878666Y-93751400D01*
X129830285Y-93799780D01*
X129806095Y-93848161D01*
X129781904Y-93944923D01*
X129781904Y-94017495D01*
X129806095Y-94114257D01*
X129830285Y-94162638D01*
X129878666Y-94211019D01*
X129951238Y-94235209D01*
X129999619Y-94235209D01*
X130072190Y-94211019D01*
X130096380Y-94186828D01*
X130096380Y-94017495D01*
X129999619Y-94017495D01*
X130314095Y-94235209D02*
X130314095Y-93727209D01*
X130507619Y-93727209D01*
X130556000Y-93751400D01*
X130580190Y-93775590D01*
X130604380Y-93823971D01*
X130604380Y-93896542D01*
X130580190Y-93944923D01*
X130556000Y-93969114D01*
X130507619Y-93993304D01*
X130314095Y-93993304D01*
X130822095Y-94235209D02*
X130822095Y-93727209D01*
X131160761Y-93727209D02*
X131257523Y-93727209D01*
X131305904Y-93751400D01*
X131354285Y-93799780D01*
X131378476Y-93896542D01*
X131378476Y-94065876D01*
X131354285Y-94162638D01*
X131305904Y-94211019D01*
X131257523Y-94235209D01*
X131160761Y-94235209D01*
X131112380Y-94211019D01*
X131064000Y-94162638D01*
X131039809Y-94065876D01*
X131039809Y-93896542D01*
X131064000Y-93799780D01*
X131112380Y-93751400D01*
X131160761Y-93727209D01*
X131572000Y-93775590D02*
X131596190Y-93751400D01*
X131644571Y-93727209D01*
X131765523Y-93727209D01*
X131813904Y-93751400D01*
X131838095Y-93775590D01*
X131862285Y-93823971D01*
X131862285Y-93872352D01*
X131838095Y-93944923D01*
X131547809Y-94235209D01*
X131862285Y-94235209D01*
X132321904Y-93727209D02*
X132080000Y-93727209D01*
X132055809Y-93969114D01*
X132080000Y-93944923D01*
X132128380Y-93920733D01*
X132249333Y-93920733D01*
X132297714Y-93944923D01*
X132321904Y-93969114D01*
X132346095Y-94017495D01*
X132346095Y-94138447D01*
X132321904Y-94186828D01*
X132297714Y-94211019D01*
X132249333Y-94235209D01*
X132128380Y-94235209D01*
X132080000Y-94211019D01*
X132055809Y-94186828D01*
X130072190Y-91211400D02*
X130023809Y-91187209D01*
X129951238Y-91187209D01*
X129878666Y-91211400D01*
X129830285Y-91259780D01*
X129806095Y-91308161D01*
X129781904Y-91404923D01*
X129781904Y-91477495D01*
X129806095Y-91574257D01*
X129830285Y-91622638D01*
X129878666Y-91671019D01*
X129951238Y-91695209D01*
X129999619Y-91695209D01*
X130072190Y-91671019D01*
X130096380Y-91646828D01*
X130096380Y-91477495D01*
X129999619Y-91477495D01*
X130314095Y-91695209D02*
X130314095Y-91187209D01*
X130507619Y-91187209D01*
X130556000Y-91211400D01*
X130580190Y-91235590D01*
X130604380Y-91283971D01*
X130604380Y-91356542D01*
X130580190Y-91404923D01*
X130556000Y-91429114D01*
X130507619Y-91453304D01*
X130314095Y-91453304D01*
X130822095Y-91695209D02*
X130822095Y-91187209D01*
X131160761Y-91187209D02*
X131257523Y-91187209D01*
X131305904Y-91211400D01*
X131354285Y-91259780D01*
X131378476Y-91356542D01*
X131378476Y-91525876D01*
X131354285Y-91622638D01*
X131305904Y-91671019D01*
X131257523Y-91695209D01*
X131160761Y-91695209D01*
X131112380Y-91671019D01*
X131064000Y-91622638D01*
X131039809Y-91525876D01*
X131039809Y-91356542D01*
X131064000Y-91259780D01*
X131112380Y-91211400D01*
X131160761Y-91187209D01*
X131547809Y-91187209D02*
X131862285Y-91187209D01*
X131692952Y-91380733D01*
X131765523Y-91380733D01*
X131813904Y-91404923D01*
X131838095Y-91429114D01*
X131862285Y-91477495D01*
X131862285Y-91598447D01*
X131838095Y-91646828D01*
X131813904Y-91671019D01*
X131765523Y-91695209D01*
X131620380Y-91695209D01*
X131572000Y-91671019D01*
X131547809Y-91646828D01*
X132031619Y-91187209D02*
X132346095Y-91187209D01*
X132176761Y-91380733D01*
X132249333Y-91380733D01*
X132297714Y-91404923D01*
X132321904Y-91429114D01*
X132346095Y-91477495D01*
X132346095Y-91598447D01*
X132321904Y-91646828D01*
X132297714Y-91671019D01*
X132249333Y-91695209D01*
X132104190Y-91695209D01*
X132055809Y-91671019D01*
X132031619Y-91646828D01*
X130072190Y-88671400D02*
X130023809Y-88647209D01*
X129951238Y-88647209D01*
X129878666Y-88671400D01*
X129830285Y-88719780D01*
X129806095Y-88768161D01*
X129781904Y-88864923D01*
X129781904Y-88937495D01*
X129806095Y-89034257D01*
X129830285Y-89082638D01*
X129878666Y-89131019D01*
X129951238Y-89155209D01*
X129999619Y-89155209D01*
X130072190Y-89131019D01*
X130096380Y-89106828D01*
X130096380Y-88937495D01*
X129999619Y-88937495D01*
X130314095Y-89155209D02*
X130314095Y-88647209D01*
X130507619Y-88647209D01*
X130556000Y-88671400D01*
X130580190Y-88695590D01*
X130604380Y-88743971D01*
X130604380Y-88816542D01*
X130580190Y-88864923D01*
X130556000Y-88889114D01*
X130507619Y-88913304D01*
X130314095Y-88913304D01*
X130822095Y-89155209D02*
X130822095Y-88647209D01*
X131160761Y-88647209D02*
X131257523Y-88647209D01*
X131305904Y-88671400D01*
X131354285Y-88719780D01*
X131378476Y-88816542D01*
X131378476Y-88985876D01*
X131354285Y-89082638D01*
X131305904Y-89131019D01*
X131257523Y-89155209D01*
X131160761Y-89155209D01*
X131112380Y-89131019D01*
X131064000Y-89082638D01*
X131039809Y-88985876D01*
X131039809Y-88816542D01*
X131064000Y-88719780D01*
X131112380Y-88671400D01*
X131160761Y-88647209D01*
X131547809Y-88647209D02*
X131862285Y-88647209D01*
X131692952Y-88840733D01*
X131765523Y-88840733D01*
X131813904Y-88864923D01*
X131838095Y-88889114D01*
X131862285Y-88937495D01*
X131862285Y-89058447D01*
X131838095Y-89106828D01*
X131813904Y-89131019D01*
X131765523Y-89155209D01*
X131620380Y-89155209D01*
X131572000Y-89131019D01*
X131547809Y-89106828D01*
X132055809Y-88695590D02*
X132080000Y-88671400D01*
X132128380Y-88647209D01*
X132249333Y-88647209D01*
X132297714Y-88671400D01*
X132321904Y-88695590D01*
X132346095Y-88743971D01*
X132346095Y-88792352D01*
X132321904Y-88864923D01*
X132031619Y-89155209D01*
X132346095Y-89155209D01*
X130084285Y-86131400D02*
X130035904Y-86107209D01*
X129963333Y-86107209D01*
X129890761Y-86131400D01*
X129842380Y-86179780D01*
X129818190Y-86228161D01*
X129794000Y-86324923D01*
X129794000Y-86397495D01*
X129818190Y-86494257D01*
X129842380Y-86542638D01*
X129890761Y-86591019D01*
X129963333Y-86615209D01*
X130011714Y-86615209D01*
X130084285Y-86591019D01*
X130108476Y-86566828D01*
X130108476Y-86397495D01*
X130011714Y-86397495D01*
X130326190Y-86615209D02*
X130326190Y-86107209D01*
X130519714Y-86107209D01*
X130568095Y-86131400D01*
X130592285Y-86155590D01*
X130616476Y-86203971D01*
X130616476Y-86276542D01*
X130592285Y-86324923D01*
X130568095Y-86349114D01*
X130519714Y-86373304D01*
X130326190Y-86373304D01*
X130834190Y-86615209D02*
X130834190Y-86107209D01*
X131027714Y-86107209D02*
X131342190Y-86107209D01*
X131172857Y-86300733D01*
X131245428Y-86300733D01*
X131293809Y-86324923D01*
X131318000Y-86349114D01*
X131342190Y-86397495D01*
X131342190Y-86518447D01*
X131318000Y-86566828D01*
X131293809Y-86591019D01*
X131245428Y-86615209D01*
X131100285Y-86615209D01*
X131051904Y-86591019D01*
X131027714Y-86566828D01*
X131801809Y-86107209D02*
X131559904Y-86107209D01*
X131535714Y-86349114D01*
X131559904Y-86324923D01*
X131608285Y-86300733D01*
X131729238Y-86300733D01*
X131777619Y-86324923D01*
X131801809Y-86349114D01*
X131826000Y-86397495D01*
X131826000Y-86518447D01*
X131801809Y-86566828D01*
X131777619Y-86591019D01*
X131729238Y-86615209D01*
X131608285Y-86615209D01*
X131559904Y-86591019D01*
X131535714Y-86566828D01*
X130084285Y-83591400D02*
X130035904Y-83567209D01*
X129963333Y-83567209D01*
X129890761Y-83591400D01*
X129842380Y-83639780D01*
X129818190Y-83688161D01*
X129794000Y-83784923D01*
X129794000Y-83857495D01*
X129818190Y-83954257D01*
X129842380Y-84002638D01*
X129890761Y-84051019D01*
X129963333Y-84075209D01*
X130011714Y-84075209D01*
X130084285Y-84051019D01*
X130108476Y-84026828D01*
X130108476Y-83857495D01*
X130011714Y-83857495D01*
X130326190Y-84075209D02*
X130326190Y-83567209D01*
X130519714Y-83567209D01*
X130568095Y-83591400D01*
X130592285Y-83615590D01*
X130616476Y-83663971D01*
X130616476Y-83736542D01*
X130592285Y-83784923D01*
X130568095Y-83809114D01*
X130519714Y-83833304D01*
X130326190Y-83833304D01*
X130834190Y-84075209D02*
X130834190Y-83567209D01*
X131027714Y-83567209D02*
X131342190Y-83567209D01*
X131172857Y-83760733D01*
X131245428Y-83760733D01*
X131293809Y-83784923D01*
X131318000Y-83809114D01*
X131342190Y-83857495D01*
X131342190Y-83978447D01*
X131318000Y-84026828D01*
X131293809Y-84051019D01*
X131245428Y-84075209D01*
X131100285Y-84075209D01*
X131051904Y-84051019D01*
X131027714Y-84026828D01*
X131777619Y-83736542D02*
X131777619Y-84075209D01*
X131656666Y-83543019D02*
X131535714Y-83905876D01*
X131850190Y-83905876D01*
X130084285Y-81051400D02*
X130035904Y-81027209D01*
X129963333Y-81027209D01*
X129890761Y-81051400D01*
X129842380Y-81099780D01*
X129818190Y-81148161D01*
X129794000Y-81244923D01*
X129794000Y-81317495D01*
X129818190Y-81414257D01*
X129842380Y-81462638D01*
X129890761Y-81511019D01*
X129963333Y-81535209D01*
X130011714Y-81535209D01*
X130084285Y-81511019D01*
X130108476Y-81486828D01*
X130108476Y-81317495D01*
X130011714Y-81317495D01*
X130326190Y-81535209D02*
X130326190Y-81027209D01*
X130519714Y-81027209D01*
X130568095Y-81051400D01*
X130592285Y-81075590D01*
X130616476Y-81123971D01*
X130616476Y-81196542D01*
X130592285Y-81244923D01*
X130568095Y-81269114D01*
X130519714Y-81293304D01*
X130326190Y-81293304D01*
X130834190Y-81535209D02*
X130834190Y-81027209D01*
X131027714Y-81027209D02*
X131342190Y-81027209D01*
X131172857Y-81220733D01*
X131245428Y-81220733D01*
X131293809Y-81244923D01*
X131318000Y-81269114D01*
X131342190Y-81317495D01*
X131342190Y-81438447D01*
X131318000Y-81486828D01*
X131293809Y-81511019D01*
X131245428Y-81535209D01*
X131100285Y-81535209D01*
X131051904Y-81511019D01*
X131027714Y-81486828D01*
X131584095Y-81535209D02*
X131680857Y-81535209D01*
X131729238Y-81511019D01*
X131753428Y-81486828D01*
X131801809Y-81414257D01*
X131826000Y-81317495D01*
X131826000Y-81123971D01*
X131801809Y-81075590D01*
X131777619Y-81051400D01*
X131729238Y-81027209D01*
X131632476Y-81027209D01*
X131584095Y-81051400D01*
X131559904Y-81075590D01*
X131535714Y-81123971D01*
X131535714Y-81244923D01*
X131559904Y-81293304D01*
X131584095Y-81317495D01*
X131632476Y-81341685D01*
X131729238Y-81341685D01*
X131777619Y-81317495D01*
X131801809Y-81293304D01*
X131826000Y-81244923D01*
X130084285Y-78511400D02*
X130035904Y-78487209D01*
X129963333Y-78487209D01*
X129890761Y-78511400D01*
X129842380Y-78559780D01*
X129818190Y-78608161D01*
X129794000Y-78704923D01*
X129794000Y-78777495D01*
X129818190Y-78874257D01*
X129842380Y-78922638D01*
X129890761Y-78971019D01*
X129963333Y-78995209D01*
X130011714Y-78995209D01*
X130084285Y-78971019D01*
X130108476Y-78946828D01*
X130108476Y-78777495D01*
X130011714Y-78777495D01*
X130326190Y-78995209D02*
X130326190Y-78487209D01*
X130519714Y-78487209D01*
X130568095Y-78511400D01*
X130592285Y-78535590D01*
X130616476Y-78583971D01*
X130616476Y-78656542D01*
X130592285Y-78704923D01*
X130568095Y-78729114D01*
X130519714Y-78753304D01*
X130326190Y-78753304D01*
X130834190Y-78995209D02*
X130834190Y-78487209D01*
X131027714Y-78487209D02*
X131342190Y-78487209D01*
X131172857Y-78680733D01*
X131245428Y-78680733D01*
X131293809Y-78704923D01*
X131318000Y-78729114D01*
X131342190Y-78777495D01*
X131342190Y-78898447D01*
X131318000Y-78946828D01*
X131293809Y-78971019D01*
X131245428Y-78995209D01*
X131100285Y-78995209D01*
X131051904Y-78971019D01*
X131027714Y-78946828D01*
X131777619Y-78487209D02*
X131680857Y-78487209D01*
X131632476Y-78511400D01*
X131608285Y-78535590D01*
X131559904Y-78608161D01*
X131535714Y-78704923D01*
X131535714Y-78898447D01*
X131559904Y-78946828D01*
X131584095Y-78971019D01*
X131632476Y-78995209D01*
X131729238Y-78995209D01*
X131777619Y-78971019D01*
X131801809Y-78946828D01*
X131826000Y-78898447D01*
X131826000Y-78777495D01*
X131801809Y-78729114D01*
X131777619Y-78704923D01*
X131729238Y-78680733D01*
X131632476Y-78680733D01*
X131584095Y-78704923D01*
X131559904Y-78729114D01*
X131535714Y-78777495D01*
X129927047Y-76189114D02*
X130096380Y-76189114D01*
X130168952Y-76455209D02*
X129927047Y-76455209D01*
X129927047Y-75947209D01*
X130168952Y-75947209D01*
X130386666Y-76455209D02*
X130386666Y-75947209D01*
X130676952Y-76455209D01*
X130676952Y-75947209D01*
X129927047Y-73407209D02*
X130241523Y-73407209D01*
X130072190Y-73600733D01*
X130144761Y-73600733D01*
X130193142Y-73624923D01*
X130217333Y-73649114D01*
X130241523Y-73697495D01*
X130241523Y-73818447D01*
X130217333Y-73866828D01*
X130193142Y-73891019D01*
X130144761Y-73915209D01*
X129999619Y-73915209D01*
X129951238Y-73891019D01*
X129927047Y-73866828D01*
X130386666Y-73407209D02*
X130556000Y-73915209D01*
X130725333Y-73407209D01*
X130846285Y-73407209D02*
X131160761Y-73407209D01*
X130991428Y-73600733D01*
X131064000Y-73600733D01*
X131112380Y-73624923D01*
X131136571Y-73649114D01*
X131160761Y-73697495D01*
X131160761Y-73818447D01*
X131136571Y-73866828D01*
X131112380Y-73891019D01*
X131064000Y-73915209D01*
X130918857Y-73915209D01*
X130870476Y-73891019D01*
X130846285Y-73866828D01*
D10*
X153851428Y-90225411D02*
X153851428Y-89886744D01*
X154383619Y-89808125D02*
X154383619Y-90291935D01*
X153367619Y-90164935D01*
X153367619Y-89681125D01*
X154335238Y-89415030D02*
X154383619Y-89275935D01*
X154383619Y-89034030D01*
X154335238Y-88931220D01*
X154286857Y-88876792D01*
X154190095Y-88816316D01*
X154093333Y-88804220D01*
X153996571Y-88840506D01*
X153948190Y-88882839D01*
X153899809Y-88973554D01*
X153851428Y-89161030D01*
X153803047Y-89251744D01*
X153754666Y-89294077D01*
X153657904Y-89330363D01*
X153561142Y-89318268D01*
X153464380Y-89257792D01*
X153416000Y-89203363D01*
X153367619Y-89100554D01*
X153367619Y-88858649D01*
X153416000Y-88719554D01*
X154383619Y-88405077D02*
X153367619Y-88278077D01*
X153367619Y-87891030D01*
X153416000Y-87800316D01*
X153464380Y-87757982D01*
X153561142Y-87721697D01*
X153706285Y-87739839D01*
X153803047Y-87800316D01*
X153851428Y-87854744D01*
X153899809Y-87957554D01*
X153899809Y-88344601D01*
X153367619Y-87358839D02*
X153367619Y-86729887D01*
X153754666Y-87116935D01*
X153754666Y-86971792D01*
X153803047Y-86881077D01*
X153851428Y-86838744D01*
X153948190Y-86802458D01*
X154190095Y-86832697D01*
X154286857Y-86893173D01*
X154335238Y-86947601D01*
X154383619Y-87050411D01*
X154383619Y-87340697D01*
X154335238Y-87431411D01*
X154286857Y-87473744D01*
X153464380Y-86354935D02*
X153416000Y-86300506D01*
X153367619Y-86197697D01*
X153367619Y-85955792D01*
X153416000Y-85865077D01*
X153464380Y-85822744D01*
X153561142Y-85786458D01*
X153657904Y-85798554D01*
X153803047Y-85865077D01*
X154383619Y-86518220D01*
X154383619Y-85889268D01*
X153996571Y-85405458D02*
X153996571Y-84631363D01*
X154383619Y-84195935D02*
X153367619Y-84068935D01*
X153367619Y-83827030D01*
X153416000Y-83687935D01*
X153512761Y-83603268D01*
X153609523Y-83566982D01*
X153803047Y-83542792D01*
X153948190Y-83560935D01*
X154141714Y-83633506D01*
X154238476Y-83693982D01*
X154335238Y-83802839D01*
X154383619Y-83954030D01*
X154383619Y-84195935D01*
X154335238Y-82786839D02*
X154383619Y-82889649D01*
X154383619Y-83083173D01*
X154335238Y-83173887D01*
X154238476Y-83210173D01*
X153851428Y-83161792D01*
X153754666Y-83101316D01*
X153706285Y-82998506D01*
X153706285Y-82804982D01*
X153754666Y-82714268D01*
X153851428Y-82677982D01*
X153948190Y-82690077D01*
X154044952Y-83185982D01*
X153706285Y-82321173D02*
X154383619Y-82163935D01*
X153706285Y-81837363D01*
X154383619Y-81534982D02*
X153367619Y-81407982D01*
X154383619Y-80954411D02*
X153803047Y-81317268D01*
X153367619Y-80827411D02*
X153948190Y-81480554D01*
X154383619Y-80518982D02*
X153706285Y-80434316D01*
X153367619Y-80391982D02*
X153416000Y-80446411D01*
X153464380Y-80404077D01*
X153416000Y-80349649D01*
X153367619Y-80391982D01*
X153464380Y-80404077D01*
X153706285Y-80095649D02*
X153706285Y-79708601D01*
X153367619Y-79908173D02*
X154238476Y-80017030D01*
X154335238Y-79980744D01*
X154383619Y-79890030D01*
X154383619Y-79793268D01*
X153996571Y-79406220D02*
X153996571Y-78632125D01*
X154383619Y-77712887D02*
X154383619Y-78196697D01*
X153367619Y-78069697D01*
X154383619Y-77374220D02*
X153706285Y-77289554D01*
X153367619Y-77247220D02*
X153416000Y-77301649D01*
X153464380Y-77259316D01*
X153416000Y-77204887D01*
X153367619Y-77247220D01*
X153464380Y-77259316D01*
X153706285Y-76805744D02*
X154722285Y-76932744D01*
X153754666Y-76811792D02*
X153706285Y-76708982D01*
X153706285Y-76515458D01*
X153754666Y-76424744D01*
X153803047Y-76382411D01*
X153899809Y-76346125D01*
X154190095Y-76382411D01*
X154286857Y-76442887D01*
X154335238Y-76497316D01*
X154383619Y-76600125D01*
X154383619Y-76793649D01*
X154335238Y-76884363D01*
X154383619Y-75826030D02*
X154335238Y-75916744D01*
X154286857Y-75959077D01*
X154190095Y-75995363D01*
X153899809Y-75959077D01*
X153803047Y-75898601D01*
X153754666Y-75844173D01*
X153706285Y-75741363D01*
X153706285Y-75596220D01*
X153754666Y-75505506D01*
X153803047Y-75463173D01*
X153899809Y-75426887D01*
X154190095Y-75463173D01*
X154286857Y-75523649D01*
X154335238Y-75578077D01*
X154383619Y-75680887D01*
X154383619Y-75826030D01*
X153098500Y-114173000D02*
X154114500Y-114173000D01*
X134632700Y-104749600D02*
X134632700Y-102273100D01*
X133680200Y-104165400D02*
X134594600Y-102793800D01*
X134594600Y-102793800D02*
X135585200Y-104165400D01*
X133680200Y-102793800D02*
X135585200Y-102793800D01*
X133680200Y-104165400D02*
X135585200Y-104165400D01*
X133680200Y-102616000D02*
X135585200Y-102616000D01*
X135585200Y-102793800D02*
X135585200Y-102616000D01*
X133680200Y-102793800D02*
X133680200Y-102616000D01*
X135382000Y-104013000D02*
X133858000Y-104013000D01*
X133985000Y-103886000D02*
X135255000Y-103886000D01*
X135128000Y-103759000D02*
X133985000Y-103759000D01*
X134239000Y-103632000D02*
X135128000Y-103632000D01*
X134239000Y-103505000D02*
X135001000Y-103505000D01*
X134366000Y-103378000D02*
X135001000Y-103378000D01*
X134493000Y-103251000D02*
X134874000Y-103251000D01*
X144883000Y-105815000D02*
X144883000Y-108815000D01*
X144523512Y-108115000D02*
G75*
G03X144523512Y-108115000I-390512J0D01*
G01*
X144883000Y-105815000D02*
X141883000Y-105815000D01*
X141883000Y-105815000D02*
X141883000Y-108815000D01*
X141883000Y-108815000D02*
X144883000Y-108815000D01*
X150723600Y-109601000D02*
X151434800Y-109601000D01*
X150723600Y-108762800D02*
X150723600Y-109601000D01*
X153568400Y-108762800D02*
X153568400Y-109601000D01*
X152857200Y-109601000D02*
X153568400Y-109601000D01*
X149352000Y-105727500D02*
X149098000Y-105727500D01*
X149352000Y-105727500D02*
X149606000Y-105727500D01*
X149352000Y-104838500D02*
X149606000Y-104838500D01*
X149352000Y-104838500D02*
X149098000Y-104838500D01*
X136893300Y-102260400D02*
X136893300Y-104736900D01*
X137845800Y-102844600D02*
X136931400Y-104216200D01*
X136931400Y-104216200D02*
X135940800Y-102844600D01*
X137845800Y-104216200D02*
X135940800Y-104216200D01*
X137845800Y-102844600D02*
X135940800Y-102844600D01*
X137845800Y-104394000D02*
X135940800Y-104394000D01*
X135940800Y-104216200D02*
X135940800Y-104394000D01*
X137845800Y-104216200D02*
X137845800Y-104394000D01*
X136144000Y-102997000D02*
X137668000Y-102997000D01*
X137541000Y-103124000D02*
X136271000Y-103124000D01*
X136398000Y-103251000D02*
X137541000Y-103251000D01*
X137287000Y-103378000D02*
X136398000Y-103378000D01*
X137287000Y-103505000D02*
X136525000Y-103505000D01*
X137160000Y-103632000D02*
X136525000Y-103632000D01*
X137033000Y-103759000D02*
X136652000Y-103759000D01*
X138176000Y-106172000D02*
X138176000Y-105156000D01*
X139700000Y-106172000D02*
X139700000Y-105156000D01*
X140716000Y-103949500D02*
X140462000Y-103949500D01*
X140716000Y-103949500D02*
X140970000Y-103949500D01*
X140716000Y-103060500D02*
X140970000Y-103060500D01*
X140716000Y-103060500D02*
X140462000Y-103060500D01*
X134510000Y-65072000D02*
X152510000Y-65072000D01*
X134510000Y-71372000D02*
X152510000Y-71372000D01*
X152510000Y-65072000D02*
X152510000Y-71692000D01*
X134510000Y-65072000D02*
X134510000Y-71692000D01*
X134510000Y-96472000D02*
X152510000Y-96472000D01*
X134510000Y-96472000D02*
X134510000Y-96172000D01*
X152510000Y-96472000D02*
X152510000Y-96172000D01*
X136360000Y-90572000D02*
X137010000Y-90572000D01*
X150660000Y-90572000D02*
X150060000Y-90572000D01*
X148353780Y-119151400D02*
X154401520Y-119151400D01*
X154401520Y-119151400D02*
X154401520Y-114635280D01*
X154401520Y-114635280D02*
X148366480Y-114635280D01*
X148366480Y-114635280D02*
X148366480Y-119128540D01*
D12*
X133807200Y-109093000D02*
X133807200Y-110109000D01*
X132588000Y-110109000D02*
X132588000Y-109093000D01*
D17*
X133223000Y-110750000D02*
X133223000Y-110230000D01*
X133113000Y-110580000D02*
X133333000Y-110580000D01*
X133113000Y-110580000D02*
X133213000Y-110470000D01*
X133333000Y-110580000D02*
X133233000Y-110480000D01*
X133113000Y-110390000D02*
X133333000Y-110390000D01*
D18*
X133468600Y-110312200D02*
X133578600Y-110442200D01*
X133577600Y-110443800D02*
X133567600Y-110363800D01*
X133577600Y-110443800D02*
X133497600Y-110443800D01*
X133577600Y-110659200D02*
X133497600Y-110659200D01*
X133577600Y-110659200D02*
X133567600Y-110579200D01*
X133447600Y-110519200D02*
X133557600Y-110649200D01*
D10*
X132651500Y-109080300D02*
X132778500Y-108927900D01*
X133743700Y-109080300D02*
X133616700Y-108940600D01*
X132778500Y-108927900D02*
X133604000Y-108927900D01*
X133705600Y-109093000D02*
X132664200Y-109093000D01*
X152908000Y-102514400D02*
X152908000Y-101803200D01*
X152069800Y-102514400D02*
X152908000Y-102514400D01*
X152069800Y-99669600D02*
X152908000Y-99669600D01*
X152908000Y-100380800D02*
X152908000Y-99669600D01*
X147421600Y-109601000D02*
X148132800Y-109601000D01*
X147421600Y-108762800D02*
X147421600Y-109601000D01*
X150266400Y-108762800D02*
X150266400Y-109601000D01*
X149555200Y-109601000D02*
X150266400Y-109601000D01*
X150545800Y-114173000D02*
X149415500Y-114173000D01*
X150545800Y-111366300D02*
X149415500Y-111366300D01*
X152781000Y-106324400D02*
X151993600Y-106324400D01*
X151993600Y-106324400D02*
X151993600Y-105664000D01*
X151993600Y-104140000D02*
X151993600Y-103479600D01*
X151993600Y-103479600D02*
X152781000Y-103479600D01*
X153314400Y-105105200D02*
X153314400Y-104698800D01*
X139446000Y-119126000D02*
X139827000Y-118110000D01*
X147574000Y-119126000D02*
X147193000Y-118110000D01*
X147210000Y-113597000D02*
X147210000Y-114797000D01*
X139810000Y-118097000D02*
X139810000Y-117097000D01*
X147574000Y-119197000D02*
X139446000Y-119197000D01*
X147210000Y-117097000D02*
X147210000Y-118097000D01*
X146310000Y-112097000D02*
X145310000Y-112097000D01*
X141710000Y-112097000D02*
X140710000Y-112097000D01*
X139810000Y-113597000D02*
X139810000Y-114797000D01*
X147210000Y-118097000D02*
X139810000Y-118097000D01*
D12*
X134824738Y-115570000D02*
G75*
G03X134824738Y-115570000I-839738J0D01*
G01*
X133046000Y-113570000D02*
X132487200Y-113570000D01*
X135482800Y-113570000D02*
X134873200Y-113570000D01*
X133046000Y-117570000D02*
X132487200Y-117570000D01*
X135482000Y-117570000D02*
X134923200Y-117570000D01*
X132485000Y-113570000D02*
X132485000Y-117570000D01*
X135485000Y-113570000D02*
X135485000Y-117570000D01*
D10*
X137147300Y-114325400D02*
X137147300Y-116801900D01*
X138099800Y-114909600D02*
X137185400Y-116281200D01*
X137185400Y-116281200D02*
X136194800Y-114909600D01*
X138099800Y-116281200D02*
X136194800Y-116281200D01*
X138099800Y-114909600D02*
X136194800Y-114909600D01*
X138099800Y-116459000D02*
X136194800Y-116459000D01*
X136194800Y-116281200D02*
X136194800Y-116459000D01*
X138099800Y-116281200D02*
X138099800Y-116459000D01*
X136398000Y-115062000D02*
X137922000Y-115062000D01*
X137795000Y-115189000D02*
X136525000Y-115189000D01*
X136652000Y-115316000D02*
X137795000Y-115316000D01*
X137541000Y-115443000D02*
X136652000Y-115443000D01*
X137541000Y-115570000D02*
X136779000Y-115570000D01*
X137414000Y-115697000D02*
X136779000Y-115697000D01*
X137287000Y-115824000D02*
X136906000Y-115824000D01*
X149085300Y-98831400D02*
X149085300Y-101307900D01*
X150037800Y-99415600D02*
X149123400Y-100787200D01*
X149123400Y-100787200D02*
X148132800Y-99415600D01*
X150037800Y-100787200D02*
X148132800Y-100787200D01*
X150037800Y-99415600D02*
X148132800Y-99415600D01*
X150037800Y-100965000D02*
X148132800Y-100965000D01*
X148132800Y-100787200D02*
X148132800Y-100965000D01*
X150037800Y-100787200D02*
X150037800Y-100965000D01*
X148336000Y-99568000D02*
X149860000Y-99568000D01*
X149733000Y-99695000D02*
X148463000Y-99695000D01*
X148590000Y-99822000D02*
X149733000Y-99822000D01*
X149479000Y-99949000D02*
X148590000Y-99949000D01*
X149479000Y-100076000D02*
X148717000Y-100076000D01*
X149352000Y-100203000D02*
X148717000Y-100203000D01*
X149225000Y-100330000D02*
X148844000Y-100330000D01*
X146177000Y-101600000D02*
X146177000Y-100584000D01*
X147701000Y-101600000D02*
X147701000Y-100584000D01*
X139319000Y-101600000D02*
X139319000Y-100584000D01*
X140843000Y-101600000D02*
X140843000Y-100584000D01*
X151447500Y-98298000D02*
X151447500Y-98552000D01*
X151447500Y-98298000D02*
X151447500Y-98044000D01*
X150558500Y-98298000D02*
X150558500Y-98044000D01*
X150558500Y-98298000D02*
X150558500Y-98552000D01*
X133667500Y-83185000D02*
X133667500Y-83439000D01*
X133667500Y-83185000D02*
X133667500Y-82931000D01*
X132778500Y-83185000D02*
X132778500Y-82931000D01*
X132778500Y-83185000D02*
X132778500Y-83439000D01*
X133667500Y-107823000D02*
X133667500Y-108077000D01*
X133667500Y-107823000D02*
X133667500Y-107569000D01*
X132778500Y-107823000D02*
X132778500Y-107569000D01*
X132778500Y-107823000D02*
X132778500Y-108077000D01*
X153162000Y-112331500D02*
X152908000Y-112331500D01*
X153162000Y-112331500D02*
X153416000Y-112331500D01*
X153162000Y-111442500D02*
X153416000Y-111442500D01*
X153162000Y-111442500D02*
X152908000Y-111442500D01*
X132715000Y-79692501D02*
X132969000Y-79692501D01*
X132715000Y-79692501D02*
X132461000Y-79692501D01*
X132715000Y-80581501D02*
X132461000Y-80581501D01*
X132715000Y-80581501D02*
X132969000Y-80581501D01*
X135890000Y-109664500D02*
X135636000Y-109664500D01*
X135890000Y-109664500D02*
X136144000Y-109664500D01*
X135890000Y-108775500D02*
X136144000Y-108775500D01*
X135890000Y-108775500D02*
X135636000Y-108775500D01*
X149352000Y-106870500D02*
X149098000Y-106870500D01*
X149352000Y-106870500D02*
X149606000Y-106870500D01*
X149352000Y-105981500D02*
X149606000Y-105981500D01*
X149352000Y-105981500D02*
X149098000Y-105981500D01*
X153924000Y-110172500D02*
X154178000Y-110172500D01*
X153924000Y-110172500D02*
X153670000Y-110172500D01*
X153924000Y-111061500D02*
X153670000Y-111061500D01*
X153924000Y-111061500D02*
X154178000Y-111061500D01*
X132778500Y-74168000D02*
X132778500Y-73914000D01*
X132778500Y-74168000D02*
X132778500Y-74422000D01*
X133667500Y-74168000D02*
X133667500Y-74422000D01*
X133667500Y-74168000D02*
X133667500Y-73914000D01*
X132715000Y-77660500D02*
X132461000Y-77660500D01*
X132715000Y-77660500D02*
X132969000Y-77660500D01*
X132715000Y-76771500D02*
X132969000Y-76771500D01*
X132715000Y-76771500D02*
X132461000Y-76771500D01*
X132715000Y-78295500D02*
X132969000Y-78295500D01*
X132715000Y-78295500D02*
X132461000Y-78295500D01*
X132715000Y-79184500D02*
X132461000Y-79184500D01*
X132715000Y-79184500D02*
X132969000Y-79184500D01*
X139255500Y-109728000D02*
X139255500Y-109474000D01*
X139255500Y-109728000D02*
X139255500Y-109982000D01*
X140144500Y-109728000D02*
X140144500Y-109982000D01*
X140144500Y-109728000D02*
X140144500Y-109474000D01*
X138049000Y-108775500D02*
X138303000Y-108775500D01*
X138049000Y-108775500D02*
X137795000Y-108775500D01*
X138049000Y-109664500D02*
X137795000Y-109664500D01*
X138049000Y-109664500D02*
X138303000Y-109664500D01*
X132714999Y-82105500D02*
X132460999Y-82105500D01*
X132714999Y-82105500D02*
X132968999Y-82105500D01*
X132714999Y-81216500D02*
X132968999Y-81216500D01*
X132714999Y-81216500D02*
X132460999Y-81216500D01*
X135509000Y-98298000D02*
X135509000Y-99314000D01*
X137033000Y-98298000D02*
X137033000Y-99314000D01*
X146075400Y-103771700D02*
X148551900Y-103771700D01*
X146659600Y-102819200D02*
X148031200Y-103733600D01*
X148031200Y-103733600D02*
X146659600Y-104724200D01*
X148031200Y-102819200D02*
X148031200Y-104724200D01*
X146659600Y-102819200D02*
X146659600Y-104724200D01*
X148209000Y-102819200D02*
X148209000Y-104724200D01*
X148031200Y-104724200D02*
X148209000Y-104724200D01*
X148031200Y-102819200D02*
X148209000Y-102819200D01*
X146812000Y-104521000D02*
X146812000Y-102997000D01*
X146939000Y-103124000D02*
X146939000Y-104394000D01*
X147066000Y-104267000D02*
X147066000Y-103124000D01*
X147193000Y-103378000D02*
X147193000Y-104267000D01*
X147320000Y-103378000D02*
X147320000Y-104140000D01*
X147447000Y-103505000D02*
X147447000Y-104140000D01*
X147574000Y-103632000D02*
X147574000Y-104013000D01*
X143510000Y-104584500D02*
X143256000Y-104584500D01*
X143510000Y-104584500D02*
X143764000Y-104584500D01*
X143510000Y-103695500D02*
X143764000Y-103695500D01*
X143510000Y-103695500D02*
X143256000Y-103695500D01*
X142951200Y-102501700D02*
X144081500Y-102501700D01*
X142951200Y-99695000D02*
X144081500Y-99695000D01*
D19*
G36*
X142632973Y-91524916D02*
G01*
X142625647Y-91578002D01*
X142604880Y-91629066D01*
X142586533Y-91656862D01*
X142566762Y-91679796D01*
X142545316Y-91700611D01*
X142537091Y-91707295D01*
X142512200Y-91725750D01*
X142511990Y-92139135D01*
X142511780Y-92552520D01*
X142466060Y-92552520D01*
X142466060Y-91520010D01*
X142462993Y-91485815D01*
X142452425Y-91463758D01*
X142432302Y-91451743D01*
X142400571Y-91447675D01*
X142395126Y-91447620D01*
X142369471Y-91449395D01*
X142348642Y-91453928D01*
X142341368Y-91457349D01*
X142328147Y-91475345D01*
X142321167Y-91501891D01*
X142320437Y-91531667D01*
X142325968Y-91559350D01*
X142337768Y-91579617D01*
X142341138Y-91582503D01*
X142361243Y-91590286D01*
X142388749Y-91592836D01*
X142417520Y-91590449D01*
X142441420Y-91583426D01*
X142450820Y-91577160D01*
X142460675Y-91562476D01*
X142465275Y-91541019D01*
X142466060Y-91520010D01*
X142466060Y-92552520D01*
X142393670Y-92552520D01*
X142275560Y-92552520D01*
X142275538Y-92139135D01*
X142275516Y-91725750D01*
X142252201Y-91710510D01*
X142229413Y-91690852D01*
X142204732Y-91662103D01*
X142182010Y-91629288D01*
X142165096Y-91597432D01*
X142164549Y-91596138D01*
X142154092Y-91554865D01*
X142152886Y-91507699D01*
X142160640Y-91460625D01*
X142172735Y-91427796D01*
X142203619Y-91379660D01*
X142245067Y-91336707D01*
X142292441Y-91303609D01*
X142299757Y-91299791D01*
X142349277Y-91283142D01*
X142402753Y-91278996D01*
X142455427Y-91287355D01*
X142487583Y-91299791D01*
X142539067Y-91332713D01*
X142579907Y-91373705D01*
X142609544Y-91420748D01*
X142627419Y-91471825D01*
X142632973Y-91524916D01*
X142632973Y-91524916D01*
G37*
X142632973Y-91524916D02*
X142625647Y-91578002D01*
X142604880Y-91629066D01*
X142586533Y-91656862D01*
X142566762Y-91679796D01*
X142545316Y-91700611D01*
X142537091Y-91707295D01*
X142512200Y-91725750D01*
X142511990Y-92139135D01*
X142511780Y-92552520D01*
X142466060Y-92552520D01*
X142466060Y-91520010D01*
X142462993Y-91485815D01*
X142452425Y-91463758D01*
X142432302Y-91451743D01*
X142400571Y-91447675D01*
X142395126Y-91447620D01*
X142369471Y-91449395D01*
X142348642Y-91453928D01*
X142341368Y-91457349D01*
X142328147Y-91475345D01*
X142321167Y-91501891D01*
X142320437Y-91531667D01*
X142325968Y-91559350D01*
X142337768Y-91579617D01*
X142341138Y-91582503D01*
X142361243Y-91590286D01*
X142388749Y-91592836D01*
X142417520Y-91590449D01*
X142441420Y-91583426D01*
X142450820Y-91577160D01*
X142460675Y-91562476D01*
X142465275Y-91541019D01*
X142466060Y-91520010D01*
X142466060Y-92552520D01*
X142393670Y-92552520D01*
X142275560Y-92552520D01*
X142275538Y-92139135D01*
X142275516Y-91725750D01*
X142252201Y-91710510D01*
X142229413Y-91690852D01*
X142204732Y-91662103D01*
X142182010Y-91629288D01*
X142165096Y-91597432D01*
X142164549Y-91596138D01*
X142154092Y-91554865D01*
X142152886Y-91507699D01*
X142160640Y-91460625D01*
X142172735Y-91427796D01*
X142203619Y-91379660D01*
X142245067Y-91336707D01*
X142292441Y-91303609D01*
X142299757Y-91299791D01*
X142349277Y-91283142D01*
X142402753Y-91278996D01*
X142455427Y-91287355D01*
X142487583Y-91299791D01*
X142539067Y-91332713D01*
X142579907Y-91373705D01*
X142609544Y-91420748D01*
X142627419Y-91471825D01*
X142632973Y-91524916D01*
G36*
X141484319Y-92212469D02*
G01*
X141484196Y-92293315D01*
X141483828Y-92372484D01*
X141483215Y-92448439D01*
X141482356Y-92519645D01*
X141481251Y-92584565D01*
X141479900Y-92641665D01*
X141478301Y-92689407D01*
X141476455Y-92726258D01*
X141474361Y-92750680D01*
X141472436Y-92760410D01*
X141463077Y-92774554D01*
X141444708Y-92796533D01*
X141419511Y-92824183D01*
X141389672Y-92855335D01*
X141357374Y-92887824D01*
X141324802Y-92919484D01*
X141294138Y-92948148D01*
X141267568Y-92971650D01*
X141247274Y-92987824D01*
X141246860Y-92988073D01*
X141246860Y-92671070D01*
X141246860Y-92206221D01*
X141246860Y-91741372D01*
X141195629Y-91689746D01*
X141144399Y-91638120D01*
X140965316Y-91638120D01*
X140786232Y-91638120D01*
X140734606Y-91689351D01*
X140710714Y-91713358D01*
X140695636Y-91730321D01*
X140687344Y-91743906D01*
X140683812Y-91757780D01*
X140683012Y-91775609D01*
X140683002Y-91782696D01*
X140683817Y-91807693D01*
X140687666Y-91822776D01*
X140696707Y-91833243D01*
X140706339Y-91840050D01*
X140731007Y-91861443D01*
X140756443Y-91892045D01*
X140778743Y-91926561D01*
X140793520Y-91958302D01*
X140804400Y-92011092D01*
X140801596Y-92065326D01*
X140786045Y-92118152D01*
X140758684Y-92166717D01*
X140720449Y-92208166D01*
X140708291Y-92217835D01*
X140683400Y-92236290D01*
X140683190Y-92449459D01*
X140682980Y-92662627D01*
X140734211Y-92714254D01*
X140785441Y-92765880D01*
X140968321Y-92765880D01*
X141151200Y-92765880D01*
X141199030Y-92718475D01*
X141246860Y-92671070D01*
X141246860Y-92988073D01*
X141236839Y-92994102D01*
X141221810Y-92996766D01*
X141193967Y-92998904D01*
X141155595Y-93000531D01*
X141108978Y-93001660D01*
X141056400Y-93002304D01*
X141000144Y-93002478D01*
X140942497Y-93002195D01*
X140885740Y-93001470D01*
X140832160Y-93000314D01*
X140784039Y-92998743D01*
X140743663Y-92996770D01*
X140713314Y-92994409D01*
X140695279Y-92991672D01*
X140692748Y-92990842D01*
X140677702Y-92981161D01*
X140654750Y-92962578D01*
X140637260Y-92947121D01*
X140637260Y-92030550D01*
X140634193Y-91996355D01*
X140623625Y-91974298D01*
X140603502Y-91962283D01*
X140571771Y-91958215D01*
X140566326Y-91958160D01*
X140540671Y-91959935D01*
X140519842Y-91964468D01*
X140512568Y-91967889D01*
X140499347Y-91985885D01*
X140492367Y-92012431D01*
X140491637Y-92042207D01*
X140497168Y-92069890D01*
X140508968Y-92090157D01*
X140512338Y-92093043D01*
X140532443Y-92100826D01*
X140559949Y-92103376D01*
X140588720Y-92100989D01*
X140612620Y-92093966D01*
X140622020Y-92087700D01*
X140631875Y-92073016D01*
X140636475Y-92051559D01*
X140637260Y-92030550D01*
X140637260Y-92947121D01*
X140626142Y-92937295D01*
X140594127Y-92907509D01*
X140560953Y-92875423D01*
X140528872Y-92843234D01*
X140500131Y-92813144D01*
X140476980Y-92787352D01*
X140461669Y-92768058D01*
X140457136Y-92760410D01*
X140454109Y-92749799D01*
X140451687Y-92732833D01*
X140449815Y-92708081D01*
X140448439Y-92674113D01*
X140447505Y-92629498D01*
X140446958Y-92572806D01*
X140446746Y-92502605D01*
X140446738Y-92486090D01*
X140446716Y-92236290D01*
X140423401Y-92221050D01*
X140400613Y-92201392D01*
X140375932Y-92172643D01*
X140353210Y-92139828D01*
X140336296Y-92107972D01*
X140335749Y-92106678D01*
X140327498Y-92074773D01*
X140324355Y-92035296D01*
X140326317Y-91995035D01*
X140333386Y-91960775D01*
X140335749Y-91954422D01*
X140352320Y-91922723D01*
X140374869Y-91889845D01*
X140399544Y-91860813D01*
X140422496Y-91840652D01*
X140423401Y-91840050D01*
X140446716Y-91824810D01*
X140446738Y-91751011D01*
X140447565Y-91716419D01*
X140449761Y-91685387D01*
X140452935Y-91662589D01*
X140454756Y-91655761D01*
X140463218Y-91642425D01*
X140480811Y-91620949D01*
X140505415Y-91593473D01*
X140534908Y-91562132D01*
X140567168Y-91529067D01*
X140600076Y-91496414D01*
X140631508Y-91466312D01*
X140659344Y-91440899D01*
X140681462Y-91422313D01*
X140695742Y-91412692D01*
X140696070Y-91412545D01*
X140711337Y-91409317D01*
X140739520Y-91406613D01*
X140778305Y-91404434D01*
X140825377Y-91402782D01*
X140878421Y-91401656D01*
X140935123Y-91401059D01*
X140993167Y-91400991D01*
X141050240Y-91401454D01*
X141104026Y-91402448D01*
X141152210Y-91403976D01*
X141192479Y-91406038D01*
X141222517Y-91408635D01*
X141240009Y-91411768D01*
X141241390Y-91412276D01*
X141256011Y-91421892D01*
X141278405Y-91440763D01*
X141306368Y-91466624D01*
X141337698Y-91497211D01*
X141370192Y-91530257D01*
X141401646Y-91563498D01*
X141429858Y-91594667D01*
X141452625Y-91621499D01*
X141467743Y-91641729D01*
X141472156Y-91649585D01*
X141474462Y-91662744D01*
X141476527Y-91689583D01*
X141478350Y-91728565D01*
X141479931Y-91778156D01*
X141481271Y-91836819D01*
X141482367Y-91903019D01*
X141483221Y-91975219D01*
X141483831Y-92051885D01*
X141484197Y-92131480D01*
X141484319Y-92212469D01*
X141484319Y-92212469D01*
G37*
X141484319Y-92212469D02*
X141484196Y-92293315D01*
X141483828Y-92372484D01*
X141483215Y-92448439D01*
X141482356Y-92519645D01*
X141481251Y-92584565D01*
X141479900Y-92641665D01*
X141478301Y-92689407D01*
X141476455Y-92726258D01*
X141474361Y-92750680D01*
X141472436Y-92760410D01*
X141463077Y-92774554D01*
X141444708Y-92796533D01*
X141419511Y-92824183D01*
X141389672Y-92855335D01*
X141357374Y-92887824D01*
X141324802Y-92919484D01*
X141294138Y-92948148D01*
X141267568Y-92971650D01*
X141247274Y-92987824D01*
X141246860Y-92988073D01*
X141246860Y-92671070D01*
X141246860Y-92206221D01*
X141246860Y-91741372D01*
X141195629Y-91689746D01*
X141144399Y-91638120D01*
X140965316Y-91638120D01*
X140786232Y-91638120D01*
X140734606Y-91689351D01*
X140710714Y-91713358D01*
X140695636Y-91730321D01*
X140687344Y-91743906D01*
X140683812Y-91757780D01*
X140683012Y-91775609D01*
X140683002Y-91782696D01*
X140683817Y-91807693D01*
X140687666Y-91822776D01*
X140696707Y-91833243D01*
X140706339Y-91840050D01*
X140731007Y-91861443D01*
X140756443Y-91892045D01*
X140778743Y-91926561D01*
X140793520Y-91958302D01*
X140804400Y-92011092D01*
X140801596Y-92065326D01*
X140786045Y-92118152D01*
X140758684Y-92166717D01*
X140720449Y-92208166D01*
X140708291Y-92217835D01*
X140683400Y-92236290D01*
X140683190Y-92449459D01*
X140682980Y-92662627D01*
X140734211Y-92714254D01*
X140785441Y-92765880D01*
X140968321Y-92765880D01*
X141151200Y-92765880D01*
X141199030Y-92718475D01*
X141246860Y-92671070D01*
X141246860Y-92988073D01*
X141236839Y-92994102D01*
X141221810Y-92996766D01*
X141193967Y-92998904D01*
X141155595Y-93000531D01*
X141108978Y-93001660D01*
X141056400Y-93002304D01*
X141000144Y-93002478D01*
X140942497Y-93002195D01*
X140885740Y-93001470D01*
X140832160Y-93000314D01*
X140784039Y-92998743D01*
X140743663Y-92996770D01*
X140713314Y-92994409D01*
X140695279Y-92991672D01*
X140692748Y-92990842D01*
X140677702Y-92981161D01*
X140654750Y-92962578D01*
X140637260Y-92947121D01*
X140637260Y-92030550D01*
X140634193Y-91996355D01*
X140623625Y-91974298D01*
X140603502Y-91962283D01*
X140571771Y-91958215D01*
X140566326Y-91958160D01*
X140540671Y-91959935D01*
X140519842Y-91964468D01*
X140512568Y-91967889D01*
X140499347Y-91985885D01*
X140492367Y-92012431D01*
X140491637Y-92042207D01*
X140497168Y-92069890D01*
X140508968Y-92090157D01*
X140512338Y-92093043D01*
X140532443Y-92100826D01*
X140559949Y-92103376D01*
X140588720Y-92100989D01*
X140612620Y-92093966D01*
X140622020Y-92087700D01*
X140631875Y-92073016D01*
X140636475Y-92051559D01*
X140637260Y-92030550D01*
X140637260Y-92947121D01*
X140626142Y-92937295D01*
X140594127Y-92907509D01*
X140560953Y-92875423D01*
X140528872Y-92843234D01*
X140500131Y-92813144D01*
X140476980Y-92787352D01*
X140461669Y-92768058D01*
X140457136Y-92760410D01*
X140454109Y-92749799D01*
X140451687Y-92732833D01*
X140449815Y-92708081D01*
X140448439Y-92674113D01*
X140447505Y-92629498D01*
X140446958Y-92572806D01*
X140446746Y-92502605D01*
X140446738Y-92486090D01*
X140446716Y-92236290D01*
X140423401Y-92221050D01*
X140400613Y-92201392D01*
X140375932Y-92172643D01*
X140353210Y-92139828D01*
X140336296Y-92107972D01*
X140335749Y-92106678D01*
X140327498Y-92074773D01*
X140324355Y-92035296D01*
X140326317Y-91995035D01*
X140333386Y-91960775D01*
X140335749Y-91954422D01*
X140352320Y-91922723D01*
X140374869Y-91889845D01*
X140399544Y-91860813D01*
X140422496Y-91840652D01*
X140423401Y-91840050D01*
X140446716Y-91824810D01*
X140446738Y-91751011D01*
X140447565Y-91716419D01*
X140449761Y-91685387D01*
X140452935Y-91662589D01*
X140454756Y-91655761D01*
X140463218Y-91642425D01*
X140480811Y-91620949D01*
X140505415Y-91593473D01*
X140534908Y-91562132D01*
X140567168Y-91529067D01*
X140600076Y-91496414D01*
X140631508Y-91466312D01*
X140659344Y-91440899D01*
X140681462Y-91422313D01*
X140695742Y-91412692D01*
X140696070Y-91412545D01*
X140711337Y-91409317D01*
X140739520Y-91406613D01*
X140778305Y-91404434D01*
X140825377Y-91402782D01*
X140878421Y-91401656D01*
X140935123Y-91401059D01*
X140993167Y-91400991D01*
X141050240Y-91401454D01*
X141104026Y-91402448D01*
X141152210Y-91403976D01*
X141192479Y-91406038D01*
X141222517Y-91408635D01*
X141240009Y-91411768D01*
X141241390Y-91412276D01*
X141256011Y-91421892D01*
X141278405Y-91440763D01*
X141306368Y-91466624D01*
X141337698Y-91497211D01*
X141370192Y-91530257D01*
X141401646Y-91563498D01*
X141429858Y-91594667D01*
X141452625Y-91621499D01*
X141467743Y-91641729D01*
X141472156Y-91649585D01*
X141474462Y-91662744D01*
X141476527Y-91689583D01*
X141478350Y-91728565D01*
X141479931Y-91778156D01*
X141481271Y-91836819D01*
X141482367Y-91903019D01*
X141483221Y-91975219D01*
X141483831Y-92051885D01*
X141484197Y-92131480D01*
X141484319Y-92212469D01*
G36*
X146692302Y-92874094D02*
G01*
X146690114Y-92922273D01*
X146680154Y-92965558D01*
X146674205Y-92979742D01*
X146650667Y-93016381D01*
X146617921Y-93052932D01*
X146581020Y-93084350D01*
X146550882Y-93102900D01*
X146527520Y-93110751D01*
X146527520Y-92883990D01*
X146524454Y-92849795D01*
X146513885Y-92827738D01*
X146493762Y-92815723D01*
X146462031Y-92811655D01*
X146456586Y-92811600D01*
X146430931Y-92813375D01*
X146410102Y-92817908D01*
X146402828Y-92821329D01*
X146389607Y-92839325D01*
X146382627Y-92865871D01*
X146381897Y-92895647D01*
X146387428Y-92923330D01*
X146399228Y-92943597D01*
X146402597Y-92946483D01*
X146422703Y-92954266D01*
X146450209Y-92956816D01*
X146478980Y-92954429D01*
X146502880Y-92947406D01*
X146512280Y-92941140D01*
X146522135Y-92926456D01*
X146526735Y-92904999D01*
X146527520Y-92883990D01*
X146527520Y-93110751D01*
X146515252Y-93114874D01*
X146472496Y-93121290D01*
X146428877Y-93121784D01*
X146390657Y-93115993D01*
X146380634Y-93112770D01*
X146330767Y-93086326D01*
X146285409Y-93048044D01*
X146247960Y-93001288D01*
X146225783Y-92959577D01*
X146217614Y-92927803D01*
X146214589Y-92888414D01*
X146216685Y-92848131D01*
X146223879Y-92813675D01*
X146226314Y-92807133D01*
X146238480Y-92778015D01*
X146125920Y-92665267D01*
X146013361Y-92552520D01*
X145971311Y-92552520D01*
X145929261Y-92552520D01*
X145685465Y-92797123D01*
X145634437Y-92848019D01*
X145585963Y-92895788D01*
X145541248Y-92939287D01*
X145501496Y-92977369D01*
X145467911Y-93008888D01*
X145441696Y-93032701D01*
X145424057Y-93047660D01*
X145417150Y-93052393D01*
X145401417Y-93055808D01*
X145372922Y-93058628D01*
X145334134Y-93060854D01*
X145287518Y-93062484D01*
X145235543Y-93063516D01*
X145180675Y-93063948D01*
X145125381Y-93063780D01*
X145072129Y-93063009D01*
X145023386Y-93061635D01*
X144981618Y-93059655D01*
X144949294Y-93057069D01*
X144928880Y-93053874D01*
X144925170Y-93052684D01*
X144910549Y-93043068D01*
X144888155Y-93024197D01*
X144860192Y-92998336D01*
X144828862Y-92967749D01*
X144796368Y-92934703D01*
X144764914Y-92901462D01*
X144736702Y-92870293D01*
X144713935Y-92843461D01*
X144698817Y-92823231D01*
X144694404Y-92815375D01*
X144692119Y-92802253D01*
X144690070Y-92775392D01*
X144688257Y-92736292D01*
X144686681Y-92686453D01*
X144685342Y-92627374D01*
X144684239Y-92560556D01*
X144683373Y-92487497D01*
X144682744Y-92409698D01*
X144682351Y-92328658D01*
X144682194Y-92245877D01*
X144682275Y-92162854D01*
X144682591Y-92081089D01*
X144683145Y-92002082D01*
X144683935Y-91927333D01*
X144684961Y-91858340D01*
X144686224Y-91796604D01*
X144687724Y-91743625D01*
X144689460Y-91700901D01*
X144691433Y-91669933D01*
X144693642Y-91652221D01*
X144694404Y-91649585D01*
X144704040Y-91634256D01*
X144722609Y-91611002D01*
X144747910Y-91582089D01*
X144777739Y-91549783D01*
X144809894Y-91516348D01*
X144842171Y-91484050D01*
X144872367Y-91455155D01*
X144898280Y-91431928D01*
X144917706Y-91416635D01*
X144925170Y-91412276D01*
X144941101Y-91408881D01*
X144969757Y-91406093D01*
X145008674Y-91403913D01*
X145055382Y-91402339D01*
X145107415Y-91401369D01*
X145162307Y-91401001D01*
X145217589Y-91401235D01*
X145270794Y-91402068D01*
X145319456Y-91403500D01*
X145361107Y-91405529D01*
X145393281Y-91408153D01*
X145413509Y-91411372D01*
X145417150Y-91412567D01*
X145427514Y-91420079D01*
X145447362Y-91437309D01*
X145475490Y-91463112D01*
X145510695Y-91496343D01*
X145551772Y-91535855D01*
X145597517Y-91580504D01*
X145646727Y-91629144D01*
X145685465Y-91667837D01*
X145929261Y-91912440D01*
X145971311Y-91912440D01*
X146013361Y-91912440D01*
X146125920Y-91799692D01*
X146238480Y-91686945D01*
X146226314Y-91657827D01*
X146215577Y-91615661D01*
X146214378Y-91567810D01*
X146222440Y-91520244D01*
X146234195Y-91488756D01*
X146265079Y-91440620D01*
X146306527Y-91397667D01*
X146353901Y-91364569D01*
X146361217Y-91360751D01*
X146410737Y-91344102D01*
X146464213Y-91339956D01*
X146516887Y-91348315D01*
X146549043Y-91360751D01*
X146593471Y-91389297D01*
X146633961Y-91427123D01*
X146665706Y-91469484D01*
X146673452Y-91483663D01*
X146683498Y-91507926D01*
X146689052Y-91533259D01*
X146691201Y-91565559D01*
X146691350Y-91580970D01*
X146687866Y-91630951D01*
X146676083Y-91672444D01*
X146654006Y-91710189D01*
X146621366Y-91747206D01*
X146574104Y-91785813D01*
X146527520Y-91808034D01*
X146527520Y-91580970D01*
X146524454Y-91546775D01*
X146513885Y-91524718D01*
X146493762Y-91512703D01*
X146462031Y-91508635D01*
X146456586Y-91508580D01*
X146430931Y-91510355D01*
X146410102Y-91514888D01*
X146402828Y-91518309D01*
X146389607Y-91536305D01*
X146382627Y-91562851D01*
X146381897Y-91592627D01*
X146387428Y-91620310D01*
X146399228Y-91640577D01*
X146402597Y-91643463D01*
X146422703Y-91651246D01*
X146450209Y-91653796D01*
X146478980Y-91651409D01*
X146502880Y-91644386D01*
X146512280Y-91638120D01*
X146522135Y-91623436D01*
X146526735Y-91601979D01*
X146527520Y-91580970D01*
X146527520Y-91808034D01*
X146523808Y-91809805D01*
X146474594Y-91819346D01*
X146432270Y-91822509D01*
X146276060Y-91977600D01*
X146235079Y-92017836D01*
X146196617Y-92054749D01*
X146162256Y-92086885D01*
X146133578Y-92112793D01*
X146112163Y-92131023D01*
X146099594Y-92140121D01*
X146098399Y-92140675D01*
X146079362Y-92144570D01*
X146049132Y-92147197D01*
X146011425Y-92148594D01*
X145969957Y-92148801D01*
X145928445Y-92147855D01*
X145890604Y-92145795D01*
X145860150Y-92142659D01*
X145840800Y-92138487D01*
X145839570Y-92137993D01*
X145829206Y-92130481D01*
X145809358Y-92113251D01*
X145781230Y-92087448D01*
X145746025Y-92054217D01*
X145704948Y-92014705D01*
X145659203Y-91970056D01*
X145609993Y-91921416D01*
X145571255Y-91882723D01*
X145327459Y-91638120D01*
X145174810Y-91638120D01*
X145022161Y-91638120D01*
X144970931Y-91689746D01*
X144919700Y-91741372D01*
X144919700Y-91914536D01*
X144919700Y-92087700D01*
X145070195Y-92087678D01*
X145220690Y-92087656D01*
X145235930Y-92064341D01*
X145255326Y-92041837D01*
X145283717Y-92017345D01*
X145316041Y-91994762D01*
X145347237Y-91977986D01*
X145349163Y-91977165D01*
X145388013Y-91967310D01*
X145433431Y-91965551D01*
X145479267Y-91971586D01*
X145519371Y-91985112D01*
X145520343Y-91985591D01*
X145564771Y-92014137D01*
X145605261Y-92051963D01*
X145637006Y-92094324D01*
X145644752Y-92108503D01*
X145658040Y-92148748D01*
X145663602Y-92195914D01*
X145661414Y-92244093D01*
X145651454Y-92287378D01*
X145645505Y-92301562D01*
X145622011Y-92338149D01*
X145589355Y-92374619D01*
X145552561Y-92405954D01*
X145522182Y-92424616D01*
X145498820Y-92432398D01*
X145498820Y-92205810D01*
X145495754Y-92171615D01*
X145485185Y-92149558D01*
X145465062Y-92137543D01*
X145433331Y-92133475D01*
X145427886Y-92133420D01*
X145402231Y-92135195D01*
X145381402Y-92139728D01*
X145374128Y-92143149D01*
X145360907Y-92161145D01*
X145353927Y-92187691D01*
X145353197Y-92217467D01*
X145358728Y-92245150D01*
X145370528Y-92265417D01*
X145373897Y-92268303D01*
X145394003Y-92276086D01*
X145421509Y-92278636D01*
X145450280Y-92276249D01*
X145474180Y-92269226D01*
X145483580Y-92262960D01*
X145493435Y-92248276D01*
X145498035Y-92226819D01*
X145498820Y-92205810D01*
X145498820Y-92432398D01*
X145479263Y-92438912D01*
X145430660Y-92444798D01*
X145383111Y-92441826D01*
X145357800Y-92435572D01*
X145322860Y-92419662D01*
X145287246Y-92396849D01*
X145256185Y-92370921D01*
X145235930Y-92347279D01*
X145220690Y-92323964D01*
X145070195Y-92323942D01*
X144919700Y-92323920D01*
X144919700Y-92524149D01*
X144919700Y-92724379D01*
X144971326Y-92775609D01*
X145022952Y-92826840D01*
X145175206Y-92826840D01*
X145327459Y-92826840D01*
X145571255Y-92582237D01*
X145622283Y-92531341D01*
X145670757Y-92483572D01*
X145715472Y-92440073D01*
X145755224Y-92401991D01*
X145788809Y-92370471D01*
X145815024Y-92346659D01*
X145832663Y-92331700D01*
X145839570Y-92326967D01*
X145859377Y-92322076D01*
X145890554Y-92318587D01*
X145929296Y-92316500D01*
X145971795Y-92315815D01*
X146014248Y-92316532D01*
X146052849Y-92318652D01*
X146083791Y-92322174D01*
X146102950Y-92326957D01*
X146114620Y-92335043D01*
X146135292Y-92352536D01*
X146163337Y-92377926D01*
X146197123Y-92409701D01*
X146235021Y-92446352D01*
X146275398Y-92486368D01*
X146279799Y-92490787D01*
X146432127Y-92643960D01*
X146470707Y-92643960D01*
X146515054Y-92650929D01*
X146560370Y-92670360D01*
X146603514Y-92700042D01*
X146641342Y-92737763D01*
X146670713Y-92781309D01*
X146673452Y-92786683D01*
X146686740Y-92826928D01*
X146692302Y-92874094D01*
X146692302Y-92874094D01*
G37*
X146692302Y-92874094D02*
X146690114Y-92922273D01*
X146680154Y-92965558D01*
X146674205Y-92979742D01*
X146650667Y-93016381D01*
X146617921Y-93052932D01*
X146581020Y-93084350D01*
X146550882Y-93102900D01*
X146527520Y-93110751D01*
X146527520Y-92883990D01*
X146524454Y-92849795D01*
X146513885Y-92827738D01*
X146493762Y-92815723D01*
X146462031Y-92811655D01*
X146456586Y-92811600D01*
X146430931Y-92813375D01*
X146410102Y-92817908D01*
X146402828Y-92821329D01*
X146389607Y-92839325D01*
X146382627Y-92865871D01*
X146381897Y-92895647D01*
X146387428Y-92923330D01*
X146399228Y-92943597D01*
X146402597Y-92946483D01*
X146422703Y-92954266D01*
X146450209Y-92956816D01*
X146478980Y-92954429D01*
X146502880Y-92947406D01*
X146512280Y-92941140D01*
X146522135Y-92926456D01*
X146526735Y-92904999D01*
X146527520Y-92883990D01*
X146527520Y-93110751D01*
X146515252Y-93114874D01*
X146472496Y-93121290D01*
X146428877Y-93121784D01*
X146390657Y-93115993D01*
X146380634Y-93112770D01*
X146330767Y-93086326D01*
X146285409Y-93048044D01*
X146247960Y-93001288D01*
X146225783Y-92959577D01*
X146217614Y-92927803D01*
X146214589Y-92888414D01*
X146216685Y-92848131D01*
X146223879Y-92813675D01*
X146226314Y-92807133D01*
X146238480Y-92778015D01*
X146125920Y-92665267D01*
X146013361Y-92552520D01*
X145971311Y-92552520D01*
X145929261Y-92552520D01*
X145685465Y-92797123D01*
X145634437Y-92848019D01*
X145585963Y-92895788D01*
X145541248Y-92939287D01*
X145501496Y-92977369D01*
X145467911Y-93008888D01*
X145441696Y-93032701D01*
X145424057Y-93047660D01*
X145417150Y-93052393D01*
X145401417Y-93055808D01*
X145372922Y-93058628D01*
X145334134Y-93060854D01*
X145287518Y-93062484D01*
X145235543Y-93063516D01*
X145180675Y-93063948D01*
X145125381Y-93063780D01*
X145072129Y-93063009D01*
X145023386Y-93061635D01*
X144981618Y-93059655D01*
X144949294Y-93057069D01*
X144928880Y-93053874D01*
X144925170Y-93052684D01*
X144910549Y-93043068D01*
X144888155Y-93024197D01*
X144860192Y-92998336D01*
X144828862Y-92967749D01*
X144796368Y-92934703D01*
X144764914Y-92901462D01*
X144736702Y-92870293D01*
X144713935Y-92843461D01*
X144698817Y-92823231D01*
X144694404Y-92815375D01*
X144692119Y-92802253D01*
X144690070Y-92775392D01*
X144688257Y-92736292D01*
X144686681Y-92686453D01*
X144685342Y-92627374D01*
X144684239Y-92560556D01*
X144683373Y-92487497D01*
X144682744Y-92409698D01*
X144682351Y-92328658D01*
X144682194Y-92245877D01*
X144682275Y-92162854D01*
X144682591Y-92081089D01*
X144683145Y-92002082D01*
X144683935Y-91927333D01*
X144684961Y-91858340D01*
X144686224Y-91796604D01*
X144687724Y-91743625D01*
X144689460Y-91700901D01*
X144691433Y-91669933D01*
X144693642Y-91652221D01*
X144694404Y-91649585D01*
X144704040Y-91634256D01*
X144722609Y-91611002D01*
X144747910Y-91582089D01*
X144777739Y-91549783D01*
X144809894Y-91516348D01*
X144842171Y-91484050D01*
X144872367Y-91455155D01*
X144898280Y-91431928D01*
X144917706Y-91416635D01*
X144925170Y-91412276D01*
X144941101Y-91408881D01*
X144969757Y-91406093D01*
X145008674Y-91403913D01*
X145055382Y-91402339D01*
X145107415Y-91401369D01*
X145162307Y-91401001D01*
X145217589Y-91401235D01*
X145270794Y-91402068D01*
X145319456Y-91403500D01*
X145361107Y-91405529D01*
X145393281Y-91408153D01*
X145413509Y-91411372D01*
X145417150Y-91412567D01*
X145427514Y-91420079D01*
X145447362Y-91437309D01*
X145475490Y-91463112D01*
X145510695Y-91496343D01*
X145551772Y-91535855D01*
X145597517Y-91580504D01*
X145646727Y-91629144D01*
X145685465Y-91667837D01*
X145929261Y-91912440D01*
X145971311Y-91912440D01*
X146013361Y-91912440D01*
X146125920Y-91799692D01*
X146238480Y-91686945D01*
X146226314Y-91657827D01*
X146215577Y-91615661D01*
X146214378Y-91567810D01*
X146222440Y-91520244D01*
X146234195Y-91488756D01*
X146265079Y-91440620D01*
X146306527Y-91397667D01*
X146353901Y-91364569D01*
X146361217Y-91360751D01*
X146410737Y-91344102D01*
X146464213Y-91339956D01*
X146516887Y-91348315D01*
X146549043Y-91360751D01*
X146593471Y-91389297D01*
X146633961Y-91427123D01*
X146665706Y-91469484D01*
X146673452Y-91483663D01*
X146683498Y-91507926D01*
X146689052Y-91533259D01*
X146691201Y-91565559D01*
X146691350Y-91580970D01*
X146687866Y-91630951D01*
X146676083Y-91672444D01*
X146654006Y-91710189D01*
X146621366Y-91747206D01*
X146574104Y-91785813D01*
X146527520Y-91808034D01*
X146527520Y-91580970D01*
X146524454Y-91546775D01*
X146513885Y-91524718D01*
X146493762Y-91512703D01*
X146462031Y-91508635D01*
X146456586Y-91508580D01*
X146430931Y-91510355D01*
X146410102Y-91514888D01*
X146402828Y-91518309D01*
X146389607Y-91536305D01*
X146382627Y-91562851D01*
X146381897Y-91592627D01*
X146387428Y-91620310D01*
X146399228Y-91640577D01*
X146402597Y-91643463D01*
X146422703Y-91651246D01*
X146450209Y-91653796D01*
X146478980Y-91651409D01*
X146502880Y-91644386D01*
X146512280Y-91638120D01*
X146522135Y-91623436D01*
X146526735Y-91601979D01*
X146527520Y-91580970D01*
X146527520Y-91808034D01*
X146523808Y-91809805D01*
X146474594Y-91819346D01*
X146432270Y-91822509D01*
X146276060Y-91977600D01*
X146235079Y-92017836D01*
X146196617Y-92054749D01*
X146162256Y-92086885D01*
X146133578Y-92112793D01*
X146112163Y-92131023D01*
X146099594Y-92140121D01*
X146098399Y-92140675D01*
X146079362Y-92144570D01*
X146049132Y-92147197D01*
X146011425Y-92148594D01*
X145969957Y-92148801D01*
X145928445Y-92147855D01*
X145890604Y-92145795D01*
X145860150Y-92142659D01*
X145840800Y-92138487D01*
X145839570Y-92137993D01*
X145829206Y-92130481D01*
X145809358Y-92113251D01*
X145781230Y-92087448D01*
X145746025Y-92054217D01*
X145704948Y-92014705D01*
X145659203Y-91970056D01*
X145609993Y-91921416D01*
X145571255Y-91882723D01*
X145327459Y-91638120D01*
X145174810Y-91638120D01*
X145022161Y-91638120D01*
X144970931Y-91689746D01*
X144919700Y-91741372D01*
X144919700Y-91914536D01*
X144919700Y-92087700D01*
X145070195Y-92087678D01*
X145220690Y-92087656D01*
X145235930Y-92064341D01*
X145255326Y-92041837D01*
X145283717Y-92017345D01*
X145316041Y-91994762D01*
X145347237Y-91977986D01*
X145349163Y-91977165D01*
X145388013Y-91967310D01*
X145433431Y-91965551D01*
X145479267Y-91971586D01*
X145519371Y-91985112D01*
X145520343Y-91985591D01*
X145564771Y-92014137D01*
X145605261Y-92051963D01*
X145637006Y-92094324D01*
X145644752Y-92108503D01*
X145658040Y-92148748D01*
X145663602Y-92195914D01*
X145661414Y-92244093D01*
X145651454Y-92287378D01*
X145645505Y-92301562D01*
X145622011Y-92338149D01*
X145589355Y-92374619D01*
X145552561Y-92405954D01*
X145522182Y-92424616D01*
X145498820Y-92432398D01*
X145498820Y-92205810D01*
X145495754Y-92171615D01*
X145485185Y-92149558D01*
X145465062Y-92137543D01*
X145433331Y-92133475D01*
X145427886Y-92133420D01*
X145402231Y-92135195D01*
X145381402Y-92139728D01*
X145374128Y-92143149D01*
X145360907Y-92161145D01*
X145353927Y-92187691D01*
X145353197Y-92217467D01*
X145358728Y-92245150D01*
X145370528Y-92265417D01*
X145373897Y-92268303D01*
X145394003Y-92276086D01*
X145421509Y-92278636D01*
X145450280Y-92276249D01*
X145474180Y-92269226D01*
X145483580Y-92262960D01*
X145493435Y-92248276D01*
X145498035Y-92226819D01*
X145498820Y-92205810D01*
X145498820Y-92432398D01*
X145479263Y-92438912D01*
X145430660Y-92444798D01*
X145383111Y-92441826D01*
X145357800Y-92435572D01*
X145322860Y-92419662D01*
X145287246Y-92396849D01*
X145256185Y-92370921D01*
X145235930Y-92347279D01*
X145220690Y-92323964D01*
X145070195Y-92323942D01*
X144919700Y-92323920D01*
X144919700Y-92524149D01*
X144919700Y-92724379D01*
X144971326Y-92775609D01*
X145022952Y-92826840D01*
X145175206Y-92826840D01*
X145327459Y-92826840D01*
X145571255Y-92582237D01*
X145622283Y-92531341D01*
X145670757Y-92483572D01*
X145715472Y-92440073D01*
X145755224Y-92401991D01*
X145788809Y-92370471D01*
X145815024Y-92346659D01*
X145832663Y-92331700D01*
X145839570Y-92326967D01*
X145859377Y-92322076D01*
X145890554Y-92318587D01*
X145929296Y-92316500D01*
X145971795Y-92315815D01*
X146014248Y-92316532D01*
X146052849Y-92318652D01*
X146083791Y-92322174D01*
X146102950Y-92326957D01*
X146114620Y-92335043D01*
X146135292Y-92352536D01*
X146163337Y-92377926D01*
X146197123Y-92409701D01*
X146235021Y-92446352D01*
X146275398Y-92486368D01*
X146279799Y-92490787D01*
X146432127Y-92643960D01*
X146470707Y-92643960D01*
X146515054Y-92650929D01*
X146560370Y-92670360D01*
X146603514Y-92700042D01*
X146641342Y-92737763D01*
X146670713Y-92781309D01*
X146673452Y-92786683D01*
X146686740Y-92826928D01*
X146692302Y-92874094D01*
G36*
X144575057Y-92859021D02*
G01*
X144574454Y-92907796D01*
X144565170Y-92954946D01*
X144555576Y-92979742D01*
X144532415Y-93016127D01*
X144499912Y-93052594D01*
X144463084Y-93084112D01*
X144432522Y-93103065D01*
X144409160Y-93110681D01*
X144409160Y-92883990D01*
X144406093Y-92849795D01*
X144395525Y-92827738D01*
X144375402Y-92815723D01*
X144343671Y-92811655D01*
X144338226Y-92811600D01*
X144312571Y-92813375D01*
X144291742Y-92817908D01*
X144284468Y-92821329D01*
X144271247Y-92839325D01*
X144264267Y-92865871D01*
X144263537Y-92895647D01*
X144269068Y-92923330D01*
X144280868Y-92943597D01*
X144284238Y-92946483D01*
X144304343Y-92954266D01*
X144331849Y-92956816D01*
X144360620Y-92954429D01*
X144384520Y-92947406D01*
X144393920Y-92941140D01*
X144403775Y-92926456D01*
X144408375Y-92904999D01*
X144409160Y-92883990D01*
X144409160Y-93110681D01*
X144392719Y-93116041D01*
X144345735Y-93121235D01*
X144297475Y-93118672D01*
X144253850Y-93108373D01*
X144239463Y-93102312D01*
X144196301Y-93074247D01*
X144156304Y-93035753D01*
X144124119Y-92991570D01*
X144115835Y-92976204D01*
X144101288Y-92933365D01*
X144095474Y-92885759D01*
X144098683Y-92839372D01*
X144107649Y-92807862D01*
X144124220Y-92776163D01*
X144146769Y-92743285D01*
X144171444Y-92714253D01*
X144194396Y-92694092D01*
X144195301Y-92693490D01*
X144218616Y-92678250D01*
X144218638Y-92158185D01*
X144218660Y-91638120D01*
X144186219Y-91638120D01*
X144177486Y-91638327D01*
X144169286Y-91639644D01*
X144160402Y-91643112D01*
X144149618Y-91649775D01*
X144135714Y-91660673D01*
X144117476Y-91676850D01*
X144093683Y-91699347D01*
X144063121Y-91729208D01*
X144024571Y-91767473D01*
X143976816Y-91815186D01*
X143961429Y-91830580D01*
X143769080Y-92023040D01*
X143769102Y-92095375D01*
X143769267Y-92128999D01*
X143770354Y-92150842D01*
X143773283Y-92164361D01*
X143778977Y-92173015D01*
X143788356Y-92180263D01*
X143792439Y-92182950D01*
X143817862Y-92205062D01*
X143843698Y-92236597D01*
X143866162Y-92272331D01*
X143880732Y-92304820D01*
X143889257Y-92348481D01*
X143888654Y-92397256D01*
X143879370Y-92444406D01*
X143869776Y-92469202D01*
X143846615Y-92505587D01*
X143814112Y-92542053D01*
X143777284Y-92573572D01*
X143746722Y-92592524D01*
X143723360Y-92600141D01*
X143723360Y-92373450D01*
X143720293Y-92339255D01*
X143709725Y-92317198D01*
X143689602Y-92305183D01*
X143657871Y-92301115D01*
X143652426Y-92301060D01*
X143626771Y-92302835D01*
X143605942Y-92307368D01*
X143598668Y-92310789D01*
X143585447Y-92328785D01*
X143578467Y-92355331D01*
X143577737Y-92385107D01*
X143583268Y-92412790D01*
X143595068Y-92433057D01*
X143598438Y-92435943D01*
X143618543Y-92443726D01*
X143646049Y-92446276D01*
X143674820Y-92443889D01*
X143698720Y-92436866D01*
X143708120Y-92430600D01*
X143717975Y-92415916D01*
X143722575Y-92394459D01*
X143723360Y-92373450D01*
X143723360Y-92600141D01*
X143706919Y-92605501D01*
X143659935Y-92610695D01*
X143611675Y-92608132D01*
X143568050Y-92597833D01*
X143553664Y-92591772D01*
X143510501Y-92563707D01*
X143470504Y-92525213D01*
X143438319Y-92481030D01*
X143430035Y-92465664D01*
X143415488Y-92422825D01*
X143409674Y-92375219D01*
X143412883Y-92328832D01*
X143421849Y-92297322D01*
X143438420Y-92265623D01*
X143460969Y-92232745D01*
X143485644Y-92203713D01*
X143508596Y-92183552D01*
X143509501Y-92182950D01*
X143520306Y-92175405D01*
X143527120Y-92167600D01*
X143530864Y-92156078D01*
X143532460Y-92137379D01*
X143532828Y-92108046D01*
X143532838Y-92095375D01*
X143532860Y-92023040D01*
X143340511Y-91830580D01*
X143289924Y-91779999D01*
X143248887Y-91739160D01*
X143216183Y-91707022D01*
X143190594Y-91682543D01*
X143170904Y-91664679D01*
X143155895Y-91652390D01*
X143144350Y-91644632D01*
X143135051Y-91640364D01*
X143126781Y-91638543D01*
X143118323Y-91638127D01*
X143115721Y-91638120D01*
X143083280Y-91638120D01*
X143083302Y-92158185D01*
X143083324Y-92678250D01*
X143106639Y-92693490D01*
X143132062Y-92715602D01*
X143157898Y-92747137D01*
X143180362Y-92782871D01*
X143194932Y-92815360D01*
X143203457Y-92859021D01*
X143202854Y-92907796D01*
X143193570Y-92954946D01*
X143183976Y-92979742D01*
X143160756Y-93016213D01*
X143128205Y-93052694D01*
X143091367Y-93084136D01*
X143060922Y-93102900D01*
X143037560Y-93110751D01*
X143037560Y-92883990D01*
X143034493Y-92849795D01*
X143023925Y-92827738D01*
X143003802Y-92815723D01*
X142972071Y-92811655D01*
X142966626Y-92811600D01*
X142940971Y-92813375D01*
X142920142Y-92817908D01*
X142912868Y-92821329D01*
X142899647Y-92839325D01*
X142892667Y-92865871D01*
X142891937Y-92895647D01*
X142897468Y-92923330D01*
X142909268Y-92943597D01*
X142912638Y-92946483D01*
X142932743Y-92954266D01*
X142960249Y-92956816D01*
X142989020Y-92954429D01*
X143012920Y-92947406D01*
X143022320Y-92941140D01*
X143032175Y-92926456D01*
X143036775Y-92904999D01*
X143037560Y-92883990D01*
X143037560Y-93110751D01*
X143025292Y-93114874D01*
X142982536Y-93121290D01*
X142938917Y-93121784D01*
X142900697Y-93115993D01*
X142890674Y-93112770D01*
X142840807Y-93086326D01*
X142795449Y-93048044D01*
X142758000Y-93001288D01*
X142735823Y-92959577D01*
X142727731Y-92928138D01*
X142724648Y-92889049D01*
X142726564Y-92849051D01*
X142733468Y-92814885D01*
X142736049Y-92807862D01*
X142752620Y-92776163D01*
X142775169Y-92743285D01*
X142799844Y-92714253D01*
X142822796Y-92694092D01*
X142823701Y-92693490D01*
X142847016Y-92678250D01*
X142847038Y-92040075D01*
X142847060Y-91401900D01*
X143029444Y-91401900D01*
X143088251Y-91402240D01*
X143139650Y-91403214D01*
X143181798Y-91404748D01*
X143212855Y-91406771D01*
X143230979Y-91409211D01*
X143233279Y-91409880D01*
X143243473Y-91416977D01*
X143263018Y-91433654D01*
X143290561Y-91458643D01*
X143324748Y-91490674D01*
X143364224Y-91528481D01*
X143407637Y-91570795D01*
X143452904Y-91615621D01*
X143651079Y-91813383D01*
X143845335Y-91618304D01*
X143890938Y-91572887D01*
X143934097Y-91530625D01*
X143973422Y-91492823D01*
X144007523Y-91460791D01*
X144035009Y-91435835D01*
X144054491Y-91419264D01*
X144064110Y-91412563D01*
X144076272Y-91408940D01*
X144095130Y-91406172D01*
X144122393Y-91404172D01*
X144159768Y-91402852D01*
X144208961Y-91402123D01*
X144271679Y-91401900D01*
X144271755Y-91401900D01*
X144454880Y-91401900D01*
X144454902Y-92040075D01*
X144454924Y-92678250D01*
X144478239Y-92693490D01*
X144503662Y-92715602D01*
X144529498Y-92747137D01*
X144551962Y-92782871D01*
X144566532Y-92815360D01*
X144575057Y-92859021D01*
X144575057Y-92859021D01*
G37*
X144575057Y-92859021D02*
X144574454Y-92907796D01*
X144565170Y-92954946D01*
X144555576Y-92979742D01*
X144532415Y-93016127D01*
X144499912Y-93052594D01*
X144463084Y-93084112D01*
X144432522Y-93103065D01*
X144409160Y-93110681D01*
X144409160Y-92883990D01*
X144406093Y-92849795D01*
X144395525Y-92827738D01*
X144375402Y-92815723D01*
X144343671Y-92811655D01*
X144338226Y-92811600D01*
X144312571Y-92813375D01*
X144291742Y-92817908D01*
X144284468Y-92821329D01*
X144271247Y-92839325D01*
X144264267Y-92865871D01*
X144263537Y-92895647D01*
X144269068Y-92923330D01*
X144280868Y-92943597D01*
X144284238Y-92946483D01*
X144304343Y-92954266D01*
X144331849Y-92956816D01*
X144360620Y-92954429D01*
X144384520Y-92947406D01*
X144393920Y-92941140D01*
X144403775Y-92926456D01*
X144408375Y-92904999D01*
X144409160Y-92883990D01*
X144409160Y-93110681D01*
X144392719Y-93116041D01*
X144345735Y-93121235D01*
X144297475Y-93118672D01*
X144253850Y-93108373D01*
X144239463Y-93102312D01*
X144196301Y-93074247D01*
X144156304Y-93035753D01*
X144124119Y-92991570D01*
X144115835Y-92976204D01*
X144101288Y-92933365D01*
X144095474Y-92885759D01*
X144098683Y-92839372D01*
X144107649Y-92807862D01*
X144124220Y-92776163D01*
X144146769Y-92743285D01*
X144171444Y-92714253D01*
X144194396Y-92694092D01*
X144195301Y-92693490D01*
X144218616Y-92678250D01*
X144218638Y-92158185D01*
X144218660Y-91638120D01*
X144186219Y-91638120D01*
X144177486Y-91638327D01*
X144169286Y-91639644D01*
X144160402Y-91643112D01*
X144149618Y-91649775D01*
X144135714Y-91660673D01*
X144117476Y-91676850D01*
X144093683Y-91699347D01*
X144063121Y-91729208D01*
X144024571Y-91767473D01*
X143976816Y-91815186D01*
X143961429Y-91830580D01*
X143769080Y-92023040D01*
X143769102Y-92095375D01*
X143769267Y-92128999D01*
X143770354Y-92150842D01*
X143773283Y-92164361D01*
X143778977Y-92173015D01*
X143788356Y-92180263D01*
X143792439Y-92182950D01*
X143817862Y-92205062D01*
X143843698Y-92236597D01*
X143866162Y-92272331D01*
X143880732Y-92304820D01*
X143889257Y-92348481D01*
X143888654Y-92397256D01*
X143879370Y-92444406D01*
X143869776Y-92469202D01*
X143846615Y-92505587D01*
X143814112Y-92542053D01*
X143777284Y-92573572D01*
X143746722Y-92592524D01*
X143723360Y-92600141D01*
X143723360Y-92373450D01*
X143720293Y-92339255D01*
X143709725Y-92317198D01*
X143689602Y-92305183D01*
X143657871Y-92301115D01*
X143652426Y-92301060D01*
X143626771Y-92302835D01*
X143605942Y-92307368D01*
X143598668Y-92310789D01*
X143585447Y-92328785D01*
X143578467Y-92355331D01*
X143577737Y-92385107D01*
X143583268Y-92412790D01*
X143595068Y-92433057D01*
X143598438Y-92435943D01*
X143618543Y-92443726D01*
X143646049Y-92446276D01*
X143674820Y-92443889D01*
X143698720Y-92436866D01*
X143708120Y-92430600D01*
X143717975Y-92415916D01*
X143722575Y-92394459D01*
X143723360Y-92373450D01*
X143723360Y-92600141D01*
X143706919Y-92605501D01*
X143659935Y-92610695D01*
X143611675Y-92608132D01*
X143568050Y-92597833D01*
X143553664Y-92591772D01*
X143510501Y-92563707D01*
X143470504Y-92525213D01*
X143438319Y-92481030D01*
X143430035Y-92465664D01*
X143415488Y-92422825D01*
X143409674Y-92375219D01*
X143412883Y-92328832D01*
X143421849Y-92297322D01*
X143438420Y-92265623D01*
X143460969Y-92232745D01*
X143485644Y-92203713D01*
X143508596Y-92183552D01*
X143509501Y-92182950D01*
X143520306Y-92175405D01*
X143527120Y-92167600D01*
X143530864Y-92156078D01*
X143532460Y-92137379D01*
X143532828Y-92108046D01*
X143532838Y-92095375D01*
X143532860Y-92023040D01*
X143340511Y-91830580D01*
X143289924Y-91779999D01*
X143248887Y-91739160D01*
X143216183Y-91707022D01*
X143190594Y-91682543D01*
X143170904Y-91664679D01*
X143155895Y-91652390D01*
X143144350Y-91644632D01*
X143135051Y-91640364D01*
X143126781Y-91638543D01*
X143118323Y-91638127D01*
X143115721Y-91638120D01*
X143083280Y-91638120D01*
X143083302Y-92158185D01*
X143083324Y-92678250D01*
X143106639Y-92693490D01*
X143132062Y-92715602D01*
X143157898Y-92747137D01*
X143180362Y-92782871D01*
X143194932Y-92815360D01*
X143203457Y-92859021D01*
X143202854Y-92907796D01*
X143193570Y-92954946D01*
X143183976Y-92979742D01*
X143160756Y-93016213D01*
X143128205Y-93052694D01*
X143091367Y-93084136D01*
X143060922Y-93102900D01*
X143037560Y-93110751D01*
X143037560Y-92883990D01*
X143034493Y-92849795D01*
X143023925Y-92827738D01*
X143003802Y-92815723D01*
X142972071Y-92811655D01*
X142966626Y-92811600D01*
X142940971Y-92813375D01*
X142920142Y-92817908D01*
X142912868Y-92821329D01*
X142899647Y-92839325D01*
X142892667Y-92865871D01*
X142891937Y-92895647D01*
X142897468Y-92923330D01*
X142909268Y-92943597D01*
X142912638Y-92946483D01*
X142932743Y-92954266D01*
X142960249Y-92956816D01*
X142989020Y-92954429D01*
X143012920Y-92947406D01*
X143022320Y-92941140D01*
X143032175Y-92926456D01*
X143036775Y-92904999D01*
X143037560Y-92883990D01*
X143037560Y-93110751D01*
X143025292Y-93114874D01*
X142982536Y-93121290D01*
X142938917Y-93121784D01*
X142900697Y-93115993D01*
X142890674Y-93112770D01*
X142840807Y-93086326D01*
X142795449Y-93048044D01*
X142758000Y-93001288D01*
X142735823Y-92959577D01*
X142727731Y-92928138D01*
X142724648Y-92889049D01*
X142726564Y-92849051D01*
X142733468Y-92814885D01*
X142736049Y-92807862D01*
X142752620Y-92776163D01*
X142775169Y-92743285D01*
X142799844Y-92714253D01*
X142822796Y-92694092D01*
X142823701Y-92693490D01*
X142847016Y-92678250D01*
X142847038Y-92040075D01*
X142847060Y-91401900D01*
X143029444Y-91401900D01*
X143088251Y-91402240D01*
X143139650Y-91403214D01*
X143181798Y-91404748D01*
X143212855Y-91406771D01*
X143230979Y-91409211D01*
X143233279Y-91409880D01*
X143243473Y-91416977D01*
X143263018Y-91433654D01*
X143290561Y-91458643D01*
X143324748Y-91490674D01*
X143364224Y-91528481D01*
X143407637Y-91570795D01*
X143452904Y-91615621D01*
X143651079Y-91813383D01*
X143845335Y-91618304D01*
X143890938Y-91572887D01*
X143934097Y-91530625D01*
X143973422Y-91492823D01*
X144007523Y-91460791D01*
X144035009Y-91435835D01*
X144054491Y-91419264D01*
X144064110Y-91412563D01*
X144076272Y-91408940D01*
X144095130Y-91406172D01*
X144122393Y-91404172D01*
X144159768Y-91402852D01*
X144208961Y-91402123D01*
X144271679Y-91401900D01*
X144271755Y-91401900D01*
X144454880Y-91401900D01*
X144454902Y-92040075D01*
X144454924Y-92678250D01*
X144478239Y-92693490D01*
X144503662Y-92715602D01*
X144529498Y-92747137D01*
X144551962Y-92782871D01*
X144566532Y-92815360D01*
X144575057Y-92859021D01*
G36*
X142630842Y-92874094D02*
G01*
X142628654Y-92922273D01*
X142618694Y-92965558D01*
X142612745Y-92979742D01*
X142589207Y-93016381D01*
X142556461Y-93052932D01*
X142519560Y-93084350D01*
X142489422Y-93102900D01*
X142466060Y-93110740D01*
X142466060Y-92883990D01*
X142462993Y-92849795D01*
X142452425Y-92827738D01*
X142432302Y-92815723D01*
X142400571Y-92811655D01*
X142395126Y-92811600D01*
X142369471Y-92813375D01*
X142348642Y-92817908D01*
X142341368Y-92821329D01*
X142328147Y-92839325D01*
X142321167Y-92865871D01*
X142320437Y-92895647D01*
X142325968Y-92923330D01*
X142337768Y-92943597D01*
X142341138Y-92946483D01*
X142361243Y-92954266D01*
X142388749Y-92956816D01*
X142417520Y-92954429D01*
X142441420Y-92947406D01*
X142450820Y-92941140D01*
X142460675Y-92926456D01*
X142465275Y-92904999D01*
X142466060Y-92883990D01*
X142466060Y-93110740D01*
X142453446Y-93114973D01*
X142410351Y-93121359D01*
X142366433Y-93121700D01*
X142327990Y-93115637D01*
X142318730Y-93112617D01*
X142287232Y-93097013D01*
X142254103Y-93074825D01*
X142224560Y-93049987D01*
X142203817Y-93026432D01*
X142203170Y-93025459D01*
X142187930Y-93002144D01*
X142025760Y-93002122D01*
X141966492Y-93001844D01*
X141920586Y-93000956D01*
X141886176Y-92999349D01*
X141861391Y-92996914D01*
X141844363Y-92993544D01*
X141837445Y-92991176D01*
X141822116Y-92981540D01*
X141798862Y-92962971D01*
X141769949Y-92937670D01*
X141737643Y-92907840D01*
X141704208Y-92875686D01*
X141671910Y-92843409D01*
X141643015Y-92813213D01*
X141619788Y-92787300D01*
X141604495Y-92767874D01*
X141600136Y-92760410D01*
X141598273Y-92753664D01*
X141596637Y-92742195D01*
X141595213Y-92725117D01*
X141593988Y-92701543D01*
X141592951Y-92670586D01*
X141592086Y-92631358D01*
X141591381Y-92582974D01*
X141590822Y-92524546D01*
X141590397Y-92455186D01*
X141590091Y-92374009D01*
X141589892Y-92280128D01*
X141589787Y-92172654D01*
X141589760Y-92068895D01*
X141589760Y-91401900D01*
X141707870Y-91401900D01*
X141825980Y-91401900D01*
X141825980Y-92032659D01*
X141825980Y-92663419D01*
X141877606Y-92714649D01*
X141929232Y-92765880D01*
X142058581Y-92765858D01*
X142187930Y-92765836D01*
X142203170Y-92742521D01*
X142222566Y-92720018D01*
X142250957Y-92695525D01*
X142283281Y-92672942D01*
X142314477Y-92656166D01*
X142316403Y-92655345D01*
X142355253Y-92645490D01*
X142400671Y-92643731D01*
X142446507Y-92649766D01*
X142486611Y-92663292D01*
X142487583Y-92663771D01*
X142532011Y-92692317D01*
X142572501Y-92730143D01*
X142604246Y-92772504D01*
X142611992Y-92786683D01*
X142625280Y-92826928D01*
X142630842Y-92874094D01*
X142630842Y-92874094D01*
G37*
X142630842Y-92874094D02*
X142628654Y-92922273D01*
X142618694Y-92965558D01*
X142612745Y-92979742D01*
X142589207Y-93016381D01*
X142556461Y-93052932D01*
X142519560Y-93084350D01*
X142489422Y-93102900D01*
X142466060Y-93110740D01*
X142466060Y-92883990D01*
X142462993Y-92849795D01*
X142452425Y-92827738D01*
X142432302Y-92815723D01*
X142400571Y-92811655D01*
X142395126Y-92811600D01*
X142369471Y-92813375D01*
X142348642Y-92817908D01*
X142341368Y-92821329D01*
X142328147Y-92839325D01*
X142321167Y-92865871D01*
X142320437Y-92895647D01*
X142325968Y-92923330D01*
X142337768Y-92943597D01*
X142341138Y-92946483D01*
X142361243Y-92954266D01*
X142388749Y-92956816D01*
X142417520Y-92954429D01*
X142441420Y-92947406D01*
X142450820Y-92941140D01*
X142460675Y-92926456D01*
X142465275Y-92904999D01*
X142466060Y-92883990D01*
X142466060Y-93110740D01*
X142453446Y-93114973D01*
X142410351Y-93121359D01*
X142366433Y-93121700D01*
X142327990Y-93115637D01*
X142318730Y-93112617D01*
X142287232Y-93097013D01*
X142254103Y-93074825D01*
X142224560Y-93049987D01*
X142203817Y-93026432D01*
X142203170Y-93025459D01*
X142187930Y-93002144D01*
X142025760Y-93002122D01*
X141966492Y-93001844D01*
X141920586Y-93000956D01*
X141886176Y-92999349D01*
X141861391Y-92996914D01*
X141844363Y-92993544D01*
X141837445Y-92991176D01*
X141822116Y-92981540D01*
X141798862Y-92962971D01*
X141769949Y-92937670D01*
X141737643Y-92907840D01*
X141704208Y-92875686D01*
X141671910Y-92843409D01*
X141643015Y-92813213D01*
X141619788Y-92787300D01*
X141604495Y-92767874D01*
X141600136Y-92760410D01*
X141598273Y-92753664D01*
X141596637Y-92742195D01*
X141595213Y-92725117D01*
X141593988Y-92701543D01*
X141592951Y-92670586D01*
X141592086Y-92631358D01*
X141591381Y-92582974D01*
X141590822Y-92524546D01*
X141590397Y-92455186D01*
X141590091Y-92374009D01*
X141589892Y-92280128D01*
X141589787Y-92172654D01*
X141589760Y-92068895D01*
X141589760Y-91401900D01*
X141707870Y-91401900D01*
X141825980Y-91401900D01*
X141825980Y-92032659D01*
X141825980Y-92663419D01*
X141877606Y-92714649D01*
X141929232Y-92765880D01*
X142058581Y-92765858D01*
X142187930Y-92765836D01*
X142203170Y-92742521D01*
X142222566Y-92720018D01*
X142250957Y-92695525D01*
X142283281Y-92672942D01*
X142314477Y-92656166D01*
X142316403Y-92655345D01*
X142355253Y-92645490D01*
X142400671Y-92643731D01*
X142446507Y-92649766D01*
X142486611Y-92663292D01*
X142487583Y-92663771D01*
X142532011Y-92692317D01*
X142572501Y-92730143D01*
X142604246Y-92772504D01*
X142611992Y-92786683D01*
X142625280Y-92826928D01*
X142630842Y-92874094D01*
D20*
X154630966Y-112697985D02*
X154600728Y-112728223D01*
X154510014Y-112758461D01*
X154449538Y-112758461D01*
X154358823Y-112728223D01*
X154298347Y-112667747D01*
X154268109Y-112607271D01*
X154237871Y-112486319D01*
X154237871Y-112395604D01*
X154268109Y-112274652D01*
X154298347Y-112214176D01*
X154358823Y-112153700D01*
X154449538Y-112123461D01*
X154510014Y-112123461D01*
X154600728Y-112153700D01*
X154630966Y-112183938D01*
X155235728Y-112758461D02*
X154872871Y-112758461D01*
X155054300Y-112758461D02*
X155054300Y-112123461D01*
X154993823Y-112214176D01*
X154933347Y-112274652D01*
X154872871Y-112304890D01*
D13*
X134057571Y-100801714D02*
X134057571Y-100039714D01*
X134239000Y-100039714D01*
X134347857Y-100076000D01*
X134420428Y-100148571D01*
X134456714Y-100221142D01*
X134493000Y-100366285D01*
X134493000Y-100475142D01*
X134456714Y-100620285D01*
X134420428Y-100692857D01*
X134347857Y-100765428D01*
X134239000Y-100801714D01*
X134057571Y-100801714D01*
X135182428Y-100039714D02*
X134819571Y-100039714D01*
X134783285Y-100402571D01*
X134819571Y-100366285D01*
X134892142Y-100330000D01*
X135073571Y-100330000D01*
X135146142Y-100366285D01*
X135182428Y-100402571D01*
X135218714Y-100475142D01*
X135218714Y-100656571D01*
X135182428Y-100729142D01*
X135146142Y-100765428D01*
X135073571Y-100801714D01*
X134892142Y-100801714D01*
X134819571Y-100765428D01*
X134783285Y-100729142D01*
X143564428Y-109310714D02*
X143564428Y-109927571D01*
X143600714Y-110000142D01*
X143637000Y-110036428D01*
X143709571Y-110072714D01*
X143854714Y-110072714D01*
X143927285Y-110036428D01*
X143963571Y-110000142D01*
X143999857Y-109927571D01*
X143999857Y-109310714D01*
X144326428Y-109383285D02*
X144362714Y-109347000D01*
X144435285Y-109310714D01*
X144616714Y-109310714D01*
X144689285Y-109347000D01*
X144725571Y-109383285D01*
X144761857Y-109455857D01*
X144761857Y-109528428D01*
X144725571Y-109637285D01*
X144290142Y-110072714D01*
X144761857Y-110072714D01*
D15*
X154567466Y-107255733D02*
X154533600Y-107323466D01*
X154465866Y-107391200D01*
X154364266Y-107492800D01*
X154330400Y-107560533D01*
X154330400Y-107628266D01*
X154499733Y-107594400D02*
X154465866Y-107662133D01*
X154398133Y-107729866D01*
X154262666Y-107763733D01*
X154025600Y-107763733D01*
X153890133Y-107729866D01*
X153822400Y-107662133D01*
X153788533Y-107594400D01*
X153788533Y-107458933D01*
X153822400Y-107391200D01*
X153890133Y-107323466D01*
X154025600Y-107289600D01*
X154262666Y-107289600D01*
X154398133Y-107323466D01*
X154465866Y-107391200D01*
X154499733Y-107458933D01*
X154499733Y-107594400D01*
X153788533Y-107052533D02*
X153788533Y-106612266D01*
X154059466Y-106849333D01*
X154059466Y-106747733D01*
X154093333Y-106680000D01*
X154127200Y-106646133D01*
X154194933Y-106612266D01*
X154364266Y-106612266D01*
X154432000Y-106646133D01*
X154465866Y-106680000D01*
X154499733Y-106747733D01*
X154499733Y-106950933D01*
X154465866Y-107018666D01*
X154432000Y-107052533D01*
X147582466Y-105807933D02*
X147345400Y-105469266D01*
X147176066Y-105807933D02*
X147176066Y-105096733D01*
X147447000Y-105096733D01*
X147514733Y-105130600D01*
X147548600Y-105164466D01*
X147582466Y-105232200D01*
X147582466Y-105333800D01*
X147548600Y-105401533D01*
X147514733Y-105435400D01*
X147447000Y-105469266D01*
X147176066Y-105469266D01*
X147921133Y-105807933D02*
X148056600Y-105807933D01*
X148124333Y-105774066D01*
X148158200Y-105740200D01*
X148225933Y-105638600D01*
X148259800Y-105503133D01*
X148259800Y-105232200D01*
X148225933Y-105164466D01*
X148192066Y-105130600D01*
X148124333Y-105096733D01*
X147988866Y-105096733D01*
X147921133Y-105130600D01*
X147887266Y-105164466D01*
X147853400Y-105232200D01*
X147853400Y-105401533D01*
X147887266Y-105469266D01*
X147921133Y-105503133D01*
X147988866Y-105537000D01*
X148124333Y-105537000D01*
X148192066Y-105503133D01*
X148225933Y-105469266D01*
X148259800Y-105401533D01*
D13*
X137105571Y-100801714D02*
X137105571Y-100039714D01*
X137287000Y-100039714D01*
X137395857Y-100076000D01*
X137468428Y-100148571D01*
X137504714Y-100221142D01*
X137541000Y-100366285D01*
X137541000Y-100475142D01*
X137504714Y-100620285D01*
X137468428Y-100692857D01*
X137395857Y-100765428D01*
X137287000Y-100801714D01*
X137105571Y-100801714D01*
X138194142Y-100293714D02*
X138194142Y-100801714D01*
X138012714Y-100003428D02*
X137831285Y-100547714D01*
X138303000Y-100547714D01*
X139319000Y-108095142D02*
X139282714Y-108131428D01*
X139173857Y-108167714D01*
X139101285Y-108167714D01*
X138992428Y-108131428D01*
X138919857Y-108058857D01*
X138883571Y-107986285D01*
X138847285Y-107841142D01*
X138847285Y-107732285D01*
X138883571Y-107587142D01*
X138919857Y-107514571D01*
X138992428Y-107442000D01*
X139101285Y-107405714D01*
X139173857Y-107405714D01*
X139282714Y-107442000D01*
X139319000Y-107478285D01*
X139972142Y-107659714D02*
X139972142Y-108167714D01*
X139790714Y-107369428D02*
X139609285Y-107913714D01*
X140081000Y-107913714D01*
D15*
X141486466Y-104969733D02*
X141249400Y-104631066D01*
X141080066Y-104969733D02*
X141080066Y-104258533D01*
X141351000Y-104258533D01*
X141418733Y-104292400D01*
X141452600Y-104326266D01*
X141486466Y-104394000D01*
X141486466Y-104495600D01*
X141452600Y-104563333D01*
X141418733Y-104597200D01*
X141351000Y-104631066D01*
X141080066Y-104631066D01*
X141723533Y-104258533D02*
X142197666Y-104258533D01*
X141892866Y-104969733D01*
D13*
X132642428Y-72353714D02*
X132642428Y-72970571D01*
X132678714Y-73043142D01*
X132715000Y-73079428D01*
X132787571Y-73115714D01*
X132932714Y-73115714D01*
X133005285Y-73079428D01*
X133041571Y-73043142D01*
X133077857Y-72970571D01*
X133077857Y-72353714D01*
X133803571Y-72353714D02*
X133440714Y-72353714D01*
X133404428Y-72716571D01*
X133440714Y-72680285D01*
X133513285Y-72644000D01*
X133694714Y-72644000D01*
X133767285Y-72680285D01*
X133803571Y-72716571D01*
X133839857Y-72789142D01*
X133839857Y-72970571D01*
X133803571Y-73043142D01*
X133767285Y-73079428D01*
X133694714Y-73115714D01*
X133513285Y-73115714D01*
X133440714Y-73079428D01*
X133404428Y-73043142D01*
D10*
X148479632Y-87852368D02*
X148479632Y-87783947D01*
X148513842Y-87681315D01*
X148684895Y-87510263D01*
X148787526Y-87476052D01*
X148855947Y-87476052D01*
X148958579Y-87510263D01*
X149027000Y-87578684D01*
X149095421Y-87715526D01*
X149095421Y-88536578D01*
X149540157Y-88091841D01*
X149676999Y-86997105D02*
X150155946Y-87476052D01*
X149232263Y-86894474D02*
X149574368Y-87578684D01*
X150019104Y-87133947D01*
X138745157Y-88091841D02*
X138334631Y-88502367D01*
X138539894Y-88297104D02*
X137821474Y-87578684D01*
X137855684Y-87749736D01*
X137855684Y-87886578D01*
X137821474Y-87989210D01*
X138676736Y-86723421D02*
X138334631Y-87065526D01*
X138642526Y-87441842D01*
X138642526Y-87373421D01*
X138676736Y-87270789D01*
X138847789Y-87099737D01*
X138950420Y-87065526D01*
X139018841Y-87065526D01*
X139121473Y-87099737D01*
X139292525Y-87270789D01*
X139326736Y-87373421D01*
X139326736Y-87441842D01*
X139292525Y-87544473D01*
X139121473Y-87715526D01*
X139018841Y-87749736D01*
X138950420Y-87749736D01*
D13*
X150014214Y-73641857D02*
X150014214Y-73170142D01*
X150304500Y-73424142D01*
X150304500Y-73315285D01*
X150340785Y-73242714D01*
X150377071Y-73206428D01*
X150449642Y-73170142D01*
X150631071Y-73170142D01*
X150703642Y-73206428D01*
X150739928Y-73242714D01*
X150776214Y-73315285D01*
X150776214Y-73533000D01*
X150739928Y-73605571D01*
X150703642Y-73641857D01*
X150340785Y-72734714D02*
X150304500Y-72807285D01*
X150268214Y-72843571D01*
X150195642Y-72879857D01*
X150159357Y-72879857D01*
X150086785Y-72843571D01*
X150050500Y-72807285D01*
X150014214Y-72734714D01*
X150014214Y-72589571D01*
X150050500Y-72517000D01*
X150086785Y-72480714D01*
X150159357Y-72444428D01*
X150195642Y-72444428D01*
X150268214Y-72480714D01*
X150304500Y-72517000D01*
X150340785Y-72589571D01*
X150340785Y-72734714D01*
X150377071Y-72807285D01*
X150413357Y-72843571D01*
X150485928Y-72879857D01*
X150631071Y-72879857D01*
X150703642Y-72843571D01*
X150739928Y-72807285D01*
X150776214Y-72734714D01*
X150776214Y-72589571D01*
X150739928Y-72517000D01*
X150703642Y-72480714D01*
X150631071Y-72444428D01*
X150485928Y-72444428D01*
X150413357Y-72480714D01*
X150377071Y-72517000D01*
X150340785Y-72589571D01*
D10*
X148323904Y-95171380D02*
X148372285Y-95123000D01*
X148469047Y-95074619D01*
X148710952Y-95074619D01*
X148807714Y-95123000D01*
X148856095Y-95171380D01*
X148904476Y-95268142D01*
X148904476Y-95364904D01*
X148856095Y-95510047D01*
X148275523Y-96090619D01*
X148904476Y-96090619D01*
X149533428Y-95074619D02*
X149630190Y-95074619D01*
X149726952Y-95123000D01*
X149775333Y-95171380D01*
X149823714Y-95268142D01*
X149872095Y-95461666D01*
X149872095Y-95703571D01*
X149823714Y-95897095D01*
X149775333Y-95993857D01*
X149726952Y-96042238D01*
X149630190Y-96090619D01*
X149533428Y-96090619D01*
X149436666Y-96042238D01*
X149388285Y-95993857D01*
X149339904Y-95897095D01*
X149291523Y-95703571D01*
X149291523Y-95461666D01*
X149339904Y-95268142D01*
X149388285Y-95171380D01*
X149436666Y-95123000D01*
X149533428Y-95074619D01*
X137093476Y-95836619D02*
X136512904Y-95836619D01*
X136803190Y-95836619D02*
X136803190Y-94820619D01*
X136706428Y-94965761D01*
X136609666Y-95062523D01*
X136512904Y-95110904D01*
X137577285Y-95836619D02*
X137770809Y-95836619D01*
X137867571Y-95788238D01*
X137915952Y-95739857D01*
X138012714Y-95594714D01*
X138061095Y-95401190D01*
X138061095Y-95014142D01*
X138012714Y-94917380D01*
X137964333Y-94869000D01*
X137867571Y-94820619D01*
X137674047Y-94820619D01*
X137577285Y-94869000D01*
X137528904Y-94917380D01*
X137480523Y-95014142D01*
X137480523Y-95256047D01*
X137528904Y-95352809D01*
X137577285Y-95401190D01*
X137674047Y-95449571D01*
X137867571Y-95449571D01*
X137964333Y-95401190D01*
X138012714Y-95352809D01*
X138061095Y-95256047D01*
X137450285Y-72976619D02*
X136869714Y-72976619D01*
X137160000Y-72976619D02*
X137160000Y-71960619D01*
X137063238Y-72105761D01*
X136966476Y-72202523D01*
X136869714Y-72250904D01*
X140002380Y-68283666D02*
X140607142Y-68283666D01*
X139881428Y-68646523D02*
X140304761Y-67376523D01*
X140728095Y-68646523D01*
X141151428Y-67799857D02*
X141151428Y-68646523D01*
X141151428Y-67920809D02*
X141211904Y-67860333D01*
X141332857Y-67799857D01*
X141514285Y-67799857D01*
X141635238Y-67860333D01*
X141695714Y-67981285D01*
X141695714Y-68646523D01*
X142119047Y-67799857D02*
X142602857Y-67799857D01*
X142300476Y-67376523D02*
X142300476Y-68465095D01*
X142360952Y-68586047D01*
X142481904Y-68646523D01*
X142602857Y-68646523D01*
X143510000Y-68586047D02*
X143389047Y-68646523D01*
X143147142Y-68646523D01*
X143026190Y-68586047D01*
X142965714Y-68465095D01*
X142965714Y-67981285D01*
X143026190Y-67860333D01*
X143147142Y-67799857D01*
X143389047Y-67799857D01*
X143510000Y-67860333D01*
X143570476Y-67981285D01*
X143570476Y-68102238D01*
X142965714Y-68223190D01*
X144114761Y-67799857D02*
X144114761Y-68646523D01*
X144114761Y-67920809D02*
X144175238Y-67860333D01*
X144296190Y-67799857D01*
X144477619Y-67799857D01*
X144598571Y-67860333D01*
X144659047Y-67981285D01*
X144659047Y-68646523D01*
X145263809Y-67799857D02*
X145263809Y-68646523D01*
X145263809Y-67920809D02*
X145324285Y-67860333D01*
X145445238Y-67799857D01*
X145626666Y-67799857D01*
X145747619Y-67860333D01*
X145808095Y-67981285D01*
X145808095Y-68646523D01*
X146957142Y-68646523D02*
X146957142Y-67981285D01*
X146896666Y-67860333D01*
X146775714Y-67799857D01*
X146533809Y-67799857D01*
X146412857Y-67860333D01*
X146957142Y-68586047D02*
X146836190Y-68646523D01*
X146533809Y-68646523D01*
X146412857Y-68586047D01*
X146352380Y-68465095D01*
X146352380Y-68344142D01*
X146412857Y-68223190D01*
X146533809Y-68162714D01*
X146836190Y-68162714D01*
X146957142Y-68102238D01*
D13*
X133694714Y-71809428D02*
X133658428Y-71882000D01*
X133622142Y-71918285D01*
X133549571Y-71954571D01*
X133331857Y-71954571D01*
X133259285Y-71918285D01*
X133223000Y-71882000D01*
X133186714Y-71809428D01*
X133186714Y-71700571D01*
X133223000Y-71628000D01*
X133259285Y-71591714D01*
X133331857Y-71555428D01*
X133549571Y-71555428D01*
X133622142Y-71591714D01*
X133658428Y-71628000D01*
X133694714Y-71700571D01*
X133694714Y-71809428D01*
D12*
X154903714Y-116186857D02*
X154927904Y-116114285D01*
X154952095Y-116090095D01*
X155000476Y-116065904D01*
X155073047Y-116065904D01*
X155121428Y-116090095D01*
X155145619Y-116114285D01*
X155169809Y-116162666D01*
X155169809Y-116356190D01*
X154661809Y-116356190D01*
X154661809Y-116186857D01*
X154686000Y-116138476D01*
X154710190Y-116114285D01*
X154758571Y-116090095D01*
X154806952Y-116090095D01*
X154855333Y-116114285D01*
X154879523Y-116138476D01*
X154903714Y-116186857D01*
X154903714Y-116356190D01*
X155024666Y-115872380D02*
X155024666Y-115630476D01*
X155169809Y-115920761D02*
X154661809Y-115751428D01*
X155169809Y-115582095D01*
X154661809Y-115485333D02*
X154661809Y-115195047D01*
X155169809Y-115340190D02*
X154661809Y-115340190D01*
X155169809Y-114759619D02*
X155169809Y-115049904D01*
X155169809Y-114904761D02*
X154661809Y-114904761D01*
X154734380Y-114953142D01*
X154782761Y-115001523D01*
X154806952Y-115049904D01*
D13*
X149188714Y-116930714D02*
X148753285Y-116930714D01*
X148971000Y-116930714D02*
X148971000Y-116168714D01*
X148898428Y-116277571D01*
X148825857Y-116350142D01*
X148753285Y-116386428D01*
X153579285Y-116241285D02*
X153615571Y-116205000D01*
X153688142Y-116168714D01*
X153869571Y-116168714D01*
X153942142Y-116205000D01*
X153978428Y-116241285D01*
X154014714Y-116313857D01*
X154014714Y-116386428D01*
X153978428Y-116495285D01*
X153543000Y-116930714D01*
X154014714Y-116930714D01*
D15*
X134747000Y-111370533D02*
X134780866Y-111404400D01*
X134814733Y-111506000D01*
X134814733Y-111573733D01*
X134780866Y-111675333D01*
X134713133Y-111743066D01*
X134645400Y-111776933D01*
X134509933Y-111810800D01*
X134408333Y-111810800D01*
X134272866Y-111776933D01*
X134205133Y-111743066D01*
X134137400Y-111675333D01*
X134103533Y-111573733D01*
X134103533Y-111506000D01*
X134137400Y-111404400D01*
X134171266Y-111370533D01*
X134814733Y-111065733D02*
X134103533Y-111065733D01*
X134442200Y-111065733D02*
X134442200Y-110659333D01*
X134814733Y-110659333D02*
X134103533Y-110659333D01*
X134611533Y-110354533D02*
X134611533Y-110015866D01*
X134814733Y-110422266D02*
X134103533Y-110185200D01*
X134814733Y-109948133D01*
X134814733Y-109304666D02*
X134476066Y-109541733D01*
X134814733Y-109711066D02*
X134103533Y-109711066D01*
X134103533Y-109440133D01*
X134137400Y-109372400D01*
X134171266Y-109338533D01*
X134239000Y-109304666D01*
X134340600Y-109304666D01*
X134408333Y-109338533D01*
X134442200Y-109372400D01*
X134476066Y-109440133D01*
X134476066Y-109711066D01*
X134137400Y-108627333D02*
X134103533Y-108695066D01*
X134103533Y-108796666D01*
X134137400Y-108898266D01*
X134205133Y-108966000D01*
X134272866Y-108999866D01*
X134408333Y-109033733D01*
X134509933Y-109033733D01*
X134645400Y-108999866D01*
X134713133Y-108966000D01*
X134780866Y-108898266D01*
X134814733Y-108796666D01*
X134814733Y-108728933D01*
X134780866Y-108627333D01*
X134747000Y-108593466D01*
X134509933Y-108593466D01*
X134509933Y-108728933D01*
X134814733Y-108288666D02*
X134103533Y-108288666D01*
X134814733Y-107950000D02*
X134103533Y-107950000D01*
X134814733Y-107543600D01*
X134103533Y-107543600D01*
X134137400Y-106832400D02*
X134103533Y-106900133D01*
X134103533Y-107001733D01*
X134137400Y-107103333D01*
X134205133Y-107171066D01*
X134272866Y-107204933D01*
X134408333Y-107238800D01*
X134509933Y-107238800D01*
X134645400Y-107204933D01*
X134713133Y-107171066D01*
X134780866Y-107103333D01*
X134814733Y-107001733D01*
X134814733Y-106934000D01*
X134780866Y-106832400D01*
X134747000Y-106798533D01*
X134509933Y-106798533D01*
X134509933Y-106934000D01*
X134814733Y-106121200D02*
X134814733Y-106527600D01*
X134814733Y-106324400D02*
X134103533Y-106324400D01*
X134205133Y-106392133D01*
X134272866Y-106459866D01*
X134306733Y-106527600D01*
D12*
X153676047Y-71310500D02*
X153627666Y-71286309D01*
X153555095Y-71286309D01*
X153482523Y-71310500D01*
X153434142Y-71358880D01*
X153409952Y-71407261D01*
X153385761Y-71504023D01*
X153385761Y-71576595D01*
X153409952Y-71673357D01*
X153434142Y-71721738D01*
X153482523Y-71770119D01*
X153555095Y-71794309D01*
X153603476Y-71794309D01*
X153676047Y-71770119D01*
X153700238Y-71745928D01*
X153700238Y-71576595D01*
X153603476Y-71576595D01*
X153917952Y-71794309D02*
X153917952Y-71286309D01*
X154208238Y-71794309D01*
X154208238Y-71286309D01*
X154450142Y-71794309D02*
X154450142Y-71286309D01*
X154571095Y-71286309D01*
X154643666Y-71310500D01*
X154692047Y-71358880D01*
X154716238Y-71407261D01*
X154740428Y-71504023D01*
X154740428Y-71576595D01*
X154716238Y-71673357D01*
X154692047Y-71721738D01*
X154643666Y-71770119D01*
X154571095Y-71794309D01*
X154450142Y-71794309D01*
X155224238Y-71794309D02*
X154933952Y-71794309D01*
X155079095Y-71794309D02*
X155079095Y-71286309D01*
X155030714Y-71358880D01*
X154982333Y-71407261D01*
X154933952Y-71431452D01*
D20*
X153437166Y-100030642D02*
X153225500Y-100030642D01*
X153225500Y-100363261D02*
X153225500Y-99728261D01*
X153527880Y-99728261D01*
X153769785Y-100030642D02*
X153981452Y-100030642D01*
X154072166Y-100363261D02*
X153769785Y-100363261D01*
X153769785Y-99728261D01*
X154072166Y-99728261D01*
X154253595Y-99728261D02*
X154616452Y-99728261D01*
X154435023Y-100363261D02*
X154435023Y-99728261D01*
X155160738Y-100363261D02*
X154797880Y-100363261D01*
X154979309Y-100363261D02*
X154979309Y-99728261D01*
X154918833Y-99818976D01*
X154858357Y-99879452D01*
X154797880Y-99909690D01*
D15*
X147379266Y-106942466D02*
X147311533Y-106908600D01*
X147243800Y-106840866D01*
X147142200Y-106739266D01*
X147074466Y-106705400D01*
X147006733Y-106705400D01*
X147040600Y-106874733D02*
X146972866Y-106840866D01*
X146905133Y-106773133D01*
X146871266Y-106637666D01*
X146871266Y-106400600D01*
X146905133Y-106265133D01*
X146972866Y-106197400D01*
X147040600Y-106163533D01*
X147176066Y-106163533D01*
X147243800Y-106197400D01*
X147311533Y-106265133D01*
X147345400Y-106400600D01*
X147345400Y-106637666D01*
X147311533Y-106773133D01*
X147243800Y-106840866D01*
X147176066Y-106874733D01*
X147040600Y-106874733D01*
X147616333Y-106231266D02*
X147650200Y-106197400D01*
X147717933Y-106163533D01*
X147887266Y-106163533D01*
X147955000Y-106197400D01*
X147988866Y-106231266D01*
X148022733Y-106299000D01*
X148022733Y-106366733D01*
X147988866Y-106468333D01*
X147582466Y-106874733D01*
X148022733Y-106874733D01*
D13*
X146637828Y-110631514D02*
X146637828Y-111248371D01*
X146674114Y-111320942D01*
X146710400Y-111357228D01*
X146782971Y-111393514D01*
X146928114Y-111393514D01*
X147000685Y-111357228D01*
X147036971Y-111320942D01*
X147073257Y-111248371D01*
X147073257Y-110631514D01*
X147835257Y-111393514D02*
X147399828Y-111393514D01*
X147617542Y-111393514D02*
X147617542Y-110631514D01*
X147544971Y-110740371D01*
X147472400Y-110812942D01*
X147399828Y-110849228D01*
D15*
X153399066Y-103191733D02*
X153399066Y-102480533D01*
X153568400Y-102480533D01*
X153670000Y-102514400D01*
X153737733Y-102582133D01*
X153771600Y-102649866D01*
X153805466Y-102785333D01*
X153805466Y-102886933D01*
X153771600Y-103022400D01*
X153737733Y-103090133D01*
X153670000Y-103157866D01*
X153568400Y-103191733D01*
X153399066Y-103191733D01*
X154042533Y-102480533D02*
X154482800Y-102480533D01*
X154245733Y-102751466D01*
X154347333Y-102751466D01*
X154415066Y-102785333D01*
X154448933Y-102819200D01*
X154482800Y-102886933D01*
X154482800Y-103056266D01*
X154448933Y-103124000D01*
X154415066Y-103157866D01*
X154347333Y-103191733D01*
X154144133Y-103191733D01*
X154076400Y-103157866D01*
X154042533Y-103124000D01*
D13*
X138462657Y-110656914D02*
X138462657Y-111273771D01*
X138498942Y-111346342D01*
X138535228Y-111382628D01*
X138607800Y-111418914D01*
X138752942Y-111418914D01*
X138825514Y-111382628D01*
X138861800Y-111346342D01*
X138898085Y-111273771D01*
X138898085Y-110656914D01*
X139224657Y-111382628D02*
X139333514Y-111418914D01*
X139514942Y-111418914D01*
X139587514Y-111382628D01*
X139623800Y-111346342D01*
X139660085Y-111273771D01*
X139660085Y-111201200D01*
X139623800Y-111128628D01*
X139587514Y-111092342D01*
X139514942Y-111056057D01*
X139369800Y-111019771D01*
X139297228Y-110983485D01*
X139260942Y-110947200D01*
X139224657Y-110874628D01*
X139224657Y-110802057D01*
X139260942Y-110729485D01*
X139297228Y-110693200D01*
X139369800Y-110656914D01*
X139551228Y-110656914D01*
X139660085Y-110693200D01*
X140240657Y-111019771D02*
X140349514Y-111056057D01*
X140385800Y-111092342D01*
X140422085Y-111164914D01*
X140422085Y-111273771D01*
X140385800Y-111346342D01*
X140349514Y-111382628D01*
X140276942Y-111418914D01*
X139986657Y-111418914D01*
X139986657Y-110656914D01*
X140240657Y-110656914D01*
X140313228Y-110693200D01*
X140349514Y-110729485D01*
X140385800Y-110802057D01*
X140385800Y-110874628D01*
X140349514Y-110947200D01*
X140313228Y-110983485D01*
X140240657Y-111019771D01*
X139986657Y-111019771D01*
X140748657Y-111128628D02*
X141329228Y-111128628D01*
X141692085Y-110656914D02*
X141692085Y-111273771D01*
X141728371Y-111346342D01*
X141764657Y-111382628D01*
X141837228Y-111418914D01*
X141982371Y-111418914D01*
X142054942Y-111382628D01*
X142091228Y-111346342D01*
X142127514Y-111273771D01*
X142127514Y-110656914D01*
X142454085Y-111201200D02*
X142816942Y-111201200D01*
X142381514Y-111418914D02*
X142635514Y-110656914D01*
X142889514Y-111418914D01*
X143578942Y-111418914D02*
X143324942Y-111056057D01*
X143143514Y-111418914D02*
X143143514Y-110656914D01*
X143433800Y-110656914D01*
X143506371Y-110693200D01*
X143542657Y-110729485D01*
X143578942Y-110802057D01*
X143578942Y-110910914D01*
X143542657Y-110983485D01*
X143506371Y-111019771D01*
X143433800Y-111056057D01*
X143143514Y-111056057D01*
X143796657Y-110656914D02*
X144232085Y-110656914D01*
X144014371Y-111418914D02*
X144014371Y-110656914D01*
X144885228Y-111418914D02*
X144449800Y-111418914D01*
X144667514Y-111418914D02*
X144667514Y-110656914D01*
X144594942Y-110765771D01*
X144522371Y-110838342D01*
X144449800Y-110874628D01*
X135617857Y-112739714D02*
X135363857Y-112376857D01*
X135182428Y-112739714D02*
X135182428Y-111977714D01*
X135472714Y-111977714D01*
X135545285Y-112014000D01*
X135581571Y-112050285D01*
X135617857Y-112122857D01*
X135617857Y-112231714D01*
X135581571Y-112304285D01*
X135545285Y-112340571D01*
X135472714Y-112376857D01*
X135182428Y-112376857D01*
X135908142Y-112703428D02*
X136017000Y-112739714D01*
X136198428Y-112739714D01*
X136271000Y-112703428D01*
X136307285Y-112667142D01*
X136343571Y-112594571D01*
X136343571Y-112522000D01*
X136307285Y-112449428D01*
X136271000Y-112413142D01*
X136198428Y-112376857D01*
X136053285Y-112340571D01*
X135980714Y-112304285D01*
X135944428Y-112268000D01*
X135908142Y-112195428D01*
X135908142Y-112122857D01*
X135944428Y-112050285D01*
X135980714Y-112014000D01*
X136053285Y-111977714D01*
X136234714Y-111977714D01*
X136343571Y-112014000D01*
X136561285Y-111977714D02*
X136996714Y-111977714D01*
X136779000Y-112739714D02*
X136779000Y-111977714D01*
X137649857Y-112739714D02*
X137214428Y-112739714D01*
X137432142Y-112739714D02*
X137432142Y-111977714D01*
X137359571Y-112086571D01*
X137287000Y-112159142D01*
X137214428Y-112195428D01*
X136597571Y-118962714D02*
X136597571Y-118200714D01*
X136779000Y-118200714D01*
X136887857Y-118237000D01*
X136960428Y-118309571D01*
X136996714Y-118382142D01*
X137033000Y-118527285D01*
X137033000Y-118636142D01*
X136996714Y-118781285D01*
X136960428Y-118853857D01*
X136887857Y-118926428D01*
X136779000Y-118962714D01*
X136597571Y-118962714D01*
X137758714Y-118962714D02*
X137323285Y-118962714D01*
X137541000Y-118962714D02*
X137541000Y-118200714D01*
X137468428Y-118309571D01*
X137395857Y-118382142D01*
X137323285Y-118418428D01*
D15*
X147938066Y-97476733D02*
X147938066Y-96765533D01*
X148107400Y-96765533D01*
X148209000Y-96799400D01*
X148276733Y-96867133D01*
X148310600Y-96934866D01*
X148344466Y-97070333D01*
X148344466Y-97171933D01*
X148310600Y-97307400D01*
X148276733Y-97375133D01*
X148209000Y-97442866D01*
X148107400Y-97476733D01*
X147938066Y-97476733D01*
X148615400Y-96833266D02*
X148649266Y-96799400D01*
X148717000Y-96765533D01*
X148886333Y-96765533D01*
X148954066Y-96799400D01*
X148987933Y-96833266D01*
X149021800Y-96901000D01*
X149021800Y-96968733D01*
X148987933Y-97070333D01*
X148581533Y-97476733D01*
X149021800Y-97476733D01*
X146812000Y-98316142D02*
X146775714Y-98352428D01*
X146666857Y-98388714D01*
X146594285Y-98388714D01*
X146485428Y-98352428D01*
X146412857Y-98279857D01*
X146376571Y-98207285D01*
X146340285Y-98062142D01*
X146340285Y-97953285D01*
X146376571Y-97808142D01*
X146412857Y-97735571D01*
X146485428Y-97663000D01*
X146594285Y-97626714D01*
X146666857Y-97626714D01*
X146775714Y-97663000D01*
X146812000Y-97699285D01*
X147465142Y-97626714D02*
X147320000Y-97626714D01*
X147247428Y-97663000D01*
X147211142Y-97699285D01*
X147138571Y-97808142D01*
X147102285Y-97953285D01*
X147102285Y-98243571D01*
X147138571Y-98316142D01*
X147174857Y-98352428D01*
X147247428Y-98388714D01*
X147392571Y-98388714D01*
X147465142Y-98352428D01*
X147501428Y-98316142D01*
X147537714Y-98243571D01*
X147537714Y-98062142D01*
X147501428Y-97989571D01*
X147465142Y-97953285D01*
X147392571Y-97917000D01*
X147247428Y-97917000D01*
X147174857Y-97953285D01*
X147138571Y-97989571D01*
X147102285Y-98062142D01*
D13*
X138829142Y-101981000D02*
X138865428Y-102017285D01*
X138901714Y-102126142D01*
X138901714Y-102198714D01*
X138865428Y-102307571D01*
X138792857Y-102380142D01*
X138720285Y-102416428D01*
X138575142Y-102452714D01*
X138466285Y-102452714D01*
X138321142Y-102416428D01*
X138248571Y-102380142D01*
X138176000Y-102307571D01*
X138139714Y-102198714D01*
X138139714Y-102126142D01*
X138176000Y-102017285D01*
X138212285Y-101981000D01*
X138139714Y-101727000D02*
X138139714Y-101219000D01*
X138901714Y-101545571D01*
D15*
X151011466Y-97375133D02*
X150774400Y-97036466D01*
X150605066Y-97375133D02*
X150605066Y-96663933D01*
X150876000Y-96663933D01*
X150943733Y-96697800D01*
X150977600Y-96731666D01*
X151011466Y-96799400D01*
X151011466Y-96901000D01*
X150977600Y-96968733D01*
X150943733Y-97002600D01*
X150876000Y-97036466D01*
X150605066Y-97036466D01*
X151688800Y-97375133D02*
X151282400Y-97375133D01*
X151485600Y-97375133D02*
X151485600Y-96663933D01*
X151417866Y-96765533D01*
X151350133Y-96833266D01*
X151282400Y-96867133D01*
X133544733Y-89272533D02*
X133206066Y-89509600D01*
X133544733Y-89678933D02*
X132833533Y-89678933D01*
X132833533Y-89408000D01*
X132867400Y-89340266D01*
X132901266Y-89306400D01*
X132969000Y-89272533D01*
X133070600Y-89272533D01*
X133138333Y-89306400D01*
X133172200Y-89340266D01*
X133206066Y-89408000D01*
X133206066Y-89678933D01*
X132901266Y-89001600D02*
X132867400Y-88967733D01*
X132833533Y-88900000D01*
X132833533Y-88730666D01*
X132867400Y-88662933D01*
X132901266Y-88629066D01*
X132969000Y-88595200D01*
X133036733Y-88595200D01*
X133138333Y-88629066D01*
X133544733Y-89035466D01*
X133544733Y-88595200D01*
X132554133Y-107992333D02*
X132215466Y-108229400D01*
X132554133Y-108398733D02*
X131842933Y-108398733D01*
X131842933Y-108127800D01*
X131876800Y-108060066D01*
X131910666Y-108026200D01*
X131978400Y-107992333D01*
X132080000Y-107992333D01*
X132147733Y-108026200D01*
X132181600Y-108060066D01*
X132215466Y-108127800D01*
X132215466Y-108398733D01*
X131842933Y-107755266D02*
X131842933Y-107315000D01*
X132113866Y-107552066D01*
X132113866Y-107450466D01*
X132147733Y-107382733D01*
X132181600Y-107348866D01*
X132249333Y-107315000D01*
X132418666Y-107315000D01*
X132486400Y-107348866D01*
X132520266Y-107382733D01*
X132554133Y-107450466D01*
X132554133Y-107653666D01*
X132520266Y-107721400D01*
X132486400Y-107755266D01*
X150630466Y-111065733D02*
X150393400Y-110727066D01*
X150224066Y-111065733D02*
X150224066Y-110354533D01*
X150495000Y-110354533D01*
X150562733Y-110388400D01*
X150596600Y-110422266D01*
X150630466Y-110490000D01*
X150630466Y-110591600D01*
X150596600Y-110659333D01*
X150562733Y-110693200D01*
X150495000Y-110727066D01*
X150224066Y-110727066D01*
X151240066Y-110591600D02*
X151240066Y-111065733D01*
X151070733Y-110320666D02*
X150901400Y-110828666D01*
X151341666Y-110828666D01*
X132850466Y-87062733D02*
X132613400Y-86724066D01*
X132444066Y-87062733D02*
X132444066Y-86351533D01*
X132715000Y-86351533D01*
X132782733Y-86385400D01*
X132816600Y-86419266D01*
X132850466Y-86487000D01*
X132850466Y-86588600D01*
X132816600Y-86656333D01*
X132782733Y-86690200D01*
X132715000Y-86724066D01*
X132444066Y-86724066D01*
X133493933Y-86351533D02*
X133155266Y-86351533D01*
X133121400Y-86690200D01*
X133155266Y-86656333D01*
X133223000Y-86622466D01*
X133392333Y-86622466D01*
X133460066Y-86656333D01*
X133493933Y-86690200D01*
X133527800Y-86757933D01*
X133527800Y-86927266D01*
X133493933Y-86995000D01*
X133460066Y-87028866D01*
X133392333Y-87062733D01*
X133223000Y-87062733D01*
X133155266Y-87028866D01*
X133121400Y-86995000D01*
X135898466Y-108398733D02*
X135661400Y-108060066D01*
X135492066Y-108398733D02*
X135492066Y-107687533D01*
X135763000Y-107687533D01*
X135830733Y-107721400D01*
X135864600Y-107755266D01*
X135898466Y-107823000D01*
X135898466Y-107924600D01*
X135864600Y-107992333D01*
X135830733Y-108026200D01*
X135763000Y-108060066D01*
X135492066Y-108060066D01*
X136508066Y-107687533D02*
X136372600Y-107687533D01*
X136304866Y-107721400D01*
X136271000Y-107755266D01*
X136203266Y-107856866D01*
X136169400Y-107992333D01*
X136169400Y-108263266D01*
X136203266Y-108331000D01*
X136237133Y-108364866D01*
X136304866Y-108398733D01*
X136440333Y-108398733D01*
X136508066Y-108364866D01*
X136541933Y-108331000D01*
X136575800Y-108263266D01*
X136575800Y-108093933D01*
X136541933Y-108026200D01*
X136508066Y-107992333D01*
X136440333Y-107958466D01*
X136304866Y-107958466D01*
X136237133Y-107992333D01*
X136203266Y-108026200D01*
X136169400Y-108093933D01*
X150757466Y-106874733D02*
X150520400Y-106536066D01*
X150351066Y-106874733D02*
X150351066Y-106163533D01*
X150622000Y-106163533D01*
X150689733Y-106197400D01*
X150723600Y-106231266D01*
X150757466Y-106299000D01*
X150757466Y-106400600D01*
X150723600Y-106468333D01*
X150689733Y-106502200D01*
X150622000Y-106536066D01*
X150351066Y-106536066D01*
X151163866Y-106468333D02*
X151096133Y-106434466D01*
X151062266Y-106400600D01*
X151028400Y-106332866D01*
X151028400Y-106299000D01*
X151062266Y-106231266D01*
X151096133Y-106197400D01*
X151163866Y-106163533D01*
X151299333Y-106163533D01*
X151367066Y-106197400D01*
X151400933Y-106231266D01*
X151434800Y-106299000D01*
X151434800Y-106332866D01*
X151400933Y-106400600D01*
X151367066Y-106434466D01*
X151299333Y-106468333D01*
X151163866Y-106468333D01*
X151096133Y-106502200D01*
X151062266Y-106536066D01*
X151028400Y-106603800D01*
X151028400Y-106739266D01*
X151062266Y-106807000D01*
X151096133Y-106840866D01*
X151163866Y-106874733D01*
X151299333Y-106874733D01*
X151367066Y-106840866D01*
X151400933Y-106807000D01*
X151434800Y-106739266D01*
X151434800Y-106603800D01*
X151400933Y-106536066D01*
X151367066Y-106502200D01*
X151299333Y-106468333D01*
X154753733Y-109550200D02*
X154415066Y-109787266D01*
X154753733Y-109956600D02*
X154042533Y-109956600D01*
X154042533Y-109685666D01*
X154076400Y-109617933D01*
X154110266Y-109584066D01*
X154178000Y-109550200D01*
X154279600Y-109550200D01*
X154347333Y-109584066D01*
X154381200Y-109617933D01*
X154415066Y-109685666D01*
X154415066Y-109956600D01*
X154753733Y-108872866D02*
X154753733Y-109279266D01*
X154753733Y-109076066D02*
X154042533Y-109076066D01*
X154144133Y-109143800D01*
X154211866Y-109211533D01*
X154245733Y-109279266D01*
X154042533Y-108432600D02*
X154042533Y-108364866D01*
X154076400Y-108297133D01*
X154110266Y-108263266D01*
X154178000Y-108229400D01*
X154313466Y-108195533D01*
X154482800Y-108195533D01*
X154618266Y-108229400D01*
X154686000Y-108263266D01*
X154719866Y-108297133D01*
X154753733Y-108364866D01*
X154753733Y-108432600D01*
X154719866Y-108500333D01*
X154686000Y-108534200D01*
X154618266Y-108568066D01*
X154482800Y-108601933D01*
X154313466Y-108601933D01*
X154178000Y-108568066D01*
X154110266Y-108534200D01*
X154076400Y-108500333D01*
X154042533Y-108432600D01*
X132283200Y-75785133D02*
X132046133Y-75446466D01*
X131876800Y-75785133D02*
X131876800Y-75073933D01*
X132147733Y-75073933D01*
X132215466Y-75107800D01*
X132249333Y-75141666D01*
X132283200Y-75209400D01*
X132283200Y-75311000D01*
X132249333Y-75378733D01*
X132215466Y-75412600D01*
X132147733Y-75446466D01*
X131876800Y-75446466D01*
X132960533Y-75785133D02*
X132554133Y-75785133D01*
X132757333Y-75785133D02*
X132757333Y-75073933D01*
X132689600Y-75175533D01*
X132621866Y-75243266D01*
X132554133Y-75277133D01*
X133197600Y-75073933D02*
X133637866Y-75073933D01*
X133400800Y-75344866D01*
X133502400Y-75344866D01*
X133570133Y-75378733D01*
X133604000Y-75412600D01*
X133637866Y-75480333D01*
X133637866Y-75649666D01*
X133604000Y-75717400D01*
X133570133Y-75751266D01*
X133502400Y-75785133D01*
X133299200Y-75785133D01*
X133231466Y-75751266D01*
X133197600Y-75717400D01*
X132384800Y-84903733D02*
X132147733Y-84565066D01*
X131978400Y-84903733D02*
X131978400Y-84192533D01*
X132249333Y-84192533D01*
X132317066Y-84226400D01*
X132350933Y-84260266D01*
X132384800Y-84328000D01*
X132384800Y-84429600D01*
X132350933Y-84497333D01*
X132317066Y-84531200D01*
X132249333Y-84565066D01*
X131978400Y-84565066D01*
X133062133Y-84903733D02*
X132655733Y-84903733D01*
X132858933Y-84903733D02*
X132858933Y-84192533D01*
X132791200Y-84294133D01*
X132723466Y-84361866D01*
X132655733Y-84395733D01*
X133705600Y-84192533D02*
X133366933Y-84192533D01*
X133333066Y-84531200D01*
X133366933Y-84497333D01*
X133434666Y-84463466D01*
X133604000Y-84463466D01*
X133671733Y-84497333D01*
X133705600Y-84531200D01*
X133739466Y-84598933D01*
X133739466Y-84768266D01*
X133705600Y-84836000D01*
X133671733Y-84869866D01*
X133604000Y-84903733D01*
X133434666Y-84903733D01*
X133366933Y-84869866D01*
X133333066Y-84836000D01*
X132384800Y-85919733D02*
X132147733Y-85581066D01*
X131978400Y-85919733D02*
X131978400Y-85208533D01*
X132249333Y-85208533D01*
X132317066Y-85242400D01*
X132350933Y-85276266D01*
X132384800Y-85344000D01*
X132384800Y-85445600D01*
X132350933Y-85513333D01*
X132317066Y-85547200D01*
X132249333Y-85581066D01*
X131978400Y-85581066D01*
X133062133Y-85919733D02*
X132655733Y-85919733D01*
X132858933Y-85919733D02*
X132858933Y-85208533D01*
X132791200Y-85310133D01*
X132723466Y-85377866D01*
X132655733Y-85411733D01*
X133671733Y-85208533D02*
X133536266Y-85208533D01*
X133468533Y-85242400D01*
X133434666Y-85276266D01*
X133366933Y-85377866D01*
X133333066Y-85513333D01*
X133333066Y-85784266D01*
X133366933Y-85852000D01*
X133400800Y-85885866D01*
X133468533Y-85919733D01*
X133604000Y-85919733D01*
X133671733Y-85885866D01*
X133705600Y-85852000D01*
X133739466Y-85784266D01*
X133739466Y-85614933D01*
X133705600Y-85547200D01*
X133671733Y-85513333D01*
X133604000Y-85479466D01*
X133468533Y-85479466D01*
X133400800Y-85513333D01*
X133366933Y-85547200D01*
X133333066Y-85614933D01*
X141655800Y-110176733D02*
X141418733Y-109838066D01*
X141249400Y-110176733D02*
X141249400Y-109465533D01*
X141520333Y-109465533D01*
X141588066Y-109499400D01*
X141621933Y-109533266D01*
X141655800Y-109601000D01*
X141655800Y-109702600D01*
X141621933Y-109770333D01*
X141588066Y-109804200D01*
X141520333Y-109838066D01*
X141249400Y-109838066D01*
X142333133Y-110176733D02*
X141926733Y-110176733D01*
X142129933Y-110176733D02*
X142129933Y-109465533D01*
X142062200Y-109567133D01*
X141994466Y-109634866D01*
X141926733Y-109668733D01*
X142570200Y-109465533D02*
X143044333Y-109465533D01*
X142739533Y-110176733D01*
X137676466Y-108331000D02*
X137642600Y-108364866D01*
X137541000Y-108398733D01*
X137473266Y-108398733D01*
X137371666Y-108364866D01*
X137303933Y-108297133D01*
X137270066Y-108229400D01*
X137236200Y-108093933D01*
X137236200Y-107992333D01*
X137270066Y-107856866D01*
X137303933Y-107789133D01*
X137371666Y-107721400D01*
X137473266Y-107687533D01*
X137541000Y-107687533D01*
X137642600Y-107721400D01*
X137676466Y-107755266D01*
X138319933Y-107687533D02*
X137981266Y-107687533D01*
X137947400Y-108026200D01*
X137981266Y-107992333D01*
X138049000Y-107958466D01*
X138218333Y-107958466D01*
X138286066Y-107992333D01*
X138319933Y-108026200D01*
X138353800Y-108093933D01*
X138353800Y-108263266D01*
X138319933Y-108331000D01*
X138286066Y-108364866D01*
X138218333Y-108398733D01*
X138049000Y-108398733D01*
X137981266Y-108364866D01*
X137947400Y-108331000D01*
X132850466Y-88138000D02*
X132816600Y-88171866D01*
X132715000Y-88205733D01*
X132647266Y-88205733D01*
X132545666Y-88171866D01*
X132477933Y-88104133D01*
X132444066Y-88036400D01*
X132410200Y-87900933D01*
X132410200Y-87799333D01*
X132444066Y-87663866D01*
X132477933Y-87596133D01*
X132545666Y-87528400D01*
X132647266Y-87494533D01*
X132715000Y-87494533D01*
X132816600Y-87528400D01*
X132850466Y-87562266D01*
X133189133Y-88205733D02*
X133324600Y-88205733D01*
X133392333Y-88171866D01*
X133426200Y-88138000D01*
X133493933Y-88036400D01*
X133527800Y-87900933D01*
X133527800Y-87630000D01*
X133493933Y-87562266D01*
X133460066Y-87528400D01*
X133392333Y-87494533D01*
X133256866Y-87494533D01*
X133189133Y-87528400D01*
X133155266Y-87562266D01*
X133121400Y-87630000D01*
X133121400Y-87799333D01*
X133155266Y-87867066D01*
X133189133Y-87900933D01*
X133256866Y-87934800D01*
X133392333Y-87934800D01*
X133460066Y-87900933D01*
X133493933Y-87867066D01*
X133527800Y-87799333D01*
X138176000Y-98924533D02*
X138209866Y-98958400D01*
X138243733Y-99060000D01*
X138243733Y-99127733D01*
X138209866Y-99229333D01*
X138142133Y-99297066D01*
X138074400Y-99330933D01*
X137938933Y-99364800D01*
X137837333Y-99364800D01*
X137701866Y-99330933D01*
X137634133Y-99297066D01*
X137566400Y-99229333D01*
X137532533Y-99127733D01*
X137532533Y-99060000D01*
X137566400Y-98958400D01*
X137600266Y-98924533D01*
X137837333Y-98518133D02*
X137803466Y-98585866D01*
X137769600Y-98619733D01*
X137701866Y-98653600D01*
X137668000Y-98653600D01*
X137600266Y-98619733D01*
X137566400Y-98585866D01*
X137532533Y-98518133D01*
X137532533Y-98382666D01*
X137566400Y-98314933D01*
X137600266Y-98281066D01*
X137668000Y-98247200D01*
X137701866Y-98247200D01*
X137769600Y-98281066D01*
X137803466Y-98314933D01*
X137837333Y-98382666D01*
X137837333Y-98518133D01*
X137871200Y-98585866D01*
X137905066Y-98619733D01*
X137972800Y-98653600D01*
X138108266Y-98653600D01*
X138176000Y-98619733D01*
X138209866Y-98585866D01*
X138243733Y-98518133D01*
X138243733Y-98382666D01*
X138209866Y-98314933D01*
X138176000Y-98281066D01*
X138108266Y-98247200D01*
X137972800Y-98247200D01*
X137905066Y-98281066D01*
X137871200Y-98314933D01*
X137837333Y-98382666D01*
D13*
X150059571Y-103976714D02*
X150059571Y-103214714D01*
X150241000Y-103214714D01*
X150349857Y-103251000D01*
X150422428Y-103323571D01*
X150458714Y-103396142D01*
X150495000Y-103541285D01*
X150495000Y-103650142D01*
X150458714Y-103795285D01*
X150422428Y-103867857D01*
X150349857Y-103940428D01*
X150241000Y-103976714D01*
X150059571Y-103976714D01*
X151148142Y-103214714D02*
X151003000Y-103214714D01*
X150930428Y-103251000D01*
X150894142Y-103287285D01*
X150821571Y-103396142D01*
X150785285Y-103541285D01*
X150785285Y-103831571D01*
X150821571Y-103904142D01*
X150857857Y-103940428D01*
X150930428Y-103976714D01*
X151075571Y-103976714D01*
X151148142Y-103940428D01*
X151184428Y-103904142D01*
X151220714Y-103831571D01*
X151220714Y-103650142D01*
X151184428Y-103577571D01*
X151148142Y-103541285D01*
X151075571Y-103505000D01*
X150930428Y-103505000D01*
X150857857Y-103541285D01*
X150821571Y-103577571D01*
X150785285Y-103650142D01*
D15*
X144576800Y-105477733D02*
X144339733Y-105139066D01*
X144170400Y-105477733D02*
X144170400Y-104766533D01*
X144441333Y-104766533D01*
X144509066Y-104800400D01*
X144542933Y-104834266D01*
X144576800Y-104902000D01*
X144576800Y-105003600D01*
X144542933Y-105071333D01*
X144509066Y-105105200D01*
X144441333Y-105139066D01*
X144170400Y-105139066D01*
X145254133Y-105477733D02*
X144847733Y-105477733D01*
X145050933Y-105477733D02*
X145050933Y-104766533D01*
X144983200Y-104868133D01*
X144915466Y-104935866D01*
X144847733Y-104969733D01*
X145931466Y-105477733D02*
X145525066Y-105477733D01*
X145728266Y-105477733D02*
X145728266Y-104766533D01*
X145660533Y-104868133D01*
X145592800Y-104935866D01*
X145525066Y-104969733D01*
D13*
X142802428Y-98388714D02*
X142802428Y-99005571D01*
X142838714Y-99078142D01*
X142875000Y-99114428D01*
X142947571Y-99150714D01*
X143092714Y-99150714D01*
X143165285Y-99114428D01*
X143201571Y-99078142D01*
X143237857Y-99005571D01*
X143237857Y-98388714D01*
X143528142Y-98388714D02*
X143999857Y-98388714D01*
X143745857Y-98679000D01*
X143854714Y-98679000D01*
X143927285Y-98715285D01*
X143963571Y-98751571D01*
X143999857Y-98824142D01*
X143999857Y-99005571D01*
X143963571Y-99078142D01*
X143927285Y-99114428D01*
X143854714Y-99150714D01*
X143637000Y-99150714D01*
X143564428Y-99114428D01*
X143528142Y-99078142D01*
M02*
