G04 #@! TF.GenerationSoftware,KiCad,Pcbnew,5.1.0-rc2-unknown-036be7d~80~ubuntu16.04.1*
G04 #@! TF.CreationDate,2023-10-02T14:06:35+03:00*
G04 #@! TF.ProjectId,ESP32-DevKit-Lipo_Rev_D,45535033-322d-4446-9576-4b69742d4c69,D*
G04 #@! TF.SameCoordinates,Original*
G04 #@! TF.FileFunction,Soldermask,Top*
G04 #@! TF.FilePolarity,Negative*
%FSLAX46Y46*%
G04 Gerber Fmt 4.6, Leading zero omitted, Abs format (unit mm)*
G04 Created by KiCad (PCBNEW 5.1.0-rc2-unknown-036be7d~80~ubuntu16.04.1) date 2023-10-02 14:06:35*
%MOMM*%
%LPD*%
G04 APERTURE LIST*
%ADD10R,1.117600X1.117600*%
%ADD11R,1.501600X1.101600*%
%ADD12R,1.101600X0.351600*%
%ADD13R,1.101600X1.501600*%
%ADD14R,0.601600X0.651600*%
%ADD15R,2.101600X1.001600*%
%ADD16R,1.001600X2.101600*%
%ADD17R,5.101600X5.101600*%
%ADD18C,2.101600*%
%ADD19C,1.501600*%
%ADD20R,1.501600X1.501600*%
%ADD21R,0.901600X0.901600*%
%ADD22C,1.101600*%
%ADD23C,1.879600*%
%ADD24R,1.879600X1.879600*%
%ADD25C,1.254000*%
%ADD26R,1.301600X0.651600*%
%ADD27R,0.601600X1.751600*%
%ADD28R,0.426600X1.751600*%
%ADD29C,0.701600*%
%ADD30R,1.201600X1.101600*%
%ADD31O,1.301600X1.901600*%
%ADD32R,1.601600X1.001600*%
%ADD33C,0.801600*%
%ADD34R,0.651600X0.601600*%
G04 APERTURE END LIST*
D10*
X154495500Y-113411000D03*
X152717500Y-113411000D03*
D11*
X134620000Y-105405000D03*
X134620000Y-101605000D03*
D12*
X140983000Y-108315000D03*
X140983000Y-107815000D03*
X140983000Y-107315000D03*
X140983000Y-106815000D03*
X140983000Y-106315000D03*
X145783000Y-106315000D03*
X145783000Y-106815000D03*
X145783000Y-107315000D03*
X145783000Y-107815000D03*
X145783000Y-108315000D03*
D13*
X153095960Y-107858560D03*
X151193500Y-107858560D03*
X152148540Y-110068360D03*
D14*
X149860000Y-105283000D03*
X148844000Y-105283000D03*
D11*
X136906000Y-101605000D03*
X136906000Y-105405000D03*
D10*
X138938000Y-104775000D03*
X138938000Y-106553000D03*
D14*
X141224000Y-103505000D03*
X140208000Y-103505000D03*
D15*
X152010000Y-94102000D03*
X152010000Y-92832000D03*
X152010000Y-91562000D03*
X152010000Y-90292000D03*
X152010000Y-95372000D03*
X135010000Y-95372000D03*
X135010000Y-90292000D03*
X135010000Y-91562000D03*
X135010000Y-92832000D03*
X135010000Y-94102000D03*
X135010000Y-72512000D03*
X135010000Y-73782000D03*
X135010000Y-75052000D03*
X135010000Y-76322000D03*
X135010000Y-77592000D03*
X135010000Y-78862000D03*
X135010000Y-80132000D03*
X135010000Y-81402000D03*
X135010000Y-82672000D03*
X135010000Y-83942000D03*
X135010000Y-85212000D03*
X135010000Y-86482000D03*
X135010000Y-87752000D03*
X135010000Y-89022000D03*
D16*
X137810000Y-90022000D03*
X139080000Y-90022000D03*
X140350000Y-90022000D03*
X141620000Y-90022000D03*
X142890000Y-90022000D03*
X144160000Y-90022000D03*
X145430000Y-90022000D03*
X146700000Y-90022000D03*
X147970000Y-90022000D03*
X149240000Y-90022000D03*
D15*
X152010000Y-89022000D03*
X152010000Y-87752000D03*
X152010000Y-86482000D03*
X152010000Y-85212000D03*
X152010000Y-83942000D03*
X152010000Y-82672000D03*
X152010000Y-81402000D03*
X152010000Y-80132000D03*
X152010000Y-78862000D03*
X152010000Y-77592000D03*
X152010000Y-76322000D03*
X152010000Y-75052000D03*
X152010000Y-73782000D03*
X152010000Y-72512000D03*
D17*
X142510000Y-80022000D03*
D18*
X142510000Y-80022000D03*
D19*
X152384760Y-116222780D03*
D20*
X150355300Y-116225320D03*
D21*
X133223000Y-109728000D03*
X133223000Y-111252000D03*
D22*
X154305000Y-72390000D03*
D23*
X130810000Y-80010000D03*
X130810000Y-77470000D03*
X130810000Y-74930000D03*
D24*
X130810000Y-72390000D03*
D23*
X130810000Y-82550000D03*
X130810000Y-85090000D03*
X130810000Y-90170000D03*
X130810000Y-87630000D03*
X130810000Y-92710000D03*
X130810000Y-95250000D03*
X130810000Y-100330000D03*
X130810000Y-97790000D03*
X130810000Y-102870000D03*
X130810000Y-105410000D03*
X130810000Y-110490000D03*
X130810000Y-107950000D03*
X130810000Y-118110000D03*
X130810000Y-115570000D03*
X130810000Y-113030000D03*
X156210000Y-80010000D03*
X156210000Y-77470000D03*
X156210000Y-74930000D03*
D24*
X156210000Y-72390000D03*
D23*
X156210000Y-82550000D03*
X156210000Y-85090000D03*
X156210000Y-90170000D03*
X156210000Y-87630000D03*
X156210000Y-92710000D03*
X156210000Y-95250000D03*
X156210000Y-100330000D03*
X156210000Y-97790000D03*
X156210000Y-102870000D03*
X156210000Y-105410000D03*
X156210000Y-110490000D03*
X156210000Y-107950000D03*
X156210000Y-118110000D03*
X156210000Y-115570000D03*
X156210000Y-113030000D03*
D11*
X151165560Y-100142040D03*
X151165560Y-102044500D03*
X153375360Y-101089460D03*
D25*
X133985000Y-98044000D03*
X148590000Y-73025000D03*
D13*
X149793960Y-107858560D03*
X147891500Y-107858560D03*
X148846540Y-110068360D03*
D26*
X148687000Y-111826000D03*
X148687000Y-112776000D03*
X148687000Y-113726000D03*
X151287000Y-111826000D03*
X151287000Y-113726000D03*
D11*
X151554000Y-104902000D03*
X153754000Y-103952000D03*
X153754000Y-105852000D03*
D27*
X142122500Y-112547000D03*
D28*
X142860000Y-112547000D03*
X143510000Y-112547000D03*
X144160000Y-112547000D03*
D27*
X144897500Y-112547000D03*
D29*
X141510000Y-113797000D03*
X145510000Y-113797000D03*
D30*
X142010000Y-117097000D03*
X145010000Y-117097000D03*
D31*
X139910000Y-115947000D03*
X139910000Y-112477000D03*
X147110000Y-112477000D03*
X147110000Y-115947000D03*
D32*
X133985000Y-113393000D03*
X133985000Y-117747000D03*
D33*
X134885000Y-115570000D03*
X133085000Y-115570000D03*
D11*
X137160000Y-113670000D03*
X137160000Y-117470000D03*
X149098000Y-98176000D03*
X149098000Y-101976000D03*
D10*
X146939000Y-100203000D03*
X146939000Y-101981000D03*
X140081000Y-100203000D03*
X140081000Y-101981000D03*
D34*
X151003000Y-97790000D03*
X151003000Y-98806000D03*
X133223000Y-82677000D03*
X133223000Y-83693000D03*
X133223000Y-107315000D03*
X133223000Y-108331000D03*
D14*
X153670000Y-111887000D03*
X152654000Y-111887000D03*
X132207000Y-80137001D03*
X133223000Y-80137001D03*
X136398000Y-109220000D03*
X135382000Y-109220000D03*
X149860000Y-106426000D03*
X148844000Y-106426000D03*
X153416000Y-110617000D03*
X154432000Y-110617000D03*
D34*
X133223000Y-74676000D03*
X133223000Y-73660000D03*
D14*
X133223000Y-77216000D03*
X132207000Y-77216000D03*
X132207000Y-78740000D03*
X133223000Y-78740000D03*
D34*
X139700000Y-110236000D03*
X139700000Y-109220000D03*
D14*
X137541000Y-109220000D03*
X138557000Y-109220000D03*
X133222999Y-81661000D03*
X132206999Y-81661000D03*
D25*
X144145000Y-115062000D03*
D10*
X136271000Y-97917000D03*
X136271000Y-99695000D03*
D13*
X145420000Y-103759000D03*
X149220000Y-103759000D03*
D14*
X144018000Y-104140000D03*
X143002000Y-104140000D03*
D26*
X142210000Y-100142000D03*
X142210000Y-102042000D03*
X144810000Y-100142000D03*
X144810000Y-101092000D03*
X144810000Y-102042000D03*
D25*
X153035000Y-98044000D03*
M02*
