G04 #@! TF.GenerationSoftware,KiCad,Pcbnew,6.0.0-rc1-unknown-829ba27~65~ubuntu16.04.1*
G04 #@! TF.CreationDate,2018-07-19T14:53:26+03:00*
G04 #@! TF.ProjectId,ESP32-DevKit-Lipo_Rev_A,45535033322D4465764B69742D4C6970,A*
G04 #@! TF.SameCoordinates,Original*
G04 #@! TF.FileFunction,Soldermask,Top*
G04 #@! TF.FilePolarity,Negative*
%FSLAX46Y46*%
G04 Gerber Fmt 4.6, Leading zero omitted, Abs format (unit mm)*
G04 Created by KiCad (PCBNEW 6.0.0-rc1-unknown-829ba27~65~ubuntu16.04.1) date Thu Jul 19 14:53:26 2018*
%MOMM*%
%LPD*%
G01*
G04 APERTURE LIST*
%ADD10R,1.301600X1.501600*%
%ADD11R,1.501600X1.501600*%
%ADD12C,1.501600*%
%ADD13R,1.371600X1.625600*%
%ADD14R,1.117600X1.117600*%
%ADD15R,0.901600X0.901600*%
%ADD16R,1.801600X2.101600*%
%ADD17R,2.101600X1.801600*%
%ADD18C,1.879600*%
%ADD19R,1.879600X1.879600*%
%ADD20R,1.101600X1.501600*%
%ADD21C,1.254000*%
%ADD22R,1.701600X3.101600*%
%ADD23R,0.651600X1.301600*%
%ADD24R,1.371600X0.426600*%
%ADD25C,1.700000*%
%ADD26C,2.400000*%
%ADD27R,6.400000X6.400000*%
%ADD28R,1.801600X1.001600*%
%ADD29R,1.001600X1.801600*%
%ADD30R,0.426600X2.251600*%
%ADD31C,0.701600*%
%ADD32R,1.201600X1.101600*%
%ADD33O,1.301600X1.901600*%
%ADD34C,0.801600*%
%ADD35R,1.501600X1.601600*%
G04 APERTURE END LIST*
D10*
G04 #@! TO.C,Q1*
X134785000Y-99357000D03*
X133185000Y-101557000D03*
X134785000Y-101557000D03*
X133185000Y-99357000D03*
G04 #@! TD*
D11*
G04 #@! TO.C,BAT1*
X150375620Y-112925860D03*
D12*
X152387300Y-112923320D03*
G04 #@! TD*
D13*
G04 #@! TO.C,C1*
X149352000Y-106172000D03*
X151384000Y-106172000D03*
G04 #@! TD*
D14*
G04 #@! TO.C,C2*
X134874000Y-97536000D03*
X133096000Y-97536000D03*
G04 #@! TD*
G04 #@! TO.C,C3*
X133096000Y-103378000D03*
X134874000Y-103378000D03*
G04 #@! TD*
G04 #@! TO.C,C4*
X145415000Y-94234000D03*
X143637000Y-94234000D03*
G04 #@! TD*
G04 #@! TO.C,C5*
X133096000Y-95758000D03*
X134874000Y-95758000D03*
G04 #@! TD*
D13*
G04 #@! TO.C,C6*
X142113000Y-109093000D03*
X140081000Y-109093000D03*
G04 #@! TD*
G04 #@! TO.C,C7*
X138303000Y-109093000D03*
X136271000Y-109093000D03*
G04 #@! TD*
D15*
G04 #@! TO.C,CHARGING1*
X153924000Y-107315000D03*
X153924000Y-105791000D03*
G04 #@! TD*
D16*
G04 #@! TO.C,D1*
X137160000Y-117943000D03*
X137160000Y-112943000D03*
G04 #@! TD*
D17*
G04 #@! TO.C,D2*
X148376000Y-103378000D03*
X153376000Y-103378000D03*
G04 #@! TD*
D18*
G04 #@! TO.C,EXT1*
X130810000Y-80010000D03*
X130810000Y-77470000D03*
X130810000Y-74930000D03*
D19*
X130810000Y-72390000D03*
D18*
X130810000Y-82550000D03*
X130810000Y-85090000D03*
X130810000Y-90170000D03*
X130810000Y-87630000D03*
X130810000Y-92710000D03*
X130810000Y-95250000D03*
X130810000Y-100330000D03*
X130810000Y-97790000D03*
X130810000Y-102870000D03*
X130810000Y-105410000D03*
X130810000Y-110490000D03*
X130810000Y-107950000D03*
X130810000Y-118110000D03*
X130810000Y-115570000D03*
X130810000Y-113030000D03*
G04 #@! TD*
G04 #@! TO.C,EXT2*
X156210000Y-80010000D03*
X156210000Y-77470000D03*
X156210000Y-74930000D03*
D19*
X156210000Y-72390000D03*
D18*
X156210000Y-82550000D03*
X156210000Y-85090000D03*
X156210000Y-90170000D03*
X156210000Y-87630000D03*
X156210000Y-92710000D03*
X156210000Y-95250000D03*
X156210000Y-100330000D03*
X156210000Y-97790000D03*
X156210000Y-102870000D03*
X156210000Y-105410000D03*
X156210000Y-110490000D03*
X156210000Y-107950000D03*
X156210000Y-118110000D03*
X156210000Y-115570000D03*
X156210000Y-113030000D03*
G04 #@! TD*
D20*
G04 #@! TO.C,FET1*
X147253960Y-105318560D03*
X145351500Y-105318560D03*
X146306540Y-107528360D03*
G04 #@! TD*
D21*
G04 #@! TO.C,FID1*
X151765000Y-116205000D03*
G04 #@! TD*
G04 #@! TO.C,FID2*
X151765000Y-92710000D03*
G04 #@! TD*
G04 #@! TO.C,FID3*
X135255000Y-92710000D03*
G04 #@! TD*
D22*
G04 #@! TO.C,L1*
X136087000Y-106172000D03*
X138487000Y-106172000D03*
G04 #@! TD*
D15*
G04 #@! TO.C,PWRLED1*
X133096000Y-107315000D03*
X133096000Y-105791000D03*
G04 #@! TD*
D20*
G04 #@! TO.C,Q2*
X148910040Y-97119440D03*
X150812500Y-97119440D03*
X149857460Y-94909640D03*
G04 #@! TD*
G04 #@! TO.C,Q3*
X150809960Y-98841560D03*
X148907500Y-98841560D03*
X149862540Y-101051360D03*
G04 #@! TD*
D14*
G04 #@! TO.C,R1*
X134620000Y-110744000D03*
X134620000Y-108966000D03*
G04 #@! TD*
G04 #@! TO.C,R2*
X133096000Y-110744001D03*
X133096000Y-108966001D03*
G04 #@! TD*
G04 #@! TO.C,R3*
X153924000Y-110744000D03*
X153924000Y-108966000D03*
G04 #@! TD*
G04 #@! TO.C,R4*
X148590000Y-110236000D03*
X148590000Y-108458000D03*
G04 #@! TD*
G04 #@! TO.C,R5*
X145288000Y-109347000D03*
X147066000Y-109347000D03*
G04 #@! TD*
G04 #@! TO.C,R6*
X138938000Y-94234000D03*
X137160000Y-94234000D03*
G04 #@! TD*
G04 #@! TO.C,R7*
X142240000Y-94234000D03*
X140462000Y-94234000D03*
G04 #@! TD*
G04 #@! TO.C,R8*
X147320000Y-101092000D03*
X147320000Y-99314000D03*
G04 #@! TD*
G04 #@! TO.C,R9*
X147320000Y-95250000D03*
X147320000Y-97028000D03*
G04 #@! TD*
G04 #@! TO.C,R10*
X152400000Y-99187000D03*
X152400000Y-100965000D03*
G04 #@! TD*
G04 #@! TO.C,R11*
X143764000Y-104394000D03*
X143764000Y-106172000D03*
G04 #@! TD*
G04 #@! TO.C,R12*
X143764000Y-109347000D03*
X143764000Y-107569000D03*
G04 #@! TD*
G04 #@! TO.C,R13*
X132715000Y-75438000D03*
X132715000Y-73660000D03*
G04 #@! TD*
G04 #@! TO.C,R14*
X153924000Y-100965000D03*
X153924000Y-99187000D03*
G04 #@! TD*
D23*
G04 #@! TO.C,U1*
X149799000Y-110647000D03*
X150749000Y-110647000D03*
X151699000Y-110647000D03*
X149799000Y-108047000D03*
X151699000Y-108047000D03*
G04 #@! TD*
D24*
G04 #@! TO.C,U2*
X137731500Y-96643000D03*
X137731500Y-97293000D03*
X137731500Y-97943000D03*
X137731500Y-98593000D03*
X137731500Y-99243000D03*
X137731500Y-99893000D03*
X137731500Y-100543000D03*
X137731500Y-101193000D03*
X137731500Y-101843000D03*
X137731500Y-102493000D03*
X144970500Y-102493000D03*
X144970500Y-101843000D03*
X144970500Y-101193000D03*
X144970500Y-100543000D03*
X144970500Y-99893000D03*
X144970500Y-99243000D03*
X144970500Y-98593000D03*
X144970500Y-97943000D03*
X144970500Y-97293000D03*
X144970500Y-96643000D03*
G04 #@! TD*
D23*
G04 #@! TO.C,U3*
X142047000Y-104745000D03*
X141097000Y-104745000D03*
X140147000Y-104745000D03*
X142047000Y-107345000D03*
X140147000Y-107345000D03*
G04 #@! TD*
D20*
G04 #@! TO.C,U4*
X153035000Y-94912000D03*
X153985000Y-97112000D03*
X152085000Y-97112000D03*
G04 #@! TD*
D25*
G04 #@! TO.C,U5*
X141469600Y-82650800D03*
D26*
X143781000Y-80314000D03*
D27*
X143810000Y-80301000D03*
D28*
X152510000Y-72641000D03*
X152510000Y-73911000D03*
X152510000Y-75181000D03*
X152510000Y-76451000D03*
X152510000Y-77721000D03*
X152510000Y-78991000D03*
X152510000Y-80261000D03*
X152510000Y-81531000D03*
X152510000Y-82801000D03*
X152510000Y-84071000D03*
X152510000Y-85341000D03*
X152510000Y-86611000D03*
X152510000Y-87881000D03*
X152510000Y-89151000D03*
D29*
X149240000Y-90601000D03*
X147970000Y-90601000D03*
X146700000Y-90601000D03*
X145430000Y-90601000D03*
X144160000Y-90601000D03*
X142890000Y-90601000D03*
X141620000Y-90601000D03*
X140350000Y-90601000D03*
X139080000Y-90601000D03*
X137810000Y-90601000D03*
D28*
X134510000Y-89111000D03*
X134510000Y-87841000D03*
X134510000Y-86571000D03*
X134510000Y-85301000D03*
X134510000Y-84031000D03*
X134510000Y-82761000D03*
X134510000Y-81491000D03*
X134510000Y-80221000D03*
X134510000Y-78951000D03*
X134510000Y-77681000D03*
X134510000Y-76411000D03*
X134510000Y-75141000D03*
X134510000Y-73871000D03*
X134510000Y-72601000D03*
D25*
X146143200Y-82650800D03*
X141469600Y-77951800D03*
X146143200Y-77951800D03*
X143781000Y-77951800D03*
X143781000Y-82650800D03*
X141469600Y-80187000D03*
X146143200Y-80187000D03*
G04 #@! TD*
D30*
G04 #@! TO.C,USB-UART1*
X142210000Y-112797000D03*
X142860000Y-112797000D03*
X143510000Y-112797000D03*
X144160000Y-112797000D03*
X144810000Y-112797000D03*
D31*
X141510000Y-113797000D03*
X145510000Y-113797000D03*
D32*
X142010000Y-117097000D03*
X145010000Y-117097000D03*
D33*
X139910000Y-115947000D03*
X139910000Y-112477000D03*
X147110000Y-112477000D03*
X147110000Y-115947000D03*
G04 #@! TD*
D34*
G04 #@! TO.C,RST1*
X133135000Y-115570000D03*
X134835000Y-115570000D03*
D35*
X133985000Y-117670000D03*
X133985000Y-113470000D03*
G04 #@! TD*
M02*
