G04 #@! TF.GenerationSoftware,KiCad,Pcbnew,6.0.0-rc1-unknown-829ba27~65~ubuntu16.04.1*
G04 #@! TF.CreationDate,2018-07-19T14:52:38+03:00*
G04 #@! TF.ProjectId,ESP32-DevKit-Lipo_Rev_A,45535033322D4465764B69742D4C6970,A*
G04 #@! TF.SameCoordinates,Original*
G04 #@! TF.FileFunction,Copper,L1,Top,Mixed*
G04 #@! TF.FilePolarity,Positive*
%FSLAX46Y46*%
G04 Gerber Fmt 4.6, Leading zero omitted, Abs format (unit mm)*
G04 Created by KiCad (PCBNEW 6.0.0-rc1-unknown-829ba27~65~ubuntu16.04.1) date Thu Jul 19 14:52:38 2018*
%MOMM*%
%LPD*%
G01*
G04 APERTURE LIST*
G04 #@! TA.AperFunction,NonConductor*
%ADD10C,0.952500*%
G04 #@! TD*
G04 #@! TA.AperFunction,NonConductor*
%ADD11C,1.000000*%
G04 #@! TD*
G04 #@! TA.AperFunction,NonConductor*
%ADD12C,0.750000*%
G04 #@! TD*
G04 #@! TA.AperFunction,SMDPad,CuDef*
%ADD13R,1.200000X1.400000*%
G04 #@! TD*
G04 #@! TA.AperFunction,ComponentPad*
%ADD14R,1.400000X1.400000*%
G04 #@! TD*
G04 #@! TA.AperFunction,ComponentPad*
%ADD15C,1.400000*%
G04 #@! TD*
G04 #@! TA.AperFunction,SMDPad,CuDef*
%ADD16R,1.270000X1.524000*%
G04 #@! TD*
G04 #@! TA.AperFunction,SMDPad,CuDef*
%ADD17R,1.016000X1.016000*%
G04 #@! TD*
G04 #@! TA.AperFunction,SMDPad,CuDef*
%ADD18R,0.800000X0.800000*%
G04 #@! TD*
G04 #@! TA.AperFunction,SMDPad,CuDef*
%ADD19R,1.700000X2.000000*%
G04 #@! TD*
G04 #@! TA.AperFunction,SMDPad,CuDef*
%ADD20R,2.000000X1.700000*%
G04 #@! TD*
G04 #@! TA.AperFunction,ComponentPad*
%ADD21C,1.778000*%
G04 #@! TD*
G04 #@! TA.AperFunction,ComponentPad*
%ADD22R,1.778000X1.778000*%
G04 #@! TD*
G04 #@! TA.AperFunction,SMDPad,CuDef*
%ADD23R,1.000000X1.400000*%
G04 #@! TD*
G04 #@! TA.AperFunction,ConnectorPad*
%ADD24C,1.000000*%
G04 #@! TD*
G04 #@! TA.AperFunction,SMDPad,CuDef*
%ADD25R,1.600000X3.000000*%
G04 #@! TD*
G04 #@! TA.AperFunction,SMDPad,CuDef*
%ADD26R,0.550000X1.200000*%
G04 #@! TD*
G04 #@! TA.AperFunction,SMDPad,CuDef*
%ADD27R,1.270000X0.325000*%
G04 #@! TD*
G04 #@! TA.AperFunction,ComponentPad*
%ADD28C,1.300000*%
G04 #@! TD*
G04 #@! TA.AperFunction,ComponentPad*
%ADD29C,2.000000*%
G04 #@! TD*
G04 #@! TA.AperFunction,SMDPad,CuDef*
%ADD30R,6.000000X6.000000*%
G04 #@! TD*
G04 #@! TA.AperFunction,SMDPad,CuDef*
%ADD31R,1.700000X0.900000*%
G04 #@! TD*
G04 #@! TA.AperFunction,SMDPad,CuDef*
%ADD32R,0.900000X1.700000*%
G04 #@! TD*
G04 #@! TA.AperFunction,SMDPad,CuDef*
%ADD33R,0.325000X2.150000*%
G04 #@! TD*
G04 #@! TA.AperFunction,SMDPad,CuDef*
%ADD34R,1.100000X1.000000*%
G04 #@! TD*
G04 #@! TA.AperFunction,ComponentPad*
%ADD35O,1.200000X1.800000*%
G04 #@! TD*
G04 #@! TA.AperFunction,SMDPad,CuDef*
%ADD36R,1.400000X1.500000*%
G04 #@! TD*
G04 #@! TA.AperFunction,ViaPad*
%ADD37C,1.000000*%
G04 #@! TD*
G04 #@! TA.AperFunction,ViaPad*
%ADD38C,0.700000*%
G04 #@! TD*
G04 #@! TA.AperFunction,Conductor*
%ADD39C,1.016000*%
G04 #@! TD*
G04 #@! TA.AperFunction,Conductor*
%ADD40C,0.508000*%
G04 #@! TD*
G04 #@! TA.AperFunction,Conductor*
%ADD41C,0.254000*%
G04 #@! TD*
G04 #@! TA.AperFunction,Conductor*
%ADD42C,0.762000*%
G04 #@! TD*
G04 #@! TA.AperFunction,Conductor*
%ADD43C,1.270000*%
G04 #@! TD*
G04 #@! TA.AperFunction,Conductor*
%ADD44C,0.127000*%
G04 #@! TD*
G04 APERTURE END LIST*
D10*
X88355714Y-146503571D02*
X88355714Y-142693571D01*
X89262857Y-142693571D01*
X89807142Y-142875000D01*
X90170000Y-143237857D01*
X90351428Y-143600714D01*
X90532857Y-144326428D01*
X90532857Y-144870714D01*
X90351428Y-145596428D01*
X90170000Y-145959285D01*
X89807142Y-146322142D01*
X89262857Y-146503571D01*
X88355714Y-146503571D01*
X92165714Y-146503571D02*
X92165714Y-143963571D01*
X92165714Y-142693571D02*
X91984285Y-142875000D01*
X92165714Y-143056428D01*
X92347142Y-142875000D01*
X92165714Y-142693571D01*
X92165714Y-143056428D01*
X93980000Y-146503571D02*
X93980000Y-143963571D01*
X93980000Y-144326428D02*
X94161428Y-144145000D01*
X94524285Y-143963571D01*
X95068571Y-143963571D01*
X95431428Y-144145000D01*
X95612857Y-144507857D01*
X95612857Y-146503571D01*
X95612857Y-144507857D02*
X95794285Y-144145000D01*
X96157142Y-143963571D01*
X96701428Y-143963571D01*
X97064285Y-144145000D01*
X97245714Y-144507857D01*
X97245714Y-146503571D01*
X100511428Y-146322142D02*
X100148571Y-146503571D01*
X99422857Y-146503571D01*
X99060000Y-146322142D01*
X98878571Y-145959285D01*
X98878571Y-144507857D01*
X99060000Y-144145000D01*
X99422857Y-143963571D01*
X100148571Y-143963571D01*
X100511428Y-144145000D01*
X100692857Y-144507857D01*
X100692857Y-144870714D01*
X98878571Y-145233571D01*
X102325714Y-143963571D02*
X102325714Y-146503571D01*
X102325714Y-144326428D02*
X102507142Y-144145000D01*
X102870000Y-143963571D01*
X103414285Y-143963571D01*
X103777142Y-144145000D01*
X103958571Y-144507857D01*
X103958571Y-146503571D01*
X105591428Y-146322142D02*
X105954285Y-146503571D01*
X106680000Y-146503571D01*
X107042857Y-146322142D01*
X107224285Y-145959285D01*
X107224285Y-145777857D01*
X107042857Y-145415000D01*
X106680000Y-145233571D01*
X106135714Y-145233571D01*
X105772857Y-145052142D01*
X105591428Y-144689285D01*
X105591428Y-144507857D01*
X105772857Y-144145000D01*
X106135714Y-143963571D01*
X106680000Y-143963571D01*
X107042857Y-144145000D01*
X108857142Y-146503571D02*
X108857142Y-143963571D01*
X108857142Y-142693571D02*
X108675714Y-142875000D01*
X108857142Y-143056428D01*
X109038571Y-142875000D01*
X108857142Y-142693571D01*
X108857142Y-143056428D01*
X111215714Y-146503571D02*
X110852857Y-146322142D01*
X110671428Y-146140714D01*
X110490000Y-145777857D01*
X110490000Y-144689285D01*
X110671428Y-144326428D01*
X110852857Y-144145000D01*
X111215714Y-143963571D01*
X111760000Y-143963571D01*
X112122857Y-144145000D01*
X112304285Y-144326428D01*
X112485714Y-144689285D01*
X112485714Y-145777857D01*
X112304285Y-146140714D01*
X112122857Y-146322142D01*
X111760000Y-146503571D01*
X111215714Y-146503571D01*
X114118571Y-143963571D02*
X114118571Y-146503571D01*
X114118571Y-144326428D02*
X114300000Y-144145000D01*
X114662857Y-143963571D01*
X115207142Y-143963571D01*
X115570000Y-144145000D01*
X115751428Y-144507857D01*
X115751428Y-146503571D01*
X117384285Y-146322142D02*
X117747142Y-146503571D01*
X118472857Y-146503571D01*
X118835714Y-146322142D01*
X119017142Y-145959285D01*
X119017142Y-145777857D01*
X118835714Y-145415000D01*
X118472857Y-145233571D01*
X117928571Y-145233571D01*
X117565714Y-145052142D01*
X117384285Y-144689285D01*
X117384285Y-144507857D01*
X117565714Y-144145000D01*
X117928571Y-143963571D01*
X118472857Y-143963571D01*
X118835714Y-144145000D01*
X120650000Y-146140714D02*
X120831428Y-146322142D01*
X120650000Y-146503571D01*
X120468571Y-146322142D01*
X120650000Y-146140714D01*
X120650000Y-146503571D01*
X120650000Y-144145000D02*
X120831428Y-144326428D01*
X120650000Y-144507857D01*
X120468571Y-144326428D01*
X120650000Y-144145000D01*
X120650000Y-144507857D01*
X127362857Y-146503571D02*
X125185714Y-146503571D01*
X126274285Y-146503571D02*
X126274285Y-142693571D01*
X125911428Y-143237857D01*
X125548571Y-143600714D01*
X125185714Y-143782142D01*
X128995714Y-146140714D02*
X129177142Y-146322142D01*
X128995714Y-146503571D01*
X128814285Y-146322142D01*
X128995714Y-146140714D01*
X128995714Y-146503571D01*
X132805714Y-146503571D02*
X130628571Y-146503571D01*
X131717142Y-146503571D02*
X131717142Y-142693571D01*
X131354285Y-143237857D01*
X130991428Y-143600714D01*
X130628571Y-143782142D01*
X134075714Y-146503571D02*
X136071428Y-143963571D01*
X134075714Y-143963571D02*
X136071428Y-146503571D01*
X139518571Y-146503571D02*
X137341428Y-146503571D01*
X138430000Y-146503571D02*
X138430000Y-142693571D01*
X138067142Y-143237857D01*
X137704285Y-143600714D01*
X137341428Y-143782142D01*
X141151428Y-146140714D02*
X141332857Y-146322142D01*
X141151428Y-146503571D01*
X140970000Y-146322142D01*
X141151428Y-146140714D01*
X141151428Y-146503571D01*
X143147142Y-146503571D02*
X143872857Y-146503571D01*
X144235714Y-146322142D01*
X144417142Y-146140714D01*
X144780000Y-145596428D01*
X144961428Y-144870714D01*
X144961428Y-143419285D01*
X144780000Y-143056428D01*
X144598571Y-142875000D01*
X144235714Y-142693571D01*
X143510000Y-142693571D01*
X143147142Y-142875000D01*
X142965714Y-143056428D01*
X142784285Y-143419285D01*
X142784285Y-144326428D01*
X142965714Y-144689285D01*
X143147142Y-144870714D01*
X143510000Y-145052142D01*
X144235714Y-145052142D01*
X144598571Y-144870714D01*
X144780000Y-144689285D01*
X144961428Y-144326428D01*
X146412857Y-142693571D02*
X146412857Y-143419285D01*
X147864285Y-142693571D02*
X147864285Y-143419285D01*
X150585714Y-147955000D02*
X150404285Y-147773571D01*
X150041428Y-147229285D01*
X149860000Y-146866428D01*
X149678571Y-146322142D01*
X149497142Y-145415000D01*
X149497142Y-144689285D01*
X149678571Y-143782142D01*
X149860000Y-143237857D01*
X150041428Y-142875000D01*
X150404285Y-142330714D01*
X150585714Y-142149285D01*
X151855714Y-143056428D02*
X152037142Y-142875000D01*
X152400000Y-142693571D01*
X153307142Y-142693571D01*
X153670000Y-142875000D01*
X153851428Y-143056428D01*
X154032857Y-143419285D01*
X154032857Y-143782142D01*
X153851428Y-144326428D01*
X151674285Y-146503571D01*
X154032857Y-146503571D01*
X155302857Y-142693571D02*
X157842857Y-142693571D01*
X156210000Y-146503571D01*
X159294285Y-146140714D02*
X159475714Y-146322142D01*
X159294285Y-146503571D01*
X159112857Y-146322142D01*
X159294285Y-146140714D01*
X159294285Y-146503571D01*
X161290000Y-146503571D02*
X162015714Y-146503571D01*
X162378571Y-146322142D01*
X162560000Y-146140714D01*
X162922857Y-145596428D01*
X163104285Y-144870714D01*
X163104285Y-143419285D01*
X162922857Y-143056428D01*
X162741428Y-142875000D01*
X162378571Y-142693571D01*
X161652857Y-142693571D01*
X161290000Y-142875000D01*
X161108571Y-143056428D01*
X160927142Y-143419285D01*
X160927142Y-144326428D01*
X161108571Y-144689285D01*
X161290000Y-144870714D01*
X161652857Y-145052142D01*
X162378571Y-145052142D01*
X162741428Y-144870714D01*
X162922857Y-144689285D01*
X163104285Y-144326428D01*
X166370000Y-143963571D02*
X166370000Y-146503571D01*
X165462857Y-142512142D02*
X164555714Y-145233571D01*
X166914285Y-145233571D01*
X168002857Y-146503571D02*
X169998571Y-143963571D01*
X168002857Y-143963571D02*
X169998571Y-146503571D01*
X173082857Y-143963571D02*
X173082857Y-146503571D01*
X172175714Y-142512142D02*
X171268571Y-145233571D01*
X173627142Y-145233571D01*
X175622857Y-144326428D02*
X175260000Y-144145000D01*
X175078571Y-143963571D01*
X174897142Y-143600714D01*
X174897142Y-143419285D01*
X175078571Y-143056428D01*
X175260000Y-142875000D01*
X175622857Y-142693571D01*
X176348571Y-142693571D01*
X176711428Y-142875000D01*
X176892857Y-143056428D01*
X177074285Y-143419285D01*
X177074285Y-143600714D01*
X176892857Y-143963571D01*
X176711428Y-144145000D01*
X176348571Y-144326428D01*
X175622857Y-144326428D01*
X175260000Y-144507857D01*
X175078571Y-144689285D01*
X174897142Y-145052142D01*
X174897142Y-145777857D01*
X175078571Y-146140714D01*
X175260000Y-146322142D01*
X175622857Y-146503571D01*
X176348571Y-146503571D01*
X176711428Y-146322142D01*
X176892857Y-146140714D01*
X177074285Y-145777857D01*
X177074285Y-145052142D01*
X176892857Y-144689285D01*
X176711428Y-144507857D01*
X176348571Y-144326428D01*
X178707142Y-146140714D02*
X178888571Y-146322142D01*
X178707142Y-146503571D01*
X178525714Y-146322142D01*
X178707142Y-146140714D01*
X178707142Y-146503571D01*
X180340000Y-143056428D02*
X180521428Y-142875000D01*
X180884285Y-142693571D01*
X181791428Y-142693571D01*
X182154285Y-142875000D01*
X182335714Y-143056428D01*
X182517142Y-143419285D01*
X182517142Y-143782142D01*
X182335714Y-144326428D01*
X180158571Y-146503571D01*
X182517142Y-146503571D01*
X185782857Y-142693571D02*
X185057142Y-142693571D01*
X184694285Y-142875000D01*
X184512857Y-143056428D01*
X184150000Y-143600714D01*
X183968571Y-144326428D01*
X183968571Y-145777857D01*
X184150000Y-146140714D01*
X184331428Y-146322142D01*
X184694285Y-146503571D01*
X185420000Y-146503571D01*
X185782857Y-146322142D01*
X185964285Y-146140714D01*
X186145714Y-145777857D01*
X186145714Y-144870714D01*
X185964285Y-144507857D01*
X185782857Y-144326428D01*
X185420000Y-144145000D01*
X184694285Y-144145000D01*
X184331428Y-144326428D01*
X184150000Y-144507857D01*
X183968571Y-144870714D01*
X187778571Y-146503571D02*
X187778571Y-143963571D01*
X187778571Y-144326428D02*
X187960000Y-144145000D01*
X188322857Y-143963571D01*
X188867142Y-143963571D01*
X189230000Y-144145000D01*
X189411428Y-144507857D01*
X189411428Y-146503571D01*
X189411428Y-144507857D02*
X189592857Y-144145000D01*
X189955714Y-143963571D01*
X190500000Y-143963571D01*
X190862857Y-144145000D01*
X191044285Y-144507857D01*
X191044285Y-146503571D01*
X192858571Y-146503571D02*
X192858571Y-143963571D01*
X192858571Y-144326428D02*
X193040000Y-144145000D01*
X193402857Y-143963571D01*
X193947142Y-143963571D01*
X194310000Y-144145000D01*
X194491428Y-144507857D01*
X194491428Y-146503571D01*
X194491428Y-144507857D02*
X194672857Y-144145000D01*
X195035714Y-143963571D01*
X195580000Y-143963571D01*
X195942857Y-144145000D01*
X196124285Y-144507857D01*
X196124285Y-146503571D01*
X197575714Y-147955000D02*
X197757142Y-147773571D01*
X198120000Y-147229285D01*
X198301428Y-146866428D01*
X198482857Y-146322142D01*
X198664285Y-145415000D01*
X198664285Y-144689285D01*
X198482857Y-143782142D01*
X198301428Y-143237857D01*
X198120000Y-142875000D01*
X197757142Y-142330714D01*
X197575714Y-142149285D01*
D11*
X118867142Y-131088095D02*
X119105238Y-130850000D01*
X119581428Y-130611904D01*
X120771904Y-130611904D01*
X121248095Y-130850000D01*
X121486190Y-131088095D01*
X121724285Y-131564285D01*
X121724285Y-132040476D01*
X121486190Y-132754761D01*
X118629047Y-135611904D01*
X121724285Y-135611904D01*
X130057619Y-135611904D02*
X127676666Y-135611904D01*
X127676666Y-130611904D01*
X133867142Y-135611904D02*
X133867142Y-132992857D01*
X133629047Y-132516666D01*
X133152857Y-132278571D01*
X132200476Y-132278571D01*
X131724285Y-132516666D01*
X133867142Y-135373809D02*
X133390952Y-135611904D01*
X132200476Y-135611904D01*
X131724285Y-135373809D01*
X131486190Y-134897619D01*
X131486190Y-134421428D01*
X131724285Y-133945238D01*
X132200476Y-133707142D01*
X133390952Y-133707142D01*
X133867142Y-133469047D01*
X135771904Y-132278571D02*
X136962380Y-135611904D01*
X138152857Y-132278571D02*
X136962380Y-135611904D01*
X136486190Y-136802380D01*
X136248095Y-137040476D01*
X135771904Y-137278571D01*
X141962380Y-135373809D02*
X141486190Y-135611904D01*
X140533809Y-135611904D01*
X140057619Y-135373809D01*
X139819523Y-134897619D01*
X139819523Y-132992857D01*
X140057619Y-132516666D01*
X140533809Y-132278571D01*
X141486190Y-132278571D01*
X141962380Y-132516666D01*
X142200476Y-132992857D01*
X142200476Y-133469047D01*
X139819523Y-133945238D01*
X144343333Y-135611904D02*
X144343333Y-132278571D01*
X144343333Y-133230952D02*
X144581428Y-132754761D01*
X144819523Y-132516666D01*
X145295714Y-132278571D01*
X145771904Y-132278571D01*
X147200476Y-135373809D02*
X147676666Y-135611904D01*
X148629047Y-135611904D01*
X149105238Y-135373809D01*
X149343333Y-134897619D01*
X149343333Y-134659523D01*
X149105238Y-134183333D01*
X148629047Y-133945238D01*
X147914761Y-133945238D01*
X147438571Y-133707142D01*
X147200476Y-133230952D01*
X147200476Y-132992857D01*
X147438571Y-132516666D01*
X147914761Y-132278571D01*
X148629047Y-132278571D01*
X149105238Y-132516666D01*
X155295714Y-135611904D02*
X155295714Y-130611904D01*
X157200476Y-130611904D01*
X157676666Y-130850000D01*
X157914761Y-131088095D01*
X158152857Y-131564285D01*
X158152857Y-132278571D01*
X157914761Y-132754761D01*
X157676666Y-132992857D01*
X157200476Y-133230952D01*
X155295714Y-133230952D01*
X163152857Y-135135714D02*
X162914761Y-135373809D01*
X162200476Y-135611904D01*
X161724285Y-135611904D01*
X161010000Y-135373809D01*
X160533809Y-134897619D01*
X160295714Y-134421428D01*
X160057619Y-133469047D01*
X160057619Y-132754761D01*
X160295714Y-131802380D01*
X160533809Y-131326190D01*
X161010000Y-130850000D01*
X161724285Y-130611904D01*
X162200476Y-130611904D01*
X162914761Y-130850000D01*
X163152857Y-131088095D01*
X166962380Y-132992857D02*
X167676666Y-133230952D01*
X167914761Y-133469047D01*
X168152857Y-133945238D01*
X168152857Y-134659523D01*
X167914761Y-135135714D01*
X167676666Y-135373809D01*
X167200476Y-135611904D01*
X165295714Y-135611904D01*
X165295714Y-130611904D01*
X166962380Y-130611904D01*
X167438571Y-130850000D01*
X167676666Y-131088095D01*
X167914761Y-131564285D01*
X167914761Y-132040476D01*
X167676666Y-132516666D01*
X167438571Y-132754761D01*
X166962380Y-132992857D01*
X165295714Y-132992857D01*
D12*
X105994285Y-153127142D02*
X105994285Y-156127142D01*
X104279999Y-153127142D02*
X104279999Y-156127142D01*
X106279999Y-156127142D01*
X106279999Y-156841428D01*
X108565714Y-155984285D02*
X108279999Y-156127142D01*
X107708571Y-156127142D01*
X107422857Y-155984285D01*
X107279999Y-155698571D01*
X107279999Y-154555714D01*
X107422857Y-154270000D01*
X107708571Y-154127142D01*
X108279999Y-154127142D01*
X108565714Y-154270000D01*
X108708571Y-154555714D01*
X108708571Y-154841428D01*
X107279999Y-155127142D01*
X111279999Y-154127142D02*
X111279999Y-156127142D01*
X109994285Y-154127142D02*
X109994285Y-156127142D01*
X111565714Y-156127142D01*
X111565714Y-156841428D01*
X113137142Y-156127142D02*
X112851428Y-155984285D01*
X112708571Y-155841428D01*
X112565714Y-155555714D01*
X112565714Y-154698571D01*
X112708571Y-154412857D01*
X112851428Y-154270000D01*
X113137142Y-154127142D01*
X113565714Y-154127142D01*
X113851428Y-154270000D01*
X113994285Y-154412857D01*
X114137142Y-154698571D01*
X114137142Y-155555714D01*
X113994285Y-155841428D01*
X113851428Y-155984285D01*
X113565714Y-156127142D01*
X113137142Y-156127142D01*
X115565714Y-155984285D02*
X115565714Y-156127142D01*
X115422857Y-156412857D01*
X115279999Y-156555714D01*
X119137142Y-156127142D02*
X119137142Y-154127142D01*
X120422857Y-154127142D01*
X120422857Y-156127142D01*
X123137142Y-156127142D02*
X123137142Y-154555714D01*
X122994285Y-154270000D01*
X122708571Y-154127142D01*
X122137142Y-154127142D01*
X121851428Y-154270000D01*
X123137142Y-155984285D02*
X122851428Y-156127142D01*
X122137142Y-156127142D01*
X121851428Y-155984285D01*
X121708571Y-155698571D01*
X121708571Y-155412857D01*
X121851428Y-155127142D01*
X122137142Y-154984285D01*
X122851428Y-154984285D01*
X123137142Y-154841428D01*
X124565714Y-155127142D02*
X125851428Y-155127142D01*
X124565714Y-154127142D02*
X124565714Y-156127142D01*
X125851428Y-154127142D02*
X125851428Y-156127142D01*
X128422857Y-155984285D02*
X128137142Y-156127142D01*
X127565714Y-156127142D01*
X127279999Y-155984285D01*
X127137142Y-155698571D01*
X127137142Y-154555714D01*
X127279999Y-154270000D01*
X127565714Y-154127142D01*
X128137142Y-154127142D01*
X128422857Y-154270000D01*
X128565714Y-154555714D01*
X128565714Y-154841428D01*
X127137142Y-155127142D01*
X130994285Y-156127142D02*
X130994285Y-154127142D01*
X130565714Y-154127142D01*
X130279999Y-154270000D01*
X130137142Y-154555714D01*
X129994285Y-155698571D01*
X129851428Y-155984285D01*
X129565714Y-156127142D01*
X132422857Y-154127142D02*
X132422857Y-156127142D01*
X133851428Y-154127142D01*
X133851428Y-156127142D01*
X135565714Y-155127142D02*
X135851428Y-155127142D01*
X134994285Y-154270000D02*
X135279999Y-154127142D01*
X135851428Y-154127142D01*
X136137142Y-154270000D01*
X136279999Y-154555714D01*
X136279999Y-154698571D01*
X136137142Y-154984285D01*
X135851428Y-155127142D01*
X136137142Y-155270000D01*
X136279999Y-155555714D01*
X136279999Y-155698571D01*
X136137142Y-155984285D01*
X135851428Y-156127142D01*
X135279999Y-156127142D01*
X134994285Y-155984285D01*
X137565714Y-154127142D02*
X137565714Y-156127142D01*
X138994285Y-154127142D01*
X138994285Y-156127142D01*
X140422857Y-154127142D02*
X140422857Y-157127142D01*
X140422857Y-154270000D02*
X140708571Y-154127142D01*
X141280000Y-154127142D01*
X141565714Y-154270000D01*
X141708571Y-154412857D01*
X141851428Y-154698571D01*
X141851428Y-155555714D01*
X141708571Y-155841428D01*
X141565714Y-155984285D01*
X141280000Y-156127142D01*
X140708571Y-156127142D01*
X140422857Y-155984285D01*
X144422857Y-156127142D02*
X144422857Y-154555714D01*
X144280000Y-154270000D01*
X143994285Y-154127142D01*
X143422857Y-154127142D01*
X143137142Y-154270000D01*
X144422857Y-155984285D02*
X144137142Y-156127142D01*
X143422857Y-156127142D01*
X143137142Y-155984285D01*
X142994285Y-155698571D01*
X142994285Y-155412857D01*
X143137142Y-155127142D01*
X143422857Y-154984285D01*
X144137142Y-154984285D01*
X144422857Y-154841428D01*
X145851428Y-154127142D02*
X145851428Y-156127142D01*
X147280000Y-154127142D01*
X147280000Y-156127142D01*
X145994285Y-152984285D02*
X146137142Y-153270000D01*
X146422857Y-153412857D01*
X146708571Y-153412857D01*
X146994285Y-153270000D01*
X147137142Y-152984285D01*
X150994285Y-156127142D02*
X150994285Y-154127142D01*
X152280000Y-154127142D01*
X152280000Y-156127142D01*
X154851428Y-156127142D02*
X154851428Y-154127142D01*
X154422857Y-154127142D01*
X154137142Y-154270000D01*
X153994285Y-154555714D01*
X153851428Y-155698571D01*
X153708571Y-155984285D01*
X153422857Y-156127142D01*
X157565714Y-156127142D02*
X157565714Y-154555714D01*
X157422857Y-154270000D01*
X157137142Y-154127142D01*
X156565714Y-154127142D01*
X156280000Y-154270000D01*
X157565714Y-155984285D02*
X157280000Y-156127142D01*
X156565714Y-156127142D01*
X156280000Y-155984285D01*
X156137142Y-155698571D01*
X156137142Y-155412857D01*
X156280000Y-155127142D01*
X156565714Y-154984285D01*
X157280000Y-154984285D01*
X157565714Y-154841428D01*
X158565714Y-154127142D02*
X159994285Y-154127142D01*
X159280000Y-154127142D02*
X159280000Y-156127142D01*
X160994285Y-154127142D02*
X160994285Y-156127142D01*
X161280000Y-154984285D02*
X162137142Y-156127142D01*
X162137142Y-154127142D02*
X160994285Y-155270000D01*
X164708571Y-156127142D02*
X164708571Y-154555714D01*
X164565714Y-154270000D01*
X164280000Y-154127142D01*
X163708571Y-154127142D01*
X163422857Y-154270000D01*
X164708571Y-155984285D02*
X164422857Y-156127142D01*
X163708571Y-156127142D01*
X163422857Y-155984285D01*
X163280000Y-155698571D01*
X163280000Y-155412857D01*
X163422857Y-155127142D01*
X163708571Y-154984285D01*
X164422857Y-154984285D01*
X164708571Y-154841428D01*
X165708571Y-154127142D02*
X167137142Y-154127142D01*
X166422857Y-154127142D02*
X166422857Y-156127142D01*
X169422857Y-156127142D02*
X169422857Y-154555714D01*
X169280000Y-154270000D01*
X168994285Y-154127142D01*
X168422857Y-154127142D01*
X168137142Y-154270000D01*
X169422857Y-155984285D02*
X169137142Y-156127142D01*
X168422857Y-156127142D01*
X168137142Y-155984285D01*
X167994285Y-155698571D01*
X167994285Y-155412857D01*
X168137142Y-155127142D01*
X168422857Y-154984285D01*
X169137142Y-154984285D01*
X169422857Y-154841428D01*
X172708571Y-154127142D02*
X174137142Y-154127142D01*
X173422857Y-154127142D02*
X173422857Y-156127142D01*
X176422857Y-156127142D02*
X176422857Y-154555714D01*
X176280000Y-154270000D01*
X175994285Y-154127142D01*
X175422857Y-154127142D01*
X175137142Y-154270000D01*
X176422857Y-155984285D02*
X176137142Y-156127142D01*
X175422857Y-156127142D01*
X175137142Y-155984285D01*
X174994285Y-155698571D01*
X174994285Y-155412857D01*
X175137142Y-155127142D01*
X175422857Y-154984285D01*
X176137142Y-154984285D01*
X176422857Y-154841428D01*
X177851428Y-154127142D02*
X177851428Y-156127142D01*
X178137142Y-154984285D02*
X178994285Y-156127142D01*
X178994285Y-154127142D02*
X177851428Y-155270000D01*
X181565714Y-156127142D02*
X181565714Y-154555714D01*
X181422857Y-154270000D01*
X181137142Y-154127142D01*
X180565714Y-154127142D01*
X180280000Y-154270000D01*
X181565714Y-155984285D02*
X181280000Y-156127142D01*
X180565714Y-156127142D01*
X180280000Y-155984285D01*
X180137142Y-155698571D01*
X180137142Y-155412857D01*
X180280000Y-155127142D01*
X180565714Y-154984285D01*
X181280000Y-154984285D01*
X181565714Y-154841428D01*
X183137142Y-155984285D02*
X183137142Y-156127142D01*
X182994285Y-156412857D01*
X182851428Y-156555714D01*
X113851428Y-159377142D02*
X113851428Y-161377142D01*
X112708571Y-159377142D02*
X112708571Y-160091428D01*
X112851428Y-160377142D01*
X113137142Y-160520000D01*
X113851428Y-160520000D01*
X116565714Y-161234285D02*
X116280000Y-161377142D01*
X115708571Y-161377142D01*
X115422857Y-161234285D01*
X115280000Y-160948571D01*
X115280000Y-159805714D01*
X115422857Y-159520000D01*
X115708571Y-159377142D01*
X116280000Y-159377142D01*
X116565714Y-159520000D01*
X116708571Y-159805714D01*
X116708571Y-160091428D01*
X115280000Y-160377142D01*
X121565714Y-161377142D02*
X121565714Y-159805714D01*
X121422857Y-159520000D01*
X121137142Y-159377142D01*
X120565714Y-159377142D01*
X120280000Y-159520000D01*
X121565714Y-161234285D02*
X121280000Y-161377142D01*
X120565714Y-161377142D01*
X120280000Y-161234285D01*
X120137142Y-160948571D01*
X120137142Y-160662857D01*
X120280000Y-160377142D01*
X120565714Y-160234285D01*
X121280000Y-160234285D01*
X121565714Y-160091428D01*
X122994285Y-160377142D02*
X124280000Y-160377142D01*
X122994285Y-159377142D02*
X122994285Y-161377142D01*
X124280000Y-159377142D02*
X124280000Y-161377142D01*
X125280000Y-159377142D02*
X126708571Y-159377142D01*
X125994285Y-159377142D02*
X125994285Y-161377142D01*
X128851428Y-161234285D02*
X128565714Y-161377142D01*
X127994285Y-161377142D01*
X127708571Y-161234285D01*
X127565714Y-160948571D01*
X127565714Y-159805714D01*
X127708571Y-159520000D01*
X127994285Y-159377142D01*
X128565714Y-159377142D01*
X128851428Y-159520000D01*
X128994285Y-159805714D01*
X128994285Y-160091428D01*
X127565714Y-160377142D01*
X130280000Y-160377142D02*
X131565714Y-160377142D01*
X130280000Y-159377142D02*
X130280000Y-161377142D01*
X131565714Y-159377142D02*
X131565714Y-161377142D01*
X134280000Y-161377142D02*
X134280000Y-159805714D01*
X134137142Y-159520000D01*
X133851428Y-159377142D01*
X133280000Y-159377142D01*
X132994285Y-159520000D01*
X134280000Y-161234285D02*
X133994285Y-161377142D01*
X133280000Y-161377142D01*
X132994285Y-161234285D01*
X132851428Y-160948571D01*
X132851428Y-160662857D01*
X132994285Y-160377142D01*
X133280000Y-160234285D01*
X133994285Y-160234285D01*
X134280000Y-160091428D01*
X135280000Y-159377142D02*
X136708571Y-159377142D01*
X135994285Y-159377142D02*
X135994285Y-161377142D01*
X138994285Y-161377142D02*
X138994285Y-159805714D01*
X138851428Y-159520000D01*
X138565714Y-159377142D01*
X137994285Y-159377142D01*
X137708571Y-159520000D01*
X138994285Y-161234285D02*
X138708571Y-161377142D01*
X137994285Y-161377142D01*
X137708571Y-161234285D01*
X137565714Y-160948571D01*
X137565714Y-160662857D01*
X137708571Y-160377142D01*
X137994285Y-160234285D01*
X138708571Y-160234285D01*
X138994285Y-160091428D01*
X144137142Y-159662857D02*
X143994285Y-159520000D01*
X143708571Y-159377142D01*
X143137142Y-159377142D01*
X142851428Y-159520000D01*
X142708571Y-159662857D01*
X142565714Y-159948571D01*
X142565714Y-160805714D01*
X142708571Y-161091428D01*
X142851428Y-161234285D01*
X143137142Y-161377142D01*
X143565714Y-161377142D01*
X143851428Y-161234285D01*
X143994285Y-161091428D01*
X144137142Y-160805714D01*
X144137142Y-158948571D01*
X143994285Y-158662857D01*
X143851428Y-158520000D01*
X143565714Y-158377142D01*
X142994285Y-158377142D01*
X142708571Y-158520000D01*
X146708571Y-161377142D02*
X146708571Y-159805714D01*
X146565714Y-159520000D01*
X146280000Y-159377142D01*
X145708571Y-159377142D01*
X145422857Y-159520000D01*
X146708571Y-161234285D02*
X146422857Y-161377142D01*
X145708571Y-161377142D01*
X145422857Y-161234285D01*
X145280000Y-160948571D01*
X145280000Y-160662857D01*
X145422857Y-160377142D01*
X145708571Y-160234285D01*
X146422857Y-160234285D01*
X146708571Y-160091428D01*
X150422857Y-160377142D02*
X151708571Y-160377142D01*
X150422857Y-159377142D02*
X150422857Y-161377142D01*
X151708571Y-159377142D02*
X151708571Y-161377142D01*
X154280000Y-161234285D02*
X153994285Y-161377142D01*
X153422857Y-161377142D01*
X153137142Y-161234285D01*
X152994285Y-160948571D01*
X152994285Y-159805714D01*
X153137142Y-159520000D01*
X153422857Y-159377142D01*
X153994285Y-159377142D01*
X154280000Y-159520000D01*
X154422857Y-159805714D01*
X154422857Y-160091428D01*
X152994285Y-160377142D01*
X158280000Y-160377142D02*
X158565714Y-160377142D01*
X157708571Y-159520000D02*
X157994285Y-159377142D01*
X158565714Y-159377142D01*
X158851428Y-159520000D01*
X158994285Y-159805714D01*
X158994285Y-159948571D01*
X158851428Y-160234285D01*
X158565714Y-160377142D01*
X158851428Y-160520000D01*
X158994285Y-160805714D01*
X158994285Y-160948571D01*
X158851428Y-161234285D01*
X158565714Y-161377142D01*
X157994285Y-161377142D01*
X157708571Y-161234285D01*
X161565714Y-161377142D02*
X161565714Y-159805714D01*
X161422857Y-159520000D01*
X161137142Y-159377142D01*
X160565714Y-159377142D01*
X160280000Y-159520000D01*
X161565714Y-161234285D02*
X161280000Y-161377142D01*
X160565714Y-161377142D01*
X160280000Y-161234285D01*
X160137142Y-160948571D01*
X160137142Y-160662857D01*
X160280000Y-160377142D01*
X160565714Y-160234285D01*
X161280000Y-160234285D01*
X161565714Y-160091428D01*
X164280000Y-161234285D02*
X163994285Y-161377142D01*
X163422857Y-161377142D01*
X163137142Y-161234285D01*
X162994285Y-161091428D01*
X162851428Y-160805714D01*
X162851428Y-159948571D01*
X162994285Y-159662857D01*
X163137142Y-159520000D01*
X163422857Y-159377142D01*
X163994285Y-159377142D01*
X164280000Y-159520000D01*
X165137142Y-159377142D02*
X166565714Y-159377142D01*
X165851428Y-159377142D02*
X165851428Y-161377142D01*
X167137142Y-159377142D02*
X167708571Y-159377142D01*
X167708571Y-161377142D01*
X168422857Y-161377142D01*
X168708571Y-161234285D01*
X168851428Y-160948571D01*
X168851428Y-160520000D01*
X168708571Y-160234285D01*
X168422857Y-160091428D01*
X167708571Y-160091428D01*
X170137142Y-161377142D02*
X170137142Y-159377142D01*
X171422857Y-159377142D01*
X171422857Y-161377142D01*
X173565714Y-160377142D02*
X173994285Y-160520000D01*
X174137142Y-160805714D01*
X174137142Y-160948571D01*
X173994285Y-161234285D01*
X173708571Y-161377142D01*
X172851428Y-161377142D01*
X172851428Y-159377142D01*
X173565714Y-159377142D01*
X173851428Y-159520000D01*
X173994285Y-159805714D01*
X173994285Y-159948571D01*
X173851428Y-160234285D01*
X173565714Y-160377142D01*
X172851428Y-160377142D01*
X176708571Y-161377142D02*
X176708571Y-159805714D01*
X176565714Y-159520000D01*
X176280000Y-159377142D01*
X175708571Y-159377142D01*
X175422857Y-159520000D01*
X176708571Y-161234285D02*
X176422857Y-161377142D01*
X175708571Y-161377142D01*
X175422857Y-161234285D01*
X175280000Y-160948571D01*
X175280000Y-160662857D01*
X175422857Y-160377142D01*
X175708571Y-160234285D01*
X176422857Y-160234285D01*
X176708571Y-160091428D01*
X114137142Y-163627142D02*
X114137142Y-166055714D01*
X114280000Y-166341428D01*
X114422857Y-166484285D01*
X114708571Y-166627142D01*
X115280000Y-166627142D01*
X115565714Y-166484285D01*
X115708571Y-166341428D01*
X115851428Y-166055714D01*
X115851428Y-163627142D01*
X117137142Y-166484285D02*
X117565714Y-166627142D01*
X118280000Y-166627142D01*
X118565714Y-166484285D01*
X118708571Y-166341428D01*
X118851428Y-166055714D01*
X118851428Y-165770000D01*
X118708571Y-165484285D01*
X118565714Y-165341428D01*
X118280000Y-165198571D01*
X117708571Y-165055714D01*
X117422857Y-164912857D01*
X117280000Y-164770000D01*
X117137142Y-164484285D01*
X117137142Y-164198571D01*
X117280000Y-163912857D01*
X117422857Y-163770000D01*
X117708571Y-163627142D01*
X118422857Y-163627142D01*
X118851428Y-163770000D01*
X121137142Y-165055714D02*
X121565714Y-165198571D01*
X121708571Y-165341428D01*
X121851428Y-165627142D01*
X121851428Y-166055714D01*
X121708571Y-166341428D01*
X121565714Y-166484285D01*
X121280000Y-166627142D01*
X120137142Y-166627142D01*
X120137142Y-163627142D01*
X121137142Y-163627142D01*
X121422857Y-163770000D01*
X121565714Y-163912857D01*
X121708571Y-164198571D01*
X121708571Y-164484285D01*
X121565714Y-164770000D01*
X121422857Y-164912857D01*
X121137142Y-165055714D01*
X120137142Y-165055714D01*
X123137142Y-165484285D02*
X125422857Y-165484285D01*
X126422857Y-164627142D02*
X127851428Y-164627142D01*
X127137142Y-164627142D02*
X127137142Y-166627142D01*
X129280000Y-166627142D02*
X128994285Y-166484285D01*
X128851428Y-166341428D01*
X128708571Y-166055714D01*
X128708571Y-165198571D01*
X128851428Y-164912857D01*
X128994285Y-164770000D01*
X129280000Y-164627142D01*
X129708571Y-164627142D01*
X129994285Y-164770000D01*
X130137142Y-164912857D01*
X130280000Y-165198571D01*
X130280000Y-166055714D01*
X130137142Y-166341428D01*
X129994285Y-166484285D01*
X129708571Y-166627142D01*
X129280000Y-166627142D01*
X131708571Y-166484285D02*
X131708571Y-166627142D01*
X131565714Y-166912857D01*
X131422857Y-167055714D01*
X136708571Y-163627142D02*
X135280000Y-163627142D01*
X135280000Y-166627142D01*
X136137142Y-166627142D01*
X136565714Y-166484285D01*
X136851428Y-166198571D01*
X136994285Y-165912857D01*
X136994285Y-165484285D01*
X136851428Y-165198571D01*
X136565714Y-164912857D01*
X136137142Y-164770000D01*
X135280000Y-164770000D01*
X137994285Y-164627142D02*
X138708571Y-166627142D01*
X139422857Y-164627142D02*
X138708571Y-166627142D01*
X138422857Y-167341428D01*
X138280000Y-167484285D01*
X137994285Y-167627142D01*
X140137142Y-164627142D02*
X141565714Y-164627142D01*
X140851428Y-164627142D02*
X140851428Y-166627142D01*
X142994285Y-166627142D02*
X142708571Y-166484285D01*
X142565714Y-166341428D01*
X142422857Y-166055714D01*
X142422857Y-165198571D01*
X142565714Y-164912857D01*
X142708571Y-164770000D01*
X142994285Y-164627142D01*
X143422857Y-164627142D01*
X143708571Y-164770000D01*
X143851428Y-164912857D01*
X143994285Y-165198571D01*
X143994285Y-166055714D01*
X143851428Y-166341428D01*
X143708571Y-166484285D01*
X143422857Y-166627142D01*
X142994285Y-166627142D01*
X145280000Y-165627142D02*
X146565714Y-165627142D01*
X145280000Y-164627142D02*
X145280000Y-166627142D01*
X146565714Y-164627142D02*
X146565714Y-166627142D01*
X149280000Y-166627142D02*
X149280000Y-165055714D01*
X149137142Y-164770000D01*
X148851428Y-164627142D01*
X148280000Y-164627142D01*
X147994285Y-164770000D01*
X149280000Y-166484285D02*
X148994285Y-166627142D01*
X148280000Y-166627142D01*
X147994285Y-166484285D01*
X147851428Y-166198571D01*
X147851428Y-165912857D01*
X147994285Y-165627142D01*
X148280000Y-165484285D01*
X148994285Y-165484285D01*
X149280000Y-165341428D01*
X152994285Y-164627142D02*
X152994285Y-166627142D01*
X154422857Y-164627142D01*
X154422857Y-166627142D01*
X160422857Y-167341428D02*
X160422857Y-166627142D01*
X157851428Y-166627142D01*
X157851428Y-167341428D01*
X159851428Y-166627142D02*
X159851428Y-163627142D01*
X159137142Y-163627142D01*
X158851428Y-163770000D01*
X158708571Y-163912857D01*
X158565714Y-164198571D01*
X158280000Y-166627142D01*
X161565714Y-164627142D02*
X161565714Y-166627142D01*
X162994285Y-164627142D01*
X162994285Y-166627142D01*
X164851428Y-166627142D02*
X164565714Y-166484285D01*
X164422857Y-166341428D01*
X164280000Y-166055714D01*
X164280000Y-165198571D01*
X164422857Y-164912857D01*
X164565714Y-164770000D01*
X164851428Y-164627142D01*
X165280000Y-164627142D01*
X165565714Y-164770000D01*
X165708571Y-164912857D01*
X165851428Y-165198571D01*
X165851428Y-166055714D01*
X165708571Y-166341428D01*
X165565714Y-166484285D01*
X165280000Y-166627142D01*
X164851428Y-166627142D01*
X168565714Y-164912857D02*
X168422857Y-164770000D01*
X168137142Y-164627142D01*
X167565714Y-164627142D01*
X167280000Y-164770000D01*
X167137142Y-164912857D01*
X166994285Y-165198571D01*
X166994285Y-166055714D01*
X167137142Y-166341428D01*
X167280000Y-166484285D01*
X167565714Y-166627142D01*
X167994285Y-166627142D01*
X168280000Y-166484285D01*
X168422857Y-166341428D01*
X168565714Y-166055714D01*
X168565714Y-164198571D01*
X168422857Y-163912857D01*
X168280000Y-163770000D01*
X167994285Y-163627142D01*
X167422857Y-163627142D01*
X167137142Y-163770000D01*
X171137142Y-166627142D02*
X171137142Y-165055714D01*
X170994285Y-164770000D01*
X170708571Y-164627142D01*
X170137142Y-164627142D01*
X169851428Y-164770000D01*
X171137142Y-166484285D02*
X170851428Y-166627142D01*
X170137142Y-166627142D01*
X169851428Y-166484285D01*
X169708571Y-166198571D01*
X169708571Y-165912857D01*
X169851428Y-165627142D01*
X170137142Y-165484285D01*
X170851428Y-165484285D01*
X171137142Y-165341428D01*
X172565714Y-166341428D02*
X172708571Y-166484285D01*
X172565714Y-166627142D01*
X172422857Y-166484285D01*
X172565714Y-166341428D01*
X172565714Y-166627142D01*
X172565714Y-165484285D02*
X172422857Y-163770000D01*
X172565714Y-163627142D01*
X172708571Y-163770000D01*
X172565714Y-165484285D01*
X172565714Y-163627142D01*
X173994285Y-166341428D02*
X174137142Y-166484285D01*
X173994285Y-166627142D01*
X173851428Y-166484285D01*
X173994285Y-166341428D01*
X173994285Y-166627142D01*
X173994285Y-165484285D02*
X173851428Y-163770000D01*
X173994285Y-163627142D01*
X174137142Y-163770000D01*
X173994285Y-165484285D01*
X173994285Y-163627142D01*
X175422857Y-166341428D02*
X175565714Y-166484285D01*
X175422857Y-166627142D01*
X175280000Y-166484285D01*
X175422857Y-166341428D01*
X175422857Y-166627142D01*
X175422857Y-165484285D02*
X175280000Y-163770000D01*
X175422857Y-163627142D01*
X175565714Y-163770000D01*
X175422857Y-165484285D01*
X175422857Y-163627142D01*
D13*
G04 #@! TO.P,Q1,3*
G04 #@! TO.N,GND*
X134785000Y-99357000D03*
X133185000Y-101557000D03*
G04 #@! TO.P,Q1,2*
G04 #@! TO.N,Net-(C3-Pad1)*
X134785000Y-101557000D03*
G04 #@! TO.P,Q1,1*
G04 #@! TO.N,Net-(C2-Pad1)*
X133185000Y-99357000D03*
G04 #@! TD*
D14*
G04 #@! TO.P,BAT1,1*
G04 #@! TO.N,Net-(BAT1-Pad1)*
X150375620Y-112925860D03*
D15*
G04 #@! TO.P,BAT1,2*
G04 #@! TO.N,GND*
X152387300Y-112923320D03*
G04 #@! TD*
D16*
G04 #@! TO.P,C1,2*
G04 #@! TO.N,GND*
X149352000Y-106172000D03*
G04 #@! TO.P,C1,1*
G04 #@! TO.N,+5V*
X151384000Y-106172000D03*
G04 #@! TD*
D17*
G04 #@! TO.P,C2,2*
G04 #@! TO.N,GND*
X134874000Y-97536000D03*
G04 #@! TO.P,C2,1*
G04 #@! TO.N,Net-(C2-Pad1)*
X133096000Y-97536000D03*
G04 #@! TD*
G04 #@! TO.P,C3,2*
G04 #@! TO.N,GND*
X133096000Y-103378000D03*
G04 #@! TO.P,C3,1*
G04 #@! TO.N,Net-(C3-Pad1)*
X134874000Y-103378000D03*
G04 #@! TD*
G04 #@! TO.P,C4,2*
G04 #@! TO.N,GND*
X145415000Y-94234000D03*
G04 #@! TO.P,C4,1*
G04 #@! TO.N,+3V3*
X143637000Y-94234000D03*
G04 #@! TD*
G04 #@! TO.P,C5,2*
G04 #@! TO.N,GND*
X133096000Y-95758000D03*
G04 #@! TO.P,C5,1*
G04 #@! TO.N,+3V3*
X134874000Y-95758000D03*
G04 #@! TD*
D16*
G04 #@! TO.P,C6,2*
G04 #@! TO.N,GND*
X142113000Y-109093000D03*
G04 #@! TO.P,C6,1*
G04 #@! TO.N,Net-(C6-Pad1)*
X140081000Y-109093000D03*
G04 #@! TD*
G04 #@! TO.P,C7,2*
G04 #@! TO.N,GND*
X138303000Y-109093000D03*
G04 #@! TO.P,C7,1*
G04 #@! TO.N,+3V3*
X136271000Y-109093000D03*
G04 #@! TD*
D18*
G04 #@! TO.P,CHARGING1,1*
G04 #@! TO.N,Net-(CHARGING1-Pad1)*
X153924000Y-107315000D03*
G04 #@! TO.P,CHARGING1,2*
G04 #@! TO.N,+5V*
X153924000Y-105791000D03*
G04 #@! TD*
D19*
G04 #@! TO.P,D1,1*
G04 #@! TO.N,+5V*
X137160000Y-117943000D03*
G04 #@! TO.P,D1,2*
G04 #@! TO.N,/+5V_USB*
X137160000Y-112943000D03*
G04 #@! TD*
D20*
G04 #@! TO.P,D2,1*
G04 #@! TO.N,Net-(C6-Pad1)*
X148376000Y-103378000D03*
G04 #@! TO.P,D2,2*
G04 #@! TO.N,+5V*
X153376000Y-103378000D03*
G04 #@! TD*
D21*
G04 #@! TO.P,EXT1,4*
G04 #@! TO.N,/GPI39/SENSOR_VN*
X130810000Y-80010000D03*
G04 #@! TO.P,EXT1,3*
G04 #@! TO.N,/GPI36/SENSOR_VP*
X130810000Y-77470000D03*
G04 #@! TO.P,EXT1,2*
G04 #@! TO.N,/ESP_EN*
X130810000Y-74930000D03*
D22*
G04 #@! TO.P,EXT1,1*
G04 #@! TO.N,+3V3*
X130810000Y-72390000D03*
D21*
G04 #@! TO.P,EXT1,5*
G04 #@! TO.N,/GPI34*
X130810000Y-82550000D03*
G04 #@! TO.P,EXT1,6*
G04 #@! TO.N,/GPI35*
X130810000Y-85090000D03*
G04 #@! TO.P,EXT1,8*
G04 #@! TO.N,/GPIO33*
X130810000Y-90170000D03*
G04 #@! TO.P,EXT1,7*
G04 #@! TO.N,/GPIO32*
X130810000Y-87630000D03*
G04 #@! TO.P,EXT1,9*
G04 #@! TO.N,/GPIO25*
X130810000Y-92710000D03*
G04 #@! TO.P,EXT1,10*
G04 #@! TO.N,/GPIO26*
X130810000Y-95250000D03*
G04 #@! TO.P,EXT1,12*
G04 #@! TO.N,/GPIO14*
X130810000Y-100330000D03*
G04 #@! TO.P,EXT1,11*
G04 #@! TO.N,/GPIO27*
X130810000Y-97790000D03*
G04 #@! TO.P,EXT1,13*
G04 #@! TO.N,/GPIO12*
X130810000Y-102870000D03*
G04 #@! TO.P,EXT1,14*
G04 #@! TO.N,GND*
X130810000Y-105410000D03*
G04 #@! TO.P,EXT1,16*
G04 #@! TO.N,/GPIO9/SD_DATA2*
X130810000Y-110490000D03*
G04 #@! TO.P,EXT1,15*
G04 #@! TO.N,/GPIO13*
X130810000Y-107950000D03*
G04 #@! TO.P,EXT1,19*
G04 #@! TO.N,+5V*
X130810000Y-118110000D03*
G04 #@! TO.P,EXT1,18*
G04 #@! TO.N,/GPIO11/SD_CMD*
X130810000Y-115570000D03*
G04 #@! TO.P,EXT1,17*
G04 #@! TO.N,/GPIO10/SD_DATA3*
X130810000Y-113030000D03*
G04 #@! TD*
G04 #@! TO.P,EXT2,4*
G04 #@! TO.N,/GPIO1/U0TXD*
X156210000Y-80010000D03*
G04 #@! TO.P,EXT2,3*
G04 #@! TO.N,/GPIO22*
X156210000Y-77470000D03*
G04 #@! TO.P,EXT2,2*
G04 #@! TO.N,/GPIO23*
X156210000Y-74930000D03*
D22*
G04 #@! TO.P,EXT2,1*
G04 #@! TO.N,GND*
X156210000Y-72390000D03*
D21*
G04 #@! TO.P,EXT2,5*
G04 #@! TO.N,/GPIO3/U0RXD*
X156210000Y-82550000D03*
G04 #@! TO.P,EXT2,6*
G04 #@! TO.N,/GPIO21*
X156210000Y-85090000D03*
G04 #@! TO.P,EXT2,8*
G04 #@! TO.N,/GPIO19*
X156210000Y-90170000D03*
G04 #@! TO.P,EXT2,7*
G04 #@! TO.N,GND*
X156210000Y-87630000D03*
G04 #@! TO.P,EXT2,9*
G04 #@! TO.N,/GPIO18*
X156210000Y-92710000D03*
G04 #@! TO.P,EXT2,10*
G04 #@! TO.N,/GPIO5*
X156210000Y-95250000D03*
G04 #@! TO.P,EXT2,12*
G04 #@! TO.N,/GPIO16*
X156210000Y-100330000D03*
G04 #@! TO.P,EXT2,11*
G04 #@! TO.N,/GPIO17*
X156210000Y-97790000D03*
G04 #@! TO.P,EXT2,13*
G04 #@! TO.N,/GPIO4*
X156210000Y-102870000D03*
G04 #@! TO.P,EXT2,14*
G04 #@! TO.N,/GPIO0*
X156210000Y-105410000D03*
G04 #@! TO.P,EXT2,16*
G04 #@! TO.N,/GPIO15*
X156210000Y-110490000D03*
G04 #@! TO.P,EXT2,15*
G04 #@! TO.N,/GPIO2*
X156210000Y-107950000D03*
G04 #@! TO.P,EXT2,19*
G04 #@! TO.N,/GPIO6/SD_CLK*
X156210000Y-118110000D03*
G04 #@! TO.P,EXT2,18*
G04 #@! TO.N,/GPIO7/SD_DATA0*
X156210000Y-115570000D03*
G04 #@! TO.P,EXT2,17*
G04 #@! TO.N,/GPIO8/SD_DATA1*
X156210000Y-113030000D03*
G04 #@! TD*
D23*
G04 #@! TO.P,FET1,1*
G04 #@! TO.N,+5V*
X147253960Y-105318560D03*
G04 #@! TO.P,FET1,2*
G04 #@! TO.N,Net-(C6-Pad1)*
X145351500Y-105318560D03*
G04 #@! TO.P,FET1,3*
G04 #@! TO.N,Net-(BAT1-Pad1)*
X146306540Y-107528360D03*
G04 #@! TD*
D24*
G04 #@! TO.P,FID1,Fid1*
G04 #@! TO.N,Net-(FID1-PadFid1)*
X151765000Y-116205000D03*
G04 #@! TD*
G04 #@! TO.P,FID2,Fid1*
G04 #@! TO.N,Net-(FID2-PadFid1)*
X151765000Y-92710000D03*
G04 #@! TD*
G04 #@! TO.P,FID3,Fid1*
G04 #@! TO.N,Net-(FID3-PadFid1)*
X135255000Y-92710000D03*
G04 #@! TD*
D25*
G04 #@! TO.P,L1,2*
G04 #@! TO.N,+3V3*
X136087000Y-106172000D03*
G04 #@! TO.P,L1,1*
G04 #@! TO.N,Net-(L1-Pad1)*
X138487000Y-106172000D03*
G04 #@! TD*
D18*
G04 #@! TO.P,PWRLED1,1*
G04 #@! TO.N,Net-(PWRLED1-Pad1)*
X133096000Y-107315000D03*
G04 #@! TO.P,PWRLED1,2*
G04 #@! TO.N,+5V*
X133096000Y-105791000D03*
G04 #@! TD*
D23*
G04 #@! TO.P,Q2,1*
G04 #@! TO.N,Net-(Q2-Pad1)*
X148910040Y-97119440D03*
G04 #@! TO.P,Q2,2*
G04 #@! TO.N,Net-(Q2-Pad2)*
X150812500Y-97119440D03*
G04 #@! TO.P,Q2,3*
G04 #@! TO.N,/ESP_EN*
X149857460Y-94909640D03*
G04 #@! TD*
G04 #@! TO.P,Q3,1*
G04 #@! TO.N,Net-(Q3-Pad1)*
X150809960Y-98841560D03*
G04 #@! TO.P,Q3,2*
G04 #@! TO.N,Net-(Q3-Pad2)*
X148907500Y-98841560D03*
G04 #@! TO.P,Q3,3*
G04 #@! TO.N,Net-(Q3-Pad3)*
X149862540Y-101051360D03*
G04 #@! TD*
D17*
G04 #@! TO.P,R1,2*
G04 #@! TO.N,GND*
X134620000Y-110744000D03*
G04 #@! TO.P,R1,1*
G04 #@! TO.N,+5V*
X134620000Y-108966000D03*
G04 #@! TD*
G04 #@! TO.P,R2,2*
G04 #@! TO.N,GND*
X133096000Y-110744001D03*
G04 #@! TO.P,R2,1*
G04 #@! TO.N,Net-(PWRLED1-Pad1)*
X133096000Y-108966001D03*
G04 #@! TD*
G04 #@! TO.P,R3,2*
G04 #@! TO.N,Net-(R3-Pad2)*
X153924000Y-110744000D03*
G04 #@! TO.P,R3,1*
G04 #@! TO.N,Net-(CHARGING1-Pad1)*
X153924000Y-108966000D03*
G04 #@! TD*
G04 #@! TO.P,R4,2*
G04 #@! TO.N,GND*
X148590000Y-110236000D03*
G04 #@! TO.P,R4,1*
G04 #@! TO.N,Net-(R4-Pad1)*
X148590000Y-108458000D03*
G04 #@! TD*
G04 #@! TO.P,R5,2*
G04 #@! TO.N,Net-(C6-Pad1)*
X145288000Y-109347000D03*
G04 #@! TO.P,R5,1*
G04 #@! TO.N,Net-(BAT1-Pad1)*
X147066000Y-109347000D03*
G04 #@! TD*
G04 #@! TO.P,R6,2*
G04 #@! TO.N,/GPIO3/U0RXD*
X138938000Y-94234000D03*
G04 #@! TO.P,R6,1*
G04 #@! TO.N,Net-(R6-Pad1)*
X137160000Y-94234000D03*
G04 #@! TD*
G04 #@! TO.P,R7,2*
G04 #@! TO.N,/GPIO1/U0TXD*
X142240000Y-94234000D03*
G04 #@! TO.P,R7,1*
G04 #@! TO.N,Net-(R7-Pad1)*
X140462000Y-94234000D03*
G04 #@! TD*
G04 #@! TO.P,R8,2*
G04 #@! TO.N,Net-(Q2-Pad1)*
X147320000Y-101092000D03*
G04 #@! TO.P,R8,1*
G04 #@! TO.N,Net-(Q3-Pad2)*
X147320000Y-99314000D03*
G04 #@! TD*
G04 #@! TO.P,R9,2*
G04 #@! TO.N,Net-(Q3-Pad1)*
X147320000Y-95250000D03*
G04 #@! TO.P,R9,1*
G04 #@! TO.N,Net-(Q2-Pad2)*
X147320000Y-97028000D03*
G04 #@! TD*
G04 #@! TO.P,R10,2*
G04 #@! TO.N,/D_Com*
X152400000Y-99187000D03*
G04 #@! TO.P,R10,1*
G04 #@! TO.N,Net-(Q3-Pad3)*
X152400000Y-100965000D03*
G04 #@! TD*
G04 #@! TO.P,R11,2*
G04 #@! TO.N,+3V3*
X143764000Y-104394000D03*
G04 #@! TO.P,R11,1*
G04 #@! TO.N,Net-(R11-Pad1)*
X143764000Y-106172000D03*
G04 #@! TD*
G04 #@! TO.P,R12,2*
G04 #@! TO.N,GND*
X143764000Y-109347000D03*
G04 #@! TO.P,R12,1*
G04 #@! TO.N,Net-(R11-Pad1)*
X143764000Y-107569000D03*
G04 #@! TD*
G04 #@! TO.P,R13,2*
G04 #@! TO.N,/ESP_EN*
X132715000Y-75438000D03*
G04 #@! TO.P,R13,1*
G04 #@! TO.N,+3V3*
X132715000Y-73660000D03*
G04 #@! TD*
G04 #@! TO.P,R14,2*
G04 #@! TO.N,+3V3*
X153924000Y-100965000D03*
G04 #@! TO.P,R14,1*
G04 #@! TO.N,/GPIO0*
X153924000Y-99187000D03*
G04 #@! TD*
D26*
G04 #@! TO.P,U1,1*
G04 #@! TO.N,Net-(R3-Pad2)*
X149799000Y-110647000D03*
G04 #@! TO.P,U1,2*
G04 #@! TO.N,GND*
X150749000Y-110647000D03*
G04 #@! TO.P,U1,3*
G04 #@! TO.N,Net-(BAT1-Pad1)*
X151699000Y-110647000D03*
G04 #@! TO.P,U1,5*
G04 #@! TO.N,Net-(R4-Pad1)*
X149799000Y-108047000D03*
G04 #@! TO.P,U1,4*
G04 #@! TO.N,+5V*
X151699000Y-108047000D03*
G04 #@! TD*
D27*
G04 #@! TO.P,U2,1*
G04 #@! TO.N,N/C*
X137731500Y-96643000D03*
G04 #@! TO.P,U2,2*
X137731500Y-97293000D03*
G04 #@! TO.P,U2,3*
G04 #@! TO.N,Net-(R6-Pad1)*
X137731500Y-97943000D03*
G04 #@! TO.P,U2,4*
G04 #@! TO.N,Net-(R7-Pad1)*
X137731500Y-98593000D03*
G04 #@! TO.P,U2,5*
G04 #@! TO.N,+3V3*
X137731500Y-99243000D03*
G04 #@! TO.P,U2,6*
G04 #@! TO.N,Net-(U2-Pad6)*
X137731500Y-99893000D03*
G04 #@! TO.P,U2,7*
G04 #@! TO.N,Net-(U2-Pad7)*
X137731500Y-100543000D03*
G04 #@! TO.P,U2,8*
G04 #@! TO.N,GND*
X137731500Y-101193000D03*
G04 #@! TO.P,U2,9*
G04 #@! TO.N,Net-(C2-Pad1)*
X137731500Y-101843000D03*
G04 #@! TO.P,U2,10*
G04 #@! TO.N,Net-(C3-Pad1)*
X137731500Y-102493000D03*
G04 #@! TO.P,U2,11*
G04 #@! TO.N,Net-(U2-Pad11)*
X144970500Y-102493000D03*
G04 #@! TO.P,U2,12*
G04 #@! TO.N,Net-(U2-Pad12)*
X144970500Y-101843000D03*
G04 #@! TO.P,U2,13*
G04 #@! TO.N,Net-(U2-Pad13)*
X144970500Y-101193000D03*
G04 #@! TO.P,U2,14*
G04 #@! TO.N,Net-(U2-Pad14)*
X144970500Y-100543000D03*
G04 #@! TO.P,U2,15*
G04 #@! TO.N,Net-(Q3-Pad2)*
X144970500Y-99893000D03*
G04 #@! TO.P,U2,16*
G04 #@! TO.N,Net-(Q2-Pad2)*
X144970500Y-99243000D03*
G04 #@! TO.P,U2,17*
G04 #@! TO.N,Net-(U2-Pad17)*
X144970500Y-98593000D03*
G04 #@! TO.P,U2,18*
G04 #@! TO.N,N/C*
X144970500Y-97943000D03*
G04 #@! TO.P,U2,19*
G04 #@! TO.N,+3V3*
X144970500Y-97293000D03*
G04 #@! TO.P,U2,20*
G04 #@! TO.N,GND*
X144970500Y-96643000D03*
G04 #@! TD*
D26*
G04 #@! TO.P,U3,1*
G04 #@! TO.N,Net-(C6-Pad1)*
X142047000Y-104745000D03*
G04 #@! TO.P,U3,2*
G04 #@! TO.N,GND*
X141097000Y-104745000D03*
G04 #@! TO.P,U3,3*
G04 #@! TO.N,Net-(L1-Pad1)*
X140147000Y-104745000D03*
G04 #@! TO.P,U3,5*
G04 #@! TO.N,Net-(R11-Pad1)*
X142047000Y-107345000D03*
G04 #@! TO.P,U3,4*
G04 #@! TO.N,Net-(C6-Pad1)*
X140147000Y-107345000D03*
G04 #@! TD*
D23*
G04 #@! TO.P,U4,3*
G04 #@! TO.N,/D_Com*
X153035000Y-94912000D03*
G04 #@! TO.P,U4,2*
G04 #@! TO.N,/GPIO0*
X153985000Y-97112000D03*
G04 #@! TO.P,U4,1*
G04 #@! TO.N,/GPIO2*
X152085000Y-97112000D03*
G04 #@! TD*
D28*
G04 #@! TO.P,U5,39*
G04 #@! TO.N,GND*
X141469600Y-82650800D03*
D29*
X143781000Y-80314000D03*
D30*
X143810000Y-80301000D03*
D31*
G04 #@! TO.P,U5,38*
X152510000Y-72641000D03*
G04 #@! TO.P,U5,37*
G04 #@! TO.N,/GPIO23*
X152510000Y-73911000D03*
G04 #@! TO.P,U5,36*
G04 #@! TO.N,/GPIO22*
X152510000Y-75181000D03*
G04 #@! TO.P,U5,35*
G04 #@! TO.N,/GPIO1/U0TXD*
X152510000Y-76451000D03*
G04 #@! TO.P,U5,34*
G04 #@! TO.N,/GPIO3/U0RXD*
X152510000Y-77721000D03*
G04 #@! TO.P,U5,33*
G04 #@! TO.N,/GPIO21*
X152510000Y-78991000D03*
G04 #@! TO.P,U5,32*
G04 #@! TO.N,Net-(U5-Pad32)*
X152510000Y-80261000D03*
G04 #@! TO.P,U5,31*
G04 #@! TO.N,/GPIO19*
X152510000Y-81531000D03*
G04 #@! TO.P,U5,30*
G04 #@! TO.N,/GPIO18*
X152510000Y-82801000D03*
G04 #@! TO.P,U5,29*
G04 #@! TO.N,/GPIO5*
X152510000Y-84071000D03*
G04 #@! TO.P,U5,28*
G04 #@! TO.N,/GPIO17*
X152510000Y-85341000D03*
G04 #@! TO.P,U5,27*
G04 #@! TO.N,/GPIO16*
X152510000Y-86611000D03*
G04 #@! TO.P,U5,26*
G04 #@! TO.N,/GPIO4*
X152510000Y-87881000D03*
G04 #@! TO.P,U5,25*
G04 #@! TO.N,/GPIO0*
X152510000Y-89151000D03*
D32*
G04 #@! TO.P,U5,24*
G04 #@! TO.N,/GPIO2*
X149240000Y-90601000D03*
G04 #@! TO.P,U5,23*
G04 #@! TO.N,/GPIO15*
X147970000Y-90601000D03*
G04 #@! TO.P,U5,22*
G04 #@! TO.N,/GPIO8/SD_DATA1*
X146700000Y-90601000D03*
G04 #@! TO.P,U5,21*
G04 #@! TO.N,/GPIO7/SD_DATA0*
X145430000Y-90601000D03*
G04 #@! TO.P,U5,20*
G04 #@! TO.N,/GPIO6/SD_CLK*
X144160000Y-90601000D03*
G04 #@! TO.P,U5,19*
G04 #@! TO.N,/GPIO11/SD_CMD*
X142890000Y-90601000D03*
G04 #@! TO.P,U5,18*
G04 #@! TO.N,/GPIO10/SD_DATA3*
X141620000Y-90601000D03*
G04 #@! TO.P,U5,17*
G04 #@! TO.N,/GPIO9/SD_DATA2*
X140350000Y-90601000D03*
G04 #@! TO.P,U5,16*
G04 #@! TO.N,/GPIO13*
X139080000Y-90601000D03*
G04 #@! TO.P,U5,15*
G04 #@! TO.N,GND*
X137810000Y-90601000D03*
D31*
G04 #@! TO.P,U5,14*
G04 #@! TO.N,/GPIO12*
X134510000Y-89111000D03*
G04 #@! TO.P,U5,13*
G04 #@! TO.N,/GPIO14*
X134510000Y-87841000D03*
G04 #@! TO.P,U5,12*
G04 #@! TO.N,/GPIO27*
X134510000Y-86571000D03*
G04 #@! TO.P,U5,11*
G04 #@! TO.N,/GPIO26*
X134510000Y-85301000D03*
G04 #@! TO.P,U5,10*
G04 #@! TO.N,/GPIO25*
X134510000Y-84031000D03*
G04 #@! TO.P,U5,9*
G04 #@! TO.N,/GPIO33*
X134510000Y-82761000D03*
G04 #@! TO.P,U5,8*
G04 #@! TO.N,/GPIO32*
X134510000Y-81491000D03*
G04 #@! TO.P,U5,7*
G04 #@! TO.N,/GPI35*
X134510000Y-80221000D03*
G04 #@! TO.P,U5,6*
G04 #@! TO.N,/GPI34*
X134510000Y-78951000D03*
G04 #@! TO.P,U5,5*
G04 #@! TO.N,/GPI39/SENSOR_VN*
X134510000Y-77681000D03*
G04 #@! TO.P,U5,4*
G04 #@! TO.N,/GPI36/SENSOR_VP*
X134510000Y-76411000D03*
G04 #@! TO.P,U5,3*
G04 #@! TO.N,/ESP_EN*
X134510000Y-75141000D03*
G04 #@! TO.P,U5,2*
G04 #@! TO.N,+3V3*
X134510000Y-73871000D03*
G04 #@! TO.P,U5,1*
G04 #@! TO.N,GND*
X134510000Y-72601000D03*
D28*
G04 #@! TO.P,U5,39*
X146143200Y-82650800D03*
X141469600Y-77951800D03*
X146143200Y-77951800D03*
X143781000Y-77951800D03*
X143781000Y-82650800D03*
X141469600Y-80187000D03*
X146143200Y-80187000D03*
G04 #@! TD*
D33*
G04 #@! TO.P,USB-UART1,1*
G04 #@! TO.N,/+5V_USB*
X142210000Y-112797000D03*
G04 #@! TO.P,USB-UART1,2*
G04 #@! TO.N,Net-(U2-Pad7)*
X142860000Y-112797000D03*
G04 #@! TO.P,USB-UART1,3*
G04 #@! TO.N,Net-(U2-Pad6)*
X143510000Y-112797000D03*
G04 #@! TO.P,USB-UART1,4*
G04 #@! TO.N,Net-(USB-UART1-Pad4)*
X144160000Y-112797000D03*
G04 #@! TO.P,USB-UART1,5*
G04 #@! TO.N,GND*
X144810000Y-112797000D03*
D34*
G04 #@! TO.P,USB-UART1,0*
X142010000Y-117097000D03*
X145010000Y-117097000D03*
D35*
X139910000Y-115947000D03*
X139910000Y-112477000D03*
X147110000Y-112477000D03*
X147110000Y-115947000D03*
G04 #@! TD*
D36*
G04 #@! TO.P,RST1,2*
G04 #@! TO.N,GND*
X133985000Y-117670000D03*
G04 #@! TO.P,RST1,1*
G04 #@! TO.N,/ESP_EN*
X133985000Y-113470000D03*
G04 #@! TD*
D37*
G04 #@! TO.N,+5V*
X151003000Y-104775000D03*
X134493000Y-107696000D03*
X148463000Y-117221000D03*
X135509000Y-118364000D03*
G04 #@! TO.N,GND*
X137668000Y-110744000D03*
X141097000Y-103378000D03*
X148717000Y-107188000D03*
X141097000Y-101398600D03*
X136905996Y-90614500D03*
X136906000Y-82677000D03*
X145414998Y-95630998D03*
X133985000Y-116459000D03*
X132207000Y-116967000D03*
X141097000Y-97218500D03*
X141986000Y-96329510D03*
X132588000Y-72110610D03*
X137160000Y-72110610D03*
X139700000Y-72110610D03*
X142240000Y-72110610D03*
X144780000Y-72110610D03*
X147320000Y-72110610D03*
X149860000Y-72110610D03*
X154305000Y-72110610D03*
X143510000Y-73660000D03*
X140970000Y-73660000D03*
X138430000Y-73660000D03*
X146050000Y-73660000D03*
X148590000Y-73660000D03*
X139700000Y-74930000D03*
X142240000Y-74930000D03*
X144780000Y-74930000D03*
X147320000Y-74930000D03*
X149860000Y-74930000D03*
X148590000Y-76200000D03*
X148590000Y-78740000D03*
X148590000Y-81280000D03*
X148590000Y-83820000D03*
X138430000Y-76200000D03*
X138430000Y-78740000D03*
X144272687Y-92837687D03*
X141469600Y-84827600D03*
X143764000Y-84836000D03*
X146177000Y-84836000D03*
X142240000Y-86360000D03*
X144780000Y-86360000D03*
X147320000Y-86360000D03*
X136905996Y-84455000D03*
X136905996Y-86360000D03*
X136905996Y-88265000D03*
X139573000Y-102362000D03*
X140144500Y-98171000D03*
X149826600Y-115316000D03*
G04 #@! TO.N,Net-(BAT1-Pad1)*
X144399000Y-114935000D03*
X146812018Y-108458000D03*
G04 #@! TO.N,+3V3*
X143764000Y-103378000D03*
X143764000Y-97282000D03*
X136812501Y-104233600D03*
X136271000Y-99060000D03*
X136906000Y-73914000D03*
D38*
G04 #@! TO.N,/GPIO3/U0RXD*
X139191994Y-93472000D03*
X139192000Y-88011000D03*
G04 #@! TO.N,/ESP_EN*
X148844000Y-94488000D03*
X136017000Y-75184008D03*
X135635990Y-112014000D03*
X143002000Y-114935000D03*
G04 #@! TO.N,/GPIO9/SD_DATA2*
X137160000Y-92900500D03*
G04 #@! TO.N,/GPIO8/SD_DATA1*
X149987000Y-91948000D03*
G04 #@! TO.N,/GPIO6/SD_CLK*
X149606000Y-93631010D03*
G04 #@! TO.N,/GPIO7/SD_DATA0*
X149090902Y-92822789D03*
G04 #@! TO.N,/GPIO1/U0TXD*
X143510000Y-92075000D03*
X143510000Y-88138000D03*
G04 #@! TO.N,/GPIO10/SD_DATA3*
X138246600Y-88900000D03*
G04 #@! TO.N,/GPIO11/SD_CMD*
X140081000Y-92837000D03*
G04 #@! TO.N,Net-(Q2-Pad1)*
X147828000Y-98227340D03*
X148209000Y-101092000D03*
G04 #@! TO.N,/D_Com*
X151075565Y-100257435D03*
D37*
G04 #@! TO.N,Net-(C6-Pad1)*
X145034000Y-108331000D03*
X140763536Y-108188104D03*
D38*
G04 #@! TO.N,/GPIO13*
X137033000Y-91948000D03*
G04 #@! TO.N,/GPIO12*
X135770110Y-89090500D03*
G04 #@! TO.N,/GPIO14*
X135763000Y-87820500D03*
G04 #@! TO.N,/GPIO26*
X135763000Y-85280500D03*
D37*
G04 #@! TO.N,/GPIO16*
X151130000Y-86614000D03*
G04 #@! TO.N,/GPIO17*
X151130000Y-85344000D03*
G04 #@! TO.N,/GPIO4*
X151130000Y-87884000D03*
G04 #@! TO.N,/GPIO0*
X151130000Y-89154000D03*
D38*
X153755976Y-98212032D03*
G04 #@! TO.N,/GPIO15*
X149987000Y-89027000D03*
D37*
G04 #@! TO.N,/GPIO2*
X151130000Y-90424000D03*
D38*
X152019000Y-96012000D03*
G04 #@! TO.N,Net-(Q3-Pad1)*
X149986101Y-98297189D03*
X148348381Y-95306400D03*
G04 #@! TO.N,Net-(U2-Pad7)*
X141859012Y-110617000D03*
X142056610Y-100711010D03*
G04 #@! TO.N,Net-(U2-Pad6)*
X142834185Y-110594315D03*
X142748000Y-99949000D03*
G04 #@! TD*
D39*
G04 #@! TO.N,+5V*
X153924000Y-103926000D02*
X153376000Y-103378000D01*
X153924000Y-105791000D02*
X153924000Y-103926000D01*
X153376000Y-105704000D02*
X153289000Y-105791000D01*
X153924000Y-105791000D02*
X153289000Y-105791000D01*
X152654000Y-106426000D02*
X153289000Y-105791000D01*
X151384000Y-106172000D02*
X151638000Y-106426000D01*
X152146000Y-106259000D02*
X152146000Y-106426000D01*
X153376000Y-105029000D02*
X153376000Y-105704000D01*
X153376000Y-103378000D02*
X153376000Y-105029000D01*
X153376000Y-105029000D02*
X152146000Y-106259000D01*
X151638000Y-106426000D02*
X152146000Y-106426000D01*
X152146000Y-106426000D02*
X152654000Y-106426000D01*
X151384000Y-105664000D02*
X151384000Y-106172000D01*
X153376000Y-103378000D02*
X153376000Y-103672000D01*
X151699000Y-106487000D02*
X151384000Y-106172000D01*
X151699000Y-107381000D02*
X151699000Y-107442000D01*
X152654000Y-106426000D02*
X151699000Y-107381000D01*
X151699000Y-107442000D02*
X151699000Y-106487000D01*
X151699000Y-108047000D02*
X151699000Y-107442000D01*
X151384000Y-107732000D02*
X151699000Y-108047000D01*
X151384000Y-106172000D02*
X151384000Y-107732000D01*
X151257000Y-106045000D02*
X151384000Y-106172000D01*
X151257000Y-105029000D02*
X151257000Y-106045000D01*
X151003000Y-104775000D02*
X151257000Y-105029000D01*
X152273000Y-104775000D02*
X152971500Y-104076500D01*
X152971500Y-104076500D02*
X151384000Y-105664000D01*
X151003000Y-104775000D02*
X152273000Y-104775000D01*
X153376000Y-103672000D02*
X152971500Y-104076500D01*
D40*
X150876000Y-104902000D02*
X151003000Y-104775000D01*
X147670520Y-104902000D02*
X150876000Y-104902000D01*
X147253960Y-105318560D02*
X147670520Y-104902000D01*
D39*
X133697882Y-105791000D02*
X133096000Y-105791000D01*
X134493000Y-106586118D02*
X133697882Y-105791000D01*
X134620000Y-108966000D02*
X134493000Y-108839000D01*
X134493000Y-107696000D02*
X134493000Y-106586118D01*
X134493000Y-108839000D02*
X134493000Y-107696000D01*
D40*
X147256500Y-105029000D02*
X147510500Y-104775000D01*
X147256500Y-105316020D02*
X147256500Y-105029000D01*
X147253960Y-105318560D02*
X147256500Y-105316020D01*
X147510500Y-104775000D02*
X148590000Y-104775000D01*
X147637500Y-105727500D02*
X147256500Y-105727500D01*
X147253960Y-105724960D02*
X147253960Y-105318560D01*
X147256500Y-105727500D02*
X147253960Y-105724960D01*
X147828000Y-105059480D02*
X147670520Y-104902000D01*
X147828000Y-105537000D02*
X147828000Y-105059480D01*
X148590000Y-104775000D02*
X147828000Y-105537000D01*
X147828000Y-105537000D02*
X147637500Y-105727500D01*
X148590000Y-104775000D02*
X149606000Y-104775000D01*
X149606000Y-104775000D02*
X151003000Y-104775000D01*
X152527000Y-104521000D02*
X152971500Y-104076500D01*
X149987000Y-104521000D02*
X152527000Y-104521000D01*
X149733000Y-104775000D02*
X149987000Y-104521000D01*
X149606000Y-104775000D02*
X149733000Y-104775000D01*
D39*
X136739000Y-118364000D02*
X137160000Y-117943000D01*
X135509000Y-118364000D02*
X136739000Y-118364000D01*
X137160000Y-117475000D02*
X137160000Y-117943000D01*
X136398000Y-117475000D02*
X137160000Y-117475000D01*
X135509000Y-118364000D02*
X136398000Y-117475000D01*
G04 #@! TO.N,GND*
X155959000Y-72641000D02*
X156210000Y-72390000D01*
X152510000Y-72641000D02*
X155959000Y-72641000D01*
X152470000Y-72601000D02*
X152510000Y-72641000D01*
D40*
X150749000Y-111362259D02*
X150368000Y-111743259D01*
X151051577Y-111743259D02*
X150368000Y-111743259D01*
X150749000Y-110647000D02*
X150749000Y-111315500D01*
X152387300Y-112923320D02*
X152387300Y-112826800D01*
X150749000Y-111315500D02*
X151176759Y-111743259D01*
X152400000Y-112910620D02*
X152387300Y-112923320D01*
X151176759Y-111743259D02*
X151303759Y-111743259D01*
X152400000Y-112839500D02*
X152400000Y-112910620D01*
X150749000Y-111379000D02*
X151066500Y-111696500D01*
X151066500Y-111696500D02*
X151130000Y-111696500D01*
X150749000Y-111315500D02*
X150749000Y-111379000D01*
X150114000Y-111743259D02*
X151303759Y-111743259D01*
X150368000Y-111743259D02*
X150114000Y-111743259D01*
X151303759Y-111743259D02*
X151574500Y-112014000D01*
X151574500Y-112014000D02*
X152400000Y-112839500D01*
X148479741Y-111743259D02*
X148590000Y-111633000D01*
X150114000Y-111743259D02*
X148479741Y-111743259D01*
D39*
X147066000Y-112433000D02*
X147110000Y-112477000D01*
X147066000Y-112014000D02*
X147066000Y-112433000D01*
X147447000Y-111633000D02*
X147066000Y-112014000D01*
X148590000Y-111633000D02*
X147447000Y-111633000D01*
X148590000Y-111633000D02*
X148590000Y-110236000D01*
X147110000Y-112477000D02*
X146938000Y-112649000D01*
X146938000Y-112649000D02*
X145161000Y-112649000D01*
X147447000Y-111633000D02*
X145161000Y-111633000D01*
D41*
X144810000Y-111984000D02*
X145161000Y-111633000D01*
X144810000Y-112797000D02*
X144810000Y-111984000D01*
D42*
X145161000Y-111633000D02*
X145161000Y-112649000D01*
D41*
X145161000Y-112966500D02*
X145161000Y-112649000D01*
X144843500Y-113284000D02*
X145161000Y-112966500D01*
X144810000Y-113250500D02*
X144843500Y-113284000D01*
X144810000Y-112797000D02*
X144810000Y-113250500D01*
D39*
X147746000Y-112477000D02*
X148590000Y-111633000D01*
X147110000Y-112477000D02*
X147746000Y-112477000D01*
X142010000Y-117097000D02*
X145010000Y-117097000D01*
X145960000Y-117097000D02*
X147110000Y-115947000D01*
X145010000Y-117097000D02*
X145960000Y-117097000D01*
X141060000Y-117097000D02*
X139910000Y-115947000D01*
X142010000Y-117097000D02*
X141060000Y-117097000D01*
X145161000Y-110807500D02*
X145161000Y-111633000D01*
X148018500Y-110807500D02*
X145161000Y-110807500D01*
X148590000Y-110236000D02*
X148018500Y-110807500D01*
X144589500Y-110807500D02*
X145161000Y-110807500D01*
X143764000Y-109347000D02*
X143764000Y-109982000D01*
X145161000Y-111379000D02*
X145161000Y-111633000D01*
X144145000Y-110363000D02*
X145161000Y-111379000D01*
X143764000Y-109982000D02*
X144145000Y-110363000D01*
X144145000Y-110363000D02*
X144589500Y-110807500D01*
X143764000Y-109347000D02*
X143510000Y-109093000D01*
D43*
X143510000Y-109093000D02*
X142113000Y-109093000D01*
D39*
X143129000Y-109347000D02*
X143764000Y-109982000D01*
X142113000Y-109347000D02*
X143129000Y-109347000D01*
X136148000Y-115947000D02*
X139910000Y-115947000D01*
X134425000Y-117670000D02*
X136148000Y-115947000D01*
X133985000Y-117670000D02*
X134425000Y-117670000D01*
X137668000Y-110744000D02*
X134620000Y-110744000D01*
X138239500Y-110172500D02*
X137668000Y-110744000D01*
X138176000Y-110172500D02*
X138239500Y-110172500D01*
X138176000Y-109220000D02*
X138176000Y-110172500D01*
X138303000Y-109093000D02*
X138176000Y-109220000D01*
X138430000Y-109982000D02*
X138239500Y-110172500D01*
X138430000Y-109220000D02*
X138430000Y-109982000D01*
X138303000Y-109093000D02*
X138430000Y-109220000D01*
X133096001Y-110744000D02*
X133096000Y-110744001D01*
X134620000Y-110744000D02*
X133096001Y-110744000D01*
D42*
X141097000Y-103378000D02*
X141097000Y-104745000D01*
D39*
X149352000Y-106553000D02*
X149216999Y-106688001D01*
X149216999Y-106688001D02*
X148717000Y-107188000D01*
X149352000Y-106172000D02*
X149352000Y-106553000D01*
D41*
X144970500Y-96643000D02*
X145292000Y-96643000D01*
X145292000Y-96643000D02*
X145415000Y-96520000D01*
D39*
X133185000Y-101557000D02*
X133096000Y-101646000D01*
X134785000Y-99357000D02*
X134874000Y-99268000D01*
X134874000Y-99268000D02*
X134874000Y-97536000D01*
D41*
X136410110Y-101193000D02*
X137731500Y-101193000D01*
X136245610Y-101028500D02*
X136410110Y-101193000D01*
X136245610Y-100368110D02*
X136245610Y-101028500D01*
X134785000Y-99357000D02*
X134785000Y-99860000D01*
X134785000Y-99860000D02*
X134874000Y-99949000D01*
X134874000Y-99949000D02*
X135826500Y-99949000D01*
X135826500Y-99949000D02*
X136245610Y-100368110D01*
X140891400Y-101193000D02*
X141097000Y-101398600D01*
X137731500Y-101193000D02*
X140891400Y-101193000D01*
D40*
X145415000Y-95631000D02*
X145415000Y-94234000D01*
X145415000Y-96520000D02*
X145415000Y-95631000D01*
D41*
X144970500Y-96643000D02*
X144391290Y-96643000D01*
D40*
X134874000Y-97536000D02*
X133096000Y-95758000D01*
D39*
X130810000Y-105410000D02*
X131064000Y-105410000D01*
D41*
X135509000Y-104267000D02*
X136398000Y-103378000D01*
X133985000Y-104267000D02*
X135509000Y-104267000D01*
X136398000Y-103378000D02*
X141097000Y-103378000D01*
D39*
X130810000Y-105410000D02*
X131699000Y-106299000D01*
D41*
X132080000Y-96774000D02*
X132080000Y-100352000D01*
D39*
X137796500Y-90614500D02*
X137613102Y-90614500D01*
X137613102Y-90614500D02*
X136905996Y-90614500D01*
D42*
X136198890Y-90614500D02*
X136905996Y-90614500D01*
X133096000Y-95758000D02*
X133273821Y-95580179D01*
X133273821Y-95580179D02*
X133273821Y-91135179D01*
D39*
X137810000Y-90601000D02*
X137796500Y-90614500D01*
D42*
X133273821Y-91135179D02*
X133794500Y-90614500D01*
X133794500Y-90614500D02*
X136198890Y-90614500D01*
D39*
X141414500Y-82677000D02*
X136906000Y-82677000D01*
X143790500Y-80301000D02*
X141414500Y-82677000D01*
X143810000Y-80301000D02*
X143790500Y-80301000D01*
X137313200Y-77951800D02*
X136906000Y-78359000D01*
X136983000Y-80187000D02*
X136906000Y-80264000D01*
X136906000Y-80264000D02*
X136906000Y-82677000D01*
X141469600Y-80187000D02*
X136983000Y-80187000D01*
X136906000Y-78359000D02*
X136906000Y-80264000D01*
X141469600Y-72609400D02*
X141478000Y-72601000D01*
X141469600Y-77951800D02*
X141469600Y-72609400D01*
X146143200Y-72634800D02*
X146177000Y-72601000D01*
X146143200Y-77951800D02*
X146143200Y-72634800D01*
X146143200Y-82650800D02*
X148997200Y-82650800D01*
X148997200Y-72754200D02*
X148844000Y-72601000D01*
X148844000Y-72601000D02*
X152470000Y-72601000D01*
X146177000Y-72601000D02*
X148844000Y-72601000D01*
X148971000Y-77951800D02*
X148997200Y-77978000D01*
X146143200Y-77951800D02*
X148971000Y-77951800D01*
X148997200Y-77978000D02*
X148997200Y-72754200D01*
X148997200Y-80264000D02*
X148920200Y-80187000D01*
X148920200Y-80187000D02*
X146143200Y-80187000D01*
X148997200Y-82650800D02*
X148997200Y-80264000D01*
X148997200Y-80264000D02*
X148997200Y-77978000D01*
X148997200Y-82650800D02*
X148997200Y-83285800D01*
X136906000Y-84810609D02*
X136906000Y-82677000D01*
X136880609Y-84836000D02*
X136906000Y-84810609D01*
X141469600Y-84827600D02*
X141469600Y-84827600D01*
X141478000Y-84836000D02*
X141469600Y-84827600D01*
X141478000Y-84836000D02*
X136880609Y-84836000D01*
X143764000Y-84836000D02*
X143764000Y-84836000D01*
X143781000Y-83570038D02*
X143781000Y-82650800D01*
X143781000Y-84819000D02*
X143781000Y-83570038D01*
X143764000Y-84836000D02*
X143781000Y-84819000D01*
X146143200Y-83570038D02*
X146143200Y-82650800D01*
X146177000Y-84836000D02*
X146177000Y-84836000D01*
X146177000Y-84836000D02*
X146143200Y-84802200D01*
X146143200Y-84802200D02*
X146143200Y-83570038D01*
X147447000Y-84836000D02*
X146177000Y-84836000D01*
X138557000Y-72601000D02*
X141478000Y-72601000D01*
X134510000Y-72601000D02*
X138557000Y-72601000D01*
X141469600Y-77951800D02*
X138557000Y-77951800D01*
X138557000Y-77951800D02*
X137313200Y-77951800D01*
X147447000Y-84836000D02*
X148361390Y-84836000D01*
X148361390Y-83972390D02*
X148336000Y-83947000D01*
X148361390Y-84836000D02*
X148361390Y-83972390D01*
X148336000Y-83947000D02*
X147447000Y-84836000D01*
X148997200Y-83285800D02*
X148336000Y-83947000D01*
X133985000Y-117670000D02*
X133985000Y-116459000D01*
X133985000Y-117670000D02*
X132910000Y-117670000D01*
X132910000Y-117670000D02*
X132207000Y-116967000D01*
D40*
X132207000Y-116967000D02*
X132207000Y-111760000D01*
D43*
X156210000Y-72390000D02*
X155930610Y-72110610D01*
X155930610Y-72110610D02*
X151511000Y-72110610D01*
X134874000Y-72110610D02*
X132588000Y-72110610D01*
X132588000Y-72110610D02*
X132562601Y-72110610D01*
X142240000Y-72110610D02*
X139700000Y-72110610D01*
X154305000Y-72110610D02*
X155930610Y-72110610D01*
D39*
X142451000Y-72601000D02*
X143010001Y-73160001D01*
X141478000Y-72601000D02*
X142451000Y-72601000D01*
X143810000Y-80301000D02*
X143810000Y-73960000D01*
X146177000Y-72601000D02*
X144569000Y-72601000D01*
X144009999Y-73160001D02*
X143510000Y-73660000D01*
X143810000Y-73960000D02*
X143510000Y-73660000D01*
X144569000Y-72601000D02*
X144009999Y-73160001D01*
X143010001Y-73160001D02*
X143510000Y-73660000D01*
D43*
X140970000Y-73660000D02*
X143510000Y-73660000D01*
X138430000Y-73660000D02*
X140970000Y-73660000D01*
X143510000Y-73660000D02*
X146050000Y-73660000D01*
X146050000Y-73660000D02*
X148590000Y-73660000D01*
X139700000Y-74930000D02*
X142240000Y-74930000D01*
X142240000Y-74930000D02*
X144780000Y-74930000D01*
X144780000Y-74930000D02*
X147320000Y-74930000D01*
X147320000Y-74930000D02*
X149860000Y-74930000D01*
X139700000Y-74930000D02*
X138430000Y-73660000D01*
X138430000Y-73660000D02*
X138430000Y-72110610D01*
X138430000Y-72110610D02*
X137160000Y-72110610D01*
X139700000Y-72110610D02*
X138430000Y-72110610D01*
X143510000Y-73660000D02*
X143510000Y-72110610D01*
X143510000Y-72110610D02*
X134874000Y-72110610D01*
X151511000Y-72110610D02*
X143510000Y-72110610D01*
X149860000Y-72110610D02*
X149860000Y-74930000D01*
X139700000Y-74930000D02*
X138557000Y-74930000D01*
D39*
X138557000Y-74930000D02*
X138557000Y-77951800D01*
X138557000Y-72601000D02*
X138557000Y-74930000D01*
D43*
X138430000Y-74803000D02*
X138430000Y-73660000D01*
X138557000Y-74930000D02*
X138430000Y-74803000D01*
D39*
X138430000Y-78740000D02*
X138430000Y-76200000D01*
X138430000Y-76200000D02*
X138430000Y-73660000D01*
X148590000Y-76200000D02*
X148590000Y-73660000D01*
X148590000Y-76200000D02*
X148590000Y-78740000D01*
X148590000Y-78740000D02*
X148590000Y-81280000D01*
X148590000Y-81280000D02*
X148590000Y-83820000D01*
D42*
X145415000Y-93980000D02*
X144272687Y-92837687D01*
X145415000Y-94234000D02*
X145415000Y-93980000D01*
X145415000Y-95630996D02*
X145414998Y-95630998D01*
X145415000Y-94234000D02*
X145415000Y-95630996D01*
D39*
X141469600Y-84827600D02*
X141469600Y-82650800D01*
X143764000Y-84836000D02*
X141478000Y-84836000D01*
X146177000Y-84836000D02*
X143764000Y-84836000D01*
X144780000Y-86360000D02*
X147320000Y-86360000D01*
X144780000Y-86360000D02*
X142240000Y-86360000D01*
X147320000Y-84963000D02*
X147447000Y-84836000D01*
X147320000Y-86360000D02*
X147320000Y-84963000D01*
X148361390Y-85318610D02*
X148361390Y-84836000D01*
X147320000Y-86360000D02*
X148361390Y-85318610D01*
X133840144Y-72601000D02*
X134510000Y-72601000D01*
X133349754Y-72110610D02*
X133840144Y-72601000D01*
X132588000Y-72110610D02*
X133349754Y-72110610D01*
D40*
X133096000Y-95758000D02*
X132080000Y-96774000D01*
D39*
X132080000Y-104394000D02*
X133096000Y-103378000D01*
X133096000Y-102616000D02*
X133096000Y-103378000D01*
X133096000Y-101646000D02*
X133096000Y-102616000D01*
D41*
X132080000Y-100352000D02*
X132080000Y-102616000D01*
X132080000Y-102616000D02*
X132080000Y-104394000D01*
X132080000Y-109855000D02*
X132080000Y-106680000D01*
X132080000Y-106680000D02*
X131699000Y-106299000D01*
X132080000Y-111633000D02*
X132207000Y-111760000D01*
X132080000Y-109855000D02*
X132080000Y-111633000D01*
D40*
X132080000Y-104394000D02*
X132080000Y-106553000D01*
D41*
X132080000Y-106680000D02*
X132080000Y-106553000D01*
D39*
X131064000Y-105410000D02*
X131699000Y-104775000D01*
D40*
X131699000Y-104775000D02*
X131699000Y-106299000D01*
D39*
X131699000Y-104775000D02*
X132080000Y-104394000D01*
D40*
X132969001Y-110744001D02*
X132080000Y-109855000D01*
X133096000Y-110744001D02*
X132969001Y-110744001D01*
X132968999Y-110744001D02*
X133096000Y-110744001D01*
X132207000Y-111506000D02*
X132968999Y-110744001D01*
X132207000Y-111760000D02*
X132207000Y-111506000D01*
X133096000Y-103378000D02*
X133985000Y-104267000D01*
X133096000Y-102616000D02*
X132207000Y-102616000D01*
D41*
X132207000Y-102616000D02*
X132080000Y-102616000D01*
D40*
X133185000Y-101457000D02*
X132207000Y-100479000D01*
X133185000Y-101557000D02*
X133185000Y-101457000D01*
D41*
X132080000Y-100352000D02*
X132207000Y-100479000D01*
D42*
X141097000Y-102362000D02*
X139573000Y-102362000D01*
X141097000Y-103378000D02*
X141097000Y-102362000D01*
X141097000Y-102362000D02*
X141097000Y-101398600D01*
D39*
X149195600Y-115947000D02*
X149826600Y-115316000D01*
X147110000Y-115947000D02*
X149195600Y-115947000D01*
D40*
G04 #@! TO.N,Net-(BAT1-Pad1)*
X152840921Y-114173000D02*
X151622760Y-114173000D01*
X153670000Y-113343921D02*
X152840921Y-114173000D01*
X153670000Y-112522000D02*
X153670000Y-113343921D01*
X151699000Y-111016536D02*
X152188463Y-111506000D01*
X151699000Y-110647000D02*
X151699000Y-111016536D01*
X152188463Y-111506000D02*
X152654000Y-111506000D01*
X152654000Y-111506000D02*
X153670000Y-112522000D01*
X151795000Y-110647000D02*
X151699000Y-110647000D01*
X152654000Y-111506000D02*
X151795000Y-110647000D01*
D39*
X146312019Y-107958001D02*
X146812018Y-108458000D01*
X146306540Y-107528360D02*
X146306540Y-107952522D01*
X146812018Y-109165106D02*
X146812018Y-108458000D01*
X147066000Y-109347000D02*
X146993912Y-109347000D01*
X146306540Y-107952522D02*
X146312019Y-107958001D01*
X146993912Y-109347000D02*
X146812018Y-109165106D01*
D42*
X145106106Y-114935000D02*
X144399000Y-114935000D01*
X145796000Y-114935000D02*
X145106106Y-114935000D01*
X150375620Y-112925860D02*
X150345140Y-112925860D01*
X148833610Y-114437390D02*
X146293610Y-114437390D01*
X146293610Y-114437390D02*
X145796000Y-114935000D01*
X149098000Y-114173000D02*
X148833610Y-114437390D01*
X151622760Y-114173000D02*
X149098000Y-114173000D01*
X149606000Y-113665000D02*
X151114760Y-113665000D01*
X149606000Y-113665000D02*
X148833610Y-114437390D01*
X150345140Y-112925860D02*
X149606000Y-113665000D01*
X151622760Y-114173000D02*
X151305260Y-113855500D01*
X151114760Y-113665000D02*
X151305260Y-113855500D01*
X151305260Y-113855500D02*
X150375620Y-112925860D01*
D39*
G04 #@! TO.N,Net-(C3-Pad1)*
X134785000Y-101557000D02*
X134874000Y-101646000D01*
D41*
X134878000Y-102493000D02*
X134874000Y-102489000D01*
D39*
X134874000Y-102489000D02*
X134874000Y-103378000D01*
D41*
X137731500Y-102493000D02*
X134878000Y-102493000D01*
D39*
X134874000Y-101646000D02*
X134874000Y-102489000D01*
G04 #@! TO.N,+3V3*
X132926000Y-73871000D02*
X132715000Y-73660000D01*
X132080000Y-73660000D02*
X130810000Y-72390000D01*
X132715000Y-73660000D02*
X132080000Y-73660000D01*
D40*
X153924000Y-101325682D02*
X153268682Y-101981000D01*
X153924000Y-100965000D02*
X153924000Y-101325682D01*
X153268682Y-101981000D02*
X151003000Y-101981000D01*
D43*
X136271000Y-106229000D02*
X136087000Y-106045000D01*
X136271000Y-109093000D02*
X136271000Y-106229000D01*
D39*
X143764000Y-104394000D02*
X143764000Y-103378000D01*
D40*
X144970500Y-97293000D02*
X143775000Y-97293000D01*
X143775000Y-97293000D02*
X143764000Y-97282000D01*
X141803000Y-99243000D02*
X143764000Y-97282000D01*
X137731500Y-99243000D02*
X141803000Y-99243000D01*
X136454000Y-99243000D02*
X137731500Y-99243000D01*
X134874000Y-95758000D02*
X134980682Y-95758000D01*
X134980682Y-95758000D02*
X135890000Y-96667318D01*
X135890000Y-96667318D02*
X135890000Y-98679000D01*
D42*
X136087000Y-104959101D02*
X136812501Y-104233600D01*
X136087000Y-106172000D02*
X136087000Y-104959101D01*
D40*
X135890000Y-98679000D02*
X136271000Y-99060000D01*
X136271000Y-99060000D02*
X136454000Y-99243000D01*
D42*
X143637000Y-97155000D02*
X143764000Y-97282000D01*
X143637000Y-94234000D02*
X143637000Y-97155000D01*
D39*
X136863000Y-73871000D02*
X136906000Y-73914000D01*
X134510000Y-73871000D02*
X136863000Y-73871000D01*
X132291000Y-73871000D02*
X132080000Y-73660000D01*
X133604000Y-73871000D02*
X132291000Y-73871000D01*
X134510000Y-73871000D02*
X133604000Y-73871000D01*
X132961220Y-73482220D02*
X133350000Y-73871000D01*
X133604000Y-73871000D02*
X133350000Y-73871000D01*
X133350000Y-73871000D02*
X132926000Y-73871000D01*
X130810000Y-72390000D02*
X131902220Y-73482220D01*
X131902220Y-73482220D02*
X132961220Y-73482220D01*
D41*
X146813039Y-102106961D02*
X150877039Y-102106961D01*
X150877039Y-102106961D02*
X151003000Y-101981000D01*
D42*
X143764000Y-103378000D02*
X144907000Y-103378000D01*
X143891000Y-104394000D02*
X143764000Y-104394000D01*
X144907000Y-103378000D02*
X143891000Y-104394000D01*
D41*
X145796000Y-103124000D02*
X146813039Y-102106961D01*
X145796000Y-103124000D02*
X144653000Y-103124000D01*
X145605500Y-103314500D02*
X145796000Y-103124000D01*
X144970500Y-103314500D02*
X145605500Y-103314500D01*
X144907000Y-103378000D02*
X144970500Y-103314500D01*
X143764000Y-104711500D02*
X143764000Y-104394000D01*
X144208500Y-104711500D02*
X143764000Y-104711500D01*
X144907000Y-103378000D02*
X145542000Y-103378000D01*
X145542000Y-103378000D02*
X144208500Y-104711500D01*
X145605500Y-103314500D02*
X145542000Y-103378000D01*
D42*
X135699500Y-106559500D02*
X136087000Y-106172000D01*
X135699500Y-108077000D02*
X135699500Y-106559500D01*
X136271000Y-108648500D02*
X135699500Y-108077000D01*
X136271000Y-109093000D02*
X136271000Y-108648500D01*
D40*
G04 #@! TO.N,/GPIO3/U0RXD*
X139191994Y-93966974D02*
X139191994Y-93472000D01*
X139191994Y-93980006D02*
X139191994Y-93966974D01*
X138938000Y-94234000D02*
X139191994Y-93980006D01*
X141986000Y-89154000D02*
X140843000Y-88011000D01*
X140843000Y-88011000D02*
X139686974Y-88011000D01*
X147245606Y-89154000D02*
X141986000Y-89154000D01*
X150977611Y-84061614D02*
X150114000Y-84925224D01*
X152510000Y-77721000D02*
X151768000Y-77721000D01*
X139686974Y-88011000D02*
X139192000Y-88011000D01*
X150114000Y-84925224D02*
X150114000Y-86285606D01*
X150977611Y-78511389D02*
X150977611Y-84061614D01*
X150114000Y-86285606D02*
X147245606Y-89154000D01*
X151768000Y-77721000D02*
X150977611Y-78511389D01*
D41*
X153095500Y-77721000D02*
X154368500Y-78994000D01*
X154368500Y-78994000D02*
X154368500Y-80708500D01*
X152510000Y-77721000D02*
X153095500Y-77721000D01*
D39*
X156210000Y-82550000D02*
X155321000Y-81661000D01*
D41*
X154368500Y-80708500D02*
X155321000Y-81661000D01*
D39*
G04 #@! TO.N,/ESP_EN*
X131318000Y-75438000D02*
X130810000Y-74930000D01*
X132715000Y-75438000D02*
X131318000Y-75438000D01*
X135973992Y-75141000D02*
X136017000Y-75184008D01*
X134510000Y-75141000D02*
X135973992Y-75141000D01*
X133096000Y-75438000D02*
X132715000Y-75438000D01*
X133393000Y-75141000D02*
X133096000Y-75438000D01*
X134510000Y-75141000D02*
X133393000Y-75141000D01*
D40*
X149860000Y-94742000D02*
X149606000Y-94488000D01*
X149860000Y-94907100D02*
X149860000Y-94742000D01*
X149606000Y-94488000D02*
X148844000Y-94488000D01*
X149857460Y-94909640D02*
X149860000Y-94907100D01*
X149606000Y-95250000D02*
X148844000Y-94488000D01*
X149860000Y-95250000D02*
X149606000Y-95250000D01*
X149857460Y-95247460D02*
X149860000Y-95250000D01*
X149857460Y-94909640D02*
X149857460Y-95247460D01*
D42*
X133985000Y-113470000D02*
X134179990Y-113470000D01*
D40*
X140970000Y-114935000D02*
X140589000Y-114554000D01*
X135069000Y-114554000D02*
X133985000Y-113470000D01*
X140970000Y-114935000D02*
X143002000Y-114935000D01*
D42*
X135576990Y-113470000D02*
X135635990Y-113411000D01*
X135635990Y-112014000D02*
X135635990Y-113411000D01*
X135128000Y-113470000D02*
X135576990Y-113470000D01*
X135128000Y-112521990D02*
X135635990Y-112014000D01*
X135128000Y-113470000D02*
X135128000Y-112521990D01*
X133985000Y-113470000D02*
X135128000Y-113470000D01*
X134179990Y-113470000D02*
X135128000Y-112521990D01*
X134679000Y-113470000D02*
X135128000Y-113919000D01*
X133985000Y-113470000D02*
X134679000Y-113470000D01*
X135128000Y-113919000D02*
X135128000Y-114300000D01*
X135128000Y-113470000D02*
X135128000Y-113919000D01*
D40*
X135635990Y-114045990D02*
X135635990Y-113919000D01*
X136144000Y-114554000D02*
X135635990Y-114045990D01*
X136144000Y-114554000D02*
X135069000Y-114554000D01*
X140589000Y-114554000D02*
X136144000Y-114554000D01*
D42*
X135635990Y-113411000D02*
X135635990Y-113919000D01*
X135635990Y-113919000D02*
X135635990Y-114299990D01*
D40*
G04 #@! TO.N,/GPIO9/SD_DATA2*
X139509500Y-91948000D02*
X139763500Y-91948000D01*
X140350000Y-91361500D02*
X140350000Y-90601000D01*
X139763500Y-91948000D02*
X140350000Y-91361500D01*
X137160000Y-92900500D02*
X138557000Y-92900500D01*
X138557000Y-92900500D02*
X139509500Y-91948000D01*
G04 #@! TO.N,/GPIO8/SD_DATA1*
X147320000Y-91948000D02*
X149606000Y-91948000D01*
X149606000Y-91948000D02*
X149987000Y-91948000D01*
X146700000Y-91328000D02*
X147320000Y-91948000D01*
X146700000Y-90601000D02*
X146700000Y-91328000D01*
G04 #@! TO.N,/GPIO6/SD_CLK*
X149567400Y-93669606D02*
X149606000Y-93631006D01*
X149606000Y-93631006D02*
X149606000Y-93631010D01*
X149581611Y-93655399D02*
X149606000Y-93631010D01*
X146677899Y-93655399D02*
X149581611Y-93655399D01*
X145097500Y-92265500D02*
X145288000Y-92265500D01*
X144160000Y-90601000D02*
X144160000Y-91328000D01*
X144160000Y-91328000D02*
X145097500Y-92265500D01*
X145288000Y-92265500D02*
X146677899Y-93655399D01*
G04 #@! TO.N,/GPIO7/SD_DATA0*
X148595928Y-92822789D02*
X149090902Y-92822789D01*
X146924789Y-92822789D02*
X148595928Y-92822789D01*
X145430000Y-91328000D02*
X146924789Y-92822789D01*
X145430000Y-90601000D02*
X145430000Y-91328000D01*
G04 #@! TO.N,/GPIO1/U0TXD*
X143379066Y-92075000D02*
X143510000Y-92075000D01*
X142240000Y-93214066D02*
X143379066Y-92075000D01*
X142240000Y-94234000D02*
X142240000Y-93214066D01*
X150241000Y-77978000D02*
X151768000Y-76451000D01*
X150241000Y-83756500D02*
X150241000Y-77978000D01*
X149352000Y-84645500D02*
X150241000Y-83756500D01*
X149352000Y-85979000D02*
X149352000Y-84645500D01*
X151768000Y-76451000D02*
X152510000Y-76451000D01*
X147193000Y-88138000D02*
X149352000Y-85979000D01*
X143510000Y-88138000D02*
X147193000Y-88138000D01*
D41*
X154368500Y-77724000D02*
X154368500Y-78168500D01*
X153095500Y-76451000D02*
X154368500Y-77724000D01*
X152510000Y-76451000D02*
X153095500Y-76451000D01*
D39*
X156210000Y-80010000D02*
X155321000Y-79121000D01*
D41*
X154368500Y-78168500D02*
X155321000Y-79121000D01*
D40*
G04 #@! TO.N,/GPIO10/SD_DATA3*
X140652500Y-88900000D02*
X138246600Y-88900000D01*
X141620000Y-89867500D02*
X140652500Y-88900000D01*
X141620000Y-90601000D02*
X141620000Y-89867500D01*
G04 #@! TO.N,/GPIO11/SD_CMD*
X141414500Y-92837000D02*
X140081000Y-92837000D01*
X142890000Y-91361500D02*
X141414500Y-92837000D01*
X142890000Y-90601000D02*
X142890000Y-91361500D01*
D41*
G04 #@! TO.N,Net-(Q2-Pad1)*
X148910040Y-97119440D02*
X148879560Y-97119440D01*
X147828000Y-98171000D02*
X147828000Y-98227340D01*
D39*
X147320000Y-101092000D02*
X148209000Y-101092000D01*
D41*
X148910040Y-97119440D02*
X148910040Y-97660460D01*
X148879560Y-97119440D02*
X148272500Y-97726500D01*
X148272500Y-97726500D02*
X147828000Y-98171000D01*
X148272500Y-97726500D02*
X149288500Y-97726500D01*
D39*
G04 #@! TO.N,Net-(CHARGING1-Pad1)*
X153924000Y-107315000D02*
X153924000Y-108966000D01*
D41*
G04 #@! TO.N,/+5V_USB*
X142210000Y-112365000D02*
X141859000Y-112014000D01*
X142210000Y-112797000D02*
X142210000Y-112365000D01*
D39*
X141859000Y-112014000D02*
X141859000Y-112649000D01*
X141859000Y-112649000D02*
X141246610Y-112649000D01*
D41*
X141732000Y-112776000D02*
X141732000Y-113030000D01*
X141859000Y-112649000D02*
X141732000Y-112776000D01*
X142210000Y-113060000D02*
X141986000Y-113284000D01*
X142210000Y-112797000D02*
X142210000Y-113060000D01*
X141986000Y-113284000D02*
X142210000Y-113508000D01*
X141732000Y-113030000D02*
X141986000Y-113284000D01*
D39*
X141246610Y-111592110D02*
X140716000Y-111061500D01*
X141246610Y-112649000D02*
X141246610Y-111592110D01*
X141668500Y-112014000D02*
X140716000Y-111061500D01*
X141859000Y-112014000D02*
X141668500Y-112014000D01*
X140494890Y-110840390D02*
X139349610Y-110840390D01*
X140716000Y-111061500D02*
X140494890Y-110840390D01*
D41*
X141246610Y-113007390D02*
X141246610Y-112649000D01*
X140843000Y-113411000D02*
X141246610Y-113007390D01*
X140843000Y-113347500D02*
X140843000Y-113411000D01*
X140843000Y-113052610D02*
X140843000Y-113347500D01*
X141097000Y-112798610D02*
X140883890Y-112798610D01*
X141246610Y-112649000D02*
X141097000Y-112798610D01*
X140883890Y-112798610D02*
X140865610Y-112816890D01*
X141097000Y-112798610D02*
X140843000Y-113052610D01*
X140865610Y-113030000D02*
X140843000Y-113052610D01*
X140865610Y-112816890D02*
X140865610Y-113030000D01*
X140865610Y-113030000D02*
X140865610Y-113172826D01*
D39*
X139349610Y-110840390D02*
X138557000Y-111633000D01*
D41*
X140843000Y-113411000D02*
X140462000Y-113792000D01*
D39*
X138557000Y-111633000D02*
X138557000Y-113284000D01*
D41*
X138938000Y-113284000D02*
X138557000Y-113284000D01*
X138938000Y-113792000D02*
X138938000Y-113284000D01*
X138938000Y-113411000D02*
X139319000Y-113792000D01*
X139319000Y-113792000D02*
X138938000Y-113792000D01*
X138938000Y-113284000D02*
X138938000Y-113411000D01*
X140462000Y-113792000D02*
X139319000Y-113792000D01*
X137541000Y-113665000D02*
X137541000Y-112943000D01*
X137668000Y-113792000D02*
X137541000Y-113665000D01*
X138938000Y-113792000D02*
X137668000Y-113792000D01*
D39*
X138557000Y-111633000D02*
X137160000Y-113030000D01*
X137501000Y-113284000D02*
X138557000Y-113284000D01*
X137160000Y-112943000D02*
X137501000Y-113284000D01*
G04 #@! TO.N,Net-(PWRLED1-Pad1)*
X133096000Y-108966001D02*
X133096000Y-107315000D01*
D41*
G04 #@! TO.N,/D_Com*
X152781000Y-98806000D02*
X152400000Y-99187000D01*
X152781000Y-98145286D02*
X152781000Y-98806000D01*
X153035000Y-97891286D02*
X152781000Y-98145286D01*
X153035000Y-94912000D02*
X153035000Y-97891286D01*
X152400000Y-99187000D02*
X151689839Y-99897161D01*
X151435839Y-99897161D02*
X151075565Y-100257435D01*
X151689839Y-99897161D02*
X151435839Y-99897161D01*
D39*
G04 #@! TO.N,Net-(C2-Pad1)*
X133185000Y-99357000D02*
X133096000Y-99268000D01*
X133096000Y-99268000D02*
X133096000Y-97536000D01*
D41*
X135762999Y-101409499D02*
X136196500Y-101843000D01*
X135762999Y-100695014D02*
X135762999Y-101409499D01*
X133185000Y-99357000D02*
X133185000Y-99593500D01*
X133185000Y-99593500D02*
X134048500Y-100457000D01*
X134048500Y-100457000D02*
X135524985Y-100457000D01*
X136196500Y-101843000D02*
X137731500Y-101843000D01*
X135524985Y-100457000D02*
X135762999Y-100695014D01*
D39*
G04 #@! TO.N,Net-(C6-Pad1)*
X145288000Y-109347000D02*
X145034000Y-109093000D01*
X145034000Y-105636060D02*
X145351500Y-105318560D01*
X145351500Y-105318560D02*
X145351500Y-104965500D01*
X146558000Y-103759000D02*
X147995000Y-103759000D01*
X145351500Y-104965500D02*
X146558000Y-103759000D01*
X147995000Y-103759000D02*
X148376000Y-103378000D01*
X147256500Y-103060500D02*
X146558000Y-103759000D01*
X148058500Y-103060500D02*
X147256500Y-103060500D01*
X148376000Y-103378000D02*
X148058500Y-103060500D01*
D40*
X142047000Y-105445000D02*
X142047000Y-104745000D01*
D39*
X145034000Y-108331000D02*
X145034000Y-105636060D01*
X145034000Y-109093000D02*
X145034000Y-108331000D01*
X140735158Y-108204000D02*
X140741399Y-108210241D01*
X140081000Y-108204000D02*
X140735158Y-108204000D01*
X140081000Y-109093000D02*
X140081000Y-108204000D01*
X140147000Y-108138000D02*
X140081000Y-108204000D01*
X140147000Y-107345000D02*
X140147000Y-108138000D01*
X140147000Y-107571568D02*
X140741399Y-108165967D01*
X140147000Y-107345000D02*
X140147000Y-107571568D01*
D42*
X140763536Y-108791464D02*
X140081000Y-109474000D01*
X140081000Y-109474000D02*
X140081000Y-109093000D01*
X140763536Y-108188104D02*
X140763536Y-108791464D01*
X140081000Y-109347000D02*
X140081000Y-109093000D01*
X140763536Y-108791464D02*
X140763536Y-109299464D01*
X140763536Y-109299464D02*
X140589000Y-109474000D01*
X140589000Y-109474000D02*
X140208000Y-109474000D01*
X140208000Y-109474000D02*
X140081000Y-109347000D01*
X140763536Y-108188104D02*
X140763536Y-106728464D01*
D40*
X140812000Y-106680000D02*
X142047000Y-105445000D01*
D42*
X140763536Y-106728464D02*
X140812000Y-106680000D01*
D40*
X140147000Y-107345000D02*
X140812000Y-106680000D01*
D42*
X140208000Y-106680000D02*
X140812000Y-106680000D01*
X139954000Y-106934000D02*
X140208000Y-106680000D01*
X139954000Y-108585000D02*
X139954000Y-106934000D01*
D40*
G04 #@! TO.N,/GPIO13*
X138467775Y-91948000D02*
X139080000Y-91335775D01*
X137033000Y-91948000D02*
X138467775Y-91948000D01*
X139080000Y-91335775D02*
X139080000Y-90601000D01*
D42*
G04 #@! TO.N,/GPIO12*
X135275136Y-89090500D02*
X135770110Y-89090500D01*
X134530500Y-89090500D02*
X135275136Y-89090500D01*
X134510000Y-89111000D02*
X134530500Y-89090500D01*
D41*
G04 #@! TO.N,/GPIO27*
X132054601Y-92989399D02*
X132054601Y-95910399D01*
X132537212Y-92506788D02*
X132054601Y-92989399D01*
X132537212Y-90776302D02*
X132537212Y-92506788D01*
X133901000Y-86571000D02*
X133223000Y-87249000D01*
X133223000Y-87249000D02*
X133223000Y-90090514D01*
X134510000Y-86571000D02*
X133901000Y-86571000D01*
X133223000Y-90090514D02*
X132537212Y-90776302D01*
X132054601Y-95910399D02*
X131191000Y-96774000D01*
D42*
X130810000Y-97155000D02*
X131191000Y-96774000D01*
X130810000Y-97790000D02*
X130810000Y-97155000D01*
X131191000Y-97409000D02*
X130810000Y-97790000D01*
X131191000Y-96774000D02*
X131191000Y-97409000D01*
G04 #@! TO.N,/GPIO14*
X135742500Y-87841000D02*
X135763000Y-87820500D01*
X134510000Y-87841000D02*
X135742500Y-87841000D01*
G04 #@! TO.N,/GPIO26*
X135742500Y-85301000D02*
X135763000Y-85280500D01*
X134510000Y-85301000D02*
X135742500Y-85301000D01*
D39*
G04 #@! TO.N,/GPIO25*
X130810000Y-92710000D02*
X131445000Y-92075000D01*
D41*
X132054601Y-91465399D02*
X131445000Y-92075000D01*
X132054601Y-90576399D02*
X132054601Y-91465399D01*
X132715000Y-89916000D02*
X132054601Y-90576399D01*
X134510000Y-84031000D02*
X133901000Y-84031000D01*
X133901000Y-84031000D02*
X133223000Y-84709000D01*
X132715000Y-86995000D02*
X132715000Y-89916000D01*
X133223000Y-86487000D02*
X132715000Y-86995000D01*
X133223000Y-84709000D02*
X133223000Y-86487000D01*
G04 #@! TO.N,/GPIO32*
X132207000Y-83772486D02*
X132207000Y-85852000D01*
X134510000Y-81491000D02*
X133964500Y-81491000D01*
X133096000Y-82359500D02*
X133096000Y-82883486D01*
X133964500Y-81491000D02*
X133096000Y-82359500D01*
X133096000Y-82883486D02*
X132207000Y-83772486D01*
D42*
X130810000Y-87249000D02*
X131343389Y-86715611D01*
X130810000Y-87630000D02*
X130810000Y-87249000D01*
D41*
X132207000Y-85852000D02*
X131343389Y-86715611D01*
D42*
X131343389Y-87096611D02*
X130810000Y-87630000D01*
X131343389Y-86715611D02*
X131343389Y-87096611D01*
D39*
G04 #@! TO.N,/GPIO33*
X130810000Y-90170000D02*
X131572000Y-89408000D01*
D41*
X131698999Y-89281001D02*
X131572000Y-89408000D01*
X134510000Y-82761000D02*
X133964500Y-82761000D01*
X132207000Y-88773000D02*
X131698999Y-89281001D01*
X133964500Y-82761000D02*
X132715000Y-84010500D01*
X132715000Y-86233000D02*
X132207000Y-86741000D01*
X132207000Y-86741000D02*
X132207000Y-88773000D01*
X132715000Y-84010500D02*
X132715000Y-86233000D01*
G04 #@! TO.N,/GPI35*
X133964500Y-80221000D02*
X134510000Y-80221000D01*
X132588000Y-82708972D02*
X132588000Y-81597500D01*
X132588000Y-81597500D02*
X133964500Y-80221000D01*
D42*
X130810000Y-84486972D02*
X131191000Y-84105972D01*
X130810000Y-85090000D02*
X130810000Y-84486972D01*
D41*
X131191000Y-84105972D02*
X132588000Y-82708972D01*
D42*
X131191000Y-84709000D02*
X130810000Y-85090000D01*
X131191000Y-84105972D02*
X131191000Y-84709000D01*
D41*
G04 #@! TO.N,/GPI34*
X133964500Y-78951000D02*
X132842000Y-80073500D01*
X132842000Y-80073500D02*
X132842000Y-80518000D01*
X134510000Y-78951000D02*
X133964500Y-78951000D01*
D39*
X130810000Y-82550000D02*
X131699000Y-81661000D01*
D41*
X132842000Y-80518000D02*
X131699000Y-81661000D01*
D40*
G04 #@! TO.N,/GPI36/SENSOR_VP*
X134510000Y-76411000D02*
X134467000Y-76454000D01*
D39*
X130810000Y-77470000D02*
X130937000Y-77470000D01*
X130937000Y-77470000D02*
X131699000Y-76708000D01*
D42*
X134365390Y-76555610D02*
X134510000Y-76411000D01*
X131851390Y-76555610D02*
X134365390Y-76555610D01*
X131699000Y-76708000D02*
X131851390Y-76555610D01*
D39*
G04 #@! TO.N,/GPI39/SENSOR_VN*
X133012000Y-77681000D02*
X134510000Y-77681000D01*
X130810000Y-79883000D02*
X133012000Y-77681000D01*
X130810000Y-80010000D02*
X130810000Y-79883000D01*
G04 #@! TO.N,/GPIO22*
X153921000Y-75181000D02*
X156210000Y-77470000D01*
X152510000Y-75181000D02*
X153921000Y-75181000D01*
G04 #@! TO.N,/GPIO23*
X155829000Y-74930000D02*
X156210000Y-74930000D01*
X154810000Y-73911000D02*
X155829000Y-74930000D01*
X152510000Y-73911000D02*
X154810000Y-73911000D01*
D42*
G04 #@! TO.N,/GPIO21*
X156210000Y-84683277D02*
X155219722Y-83693000D01*
X156210000Y-85090000D02*
X156210000Y-84683277D01*
D41*
X154813000Y-83286278D02*
X155219722Y-83693000D01*
X154813000Y-82423000D02*
X154813000Y-83286278D01*
X152510000Y-78991000D02*
X153095500Y-78991000D01*
X153095500Y-78991000D02*
X153860500Y-79756000D01*
X153860500Y-79756000D02*
X153860500Y-81470500D01*
X153860500Y-81470500D02*
X154813000Y-82423000D01*
G04 #@! TO.N,/GPIO19*
X152510000Y-81531000D02*
X153095500Y-81531000D01*
X154940000Y-84455000D02*
X154940000Y-88900000D01*
X154305000Y-83820000D02*
X154940000Y-84455000D01*
X153095500Y-81531000D02*
X154305000Y-82740500D01*
X154305000Y-82740500D02*
X154305000Y-83820000D01*
D39*
X156210000Y-90170000D02*
X155448000Y-89408000D01*
D41*
X154940000Y-88900000D02*
X155448000Y-89408000D01*
G04 #@! TO.N,/GPIO18*
X152510000Y-82801000D02*
X153095500Y-82801000D01*
X154432000Y-90932000D02*
X154940000Y-91440000D01*
X153797000Y-84074000D02*
X154432000Y-84709000D01*
X153797000Y-83502500D02*
X153797000Y-84074000D01*
X153095500Y-82801000D02*
X153797000Y-83502500D01*
X154432000Y-84709000D02*
X154432000Y-90932000D01*
D39*
X155321001Y-91821001D02*
X154940000Y-91440000D01*
X156210000Y-92710000D02*
X155321001Y-91821001D01*
G04 #@! TO.N,/GPIO5*
X156210000Y-95250000D02*
X154813000Y-93853000D01*
D41*
X152510000Y-84071000D02*
X153095500Y-84071000D01*
X154813000Y-92583000D02*
X154813000Y-93853000D01*
X153095500Y-84071000D02*
X153924000Y-84899500D01*
X153924000Y-84899500D02*
X153924000Y-91694000D01*
X153924000Y-91694000D02*
X154813000Y-92583000D01*
D39*
G04 #@! TO.N,/GPIO16*
X151133000Y-86611000D02*
X151130000Y-86614000D01*
X152510000Y-86611000D02*
X151133000Y-86611000D01*
G04 #@! TO.N,/GPIO17*
X151133000Y-85341000D02*
X151130000Y-85344000D01*
X152510000Y-85341000D02*
X151133000Y-85341000D01*
G04 #@! TO.N,/GPIO4*
X151133000Y-87881000D02*
X151130000Y-87884000D01*
X152510000Y-87881000D02*
X151133000Y-87881000D01*
G04 #@! TO.N,/GPIO0*
X151133000Y-89151000D02*
X151130000Y-89154000D01*
X152510000Y-89151000D02*
X151133000Y-89151000D01*
X153985000Y-99126000D02*
X153924000Y-99187000D01*
X153985000Y-97112000D02*
X153985000Y-99126000D01*
D42*
X153924000Y-99187000D02*
X153755976Y-99018976D01*
X153755976Y-98707006D02*
X153755976Y-98212032D01*
X153755976Y-99018976D02*
X153755976Y-98707006D01*
G04 #@! TO.N,/GPIO15*
X147970000Y-89650934D02*
X148593934Y-89027000D01*
X148593934Y-89027000D02*
X149492026Y-89027000D01*
X147970000Y-90601000D02*
X147970000Y-89650934D01*
X149492026Y-89027000D02*
X149987000Y-89027000D01*
G04 #@! TO.N,/GPIO2*
X149240000Y-90601000D02*
X149417000Y-90424000D01*
D39*
X149417000Y-90424000D02*
X151130000Y-90424000D01*
D42*
X152085000Y-96078000D02*
X152019000Y-96012000D01*
X152085000Y-97112000D02*
X152085000Y-96078000D01*
D40*
G04 #@! TO.N,Net-(L1-Pad1)*
X140147000Y-104745000D02*
X140147000Y-105344000D01*
X140147000Y-104745000D02*
X140081000Y-104679000D01*
X140081000Y-104679000D02*
X140081000Y-104394000D01*
X139700000Y-104394000D02*
X139700000Y-105791000D01*
X140081000Y-104394000D02*
X139700000Y-104394000D01*
X140147000Y-105344000D02*
X139700000Y-105791000D01*
X139700000Y-104394000D02*
X139319000Y-104394000D01*
X139319000Y-105664000D02*
X138684000Y-106299000D01*
X139319000Y-104394000D02*
X139319000Y-105664000D01*
X138811000Y-106680000D02*
X139700000Y-105791000D01*
X138487000Y-106356000D02*
X138811000Y-106680000D01*
X139319000Y-104394000D02*
X139192000Y-104394000D01*
X139192000Y-104394000D02*
X138487000Y-105099000D01*
X138487000Y-105099000D02*
X138487000Y-106356000D01*
D41*
G04 #@! TO.N,Net-(Q2-Pad2)*
X147320000Y-96869398D02*
X148177398Y-96012000D01*
X147320000Y-97028000D02*
X147320000Y-96869398D01*
X150812500Y-96919440D02*
X150812500Y-97119440D01*
X149905060Y-96012000D02*
X150812500Y-96919440D01*
X148177398Y-96012000D02*
X149905060Y-96012000D01*
X147193000Y-97028000D02*
X147320000Y-97028000D01*
X144970500Y-99243000D02*
X146050000Y-99243000D01*
X146050000Y-99243000D02*
X146431000Y-98862000D01*
X146431000Y-97790000D02*
X147193000Y-97028000D01*
X146431000Y-98862000D02*
X146431000Y-97790000D01*
D40*
G04 #@! TO.N,Net-(Q3-Pad1)*
X150530472Y-98841560D02*
X149986101Y-98297189D01*
X150809960Y-98841560D02*
X150530472Y-98841560D01*
X147376400Y-95306400D02*
X147320000Y-95250000D01*
X148348381Y-95306400D02*
X147376400Y-95306400D01*
X147320000Y-94996000D02*
X147320000Y-95250000D01*
X148037981Y-94996000D02*
X147320000Y-94996000D01*
X148348381Y-95306400D02*
X148037981Y-94996000D01*
D41*
G04 #@! TO.N,Net-(Q3-Pad2)*
X146614000Y-99893000D02*
X144970500Y-99893000D01*
X147193000Y-99314000D02*
X146614000Y-99893000D01*
X147320000Y-99314000D02*
X147193000Y-99314000D01*
D39*
X148435060Y-99314000D02*
X148907500Y-98841560D01*
X147320000Y-99314000D02*
X148435060Y-99314000D01*
D40*
G04 #@! TO.N,Net-(Q3-Pad3)*
X149862540Y-101216460D02*
X149862540Y-101051360D01*
X149860000Y-101219000D02*
X149862540Y-101216460D01*
X152146000Y-101219000D02*
X149860000Y-101219000D01*
X152400000Y-100965000D02*
X152146000Y-101219000D01*
G04 #@! TO.N,Net-(R3-Pad2)*
X150241000Y-109347000D02*
X152273000Y-109347000D01*
X149799000Y-110647000D02*
X149799000Y-109793000D01*
X153670000Y-110744000D02*
X153924000Y-110744000D01*
X149799000Y-109793000D02*
X150114000Y-109478000D01*
X150114000Y-109478000D02*
X150114000Y-109474000D01*
X152273000Y-109347000D02*
X153670000Y-110744000D01*
X150114000Y-109474000D02*
X150241000Y-109347000D01*
D39*
G04 #@! TO.N,Net-(R4-Pad1)*
X149799000Y-108047000D02*
X149388000Y-108458000D01*
X149388000Y-108458000D02*
X148590000Y-108458000D01*
D41*
G04 #@! TO.N,Net-(R6-Pad1)*
X137731500Y-97943000D02*
X136805000Y-97943000D01*
X136652000Y-97790000D02*
X136652000Y-96393000D01*
X136805000Y-97943000D02*
X136652000Y-97790000D01*
X136652000Y-96393000D02*
X137160000Y-95885000D01*
D42*
X137160000Y-94234000D02*
X137160000Y-95870899D01*
D41*
X137160000Y-95885000D02*
X137160000Y-95870899D01*
G04 #@! TO.N,Net-(R7-Pad1)*
X140462000Y-94361000D02*
X140462000Y-94234000D01*
X137731500Y-98593000D02*
X138620500Y-98593000D01*
X138620500Y-98593000D02*
X138747500Y-98466000D01*
X138747500Y-98466000D02*
X138747500Y-96075500D01*
X138747500Y-96075500D02*
X140462000Y-94361000D01*
D39*
G04 #@! TO.N,Net-(R11-Pad1)*
X143764000Y-106172000D02*
X143764000Y-107569000D01*
D40*
X142047000Y-107345000D02*
X142271000Y-107569000D01*
D39*
X143764000Y-106172000D02*
X143129000Y-106172000D01*
X142271000Y-107030000D02*
X142271000Y-107569000D01*
X143129000Y-106172000D02*
X142271000Y-107030000D01*
X143129000Y-106172000D02*
X143129000Y-107569000D01*
X143129000Y-107569000D02*
X143764000Y-107569000D01*
X142271000Y-107569000D02*
X143129000Y-107569000D01*
D41*
G04 #@! TO.N,Net-(U2-Pad7)*
X141859012Y-110617012D02*
X141859012Y-110617000D01*
X142860000Y-111618000D02*
X141859012Y-110617012D01*
X142860000Y-112797000D02*
X142860000Y-111618000D01*
X137731500Y-100543000D02*
X141888600Y-100543000D01*
X141888600Y-100543000D02*
X142056610Y-100711010D01*
G04 #@! TO.N,Net-(U2-Pad6)*
X143174370Y-110934500D02*
X142834185Y-110594315D01*
X143510000Y-111270130D02*
X143174370Y-110934500D01*
X143510000Y-112797000D02*
X143510000Y-111270130D01*
X142692000Y-99893000D02*
X142748000Y-99949000D01*
X137731500Y-99893000D02*
X142692000Y-99893000D01*
G04 #@! TD*
G04 #@! TO.N,GND*
G36*
X153416001Y-91643967D02*
X153406049Y-91694000D01*
X153445475Y-91892211D01*
X153529412Y-92017832D01*
X153529415Y-92017835D01*
X153557754Y-92060247D01*
X153600166Y-92088586D01*
X154305000Y-92793421D01*
X154305000Y-93123245D01*
X154172068Y-93212068D01*
X153975582Y-93506130D01*
X153906584Y-93853000D01*
X153975582Y-94199870D01*
X154122471Y-94419706D01*
X154940000Y-95237236D01*
X154940000Y-95502619D01*
X155133346Y-95969397D01*
X155490603Y-96326654D01*
X155957381Y-96520000D01*
X155490603Y-96713346D01*
X155133346Y-97070603D01*
X154940000Y-97537381D01*
X154940000Y-98042619D01*
X155133346Y-98509397D01*
X155490603Y-98866654D01*
X155957381Y-99060000D01*
X155490603Y-99253346D01*
X155133346Y-99610603D01*
X154940000Y-100077381D01*
X154940000Y-100582619D01*
X155133346Y-101049397D01*
X155490603Y-101406654D01*
X155957381Y-101600000D01*
X155490603Y-101793346D01*
X155133346Y-102150603D01*
X154940000Y-102617381D01*
X154940000Y-103122619D01*
X155133346Y-103589397D01*
X155490603Y-103946654D01*
X155957381Y-104140000D01*
X155490603Y-104333346D01*
X155133346Y-104690603D01*
X154940000Y-105157381D01*
X154940000Y-105662619D01*
X155133346Y-106129397D01*
X155490603Y-106486654D01*
X155957381Y-106680000D01*
X155490603Y-106873346D01*
X155133346Y-107230603D01*
X154940000Y-107697381D01*
X154940000Y-108202619D01*
X155133346Y-108669397D01*
X155490603Y-109026654D01*
X155957381Y-109220000D01*
X155490603Y-109413346D01*
X155133346Y-109770603D01*
X154940000Y-110237381D01*
X154940000Y-110742619D01*
X155133346Y-111209397D01*
X155490603Y-111566654D01*
X155957381Y-111760000D01*
X155490603Y-111953346D01*
X155133346Y-112310603D01*
X154940000Y-112777381D01*
X154940000Y-113282619D01*
X155133346Y-113749397D01*
X155490603Y-114106654D01*
X155957381Y-114300000D01*
X155490603Y-114493346D01*
X155133346Y-114850603D01*
X154940000Y-115317381D01*
X154940000Y-115822619D01*
X155133346Y-116289397D01*
X155490603Y-116646654D01*
X155957381Y-116840000D01*
X155490603Y-117033346D01*
X155133346Y-117390603D01*
X154940000Y-117857381D01*
X154940000Y-118362619D01*
X155133346Y-118829397D01*
X155175949Y-118872000D01*
X149181421Y-118872000D01*
X148411420Y-118102000D01*
X148638242Y-118102000D01*
X148962047Y-117967876D01*
X149209876Y-117720047D01*
X149344000Y-117396242D01*
X149344000Y-117045758D01*
X149209876Y-116721953D01*
X148962047Y-116474124D01*
X148638242Y-116340000D01*
X148287758Y-116340000D01*
X148150147Y-116397000D01*
X147410000Y-116397000D01*
X147410000Y-117280593D01*
X147582000Y-117376777D01*
X147582000Y-117396242D01*
X147665990Y-117599013D01*
X147650972Y-117602000D01*
X146195000Y-117602000D01*
X146195000Y-117505750D01*
X146036250Y-117347000D01*
X145285000Y-117347000D01*
X145285000Y-117597000D01*
X144735000Y-117597000D01*
X144735000Y-117347000D01*
X143983750Y-117347000D01*
X143825000Y-117505750D01*
X143825000Y-117602000D01*
X143195000Y-117602000D01*
X143195000Y-117505750D01*
X143036250Y-117347000D01*
X142285000Y-117347000D01*
X142285000Y-117597000D01*
X141735000Y-117597000D01*
X141735000Y-117347000D01*
X140983750Y-117347000D01*
X140825000Y-117505750D01*
X140825000Y-117602000D01*
X139369027Y-117602000D01*
X139318999Y-117592049D01*
X139268971Y-117602000D01*
X139268968Y-117602000D01*
X139120788Y-117631475D01*
X138995167Y-117715412D01*
X138995165Y-117715414D01*
X138952753Y-117743753D01*
X138924414Y-117786165D01*
X138398464Y-118312115D01*
X138398464Y-116943000D01*
X138368894Y-116794341D01*
X138284686Y-116668314D01*
X138158659Y-116584106D01*
X138158272Y-116584029D01*
X138740953Y-116584029D01*
X138958917Y-117005749D01*
X139321675Y-117311956D01*
X139426284Y-117383329D01*
X139610000Y-117280593D01*
X139610000Y-116397000D01*
X140210000Y-116397000D01*
X140210000Y-117280593D01*
X140393716Y-117383329D01*
X140498325Y-117311956D01*
X140861083Y-117005749D01*
X140956972Y-116820222D01*
X140983750Y-116847000D01*
X141735000Y-116847000D01*
X141735000Y-116120750D01*
X142285000Y-116120750D01*
X142285000Y-116847000D01*
X143036250Y-116847000D01*
X143195000Y-116688250D01*
X143195000Y-116470690D01*
X143825000Y-116470690D01*
X143825000Y-116688250D01*
X143983750Y-116847000D01*
X144735000Y-116847000D01*
X144735000Y-116120750D01*
X145285000Y-116120750D01*
X145285000Y-116847000D01*
X146036250Y-116847000D01*
X146063028Y-116820222D01*
X146158917Y-117005749D01*
X146521675Y-117311956D01*
X146626284Y-117383329D01*
X146810000Y-117280593D01*
X146810000Y-116397000D01*
X146164477Y-116397000D01*
X146098327Y-116237301D01*
X145919698Y-116058673D01*
X145686309Y-115962000D01*
X145443750Y-115962000D01*
X145285000Y-116120750D01*
X144735000Y-116120750D01*
X144576250Y-115962000D01*
X144333691Y-115962000D01*
X144100302Y-116058673D01*
X143921673Y-116237301D01*
X143825000Y-116470690D01*
X143195000Y-116470690D01*
X143098327Y-116237301D01*
X142919698Y-116058673D01*
X142686309Y-115962000D01*
X142443750Y-115962000D01*
X142285000Y-116120750D01*
X141735000Y-116120750D01*
X141576250Y-115962000D01*
X141333691Y-115962000D01*
X141100302Y-116058673D01*
X140921673Y-116237301D01*
X140855523Y-116397000D01*
X140210000Y-116397000D01*
X139610000Y-116397000D01*
X138861373Y-116397000D01*
X138740953Y-116584029D01*
X138158272Y-116584029D01*
X138010000Y-116554536D01*
X136310000Y-116554536D01*
X136161341Y-116584106D01*
X136094102Y-116629033D01*
X136051130Y-116637581D01*
X135757067Y-116834067D01*
X135707471Y-116908294D01*
X135320000Y-117295765D01*
X135320000Y-117161998D01*
X135294252Y-117161998D01*
X135320000Y-117136250D01*
X135320000Y-116793691D01*
X135223327Y-116560302D01*
X135044699Y-116381673D01*
X134849937Y-116301000D01*
X134980405Y-116301000D01*
X135249078Y-116189712D01*
X135454712Y-115984078D01*
X135566000Y-115715405D01*
X135566000Y-115424595D01*
X135468413Y-115189000D01*
X136081463Y-115189000D01*
X136144000Y-115201439D01*
X136206537Y-115189000D01*
X138803476Y-115189000D01*
X138740953Y-115309971D01*
X138861373Y-115497000D01*
X139610000Y-115497000D01*
X139610000Y-115419000D01*
X140210000Y-115419000D01*
X140210000Y-115497000D01*
X140668123Y-115497000D01*
X140722235Y-115533157D01*
X140907459Y-115570000D01*
X140907464Y-115570000D01*
X140969999Y-115582439D01*
X141032535Y-115570000D01*
X142624830Y-115570000D01*
X142856595Y-115666000D01*
X143147405Y-115666000D01*
X143416078Y-115554712D01*
X143618330Y-115352460D01*
X143652124Y-115434047D01*
X143899953Y-115681876D01*
X144223758Y-115816000D01*
X144574242Y-115816000D01*
X144861534Y-115697000D01*
X145720957Y-115697000D01*
X145796000Y-115711927D01*
X145871043Y-115697000D01*
X145871048Y-115697000D01*
X146093317Y-115652788D01*
X146326470Y-115497000D01*
X146810000Y-115497000D01*
X146810000Y-115419000D01*
X147410000Y-115419000D01*
X147410000Y-115497000D01*
X148158627Y-115497000D01*
X148279047Y-115309971D01*
X148221894Y-115199390D01*
X148758567Y-115199390D01*
X148833610Y-115214317D01*
X148908653Y-115199390D01*
X148908658Y-115199390D01*
X149130927Y-115155178D01*
X149382981Y-114986761D01*
X149417567Y-114935000D01*
X150711447Y-114935000D01*
X150372132Y-115274315D01*
X150122000Y-115878187D01*
X150122000Y-116531813D01*
X150372132Y-117135685D01*
X150834315Y-117597868D01*
X151438187Y-117848000D01*
X152091813Y-117848000D01*
X152695685Y-117597868D01*
X153157868Y-117135685D01*
X153408000Y-116531813D01*
X153408000Y-115878187D01*
X153157868Y-115274315D01*
X152695685Y-114812132D01*
X152685709Y-114808000D01*
X152778384Y-114808000D01*
X152840921Y-114820439D01*
X152903458Y-114808000D01*
X152903462Y-114808000D01*
X153088686Y-114771157D01*
X153298730Y-114630809D01*
X153334159Y-114577786D01*
X154074791Y-113837156D01*
X154127809Y-113801730D01*
X154163234Y-113748713D01*
X154163236Y-113748711D01*
X154268157Y-113591686D01*
X154278731Y-113538525D01*
X154305000Y-113406462D01*
X154305000Y-113406458D01*
X154317439Y-113343921D01*
X154305000Y-113281384D01*
X154305000Y-112584537D01*
X154317439Y-112522000D01*
X154305000Y-112459463D01*
X154305000Y-112459459D01*
X154268157Y-112274235D01*
X154127809Y-112064191D01*
X154074789Y-112028764D01*
X153686489Y-111640464D01*
X154432000Y-111640464D01*
X154580659Y-111610894D01*
X154706686Y-111526686D01*
X154790894Y-111400659D01*
X154820464Y-111252000D01*
X154820464Y-110236000D01*
X154790894Y-110087341D01*
X154706686Y-109961314D01*
X154580659Y-109877106D01*
X154469524Y-109855000D01*
X154580659Y-109832894D01*
X154706686Y-109748686D01*
X154790894Y-109622659D01*
X154820464Y-109474000D01*
X154820464Y-108458000D01*
X154813000Y-108420476D01*
X154813000Y-107227444D01*
X154761419Y-106968130D01*
X154706761Y-106886328D01*
X154682894Y-106766341D01*
X154598686Y-106640314D01*
X154472659Y-106556106D01*
X154457044Y-106553000D01*
X154472659Y-106549894D01*
X154598686Y-106465686D01*
X154682894Y-106339659D01*
X154706761Y-106219672D01*
X154761419Y-106137870D01*
X154781132Y-106038765D01*
X154813000Y-105878556D01*
X154813000Y-105878555D01*
X154830416Y-105791000D01*
X154813000Y-105703444D01*
X154813000Y-104013554D01*
X154830416Y-103925999D01*
X154811069Y-103828736D01*
X154764464Y-103594438D01*
X154764464Y-102528000D01*
X154734894Y-102379341D01*
X154650686Y-102253314D01*
X154524659Y-102169106D01*
X154376000Y-102139536D01*
X154008171Y-102139536D01*
X154286244Y-101861464D01*
X154432000Y-101861464D01*
X154580659Y-101831894D01*
X154706686Y-101747686D01*
X154790894Y-101621659D01*
X154820464Y-101473000D01*
X154820464Y-100457000D01*
X154790894Y-100308341D01*
X154706686Y-100182314D01*
X154580659Y-100098106D01*
X154469524Y-100076000D01*
X154580659Y-100053894D01*
X154706686Y-99969686D01*
X154790894Y-99843659D01*
X154820464Y-99695000D01*
X154820464Y-99475796D01*
X154822419Y-99472870D01*
X154874000Y-99213556D01*
X154874000Y-99213555D01*
X154891416Y-99126001D01*
X154874000Y-99038446D01*
X154874000Y-97024444D01*
X154873464Y-97021749D01*
X154873464Y-96412000D01*
X154843894Y-96263341D01*
X154759686Y-96137314D01*
X154633659Y-96053106D01*
X154485000Y-96023536D01*
X153543000Y-96023536D01*
X153543000Y-95998873D01*
X153683659Y-95970894D01*
X153809686Y-95886686D01*
X153893894Y-95760659D01*
X153923464Y-95612000D01*
X153923464Y-94212000D01*
X153893894Y-94063341D01*
X153809686Y-93937314D01*
X153683659Y-93853106D01*
X153535000Y-93823536D01*
X152975017Y-93823536D01*
X153157868Y-93640685D01*
X153408000Y-93036813D01*
X153408000Y-92383187D01*
X153157868Y-91779315D01*
X152695685Y-91317132D01*
X152091813Y-91067000D01*
X151767840Y-91067000D01*
X151770933Y-91064933D01*
X151843310Y-90956613D01*
X151876876Y-90923047D01*
X151895042Y-90879190D01*
X151967419Y-90770870D01*
X151992835Y-90643097D01*
X152011000Y-90599242D01*
X152011000Y-90551774D01*
X152036416Y-90424000D01*
X152011000Y-90296226D01*
X152011000Y-90248758D01*
X151992835Y-90204903D01*
X151967419Y-90077130D01*
X151942610Y-90040000D01*
X152597556Y-90040000D01*
X152851616Y-89989464D01*
X153360000Y-89989464D01*
X153416001Y-89978325D01*
X153416001Y-91643967D01*
X153416001Y-91643967D01*
G37*
X153416001Y-91643967D02*
X153406049Y-91694000D01*
X153445475Y-91892211D01*
X153529412Y-92017832D01*
X153529415Y-92017835D01*
X153557754Y-92060247D01*
X153600166Y-92088586D01*
X154305000Y-92793421D01*
X154305000Y-93123245D01*
X154172068Y-93212068D01*
X153975582Y-93506130D01*
X153906584Y-93853000D01*
X153975582Y-94199870D01*
X154122471Y-94419706D01*
X154940000Y-95237236D01*
X154940000Y-95502619D01*
X155133346Y-95969397D01*
X155490603Y-96326654D01*
X155957381Y-96520000D01*
X155490603Y-96713346D01*
X155133346Y-97070603D01*
X154940000Y-97537381D01*
X154940000Y-98042619D01*
X155133346Y-98509397D01*
X155490603Y-98866654D01*
X155957381Y-99060000D01*
X155490603Y-99253346D01*
X155133346Y-99610603D01*
X154940000Y-100077381D01*
X154940000Y-100582619D01*
X155133346Y-101049397D01*
X155490603Y-101406654D01*
X155957381Y-101600000D01*
X155490603Y-101793346D01*
X155133346Y-102150603D01*
X154940000Y-102617381D01*
X154940000Y-103122619D01*
X155133346Y-103589397D01*
X155490603Y-103946654D01*
X155957381Y-104140000D01*
X155490603Y-104333346D01*
X155133346Y-104690603D01*
X154940000Y-105157381D01*
X154940000Y-105662619D01*
X155133346Y-106129397D01*
X155490603Y-106486654D01*
X155957381Y-106680000D01*
X155490603Y-106873346D01*
X155133346Y-107230603D01*
X154940000Y-107697381D01*
X154940000Y-108202619D01*
X155133346Y-108669397D01*
X155490603Y-109026654D01*
X155957381Y-109220000D01*
X155490603Y-109413346D01*
X155133346Y-109770603D01*
X154940000Y-110237381D01*
X154940000Y-110742619D01*
X155133346Y-111209397D01*
X155490603Y-111566654D01*
X155957381Y-111760000D01*
X155490603Y-111953346D01*
X155133346Y-112310603D01*
X154940000Y-112777381D01*
X154940000Y-113282619D01*
X155133346Y-113749397D01*
X155490603Y-114106654D01*
X155957381Y-114300000D01*
X155490603Y-114493346D01*
X155133346Y-114850603D01*
X154940000Y-115317381D01*
X154940000Y-115822619D01*
X155133346Y-116289397D01*
X155490603Y-116646654D01*
X155957381Y-116840000D01*
X155490603Y-117033346D01*
X155133346Y-117390603D01*
X154940000Y-117857381D01*
X154940000Y-118362619D01*
X155133346Y-118829397D01*
X155175949Y-118872000D01*
X149181421Y-118872000D01*
X148411420Y-118102000D01*
X148638242Y-118102000D01*
X148962047Y-117967876D01*
X149209876Y-117720047D01*
X149344000Y-117396242D01*
X149344000Y-117045758D01*
X149209876Y-116721953D01*
X148962047Y-116474124D01*
X148638242Y-116340000D01*
X148287758Y-116340000D01*
X148150147Y-116397000D01*
X147410000Y-116397000D01*
X147410000Y-117280593D01*
X147582000Y-117376777D01*
X147582000Y-117396242D01*
X147665990Y-117599013D01*
X147650972Y-117602000D01*
X146195000Y-117602000D01*
X146195000Y-117505750D01*
X146036250Y-117347000D01*
X145285000Y-117347000D01*
X145285000Y-117597000D01*
X144735000Y-117597000D01*
X144735000Y-117347000D01*
X143983750Y-117347000D01*
X143825000Y-117505750D01*
X143825000Y-117602000D01*
X143195000Y-117602000D01*
X143195000Y-117505750D01*
X143036250Y-117347000D01*
X142285000Y-117347000D01*
X142285000Y-117597000D01*
X141735000Y-117597000D01*
X141735000Y-117347000D01*
X140983750Y-117347000D01*
X140825000Y-117505750D01*
X140825000Y-117602000D01*
X139369027Y-117602000D01*
X139318999Y-117592049D01*
X139268971Y-117602000D01*
X139268968Y-117602000D01*
X139120788Y-117631475D01*
X138995167Y-117715412D01*
X138995165Y-117715414D01*
X138952753Y-117743753D01*
X138924414Y-117786165D01*
X138398464Y-118312115D01*
X138398464Y-116943000D01*
X138368894Y-116794341D01*
X138284686Y-116668314D01*
X138158659Y-116584106D01*
X138158272Y-116584029D01*
X138740953Y-116584029D01*
X138958917Y-117005749D01*
X139321675Y-117311956D01*
X139426284Y-117383329D01*
X139610000Y-117280593D01*
X139610000Y-116397000D01*
X140210000Y-116397000D01*
X140210000Y-117280593D01*
X140393716Y-117383329D01*
X140498325Y-117311956D01*
X140861083Y-117005749D01*
X140956972Y-116820222D01*
X140983750Y-116847000D01*
X141735000Y-116847000D01*
X141735000Y-116120750D01*
X142285000Y-116120750D01*
X142285000Y-116847000D01*
X143036250Y-116847000D01*
X143195000Y-116688250D01*
X143195000Y-116470690D01*
X143825000Y-116470690D01*
X143825000Y-116688250D01*
X143983750Y-116847000D01*
X144735000Y-116847000D01*
X144735000Y-116120750D01*
X145285000Y-116120750D01*
X145285000Y-116847000D01*
X146036250Y-116847000D01*
X146063028Y-116820222D01*
X146158917Y-117005749D01*
X146521675Y-117311956D01*
X146626284Y-117383329D01*
X146810000Y-117280593D01*
X146810000Y-116397000D01*
X146164477Y-116397000D01*
X146098327Y-116237301D01*
X145919698Y-116058673D01*
X145686309Y-115962000D01*
X145443750Y-115962000D01*
X145285000Y-116120750D01*
X144735000Y-116120750D01*
X144576250Y-115962000D01*
X144333691Y-115962000D01*
X144100302Y-116058673D01*
X143921673Y-116237301D01*
X143825000Y-116470690D01*
X143195000Y-116470690D01*
X143098327Y-116237301D01*
X142919698Y-116058673D01*
X142686309Y-115962000D01*
X142443750Y-115962000D01*
X142285000Y-116120750D01*
X141735000Y-116120750D01*
X141576250Y-115962000D01*
X141333691Y-115962000D01*
X141100302Y-116058673D01*
X140921673Y-116237301D01*
X140855523Y-116397000D01*
X140210000Y-116397000D01*
X139610000Y-116397000D01*
X138861373Y-116397000D01*
X138740953Y-116584029D01*
X138158272Y-116584029D01*
X138010000Y-116554536D01*
X136310000Y-116554536D01*
X136161341Y-116584106D01*
X136094102Y-116629033D01*
X136051130Y-116637581D01*
X135757067Y-116834067D01*
X135707471Y-116908294D01*
X135320000Y-117295765D01*
X135320000Y-117161998D01*
X135294252Y-117161998D01*
X135320000Y-117136250D01*
X135320000Y-116793691D01*
X135223327Y-116560302D01*
X135044699Y-116381673D01*
X134849937Y-116301000D01*
X134980405Y-116301000D01*
X135249078Y-116189712D01*
X135454712Y-115984078D01*
X135566000Y-115715405D01*
X135566000Y-115424595D01*
X135468413Y-115189000D01*
X136081463Y-115189000D01*
X136144000Y-115201439D01*
X136206537Y-115189000D01*
X138803476Y-115189000D01*
X138740953Y-115309971D01*
X138861373Y-115497000D01*
X139610000Y-115497000D01*
X139610000Y-115419000D01*
X140210000Y-115419000D01*
X140210000Y-115497000D01*
X140668123Y-115497000D01*
X140722235Y-115533157D01*
X140907459Y-115570000D01*
X140907464Y-115570000D01*
X140969999Y-115582439D01*
X141032535Y-115570000D01*
X142624830Y-115570000D01*
X142856595Y-115666000D01*
X143147405Y-115666000D01*
X143416078Y-115554712D01*
X143618330Y-115352460D01*
X143652124Y-115434047D01*
X143899953Y-115681876D01*
X144223758Y-115816000D01*
X144574242Y-115816000D01*
X144861534Y-115697000D01*
X145720957Y-115697000D01*
X145796000Y-115711927D01*
X145871043Y-115697000D01*
X145871048Y-115697000D01*
X146093317Y-115652788D01*
X146326470Y-115497000D01*
X146810000Y-115497000D01*
X146810000Y-115419000D01*
X147410000Y-115419000D01*
X147410000Y-115497000D01*
X148158627Y-115497000D01*
X148279047Y-115309971D01*
X148221894Y-115199390D01*
X148758567Y-115199390D01*
X148833610Y-115214317D01*
X148908653Y-115199390D01*
X148908658Y-115199390D01*
X149130927Y-115155178D01*
X149382981Y-114986761D01*
X149417567Y-114935000D01*
X150711447Y-114935000D01*
X150372132Y-115274315D01*
X150122000Y-115878187D01*
X150122000Y-116531813D01*
X150372132Y-117135685D01*
X150834315Y-117597868D01*
X151438187Y-117848000D01*
X152091813Y-117848000D01*
X152695685Y-117597868D01*
X153157868Y-117135685D01*
X153408000Y-116531813D01*
X153408000Y-115878187D01*
X153157868Y-115274315D01*
X152695685Y-114812132D01*
X152685709Y-114808000D01*
X152778384Y-114808000D01*
X152840921Y-114820439D01*
X152903458Y-114808000D01*
X152903462Y-114808000D01*
X153088686Y-114771157D01*
X153298730Y-114630809D01*
X153334159Y-114577786D01*
X154074791Y-113837156D01*
X154127809Y-113801730D01*
X154163234Y-113748713D01*
X154163236Y-113748711D01*
X154268157Y-113591686D01*
X154278731Y-113538525D01*
X154305000Y-113406462D01*
X154305000Y-113406458D01*
X154317439Y-113343921D01*
X154305000Y-113281384D01*
X154305000Y-112584537D01*
X154317439Y-112522000D01*
X154305000Y-112459463D01*
X154305000Y-112459459D01*
X154268157Y-112274235D01*
X154127809Y-112064191D01*
X154074789Y-112028764D01*
X153686489Y-111640464D01*
X154432000Y-111640464D01*
X154580659Y-111610894D01*
X154706686Y-111526686D01*
X154790894Y-111400659D01*
X154820464Y-111252000D01*
X154820464Y-110236000D01*
X154790894Y-110087341D01*
X154706686Y-109961314D01*
X154580659Y-109877106D01*
X154469524Y-109855000D01*
X154580659Y-109832894D01*
X154706686Y-109748686D01*
X154790894Y-109622659D01*
X154820464Y-109474000D01*
X154820464Y-108458000D01*
X154813000Y-108420476D01*
X154813000Y-107227444D01*
X154761419Y-106968130D01*
X154706761Y-106886328D01*
X154682894Y-106766341D01*
X154598686Y-106640314D01*
X154472659Y-106556106D01*
X154457044Y-106553000D01*
X154472659Y-106549894D01*
X154598686Y-106465686D01*
X154682894Y-106339659D01*
X154706761Y-106219672D01*
X154761419Y-106137870D01*
X154781132Y-106038765D01*
X154813000Y-105878556D01*
X154813000Y-105878555D01*
X154830416Y-105791000D01*
X154813000Y-105703444D01*
X154813000Y-104013554D01*
X154830416Y-103925999D01*
X154811069Y-103828736D01*
X154764464Y-103594438D01*
X154764464Y-102528000D01*
X154734894Y-102379341D01*
X154650686Y-102253314D01*
X154524659Y-102169106D01*
X154376000Y-102139536D01*
X154008171Y-102139536D01*
X154286244Y-101861464D01*
X154432000Y-101861464D01*
X154580659Y-101831894D01*
X154706686Y-101747686D01*
X154790894Y-101621659D01*
X154820464Y-101473000D01*
X154820464Y-100457000D01*
X154790894Y-100308341D01*
X154706686Y-100182314D01*
X154580659Y-100098106D01*
X154469524Y-100076000D01*
X154580659Y-100053894D01*
X154706686Y-99969686D01*
X154790894Y-99843659D01*
X154820464Y-99695000D01*
X154820464Y-99475796D01*
X154822419Y-99472870D01*
X154874000Y-99213556D01*
X154874000Y-99213555D01*
X154891416Y-99126001D01*
X154874000Y-99038446D01*
X154874000Y-97024444D01*
X154873464Y-97021749D01*
X154873464Y-96412000D01*
X154843894Y-96263341D01*
X154759686Y-96137314D01*
X154633659Y-96053106D01*
X154485000Y-96023536D01*
X153543000Y-96023536D01*
X153543000Y-95998873D01*
X153683659Y-95970894D01*
X153809686Y-95886686D01*
X153893894Y-95760659D01*
X153923464Y-95612000D01*
X153923464Y-94212000D01*
X153893894Y-94063341D01*
X153809686Y-93937314D01*
X153683659Y-93853106D01*
X153535000Y-93823536D01*
X152975017Y-93823536D01*
X153157868Y-93640685D01*
X153408000Y-93036813D01*
X153408000Y-92383187D01*
X153157868Y-91779315D01*
X152695685Y-91317132D01*
X152091813Y-91067000D01*
X151767840Y-91067000D01*
X151770933Y-91064933D01*
X151843310Y-90956613D01*
X151876876Y-90923047D01*
X151895042Y-90879190D01*
X151967419Y-90770870D01*
X151992835Y-90643097D01*
X152011000Y-90599242D01*
X152011000Y-90551774D01*
X152036416Y-90424000D01*
X152011000Y-90296226D01*
X152011000Y-90248758D01*
X151992835Y-90204903D01*
X151967419Y-90077130D01*
X151942610Y-90040000D01*
X152597556Y-90040000D01*
X152851616Y-89989464D01*
X153360000Y-89989464D01*
X153416001Y-89978325D01*
X153416001Y-91643967D01*
G36*
X138620500Y-108712000D02*
X138831000Y-108712000D01*
X138831000Y-109474000D01*
X138620500Y-109474000D01*
X138620500Y-110312264D01*
X137990296Y-110942469D01*
X137916067Y-110992067D01*
X137866471Y-111066293D01*
X137378228Y-111554536D01*
X136310000Y-111554536D01*
X136253009Y-111565872D01*
X136185361Y-111464629D01*
X135933306Y-111296212D01*
X135763000Y-111262336D01*
X135763000Y-111156750D01*
X135604250Y-110998000D01*
X134874000Y-110998000D01*
X134874000Y-111698359D01*
X134642248Y-111930111D01*
X134578630Y-111972619D01*
X134536121Y-112036238D01*
X134240823Y-112331536D01*
X133285000Y-112331536D01*
X133136341Y-112361106D01*
X133010314Y-112445314D01*
X132926106Y-112571341D01*
X132896536Y-112720000D01*
X132896536Y-114220000D01*
X132926106Y-114368659D01*
X133010314Y-114494686D01*
X133136341Y-114578894D01*
X133285000Y-114608464D01*
X134225439Y-114608464D01*
X134524400Y-114907426D01*
X134420922Y-114950288D01*
X134215288Y-115155922D01*
X134104000Y-115424595D01*
X134104000Y-115715405D01*
X134215288Y-115984078D01*
X134420922Y-116189712D01*
X134650968Y-116285000D01*
X134493750Y-116285000D01*
X134335000Y-116443750D01*
X134335000Y-117295000D01*
X134513000Y-117295000D01*
X134513000Y-118045000D01*
X134335000Y-118045000D01*
X134335000Y-118198000D01*
X133635000Y-118198000D01*
X133635000Y-118045000D01*
X132808750Y-118045000D01*
X132650000Y-118203750D01*
X132650000Y-118546309D01*
X132746673Y-118779698D01*
X132838974Y-118872000D01*
X131844051Y-118872000D01*
X131886654Y-118829397D01*
X132080000Y-118362619D01*
X132080000Y-117857381D01*
X131886654Y-117390603D01*
X131529397Y-117033346D01*
X131062619Y-116840000D01*
X131529397Y-116646654D01*
X131886654Y-116289397D01*
X132080000Y-115822619D01*
X132080000Y-115424595D01*
X132404000Y-115424595D01*
X132404000Y-115715405D01*
X132515288Y-115984078D01*
X132720922Y-116189712D01*
X132989595Y-116301000D01*
X133120063Y-116301000D01*
X132925301Y-116381673D01*
X132746673Y-116560302D01*
X132650000Y-116793691D01*
X132650000Y-117136250D01*
X132808750Y-117295000D01*
X133635000Y-117295000D01*
X133635000Y-116443750D01*
X133476250Y-116285000D01*
X133319032Y-116285000D01*
X133549078Y-116189712D01*
X133754712Y-115984078D01*
X133866000Y-115715405D01*
X133866000Y-115424595D01*
X133754712Y-115155922D01*
X133549078Y-114950288D01*
X133280405Y-114839000D01*
X132989595Y-114839000D01*
X132720922Y-114950288D01*
X132515288Y-115155922D01*
X132404000Y-115424595D01*
X132080000Y-115424595D01*
X132080000Y-115317381D01*
X131886654Y-114850603D01*
X131529397Y-114493346D01*
X131062619Y-114300000D01*
X131529397Y-114106654D01*
X131886654Y-113749397D01*
X132080000Y-113282619D01*
X132080000Y-112777381D01*
X131886654Y-112310603D01*
X131529397Y-111953346D01*
X131062619Y-111760000D01*
X131529397Y-111566654D01*
X131886654Y-111209397D01*
X131953000Y-111049224D01*
X131953000Y-111378310D01*
X132049673Y-111611699D01*
X132228301Y-111790328D01*
X132461690Y-111887001D01*
X132683250Y-111887001D01*
X132842000Y-111728251D01*
X132842000Y-110998001D01*
X133350000Y-110998001D01*
X133350000Y-111728251D01*
X133508750Y-111887001D01*
X133730310Y-111887001D01*
X133858001Y-111834110D01*
X133985690Y-111887000D01*
X134207250Y-111887000D01*
X134366000Y-111728250D01*
X134366000Y-110998000D01*
X133635750Y-110998000D01*
X133635749Y-110998001D01*
X133350000Y-110998001D01*
X132842000Y-110998001D01*
X132588000Y-110998001D01*
X132588000Y-110490001D01*
X132842000Y-110490001D01*
X132842000Y-110236001D01*
X133350000Y-110236001D01*
X133350000Y-110490001D01*
X134080250Y-110490001D01*
X134080251Y-110490000D01*
X134366000Y-110490000D01*
X134366000Y-110236000D01*
X134874000Y-110236000D01*
X134874000Y-110490000D01*
X135604250Y-110490000D01*
X135763000Y-110331250D01*
X135763000Y-110243464D01*
X136906000Y-110243464D01*
X137054659Y-110213894D01*
X137113151Y-110174811D01*
X137129673Y-110214698D01*
X137308301Y-110393327D01*
X137541690Y-110490000D01*
X137826750Y-110490000D01*
X137985500Y-110331250D01*
X137985500Y-109474000D01*
X137775000Y-109474000D01*
X137775000Y-108712000D01*
X137985500Y-108712000D01*
X137985500Y-108565000D01*
X138620500Y-108565000D01*
X138620500Y-108712000D01*
X138620500Y-108712000D01*
G37*
X138620500Y-108712000D02*
X138831000Y-108712000D01*
X138831000Y-109474000D01*
X138620500Y-109474000D01*
X138620500Y-110312264D01*
X137990296Y-110942469D01*
X137916067Y-110992067D01*
X137866471Y-111066293D01*
X137378228Y-111554536D01*
X136310000Y-111554536D01*
X136253009Y-111565872D01*
X136185361Y-111464629D01*
X135933306Y-111296212D01*
X135763000Y-111262336D01*
X135763000Y-111156750D01*
X135604250Y-110998000D01*
X134874000Y-110998000D01*
X134874000Y-111698359D01*
X134642248Y-111930111D01*
X134578630Y-111972619D01*
X134536121Y-112036238D01*
X134240823Y-112331536D01*
X133285000Y-112331536D01*
X133136341Y-112361106D01*
X133010314Y-112445314D01*
X132926106Y-112571341D01*
X132896536Y-112720000D01*
X132896536Y-114220000D01*
X132926106Y-114368659D01*
X133010314Y-114494686D01*
X133136341Y-114578894D01*
X133285000Y-114608464D01*
X134225439Y-114608464D01*
X134524400Y-114907426D01*
X134420922Y-114950288D01*
X134215288Y-115155922D01*
X134104000Y-115424595D01*
X134104000Y-115715405D01*
X134215288Y-115984078D01*
X134420922Y-116189712D01*
X134650968Y-116285000D01*
X134493750Y-116285000D01*
X134335000Y-116443750D01*
X134335000Y-117295000D01*
X134513000Y-117295000D01*
X134513000Y-118045000D01*
X134335000Y-118045000D01*
X134335000Y-118198000D01*
X133635000Y-118198000D01*
X133635000Y-118045000D01*
X132808750Y-118045000D01*
X132650000Y-118203750D01*
X132650000Y-118546309D01*
X132746673Y-118779698D01*
X132838974Y-118872000D01*
X131844051Y-118872000D01*
X131886654Y-118829397D01*
X132080000Y-118362619D01*
X132080000Y-117857381D01*
X131886654Y-117390603D01*
X131529397Y-117033346D01*
X131062619Y-116840000D01*
X131529397Y-116646654D01*
X131886654Y-116289397D01*
X132080000Y-115822619D01*
X132080000Y-115424595D01*
X132404000Y-115424595D01*
X132404000Y-115715405D01*
X132515288Y-115984078D01*
X132720922Y-116189712D01*
X132989595Y-116301000D01*
X133120063Y-116301000D01*
X132925301Y-116381673D01*
X132746673Y-116560302D01*
X132650000Y-116793691D01*
X132650000Y-117136250D01*
X132808750Y-117295000D01*
X133635000Y-117295000D01*
X133635000Y-116443750D01*
X133476250Y-116285000D01*
X133319032Y-116285000D01*
X133549078Y-116189712D01*
X133754712Y-115984078D01*
X133866000Y-115715405D01*
X133866000Y-115424595D01*
X133754712Y-115155922D01*
X133549078Y-114950288D01*
X133280405Y-114839000D01*
X132989595Y-114839000D01*
X132720922Y-114950288D01*
X132515288Y-115155922D01*
X132404000Y-115424595D01*
X132080000Y-115424595D01*
X132080000Y-115317381D01*
X131886654Y-114850603D01*
X131529397Y-114493346D01*
X131062619Y-114300000D01*
X131529397Y-114106654D01*
X131886654Y-113749397D01*
X132080000Y-113282619D01*
X132080000Y-112777381D01*
X131886654Y-112310603D01*
X131529397Y-111953346D01*
X131062619Y-111760000D01*
X131529397Y-111566654D01*
X131886654Y-111209397D01*
X131953000Y-111049224D01*
X131953000Y-111378310D01*
X132049673Y-111611699D01*
X132228301Y-111790328D01*
X132461690Y-111887001D01*
X132683250Y-111887001D01*
X132842000Y-111728251D01*
X132842000Y-110998001D01*
X133350000Y-110998001D01*
X133350000Y-111728251D01*
X133508750Y-111887001D01*
X133730310Y-111887001D01*
X133858001Y-111834110D01*
X133985690Y-111887000D01*
X134207250Y-111887000D01*
X134366000Y-111728250D01*
X134366000Y-110998000D01*
X133635750Y-110998000D01*
X133635749Y-110998001D01*
X133350000Y-110998001D01*
X132842000Y-110998001D01*
X132588000Y-110998001D01*
X132588000Y-110490001D01*
X132842000Y-110490001D01*
X132842000Y-110236001D01*
X133350000Y-110236001D01*
X133350000Y-110490001D01*
X134080250Y-110490001D01*
X134080251Y-110490000D01*
X134366000Y-110490000D01*
X134366000Y-110236000D01*
X134874000Y-110236000D01*
X134874000Y-110490000D01*
X135604250Y-110490000D01*
X135763000Y-110331250D01*
X135763000Y-110243464D01*
X136906000Y-110243464D01*
X137054659Y-110213894D01*
X137113151Y-110174811D01*
X137129673Y-110214698D01*
X137308301Y-110393327D01*
X137541690Y-110490000D01*
X137826750Y-110490000D01*
X137985500Y-110331250D01*
X137985500Y-109474000D01*
X137775000Y-109474000D01*
X137775000Y-108712000D01*
X137985500Y-108712000D01*
X137985500Y-108565000D01*
X138620500Y-108565000D01*
X138620500Y-108712000D01*
G36*
X142430500Y-108712000D02*
X142621286Y-108712000D01*
X142621000Y-108712691D01*
X142621000Y-108934250D01*
X142779750Y-109093000D01*
X143510000Y-109093000D01*
X143510000Y-108839000D01*
X144018000Y-108839000D01*
X144018000Y-109093000D01*
X144127584Y-109093000D01*
X144145000Y-109180555D01*
X144196581Y-109439869D01*
X144272000Y-109552742D01*
X144272000Y-109601000D01*
X144018000Y-109601000D01*
X144018000Y-110331250D01*
X144176750Y-110490000D01*
X144398310Y-110490000D01*
X144631699Y-110393327D01*
X144781561Y-110243464D01*
X145237972Y-110243464D01*
X145287999Y-110253415D01*
X145338026Y-110243464D01*
X145796000Y-110243464D01*
X145944659Y-110213894D01*
X146070686Y-110129686D01*
X146154894Y-110003659D01*
X146177000Y-109892524D01*
X146199106Y-110003659D01*
X146283314Y-110129686D01*
X146409341Y-110213894D01*
X146558000Y-110243464D01*
X146943881Y-110243464D01*
X146993912Y-110253416D01*
X147043943Y-110243464D01*
X147447000Y-110243464D01*
X147447000Y-110870309D01*
X147531888Y-111075246D01*
X147410000Y-111143407D01*
X147410000Y-112027000D01*
X148158627Y-112027000D01*
X148279047Y-111839971D01*
X148061083Y-111418251D01*
X148014583Y-111379000D01*
X148177250Y-111379000D01*
X148336000Y-111220250D01*
X148336000Y-110490000D01*
X148082000Y-110490000D01*
X148082000Y-109982000D01*
X148336000Y-109982000D01*
X148336000Y-109728000D01*
X148844000Y-109728000D01*
X148844000Y-109982000D01*
X149098000Y-109982000D01*
X149098000Y-110490000D01*
X148844000Y-110490000D01*
X148844000Y-111220250D01*
X149002750Y-111379000D01*
X149161792Y-111379000D01*
X149165106Y-111395659D01*
X149249314Y-111521686D01*
X149375341Y-111605894D01*
X149524000Y-111635464D01*
X149964439Y-111635464D01*
X150114301Y-111785327D01*
X150240007Y-111837396D01*
X149675620Y-111837396D01*
X149526961Y-111866966D01*
X149400934Y-111951174D01*
X149316726Y-112077201D01*
X149287156Y-112225860D01*
X149287156Y-112906214D01*
X149120253Y-113073117D01*
X149056629Y-113115629D01*
X149014118Y-113179251D01*
X148612252Y-113581117D01*
X148548629Y-113623629D01*
X148514043Y-113675390D01*
X147895653Y-113675390D01*
X148061083Y-113535749D01*
X148279047Y-113114029D01*
X148158627Y-112927000D01*
X147410000Y-112927000D01*
X147410000Y-113005000D01*
X146810000Y-113005000D01*
X146810000Y-112927000D01*
X146061373Y-112927000D01*
X145940953Y-113114029D01*
X146158917Y-113535749D01*
X146310686Y-113663859D01*
X146293610Y-113660462D01*
X146218563Y-113675390D01*
X146218562Y-113675390D01*
X146191000Y-113680872D01*
X146191000Y-113661541D01*
X146087324Y-113411244D01*
X145895756Y-113219676D01*
X145645459Y-113116000D01*
X145374541Y-113116000D01*
X145124244Y-113219676D01*
X145038920Y-113305000D01*
X144891250Y-113305000D01*
X144891250Y-113325000D01*
X144728750Y-113325000D01*
X144728750Y-113305000D01*
X144710964Y-113305000D01*
X144710964Y-112289000D01*
X144728750Y-112289000D01*
X144728750Y-111245750D01*
X144891250Y-111245750D01*
X144891250Y-112289000D01*
X145448750Y-112289000D01*
X145607500Y-112130250D01*
X145607500Y-111839971D01*
X145940953Y-111839971D01*
X146061373Y-112027000D01*
X146810000Y-112027000D01*
X146810000Y-111143407D01*
X146626284Y-111040671D01*
X146521675Y-111112044D01*
X146158917Y-111418251D01*
X145940953Y-111839971D01*
X145607500Y-111839971D01*
X145607500Y-111595690D01*
X145510827Y-111362301D01*
X145332198Y-111183673D01*
X145098809Y-111087000D01*
X145050000Y-111087000D01*
X144891250Y-111245750D01*
X144728750Y-111245750D01*
X144570000Y-111087000D01*
X144521191Y-111087000D01*
X144287802Y-111183673D01*
X144137938Y-111333536D01*
X144018000Y-111333536D01*
X144018000Y-111320156D01*
X144027951Y-111270129D01*
X144018000Y-111220102D01*
X144018000Y-111220098D01*
X143988525Y-111071918D01*
X143876247Y-110903883D01*
X143833832Y-110875542D01*
X143568960Y-110610670D01*
X143568958Y-110610667D01*
X143565185Y-110606894D01*
X143565185Y-110448910D01*
X143510000Y-110315682D01*
X143510000Y-109601000D01*
X143351250Y-109601000D01*
X143224250Y-109474000D01*
X142430500Y-109474000D01*
X142430500Y-109621000D01*
X141795500Y-109621000D01*
X141795500Y-109474000D01*
X141585000Y-109474000D01*
X141585000Y-108712000D01*
X141795500Y-108712000D01*
X141795500Y-108565000D01*
X142430500Y-108565000D01*
X142430500Y-108712000D01*
X142430500Y-108712000D01*
G37*
X142430500Y-108712000D02*
X142621286Y-108712000D01*
X142621000Y-108712691D01*
X142621000Y-108934250D01*
X142779750Y-109093000D01*
X143510000Y-109093000D01*
X143510000Y-108839000D01*
X144018000Y-108839000D01*
X144018000Y-109093000D01*
X144127584Y-109093000D01*
X144145000Y-109180555D01*
X144196581Y-109439869D01*
X144272000Y-109552742D01*
X144272000Y-109601000D01*
X144018000Y-109601000D01*
X144018000Y-110331250D01*
X144176750Y-110490000D01*
X144398310Y-110490000D01*
X144631699Y-110393327D01*
X144781561Y-110243464D01*
X145237972Y-110243464D01*
X145287999Y-110253415D01*
X145338026Y-110243464D01*
X145796000Y-110243464D01*
X145944659Y-110213894D01*
X146070686Y-110129686D01*
X146154894Y-110003659D01*
X146177000Y-109892524D01*
X146199106Y-110003659D01*
X146283314Y-110129686D01*
X146409341Y-110213894D01*
X146558000Y-110243464D01*
X146943881Y-110243464D01*
X146993912Y-110253416D01*
X147043943Y-110243464D01*
X147447000Y-110243464D01*
X147447000Y-110870309D01*
X147531888Y-111075246D01*
X147410000Y-111143407D01*
X147410000Y-112027000D01*
X148158627Y-112027000D01*
X148279047Y-111839971D01*
X148061083Y-111418251D01*
X148014583Y-111379000D01*
X148177250Y-111379000D01*
X148336000Y-111220250D01*
X148336000Y-110490000D01*
X148082000Y-110490000D01*
X148082000Y-109982000D01*
X148336000Y-109982000D01*
X148336000Y-109728000D01*
X148844000Y-109728000D01*
X148844000Y-109982000D01*
X149098000Y-109982000D01*
X149098000Y-110490000D01*
X148844000Y-110490000D01*
X148844000Y-111220250D01*
X149002750Y-111379000D01*
X149161792Y-111379000D01*
X149165106Y-111395659D01*
X149249314Y-111521686D01*
X149375341Y-111605894D01*
X149524000Y-111635464D01*
X149964439Y-111635464D01*
X150114301Y-111785327D01*
X150240007Y-111837396D01*
X149675620Y-111837396D01*
X149526961Y-111866966D01*
X149400934Y-111951174D01*
X149316726Y-112077201D01*
X149287156Y-112225860D01*
X149287156Y-112906214D01*
X149120253Y-113073117D01*
X149056629Y-113115629D01*
X149014118Y-113179251D01*
X148612252Y-113581117D01*
X148548629Y-113623629D01*
X148514043Y-113675390D01*
X147895653Y-113675390D01*
X148061083Y-113535749D01*
X148279047Y-113114029D01*
X148158627Y-112927000D01*
X147410000Y-112927000D01*
X147410000Y-113005000D01*
X146810000Y-113005000D01*
X146810000Y-112927000D01*
X146061373Y-112927000D01*
X145940953Y-113114029D01*
X146158917Y-113535749D01*
X146310686Y-113663859D01*
X146293610Y-113660462D01*
X146218563Y-113675390D01*
X146218562Y-113675390D01*
X146191000Y-113680872D01*
X146191000Y-113661541D01*
X146087324Y-113411244D01*
X145895756Y-113219676D01*
X145645459Y-113116000D01*
X145374541Y-113116000D01*
X145124244Y-113219676D01*
X145038920Y-113305000D01*
X144891250Y-113305000D01*
X144891250Y-113325000D01*
X144728750Y-113325000D01*
X144728750Y-113305000D01*
X144710964Y-113305000D01*
X144710964Y-112289000D01*
X144728750Y-112289000D01*
X144728750Y-111245750D01*
X144891250Y-111245750D01*
X144891250Y-112289000D01*
X145448750Y-112289000D01*
X145607500Y-112130250D01*
X145607500Y-111839971D01*
X145940953Y-111839971D01*
X146061373Y-112027000D01*
X146810000Y-112027000D01*
X146810000Y-111143407D01*
X146626284Y-111040671D01*
X146521675Y-111112044D01*
X146158917Y-111418251D01*
X145940953Y-111839971D01*
X145607500Y-111839971D01*
X145607500Y-111595690D01*
X145510827Y-111362301D01*
X145332198Y-111183673D01*
X145098809Y-111087000D01*
X145050000Y-111087000D01*
X144891250Y-111245750D01*
X144728750Y-111245750D01*
X144570000Y-111087000D01*
X144521191Y-111087000D01*
X144287802Y-111183673D01*
X144137938Y-111333536D01*
X144018000Y-111333536D01*
X144018000Y-111320156D01*
X144027951Y-111270129D01*
X144018000Y-111220102D01*
X144018000Y-111220098D01*
X143988525Y-111071918D01*
X143876247Y-110903883D01*
X143833832Y-110875542D01*
X143568960Y-110610670D01*
X143568958Y-110610667D01*
X143565185Y-110606894D01*
X143565185Y-110448910D01*
X143510000Y-110315682D01*
X143510000Y-109601000D01*
X143351250Y-109601000D01*
X143224250Y-109474000D01*
X142430500Y-109474000D01*
X142430500Y-109621000D01*
X141795500Y-109621000D01*
X141795500Y-109474000D01*
X141585000Y-109474000D01*
X141585000Y-108712000D01*
X141795500Y-108712000D01*
X141795500Y-108565000D01*
X142430500Y-108565000D01*
X142430500Y-108712000D01*
G36*
X151695228Y-111910791D02*
X151730654Y-111963809D01*
X151783671Y-111999234D01*
X151783672Y-111999235D01*
X151805771Y-112014001D01*
X151940698Y-112104157D01*
X152093507Y-112134552D01*
X152387300Y-112428345D01*
X152513165Y-112302480D01*
X153008140Y-112797455D01*
X152882275Y-112923320D01*
X153008140Y-113049185D01*
X152519325Y-113538000D01*
X152507005Y-113538000D01*
X152387300Y-113418295D01*
X152267595Y-113538000D01*
X152255275Y-113538000D01*
X151766460Y-113049185D01*
X151892325Y-112923320D01*
X151464084Y-112495078D01*
X151464084Y-112225860D01*
X151434514Y-112077201D01*
X151350306Y-111951174D01*
X151246779Y-111882000D01*
X151257002Y-111882000D01*
X151257002Y-111837806D01*
X151383699Y-111785327D01*
X151476732Y-111692294D01*
X151695228Y-111910791D01*
X151695228Y-111910791D01*
G37*
X151695228Y-111910791D02*
X151730654Y-111963809D01*
X151783671Y-111999234D01*
X151783672Y-111999235D01*
X151805771Y-112014001D01*
X151940698Y-112104157D01*
X152093507Y-112134552D01*
X152387300Y-112428345D01*
X152513165Y-112302480D01*
X153008140Y-112797455D01*
X152882275Y-112923320D01*
X153008140Y-113049185D01*
X152519325Y-113538000D01*
X152507005Y-113538000D01*
X152387300Y-113418295D01*
X152267595Y-113538000D01*
X152255275Y-113538000D01*
X151766460Y-113049185D01*
X151892325Y-112923320D01*
X151464084Y-112495078D01*
X151464084Y-112225860D01*
X151434514Y-112077201D01*
X151350306Y-111951174D01*
X151246779Y-111882000D01*
X151257002Y-111882000D01*
X151257002Y-111837806D01*
X151383699Y-111785327D01*
X151476732Y-111692294D01*
X151695228Y-111910791D01*
G36*
X140210000Y-112027000D02*
X140357611Y-112027000D01*
X140357610Y-112561443D01*
X140340194Y-112649000D01*
X140360624Y-112751707D01*
X140357610Y-112766859D01*
X140357610Y-112766862D01*
X140347659Y-112816890D01*
X140357610Y-112866918D01*
X140357610Y-112888911D01*
X140350034Y-112927000D01*
X140210000Y-112927000D01*
X140210000Y-113005000D01*
X139610000Y-113005000D01*
X139610000Y-112927000D01*
X139446000Y-112927000D01*
X139446000Y-112027000D01*
X139610000Y-112027000D01*
X139610000Y-111949000D01*
X140210000Y-111949000D01*
X140210000Y-112027000D01*
X140210000Y-112027000D01*
G37*
X140210000Y-112027000D02*
X140357611Y-112027000D01*
X140357610Y-112561443D01*
X140340194Y-112649000D01*
X140360624Y-112751707D01*
X140357610Y-112766859D01*
X140357610Y-112766862D01*
X140347659Y-112816890D01*
X140357610Y-112866918D01*
X140357610Y-112888911D01*
X140350034Y-112927000D01*
X140210000Y-112927000D01*
X140210000Y-113005000D01*
X139610000Y-113005000D01*
X139610000Y-112927000D01*
X139446000Y-112927000D01*
X139446000Y-112027000D01*
X139610000Y-112027000D01*
X139610000Y-111949000D01*
X140210000Y-111949000D01*
X140210000Y-112027000D01*
G36*
X150886500Y-110347000D02*
X151024000Y-110347000D01*
X151024000Y-110947000D01*
X150886500Y-110947000D01*
X150886500Y-111175000D01*
X150611500Y-111175000D01*
X150611500Y-110947000D01*
X150474000Y-110947000D01*
X150474000Y-110347000D01*
X150611500Y-110347000D01*
X150611500Y-110119000D01*
X150886500Y-110119000D01*
X150886500Y-110347000D01*
X150886500Y-110347000D01*
G37*
X150886500Y-110347000D02*
X151024000Y-110347000D01*
X151024000Y-110947000D01*
X150886500Y-110947000D01*
X150886500Y-111175000D01*
X150611500Y-111175000D01*
X150611500Y-110947000D01*
X150474000Y-110947000D01*
X150474000Y-110347000D01*
X150611500Y-110347000D01*
X150611500Y-110119000D01*
X150886500Y-110119000D01*
X150886500Y-110347000D01*
G36*
X143976606Y-98254159D02*
X143985854Y-98268000D01*
X143976606Y-98281841D01*
X143947036Y-98430500D01*
X143947036Y-98755500D01*
X143976606Y-98904159D01*
X143985854Y-98918000D01*
X143976606Y-98931841D01*
X143947036Y-99080500D01*
X143947036Y-99405500D01*
X143976606Y-99554159D01*
X143985854Y-99568000D01*
X143976606Y-99581841D01*
X143947036Y-99730500D01*
X143947036Y-100055500D01*
X143976606Y-100204159D01*
X143985854Y-100218000D01*
X143976606Y-100231841D01*
X143947036Y-100380500D01*
X143947036Y-100705500D01*
X143976606Y-100854159D01*
X143985854Y-100868000D01*
X143976606Y-100881841D01*
X143947036Y-101030500D01*
X143947036Y-101355500D01*
X143976606Y-101504159D01*
X143985854Y-101518000D01*
X143976606Y-101531841D01*
X143947036Y-101680500D01*
X143947036Y-102005500D01*
X143976606Y-102154159D01*
X143985854Y-102168000D01*
X143976606Y-102181841D01*
X143947036Y-102330500D01*
X143947036Y-102500228D01*
X143939242Y-102497000D01*
X143891774Y-102497000D01*
X143764000Y-102471584D01*
X143636226Y-102497000D01*
X143588758Y-102497000D01*
X143544902Y-102515166D01*
X143417131Y-102540581D01*
X143308813Y-102612957D01*
X143264953Y-102631124D01*
X143231385Y-102664692D01*
X143123068Y-102737067D01*
X143050693Y-102845384D01*
X143017124Y-102878953D01*
X142998956Y-102922814D01*
X142926582Y-103031130D01*
X142901167Y-103158898D01*
X142883000Y-103202758D01*
X142883000Y-103250230D01*
X142875001Y-103290444D01*
X142875001Y-103848473D01*
X142867536Y-103886000D01*
X142867536Y-104902000D01*
X142897106Y-105050659D01*
X142981314Y-105176686D01*
X143107341Y-105260894D01*
X143218476Y-105283000D01*
X143216556Y-105283000D01*
X143129000Y-105265584D01*
X143041444Y-105283000D01*
X142782130Y-105334581D01*
X142701869Y-105388209D01*
X142710464Y-105345000D01*
X142710464Y-104145000D01*
X142680894Y-103996341D01*
X142596686Y-103870314D01*
X142470659Y-103786106D01*
X142322000Y-103756536D01*
X141881561Y-103756536D01*
X141731699Y-103606673D01*
X141498310Y-103510000D01*
X141393250Y-103510000D01*
X141234500Y-103668750D01*
X141234500Y-104445000D01*
X141372000Y-104445000D01*
X141372000Y-105045000D01*
X141234500Y-105045000D01*
X141234500Y-105273000D01*
X140959500Y-105273000D01*
X140959500Y-105045000D01*
X140822000Y-105045000D01*
X140822000Y-104445000D01*
X140959500Y-104445000D01*
X140959500Y-103668750D01*
X140800750Y-103510000D01*
X140695690Y-103510000D01*
X140462301Y-103606673D01*
X140312439Y-103756536D01*
X140131153Y-103756536D01*
X140081000Y-103746560D01*
X140030847Y-103756536D01*
X139872000Y-103756536D01*
X139859613Y-103759000D01*
X139762541Y-103759000D01*
X139700000Y-103746560D01*
X139637459Y-103759000D01*
X139381541Y-103759000D01*
X139319000Y-103746560D01*
X139256459Y-103759000D01*
X139254541Y-103759000D01*
X139192000Y-103746560D01*
X139129459Y-103759000D01*
X138958402Y-103793025D01*
X138944235Y-103795843D01*
X138787210Y-103900764D01*
X138787208Y-103900766D01*
X138734191Y-103936191D01*
X138698765Y-103989209D01*
X138404439Y-104283536D01*
X137693501Y-104283536D01*
X137693501Y-104058358D01*
X137559377Y-103734553D01*
X137311548Y-103486724D01*
X136987743Y-103352600D01*
X136637259Y-103352600D01*
X136313454Y-103486724D01*
X136065625Y-103734553D01*
X135946625Y-104021846D01*
X135684935Y-104283536D01*
X135287000Y-104283536D01*
X135138341Y-104313106D01*
X135012314Y-104397314D01*
X134928106Y-104523341D01*
X134898536Y-104672000D01*
X134898536Y-105734418D01*
X134388413Y-105224296D01*
X134338815Y-105150067D01*
X134044752Y-104953581D01*
X133785438Y-104902000D01*
X133785437Y-104902000D01*
X133697882Y-104884584D01*
X133610327Y-104902000D01*
X133008444Y-104902000D01*
X132749130Y-104953581D01*
X132667328Y-105008239D01*
X132547341Y-105032106D01*
X132421314Y-105116314D01*
X132343217Y-105233196D01*
X132275834Y-104894441D01*
X132059388Y-104789230D01*
X131438618Y-105410000D01*
X132059388Y-106030770D01*
X132221594Y-105951924D01*
X132258581Y-106137870D01*
X132313239Y-106219672D01*
X132337106Y-106339659D01*
X132421314Y-106465686D01*
X132547341Y-106549894D01*
X132562956Y-106553000D01*
X132547341Y-106556106D01*
X132421314Y-106640314D01*
X132337106Y-106766341D01*
X132313239Y-106886330D01*
X132258582Y-106968130D01*
X132207001Y-107227444D01*
X132207000Y-108420475D01*
X132199536Y-108458001D01*
X132199536Y-109474001D01*
X132229106Y-109622660D01*
X132268189Y-109681152D01*
X132228301Y-109697674D01*
X132049673Y-109876303D01*
X131990055Y-110020234D01*
X131886654Y-109770603D01*
X131529397Y-109413346D01*
X131062619Y-109220000D01*
X131529397Y-109026654D01*
X131886654Y-108669397D01*
X132080000Y-108202619D01*
X132080000Y-107697381D01*
X131886654Y-107230603D01*
X131529397Y-106873346D01*
X131360729Y-106803481D01*
X131430770Y-106659388D01*
X130810000Y-106038618D01*
X130750957Y-106097662D01*
X130122339Y-105469044D01*
X130181382Y-105410000D01*
X130122339Y-105350957D01*
X130750957Y-104722339D01*
X130810000Y-104781382D01*
X131430770Y-104160612D01*
X131360729Y-104016519D01*
X131529397Y-103946654D01*
X131886654Y-103589397D01*
X131953000Y-103429224D01*
X131953000Y-104012310D01*
X132049673Y-104245699D01*
X132228302Y-104424327D01*
X132461691Y-104521000D01*
X132683250Y-104521000D01*
X132842000Y-104362250D01*
X132842000Y-103632000D01*
X132588000Y-103632000D01*
X132588000Y-103124000D01*
X132842000Y-103124000D01*
X132842000Y-102776250D01*
X132885000Y-102733250D01*
X132885000Y-101907000D01*
X132108750Y-101907000D01*
X131950000Y-102065750D01*
X131950000Y-102303534D01*
X131886654Y-102150603D01*
X131529397Y-101793346D01*
X131062619Y-101600000D01*
X131529397Y-101406654D01*
X131886654Y-101049397D01*
X131950000Y-100896466D01*
X131950000Y-101048250D01*
X132108750Y-101207000D01*
X132885000Y-101207000D01*
X132885000Y-101029000D01*
X133485000Y-101029000D01*
X133485000Y-101207000D01*
X133713000Y-101207000D01*
X133713000Y-101907000D01*
X133485000Y-101907000D01*
X133485000Y-102258750D01*
X133350000Y-102393750D01*
X133350000Y-103124000D01*
X133604000Y-103124000D01*
X133604000Y-103632000D01*
X133350000Y-103632000D01*
X133350000Y-104362250D01*
X133508750Y-104521000D01*
X133730309Y-104521000D01*
X133963698Y-104424327D01*
X134142327Y-104245699D01*
X134158849Y-104205811D01*
X134217341Y-104244894D01*
X134366000Y-104274464D01*
X134823968Y-104274464D01*
X134874000Y-104284416D01*
X134924032Y-104274464D01*
X135382000Y-104274464D01*
X135530659Y-104244894D01*
X135656686Y-104160686D01*
X135740894Y-104034659D01*
X135770464Y-103886000D01*
X135770464Y-103001000D01*
X136927795Y-103001000D01*
X136947841Y-103014394D01*
X137096500Y-103043964D01*
X138366500Y-103043964D01*
X138515159Y-103014394D01*
X138641186Y-102930186D01*
X138725394Y-102804159D01*
X138754964Y-102655500D01*
X138754964Y-102330500D01*
X138725394Y-102181841D01*
X138716146Y-102168000D01*
X138725394Y-102154159D01*
X138754964Y-102005500D01*
X138754964Y-101865062D01*
X138904827Y-101715198D01*
X139001500Y-101481809D01*
X139001500Y-101433000D01*
X138842750Y-101274250D01*
X138049000Y-101274250D01*
X138049000Y-101292036D01*
X137414000Y-101292036D01*
X137414000Y-101274250D01*
X136620250Y-101274250D01*
X136559500Y-101335000D01*
X136406921Y-101335000D01*
X136270999Y-101199079D01*
X136270999Y-100745042D01*
X136280950Y-100695014D01*
X136270999Y-100644986D01*
X136270999Y-100644982D01*
X136241524Y-100496802D01*
X136129246Y-100328767D01*
X136086832Y-100300427D01*
X136005272Y-100218867D01*
X136020000Y-100183309D01*
X136020000Y-99909620D01*
X136095758Y-99941000D01*
X136446242Y-99941000D01*
X136598338Y-99878000D01*
X136708036Y-99878000D01*
X136708036Y-100055500D01*
X136737606Y-100204159D01*
X136746854Y-100218000D01*
X136737606Y-100231841D01*
X136708036Y-100380500D01*
X136708036Y-100520938D01*
X136558173Y-100670802D01*
X136461500Y-100904191D01*
X136461500Y-100953000D01*
X136620250Y-101111750D01*
X137414000Y-101111750D01*
X137414000Y-101093964D01*
X138049000Y-101093964D01*
X138049000Y-101111750D01*
X138842750Y-101111750D01*
X138903500Y-101051000D01*
X141406210Y-101051000D01*
X141436898Y-101125088D01*
X141642532Y-101330722D01*
X141911205Y-101442010D01*
X142202015Y-101442010D01*
X142470688Y-101330722D01*
X142676322Y-101125088D01*
X142787610Y-100856415D01*
X142787610Y-100680000D01*
X142893405Y-100680000D01*
X143162078Y-100568712D01*
X143367712Y-100363078D01*
X143479000Y-100094405D01*
X143479000Y-99803595D01*
X143367712Y-99534922D01*
X143162078Y-99329288D01*
X142893405Y-99218000D01*
X142726025Y-99218000D01*
X143781026Y-98163000D01*
X143939242Y-98163000D01*
X143957010Y-98155640D01*
X143976606Y-98254159D01*
X143976606Y-98254159D01*
G37*
X143976606Y-98254159D02*
X143985854Y-98268000D01*
X143976606Y-98281841D01*
X143947036Y-98430500D01*
X143947036Y-98755500D01*
X143976606Y-98904159D01*
X143985854Y-98918000D01*
X143976606Y-98931841D01*
X143947036Y-99080500D01*
X143947036Y-99405500D01*
X143976606Y-99554159D01*
X143985854Y-99568000D01*
X143976606Y-99581841D01*
X143947036Y-99730500D01*
X143947036Y-100055500D01*
X143976606Y-100204159D01*
X143985854Y-100218000D01*
X143976606Y-100231841D01*
X143947036Y-100380500D01*
X143947036Y-100705500D01*
X143976606Y-100854159D01*
X143985854Y-100868000D01*
X143976606Y-100881841D01*
X143947036Y-101030500D01*
X143947036Y-101355500D01*
X143976606Y-101504159D01*
X143985854Y-101518000D01*
X143976606Y-101531841D01*
X143947036Y-101680500D01*
X143947036Y-102005500D01*
X143976606Y-102154159D01*
X143985854Y-102168000D01*
X143976606Y-102181841D01*
X143947036Y-102330500D01*
X143947036Y-102500228D01*
X143939242Y-102497000D01*
X143891774Y-102497000D01*
X143764000Y-102471584D01*
X143636226Y-102497000D01*
X143588758Y-102497000D01*
X143544902Y-102515166D01*
X143417131Y-102540581D01*
X143308813Y-102612957D01*
X143264953Y-102631124D01*
X143231385Y-102664692D01*
X143123068Y-102737067D01*
X143050693Y-102845384D01*
X143017124Y-102878953D01*
X142998956Y-102922814D01*
X142926582Y-103031130D01*
X142901167Y-103158898D01*
X142883000Y-103202758D01*
X142883000Y-103250230D01*
X142875001Y-103290444D01*
X142875001Y-103848473D01*
X142867536Y-103886000D01*
X142867536Y-104902000D01*
X142897106Y-105050659D01*
X142981314Y-105176686D01*
X143107341Y-105260894D01*
X143218476Y-105283000D01*
X143216556Y-105283000D01*
X143129000Y-105265584D01*
X143041444Y-105283000D01*
X142782130Y-105334581D01*
X142701869Y-105388209D01*
X142710464Y-105345000D01*
X142710464Y-104145000D01*
X142680894Y-103996341D01*
X142596686Y-103870314D01*
X142470659Y-103786106D01*
X142322000Y-103756536D01*
X141881561Y-103756536D01*
X141731699Y-103606673D01*
X141498310Y-103510000D01*
X141393250Y-103510000D01*
X141234500Y-103668750D01*
X141234500Y-104445000D01*
X141372000Y-104445000D01*
X141372000Y-105045000D01*
X141234500Y-105045000D01*
X141234500Y-105273000D01*
X140959500Y-105273000D01*
X140959500Y-105045000D01*
X140822000Y-105045000D01*
X140822000Y-104445000D01*
X140959500Y-104445000D01*
X140959500Y-103668750D01*
X140800750Y-103510000D01*
X140695690Y-103510000D01*
X140462301Y-103606673D01*
X140312439Y-103756536D01*
X140131153Y-103756536D01*
X140081000Y-103746560D01*
X140030847Y-103756536D01*
X139872000Y-103756536D01*
X139859613Y-103759000D01*
X139762541Y-103759000D01*
X139700000Y-103746560D01*
X139637459Y-103759000D01*
X139381541Y-103759000D01*
X139319000Y-103746560D01*
X139256459Y-103759000D01*
X139254541Y-103759000D01*
X139192000Y-103746560D01*
X139129459Y-103759000D01*
X138958402Y-103793025D01*
X138944235Y-103795843D01*
X138787210Y-103900764D01*
X138787208Y-103900766D01*
X138734191Y-103936191D01*
X138698765Y-103989209D01*
X138404439Y-104283536D01*
X137693501Y-104283536D01*
X137693501Y-104058358D01*
X137559377Y-103734553D01*
X137311548Y-103486724D01*
X136987743Y-103352600D01*
X136637259Y-103352600D01*
X136313454Y-103486724D01*
X136065625Y-103734553D01*
X135946625Y-104021846D01*
X135684935Y-104283536D01*
X135287000Y-104283536D01*
X135138341Y-104313106D01*
X135012314Y-104397314D01*
X134928106Y-104523341D01*
X134898536Y-104672000D01*
X134898536Y-105734418D01*
X134388413Y-105224296D01*
X134338815Y-105150067D01*
X134044752Y-104953581D01*
X133785438Y-104902000D01*
X133785437Y-104902000D01*
X133697882Y-104884584D01*
X133610327Y-104902000D01*
X133008444Y-104902000D01*
X132749130Y-104953581D01*
X132667328Y-105008239D01*
X132547341Y-105032106D01*
X132421314Y-105116314D01*
X132343217Y-105233196D01*
X132275834Y-104894441D01*
X132059388Y-104789230D01*
X131438618Y-105410000D01*
X132059388Y-106030770D01*
X132221594Y-105951924D01*
X132258581Y-106137870D01*
X132313239Y-106219672D01*
X132337106Y-106339659D01*
X132421314Y-106465686D01*
X132547341Y-106549894D01*
X132562956Y-106553000D01*
X132547341Y-106556106D01*
X132421314Y-106640314D01*
X132337106Y-106766341D01*
X132313239Y-106886330D01*
X132258582Y-106968130D01*
X132207001Y-107227444D01*
X132207000Y-108420475D01*
X132199536Y-108458001D01*
X132199536Y-109474001D01*
X132229106Y-109622660D01*
X132268189Y-109681152D01*
X132228301Y-109697674D01*
X132049673Y-109876303D01*
X131990055Y-110020234D01*
X131886654Y-109770603D01*
X131529397Y-109413346D01*
X131062619Y-109220000D01*
X131529397Y-109026654D01*
X131886654Y-108669397D01*
X132080000Y-108202619D01*
X132080000Y-107697381D01*
X131886654Y-107230603D01*
X131529397Y-106873346D01*
X131360729Y-106803481D01*
X131430770Y-106659388D01*
X130810000Y-106038618D01*
X130750957Y-106097662D01*
X130122339Y-105469044D01*
X130181382Y-105410000D01*
X130122339Y-105350957D01*
X130750957Y-104722339D01*
X130810000Y-104781382D01*
X131430770Y-104160612D01*
X131360729Y-104016519D01*
X131529397Y-103946654D01*
X131886654Y-103589397D01*
X131953000Y-103429224D01*
X131953000Y-104012310D01*
X132049673Y-104245699D01*
X132228302Y-104424327D01*
X132461691Y-104521000D01*
X132683250Y-104521000D01*
X132842000Y-104362250D01*
X132842000Y-103632000D01*
X132588000Y-103632000D01*
X132588000Y-103124000D01*
X132842000Y-103124000D01*
X132842000Y-102776250D01*
X132885000Y-102733250D01*
X132885000Y-101907000D01*
X132108750Y-101907000D01*
X131950000Y-102065750D01*
X131950000Y-102303534D01*
X131886654Y-102150603D01*
X131529397Y-101793346D01*
X131062619Y-101600000D01*
X131529397Y-101406654D01*
X131886654Y-101049397D01*
X131950000Y-100896466D01*
X131950000Y-101048250D01*
X132108750Y-101207000D01*
X132885000Y-101207000D01*
X132885000Y-101029000D01*
X133485000Y-101029000D01*
X133485000Y-101207000D01*
X133713000Y-101207000D01*
X133713000Y-101907000D01*
X133485000Y-101907000D01*
X133485000Y-102258750D01*
X133350000Y-102393750D01*
X133350000Y-103124000D01*
X133604000Y-103124000D01*
X133604000Y-103632000D01*
X133350000Y-103632000D01*
X133350000Y-104362250D01*
X133508750Y-104521000D01*
X133730309Y-104521000D01*
X133963698Y-104424327D01*
X134142327Y-104245699D01*
X134158849Y-104205811D01*
X134217341Y-104244894D01*
X134366000Y-104274464D01*
X134823968Y-104274464D01*
X134874000Y-104284416D01*
X134924032Y-104274464D01*
X135382000Y-104274464D01*
X135530659Y-104244894D01*
X135656686Y-104160686D01*
X135740894Y-104034659D01*
X135770464Y-103886000D01*
X135770464Y-103001000D01*
X136927795Y-103001000D01*
X136947841Y-103014394D01*
X137096500Y-103043964D01*
X138366500Y-103043964D01*
X138515159Y-103014394D01*
X138641186Y-102930186D01*
X138725394Y-102804159D01*
X138754964Y-102655500D01*
X138754964Y-102330500D01*
X138725394Y-102181841D01*
X138716146Y-102168000D01*
X138725394Y-102154159D01*
X138754964Y-102005500D01*
X138754964Y-101865062D01*
X138904827Y-101715198D01*
X139001500Y-101481809D01*
X139001500Y-101433000D01*
X138842750Y-101274250D01*
X138049000Y-101274250D01*
X138049000Y-101292036D01*
X137414000Y-101292036D01*
X137414000Y-101274250D01*
X136620250Y-101274250D01*
X136559500Y-101335000D01*
X136406921Y-101335000D01*
X136270999Y-101199079D01*
X136270999Y-100745042D01*
X136280950Y-100695014D01*
X136270999Y-100644986D01*
X136270999Y-100644982D01*
X136241524Y-100496802D01*
X136129246Y-100328767D01*
X136086832Y-100300427D01*
X136005272Y-100218867D01*
X136020000Y-100183309D01*
X136020000Y-99909620D01*
X136095758Y-99941000D01*
X136446242Y-99941000D01*
X136598338Y-99878000D01*
X136708036Y-99878000D01*
X136708036Y-100055500D01*
X136737606Y-100204159D01*
X136746854Y-100218000D01*
X136737606Y-100231841D01*
X136708036Y-100380500D01*
X136708036Y-100520938D01*
X136558173Y-100670802D01*
X136461500Y-100904191D01*
X136461500Y-100953000D01*
X136620250Y-101111750D01*
X137414000Y-101111750D01*
X137414000Y-101093964D01*
X138049000Y-101093964D01*
X138049000Y-101111750D01*
X138842750Y-101111750D01*
X138903500Y-101051000D01*
X141406210Y-101051000D01*
X141436898Y-101125088D01*
X141642532Y-101330722D01*
X141911205Y-101442010D01*
X142202015Y-101442010D01*
X142470688Y-101330722D01*
X142676322Y-101125088D01*
X142787610Y-100856415D01*
X142787610Y-100680000D01*
X142893405Y-100680000D01*
X143162078Y-100568712D01*
X143367712Y-100363078D01*
X143479000Y-100094405D01*
X143479000Y-99803595D01*
X143367712Y-99534922D01*
X143162078Y-99329288D01*
X142893405Y-99218000D01*
X142726025Y-99218000D01*
X143781026Y-98163000D01*
X143939242Y-98163000D01*
X143957010Y-98155640D01*
X143976606Y-98254159D01*
G36*
X149669500Y-105791000D02*
X149880000Y-105791000D01*
X149880000Y-106553000D01*
X149669500Y-106553000D01*
X149669500Y-106700000D01*
X149034500Y-106700000D01*
X149034500Y-106553000D01*
X148824000Y-106553000D01*
X148824000Y-105791000D01*
X149034500Y-105791000D01*
X149034500Y-105644000D01*
X149669500Y-105644000D01*
X149669500Y-105791000D01*
X149669500Y-105791000D01*
G37*
X149669500Y-105791000D02*
X149880000Y-105791000D01*
X149880000Y-106553000D01*
X149669500Y-106553000D01*
X149669500Y-106700000D01*
X149034500Y-106700000D01*
X149034500Y-106553000D01*
X148824000Y-106553000D01*
X148824000Y-105791000D01*
X149034500Y-105791000D01*
X149034500Y-105644000D01*
X149669500Y-105644000D01*
X149669500Y-105791000D01*
G36*
X132228302Y-96804327D02*
X132268189Y-96820849D01*
X132229106Y-96879341D01*
X132199536Y-97028000D01*
X132199536Y-98044000D01*
X132207001Y-98081528D01*
X132207000Y-98604392D01*
X132196536Y-98657000D01*
X132196536Y-99233051D01*
X132189584Y-99268000D01*
X132196536Y-99302949D01*
X132196536Y-100057000D01*
X132226106Y-100205659D01*
X132285075Y-100293914D01*
X132225301Y-100318673D01*
X132080000Y-100463975D01*
X132080000Y-100077381D01*
X131886654Y-99610603D01*
X131529397Y-99253346D01*
X131062619Y-99060000D01*
X131529397Y-98866654D01*
X131886654Y-98509397D01*
X132080000Y-98042619D01*
X132080000Y-97537381D01*
X131953000Y-97230776D01*
X131953000Y-96849044D01*
X131967927Y-96774001D01*
X131958220Y-96725200D01*
X132053697Y-96629723D01*
X132228302Y-96804327D01*
X132228302Y-96804327D01*
G37*
X132228302Y-96804327D02*
X132268189Y-96820849D01*
X132229106Y-96879341D01*
X132199536Y-97028000D01*
X132199536Y-98044000D01*
X132207001Y-98081528D01*
X132207000Y-98604392D01*
X132196536Y-98657000D01*
X132196536Y-99233051D01*
X132189584Y-99268000D01*
X132196536Y-99302949D01*
X132196536Y-100057000D01*
X132226106Y-100205659D01*
X132285075Y-100293914D01*
X132225301Y-100318673D01*
X132080000Y-100463975D01*
X132080000Y-100077381D01*
X131886654Y-99610603D01*
X131529397Y-99253346D01*
X131062619Y-99060000D01*
X131529397Y-98866654D01*
X131886654Y-98509397D01*
X132080000Y-98042619D01*
X132080000Y-97537381D01*
X131953000Y-97230776D01*
X131953000Y-96849044D01*
X131967927Y-96774001D01*
X131958220Y-96725200D01*
X132053697Y-96629723D01*
X132228302Y-96804327D01*
G36*
X135128000Y-97282000D02*
X135255000Y-97282000D01*
X135255001Y-97790000D01*
X135128000Y-97790000D01*
X135128000Y-98137750D01*
X135085000Y-98180750D01*
X135085000Y-99007000D01*
X135313000Y-99007000D01*
X135313000Y-99707000D01*
X135085000Y-99707000D01*
X135085000Y-99885000D01*
X134485000Y-99885000D01*
X134485000Y-99707000D01*
X134257000Y-99707000D01*
X134257000Y-99007000D01*
X134485000Y-99007000D01*
X134485000Y-98655250D01*
X134620000Y-98520250D01*
X134620000Y-97790000D01*
X134366000Y-97790000D01*
X134366000Y-97282000D01*
X134620000Y-97282000D01*
X134620000Y-97028000D01*
X135128000Y-97028000D01*
X135128000Y-97282000D01*
X135128000Y-97282000D01*
G37*
X135128000Y-97282000D02*
X135255000Y-97282000D01*
X135255001Y-97790000D01*
X135128000Y-97790000D01*
X135128000Y-98137750D01*
X135085000Y-98180750D01*
X135085000Y-99007000D01*
X135313000Y-99007000D01*
X135313000Y-99707000D01*
X135085000Y-99707000D01*
X135085000Y-99885000D01*
X134485000Y-99885000D01*
X134485000Y-99707000D01*
X134257000Y-99707000D01*
X134257000Y-99007000D01*
X134485000Y-99007000D01*
X134485000Y-98655250D01*
X134620000Y-98520250D01*
X134620000Y-97790000D01*
X134366000Y-97790000D01*
X134366000Y-97282000D01*
X134620000Y-97282000D01*
X134620000Y-97028000D01*
X135128000Y-97028000D01*
X135128000Y-97282000D01*
G36*
X141373106Y-94890659D02*
X141457314Y-95016686D01*
X141583341Y-95100894D01*
X141732000Y-95130464D01*
X142748000Y-95130464D01*
X142875000Y-95105202D01*
X142875001Y-97079952D01*
X142860073Y-97155000D01*
X142882123Y-97265852D01*
X141539976Y-98608000D01*
X139237206Y-98608000D01*
X139255500Y-98516032D01*
X139255500Y-98516029D01*
X139265451Y-98466001D01*
X139255500Y-98415973D01*
X139255500Y-96285920D01*
X140410957Y-95130464D01*
X140970000Y-95130464D01*
X141118659Y-95100894D01*
X141244686Y-95016686D01*
X141328894Y-94890659D01*
X141351000Y-94779524D01*
X141373106Y-94890659D01*
X141373106Y-94890659D01*
G37*
X141373106Y-94890659D02*
X141457314Y-95016686D01*
X141583341Y-95100894D01*
X141732000Y-95130464D01*
X142748000Y-95130464D01*
X142875000Y-95105202D01*
X142875001Y-97079952D01*
X142860073Y-97155000D01*
X142882123Y-97265852D01*
X141539976Y-98608000D01*
X139237206Y-98608000D01*
X139255500Y-98516032D01*
X139255500Y-98516029D01*
X139265451Y-98466001D01*
X139255500Y-98415973D01*
X139255500Y-96285920D01*
X140410957Y-95130464D01*
X140970000Y-95130464D01*
X141118659Y-95100894D01*
X141244686Y-95016686D01*
X141328894Y-94890659D01*
X141351000Y-94779524D01*
X141373106Y-94890659D01*
G36*
X145669000Y-93980000D02*
X145923000Y-93980000D01*
X145923000Y-94488000D01*
X145669000Y-94488000D01*
X145669000Y-95218250D01*
X145827750Y-95377000D01*
X146049309Y-95377000D01*
X146282698Y-95280327D01*
X146423536Y-95139490D01*
X146423536Y-95758000D01*
X146453106Y-95906659D01*
X146537314Y-96032686D01*
X146663341Y-96116894D01*
X146774476Y-96139000D01*
X146663341Y-96161106D01*
X146537314Y-96245314D01*
X146453106Y-96371341D01*
X146423536Y-96520000D01*
X146423536Y-97079044D01*
X146107166Y-97395414D01*
X146064754Y-97423753D01*
X146036415Y-97466165D01*
X146036412Y-97466168D01*
X145972950Y-97561146D01*
X145993964Y-97455500D01*
X145993964Y-97315062D01*
X146143827Y-97165198D01*
X146240500Y-96931809D01*
X146240500Y-96883000D01*
X146081750Y-96724250D01*
X145288000Y-96724250D01*
X145288000Y-96741439D01*
X145218265Y-96694843D01*
X145033041Y-96658000D01*
X144442500Y-96658000D01*
X144442500Y-96561750D01*
X144653000Y-96561750D01*
X144653000Y-96004250D01*
X145288000Y-96004250D01*
X145288000Y-96561750D01*
X146081750Y-96561750D01*
X146240500Y-96403000D01*
X146240500Y-96354191D01*
X146143827Y-96120802D01*
X145965199Y-95942173D01*
X145731810Y-95845500D01*
X145446750Y-95845500D01*
X145288000Y-96004250D01*
X144653000Y-96004250D01*
X144494250Y-95845500D01*
X144399000Y-95845500D01*
X144399000Y-95132026D01*
X144547302Y-95280327D01*
X144780691Y-95377000D01*
X145002250Y-95377000D01*
X145161000Y-95218250D01*
X145161000Y-94488000D01*
X144907000Y-94488000D01*
X144907000Y-93980000D01*
X145161000Y-93980000D01*
X145161000Y-93726000D01*
X145669000Y-93726000D01*
X145669000Y-93980000D01*
X145669000Y-93980000D01*
G37*
X145669000Y-93980000D02*
X145923000Y-93980000D01*
X145923000Y-94488000D01*
X145669000Y-94488000D01*
X145669000Y-95218250D01*
X145827750Y-95377000D01*
X146049309Y-95377000D01*
X146282698Y-95280327D01*
X146423536Y-95139490D01*
X146423536Y-95758000D01*
X146453106Y-95906659D01*
X146537314Y-96032686D01*
X146663341Y-96116894D01*
X146774476Y-96139000D01*
X146663341Y-96161106D01*
X146537314Y-96245314D01*
X146453106Y-96371341D01*
X146423536Y-96520000D01*
X146423536Y-97079044D01*
X146107166Y-97395414D01*
X146064754Y-97423753D01*
X146036415Y-97466165D01*
X146036412Y-97466168D01*
X145972950Y-97561146D01*
X145993964Y-97455500D01*
X145993964Y-97315062D01*
X146143827Y-97165198D01*
X146240500Y-96931809D01*
X146240500Y-96883000D01*
X146081750Y-96724250D01*
X145288000Y-96724250D01*
X145288000Y-96741439D01*
X145218265Y-96694843D01*
X145033041Y-96658000D01*
X144442500Y-96658000D01*
X144442500Y-96561750D01*
X144653000Y-96561750D01*
X144653000Y-96004250D01*
X145288000Y-96004250D01*
X145288000Y-96561750D01*
X146081750Y-96561750D01*
X146240500Y-96403000D01*
X146240500Y-96354191D01*
X146143827Y-96120802D01*
X145965199Y-95942173D01*
X145731810Y-95845500D01*
X145446750Y-95845500D01*
X145288000Y-96004250D01*
X144653000Y-96004250D01*
X144494250Y-95845500D01*
X144399000Y-95845500D01*
X144399000Y-95132026D01*
X144547302Y-95280327D01*
X144780691Y-95377000D01*
X145002250Y-95377000D01*
X145161000Y-95218250D01*
X145161000Y-94488000D01*
X144907000Y-94488000D01*
X144907000Y-93980000D01*
X145161000Y-93980000D01*
X145161000Y-93726000D01*
X145669000Y-93726000D01*
X145669000Y-93980000D01*
G36*
X151300302Y-71652673D02*
X151121673Y-71831301D01*
X151025000Y-72064690D01*
X151025000Y-72257250D01*
X151183750Y-72416000D01*
X152085000Y-72416000D01*
X152085000Y-72191000D01*
X152935000Y-72191000D01*
X152935000Y-72416000D01*
X153836250Y-72416000D01*
X153995000Y-72257250D01*
X153995000Y-72064690D01*
X153898327Y-71831301D01*
X153719698Y-71652673D01*
X153660132Y-71628000D01*
X154686000Y-71628000D01*
X154686000Y-71786750D01*
X154844750Y-71945500D01*
X155765500Y-71945500D01*
X155765500Y-71862000D01*
X156654500Y-71862000D01*
X156654500Y-71945500D01*
X156738000Y-71945500D01*
X156738000Y-72834500D01*
X156654500Y-72834500D01*
X156654500Y-72918000D01*
X155765500Y-72918000D01*
X155765500Y-72834500D01*
X154844750Y-72834500D01*
X154686000Y-72993250D01*
X154686000Y-73022000D01*
X153992250Y-73022000D01*
X153836250Y-72866000D01*
X152935000Y-72866000D01*
X152935000Y-73022000D01*
X152422444Y-73022000D01*
X152168384Y-73072536D01*
X152085000Y-73072536D01*
X152085000Y-72866000D01*
X151183750Y-72866000D01*
X151025000Y-73024750D01*
X151025000Y-73217310D01*
X151121673Y-73450699D01*
X151271536Y-73600561D01*
X151271536Y-74361000D01*
X151301106Y-74509659D01*
X151325388Y-74546000D01*
X151301106Y-74582341D01*
X151271536Y-74731000D01*
X151271536Y-75631000D01*
X151301106Y-75779659D01*
X151325388Y-75816000D01*
X151301106Y-75852341D01*
X151271536Y-76001000D01*
X151271536Y-76049439D01*
X149836212Y-77484764D01*
X149783192Y-77520191D01*
X149747765Y-77573211D01*
X149642843Y-77730236D01*
X149593561Y-77978000D01*
X149606001Y-78040542D01*
X149606000Y-83493474D01*
X148947212Y-84152264D01*
X148894192Y-84187691D01*
X148858765Y-84240711D01*
X148753843Y-84397736D01*
X148717000Y-84582963D01*
X148717000Y-74930000D01*
X148707333Y-74881399D01*
X148679803Y-74840197D01*
X148638601Y-74812667D01*
X148590000Y-74803000D01*
X138430000Y-74803000D01*
X138381399Y-74812667D01*
X138340197Y-74840197D01*
X138312667Y-74881399D01*
X138303000Y-74930000D01*
X138303000Y-85090000D01*
X138312667Y-85138601D01*
X138340197Y-85179803D01*
X138381399Y-85207333D01*
X138430000Y-85217000D01*
X148590000Y-85217000D01*
X148638601Y-85207333D01*
X148679803Y-85179803D01*
X148707333Y-85138601D01*
X148717000Y-85090000D01*
X148717000Y-84708037D01*
X148717001Y-84708041D01*
X148717000Y-85715975D01*
X146929976Y-87503000D01*
X143887170Y-87503000D01*
X143655405Y-87407000D01*
X143364595Y-87407000D01*
X143095922Y-87518288D01*
X142890288Y-87723922D01*
X142779000Y-87992595D01*
X142779000Y-88283405D01*
X142876587Y-88519000D01*
X142249025Y-88519000D01*
X141336238Y-87606214D01*
X141300809Y-87553191D01*
X141090765Y-87412843D01*
X140905541Y-87376000D01*
X140905537Y-87376000D01*
X140843000Y-87363561D01*
X140780463Y-87376000D01*
X139569170Y-87376000D01*
X139337405Y-87280000D01*
X139046595Y-87280000D01*
X138777922Y-87391288D01*
X138572288Y-87596922D01*
X138461000Y-87865595D01*
X138461000Y-88156405D01*
X138481587Y-88206106D01*
X138392005Y-88169000D01*
X138101195Y-88169000D01*
X137832522Y-88280288D01*
X137626888Y-88485922D01*
X137515600Y-88754595D01*
X137515600Y-89045405D01*
X137544841Y-89116000D01*
X137233691Y-89116000D01*
X137000302Y-89212673D01*
X136821673Y-89391301D01*
X136725000Y-89624690D01*
X136725000Y-90017250D01*
X136883750Y-90176000D01*
X137585000Y-90176000D01*
X137585000Y-90073000D01*
X138035000Y-90073000D01*
X138035000Y-90176000D01*
X138241536Y-90176000D01*
X138241536Y-91026000D01*
X138035000Y-91026000D01*
X138035000Y-91129000D01*
X137585000Y-91129000D01*
X137585000Y-91026000D01*
X136883750Y-91026000D01*
X136725000Y-91184750D01*
X136725000Y-91284349D01*
X136618922Y-91328288D01*
X136413288Y-91533922D01*
X136410121Y-91541568D01*
X136185685Y-91317132D01*
X135581813Y-91067000D01*
X134928187Y-91067000D01*
X134324315Y-91317132D01*
X133862132Y-91779315D01*
X133612000Y-92383187D01*
X133612000Y-93036813D01*
X133862132Y-93640685D01*
X134324315Y-94102868D01*
X134928187Y-94353000D01*
X135581813Y-94353000D01*
X136185685Y-94102868D01*
X136263536Y-94025017D01*
X136263536Y-94742000D01*
X136293106Y-94890659D01*
X136377314Y-95016686D01*
X136398000Y-95030508D01*
X136398001Y-95928579D01*
X136328166Y-95998414D01*
X136285754Y-96026753D01*
X136257415Y-96069165D01*
X136257412Y-96069168D01*
X136230361Y-96109653D01*
X135770464Y-95649757D01*
X135770464Y-95250000D01*
X135740894Y-95101341D01*
X135656686Y-94975314D01*
X135530659Y-94891106D01*
X135382000Y-94861536D01*
X134366000Y-94861536D01*
X134217341Y-94891106D01*
X134158849Y-94930189D01*
X134142327Y-94890301D01*
X133963698Y-94711673D01*
X133730309Y-94615000D01*
X133508750Y-94615000D01*
X133350000Y-94773750D01*
X133350000Y-95504000D01*
X133604000Y-95504000D01*
X133604000Y-96012000D01*
X133350000Y-96012000D01*
X133350000Y-96266000D01*
X132842000Y-96266000D01*
X132842000Y-96012000D01*
X132588000Y-96012000D01*
X132588000Y-95504000D01*
X132842000Y-95504000D01*
X132842000Y-94773750D01*
X132683250Y-94615000D01*
X132562601Y-94615000D01*
X132562601Y-93199819D01*
X132861047Y-92901374D01*
X132903459Y-92873035D01*
X132931798Y-92830623D01*
X132931800Y-92830621D01*
X133015737Y-92705000D01*
X133023581Y-92665567D01*
X133045212Y-92556820D01*
X133045212Y-92556817D01*
X133055163Y-92506789D01*
X133045212Y-92456761D01*
X133045212Y-90986722D01*
X133546835Y-90485100D01*
X133589247Y-90456761D01*
X133617586Y-90414349D01*
X133617588Y-90414347D01*
X133701525Y-90288726D01*
X133707567Y-90258350D01*
X133731000Y-90140546D01*
X133731000Y-90140542D01*
X133740951Y-90090514D01*
X133731000Y-90040486D01*
X133731000Y-89949464D01*
X135360000Y-89949464D01*
X135508659Y-89919894D01*
X135609522Y-89852500D01*
X135845158Y-89852500D01*
X136067427Y-89808288D01*
X136319481Y-89639871D01*
X136487898Y-89387817D01*
X136547038Y-89090500D01*
X136487898Y-88793183D01*
X136319481Y-88541129D01*
X136192863Y-88456526D01*
X136291871Y-88390371D01*
X136334384Y-88326746D01*
X136354882Y-88306248D01*
X136480787Y-88117818D01*
X136539927Y-87820501D01*
X136480787Y-87523183D01*
X136312370Y-87271130D01*
X136060317Y-87102713D01*
X135762999Y-87043573D01*
X135743190Y-87047513D01*
X135748464Y-87021000D01*
X135748464Y-86121000D01*
X135739789Y-86077388D01*
X135742500Y-86077927D01*
X135817543Y-86063000D01*
X135817548Y-86063000D01*
X136039817Y-86018788D01*
X136291871Y-85850371D01*
X136334384Y-85786746D01*
X136354882Y-85766248D01*
X136480787Y-85577818D01*
X136539927Y-85280501D01*
X136480787Y-84983183D01*
X136312370Y-84731130D01*
X136060317Y-84562713D01*
X135762999Y-84503573D01*
X135743190Y-84507513D01*
X135748464Y-84481000D01*
X135748464Y-83581000D01*
X135718894Y-83432341D01*
X135694612Y-83396000D01*
X135718894Y-83359659D01*
X135748464Y-83211000D01*
X135748464Y-82311000D01*
X135718894Y-82162341D01*
X135694612Y-82126000D01*
X135718894Y-82089659D01*
X135748464Y-81941000D01*
X135748464Y-81041000D01*
X135718894Y-80892341D01*
X135694612Y-80856000D01*
X135718894Y-80819659D01*
X135748464Y-80671000D01*
X135748464Y-79771000D01*
X135718894Y-79622341D01*
X135694612Y-79586000D01*
X135718894Y-79549659D01*
X135748464Y-79401000D01*
X135748464Y-78501000D01*
X135718894Y-78352341D01*
X135694612Y-78316000D01*
X135718894Y-78279659D01*
X135748464Y-78131000D01*
X135748464Y-77231000D01*
X135718894Y-77082341D01*
X135694612Y-77046000D01*
X135718894Y-77009659D01*
X135748464Y-76861000D01*
X135748464Y-76037008D01*
X136016999Y-76090423D01*
X136363870Y-76021426D01*
X136657932Y-75824940D01*
X136854418Y-75530878D01*
X136923415Y-75184007D01*
X136854418Y-74837138D01*
X136833626Y-74806020D01*
X136905999Y-74820416D01*
X137033772Y-74795000D01*
X137081242Y-74795000D01*
X137125100Y-74776833D01*
X137252870Y-74751418D01*
X137361185Y-74679044D01*
X137405047Y-74660876D01*
X137438618Y-74627305D01*
X137546932Y-74554932D01*
X137619305Y-74446618D01*
X137652876Y-74413047D01*
X137671044Y-74369185D01*
X137743418Y-74260870D01*
X137768833Y-74133100D01*
X137787000Y-74089242D01*
X137787000Y-74041772D01*
X137812416Y-73913999D01*
X137787000Y-73786227D01*
X137787000Y-73738758D01*
X137768834Y-73694900D01*
X137743418Y-73567130D01*
X137671044Y-73458813D01*
X137652876Y-73414953D01*
X137619307Y-73381384D01*
X137596529Y-73347294D01*
X137553531Y-73304296D01*
X137503933Y-73230067D01*
X137209870Y-73033581D01*
X136950556Y-72982000D01*
X136950555Y-72982000D01*
X136863000Y-72964584D01*
X136775445Y-72982000D01*
X135992250Y-72982000D01*
X135836250Y-72826000D01*
X134935000Y-72826000D01*
X134935000Y-72982000D01*
X134085000Y-72982000D01*
X134085000Y-72826000D01*
X133982000Y-72826000D01*
X133982000Y-72376000D01*
X134085000Y-72376000D01*
X134085000Y-72151000D01*
X134935000Y-72151000D01*
X134935000Y-72376000D01*
X135836250Y-72376000D01*
X135995000Y-72217250D01*
X135995000Y-72024690D01*
X135898327Y-71791301D01*
X135735025Y-71628000D01*
X151359868Y-71628000D01*
X151300302Y-71652673D01*
X151300302Y-71652673D01*
G37*
X151300302Y-71652673D02*
X151121673Y-71831301D01*
X151025000Y-72064690D01*
X151025000Y-72257250D01*
X151183750Y-72416000D01*
X152085000Y-72416000D01*
X152085000Y-72191000D01*
X152935000Y-72191000D01*
X152935000Y-72416000D01*
X153836250Y-72416000D01*
X153995000Y-72257250D01*
X153995000Y-72064690D01*
X153898327Y-71831301D01*
X153719698Y-71652673D01*
X153660132Y-71628000D01*
X154686000Y-71628000D01*
X154686000Y-71786750D01*
X154844750Y-71945500D01*
X155765500Y-71945500D01*
X155765500Y-71862000D01*
X156654500Y-71862000D01*
X156654500Y-71945500D01*
X156738000Y-71945500D01*
X156738000Y-72834500D01*
X156654500Y-72834500D01*
X156654500Y-72918000D01*
X155765500Y-72918000D01*
X155765500Y-72834500D01*
X154844750Y-72834500D01*
X154686000Y-72993250D01*
X154686000Y-73022000D01*
X153992250Y-73022000D01*
X153836250Y-72866000D01*
X152935000Y-72866000D01*
X152935000Y-73022000D01*
X152422444Y-73022000D01*
X152168384Y-73072536D01*
X152085000Y-73072536D01*
X152085000Y-72866000D01*
X151183750Y-72866000D01*
X151025000Y-73024750D01*
X151025000Y-73217310D01*
X151121673Y-73450699D01*
X151271536Y-73600561D01*
X151271536Y-74361000D01*
X151301106Y-74509659D01*
X151325388Y-74546000D01*
X151301106Y-74582341D01*
X151271536Y-74731000D01*
X151271536Y-75631000D01*
X151301106Y-75779659D01*
X151325388Y-75816000D01*
X151301106Y-75852341D01*
X151271536Y-76001000D01*
X151271536Y-76049439D01*
X149836212Y-77484764D01*
X149783192Y-77520191D01*
X149747765Y-77573211D01*
X149642843Y-77730236D01*
X149593561Y-77978000D01*
X149606001Y-78040542D01*
X149606000Y-83493474D01*
X148947212Y-84152264D01*
X148894192Y-84187691D01*
X148858765Y-84240711D01*
X148753843Y-84397736D01*
X148717000Y-84582963D01*
X148717000Y-74930000D01*
X148707333Y-74881399D01*
X148679803Y-74840197D01*
X148638601Y-74812667D01*
X148590000Y-74803000D01*
X138430000Y-74803000D01*
X138381399Y-74812667D01*
X138340197Y-74840197D01*
X138312667Y-74881399D01*
X138303000Y-74930000D01*
X138303000Y-85090000D01*
X138312667Y-85138601D01*
X138340197Y-85179803D01*
X138381399Y-85207333D01*
X138430000Y-85217000D01*
X148590000Y-85217000D01*
X148638601Y-85207333D01*
X148679803Y-85179803D01*
X148707333Y-85138601D01*
X148717000Y-85090000D01*
X148717000Y-84708037D01*
X148717001Y-84708041D01*
X148717000Y-85715975D01*
X146929976Y-87503000D01*
X143887170Y-87503000D01*
X143655405Y-87407000D01*
X143364595Y-87407000D01*
X143095922Y-87518288D01*
X142890288Y-87723922D01*
X142779000Y-87992595D01*
X142779000Y-88283405D01*
X142876587Y-88519000D01*
X142249025Y-88519000D01*
X141336238Y-87606214D01*
X141300809Y-87553191D01*
X141090765Y-87412843D01*
X140905541Y-87376000D01*
X140905537Y-87376000D01*
X140843000Y-87363561D01*
X140780463Y-87376000D01*
X139569170Y-87376000D01*
X139337405Y-87280000D01*
X139046595Y-87280000D01*
X138777922Y-87391288D01*
X138572288Y-87596922D01*
X138461000Y-87865595D01*
X138461000Y-88156405D01*
X138481587Y-88206106D01*
X138392005Y-88169000D01*
X138101195Y-88169000D01*
X137832522Y-88280288D01*
X137626888Y-88485922D01*
X137515600Y-88754595D01*
X137515600Y-89045405D01*
X137544841Y-89116000D01*
X137233691Y-89116000D01*
X137000302Y-89212673D01*
X136821673Y-89391301D01*
X136725000Y-89624690D01*
X136725000Y-90017250D01*
X136883750Y-90176000D01*
X137585000Y-90176000D01*
X137585000Y-90073000D01*
X138035000Y-90073000D01*
X138035000Y-90176000D01*
X138241536Y-90176000D01*
X138241536Y-91026000D01*
X138035000Y-91026000D01*
X138035000Y-91129000D01*
X137585000Y-91129000D01*
X137585000Y-91026000D01*
X136883750Y-91026000D01*
X136725000Y-91184750D01*
X136725000Y-91284349D01*
X136618922Y-91328288D01*
X136413288Y-91533922D01*
X136410121Y-91541568D01*
X136185685Y-91317132D01*
X135581813Y-91067000D01*
X134928187Y-91067000D01*
X134324315Y-91317132D01*
X133862132Y-91779315D01*
X133612000Y-92383187D01*
X133612000Y-93036813D01*
X133862132Y-93640685D01*
X134324315Y-94102868D01*
X134928187Y-94353000D01*
X135581813Y-94353000D01*
X136185685Y-94102868D01*
X136263536Y-94025017D01*
X136263536Y-94742000D01*
X136293106Y-94890659D01*
X136377314Y-95016686D01*
X136398000Y-95030508D01*
X136398001Y-95928579D01*
X136328166Y-95998414D01*
X136285754Y-96026753D01*
X136257415Y-96069165D01*
X136257412Y-96069168D01*
X136230361Y-96109653D01*
X135770464Y-95649757D01*
X135770464Y-95250000D01*
X135740894Y-95101341D01*
X135656686Y-94975314D01*
X135530659Y-94891106D01*
X135382000Y-94861536D01*
X134366000Y-94861536D01*
X134217341Y-94891106D01*
X134158849Y-94930189D01*
X134142327Y-94890301D01*
X133963698Y-94711673D01*
X133730309Y-94615000D01*
X133508750Y-94615000D01*
X133350000Y-94773750D01*
X133350000Y-95504000D01*
X133604000Y-95504000D01*
X133604000Y-96012000D01*
X133350000Y-96012000D01*
X133350000Y-96266000D01*
X132842000Y-96266000D01*
X132842000Y-96012000D01*
X132588000Y-96012000D01*
X132588000Y-95504000D01*
X132842000Y-95504000D01*
X132842000Y-94773750D01*
X132683250Y-94615000D01*
X132562601Y-94615000D01*
X132562601Y-93199819D01*
X132861047Y-92901374D01*
X132903459Y-92873035D01*
X132931798Y-92830623D01*
X132931800Y-92830621D01*
X133015737Y-92705000D01*
X133023581Y-92665567D01*
X133045212Y-92556820D01*
X133045212Y-92556817D01*
X133055163Y-92506789D01*
X133045212Y-92456761D01*
X133045212Y-90986722D01*
X133546835Y-90485100D01*
X133589247Y-90456761D01*
X133617586Y-90414349D01*
X133617588Y-90414347D01*
X133701525Y-90288726D01*
X133707567Y-90258350D01*
X133731000Y-90140546D01*
X133731000Y-90140542D01*
X133740951Y-90090514D01*
X133731000Y-90040486D01*
X133731000Y-89949464D01*
X135360000Y-89949464D01*
X135508659Y-89919894D01*
X135609522Y-89852500D01*
X135845158Y-89852500D01*
X136067427Y-89808288D01*
X136319481Y-89639871D01*
X136487898Y-89387817D01*
X136547038Y-89090500D01*
X136487898Y-88793183D01*
X136319481Y-88541129D01*
X136192863Y-88456526D01*
X136291871Y-88390371D01*
X136334384Y-88326746D01*
X136354882Y-88306248D01*
X136480787Y-88117818D01*
X136539927Y-87820501D01*
X136480787Y-87523183D01*
X136312370Y-87271130D01*
X136060317Y-87102713D01*
X135762999Y-87043573D01*
X135743190Y-87047513D01*
X135748464Y-87021000D01*
X135748464Y-86121000D01*
X135739789Y-86077388D01*
X135742500Y-86077927D01*
X135817543Y-86063000D01*
X135817548Y-86063000D01*
X136039817Y-86018788D01*
X136291871Y-85850371D01*
X136334384Y-85786746D01*
X136354882Y-85766248D01*
X136480787Y-85577818D01*
X136539927Y-85280501D01*
X136480787Y-84983183D01*
X136312370Y-84731130D01*
X136060317Y-84562713D01*
X135762999Y-84503573D01*
X135743190Y-84507513D01*
X135748464Y-84481000D01*
X135748464Y-83581000D01*
X135718894Y-83432341D01*
X135694612Y-83396000D01*
X135718894Y-83359659D01*
X135748464Y-83211000D01*
X135748464Y-82311000D01*
X135718894Y-82162341D01*
X135694612Y-82126000D01*
X135718894Y-82089659D01*
X135748464Y-81941000D01*
X135748464Y-81041000D01*
X135718894Y-80892341D01*
X135694612Y-80856000D01*
X135718894Y-80819659D01*
X135748464Y-80671000D01*
X135748464Y-79771000D01*
X135718894Y-79622341D01*
X135694612Y-79586000D01*
X135718894Y-79549659D01*
X135748464Y-79401000D01*
X135748464Y-78501000D01*
X135718894Y-78352341D01*
X135694612Y-78316000D01*
X135718894Y-78279659D01*
X135748464Y-78131000D01*
X135748464Y-77231000D01*
X135718894Y-77082341D01*
X135694612Y-77046000D01*
X135718894Y-77009659D01*
X135748464Y-76861000D01*
X135748464Y-76037008D01*
X136016999Y-76090423D01*
X136363870Y-76021426D01*
X136657932Y-75824940D01*
X136854418Y-75530878D01*
X136923415Y-75184007D01*
X136854418Y-74837138D01*
X136833626Y-74806020D01*
X136905999Y-74820416D01*
X137033772Y-74795000D01*
X137081242Y-74795000D01*
X137125100Y-74776833D01*
X137252870Y-74751418D01*
X137361185Y-74679044D01*
X137405047Y-74660876D01*
X137438618Y-74627305D01*
X137546932Y-74554932D01*
X137619305Y-74446618D01*
X137652876Y-74413047D01*
X137671044Y-74369185D01*
X137743418Y-74260870D01*
X137768833Y-74133100D01*
X137787000Y-74089242D01*
X137787000Y-74041772D01*
X137812416Y-73913999D01*
X137787000Y-73786227D01*
X137787000Y-73738758D01*
X137768834Y-73694900D01*
X137743418Y-73567130D01*
X137671044Y-73458813D01*
X137652876Y-73414953D01*
X137619307Y-73381384D01*
X137596529Y-73347294D01*
X137553531Y-73304296D01*
X137503933Y-73230067D01*
X137209870Y-73033581D01*
X136950556Y-72982000D01*
X136950555Y-72982000D01*
X136863000Y-72964584D01*
X136775445Y-72982000D01*
X135992250Y-72982000D01*
X135836250Y-72826000D01*
X134935000Y-72826000D01*
X134935000Y-72982000D01*
X134085000Y-72982000D01*
X134085000Y-72826000D01*
X133982000Y-72826000D01*
X133982000Y-72376000D01*
X134085000Y-72376000D01*
X134085000Y-72151000D01*
X134935000Y-72151000D01*
X134935000Y-72376000D01*
X135836250Y-72376000D01*
X135995000Y-72217250D01*
X135995000Y-72024690D01*
X135898327Y-71791301D01*
X135735025Y-71628000D01*
X151359868Y-71628000D01*
X151300302Y-71652673D01*
G36*
X144604264Y-92670288D02*
X144639691Y-92723309D01*
X144849735Y-92863657D01*
X145022497Y-92898021D01*
X145215476Y-93091000D01*
X144780691Y-93091000D01*
X144547302Y-93187673D01*
X144368673Y-93366301D01*
X144352151Y-93406189D01*
X144293659Y-93367106D01*
X144145000Y-93337536D01*
X143129000Y-93337536D01*
X142986138Y-93365953D01*
X143546091Y-92806000D01*
X143655405Y-92806000D01*
X143924078Y-92694712D01*
X144129712Y-92489078D01*
X144215630Y-92281654D01*
X144604264Y-92670288D01*
X144604264Y-92670288D01*
G37*
X144604264Y-92670288D02*
X144639691Y-92723309D01*
X144849735Y-92863657D01*
X145022497Y-92898021D01*
X145215476Y-93091000D01*
X144780691Y-93091000D01*
X144547302Y-93187673D01*
X144368673Y-93366301D01*
X144352151Y-93406189D01*
X144293659Y-93367106D01*
X144145000Y-93337536D01*
X143129000Y-93337536D01*
X142986138Y-93365953D01*
X143546091Y-92806000D01*
X143655405Y-92806000D01*
X143924078Y-92694712D01*
X144129712Y-92489078D01*
X144215630Y-92281654D01*
X144604264Y-92670288D01*
G36*
X156897662Y-87570957D02*
X156838618Y-87630000D01*
X156897662Y-87689044D01*
X156269044Y-88317662D01*
X156210000Y-88258618D01*
X156150957Y-88317662D01*
X155522339Y-87689044D01*
X155581382Y-87630000D01*
X155522339Y-87570957D01*
X156150957Y-86942339D01*
X156210000Y-87001382D01*
X156269044Y-86942339D01*
X156897662Y-87570957D01*
X156897662Y-87570957D01*
G37*
X156897662Y-87570957D02*
X156838618Y-87630000D01*
X156897662Y-87689044D01*
X156269044Y-88317662D01*
X156210000Y-88258618D01*
X156150957Y-88317662D01*
X155522339Y-87689044D01*
X155581382Y-87630000D01*
X155522339Y-87570957D01*
X156150957Y-86942339D01*
X156210000Y-87001382D01*
X156269044Y-86942339D01*
X156897662Y-87570957D01*
G36*
X133121673Y-71791301D02*
X133025000Y-72024690D01*
X133025000Y-72588491D01*
X132961220Y-72575804D01*
X132873665Y-72593220D01*
X132270456Y-72593220D01*
X132087464Y-72410228D01*
X132087464Y-71628000D01*
X133284975Y-71628000D01*
X133121673Y-71791301D01*
X133121673Y-71791301D01*
G37*
X133121673Y-71791301D02*
X133025000Y-72024690D01*
X133025000Y-72588491D01*
X132961220Y-72575804D01*
X132873665Y-72593220D01*
X132270456Y-72593220D01*
X132087464Y-72410228D01*
X132087464Y-71628000D01*
X133284975Y-71628000D01*
X133121673Y-71791301D01*
D44*
G36*
X148526500Y-85026500D02*
X138493500Y-85026500D01*
X138493500Y-74993500D01*
X148526500Y-74993500D01*
X148526500Y-85026500D01*
X148526500Y-85026500D01*
G37*
X148526500Y-85026500D02*
X138493500Y-85026500D01*
X138493500Y-74993500D01*
X148526500Y-74993500D01*
X148526500Y-85026500D01*
G04 #@! TD*
M02*
