G04 #@! TF.GenerationSoftware,KiCad,Pcbnew,6.0.0-rc1-unknown-829ba27~65~ubuntu16.04.1*
G04 #@! TF.CreationDate,2018-07-19T14:52:38+03:00*
G04 #@! TF.ProjectId,ESP32-DevKit-Lipo_Rev_A,45535033322D4465764B69742D4C6970,A*
G04 #@! TF.SameCoordinates,Original*
G04 #@! TF.FileFunction,Copper,L2,Bot,Mixed*
G04 #@! TF.FilePolarity,Positive*
%FSLAX46Y46*%
G04 Gerber Fmt 4.6, Leading zero omitted, Abs format (unit mm)*
G04 Created by KiCad (PCBNEW 6.0.0-rc1-unknown-829ba27~65~ubuntu16.04.1) date Thu Jul 19 14:52:38 2018*
%MOMM*%
%LPD*%
G01*
G04 APERTURE LIST*
G04 #@! TA.AperFunction,BGAPad,CuDef*
%ADD10C,1.000000*%
G04 #@! TD*
G04 #@! TA.AperFunction,ComponentPad*
%ADD11R,1.400000X1.400000*%
G04 #@! TD*
G04 #@! TA.AperFunction,ComponentPad*
%ADD12C,1.400000*%
G04 #@! TD*
G04 #@! TA.AperFunction,ComponentPad*
%ADD13C,1.778000*%
G04 #@! TD*
G04 #@! TA.AperFunction,ComponentPad*
%ADD14R,1.778000X1.778000*%
G04 #@! TD*
G04 #@! TA.AperFunction,ComponentPad*
%ADD15C,1.300000*%
G04 #@! TD*
G04 #@! TA.AperFunction,ComponentPad*
%ADD16C,2.000000*%
G04 #@! TD*
G04 #@! TA.AperFunction,ComponentPad*
%ADD17O,1.200000X1.800000*%
G04 #@! TD*
G04 #@! TA.AperFunction,ViaPad*
%ADD18C,1.000000*%
G04 #@! TD*
G04 #@! TA.AperFunction,ViaPad*
%ADD19C,0.700000*%
G04 #@! TD*
G04 #@! TA.AperFunction,Conductor*
%ADD20C,1.016000*%
G04 #@! TD*
G04 #@! TA.AperFunction,Conductor*
%ADD21C,0.609600*%
G04 #@! TD*
G04 #@! TA.AperFunction,Conductor*
%ADD22C,0.508000*%
G04 #@! TD*
G04 #@! TA.AperFunction,Conductor*
%ADD23C,0.762000*%
G04 #@! TD*
G04 #@! TA.AperFunction,Conductor*
%ADD24C,0.254000*%
G04 #@! TD*
G04 APERTURE END LIST*
D10*
G04 #@! TO.P,GND1,1*
G04 #@! TO.N,GND*
X151130000Y-118110000D03*
G04 #@! TD*
G04 #@! TO.P,D_Com1,1*
G04 #@! TO.N,/D_Com*
X153670000Y-118110000D03*
G04 #@! TD*
D11*
G04 #@! TO.P,BAT1,1*
G04 #@! TO.N,Net-(BAT1-Pad1)*
X150375620Y-112925860D03*
D12*
G04 #@! TO.P,BAT1,2*
G04 #@! TO.N,GND*
X152387300Y-112923320D03*
G04 #@! TD*
D13*
G04 #@! TO.P,EXT1,4*
G04 #@! TO.N,/GPI39/SENSOR_VN*
X130810000Y-80010000D03*
G04 #@! TO.P,EXT1,3*
G04 #@! TO.N,/GPI36/SENSOR_VP*
X130810000Y-77470000D03*
G04 #@! TO.P,EXT1,2*
G04 #@! TO.N,/ESP_EN*
X130810000Y-74930000D03*
D14*
G04 #@! TO.P,EXT1,1*
G04 #@! TO.N,+3V3*
X130810000Y-72390000D03*
D13*
G04 #@! TO.P,EXT1,5*
G04 #@! TO.N,/GPI34*
X130810000Y-82550000D03*
G04 #@! TO.P,EXT1,6*
G04 #@! TO.N,/GPI35*
X130810000Y-85090000D03*
G04 #@! TO.P,EXT1,8*
G04 #@! TO.N,/GPIO33*
X130810000Y-90170000D03*
G04 #@! TO.P,EXT1,7*
G04 #@! TO.N,/GPIO32*
X130810000Y-87630000D03*
G04 #@! TO.P,EXT1,9*
G04 #@! TO.N,/GPIO25*
X130810000Y-92710000D03*
G04 #@! TO.P,EXT1,10*
G04 #@! TO.N,/GPIO26*
X130810000Y-95250000D03*
G04 #@! TO.P,EXT1,12*
G04 #@! TO.N,/GPIO14*
X130810000Y-100330000D03*
G04 #@! TO.P,EXT1,11*
G04 #@! TO.N,/GPIO27*
X130810000Y-97790000D03*
G04 #@! TO.P,EXT1,13*
G04 #@! TO.N,/GPIO12*
X130810000Y-102870000D03*
G04 #@! TO.P,EXT1,14*
G04 #@! TO.N,GND*
X130810000Y-105410000D03*
G04 #@! TO.P,EXT1,16*
G04 #@! TO.N,/GPIO9/SD_DATA2*
X130810000Y-110490000D03*
G04 #@! TO.P,EXT1,15*
G04 #@! TO.N,/GPIO13*
X130810000Y-107950000D03*
G04 #@! TO.P,EXT1,19*
G04 #@! TO.N,+5V*
X130810000Y-118110000D03*
G04 #@! TO.P,EXT1,18*
G04 #@! TO.N,/GPIO11/SD_CMD*
X130810000Y-115570000D03*
G04 #@! TO.P,EXT1,17*
G04 #@! TO.N,/GPIO10/SD_DATA3*
X130810000Y-113030000D03*
G04 #@! TD*
G04 #@! TO.P,EXT2,4*
G04 #@! TO.N,/GPIO1/U0TXD*
X156210000Y-80010000D03*
G04 #@! TO.P,EXT2,3*
G04 #@! TO.N,/GPIO22*
X156210000Y-77470000D03*
G04 #@! TO.P,EXT2,2*
G04 #@! TO.N,/GPIO23*
X156210000Y-74930000D03*
D14*
G04 #@! TO.P,EXT2,1*
G04 #@! TO.N,GND*
X156210000Y-72390000D03*
D13*
G04 #@! TO.P,EXT2,5*
G04 #@! TO.N,/GPIO3/U0RXD*
X156210000Y-82550000D03*
G04 #@! TO.P,EXT2,6*
G04 #@! TO.N,/GPIO21*
X156210000Y-85090000D03*
G04 #@! TO.P,EXT2,8*
G04 #@! TO.N,/GPIO19*
X156210000Y-90170000D03*
G04 #@! TO.P,EXT2,7*
G04 #@! TO.N,GND*
X156210000Y-87630000D03*
G04 #@! TO.P,EXT2,9*
G04 #@! TO.N,/GPIO18*
X156210000Y-92710000D03*
G04 #@! TO.P,EXT2,10*
G04 #@! TO.N,/GPIO5*
X156210000Y-95250000D03*
G04 #@! TO.P,EXT2,12*
G04 #@! TO.N,/GPIO16*
X156210000Y-100330000D03*
G04 #@! TO.P,EXT2,11*
G04 #@! TO.N,/GPIO17*
X156210000Y-97790000D03*
G04 #@! TO.P,EXT2,13*
G04 #@! TO.N,/GPIO4*
X156210000Y-102870000D03*
G04 #@! TO.P,EXT2,14*
G04 #@! TO.N,/GPIO0*
X156210000Y-105410000D03*
G04 #@! TO.P,EXT2,16*
G04 #@! TO.N,/GPIO15*
X156210000Y-110490000D03*
G04 #@! TO.P,EXT2,15*
G04 #@! TO.N,/GPIO2*
X156210000Y-107950000D03*
G04 #@! TO.P,EXT2,19*
G04 #@! TO.N,/GPIO6/SD_CLK*
X156210000Y-118110000D03*
G04 #@! TO.P,EXT2,18*
G04 #@! TO.N,/GPIO7/SD_DATA0*
X156210000Y-115570000D03*
G04 #@! TO.P,EXT2,17*
G04 #@! TO.N,/GPIO8/SD_DATA1*
X156210000Y-113030000D03*
G04 #@! TD*
D15*
G04 #@! TO.P,U5,39*
G04 #@! TO.N,GND*
X141469600Y-82650800D03*
D16*
X143781000Y-80314000D03*
D15*
X146143200Y-82650800D03*
X141469600Y-77951800D03*
X146143200Y-77951800D03*
X143781000Y-77951800D03*
X143781000Y-82650800D03*
X141469600Y-80187000D03*
X146143200Y-80187000D03*
G04 #@! TD*
D17*
G04 #@! TO.P,USB-UART1,0*
G04 #@! TO.N,GND*
X139910000Y-115947000D03*
X139910000Y-112477000D03*
X147110000Y-112477000D03*
X147110000Y-115947000D03*
G04 #@! TD*
D18*
G04 #@! TO.N,+5V*
X151003000Y-104775000D03*
X134493000Y-107696000D03*
X148463000Y-117221000D03*
X135509000Y-118364000D03*
G04 #@! TO.N,GND*
X137668000Y-110744000D03*
X141097000Y-103378000D03*
X148717000Y-107188000D03*
X141097000Y-101398600D03*
X136905996Y-90614500D03*
X136906000Y-82677000D03*
X145414998Y-95630998D03*
X133985000Y-116459000D03*
X132207000Y-116967000D03*
X141097000Y-97218500D03*
X141986000Y-96329510D03*
X132588000Y-72110610D03*
X137160000Y-72110610D03*
X139700000Y-72110610D03*
X142240000Y-72110610D03*
X144780000Y-72110610D03*
X147320000Y-72110610D03*
X149860000Y-72110610D03*
X154305000Y-72110610D03*
X143510000Y-73660000D03*
X140970000Y-73660000D03*
X138430000Y-73660000D03*
X146050000Y-73660000D03*
X148590000Y-73660000D03*
X139700000Y-74930000D03*
X142240000Y-74930000D03*
X144780000Y-74930000D03*
X147320000Y-74930000D03*
X149860000Y-74930000D03*
X148590000Y-76200000D03*
X148590000Y-78740000D03*
X148590000Y-81280000D03*
X148590000Y-83820000D03*
X138430000Y-76200000D03*
X138430000Y-78740000D03*
X144272687Y-92837687D03*
X141469600Y-84827600D03*
X143764000Y-84836000D03*
X146177000Y-84836000D03*
X142240000Y-86360000D03*
X144780000Y-86360000D03*
X147320000Y-86360000D03*
X136905996Y-84455000D03*
X136905996Y-86360000D03*
X136905996Y-88265000D03*
X139573000Y-102362000D03*
X140144500Y-98171000D03*
X149826600Y-115316000D03*
G04 #@! TO.N,Net-(BAT1-Pad1)*
X144399000Y-114935000D03*
X146812018Y-108458000D03*
G04 #@! TO.N,+3V3*
X143764000Y-103378000D03*
X143764000Y-97282000D03*
X136812501Y-104233600D03*
X136271000Y-99060000D03*
X136906000Y-73914000D03*
D19*
G04 #@! TO.N,/GPIO3/U0RXD*
X139191994Y-93472000D03*
X139192000Y-88011000D03*
G04 #@! TO.N,/ESP_EN*
X148844000Y-94488000D03*
X136017000Y-75184008D03*
X135635990Y-112014000D03*
X143002000Y-114935000D03*
G04 #@! TO.N,/GPIO9/SD_DATA2*
X137160000Y-92900500D03*
G04 #@! TO.N,/GPIO8/SD_DATA1*
X149987000Y-91948000D03*
G04 #@! TO.N,/GPIO6/SD_CLK*
X149606000Y-93631010D03*
G04 #@! TO.N,/GPIO7/SD_DATA0*
X149090902Y-92822789D03*
G04 #@! TO.N,/GPIO1/U0TXD*
X143510000Y-92075000D03*
X143510000Y-88138000D03*
G04 #@! TO.N,/GPIO10/SD_DATA3*
X138246600Y-88900000D03*
G04 #@! TO.N,/GPIO11/SD_CMD*
X140081000Y-92837000D03*
G04 #@! TO.N,Net-(Q2-Pad1)*
X147828000Y-98227340D03*
X148209000Y-101092000D03*
G04 #@! TO.N,/D_Com*
X151075565Y-100257435D03*
D18*
G04 #@! TO.N,Net-(C6-Pad1)*
X145034000Y-108331000D03*
X140763536Y-108188104D03*
D19*
G04 #@! TO.N,/GPIO13*
X137033000Y-91948000D03*
G04 #@! TO.N,/GPIO12*
X135770110Y-89090500D03*
G04 #@! TO.N,/GPIO14*
X135763000Y-87820500D03*
G04 #@! TO.N,/GPIO26*
X135763000Y-85280500D03*
D18*
G04 #@! TO.N,/GPIO16*
X151130000Y-86614000D03*
G04 #@! TO.N,/GPIO17*
X151130000Y-85344000D03*
G04 #@! TO.N,/GPIO4*
X151130000Y-87884000D03*
G04 #@! TO.N,/GPIO0*
X151130000Y-89154000D03*
D19*
X153755976Y-98212032D03*
G04 #@! TO.N,/GPIO15*
X149987000Y-89027000D03*
D18*
G04 #@! TO.N,/GPIO2*
X151130000Y-90424000D03*
D19*
X152019000Y-96012000D03*
G04 #@! TO.N,Net-(Q3-Pad1)*
X149986101Y-98297189D03*
X148348381Y-95306400D03*
G04 #@! TO.N,Net-(U2-Pad7)*
X141859012Y-110617000D03*
X142056610Y-100711010D03*
G04 #@! TO.N,Net-(U2-Pad6)*
X142834185Y-110594315D03*
X142748000Y-99949000D03*
G04 #@! TD*
D20*
G04 #@! TO.N,+5V*
X148463000Y-116513894D02*
X148463000Y-117221000D01*
X148463000Y-111379000D02*
X148463000Y-116513894D01*
X151003000Y-104775000D02*
X151003000Y-108839000D01*
X151003000Y-108839000D02*
X148463000Y-111379000D01*
X134801894Y-118364000D02*
X135509000Y-118364000D01*
X134493000Y-107696000D02*
X134493000Y-113665000D01*
X134493000Y-113665000D02*
X136008999Y-115180999D01*
X130810000Y-118110000D02*
X131064000Y-118364000D01*
X135509000Y-116831999D02*
X136008999Y-116332000D01*
X135509000Y-118364000D02*
X135509000Y-116831999D01*
X136008999Y-115180999D02*
X136008999Y-116332000D01*
D21*
X148463000Y-117221000D02*
X148336000Y-117348000D01*
X148336000Y-117348000D02*
X148259800Y-117424200D01*
D20*
X136008999Y-118330599D02*
X136042400Y-118364000D01*
X136042400Y-118364000D02*
X135509000Y-118364000D01*
X136042400Y-118364000D02*
X137820400Y-118364000D01*
X138760200Y-117424200D02*
X136008999Y-117424200D01*
X136008999Y-117424200D02*
X136008999Y-118330599D01*
X136008999Y-116332000D02*
X136008999Y-117424200D01*
X138760200Y-117424200D02*
X137820400Y-118364000D01*
X137101199Y-117424200D02*
X136008999Y-116332000D01*
X138760200Y-117424200D02*
X137101199Y-117424200D01*
X135509000Y-116831999D02*
X133976999Y-118364000D01*
X133976999Y-118364000D02*
X133248400Y-118364000D01*
X133248400Y-118364000D02*
X134801894Y-118364000D01*
X131064000Y-118364000D02*
X133248400Y-118364000D01*
D22*
X147701000Y-117275894D02*
X148463000Y-116513894D01*
X147701000Y-117424200D02*
X147701000Y-117275894D01*
D21*
X148259800Y-117424200D02*
X147701000Y-117424200D01*
X147701000Y-117424200D02*
X138760200Y-117424200D01*
D20*
G04 #@! TO.N,GND*
X156210000Y-87630000D02*
X154559000Y-85979000D01*
X154559000Y-74041000D02*
X156210000Y-72390000D01*
X154559000Y-85979000D02*
X154559000Y-74041000D01*
D23*
X152387300Y-116852700D02*
X151130000Y-118110000D01*
D20*
X147110000Y-112477000D02*
X147110000Y-115947000D01*
X139910000Y-115947000D02*
X139910000Y-112477000D01*
X138557000Y-110744000D02*
X137668000Y-110744000D01*
X139910000Y-112097000D02*
X138557000Y-110744000D01*
X139910000Y-112477000D02*
X139910000Y-112097000D01*
X141097000Y-106045000D02*
X141097000Y-103378000D01*
X139910000Y-112477000D02*
X139910000Y-112177000D01*
X138294000Y-110561000D02*
X138294000Y-108848000D01*
X139065000Y-111332000D02*
X139446000Y-111713000D01*
X139065000Y-108077000D02*
X139065000Y-111332000D01*
X139910000Y-112177000D02*
X139446000Y-111713000D01*
X138294000Y-108848000D02*
X139065000Y-108077000D01*
X139446000Y-111713000D02*
X138294000Y-110561000D01*
X139446000Y-107745496D02*
X139446000Y-111713000D01*
X139573000Y-107569000D02*
X141097000Y-106045000D01*
X139065000Y-108077000D02*
X139573000Y-107569000D01*
X148717000Y-107895106D02*
X148717000Y-107188000D01*
X148717000Y-109093000D02*
X148717000Y-107895106D01*
X147110000Y-110700000D02*
X148717000Y-109093000D01*
X147110000Y-112477000D02*
X147110000Y-110700000D01*
X141097000Y-103378000D02*
X141097000Y-101398600D01*
X136905996Y-82677004D02*
X136906000Y-82677000D01*
X136905996Y-90614500D02*
X136905996Y-88265000D01*
D23*
X142684502Y-95630998D02*
X144707892Y-95630998D01*
X144707892Y-95630998D02*
X145414998Y-95630998D01*
X141097000Y-97218500D02*
X142684502Y-95630998D01*
X141795500Y-96520000D02*
X141097000Y-97218500D01*
X141097000Y-97218500D02*
X141795500Y-96520000D01*
X141985990Y-96329510D02*
X141986000Y-96329510D01*
X141795500Y-96520000D02*
X141985990Y-96329510D01*
D20*
X143781000Y-73931000D02*
X143510000Y-73660000D01*
X143781000Y-80314000D02*
X143781000Y-73931000D01*
X156210000Y-87630000D02*
X154637328Y-87630000D01*
X154559000Y-87551672D02*
X154559000Y-85979000D01*
X154637328Y-87630000D02*
X154559000Y-87551672D01*
X136905996Y-84455000D02*
X136905996Y-82677004D01*
X136905996Y-86360000D02*
X136905996Y-84455000D01*
X136905996Y-88265000D02*
X136905996Y-86360000D01*
D23*
X151130000Y-118110000D02*
X150596610Y-118643390D01*
X151130000Y-118110000D02*
X151638000Y-118618000D01*
X151638000Y-118618000D02*
X152336500Y-118618000D01*
X152387300Y-118567200D02*
X152387300Y-116852700D01*
X152336500Y-118618000D02*
X152387300Y-118567200D01*
X151612610Y-118643390D02*
X151638000Y-118618000D01*
X150596610Y-118643390D02*
X151612610Y-118643390D01*
X152311110Y-118643390D02*
X152336500Y-118618000D01*
X151612610Y-118643390D02*
X152311110Y-118643390D01*
X141097000Y-97218500D02*
X140144500Y-98171000D01*
X140144500Y-98171000D02*
X140970000Y-98171000D01*
X140970000Y-98171000D02*
X141097000Y-98298000D01*
X141097000Y-98298000D02*
X141097000Y-97218500D01*
X141097000Y-101398600D02*
X141097000Y-98298000D01*
D20*
X149826600Y-115316000D02*
X152387300Y-115316000D01*
D23*
X152387300Y-112796320D02*
X152387300Y-115316000D01*
D20*
X152387300Y-115316000D02*
X152387300Y-112923320D01*
X152387300Y-115316000D02*
X152387300Y-116852700D01*
D23*
X149860000Y-115349400D02*
X149826600Y-115316000D01*
X149860000Y-116840000D02*
X149860000Y-115349400D01*
X150596610Y-117576610D02*
X150495000Y-117475000D01*
X150596610Y-118643390D02*
X150596610Y-117576610D01*
X150495000Y-117475000D02*
X149860000Y-116840000D01*
X151130000Y-118110000D02*
X150495000Y-117475000D01*
G04 #@! TO.N,Net-(BAT1-Pad1)*
X146812000Y-108458018D02*
X146812018Y-108458000D01*
X145415000Y-109855018D02*
X146812000Y-108458018D01*
X145415000Y-112522000D02*
X145415000Y-109855018D01*
X144399000Y-113538000D02*
X145415000Y-112522000D01*
X144399000Y-114935000D02*
X144399000Y-113538000D01*
G04 #@! TO.N,+3V3*
X143764000Y-103378000D02*
X143764000Y-97282000D01*
X136271000Y-103632000D02*
X136271000Y-99060000D01*
X136812501Y-104173501D02*
X136271000Y-103632000D01*
X136812501Y-104233600D02*
X136812501Y-104173501D01*
X139979300Y-95453220D02*
X141523211Y-93909308D01*
X136271000Y-96215220D02*
X137033000Y-95453220D01*
X141523211Y-93909308D02*
X141523211Y-92193198D01*
X136271000Y-99060000D02*
X136271000Y-96215220D01*
X141523211Y-92193198D02*
X140690610Y-91360597D01*
X140690610Y-91360597D02*
X140690610Y-87451887D01*
X138658610Y-81889610D02*
X136976601Y-80207601D01*
X140690610Y-87451887D02*
X138658610Y-85419888D01*
X136976601Y-73984601D02*
X136906000Y-73914000D01*
X136976601Y-80207601D02*
X136976601Y-73984601D01*
X137033000Y-95453220D02*
X139979300Y-95453220D01*
X138658610Y-85419888D02*
X138658610Y-81889610D01*
D22*
G04 #@! TO.N,/GPIO3/U0RXD*
X139192000Y-93471994D02*
X139191994Y-93472000D01*
X139192000Y-88011000D02*
X139192000Y-93471994D01*
D24*
G04 #@! TO.N,/ESP_EN*
X148844000Y-94488000D02*
X148590000Y-94488000D01*
X135382000Y-111760000D02*
X135636000Y-112014000D01*
X135382000Y-107289560D02*
X135382000Y-111760000D01*
X134467651Y-106375211D02*
X135382000Y-107289560D01*
X135382000Y-99853077D02*
X134467651Y-100767426D01*
X136017000Y-80391000D02*
X137922000Y-82296000D01*
X134467651Y-100767426D02*
X134467651Y-106375211D01*
X136017000Y-75184008D02*
X136017000Y-80391000D01*
X140786601Y-92498311D02*
X140786601Y-93604195D01*
X139954000Y-87757000D02*
X139954000Y-91665710D01*
X139954000Y-91665710D02*
X140786601Y-92498311D01*
X135382000Y-95504000D02*
X135382000Y-99853077D01*
X137922000Y-85725000D02*
X139954000Y-87757000D01*
X139674187Y-94716610D02*
X136169390Y-94716610D01*
X137922000Y-82296000D02*
X137922000Y-85725000D01*
X140786601Y-93604195D02*
X139674187Y-94716610D01*
X136169390Y-94716610D02*
X135382000Y-95504000D01*
X146151611Y-110388389D02*
X146151611Y-113131611D01*
X148844000Y-94488000D02*
X148082000Y-94488000D01*
X147066000Y-107061000D02*
X147701000Y-107696000D01*
X147066000Y-95504000D02*
X147066000Y-107061000D01*
X143351999Y-115284999D02*
X143002000Y-114935000D01*
X146151611Y-113131611D02*
X146177000Y-113157000D01*
X146177000Y-114427000D02*
X144780000Y-115824000D01*
X146177000Y-113157000D02*
X146177000Y-114427000D01*
X143891000Y-115824000D02*
X143351999Y-115284999D01*
X144780000Y-115824000D02*
X143891000Y-115824000D01*
X147701000Y-108839000D02*
X146151611Y-110388389D01*
X147701000Y-107696000D02*
X147701000Y-108839000D01*
X148082000Y-94488000D02*
X147066000Y-95504000D01*
G04 #@! TO.N,/GPIO9/SD_DATA2*
X137160000Y-92900500D02*
X135921527Y-92900500D01*
X135921527Y-92900500D02*
X133896111Y-94925916D01*
X133019822Y-100167718D02*
X133019822Y-106422693D01*
X133896111Y-94925916D02*
X133896111Y-99291430D01*
X132562611Y-106879903D02*
X132562611Y-108737389D01*
X133019822Y-106422693D02*
X132562611Y-106879903D01*
X133896111Y-99291430D02*
X133019822Y-100167718D01*
D20*
X130810000Y-110490000D02*
X131826000Y-109474000D01*
D24*
X132562611Y-108737389D02*
X131826000Y-109474000D01*
D23*
G04 #@! TO.N,/GPIO8/SD_DATA1*
X156210000Y-112522000D02*
X155575000Y-111887000D01*
X156210000Y-113030000D02*
X156210000Y-112522000D01*
X155575000Y-112395000D02*
X156210000Y-113030000D01*
X155575000Y-111887000D02*
X155575000Y-112395000D01*
D24*
X153466783Y-103444327D02*
X153466783Y-106730783D01*
X151892000Y-97663000D02*
X151892000Y-98710971D01*
X152958833Y-99777804D02*
X152958833Y-102936377D01*
X152958833Y-102936377D02*
X153466783Y-103444327D01*
X154432000Y-110744000D02*
X155575000Y-111887000D01*
X149987000Y-91948000D02*
X150794213Y-92755213D01*
X154432000Y-107696000D02*
X154432000Y-110744000D01*
X151892000Y-98710971D02*
X152958833Y-99777804D01*
X153466783Y-106730783D02*
X154432000Y-107696000D01*
X150794213Y-96565213D02*
X151892000Y-97663000D01*
X150794213Y-92755213D02*
X150794213Y-96565213D01*
D20*
G04 #@! TO.N,/GPIO6/SD_CLK*
X156210000Y-118110000D02*
X154686000Y-116586000D01*
D24*
X153416000Y-108204000D02*
X153416000Y-111299514D01*
X154178000Y-112061514D02*
X154178000Y-116078000D01*
X154178000Y-116078000D02*
X154686000Y-116586000D01*
X153416000Y-111299514D02*
X154178000Y-112061514D01*
X150876000Y-99060000D02*
X151993611Y-100177611D01*
X151993611Y-100177611D02*
X151993611Y-103352609D01*
X152501561Y-103860558D02*
X152501561Y-107289561D01*
X152501561Y-107289561D02*
X153416000Y-108204000D01*
X150876000Y-98044000D02*
X150876000Y-99060000D01*
X149606000Y-96774000D02*
X150876000Y-98044000D01*
X149606000Y-93631010D02*
X149606000Y-96774000D01*
X151993611Y-103352609D02*
X152501561Y-103860558D01*
D20*
G04 #@! TO.N,/GPIO7/SD_DATA0*
X156210000Y-115570000D02*
X155194000Y-114554000D01*
D24*
X152476222Y-99977708D02*
X151384000Y-98885486D01*
X153924000Y-107950000D02*
X152984170Y-107010170D01*
X151384000Y-97846398D02*
X150311602Y-96774000D01*
X149585876Y-92822789D02*
X149090902Y-92822789D01*
X154686000Y-111887000D02*
X153924000Y-111125000D01*
X152984170Y-103644229D02*
X152476222Y-103136281D01*
X150311602Y-96774000D02*
X150311602Y-93288602D01*
X154686000Y-114046000D02*
X154686000Y-111887000D01*
X152984170Y-107010170D02*
X152984170Y-103644229D01*
X152476222Y-103136281D02*
X152476222Y-99977708D01*
X155194000Y-114554000D02*
X154686000Y-114046000D01*
X151384000Y-98885486D02*
X151384000Y-97846398D01*
X153924000Y-111125000D02*
X153924000Y-107950000D01*
X149845789Y-92822789D02*
X149585876Y-92822789D01*
X150311602Y-93288602D02*
X149845789Y-92822789D01*
D22*
G04 #@! TO.N,/GPIO1/U0TXD*
X143510000Y-92075000D02*
X143510000Y-91580026D01*
X143510000Y-91580026D02*
X143510000Y-88138000D01*
X143510000Y-88138000D02*
X143510000Y-88138000D01*
D24*
G04 #@! TO.N,/GPIO10/SD_DATA3*
X134378722Y-99491334D02*
X133502433Y-100367623D01*
X137533899Y-93606101D02*
X135898440Y-93606101D01*
X133502433Y-106622597D02*
X133045222Y-107079806D01*
X134378722Y-95125819D02*
X134378722Y-99491334D01*
X138246600Y-92893400D02*
X137533899Y-93606101D01*
X135898440Y-93606101D02*
X134378722Y-95125819D01*
X133502433Y-100367623D02*
X133502433Y-106622597D01*
X138246600Y-88900000D02*
X138246600Y-92893400D01*
X133045222Y-107079806D02*
X133045222Y-110794778D01*
D20*
X130810000Y-113030000D02*
X131953000Y-111887000D01*
D24*
X133045222Y-110794778D02*
X131953000Y-111887000D01*
G04 #@! TO.N,/GPIO11/SD_CMD*
X139474284Y-94234000D02*
X140081000Y-93627284D01*
X133527833Y-112852167D02*
X133527833Y-107279709D01*
X133985042Y-100567523D02*
X134874000Y-99678565D01*
X134874000Y-95313055D02*
X135953055Y-94234000D01*
X134874000Y-99678565D02*
X134874000Y-95313055D01*
X133527833Y-107279709D02*
X133985042Y-106822502D01*
X135953055Y-94234000D02*
X139474284Y-94234000D01*
X133985042Y-106822502D02*
X133985042Y-100567523D01*
X140081000Y-93627284D02*
X140081000Y-93331974D01*
X140081000Y-93331974D02*
X140081000Y-92837000D01*
D20*
X131698999Y-114681001D02*
X132080000Y-114300000D01*
X130810000Y-115570000D02*
X131698999Y-114681001D01*
D24*
X132080000Y-114300000D02*
X133527833Y-112852167D01*
D22*
G04 #@! TO.N,Net-(Q2-Pad1)*
X147828000Y-100711000D02*
X148209000Y-101092000D01*
X147828000Y-98227340D02*
X147828000Y-100711000D01*
D24*
G04 #@! TO.N,/D_Com*
X152908000Y-108458000D02*
X152908000Y-111506000D01*
X151511000Y-103552512D02*
X152018950Y-104060462D01*
X151511000Y-100692870D02*
X151511000Y-103552512D01*
X151075565Y-100257435D02*
X151511000Y-100692870D01*
X152018950Y-107568950D02*
X152908000Y-108458000D01*
X152908000Y-111506000D02*
X153670000Y-112268000D01*
X153670000Y-115951000D02*
X153670000Y-118110000D01*
X152018950Y-104060462D02*
X152018950Y-107568950D01*
X153670000Y-112268000D02*
X153670000Y-115951000D01*
D20*
G04 #@! TO.N,Net-(C6-Pad1)*
X140763536Y-111129694D02*
X140763536Y-108895210D01*
X141393842Y-111760000D02*
X140763536Y-111129694D01*
X140763536Y-108895210D02*
X140763536Y-108188104D01*
X144272000Y-109093000D02*
X144272000Y-110744000D01*
X145034000Y-108331000D02*
X144272000Y-109093000D01*
X144272000Y-110744000D02*
X143256000Y-111760000D01*
X143256000Y-111760000D02*
X141393842Y-111760000D01*
D24*
G04 #@! TO.N,/GPIO13*
X132537211Y-106222789D02*
X132080000Y-106680000D01*
X136191513Y-91948000D02*
X133413500Y-94726013D01*
X137033000Y-91948000D02*
X136191513Y-91948000D01*
X133413500Y-94726013D02*
X133413500Y-99091526D01*
X133413500Y-99091526D02*
X132537211Y-99967815D01*
X132537211Y-99967815D02*
X132537211Y-106222789D01*
D20*
X130810000Y-107950000D02*
X131699000Y-107061000D01*
D24*
X132080000Y-106680000D02*
X131699000Y-107061000D01*
G04 #@! TO.N,/GPIO12*
X132054601Y-99767912D02*
X132905500Y-98917013D01*
X132054601Y-101625399D02*
X132054601Y-99767912D01*
X132905500Y-94551500D02*
X135770110Y-91686890D01*
X132905500Y-98917013D02*
X132905500Y-94551500D01*
X135770110Y-89585474D02*
X135770110Y-89090500D01*
X135770110Y-91686890D02*
X135770110Y-89585474D01*
D20*
X130810000Y-102870000D02*
X131572000Y-102108000D01*
D24*
X131572000Y-102108000D02*
X132054601Y-101625399D01*
G04 #@! TO.N,/GPIO14*
X132397500Y-94345013D02*
X132397500Y-98361500D01*
X135763000Y-87820500D02*
X135763000Y-87884000D01*
X135763000Y-87884000D02*
X135064500Y-88582500D01*
X135064500Y-88582500D02*
X135064500Y-91678013D01*
X135064500Y-91678013D02*
X132397500Y-94345013D01*
D23*
X130810000Y-100330000D02*
X130810000Y-99949000D01*
X130810000Y-99949000D02*
X131699000Y-99060000D01*
D24*
X132397500Y-98361500D02*
X131699000Y-99060000D01*
G04 #@! TO.N,/GPIO26*
X135763000Y-85280500D02*
X135763000Y-85344000D01*
X135763000Y-85344000D02*
X134493000Y-86614000D01*
X134493000Y-86614000D02*
X134493000Y-91567000D01*
X134493000Y-91567000D02*
X131698999Y-94361001D01*
D20*
X130810000Y-95250000D02*
X131445000Y-94615000D01*
D24*
X131698999Y-94361001D02*
X131445000Y-94615000D01*
D23*
G04 #@! TO.N,/GPIO16*
X156210000Y-100076000D02*
X155702000Y-99568000D01*
X156210000Y-100330000D02*
X156210000Y-100076000D01*
X155702000Y-99822000D02*
X156210000Y-100330000D01*
X155702000Y-99568000D02*
X155702000Y-99822000D01*
D24*
X154432000Y-96472487D02*
X153797000Y-95837486D01*
X154944189Y-98350584D02*
X154944189Y-97540189D01*
X155702000Y-99568000D02*
X155702000Y-99108395D01*
X153797000Y-89281000D02*
X151629999Y-87113999D01*
X151629999Y-87113999D02*
X151130000Y-86614000D01*
X154432000Y-97028000D02*
X154432000Y-96472487D01*
X154944189Y-97540189D02*
X154432000Y-97028000D01*
X153797000Y-95837486D02*
X153797000Y-89281000D01*
X155702000Y-99108395D02*
X155526605Y-98933000D01*
X155448000Y-99441000D02*
X155448000Y-99011605D01*
X155448000Y-99011605D02*
X155526605Y-98933000D01*
X155448000Y-98854395D02*
X155448000Y-99441000D01*
X155272605Y-98679000D02*
X155448000Y-98854395D01*
X155526605Y-98933000D02*
X155272605Y-98679000D01*
X155272605Y-98679000D02*
X154944189Y-98350584D01*
X156210000Y-99616395D02*
X156210000Y-100330000D01*
X155526605Y-98933000D02*
X156210000Y-99616395D01*
X155526605Y-99646605D02*
X156210000Y-100330000D01*
X155526605Y-98933000D02*
X155526605Y-99646605D01*
X155448000Y-100076000D02*
X155448000Y-99441000D01*
X155702000Y-100330000D02*
X155448000Y-100076000D01*
X156210000Y-100330000D02*
X155702000Y-100330000D01*
D23*
G04 #@! TO.N,/GPIO17*
X156210000Y-97409000D02*
X155321000Y-96520000D01*
X156210000Y-97790000D02*
X156210000Y-97409000D01*
D24*
X154305000Y-95504000D02*
X155321000Y-96520000D01*
X154305000Y-88519000D02*
X154305000Y-95504000D01*
X151130000Y-85344000D02*
X154305000Y-88519000D01*
D20*
G04 #@! TO.N,/GPIO4*
X156210000Y-102870000D02*
X155321000Y-101981000D01*
D24*
X153924000Y-97282000D02*
X153924000Y-96647000D01*
X155321000Y-101981000D02*
X154889277Y-101549277D01*
X151629999Y-88383999D02*
X151130000Y-87884000D01*
X153263610Y-90017610D02*
X151629999Y-88383999D01*
X153924000Y-96647000D02*
X153263610Y-95986610D01*
X153263610Y-95986610D02*
X153263610Y-90017610D01*
X154889277Y-98978187D02*
X154461578Y-98550488D01*
X154889277Y-101549277D02*
X154889277Y-98978187D01*
X154461578Y-98550488D02*
X154461578Y-97819578D01*
X154461578Y-97819578D02*
X153924000Y-97282000D01*
D20*
G04 #@! TO.N,/GPIO0*
X156210000Y-105410000D02*
X155448000Y-104648000D01*
D24*
X152780999Y-96186514D02*
X153405977Y-96811491D01*
X151130000Y-89154000D02*
X152780999Y-90804999D01*
X152780999Y-90804999D02*
X152780999Y-96186514D01*
X153405977Y-97862033D02*
X153755976Y-98212032D01*
X153405977Y-96811491D02*
X153405977Y-97862033D01*
X154940000Y-104140000D02*
X154940000Y-102870000D01*
X155448000Y-104648000D02*
X154940000Y-104140000D01*
X154940000Y-102870000D02*
X154406666Y-102336666D01*
X154406666Y-102336666D02*
X154406666Y-99178092D01*
X153755976Y-98527402D02*
X153755976Y-98212032D01*
X154406666Y-99178092D02*
X153755976Y-98527402D01*
D20*
G04 #@! TO.N,/GPIO15*
X156210000Y-110490000D02*
X155448000Y-109728000D01*
D24*
X153949394Y-106451394D02*
X154940000Y-107442000D01*
X153949394Y-103244423D02*
X153949394Y-106451394D01*
X153441444Y-99577900D02*
X153441444Y-102736473D01*
X155321001Y-109601001D02*
X155448000Y-109728000D01*
X149987000Y-89027000D02*
X149987000Y-90493594D01*
X154940000Y-109220000D02*
X155321001Y-109601001D01*
X154940000Y-107442000D02*
X154940000Y-109220000D01*
X153441444Y-102736473D02*
X153949394Y-103244423D01*
X152400000Y-98536456D02*
X153441444Y-99577900D01*
X151276824Y-96311547D02*
X152400000Y-97434723D01*
X152400000Y-97434723D02*
X152400000Y-98536456D01*
X151276824Y-91783418D02*
X151276824Y-96311547D01*
X149987000Y-90493594D02*
X151276824Y-91783418D01*
D23*
G04 #@! TO.N,/GPIO2*
X152019000Y-91313000D02*
X151130000Y-90424000D01*
X152019000Y-96012000D02*
X152019000Y-91313000D01*
X156210000Y-107569000D02*
X154940000Y-106299000D01*
X156210000Y-107950000D02*
X156210000Y-107569000D01*
D24*
X152908000Y-98361941D02*
X153924055Y-99377996D01*
X154432005Y-105791005D02*
X154940000Y-106299000D01*
X153924055Y-102536569D02*
X154432005Y-103044519D01*
X153924055Y-99377996D02*
X153924055Y-102536569D01*
X152019000Y-96012000D02*
X152019000Y-96107029D01*
X154432005Y-103044519D02*
X154432005Y-105791005D01*
X152908000Y-96996029D02*
X152908000Y-98361941D01*
X152019000Y-96107029D02*
X152908000Y-96996029D01*
D22*
G04 #@! TO.N,Net-(Q3-Pad1)*
X148971000Y-97155000D02*
X148971000Y-95929019D01*
X149986101Y-98170101D02*
X148971000Y-97155000D01*
X148971000Y-95929019D02*
X148348381Y-95306400D01*
X149986101Y-98297189D02*
X149986101Y-98170101D01*
D24*
G04 #@! TO.N,Net-(U2-Pad7)*
X142056610Y-101205984D02*
X142056610Y-100711010D01*
X142056610Y-110419390D02*
X142056610Y-101205984D01*
X141859012Y-110616988D02*
X142056610Y-110419390D01*
X141859012Y-110617000D02*
X141859012Y-110616988D01*
G04 #@! TO.N,Net-(U2-Pad6)*
X142834185Y-100035185D02*
X142748000Y-99949000D01*
X142834185Y-110594315D02*
X142834185Y-100035185D01*
G04 #@! TD*
G04 #@! TO.N,GND*
G36*
X152400000Y-108668420D02*
X152400001Y-111455967D01*
X152390049Y-111506000D01*
X152402992Y-111571071D01*
X152354041Y-111562572D01*
X151897292Y-111653426D01*
X151821376Y-111862422D01*
X152387300Y-112428345D01*
X152513165Y-112302480D01*
X153008140Y-112797455D01*
X152882275Y-112923320D01*
X153008140Y-113049185D01*
X152513165Y-113544160D01*
X152387300Y-113418295D01*
X151821376Y-113984218D01*
X151897292Y-114193214D01*
X152420559Y-114284068D01*
X152877308Y-114193214D01*
X152893685Y-114148129D01*
X152988810Y-114243254D01*
X153162000Y-114070064D01*
X153162001Y-115900964D01*
X153162000Y-115900969D01*
X153162001Y-117372076D01*
X152923124Y-117610953D01*
X152789000Y-117934758D01*
X152789000Y-118285242D01*
X152923124Y-118609047D01*
X153170953Y-118856876D01*
X153207466Y-118872000D01*
X152001060Y-118872000D01*
X152305742Y-118567318D01*
X152212370Y-118473946D01*
X152287051Y-118130679D01*
X152206889Y-117686321D01*
X152191062Y-117648111D01*
X151990324Y-117603229D01*
X151483553Y-118110000D01*
X151660330Y-118286777D01*
X151306777Y-118640330D01*
X151130000Y-118463553D01*
X150953223Y-118640330D01*
X150599670Y-118286777D01*
X150776447Y-118110000D01*
X150269676Y-117603229D01*
X150068938Y-117648111D01*
X149972949Y-118089321D01*
X150043144Y-118478432D01*
X149954258Y-118567318D01*
X150258940Y-118872000D01*
X149181421Y-118872000D01*
X148430340Y-118120919D01*
X148463000Y-118127416D01*
X148590774Y-118102000D01*
X148638242Y-118102000D01*
X148682097Y-118083835D01*
X148809870Y-118058419D01*
X148918190Y-117986042D01*
X148962047Y-117967876D01*
X148995613Y-117934310D01*
X149103933Y-117861933D01*
X149176310Y-117753613D01*
X149209876Y-117720047D01*
X149228042Y-117676190D01*
X149300419Y-117567870D01*
X149325835Y-117440097D01*
X149344000Y-117396242D01*
X149344000Y-117348775D01*
X149352000Y-117308556D01*
X149352000Y-117249676D01*
X150623229Y-117249676D01*
X151130000Y-117756447D01*
X151636771Y-117249676D01*
X151591889Y-117048938D01*
X151150679Y-116952949D01*
X150706321Y-117033111D01*
X150668111Y-117048938D01*
X150623229Y-117249676D01*
X149352000Y-117249676D01*
X149352000Y-113827311D01*
X149400934Y-113900546D01*
X149526961Y-113984754D01*
X149675620Y-114014324D01*
X151075620Y-114014324D01*
X151224279Y-113984754D01*
X151350306Y-113900546D01*
X151434514Y-113774519D01*
X151464084Y-113625860D01*
X151464084Y-113351562D01*
X151892325Y-112923320D01*
X151464084Y-112495078D01*
X151464084Y-112225860D01*
X151434514Y-112077201D01*
X151350306Y-111951174D01*
X151224279Y-111866966D01*
X151075620Y-111837396D01*
X149675620Y-111837396D01*
X149526961Y-111866966D01*
X149400934Y-111951174D01*
X149352000Y-112024409D01*
X149352000Y-111747235D01*
X151569707Y-109529529D01*
X151643933Y-109479933D01*
X151840419Y-109185870D01*
X151892000Y-108926556D01*
X151892000Y-108926552D01*
X151909415Y-108839001D01*
X151892000Y-108751450D01*
X151892000Y-108160420D01*
X152400000Y-108668420D01*
X152400000Y-108668420D01*
G37*
X152400000Y-108668420D02*
X152400001Y-111455967D01*
X152390049Y-111506000D01*
X152402992Y-111571071D01*
X152354041Y-111562572D01*
X151897292Y-111653426D01*
X151821376Y-111862422D01*
X152387300Y-112428345D01*
X152513165Y-112302480D01*
X153008140Y-112797455D01*
X152882275Y-112923320D01*
X153008140Y-113049185D01*
X152513165Y-113544160D01*
X152387300Y-113418295D01*
X151821376Y-113984218D01*
X151897292Y-114193214D01*
X152420559Y-114284068D01*
X152877308Y-114193214D01*
X152893685Y-114148129D01*
X152988810Y-114243254D01*
X153162000Y-114070064D01*
X153162001Y-115900964D01*
X153162000Y-115900969D01*
X153162001Y-117372076D01*
X152923124Y-117610953D01*
X152789000Y-117934758D01*
X152789000Y-118285242D01*
X152923124Y-118609047D01*
X153170953Y-118856876D01*
X153207466Y-118872000D01*
X152001060Y-118872000D01*
X152305742Y-118567318D01*
X152212370Y-118473946D01*
X152287051Y-118130679D01*
X152206889Y-117686321D01*
X152191062Y-117648111D01*
X151990324Y-117603229D01*
X151483553Y-118110000D01*
X151660330Y-118286777D01*
X151306777Y-118640330D01*
X151130000Y-118463553D01*
X150953223Y-118640330D01*
X150599670Y-118286777D01*
X150776447Y-118110000D01*
X150269676Y-117603229D01*
X150068938Y-117648111D01*
X149972949Y-118089321D01*
X150043144Y-118478432D01*
X149954258Y-118567318D01*
X150258940Y-118872000D01*
X149181421Y-118872000D01*
X148430340Y-118120919D01*
X148463000Y-118127416D01*
X148590774Y-118102000D01*
X148638242Y-118102000D01*
X148682097Y-118083835D01*
X148809870Y-118058419D01*
X148918190Y-117986042D01*
X148962047Y-117967876D01*
X148995613Y-117934310D01*
X149103933Y-117861933D01*
X149176310Y-117753613D01*
X149209876Y-117720047D01*
X149228042Y-117676190D01*
X149300419Y-117567870D01*
X149325835Y-117440097D01*
X149344000Y-117396242D01*
X149344000Y-117348775D01*
X149352000Y-117308556D01*
X149352000Y-117249676D01*
X150623229Y-117249676D01*
X151130000Y-117756447D01*
X151636771Y-117249676D01*
X151591889Y-117048938D01*
X151150679Y-116952949D01*
X150706321Y-117033111D01*
X150668111Y-117048938D01*
X150623229Y-117249676D01*
X149352000Y-117249676D01*
X149352000Y-113827311D01*
X149400934Y-113900546D01*
X149526961Y-113984754D01*
X149675620Y-114014324D01*
X151075620Y-114014324D01*
X151224279Y-113984754D01*
X151350306Y-113900546D01*
X151434514Y-113774519D01*
X151464084Y-113625860D01*
X151464084Y-113351562D01*
X151892325Y-112923320D01*
X151464084Y-112495078D01*
X151464084Y-112225860D01*
X151434514Y-112077201D01*
X151350306Y-111951174D01*
X151224279Y-111866966D01*
X151075620Y-111837396D01*
X149675620Y-111837396D01*
X149526961Y-111866966D01*
X149400934Y-111951174D01*
X149352000Y-112024409D01*
X149352000Y-111747235D01*
X151569707Y-109529529D01*
X151643933Y-109479933D01*
X151840419Y-109185870D01*
X151892000Y-108926556D01*
X151892000Y-108926552D01*
X151909415Y-108839001D01*
X151892000Y-108751450D01*
X151892000Y-108160420D01*
X152400000Y-108668420D01*
G36*
X133604001Y-113577441D02*
X133586584Y-113665000D01*
X133635929Y-113913068D01*
X133655582Y-114011870D01*
X133852068Y-114305933D01*
X133926294Y-114355529D01*
X134491725Y-114920960D01*
X134420922Y-114950288D01*
X134215288Y-115155922D01*
X134104000Y-115424595D01*
X134104000Y-115715405D01*
X134215288Y-115984078D01*
X134420922Y-116189712D01*
X134689595Y-116301000D01*
X134782763Y-116301000D01*
X133608764Y-117475000D01*
X131921612Y-117475000D01*
X131886654Y-117390603D01*
X131529397Y-117033346D01*
X131062619Y-116840000D01*
X131529397Y-116646654D01*
X131886654Y-116289397D01*
X132080000Y-115822619D01*
X132080000Y-115557236D01*
X132212641Y-115424595D01*
X132404000Y-115424595D01*
X132404000Y-115715405D01*
X132515288Y-115984078D01*
X132720922Y-116189712D01*
X132989595Y-116301000D01*
X133280405Y-116301000D01*
X133549078Y-116189712D01*
X133754712Y-115984078D01*
X133866000Y-115715405D01*
X133866000Y-115424595D01*
X133754712Y-115155922D01*
X133549078Y-114950288D01*
X133280405Y-114839000D01*
X132989595Y-114839000D01*
X132720922Y-114950288D01*
X132515288Y-115155922D01*
X132404000Y-115424595D01*
X132212641Y-115424595D01*
X132389528Y-115247708D01*
X132389530Y-115247705D01*
X132770529Y-114866706D01*
X132917418Y-114646871D01*
X132986416Y-114300000D01*
X132955225Y-114143195D01*
X133604001Y-113494420D01*
X133604001Y-113577441D01*
X133604001Y-113577441D01*
G37*
X133604001Y-113577441D02*
X133586584Y-113665000D01*
X133635929Y-113913068D01*
X133655582Y-114011870D01*
X133852068Y-114305933D01*
X133926294Y-114355529D01*
X134491725Y-114920960D01*
X134420922Y-114950288D01*
X134215288Y-115155922D01*
X134104000Y-115424595D01*
X134104000Y-115715405D01*
X134215288Y-115984078D01*
X134420922Y-116189712D01*
X134689595Y-116301000D01*
X134782763Y-116301000D01*
X133608764Y-117475000D01*
X131921612Y-117475000D01*
X131886654Y-117390603D01*
X131529397Y-117033346D01*
X131062619Y-116840000D01*
X131529397Y-116646654D01*
X131886654Y-116289397D01*
X132080000Y-115822619D01*
X132080000Y-115557236D01*
X132212641Y-115424595D01*
X132404000Y-115424595D01*
X132404000Y-115715405D01*
X132515288Y-115984078D01*
X132720922Y-116189712D01*
X132989595Y-116301000D01*
X133280405Y-116301000D01*
X133549078Y-116189712D01*
X133754712Y-115984078D01*
X133866000Y-115715405D01*
X133866000Y-115424595D01*
X133754712Y-115155922D01*
X133549078Y-114950288D01*
X133280405Y-114839000D01*
X132989595Y-114839000D01*
X132720922Y-114950288D01*
X132515288Y-115155922D01*
X132404000Y-115424595D01*
X132212641Y-115424595D01*
X132389528Y-115247708D01*
X132389530Y-115247705D01*
X132770529Y-114866706D01*
X132917418Y-114646871D01*
X132986416Y-114300000D01*
X132955225Y-114143195D01*
X133604001Y-113494420D01*
X133604001Y-113577441D01*
G36*
X154686000Y-71786750D02*
X154844750Y-71945500D01*
X155765500Y-71945500D01*
X155765500Y-71862000D01*
X156654500Y-71862000D01*
X156654500Y-71945500D01*
X156738000Y-71945500D01*
X156738000Y-72834500D01*
X156654500Y-72834500D01*
X156654500Y-72918000D01*
X155765500Y-72918000D01*
X155765500Y-72834500D01*
X154844750Y-72834500D01*
X154686000Y-72993250D01*
X154686000Y-73405309D01*
X154782673Y-73638698D01*
X154961301Y-73817327D01*
X155194690Y-73914000D01*
X155429949Y-73914000D01*
X155133346Y-74210603D01*
X154940000Y-74677381D01*
X154940000Y-75182619D01*
X155133346Y-75649397D01*
X155490603Y-76006654D01*
X155957381Y-76200000D01*
X155490603Y-76393346D01*
X155133346Y-76750603D01*
X154940000Y-77217381D01*
X154940000Y-77722619D01*
X155133346Y-78189397D01*
X155490603Y-78546654D01*
X155957381Y-78740000D01*
X155490603Y-78933346D01*
X155133346Y-79290603D01*
X154940000Y-79757381D01*
X154940000Y-80262619D01*
X155133346Y-80729397D01*
X155490603Y-81086654D01*
X155957381Y-81280000D01*
X155490603Y-81473346D01*
X155133346Y-81830603D01*
X154940000Y-82297381D01*
X154940000Y-82802619D01*
X155133346Y-83269397D01*
X155490603Y-83626654D01*
X155957381Y-83820000D01*
X155490603Y-84013346D01*
X155133346Y-84370603D01*
X154940000Y-84837381D01*
X154940000Y-85342619D01*
X155133346Y-85809397D01*
X155490603Y-86166654D01*
X155659271Y-86236519D01*
X155589230Y-86380612D01*
X156210000Y-87001382D01*
X156269044Y-86942339D01*
X156897662Y-87570957D01*
X156838618Y-87630000D01*
X156897662Y-87689044D01*
X156269044Y-88317662D01*
X156210000Y-88258618D01*
X155589230Y-88879388D01*
X155659271Y-89023481D01*
X155490603Y-89093346D01*
X155133346Y-89450603D01*
X154940000Y-89917381D01*
X154940000Y-90422619D01*
X155133346Y-90889397D01*
X155490603Y-91246654D01*
X155957381Y-91440000D01*
X155490603Y-91633346D01*
X155133346Y-91990603D01*
X154940000Y-92457381D01*
X154940000Y-92962619D01*
X155133346Y-93429397D01*
X155490603Y-93786654D01*
X155957381Y-93980000D01*
X155490603Y-94173346D01*
X155133346Y-94530603D01*
X154940000Y-94997381D01*
X154940000Y-95420580D01*
X154813000Y-95293580D01*
X154813000Y-88569027D01*
X154822951Y-88518999D01*
X154813000Y-88468969D01*
X154813000Y-88468968D01*
X154783525Y-88320788D01*
X154766962Y-88296000D01*
X154699588Y-88195167D01*
X154699586Y-88195165D01*
X154671247Y-88152753D01*
X154628836Y-88124415D01*
X154219057Y-87714636D01*
X154658450Y-87714636D01*
X154744166Y-88145559D01*
X154960612Y-88250770D01*
X155581382Y-87630000D01*
X154960612Y-87009230D01*
X154744166Y-87114441D01*
X154658450Y-87714636D01*
X154219057Y-87714636D01*
X152011000Y-85506580D01*
X152011000Y-85168758D01*
X151876876Y-84844953D01*
X151629047Y-84597124D01*
X151305242Y-84463000D01*
X150954758Y-84463000D01*
X150630953Y-84597124D01*
X150383124Y-84844953D01*
X150249000Y-85168758D01*
X150249000Y-85519242D01*
X150383124Y-85843047D01*
X150519077Y-85979000D01*
X150383124Y-86114953D01*
X150249000Y-86438758D01*
X150249000Y-86789242D01*
X150383124Y-87113047D01*
X150519077Y-87249000D01*
X150383124Y-87384953D01*
X150249000Y-87708758D01*
X150249000Y-88059242D01*
X150383124Y-88383047D01*
X150519077Y-88519000D01*
X150515934Y-88522144D01*
X150401078Y-88407288D01*
X150132405Y-88296000D01*
X149841595Y-88296000D01*
X149572922Y-88407288D01*
X149367288Y-88612922D01*
X149256000Y-88881595D01*
X149256000Y-89172405D01*
X149367288Y-89441078D01*
X149479000Y-89552790D01*
X149479001Y-90443561D01*
X149469049Y-90493594D01*
X149508475Y-90691805D01*
X149592412Y-90817426D01*
X149592415Y-90817429D01*
X149620754Y-90859841D01*
X149663166Y-90888180D01*
X149991986Y-91217000D01*
X149841595Y-91217000D01*
X149572922Y-91328288D01*
X149367288Y-91533922D01*
X149256000Y-91802595D01*
X149256000Y-92093405D01*
X149259271Y-92101301D01*
X149236307Y-92091789D01*
X148945497Y-92091789D01*
X148676824Y-92203077D01*
X148471190Y-92408711D01*
X148359902Y-92677384D01*
X148359902Y-92968194D01*
X148471190Y-93236867D01*
X148676824Y-93442501D01*
X148875000Y-93524588D01*
X148875000Y-93757000D01*
X148698595Y-93757000D01*
X148429922Y-93868288D01*
X148318210Y-93980000D01*
X148132028Y-93980000D01*
X148082000Y-93970049D01*
X148031972Y-93980000D01*
X148031968Y-93980000D01*
X147883788Y-94009475D01*
X147758167Y-94093412D01*
X147758165Y-94093414D01*
X147715753Y-94121753D01*
X147687414Y-94164165D01*
X146742168Y-95109412D01*
X146699753Y-95137753D01*
X146671413Y-95180167D01*
X146671412Y-95180168D01*
X146641717Y-95224610D01*
X146587475Y-95305789D01*
X146558000Y-95453969D01*
X146558000Y-95453972D01*
X146548049Y-95504000D01*
X146558000Y-95554028D01*
X146558001Y-107010967D01*
X146548049Y-107061000D01*
X146587475Y-107259211D01*
X146671412Y-107384832D01*
X146671415Y-107384835D01*
X146699754Y-107427247D01*
X146742166Y-107455586D01*
X146863580Y-107577000D01*
X146636776Y-107577000D01*
X146312971Y-107711124D01*
X146065142Y-107958953D01*
X145946142Y-108246245D01*
X145927304Y-108265083D01*
X145915000Y-108203227D01*
X145915000Y-108155758D01*
X145896834Y-108111900D01*
X145871418Y-107984130D01*
X145799043Y-107875812D01*
X145780876Y-107831953D01*
X145747309Y-107798386D01*
X145674933Y-107690067D01*
X145566614Y-107617691D01*
X145533047Y-107584124D01*
X145489188Y-107565957D01*
X145380870Y-107493582D01*
X145253100Y-107468166D01*
X145209242Y-107450000D01*
X145161773Y-107450000D01*
X145034000Y-107424584D01*
X144906227Y-107450000D01*
X144858758Y-107450000D01*
X144814901Y-107468166D01*
X144687129Y-107493582D01*
X144578811Y-107565958D01*
X144534953Y-107584124D01*
X144501386Y-107617691D01*
X144467293Y-107640471D01*
X143705296Y-108402469D01*
X143631067Y-108452067D01*
X143434581Y-108746131D01*
X143387511Y-108982766D01*
X143365584Y-109093000D01*
X143383000Y-109180555D01*
X143383001Y-110109341D01*
X143342185Y-110068525D01*
X143342185Y-104156866D01*
X143588758Y-104259000D01*
X143939242Y-104259000D01*
X144263047Y-104124876D01*
X144510876Y-103877047D01*
X144645000Y-103553242D01*
X144645000Y-103202758D01*
X144526000Y-102915466D01*
X144526000Y-97744534D01*
X144645000Y-97457242D01*
X144645000Y-97106758D01*
X144510876Y-96782953D01*
X144263047Y-96535124D01*
X143939242Y-96401000D01*
X143588758Y-96401000D01*
X143264953Y-96535124D01*
X143017124Y-96782953D01*
X142883000Y-97106758D01*
X142883000Y-97457242D01*
X143002001Y-97744537D01*
X143002001Y-99262982D01*
X142893405Y-99218000D01*
X142602595Y-99218000D01*
X142333922Y-99329288D01*
X142128288Y-99534922D01*
X142017000Y-99803595D01*
X142017000Y-99980010D01*
X141911205Y-99980010D01*
X141642532Y-100091298D01*
X141436898Y-100296932D01*
X141325610Y-100565605D01*
X141325610Y-100856415D01*
X141436898Y-101125088D01*
X141548610Y-101236800D01*
X141548610Y-101256015D01*
X141548611Y-101256020D01*
X141548610Y-107762894D01*
X141528578Y-107732914D01*
X141510412Y-107689057D01*
X141476846Y-107655491D01*
X141404469Y-107547171D01*
X141296149Y-107474794D01*
X141262583Y-107441228D01*
X141218726Y-107423062D01*
X141110406Y-107350685D01*
X140982633Y-107325269D01*
X140938778Y-107307104D01*
X140891310Y-107307104D01*
X140763536Y-107281688D01*
X140635762Y-107307104D01*
X140588294Y-107307104D01*
X140544438Y-107325270D01*
X140416667Y-107350685D01*
X140308349Y-107423061D01*
X140264489Y-107441228D01*
X140230921Y-107474796D01*
X140122604Y-107547171D01*
X140050229Y-107655488D01*
X140016660Y-107689057D01*
X139998492Y-107732918D01*
X139926118Y-107841234D01*
X139900702Y-107969005D01*
X139882536Y-108012862D01*
X139882536Y-108060330D01*
X139874536Y-108100548D01*
X139874536Y-108982765D01*
X139874537Y-108982770D01*
X139874536Y-110942000D01*
X139401998Y-110942000D01*
X139401998Y-111057241D01*
X139321675Y-111112044D01*
X138958917Y-111418251D01*
X138740953Y-111839971D01*
X138861373Y-112027000D01*
X139610000Y-112027000D01*
X139610000Y-111949000D01*
X140210000Y-111949000D01*
X140210000Y-112027000D01*
X140403607Y-112027000D01*
X140438000Y-112061393D01*
X140438000Y-112927000D01*
X140210000Y-112927000D01*
X140210000Y-113810593D01*
X140393716Y-113913329D01*
X140498325Y-113841956D01*
X140712059Y-113661541D01*
X140829000Y-113661541D01*
X140829000Y-113932459D01*
X140932676Y-114182756D01*
X141124244Y-114374324D01*
X141374541Y-114478000D01*
X141645459Y-114478000D01*
X141895756Y-114374324D01*
X142087324Y-114182756D01*
X142191000Y-113932459D01*
X142191000Y-113661541D01*
X142087324Y-113411244D01*
X141895756Y-113219676D01*
X141645459Y-113116000D01*
X141374541Y-113116000D01*
X141124244Y-113219676D01*
X140932676Y-113411244D01*
X140829000Y-113661541D01*
X140712059Y-113661541D01*
X140861083Y-113535749D01*
X141079047Y-113114029D01*
X140995972Y-112985002D01*
X141145000Y-112985002D01*
X141145000Y-112616918D01*
X141306286Y-112649000D01*
X141306290Y-112649000D01*
X141393841Y-112666415D01*
X141481392Y-112649000D01*
X143168445Y-112649000D01*
X143256000Y-112666416D01*
X143343555Y-112649000D01*
X143343556Y-112649000D01*
X143602870Y-112597419D01*
X143896933Y-112400933D01*
X143946531Y-112326704D01*
X144653000Y-111620235D01*
X144653000Y-112206369D01*
X143913251Y-112946119D01*
X143849630Y-112988629D01*
X143807119Y-113052251D01*
X143807118Y-113052252D01*
X143681213Y-113240683D01*
X143622073Y-113538000D01*
X143637001Y-113613048D01*
X143637000Y-114472465D01*
X143618330Y-114517540D01*
X143416078Y-114315288D01*
X143147405Y-114204000D01*
X142856595Y-114204000D01*
X142587922Y-114315288D01*
X142382288Y-114520922D01*
X142271000Y-114789595D01*
X142271000Y-115080405D01*
X142382288Y-115349078D01*
X142587922Y-115554712D01*
X142856595Y-115666000D01*
X143014580Y-115666000D01*
X143496412Y-116147832D01*
X143524753Y-116190247D01*
X143692788Y-116302525D01*
X143840968Y-116332000D01*
X143840972Y-116332000D01*
X143891000Y-116341951D01*
X143941028Y-116332000D01*
X144729972Y-116332000D01*
X144780000Y-116341951D01*
X144830028Y-116332000D01*
X144830032Y-116332000D01*
X144978212Y-116302525D01*
X145146247Y-116190247D01*
X145174588Y-116147832D01*
X145968956Y-115353464D01*
X146061373Y-115497000D01*
X146810000Y-115497000D01*
X146810000Y-114613407D01*
X146673101Y-114536852D01*
X146685000Y-114477032D01*
X146685000Y-114477029D01*
X146694951Y-114427001D01*
X146685000Y-114376973D01*
X146685000Y-113880494D01*
X146810000Y-113810593D01*
X146810000Y-112927000D01*
X146659611Y-112927000D01*
X146659611Y-112027000D01*
X146810000Y-112027000D01*
X146810000Y-111143407D01*
X146659611Y-111059308D01*
X146659611Y-110598809D01*
X148024835Y-109233586D01*
X148067247Y-109205247D01*
X148095586Y-109162835D01*
X148095588Y-109162833D01*
X148179525Y-109037212D01*
X148190355Y-108982765D01*
X148209000Y-108889032D01*
X148209000Y-108889028D01*
X148218951Y-108839000D01*
X148209000Y-108788972D01*
X148209000Y-107746028D01*
X148218951Y-107696000D01*
X148209000Y-107645972D01*
X148209000Y-107645968D01*
X148179525Y-107497788D01*
X148132391Y-107427247D01*
X148095588Y-107372167D01*
X148095586Y-107372165D01*
X148067247Y-107329753D01*
X148024835Y-107301414D01*
X147574000Y-106850580D01*
X147574000Y-101469170D01*
X147589288Y-101506078D01*
X147794922Y-101711712D01*
X148063595Y-101823000D01*
X148354405Y-101823000D01*
X148623078Y-101711712D01*
X148828712Y-101506078D01*
X148940000Y-101237405D01*
X148940000Y-100946595D01*
X148828712Y-100677922D01*
X148623078Y-100472288D01*
X148463000Y-100405982D01*
X148463000Y-98604510D01*
X148559000Y-98372745D01*
X148559000Y-98081935D01*
X148447712Y-97813262D01*
X148242078Y-97607628D01*
X147973405Y-97496340D01*
X147682595Y-97496340D01*
X147574000Y-97541322D01*
X147574000Y-95714420D01*
X147681593Y-95606827D01*
X147728669Y-95720478D01*
X147934303Y-95926112D01*
X148166069Y-96022113D01*
X148336001Y-96192044D01*
X148336000Y-97092463D01*
X148323561Y-97155000D01*
X148336000Y-97217537D01*
X148336000Y-97217540D01*
X148372843Y-97402764D01*
X148513191Y-97612809D01*
X148566214Y-97648238D01*
X149255101Y-98337126D01*
X149255101Y-98442594D01*
X149366389Y-98711267D01*
X149572023Y-98916901D01*
X149840696Y-99028189D01*
X150131506Y-99028189D01*
X150368001Y-98930230D01*
X150368001Y-99009968D01*
X150358049Y-99060000D01*
X150397475Y-99258211D01*
X150481412Y-99383832D01*
X150481415Y-99383835D01*
X150509754Y-99426247D01*
X150552166Y-99454586D01*
X150713683Y-99616103D01*
X150661487Y-99637723D01*
X150455853Y-99843357D01*
X150344565Y-100112030D01*
X150344565Y-100402840D01*
X150455853Y-100671513D01*
X150661487Y-100877147D01*
X150930160Y-100988435D01*
X151003000Y-100988435D01*
X151003001Y-103502479D01*
X150993049Y-103552512D01*
X151032475Y-103750723D01*
X151116412Y-103876344D01*
X151116415Y-103876347D01*
X151127818Y-103893412D01*
X151003000Y-103868584D01*
X150875226Y-103894000D01*
X150827758Y-103894000D01*
X150783903Y-103912165D01*
X150656130Y-103937581D01*
X150547810Y-104009958D01*
X150503953Y-104028124D01*
X150470387Y-104061690D01*
X150362067Y-104134067D01*
X150289691Y-104242386D01*
X150256124Y-104275953D01*
X150237957Y-104319812D01*
X150165581Y-104428131D01*
X150140166Y-104555902D01*
X150122000Y-104599758D01*
X150122000Y-104647226D01*
X150114000Y-104687445D01*
X150114001Y-108470763D01*
X147896296Y-110688469D01*
X147822067Y-110738067D01*
X147625581Y-111032131D01*
X147620277Y-111058793D01*
X147593716Y-111040671D01*
X147410000Y-111143407D01*
X147410000Y-112027000D01*
X147574000Y-112027000D01*
X147574000Y-112927000D01*
X147410000Y-112927000D01*
X147410000Y-113810593D01*
X147574000Y-113902304D01*
X147574001Y-114521696D01*
X147410000Y-114613407D01*
X147410000Y-115497000D01*
X147574001Y-115497000D01*
X147574001Y-116397000D01*
X147410000Y-116397000D01*
X147410000Y-116475000D01*
X146810000Y-116475000D01*
X146810000Y-116397000D01*
X146061373Y-116397000D01*
X145940953Y-116584029D01*
X146020739Y-116738400D01*
X140999261Y-116738400D01*
X141079047Y-116584029D01*
X140958627Y-116397000D01*
X140210000Y-116397000D01*
X140210000Y-116475000D01*
X139610000Y-116475000D01*
X139610000Y-116397000D01*
X138861373Y-116397000D01*
X138780948Y-116521911D01*
X138760200Y-116517784D01*
X138672645Y-116535200D01*
X137469435Y-116535200D01*
X136897999Y-115963765D01*
X136897999Y-115309971D01*
X138740953Y-115309971D01*
X138861373Y-115497000D01*
X139610000Y-115497000D01*
X139610000Y-114613407D01*
X140210000Y-114613407D01*
X140210000Y-115497000D01*
X140958627Y-115497000D01*
X141079047Y-115309971D01*
X140861083Y-114888251D01*
X140498325Y-114582044D01*
X140393716Y-114510671D01*
X140210000Y-114613407D01*
X139610000Y-114613407D01*
X139426284Y-114510671D01*
X139321675Y-114582044D01*
X138958917Y-114888251D01*
X138740953Y-115309971D01*
X136897999Y-115309971D01*
X136897999Y-115268549D01*
X136915414Y-115180998D01*
X136897999Y-115093447D01*
X136897999Y-115093443D01*
X136846418Y-114834129D01*
X136649932Y-114540066D01*
X136575706Y-114490470D01*
X135382000Y-113296765D01*
X135382000Y-113114029D01*
X138740953Y-113114029D01*
X138958917Y-113535749D01*
X139321675Y-113841956D01*
X139426284Y-113913329D01*
X139610000Y-113810593D01*
X139610000Y-112927000D01*
X138861373Y-112927000D01*
X138740953Y-113114029D01*
X135382000Y-113114029D01*
X135382000Y-112700023D01*
X135490585Y-112745000D01*
X135781395Y-112745000D01*
X136050068Y-112633712D01*
X136255702Y-112428078D01*
X136366990Y-112159405D01*
X136366990Y-111868595D01*
X136255702Y-111599922D01*
X136050068Y-111394288D01*
X135890000Y-111327986D01*
X135890000Y-107339588D01*
X135899951Y-107289560D01*
X135890000Y-107239532D01*
X135890000Y-107239528D01*
X135860525Y-107091348D01*
X135833565Y-107050999D01*
X135776588Y-106965727D01*
X135776586Y-106965725D01*
X135748247Y-106923313D01*
X135705835Y-106894975D01*
X134975651Y-106164791D01*
X134975651Y-100977846D01*
X135509001Y-100444497D01*
X135509000Y-103556957D01*
X135494073Y-103632000D01*
X135509000Y-103707043D01*
X135509000Y-103707047D01*
X135553212Y-103929316D01*
X135721629Y-104181371D01*
X135785253Y-104223883D01*
X135931501Y-104370131D01*
X135931501Y-104408842D01*
X136065625Y-104732647D01*
X136313454Y-104980476D01*
X136637259Y-105114600D01*
X136987743Y-105114600D01*
X137311548Y-104980476D01*
X137559377Y-104732647D01*
X137693501Y-104408842D01*
X137693501Y-104058358D01*
X137559377Y-103734553D01*
X137311548Y-103486724D01*
X137126851Y-103410220D01*
X137033000Y-103316370D01*
X137033000Y-99522534D01*
X137152000Y-99235242D01*
X137152000Y-98884758D01*
X137033000Y-98597466D01*
X137033000Y-96530850D01*
X137348631Y-96215220D01*
X139904257Y-96215220D01*
X139979300Y-96230147D01*
X140054343Y-96215220D01*
X140054348Y-96215220D01*
X140276617Y-96171008D01*
X140528671Y-96002591D01*
X140571184Y-95938966D01*
X142008958Y-94501191D01*
X142072582Y-94458679D01*
X142181961Y-94294982D01*
X142240999Y-94206626D01*
X142300139Y-93909308D01*
X142285211Y-93834261D01*
X142285211Y-92268245D01*
X142300139Y-92193198D01*
X142279597Y-92089928D01*
X142240999Y-91895881D01*
X142072582Y-91643827D01*
X142008960Y-91601316D01*
X141452610Y-91044967D01*
X141452610Y-87992595D01*
X142779000Y-87992595D01*
X142779000Y-88283405D01*
X142875001Y-88515172D01*
X142875000Y-91517485D01*
X142875000Y-91697830D01*
X142779000Y-91929595D01*
X142779000Y-92220405D01*
X142890288Y-92489078D01*
X143095922Y-92694712D01*
X143364595Y-92806000D01*
X143655405Y-92806000D01*
X143924078Y-92694712D01*
X144129712Y-92489078D01*
X144241000Y-92220405D01*
X144241000Y-91929595D01*
X144145000Y-91697830D01*
X144145000Y-88515170D01*
X144241000Y-88283405D01*
X144241000Y-87992595D01*
X144129712Y-87723922D01*
X143924078Y-87518288D01*
X143655405Y-87407000D01*
X143364595Y-87407000D01*
X143095922Y-87518288D01*
X142890288Y-87723922D01*
X142779000Y-87992595D01*
X141452610Y-87992595D01*
X141452610Y-87526929D01*
X141467537Y-87451886D01*
X141452610Y-87376843D01*
X141452610Y-87376839D01*
X141408398Y-87154570D01*
X141393285Y-87131951D01*
X141282492Y-86966138D01*
X141239981Y-86902516D01*
X141176359Y-86860005D01*
X139420610Y-85104258D01*
X139420610Y-83661684D01*
X140918335Y-83661684D01*
X140986498Y-83868656D01*
X141489325Y-83960828D01*
X141952702Y-83868656D01*
X142020865Y-83661684D01*
X143229735Y-83661684D01*
X143297898Y-83868656D01*
X143800725Y-83960828D01*
X144264102Y-83868656D01*
X144332265Y-83661684D01*
X145591935Y-83661684D01*
X145660098Y-83868656D01*
X146162925Y-83960828D01*
X146626302Y-83868656D01*
X146694465Y-83661684D01*
X146143200Y-83110419D01*
X145591935Y-83661684D01*
X144332265Y-83661684D01*
X143781000Y-83110419D01*
X143229735Y-83661684D01*
X142020865Y-83661684D01*
X141469600Y-83110419D01*
X140918335Y-83661684D01*
X139420610Y-83661684D01*
X139420610Y-82670525D01*
X140159572Y-82670525D01*
X140251744Y-83133902D01*
X140458716Y-83202065D01*
X141009981Y-82650800D01*
X141929219Y-82650800D01*
X142480484Y-83202065D01*
X142625300Y-83154372D01*
X142770116Y-83202065D01*
X143321381Y-82650800D01*
X144240619Y-82650800D01*
X144791884Y-83202065D01*
X144962100Y-83146007D01*
X145132316Y-83202065D01*
X145683581Y-82650800D01*
X146602819Y-82650800D01*
X147154084Y-83202065D01*
X147361056Y-83133902D01*
X147453228Y-82631075D01*
X147361056Y-82167698D01*
X147154084Y-82099535D01*
X146602819Y-82650800D01*
X145683581Y-82650800D01*
X145132316Y-82099535D01*
X144962100Y-82155593D01*
X144791884Y-82099535D01*
X144240619Y-82650800D01*
X143321381Y-82650800D01*
X142770116Y-82099535D01*
X142625300Y-82147228D01*
X142480484Y-82099535D01*
X141929219Y-82650800D01*
X141009981Y-82650800D01*
X140458716Y-82099535D01*
X140251744Y-82167698D01*
X140159572Y-82670525D01*
X139420610Y-82670525D01*
X139420610Y-81964653D01*
X139435537Y-81889610D01*
X139420610Y-81814567D01*
X139420610Y-81814562D01*
X139376398Y-81592293D01*
X139292058Y-81466069D01*
X139250492Y-81403861D01*
X139207981Y-81340239D01*
X139144359Y-81297728D01*
X139044515Y-81197884D01*
X140918335Y-81197884D01*
X140986498Y-81404856D01*
X141059984Y-81418327D01*
X140986498Y-81432944D01*
X140918335Y-81639916D01*
X141469600Y-82191181D01*
X141987018Y-81673763D01*
X143128344Y-81673763D01*
X143250764Y-81894458D01*
X143518566Y-81928747D01*
X143781000Y-82191181D01*
X144019741Y-81952440D01*
X144311236Y-81894458D01*
X144433656Y-81673763D01*
X144299097Y-81539204D01*
X144264102Y-81432944D01*
X144176841Y-81416948D01*
X143957777Y-81197884D01*
X145591935Y-81197884D01*
X145660098Y-81404856D01*
X145733584Y-81418327D01*
X145660098Y-81432944D01*
X145591935Y-81639916D01*
X146143200Y-82191181D01*
X146694465Y-81639916D01*
X146626302Y-81432944D01*
X146552816Y-81419473D01*
X146626302Y-81404856D01*
X146694465Y-81197884D01*
X146143200Y-80646619D01*
X145591935Y-81197884D01*
X143957777Y-81197884D01*
X143781000Y-81021107D01*
X143386858Y-81415249D01*
X143297898Y-81432944D01*
X143262903Y-81539204D01*
X143128344Y-81673763D01*
X141987018Y-81673763D01*
X142020865Y-81639916D01*
X141952702Y-81432944D01*
X141879216Y-81419473D01*
X141952702Y-81404856D01*
X142020865Y-81197884D01*
X141469600Y-80646619D01*
X140918335Y-81197884D01*
X139044515Y-81197884D01*
X138053356Y-80206725D01*
X140159572Y-80206725D01*
X140251744Y-80670102D01*
X140458716Y-80738265D01*
X141009981Y-80187000D01*
X141929219Y-80187000D01*
X142123976Y-80381757D01*
X142117935Y-80428941D01*
X142200542Y-80844236D01*
X142421237Y-80966656D01*
X143073893Y-80314000D01*
X144488107Y-80314000D01*
X145140763Y-80966656D01*
X145361458Y-80844236D01*
X145410666Y-80459915D01*
X145683581Y-80187000D01*
X146602819Y-80187000D01*
X147154084Y-80738265D01*
X147361056Y-80670102D01*
X147453228Y-80167275D01*
X147361056Y-79703898D01*
X147154084Y-79635735D01*
X146602819Y-80187000D01*
X145683581Y-80187000D01*
X145381598Y-79885017D01*
X145361458Y-79783764D01*
X145179303Y-79682722D01*
X145132316Y-79635735D01*
X144925344Y-79703898D01*
X144886544Y-79915563D01*
X144488107Y-80314000D01*
X143073893Y-80314000D01*
X142742993Y-79983100D01*
X142687456Y-79703898D01*
X142480484Y-79635735D01*
X142438056Y-79678163D01*
X142421237Y-79661344D01*
X142200542Y-79783764D01*
X142181172Y-79935047D01*
X141929219Y-80187000D01*
X141009981Y-80187000D01*
X140458716Y-79635735D01*
X140251744Y-79703898D01*
X140159572Y-80206725D01*
X138053356Y-80206725D01*
X137738601Y-79891971D01*
X137738601Y-78962684D01*
X140918335Y-78962684D01*
X140953480Y-79069400D01*
X140918335Y-79176116D01*
X141469600Y-79727381D01*
X142020865Y-79176116D01*
X141985720Y-79069400D01*
X142020865Y-78962684D01*
X142012418Y-78954237D01*
X143128344Y-78954237D01*
X143275376Y-79101269D01*
X143297898Y-79169656D01*
X143354057Y-79179950D01*
X143781000Y-79606893D01*
X144206848Y-79181045D01*
X144264102Y-79169656D01*
X144286624Y-79101269D01*
X144425209Y-78962684D01*
X145591935Y-78962684D01*
X145627080Y-79069400D01*
X145591935Y-79176116D01*
X146143200Y-79727381D01*
X146694465Y-79176116D01*
X146659320Y-79069400D01*
X146694465Y-78962684D01*
X146143200Y-78411419D01*
X145591935Y-78962684D01*
X144425209Y-78962684D01*
X144433656Y-78954237D01*
X144311236Y-78733542D01*
X144072564Y-78702983D01*
X143781000Y-78411419D01*
X143510552Y-78681867D01*
X143250764Y-78733542D01*
X143128344Y-78954237D01*
X142012418Y-78954237D01*
X141469600Y-78411419D01*
X140918335Y-78962684D01*
X137738601Y-78962684D01*
X137738601Y-77971525D01*
X140159572Y-77971525D01*
X140251744Y-78434902D01*
X140458716Y-78503065D01*
X141009981Y-77951800D01*
X141929219Y-77951800D01*
X142480484Y-78503065D01*
X142625300Y-78455372D01*
X142770116Y-78503065D01*
X143321381Y-77951800D01*
X144240619Y-77951800D01*
X144791884Y-78503065D01*
X144962100Y-78447007D01*
X145132316Y-78503065D01*
X145683581Y-77951800D01*
X146602819Y-77951800D01*
X147154084Y-78503065D01*
X147361056Y-78434902D01*
X147453228Y-77932075D01*
X147361056Y-77468698D01*
X147154084Y-77400535D01*
X146602819Y-77951800D01*
X145683581Y-77951800D01*
X145132316Y-77400535D01*
X144962100Y-77456593D01*
X144791884Y-77400535D01*
X144240619Y-77951800D01*
X143321381Y-77951800D01*
X142770116Y-77400535D01*
X142625300Y-77448228D01*
X142480484Y-77400535D01*
X141929219Y-77951800D01*
X141009981Y-77951800D01*
X140458716Y-77400535D01*
X140251744Y-77468698D01*
X140159572Y-77971525D01*
X137738601Y-77971525D01*
X137738601Y-76940916D01*
X140918335Y-76940916D01*
X141469600Y-77492181D01*
X142020865Y-76940916D01*
X143229735Y-76940916D01*
X143781000Y-77492181D01*
X144332265Y-76940916D01*
X145591935Y-76940916D01*
X146143200Y-77492181D01*
X146694465Y-76940916D01*
X146626302Y-76733944D01*
X146123475Y-76641772D01*
X145660098Y-76733944D01*
X145591935Y-76940916D01*
X144332265Y-76940916D01*
X144264102Y-76733944D01*
X143761275Y-76641772D01*
X143297898Y-76733944D01*
X143229735Y-76940916D01*
X142020865Y-76940916D01*
X141952702Y-76733944D01*
X141449875Y-76641772D01*
X140986498Y-76733944D01*
X140918335Y-76940916D01*
X137738601Y-76940916D01*
X137738601Y-74206088D01*
X137787000Y-74089242D01*
X137787000Y-73738758D01*
X137652876Y-73414953D01*
X137405047Y-73167124D01*
X137081242Y-73033000D01*
X136730758Y-73033000D01*
X136406953Y-73167124D01*
X136159124Y-73414953D01*
X136025000Y-73738758D01*
X136025000Y-74089242D01*
X136159124Y-74413047D01*
X136214602Y-74468525D01*
X136214602Y-74474629D01*
X136162405Y-74453008D01*
X135871595Y-74453008D01*
X135602922Y-74564296D01*
X135397288Y-74769930D01*
X135286000Y-75038603D01*
X135286000Y-75329413D01*
X135397288Y-75598086D01*
X135509000Y-75709798D01*
X135509001Y-80340967D01*
X135499049Y-80391000D01*
X135538475Y-80589211D01*
X135622412Y-80714832D01*
X135622415Y-80714835D01*
X135650754Y-80757247D01*
X135693166Y-80785586D01*
X137414000Y-82506421D01*
X137414001Y-85674967D01*
X137404049Y-85725000D01*
X137443475Y-85923211D01*
X137527412Y-86048832D01*
X137527415Y-86048835D01*
X137555754Y-86091247D01*
X137598166Y-86119586D01*
X138842937Y-87364358D01*
X138777922Y-87391288D01*
X138572288Y-87596922D01*
X138461000Y-87865595D01*
X138461000Y-88156405D01*
X138481587Y-88206106D01*
X138392005Y-88169000D01*
X138101195Y-88169000D01*
X137832522Y-88280288D01*
X137626888Y-88485922D01*
X137515600Y-88754595D01*
X137515600Y-89045405D01*
X137626888Y-89314078D01*
X137738600Y-89425790D01*
X137738601Y-91741276D01*
X137652712Y-91533922D01*
X137447078Y-91328288D01*
X137178405Y-91217000D01*
X136887595Y-91217000D01*
X136618922Y-91328288D01*
X136507210Y-91440000D01*
X136278110Y-91440000D01*
X136278110Y-89616290D01*
X136389822Y-89504578D01*
X136501110Y-89235905D01*
X136501110Y-88945095D01*
X136389822Y-88676422D01*
X136184188Y-88470788D01*
X136143725Y-88454027D01*
X136177078Y-88440212D01*
X136382712Y-88234578D01*
X136494000Y-87965905D01*
X136494000Y-87675095D01*
X136382712Y-87406422D01*
X136177078Y-87200788D01*
X135908405Y-87089500D01*
X135617595Y-87089500D01*
X135348922Y-87200788D01*
X135143288Y-87406422D01*
X135032000Y-87675095D01*
X135032000Y-87896580D01*
X135001000Y-87927580D01*
X135001000Y-86824420D01*
X135813921Y-86011500D01*
X135908405Y-86011500D01*
X136177078Y-85900212D01*
X136382712Y-85694578D01*
X136494000Y-85425905D01*
X136494000Y-85135095D01*
X136382712Y-84866422D01*
X136177078Y-84660788D01*
X135908405Y-84549500D01*
X135617595Y-84549500D01*
X135348922Y-84660788D01*
X135143288Y-84866422D01*
X135032000Y-85135095D01*
X135032000Y-85356579D01*
X134169168Y-86219412D01*
X134126753Y-86247753D01*
X134098413Y-86290167D01*
X134098412Y-86290168D01*
X134014476Y-86415788D01*
X134014475Y-86415789D01*
X133985000Y-86563969D01*
X133985000Y-86563972D01*
X133975049Y-86614000D01*
X133985000Y-86664028D01*
X133985001Y-91356578D01*
X131601805Y-93739775D01*
X131580512Y-93735539D01*
X131886654Y-93429397D01*
X132080000Y-92962619D01*
X132080000Y-92457381D01*
X131886654Y-91990603D01*
X131529397Y-91633346D01*
X131062619Y-91440000D01*
X131529397Y-91246654D01*
X131886654Y-90889397D01*
X132080000Y-90422619D01*
X132080000Y-89917381D01*
X131886654Y-89450603D01*
X131529397Y-89093346D01*
X131062619Y-88900000D01*
X131529397Y-88706654D01*
X131886654Y-88349397D01*
X132080000Y-87882619D01*
X132080000Y-87377381D01*
X131886654Y-86910603D01*
X131529397Y-86553346D01*
X131062619Y-86360000D01*
X131529397Y-86166654D01*
X131886654Y-85809397D01*
X132080000Y-85342619D01*
X132080000Y-84837381D01*
X131886654Y-84370603D01*
X131529397Y-84013346D01*
X131062619Y-83820000D01*
X131529397Y-83626654D01*
X131886654Y-83269397D01*
X132080000Y-82802619D01*
X132080000Y-82297381D01*
X131886654Y-81830603D01*
X131529397Y-81473346D01*
X131062619Y-81280000D01*
X131529397Y-81086654D01*
X131886654Y-80729397D01*
X132080000Y-80262619D01*
X132080000Y-79757381D01*
X131886654Y-79290603D01*
X131529397Y-78933346D01*
X131062619Y-78740000D01*
X131529397Y-78546654D01*
X131886654Y-78189397D01*
X132080000Y-77722619D01*
X132080000Y-77217381D01*
X131886654Y-76750603D01*
X131529397Y-76393346D01*
X131062619Y-76200000D01*
X131529397Y-76006654D01*
X131886654Y-75649397D01*
X132080000Y-75182619D01*
X132080000Y-74677381D01*
X131886654Y-74210603D01*
X131529397Y-73853346D01*
X131080639Y-73667464D01*
X131699000Y-73667464D01*
X131847659Y-73637894D01*
X131973686Y-73553686D01*
X132057894Y-73427659D01*
X132087464Y-73279000D01*
X132087464Y-71628000D01*
X154686000Y-71628000D01*
X154686000Y-71786750D01*
X154686000Y-71786750D01*
G37*
X154686000Y-71786750D02*
X154844750Y-71945500D01*
X155765500Y-71945500D01*
X155765500Y-71862000D01*
X156654500Y-71862000D01*
X156654500Y-71945500D01*
X156738000Y-71945500D01*
X156738000Y-72834500D01*
X156654500Y-72834500D01*
X156654500Y-72918000D01*
X155765500Y-72918000D01*
X155765500Y-72834500D01*
X154844750Y-72834500D01*
X154686000Y-72993250D01*
X154686000Y-73405309D01*
X154782673Y-73638698D01*
X154961301Y-73817327D01*
X155194690Y-73914000D01*
X155429949Y-73914000D01*
X155133346Y-74210603D01*
X154940000Y-74677381D01*
X154940000Y-75182619D01*
X155133346Y-75649397D01*
X155490603Y-76006654D01*
X155957381Y-76200000D01*
X155490603Y-76393346D01*
X155133346Y-76750603D01*
X154940000Y-77217381D01*
X154940000Y-77722619D01*
X155133346Y-78189397D01*
X155490603Y-78546654D01*
X155957381Y-78740000D01*
X155490603Y-78933346D01*
X155133346Y-79290603D01*
X154940000Y-79757381D01*
X154940000Y-80262619D01*
X155133346Y-80729397D01*
X155490603Y-81086654D01*
X155957381Y-81280000D01*
X155490603Y-81473346D01*
X155133346Y-81830603D01*
X154940000Y-82297381D01*
X154940000Y-82802619D01*
X155133346Y-83269397D01*
X155490603Y-83626654D01*
X155957381Y-83820000D01*
X155490603Y-84013346D01*
X155133346Y-84370603D01*
X154940000Y-84837381D01*
X154940000Y-85342619D01*
X155133346Y-85809397D01*
X155490603Y-86166654D01*
X155659271Y-86236519D01*
X155589230Y-86380612D01*
X156210000Y-87001382D01*
X156269044Y-86942339D01*
X156897662Y-87570957D01*
X156838618Y-87630000D01*
X156897662Y-87689044D01*
X156269044Y-88317662D01*
X156210000Y-88258618D01*
X155589230Y-88879388D01*
X155659271Y-89023481D01*
X155490603Y-89093346D01*
X155133346Y-89450603D01*
X154940000Y-89917381D01*
X154940000Y-90422619D01*
X155133346Y-90889397D01*
X155490603Y-91246654D01*
X155957381Y-91440000D01*
X155490603Y-91633346D01*
X155133346Y-91990603D01*
X154940000Y-92457381D01*
X154940000Y-92962619D01*
X155133346Y-93429397D01*
X155490603Y-93786654D01*
X155957381Y-93980000D01*
X155490603Y-94173346D01*
X155133346Y-94530603D01*
X154940000Y-94997381D01*
X154940000Y-95420580D01*
X154813000Y-95293580D01*
X154813000Y-88569027D01*
X154822951Y-88518999D01*
X154813000Y-88468969D01*
X154813000Y-88468968D01*
X154783525Y-88320788D01*
X154766962Y-88296000D01*
X154699588Y-88195167D01*
X154699586Y-88195165D01*
X154671247Y-88152753D01*
X154628836Y-88124415D01*
X154219057Y-87714636D01*
X154658450Y-87714636D01*
X154744166Y-88145559D01*
X154960612Y-88250770D01*
X155581382Y-87630000D01*
X154960612Y-87009230D01*
X154744166Y-87114441D01*
X154658450Y-87714636D01*
X154219057Y-87714636D01*
X152011000Y-85506580D01*
X152011000Y-85168758D01*
X151876876Y-84844953D01*
X151629047Y-84597124D01*
X151305242Y-84463000D01*
X150954758Y-84463000D01*
X150630953Y-84597124D01*
X150383124Y-84844953D01*
X150249000Y-85168758D01*
X150249000Y-85519242D01*
X150383124Y-85843047D01*
X150519077Y-85979000D01*
X150383124Y-86114953D01*
X150249000Y-86438758D01*
X150249000Y-86789242D01*
X150383124Y-87113047D01*
X150519077Y-87249000D01*
X150383124Y-87384953D01*
X150249000Y-87708758D01*
X150249000Y-88059242D01*
X150383124Y-88383047D01*
X150519077Y-88519000D01*
X150515934Y-88522144D01*
X150401078Y-88407288D01*
X150132405Y-88296000D01*
X149841595Y-88296000D01*
X149572922Y-88407288D01*
X149367288Y-88612922D01*
X149256000Y-88881595D01*
X149256000Y-89172405D01*
X149367288Y-89441078D01*
X149479000Y-89552790D01*
X149479001Y-90443561D01*
X149469049Y-90493594D01*
X149508475Y-90691805D01*
X149592412Y-90817426D01*
X149592415Y-90817429D01*
X149620754Y-90859841D01*
X149663166Y-90888180D01*
X149991986Y-91217000D01*
X149841595Y-91217000D01*
X149572922Y-91328288D01*
X149367288Y-91533922D01*
X149256000Y-91802595D01*
X149256000Y-92093405D01*
X149259271Y-92101301D01*
X149236307Y-92091789D01*
X148945497Y-92091789D01*
X148676824Y-92203077D01*
X148471190Y-92408711D01*
X148359902Y-92677384D01*
X148359902Y-92968194D01*
X148471190Y-93236867D01*
X148676824Y-93442501D01*
X148875000Y-93524588D01*
X148875000Y-93757000D01*
X148698595Y-93757000D01*
X148429922Y-93868288D01*
X148318210Y-93980000D01*
X148132028Y-93980000D01*
X148082000Y-93970049D01*
X148031972Y-93980000D01*
X148031968Y-93980000D01*
X147883788Y-94009475D01*
X147758167Y-94093412D01*
X147758165Y-94093414D01*
X147715753Y-94121753D01*
X147687414Y-94164165D01*
X146742168Y-95109412D01*
X146699753Y-95137753D01*
X146671413Y-95180167D01*
X146671412Y-95180168D01*
X146641717Y-95224610D01*
X146587475Y-95305789D01*
X146558000Y-95453969D01*
X146558000Y-95453972D01*
X146548049Y-95504000D01*
X146558000Y-95554028D01*
X146558001Y-107010967D01*
X146548049Y-107061000D01*
X146587475Y-107259211D01*
X146671412Y-107384832D01*
X146671415Y-107384835D01*
X146699754Y-107427247D01*
X146742166Y-107455586D01*
X146863580Y-107577000D01*
X146636776Y-107577000D01*
X146312971Y-107711124D01*
X146065142Y-107958953D01*
X145946142Y-108246245D01*
X145927304Y-108265083D01*
X145915000Y-108203227D01*
X145915000Y-108155758D01*
X145896834Y-108111900D01*
X145871418Y-107984130D01*
X145799043Y-107875812D01*
X145780876Y-107831953D01*
X145747309Y-107798386D01*
X145674933Y-107690067D01*
X145566614Y-107617691D01*
X145533047Y-107584124D01*
X145489188Y-107565957D01*
X145380870Y-107493582D01*
X145253100Y-107468166D01*
X145209242Y-107450000D01*
X145161773Y-107450000D01*
X145034000Y-107424584D01*
X144906227Y-107450000D01*
X144858758Y-107450000D01*
X144814901Y-107468166D01*
X144687129Y-107493582D01*
X144578811Y-107565958D01*
X144534953Y-107584124D01*
X144501386Y-107617691D01*
X144467293Y-107640471D01*
X143705296Y-108402469D01*
X143631067Y-108452067D01*
X143434581Y-108746131D01*
X143387511Y-108982766D01*
X143365584Y-109093000D01*
X143383000Y-109180555D01*
X143383001Y-110109341D01*
X143342185Y-110068525D01*
X143342185Y-104156866D01*
X143588758Y-104259000D01*
X143939242Y-104259000D01*
X144263047Y-104124876D01*
X144510876Y-103877047D01*
X144645000Y-103553242D01*
X144645000Y-103202758D01*
X144526000Y-102915466D01*
X144526000Y-97744534D01*
X144645000Y-97457242D01*
X144645000Y-97106758D01*
X144510876Y-96782953D01*
X144263047Y-96535124D01*
X143939242Y-96401000D01*
X143588758Y-96401000D01*
X143264953Y-96535124D01*
X143017124Y-96782953D01*
X142883000Y-97106758D01*
X142883000Y-97457242D01*
X143002001Y-97744537D01*
X143002001Y-99262982D01*
X142893405Y-99218000D01*
X142602595Y-99218000D01*
X142333922Y-99329288D01*
X142128288Y-99534922D01*
X142017000Y-99803595D01*
X142017000Y-99980010D01*
X141911205Y-99980010D01*
X141642532Y-100091298D01*
X141436898Y-100296932D01*
X141325610Y-100565605D01*
X141325610Y-100856415D01*
X141436898Y-101125088D01*
X141548610Y-101236800D01*
X141548610Y-101256015D01*
X141548611Y-101256020D01*
X141548610Y-107762894D01*
X141528578Y-107732914D01*
X141510412Y-107689057D01*
X141476846Y-107655491D01*
X141404469Y-107547171D01*
X141296149Y-107474794D01*
X141262583Y-107441228D01*
X141218726Y-107423062D01*
X141110406Y-107350685D01*
X140982633Y-107325269D01*
X140938778Y-107307104D01*
X140891310Y-107307104D01*
X140763536Y-107281688D01*
X140635762Y-107307104D01*
X140588294Y-107307104D01*
X140544438Y-107325270D01*
X140416667Y-107350685D01*
X140308349Y-107423061D01*
X140264489Y-107441228D01*
X140230921Y-107474796D01*
X140122604Y-107547171D01*
X140050229Y-107655488D01*
X140016660Y-107689057D01*
X139998492Y-107732918D01*
X139926118Y-107841234D01*
X139900702Y-107969005D01*
X139882536Y-108012862D01*
X139882536Y-108060330D01*
X139874536Y-108100548D01*
X139874536Y-108982765D01*
X139874537Y-108982770D01*
X139874536Y-110942000D01*
X139401998Y-110942000D01*
X139401998Y-111057241D01*
X139321675Y-111112044D01*
X138958917Y-111418251D01*
X138740953Y-111839971D01*
X138861373Y-112027000D01*
X139610000Y-112027000D01*
X139610000Y-111949000D01*
X140210000Y-111949000D01*
X140210000Y-112027000D01*
X140403607Y-112027000D01*
X140438000Y-112061393D01*
X140438000Y-112927000D01*
X140210000Y-112927000D01*
X140210000Y-113810593D01*
X140393716Y-113913329D01*
X140498325Y-113841956D01*
X140712059Y-113661541D01*
X140829000Y-113661541D01*
X140829000Y-113932459D01*
X140932676Y-114182756D01*
X141124244Y-114374324D01*
X141374541Y-114478000D01*
X141645459Y-114478000D01*
X141895756Y-114374324D01*
X142087324Y-114182756D01*
X142191000Y-113932459D01*
X142191000Y-113661541D01*
X142087324Y-113411244D01*
X141895756Y-113219676D01*
X141645459Y-113116000D01*
X141374541Y-113116000D01*
X141124244Y-113219676D01*
X140932676Y-113411244D01*
X140829000Y-113661541D01*
X140712059Y-113661541D01*
X140861083Y-113535749D01*
X141079047Y-113114029D01*
X140995972Y-112985002D01*
X141145000Y-112985002D01*
X141145000Y-112616918D01*
X141306286Y-112649000D01*
X141306290Y-112649000D01*
X141393841Y-112666415D01*
X141481392Y-112649000D01*
X143168445Y-112649000D01*
X143256000Y-112666416D01*
X143343555Y-112649000D01*
X143343556Y-112649000D01*
X143602870Y-112597419D01*
X143896933Y-112400933D01*
X143946531Y-112326704D01*
X144653000Y-111620235D01*
X144653000Y-112206369D01*
X143913251Y-112946119D01*
X143849630Y-112988629D01*
X143807119Y-113052251D01*
X143807118Y-113052252D01*
X143681213Y-113240683D01*
X143622073Y-113538000D01*
X143637001Y-113613048D01*
X143637000Y-114472465D01*
X143618330Y-114517540D01*
X143416078Y-114315288D01*
X143147405Y-114204000D01*
X142856595Y-114204000D01*
X142587922Y-114315288D01*
X142382288Y-114520922D01*
X142271000Y-114789595D01*
X142271000Y-115080405D01*
X142382288Y-115349078D01*
X142587922Y-115554712D01*
X142856595Y-115666000D01*
X143014580Y-115666000D01*
X143496412Y-116147832D01*
X143524753Y-116190247D01*
X143692788Y-116302525D01*
X143840968Y-116332000D01*
X143840972Y-116332000D01*
X143891000Y-116341951D01*
X143941028Y-116332000D01*
X144729972Y-116332000D01*
X144780000Y-116341951D01*
X144830028Y-116332000D01*
X144830032Y-116332000D01*
X144978212Y-116302525D01*
X145146247Y-116190247D01*
X145174588Y-116147832D01*
X145968956Y-115353464D01*
X146061373Y-115497000D01*
X146810000Y-115497000D01*
X146810000Y-114613407D01*
X146673101Y-114536852D01*
X146685000Y-114477032D01*
X146685000Y-114477029D01*
X146694951Y-114427001D01*
X146685000Y-114376973D01*
X146685000Y-113880494D01*
X146810000Y-113810593D01*
X146810000Y-112927000D01*
X146659611Y-112927000D01*
X146659611Y-112027000D01*
X146810000Y-112027000D01*
X146810000Y-111143407D01*
X146659611Y-111059308D01*
X146659611Y-110598809D01*
X148024835Y-109233586D01*
X148067247Y-109205247D01*
X148095586Y-109162835D01*
X148095588Y-109162833D01*
X148179525Y-109037212D01*
X148190355Y-108982765D01*
X148209000Y-108889032D01*
X148209000Y-108889028D01*
X148218951Y-108839000D01*
X148209000Y-108788972D01*
X148209000Y-107746028D01*
X148218951Y-107696000D01*
X148209000Y-107645972D01*
X148209000Y-107645968D01*
X148179525Y-107497788D01*
X148132391Y-107427247D01*
X148095588Y-107372167D01*
X148095586Y-107372165D01*
X148067247Y-107329753D01*
X148024835Y-107301414D01*
X147574000Y-106850580D01*
X147574000Y-101469170D01*
X147589288Y-101506078D01*
X147794922Y-101711712D01*
X148063595Y-101823000D01*
X148354405Y-101823000D01*
X148623078Y-101711712D01*
X148828712Y-101506078D01*
X148940000Y-101237405D01*
X148940000Y-100946595D01*
X148828712Y-100677922D01*
X148623078Y-100472288D01*
X148463000Y-100405982D01*
X148463000Y-98604510D01*
X148559000Y-98372745D01*
X148559000Y-98081935D01*
X148447712Y-97813262D01*
X148242078Y-97607628D01*
X147973405Y-97496340D01*
X147682595Y-97496340D01*
X147574000Y-97541322D01*
X147574000Y-95714420D01*
X147681593Y-95606827D01*
X147728669Y-95720478D01*
X147934303Y-95926112D01*
X148166069Y-96022113D01*
X148336001Y-96192044D01*
X148336000Y-97092463D01*
X148323561Y-97155000D01*
X148336000Y-97217537D01*
X148336000Y-97217540D01*
X148372843Y-97402764D01*
X148513191Y-97612809D01*
X148566214Y-97648238D01*
X149255101Y-98337126D01*
X149255101Y-98442594D01*
X149366389Y-98711267D01*
X149572023Y-98916901D01*
X149840696Y-99028189D01*
X150131506Y-99028189D01*
X150368001Y-98930230D01*
X150368001Y-99009968D01*
X150358049Y-99060000D01*
X150397475Y-99258211D01*
X150481412Y-99383832D01*
X150481415Y-99383835D01*
X150509754Y-99426247D01*
X150552166Y-99454586D01*
X150713683Y-99616103D01*
X150661487Y-99637723D01*
X150455853Y-99843357D01*
X150344565Y-100112030D01*
X150344565Y-100402840D01*
X150455853Y-100671513D01*
X150661487Y-100877147D01*
X150930160Y-100988435D01*
X151003000Y-100988435D01*
X151003001Y-103502479D01*
X150993049Y-103552512D01*
X151032475Y-103750723D01*
X151116412Y-103876344D01*
X151116415Y-103876347D01*
X151127818Y-103893412D01*
X151003000Y-103868584D01*
X150875226Y-103894000D01*
X150827758Y-103894000D01*
X150783903Y-103912165D01*
X150656130Y-103937581D01*
X150547810Y-104009958D01*
X150503953Y-104028124D01*
X150470387Y-104061690D01*
X150362067Y-104134067D01*
X150289691Y-104242386D01*
X150256124Y-104275953D01*
X150237957Y-104319812D01*
X150165581Y-104428131D01*
X150140166Y-104555902D01*
X150122000Y-104599758D01*
X150122000Y-104647226D01*
X150114000Y-104687445D01*
X150114001Y-108470763D01*
X147896296Y-110688469D01*
X147822067Y-110738067D01*
X147625581Y-111032131D01*
X147620277Y-111058793D01*
X147593716Y-111040671D01*
X147410000Y-111143407D01*
X147410000Y-112027000D01*
X147574000Y-112027000D01*
X147574000Y-112927000D01*
X147410000Y-112927000D01*
X147410000Y-113810593D01*
X147574000Y-113902304D01*
X147574001Y-114521696D01*
X147410000Y-114613407D01*
X147410000Y-115497000D01*
X147574001Y-115497000D01*
X147574001Y-116397000D01*
X147410000Y-116397000D01*
X147410000Y-116475000D01*
X146810000Y-116475000D01*
X146810000Y-116397000D01*
X146061373Y-116397000D01*
X145940953Y-116584029D01*
X146020739Y-116738400D01*
X140999261Y-116738400D01*
X141079047Y-116584029D01*
X140958627Y-116397000D01*
X140210000Y-116397000D01*
X140210000Y-116475000D01*
X139610000Y-116475000D01*
X139610000Y-116397000D01*
X138861373Y-116397000D01*
X138780948Y-116521911D01*
X138760200Y-116517784D01*
X138672645Y-116535200D01*
X137469435Y-116535200D01*
X136897999Y-115963765D01*
X136897999Y-115309971D01*
X138740953Y-115309971D01*
X138861373Y-115497000D01*
X139610000Y-115497000D01*
X139610000Y-114613407D01*
X140210000Y-114613407D01*
X140210000Y-115497000D01*
X140958627Y-115497000D01*
X141079047Y-115309971D01*
X140861083Y-114888251D01*
X140498325Y-114582044D01*
X140393716Y-114510671D01*
X140210000Y-114613407D01*
X139610000Y-114613407D01*
X139426284Y-114510671D01*
X139321675Y-114582044D01*
X138958917Y-114888251D01*
X138740953Y-115309971D01*
X136897999Y-115309971D01*
X136897999Y-115268549D01*
X136915414Y-115180998D01*
X136897999Y-115093447D01*
X136897999Y-115093443D01*
X136846418Y-114834129D01*
X136649932Y-114540066D01*
X136575706Y-114490470D01*
X135382000Y-113296765D01*
X135382000Y-113114029D01*
X138740953Y-113114029D01*
X138958917Y-113535749D01*
X139321675Y-113841956D01*
X139426284Y-113913329D01*
X139610000Y-113810593D01*
X139610000Y-112927000D01*
X138861373Y-112927000D01*
X138740953Y-113114029D01*
X135382000Y-113114029D01*
X135382000Y-112700023D01*
X135490585Y-112745000D01*
X135781395Y-112745000D01*
X136050068Y-112633712D01*
X136255702Y-112428078D01*
X136366990Y-112159405D01*
X136366990Y-111868595D01*
X136255702Y-111599922D01*
X136050068Y-111394288D01*
X135890000Y-111327986D01*
X135890000Y-107339588D01*
X135899951Y-107289560D01*
X135890000Y-107239532D01*
X135890000Y-107239528D01*
X135860525Y-107091348D01*
X135833565Y-107050999D01*
X135776588Y-106965727D01*
X135776586Y-106965725D01*
X135748247Y-106923313D01*
X135705835Y-106894975D01*
X134975651Y-106164791D01*
X134975651Y-100977846D01*
X135509001Y-100444497D01*
X135509000Y-103556957D01*
X135494073Y-103632000D01*
X135509000Y-103707043D01*
X135509000Y-103707047D01*
X135553212Y-103929316D01*
X135721629Y-104181371D01*
X135785253Y-104223883D01*
X135931501Y-104370131D01*
X135931501Y-104408842D01*
X136065625Y-104732647D01*
X136313454Y-104980476D01*
X136637259Y-105114600D01*
X136987743Y-105114600D01*
X137311548Y-104980476D01*
X137559377Y-104732647D01*
X137693501Y-104408842D01*
X137693501Y-104058358D01*
X137559377Y-103734553D01*
X137311548Y-103486724D01*
X137126851Y-103410220D01*
X137033000Y-103316370D01*
X137033000Y-99522534D01*
X137152000Y-99235242D01*
X137152000Y-98884758D01*
X137033000Y-98597466D01*
X137033000Y-96530850D01*
X137348631Y-96215220D01*
X139904257Y-96215220D01*
X139979300Y-96230147D01*
X140054343Y-96215220D01*
X140054348Y-96215220D01*
X140276617Y-96171008D01*
X140528671Y-96002591D01*
X140571184Y-95938966D01*
X142008958Y-94501191D01*
X142072582Y-94458679D01*
X142181961Y-94294982D01*
X142240999Y-94206626D01*
X142300139Y-93909308D01*
X142285211Y-93834261D01*
X142285211Y-92268245D01*
X142300139Y-92193198D01*
X142279597Y-92089928D01*
X142240999Y-91895881D01*
X142072582Y-91643827D01*
X142008960Y-91601316D01*
X141452610Y-91044967D01*
X141452610Y-87992595D01*
X142779000Y-87992595D01*
X142779000Y-88283405D01*
X142875001Y-88515172D01*
X142875000Y-91517485D01*
X142875000Y-91697830D01*
X142779000Y-91929595D01*
X142779000Y-92220405D01*
X142890288Y-92489078D01*
X143095922Y-92694712D01*
X143364595Y-92806000D01*
X143655405Y-92806000D01*
X143924078Y-92694712D01*
X144129712Y-92489078D01*
X144241000Y-92220405D01*
X144241000Y-91929595D01*
X144145000Y-91697830D01*
X144145000Y-88515170D01*
X144241000Y-88283405D01*
X144241000Y-87992595D01*
X144129712Y-87723922D01*
X143924078Y-87518288D01*
X143655405Y-87407000D01*
X143364595Y-87407000D01*
X143095922Y-87518288D01*
X142890288Y-87723922D01*
X142779000Y-87992595D01*
X141452610Y-87992595D01*
X141452610Y-87526929D01*
X141467537Y-87451886D01*
X141452610Y-87376843D01*
X141452610Y-87376839D01*
X141408398Y-87154570D01*
X141393285Y-87131951D01*
X141282492Y-86966138D01*
X141239981Y-86902516D01*
X141176359Y-86860005D01*
X139420610Y-85104258D01*
X139420610Y-83661684D01*
X140918335Y-83661684D01*
X140986498Y-83868656D01*
X141489325Y-83960828D01*
X141952702Y-83868656D01*
X142020865Y-83661684D01*
X143229735Y-83661684D01*
X143297898Y-83868656D01*
X143800725Y-83960828D01*
X144264102Y-83868656D01*
X144332265Y-83661684D01*
X145591935Y-83661684D01*
X145660098Y-83868656D01*
X146162925Y-83960828D01*
X146626302Y-83868656D01*
X146694465Y-83661684D01*
X146143200Y-83110419D01*
X145591935Y-83661684D01*
X144332265Y-83661684D01*
X143781000Y-83110419D01*
X143229735Y-83661684D01*
X142020865Y-83661684D01*
X141469600Y-83110419D01*
X140918335Y-83661684D01*
X139420610Y-83661684D01*
X139420610Y-82670525D01*
X140159572Y-82670525D01*
X140251744Y-83133902D01*
X140458716Y-83202065D01*
X141009981Y-82650800D01*
X141929219Y-82650800D01*
X142480484Y-83202065D01*
X142625300Y-83154372D01*
X142770116Y-83202065D01*
X143321381Y-82650800D01*
X144240619Y-82650800D01*
X144791884Y-83202065D01*
X144962100Y-83146007D01*
X145132316Y-83202065D01*
X145683581Y-82650800D01*
X146602819Y-82650800D01*
X147154084Y-83202065D01*
X147361056Y-83133902D01*
X147453228Y-82631075D01*
X147361056Y-82167698D01*
X147154084Y-82099535D01*
X146602819Y-82650800D01*
X145683581Y-82650800D01*
X145132316Y-82099535D01*
X144962100Y-82155593D01*
X144791884Y-82099535D01*
X144240619Y-82650800D01*
X143321381Y-82650800D01*
X142770116Y-82099535D01*
X142625300Y-82147228D01*
X142480484Y-82099535D01*
X141929219Y-82650800D01*
X141009981Y-82650800D01*
X140458716Y-82099535D01*
X140251744Y-82167698D01*
X140159572Y-82670525D01*
X139420610Y-82670525D01*
X139420610Y-81964653D01*
X139435537Y-81889610D01*
X139420610Y-81814567D01*
X139420610Y-81814562D01*
X139376398Y-81592293D01*
X139292058Y-81466069D01*
X139250492Y-81403861D01*
X139207981Y-81340239D01*
X139144359Y-81297728D01*
X139044515Y-81197884D01*
X140918335Y-81197884D01*
X140986498Y-81404856D01*
X141059984Y-81418327D01*
X140986498Y-81432944D01*
X140918335Y-81639916D01*
X141469600Y-82191181D01*
X141987018Y-81673763D01*
X143128344Y-81673763D01*
X143250764Y-81894458D01*
X143518566Y-81928747D01*
X143781000Y-82191181D01*
X144019741Y-81952440D01*
X144311236Y-81894458D01*
X144433656Y-81673763D01*
X144299097Y-81539204D01*
X144264102Y-81432944D01*
X144176841Y-81416948D01*
X143957777Y-81197884D01*
X145591935Y-81197884D01*
X145660098Y-81404856D01*
X145733584Y-81418327D01*
X145660098Y-81432944D01*
X145591935Y-81639916D01*
X146143200Y-82191181D01*
X146694465Y-81639916D01*
X146626302Y-81432944D01*
X146552816Y-81419473D01*
X146626302Y-81404856D01*
X146694465Y-81197884D01*
X146143200Y-80646619D01*
X145591935Y-81197884D01*
X143957777Y-81197884D01*
X143781000Y-81021107D01*
X143386858Y-81415249D01*
X143297898Y-81432944D01*
X143262903Y-81539204D01*
X143128344Y-81673763D01*
X141987018Y-81673763D01*
X142020865Y-81639916D01*
X141952702Y-81432944D01*
X141879216Y-81419473D01*
X141952702Y-81404856D01*
X142020865Y-81197884D01*
X141469600Y-80646619D01*
X140918335Y-81197884D01*
X139044515Y-81197884D01*
X138053356Y-80206725D01*
X140159572Y-80206725D01*
X140251744Y-80670102D01*
X140458716Y-80738265D01*
X141009981Y-80187000D01*
X141929219Y-80187000D01*
X142123976Y-80381757D01*
X142117935Y-80428941D01*
X142200542Y-80844236D01*
X142421237Y-80966656D01*
X143073893Y-80314000D01*
X144488107Y-80314000D01*
X145140763Y-80966656D01*
X145361458Y-80844236D01*
X145410666Y-80459915D01*
X145683581Y-80187000D01*
X146602819Y-80187000D01*
X147154084Y-80738265D01*
X147361056Y-80670102D01*
X147453228Y-80167275D01*
X147361056Y-79703898D01*
X147154084Y-79635735D01*
X146602819Y-80187000D01*
X145683581Y-80187000D01*
X145381598Y-79885017D01*
X145361458Y-79783764D01*
X145179303Y-79682722D01*
X145132316Y-79635735D01*
X144925344Y-79703898D01*
X144886544Y-79915563D01*
X144488107Y-80314000D01*
X143073893Y-80314000D01*
X142742993Y-79983100D01*
X142687456Y-79703898D01*
X142480484Y-79635735D01*
X142438056Y-79678163D01*
X142421237Y-79661344D01*
X142200542Y-79783764D01*
X142181172Y-79935047D01*
X141929219Y-80187000D01*
X141009981Y-80187000D01*
X140458716Y-79635735D01*
X140251744Y-79703898D01*
X140159572Y-80206725D01*
X138053356Y-80206725D01*
X137738601Y-79891971D01*
X137738601Y-78962684D01*
X140918335Y-78962684D01*
X140953480Y-79069400D01*
X140918335Y-79176116D01*
X141469600Y-79727381D01*
X142020865Y-79176116D01*
X141985720Y-79069400D01*
X142020865Y-78962684D01*
X142012418Y-78954237D01*
X143128344Y-78954237D01*
X143275376Y-79101269D01*
X143297898Y-79169656D01*
X143354057Y-79179950D01*
X143781000Y-79606893D01*
X144206848Y-79181045D01*
X144264102Y-79169656D01*
X144286624Y-79101269D01*
X144425209Y-78962684D01*
X145591935Y-78962684D01*
X145627080Y-79069400D01*
X145591935Y-79176116D01*
X146143200Y-79727381D01*
X146694465Y-79176116D01*
X146659320Y-79069400D01*
X146694465Y-78962684D01*
X146143200Y-78411419D01*
X145591935Y-78962684D01*
X144425209Y-78962684D01*
X144433656Y-78954237D01*
X144311236Y-78733542D01*
X144072564Y-78702983D01*
X143781000Y-78411419D01*
X143510552Y-78681867D01*
X143250764Y-78733542D01*
X143128344Y-78954237D01*
X142012418Y-78954237D01*
X141469600Y-78411419D01*
X140918335Y-78962684D01*
X137738601Y-78962684D01*
X137738601Y-77971525D01*
X140159572Y-77971525D01*
X140251744Y-78434902D01*
X140458716Y-78503065D01*
X141009981Y-77951800D01*
X141929219Y-77951800D01*
X142480484Y-78503065D01*
X142625300Y-78455372D01*
X142770116Y-78503065D01*
X143321381Y-77951800D01*
X144240619Y-77951800D01*
X144791884Y-78503065D01*
X144962100Y-78447007D01*
X145132316Y-78503065D01*
X145683581Y-77951800D01*
X146602819Y-77951800D01*
X147154084Y-78503065D01*
X147361056Y-78434902D01*
X147453228Y-77932075D01*
X147361056Y-77468698D01*
X147154084Y-77400535D01*
X146602819Y-77951800D01*
X145683581Y-77951800D01*
X145132316Y-77400535D01*
X144962100Y-77456593D01*
X144791884Y-77400535D01*
X144240619Y-77951800D01*
X143321381Y-77951800D01*
X142770116Y-77400535D01*
X142625300Y-77448228D01*
X142480484Y-77400535D01*
X141929219Y-77951800D01*
X141009981Y-77951800D01*
X140458716Y-77400535D01*
X140251744Y-77468698D01*
X140159572Y-77971525D01*
X137738601Y-77971525D01*
X137738601Y-76940916D01*
X140918335Y-76940916D01*
X141469600Y-77492181D01*
X142020865Y-76940916D01*
X143229735Y-76940916D01*
X143781000Y-77492181D01*
X144332265Y-76940916D01*
X145591935Y-76940916D01*
X146143200Y-77492181D01*
X146694465Y-76940916D01*
X146626302Y-76733944D01*
X146123475Y-76641772D01*
X145660098Y-76733944D01*
X145591935Y-76940916D01*
X144332265Y-76940916D01*
X144264102Y-76733944D01*
X143761275Y-76641772D01*
X143297898Y-76733944D01*
X143229735Y-76940916D01*
X142020865Y-76940916D01*
X141952702Y-76733944D01*
X141449875Y-76641772D01*
X140986498Y-76733944D01*
X140918335Y-76940916D01*
X137738601Y-76940916D01*
X137738601Y-74206088D01*
X137787000Y-74089242D01*
X137787000Y-73738758D01*
X137652876Y-73414953D01*
X137405047Y-73167124D01*
X137081242Y-73033000D01*
X136730758Y-73033000D01*
X136406953Y-73167124D01*
X136159124Y-73414953D01*
X136025000Y-73738758D01*
X136025000Y-74089242D01*
X136159124Y-74413047D01*
X136214602Y-74468525D01*
X136214602Y-74474629D01*
X136162405Y-74453008D01*
X135871595Y-74453008D01*
X135602922Y-74564296D01*
X135397288Y-74769930D01*
X135286000Y-75038603D01*
X135286000Y-75329413D01*
X135397288Y-75598086D01*
X135509000Y-75709798D01*
X135509001Y-80340967D01*
X135499049Y-80391000D01*
X135538475Y-80589211D01*
X135622412Y-80714832D01*
X135622415Y-80714835D01*
X135650754Y-80757247D01*
X135693166Y-80785586D01*
X137414000Y-82506421D01*
X137414001Y-85674967D01*
X137404049Y-85725000D01*
X137443475Y-85923211D01*
X137527412Y-86048832D01*
X137527415Y-86048835D01*
X137555754Y-86091247D01*
X137598166Y-86119586D01*
X138842937Y-87364358D01*
X138777922Y-87391288D01*
X138572288Y-87596922D01*
X138461000Y-87865595D01*
X138461000Y-88156405D01*
X138481587Y-88206106D01*
X138392005Y-88169000D01*
X138101195Y-88169000D01*
X137832522Y-88280288D01*
X137626888Y-88485922D01*
X137515600Y-88754595D01*
X137515600Y-89045405D01*
X137626888Y-89314078D01*
X137738600Y-89425790D01*
X137738601Y-91741276D01*
X137652712Y-91533922D01*
X137447078Y-91328288D01*
X137178405Y-91217000D01*
X136887595Y-91217000D01*
X136618922Y-91328288D01*
X136507210Y-91440000D01*
X136278110Y-91440000D01*
X136278110Y-89616290D01*
X136389822Y-89504578D01*
X136501110Y-89235905D01*
X136501110Y-88945095D01*
X136389822Y-88676422D01*
X136184188Y-88470788D01*
X136143725Y-88454027D01*
X136177078Y-88440212D01*
X136382712Y-88234578D01*
X136494000Y-87965905D01*
X136494000Y-87675095D01*
X136382712Y-87406422D01*
X136177078Y-87200788D01*
X135908405Y-87089500D01*
X135617595Y-87089500D01*
X135348922Y-87200788D01*
X135143288Y-87406422D01*
X135032000Y-87675095D01*
X135032000Y-87896580D01*
X135001000Y-87927580D01*
X135001000Y-86824420D01*
X135813921Y-86011500D01*
X135908405Y-86011500D01*
X136177078Y-85900212D01*
X136382712Y-85694578D01*
X136494000Y-85425905D01*
X136494000Y-85135095D01*
X136382712Y-84866422D01*
X136177078Y-84660788D01*
X135908405Y-84549500D01*
X135617595Y-84549500D01*
X135348922Y-84660788D01*
X135143288Y-84866422D01*
X135032000Y-85135095D01*
X135032000Y-85356579D01*
X134169168Y-86219412D01*
X134126753Y-86247753D01*
X134098413Y-86290167D01*
X134098412Y-86290168D01*
X134014476Y-86415788D01*
X134014475Y-86415789D01*
X133985000Y-86563969D01*
X133985000Y-86563972D01*
X133975049Y-86614000D01*
X133985000Y-86664028D01*
X133985001Y-91356578D01*
X131601805Y-93739775D01*
X131580512Y-93735539D01*
X131886654Y-93429397D01*
X132080000Y-92962619D01*
X132080000Y-92457381D01*
X131886654Y-91990603D01*
X131529397Y-91633346D01*
X131062619Y-91440000D01*
X131529397Y-91246654D01*
X131886654Y-90889397D01*
X132080000Y-90422619D01*
X132080000Y-89917381D01*
X131886654Y-89450603D01*
X131529397Y-89093346D01*
X131062619Y-88900000D01*
X131529397Y-88706654D01*
X131886654Y-88349397D01*
X132080000Y-87882619D01*
X132080000Y-87377381D01*
X131886654Y-86910603D01*
X131529397Y-86553346D01*
X131062619Y-86360000D01*
X131529397Y-86166654D01*
X131886654Y-85809397D01*
X132080000Y-85342619D01*
X132080000Y-84837381D01*
X131886654Y-84370603D01*
X131529397Y-84013346D01*
X131062619Y-83820000D01*
X131529397Y-83626654D01*
X131886654Y-83269397D01*
X132080000Y-82802619D01*
X132080000Y-82297381D01*
X131886654Y-81830603D01*
X131529397Y-81473346D01*
X131062619Y-81280000D01*
X131529397Y-81086654D01*
X131886654Y-80729397D01*
X132080000Y-80262619D01*
X132080000Y-79757381D01*
X131886654Y-79290603D01*
X131529397Y-78933346D01*
X131062619Y-78740000D01*
X131529397Y-78546654D01*
X131886654Y-78189397D01*
X132080000Y-77722619D01*
X132080000Y-77217381D01*
X131886654Y-76750603D01*
X131529397Y-76393346D01*
X131062619Y-76200000D01*
X131529397Y-76006654D01*
X131886654Y-75649397D01*
X132080000Y-75182619D01*
X132080000Y-74677381D01*
X131886654Y-74210603D01*
X131529397Y-73853346D01*
X131080639Y-73667464D01*
X131699000Y-73667464D01*
X131847659Y-73637894D01*
X131973686Y-73553686D01*
X132057894Y-73427659D01*
X132087464Y-73279000D01*
X132087464Y-71628000D01*
X154686000Y-71628000D01*
X154686000Y-71786750D01*
G36*
X132029212Y-104819406D02*
X131438618Y-105410000D01*
X131497662Y-105469044D01*
X130869044Y-106097662D01*
X130810000Y-106038618D01*
X130750957Y-106097662D01*
X130122339Y-105469044D01*
X130181382Y-105410000D01*
X130122339Y-105350957D01*
X130750957Y-104722339D01*
X130810000Y-104781382D01*
X131430770Y-104160612D01*
X131360729Y-104016519D01*
X131529397Y-103946654D01*
X131886654Y-103589397D01*
X132029212Y-103245233D01*
X132029212Y-104819406D01*
X132029212Y-104819406D01*
G37*
X132029212Y-104819406D02*
X131438618Y-105410000D01*
X131497662Y-105469044D01*
X130869044Y-106097662D01*
X130810000Y-106038618D01*
X130750957Y-106097662D01*
X130122339Y-105469044D01*
X130181382Y-105410000D01*
X130122339Y-105350957D01*
X130750957Y-104722339D01*
X130810000Y-104781382D01*
X131430770Y-104160612D01*
X131360729Y-104016519D01*
X131529397Y-103946654D01*
X131886654Y-103589397D01*
X132029212Y-103245233D01*
X132029212Y-104819406D01*
G04 #@! TD*
M02*
