G04 #@! TF.GenerationSoftware,KiCad,Pcbnew,6.0.0-rc1-unknown-829ba27~65~ubuntu16.04.1*
G04 #@! TF.CreationDate,2018-07-19T14:53:26+03:00*
G04 #@! TF.ProjectId,ESP32-DevKit-Lipo_Rev_A,45535033322D4465764B69742D4C6970,A*
G04 #@! TF.SameCoordinates,Original*
G04 #@! TF.FileFunction,Legend,Top*
G04 #@! TF.FilePolarity,Positive*
%FSLAX46Y46*%
G04 Gerber Fmt 4.6, Leading zero omitted, Abs format (unit mm)*
G04 Created by KiCad (PCBNEW 6.0.0-rc1-unknown-829ba27~65~ubuntu16.04.1) date Thu Jul 19 14:53:26 2018*
%MOMM*%
%LPD*%
G01*
G04 APERTURE LIST*
%ADD10C,0.190500*%
%ADD11C,0.254000*%
%ADD12C,0.127000*%
%ADD13C,0.146050*%
%ADD14C,0.114300*%
%ADD15C,0.222250*%
%ADD16C,0.317500*%
%ADD17C,0.050000*%
%ADD18C,0.100000*%
%ADD19C,0.200000*%
%ADD20C,0.150000*%
%ADD21C,0.009000*%
%ADD22C,0.158750*%
G04 APERTURE END LIST*
D10*
X148789571Y-113914464D02*
X149261285Y-113914464D01*
X149007285Y-114204750D01*
X149116142Y-114204750D01*
X149188714Y-114241035D01*
X149225000Y-114277321D01*
X149261285Y-114349892D01*
X149261285Y-114531321D01*
X149225000Y-114603892D01*
X149188714Y-114640178D01*
X149116142Y-114676464D01*
X148898428Y-114676464D01*
X148825857Y-114640178D01*
X148789571Y-114603892D01*
X149587857Y-114603892D02*
X149624142Y-114640178D01*
X149587857Y-114676464D01*
X149551571Y-114640178D01*
X149587857Y-114603892D01*
X149587857Y-114676464D01*
X149878142Y-113914464D02*
X150386142Y-113914464D01*
X150059571Y-114676464D01*
X150567571Y-113914464D02*
X150821571Y-114676464D01*
X151075571Y-113914464D01*
X152273000Y-114676464D02*
X151910142Y-114676464D01*
X151910142Y-113914464D01*
X152527000Y-114676464D02*
X152527000Y-114168464D01*
X152527000Y-113914464D02*
X152490714Y-113950750D01*
X152527000Y-113987035D01*
X152563285Y-113950750D01*
X152527000Y-113914464D01*
X152527000Y-113987035D01*
X152889857Y-114168464D02*
X152889857Y-114930464D01*
X152889857Y-114204750D02*
X152962428Y-114168464D01*
X153107571Y-114168464D01*
X153180142Y-114204750D01*
X153216428Y-114241035D01*
X153252714Y-114313607D01*
X153252714Y-114531321D01*
X153216428Y-114603892D01*
X153180142Y-114640178D01*
X153107571Y-114676464D01*
X152962428Y-114676464D01*
X152889857Y-114640178D01*
X153688142Y-114676464D02*
X153615571Y-114640178D01*
X153579285Y-114603892D01*
X153543000Y-114531321D01*
X153543000Y-114313607D01*
X153579285Y-114241035D01*
X153615571Y-114204750D01*
X153688142Y-114168464D01*
X153797000Y-114168464D01*
X153869571Y-114204750D01*
X153905857Y-114241035D01*
X153942142Y-114313607D01*
X153942142Y-114531321D01*
X153905857Y-114603892D01*
X153869571Y-114640178D01*
X153797000Y-114676464D01*
X153688142Y-114676464D01*
X149805571Y-118277821D02*
X149914428Y-118314107D01*
X149950714Y-118350392D01*
X149987000Y-118422964D01*
X149987000Y-118531821D01*
X149950714Y-118604392D01*
X149914428Y-118640678D01*
X149841857Y-118676964D01*
X149551571Y-118676964D01*
X149551571Y-117914964D01*
X149805571Y-117914964D01*
X149878142Y-117951250D01*
X149914428Y-117987535D01*
X149950714Y-118060107D01*
X149950714Y-118132678D01*
X149914428Y-118205250D01*
X149878142Y-118241535D01*
X149805571Y-118277821D01*
X149551571Y-118277821D01*
X150640142Y-118676964D02*
X150640142Y-118277821D01*
X150603857Y-118205250D01*
X150531285Y-118168964D01*
X150386142Y-118168964D01*
X150313571Y-118205250D01*
X150640142Y-118640678D02*
X150567571Y-118676964D01*
X150386142Y-118676964D01*
X150313571Y-118640678D01*
X150277285Y-118568107D01*
X150277285Y-118495535D01*
X150313571Y-118422964D01*
X150386142Y-118386678D01*
X150567571Y-118386678D01*
X150640142Y-118350392D01*
X150894142Y-118168964D02*
X151184428Y-118168964D01*
X151003000Y-117914964D02*
X151003000Y-118568107D01*
X151039285Y-118640678D01*
X151111857Y-118676964D01*
X151184428Y-118676964D01*
X151329571Y-118168964D02*
X151619857Y-118168964D01*
X151438428Y-117914964D02*
X151438428Y-118568107D01*
X151474714Y-118640678D01*
X151547285Y-118676964D01*
X151619857Y-118676964D01*
X152164142Y-118640678D02*
X152091571Y-118676964D01*
X151946428Y-118676964D01*
X151873857Y-118640678D01*
X151837571Y-118568107D01*
X151837571Y-118277821D01*
X151873857Y-118205250D01*
X151946428Y-118168964D01*
X152091571Y-118168964D01*
X152164142Y-118205250D01*
X152200428Y-118277821D01*
X152200428Y-118350392D01*
X151837571Y-118422964D01*
X152527000Y-118676964D02*
X152527000Y-118168964D01*
X152527000Y-118314107D02*
X152563285Y-118241535D01*
X152599571Y-118205250D01*
X152672142Y-118168964D01*
X152744714Y-118168964D01*
X152926142Y-118168964D02*
X153107571Y-118676964D01*
X153289000Y-118168964D02*
X153107571Y-118676964D01*
X153035000Y-118858392D01*
X152998714Y-118894678D01*
X152926142Y-118930964D01*
X154395714Y-82640714D02*
X154032857Y-82894714D01*
X154395714Y-83076142D02*
X153633714Y-83076142D01*
X153633714Y-82785857D01*
X153670000Y-82713285D01*
X153706285Y-82677000D01*
X153778857Y-82640714D01*
X153887714Y-82640714D01*
X153960285Y-82677000D01*
X153996571Y-82713285D01*
X154032857Y-82785857D01*
X154032857Y-83076142D01*
X154395714Y-82205285D02*
X154359428Y-82277857D01*
X154323142Y-82314142D01*
X154250571Y-82350428D01*
X154032857Y-82350428D01*
X153960285Y-82314142D01*
X153924000Y-82277857D01*
X153887714Y-82205285D01*
X153887714Y-82096428D01*
X153924000Y-82023857D01*
X153960285Y-81987571D01*
X154032857Y-81951285D01*
X154250571Y-81951285D01*
X154323142Y-81987571D01*
X154359428Y-82023857D01*
X154395714Y-82096428D01*
X154395714Y-82205285D01*
X154395714Y-81624714D02*
X153633714Y-81624714D01*
X153996571Y-81624714D02*
X153996571Y-81189285D01*
X154395714Y-81189285D02*
X153633714Y-81189285D01*
X154359428Y-80862714D02*
X154395714Y-80753857D01*
X154395714Y-80572428D01*
X154359428Y-80499857D01*
X154323142Y-80463571D01*
X154250571Y-80427285D01*
X154178000Y-80427285D01*
X154105428Y-80463571D01*
X154069142Y-80499857D01*
X154032857Y-80572428D01*
X153996571Y-80717571D01*
X153960285Y-80790142D01*
X153924000Y-80826428D01*
X153851428Y-80862714D01*
X153778857Y-80862714D01*
X153706285Y-80826428D01*
X153670000Y-80790142D01*
X153633714Y-80717571D01*
X153633714Y-80536142D01*
X153670000Y-80427285D01*
X154323142Y-79084714D02*
X154359428Y-79121000D01*
X154395714Y-79229857D01*
X154395714Y-79302428D01*
X154359428Y-79411285D01*
X154286857Y-79483857D01*
X154214285Y-79520142D01*
X154069142Y-79556428D01*
X153960285Y-79556428D01*
X153815142Y-79520142D01*
X153742571Y-79483857D01*
X153670000Y-79411285D01*
X153633714Y-79302428D01*
X153633714Y-79229857D01*
X153670000Y-79121000D01*
X153706285Y-79084714D01*
X154395714Y-78649285D02*
X154359428Y-78721857D01*
X154323142Y-78758142D01*
X154250571Y-78794428D01*
X154032857Y-78794428D01*
X153960285Y-78758142D01*
X153924000Y-78721857D01*
X153887714Y-78649285D01*
X153887714Y-78540428D01*
X153924000Y-78467857D01*
X153960285Y-78431571D01*
X154032857Y-78395285D01*
X154250571Y-78395285D01*
X154323142Y-78431571D01*
X154359428Y-78467857D01*
X154395714Y-78540428D01*
X154395714Y-78649285D01*
X154395714Y-78068714D02*
X153887714Y-78068714D01*
X153960285Y-78068714D02*
X153924000Y-78032428D01*
X153887714Y-77959857D01*
X153887714Y-77851000D01*
X153924000Y-77778428D01*
X153996571Y-77742142D01*
X154395714Y-77742142D01*
X153996571Y-77742142D02*
X153924000Y-77705857D01*
X153887714Y-77633285D01*
X153887714Y-77524428D01*
X153924000Y-77451857D01*
X153996571Y-77415571D01*
X154395714Y-77415571D01*
X153887714Y-77052714D02*
X154649714Y-77052714D01*
X153924000Y-77052714D02*
X153887714Y-76980142D01*
X153887714Y-76835000D01*
X153924000Y-76762428D01*
X153960285Y-76726142D01*
X154032857Y-76689857D01*
X154250571Y-76689857D01*
X154323142Y-76726142D01*
X154359428Y-76762428D01*
X154395714Y-76835000D01*
X154395714Y-76980142D01*
X154359428Y-77052714D01*
X154395714Y-76254428D02*
X154359428Y-76327000D01*
X154286857Y-76363285D01*
X153633714Y-76363285D01*
X154395714Y-75964142D02*
X153887714Y-75964142D01*
X153633714Y-75964142D02*
X153670000Y-76000428D01*
X153706285Y-75964142D01*
X153670000Y-75927857D01*
X153633714Y-75964142D01*
X153706285Y-75964142D01*
X154395714Y-75274714D02*
X153996571Y-75274714D01*
X153924000Y-75311000D01*
X153887714Y-75383571D01*
X153887714Y-75528714D01*
X153924000Y-75601285D01*
X154359428Y-75274714D02*
X154395714Y-75347285D01*
X154395714Y-75528714D01*
X154359428Y-75601285D01*
X154286857Y-75637571D01*
X154214285Y-75637571D01*
X154141714Y-75601285D01*
X154105428Y-75528714D01*
X154105428Y-75347285D01*
X154069142Y-75274714D01*
X153887714Y-74911857D02*
X154395714Y-74911857D01*
X153960285Y-74911857D02*
X153924000Y-74875571D01*
X153887714Y-74803000D01*
X153887714Y-74694142D01*
X153924000Y-74621571D01*
X153996571Y-74585285D01*
X154395714Y-74585285D01*
X153887714Y-74331285D02*
X153887714Y-74041000D01*
X153633714Y-74222428D02*
X154286857Y-74222428D01*
X154359428Y-74186142D01*
X154395714Y-74113571D01*
X154395714Y-74041000D01*
X154395714Y-89480571D02*
X153633714Y-89480571D01*
X153633714Y-89190285D01*
X153670000Y-89117714D01*
X153706285Y-89081428D01*
X153778857Y-89045142D01*
X153887714Y-89045142D01*
X153960285Y-89081428D01*
X153996571Y-89117714D01*
X154032857Y-89190285D01*
X154032857Y-89480571D01*
X154395714Y-88718571D02*
X153633714Y-88718571D01*
X153924000Y-88718571D02*
X153887714Y-88646000D01*
X153887714Y-88500857D01*
X153924000Y-88428285D01*
X153960285Y-88392000D01*
X154032857Y-88355714D01*
X154250571Y-88355714D01*
X154323142Y-88392000D01*
X154359428Y-88428285D01*
X154395714Y-88500857D01*
X154395714Y-88646000D01*
X154359428Y-88718571D01*
X154105428Y-88029142D02*
X154105428Y-87448571D01*
X153996571Y-86831714D02*
X153996571Y-87085714D01*
X154395714Y-87085714D02*
X153633714Y-87085714D01*
X153633714Y-86722857D01*
X154395714Y-86432571D02*
X153887714Y-86432571D01*
X154032857Y-86432571D02*
X153960285Y-86396285D01*
X153924000Y-86360000D01*
X153887714Y-86287428D01*
X153887714Y-86214857D01*
X154359428Y-85670571D02*
X154395714Y-85743142D01*
X154395714Y-85888285D01*
X154359428Y-85960857D01*
X154286857Y-85997142D01*
X153996571Y-85997142D01*
X153924000Y-85960857D01*
X153887714Y-85888285D01*
X153887714Y-85743142D01*
X153924000Y-85670571D01*
X153996571Y-85634285D01*
X154069142Y-85634285D01*
X154141714Y-85997142D01*
X154359428Y-85017428D02*
X154395714Y-85090000D01*
X154395714Y-85235142D01*
X154359428Y-85307714D01*
X154286857Y-85344000D01*
X153996571Y-85344000D01*
X153924000Y-85307714D01*
X153887714Y-85235142D01*
X153887714Y-85090000D01*
X153924000Y-85017428D01*
X153996571Y-84981142D01*
X154069142Y-84981142D01*
X154141714Y-85344000D01*
D11*
X153597428Y-93647380D02*
X153597428Y-93308714D01*
X154129619Y-93163571D02*
X154129619Y-93647380D01*
X153113619Y-93647380D01*
X153113619Y-93163571D01*
X153113619Y-92824904D02*
X154129619Y-92147571D01*
X153113619Y-92147571D02*
X154129619Y-92824904D01*
X153113619Y-91905666D02*
X153113619Y-91325095D01*
X154129619Y-91615380D02*
X153113619Y-91615380D01*
X153210380Y-91034809D02*
X153162000Y-90986428D01*
X153113619Y-90889666D01*
X153113619Y-90647761D01*
X153162000Y-90551000D01*
X153210380Y-90502619D01*
X153307142Y-90454238D01*
X153403904Y-90454238D01*
X153549047Y-90502619D01*
X154129619Y-91083190D01*
X154129619Y-90454238D01*
X133277428Y-93647380D02*
X133277428Y-93308714D01*
X133809619Y-93163571D02*
X133809619Y-93647380D01*
X132793619Y-93647380D01*
X132793619Y-93163571D01*
X132793619Y-92824904D02*
X133809619Y-92147571D01*
X132793619Y-92147571D02*
X133809619Y-92824904D01*
X132793619Y-91905666D02*
X132793619Y-91325095D01*
X133809619Y-91615380D02*
X132793619Y-91615380D01*
X133809619Y-90454238D02*
X133809619Y-91034809D01*
X133809619Y-90744523D02*
X132793619Y-90744523D01*
X132938761Y-90841285D01*
X133035523Y-90938047D01*
X133083904Y-91034809D01*
D12*
X154044952Y-72517000D02*
X153996571Y-72492809D01*
X153924000Y-72492809D01*
X153851428Y-72517000D01*
X153803047Y-72565380D01*
X153778857Y-72613761D01*
X153754666Y-72710523D01*
X153754666Y-72783095D01*
X153778857Y-72879857D01*
X153803047Y-72928238D01*
X153851428Y-72976619D01*
X153924000Y-73000809D01*
X153972380Y-73000809D01*
X154044952Y-72976619D01*
X154069142Y-72952428D01*
X154069142Y-72783095D01*
X153972380Y-72783095D01*
X154286857Y-73000809D02*
X154286857Y-72492809D01*
X154577142Y-73000809D01*
X154577142Y-72492809D01*
X154819047Y-73000809D02*
X154819047Y-72492809D01*
X154940000Y-72492809D01*
X155012571Y-72517000D01*
X155060952Y-72565380D01*
X155085142Y-72613761D01*
X155109333Y-72710523D01*
X155109333Y-72783095D01*
X155085142Y-72879857D01*
X155060952Y-72928238D01*
X155012571Y-72976619D01*
X154940000Y-73000809D01*
X154819047Y-73000809D01*
X154637619Y-118859904D02*
X155290761Y-119295333D01*
X155121428Y-118400285D02*
X155145619Y-118424476D01*
X155169809Y-118497047D01*
X155169809Y-118545428D01*
X155145619Y-118618000D01*
X155097238Y-118666380D01*
X155048857Y-118690571D01*
X154952095Y-118714761D01*
X154879523Y-118714761D01*
X154782761Y-118690571D01*
X154734380Y-118666380D01*
X154686000Y-118618000D01*
X154661809Y-118545428D01*
X154661809Y-118497047D01*
X154686000Y-118424476D01*
X154710190Y-118400285D01*
X155169809Y-117940666D02*
X155169809Y-118182571D01*
X154661809Y-118182571D01*
X155169809Y-117771333D02*
X154661809Y-117771333D01*
X155169809Y-117481047D02*
X154879523Y-117698761D01*
X154661809Y-117481047D02*
X154952095Y-117771333D01*
X153670000Y-118732904D02*
X153645809Y-118781285D01*
X153645809Y-118853857D01*
X153670000Y-118926428D01*
X153718380Y-118974809D01*
X153766761Y-118999000D01*
X153863523Y-119023190D01*
X153936095Y-119023190D01*
X154032857Y-118999000D01*
X154081238Y-118974809D01*
X154129619Y-118926428D01*
X154153809Y-118853857D01*
X154153809Y-118805476D01*
X154129619Y-118732904D01*
X154105428Y-118708714D01*
X153936095Y-118708714D01*
X153936095Y-118805476D01*
X154153809Y-118491000D02*
X153645809Y-118491000D01*
X153645809Y-118297476D01*
X153670000Y-118249095D01*
X153694190Y-118224904D01*
X153742571Y-118200714D01*
X153815142Y-118200714D01*
X153863523Y-118224904D01*
X153887714Y-118249095D01*
X153911904Y-118297476D01*
X153911904Y-118491000D01*
X154153809Y-117983000D02*
X153645809Y-117983000D01*
X153645809Y-117644333D02*
X153645809Y-117547571D01*
X153670000Y-117499190D01*
X153718380Y-117450809D01*
X153815142Y-117426619D01*
X153984476Y-117426619D01*
X154081238Y-117450809D01*
X154129619Y-117499190D01*
X154153809Y-117547571D01*
X154153809Y-117644333D01*
X154129619Y-117692714D01*
X154081238Y-117741095D01*
X153984476Y-117765285D01*
X153815142Y-117765285D01*
X153718380Y-117741095D01*
X153670000Y-117692714D01*
X153645809Y-117644333D01*
X153645809Y-116991190D02*
X153645809Y-117087952D01*
X153670000Y-117136333D01*
X153694190Y-117160523D01*
X153766761Y-117208904D01*
X153863523Y-117233095D01*
X154057047Y-117233095D01*
X154105428Y-117208904D01*
X154129619Y-117184714D01*
X154153809Y-117136333D01*
X154153809Y-117039571D01*
X154129619Y-116991190D01*
X154105428Y-116967000D01*
X154057047Y-116942809D01*
X153936095Y-116942809D01*
X153887714Y-116967000D01*
X153863523Y-116991190D01*
X153839333Y-117039571D01*
X153839333Y-117136333D01*
X153863523Y-117184714D01*
X153887714Y-117208904D01*
X153936095Y-117233095D01*
X155206095Y-116586000D02*
X155157714Y-116561809D01*
X155085142Y-116561809D01*
X155012571Y-116586000D01*
X154964190Y-116634380D01*
X154940000Y-116682761D01*
X154915809Y-116779523D01*
X154915809Y-116852095D01*
X154940000Y-116948857D01*
X154964190Y-116997238D01*
X155012571Y-117045619D01*
X155085142Y-117069809D01*
X155133523Y-117069809D01*
X155206095Y-117045619D01*
X155230285Y-117021428D01*
X155230285Y-116852095D01*
X155133523Y-116852095D01*
X155448000Y-117069809D02*
X155448000Y-116561809D01*
X155641523Y-116561809D01*
X155689904Y-116586000D01*
X155714095Y-116610190D01*
X155738285Y-116658571D01*
X155738285Y-116731142D01*
X155714095Y-116779523D01*
X155689904Y-116803714D01*
X155641523Y-116827904D01*
X155448000Y-116827904D01*
X155956000Y-117069809D02*
X155956000Y-116561809D01*
X156294666Y-116561809D02*
X156391428Y-116561809D01*
X156439809Y-116586000D01*
X156488190Y-116634380D01*
X156512380Y-116731142D01*
X156512380Y-116900476D01*
X156488190Y-116997238D01*
X156439809Y-117045619D01*
X156391428Y-117069809D01*
X156294666Y-117069809D01*
X156246285Y-117045619D01*
X156197904Y-116997238D01*
X156173714Y-116900476D01*
X156173714Y-116731142D01*
X156197904Y-116634380D01*
X156246285Y-116586000D01*
X156294666Y-116561809D01*
X156681714Y-116561809D02*
X157020380Y-116561809D01*
X156802666Y-117069809D01*
X154637619Y-115848190D02*
X155290761Y-116283619D01*
X155169809Y-115678857D02*
X154661809Y-115678857D01*
X154661809Y-115557904D01*
X154686000Y-115485333D01*
X154734380Y-115436952D01*
X154782761Y-115412761D01*
X154879523Y-115388571D01*
X154952095Y-115388571D01*
X155048857Y-115412761D01*
X155097238Y-115436952D01*
X155145619Y-115485333D01*
X155169809Y-115557904D01*
X155169809Y-115678857D01*
X154661809Y-115074095D02*
X154661809Y-115025714D01*
X154686000Y-114977333D01*
X154710190Y-114953142D01*
X154758571Y-114928952D01*
X154855333Y-114904761D01*
X154976285Y-114904761D01*
X155073047Y-114928952D01*
X155121428Y-114953142D01*
X155145619Y-114977333D01*
X155169809Y-115025714D01*
X155169809Y-115074095D01*
X155145619Y-115122476D01*
X155121428Y-115146666D01*
X155073047Y-115170857D01*
X154976285Y-115195047D01*
X154855333Y-115195047D01*
X154758571Y-115170857D01*
X154710190Y-115146666D01*
X154686000Y-115122476D01*
X154661809Y-115074095D01*
X154637619Y-113308190D02*
X155290761Y-113743619D01*
X155169809Y-113138857D02*
X154661809Y-113138857D01*
X154661809Y-113017904D01*
X154686000Y-112945333D01*
X154734380Y-112896952D01*
X154782761Y-112872761D01*
X154879523Y-112848571D01*
X154952095Y-112848571D01*
X155048857Y-112872761D01*
X155097238Y-112896952D01*
X155145619Y-112945333D01*
X155169809Y-113017904D01*
X155169809Y-113138857D01*
X155169809Y-112364761D02*
X155169809Y-112655047D01*
X155169809Y-112509904D02*
X154661809Y-112509904D01*
X154734380Y-112558285D01*
X154782761Y-112606666D01*
X154806952Y-112655047D01*
X155206095Y-114046000D02*
X155157714Y-114021809D01*
X155085142Y-114021809D01*
X155012571Y-114046000D01*
X154964190Y-114094380D01*
X154940000Y-114142761D01*
X154915809Y-114239523D01*
X154915809Y-114312095D01*
X154940000Y-114408857D01*
X154964190Y-114457238D01*
X155012571Y-114505619D01*
X155085142Y-114529809D01*
X155133523Y-114529809D01*
X155206095Y-114505619D01*
X155230285Y-114481428D01*
X155230285Y-114312095D01*
X155133523Y-114312095D01*
X155448000Y-114529809D02*
X155448000Y-114021809D01*
X155641523Y-114021809D01*
X155689904Y-114046000D01*
X155714095Y-114070190D01*
X155738285Y-114118571D01*
X155738285Y-114191142D01*
X155714095Y-114239523D01*
X155689904Y-114263714D01*
X155641523Y-114287904D01*
X155448000Y-114287904D01*
X155956000Y-114529809D02*
X155956000Y-114021809D01*
X156294666Y-114021809D02*
X156391428Y-114021809D01*
X156439809Y-114046000D01*
X156488190Y-114094380D01*
X156512380Y-114191142D01*
X156512380Y-114360476D01*
X156488190Y-114457238D01*
X156439809Y-114505619D01*
X156391428Y-114529809D01*
X156294666Y-114529809D01*
X156246285Y-114505619D01*
X156197904Y-114457238D01*
X156173714Y-114360476D01*
X156173714Y-114191142D01*
X156197904Y-114094380D01*
X156246285Y-114046000D01*
X156294666Y-114021809D01*
X156802666Y-114239523D02*
X156754285Y-114215333D01*
X156730095Y-114191142D01*
X156705904Y-114142761D01*
X156705904Y-114118571D01*
X156730095Y-114070190D01*
X156754285Y-114046000D01*
X156802666Y-114021809D01*
X156899428Y-114021809D01*
X156947809Y-114046000D01*
X156972000Y-114070190D01*
X156996190Y-114118571D01*
X156996190Y-114142761D01*
X156972000Y-114191142D01*
X156947809Y-114215333D01*
X156899428Y-114239523D01*
X156802666Y-114239523D01*
X156754285Y-114263714D01*
X156730095Y-114287904D01*
X156705904Y-114336285D01*
X156705904Y-114433047D01*
X156730095Y-114481428D01*
X156754285Y-114505619D01*
X156802666Y-114529809D01*
X156899428Y-114529809D01*
X156947809Y-114505619D01*
X156972000Y-114481428D01*
X156996190Y-114433047D01*
X156996190Y-114336285D01*
X156972000Y-114287904D01*
X156947809Y-114263714D01*
X156899428Y-114239523D01*
X154964190Y-111506000D02*
X154915809Y-111481809D01*
X154843238Y-111481809D01*
X154770666Y-111506000D01*
X154722285Y-111554380D01*
X154698095Y-111602761D01*
X154673904Y-111699523D01*
X154673904Y-111772095D01*
X154698095Y-111868857D01*
X154722285Y-111917238D01*
X154770666Y-111965619D01*
X154843238Y-111989809D01*
X154891619Y-111989809D01*
X154964190Y-111965619D01*
X154988380Y-111941428D01*
X154988380Y-111772095D01*
X154891619Y-111772095D01*
X155206095Y-111989809D02*
X155206095Y-111481809D01*
X155399619Y-111481809D01*
X155448000Y-111506000D01*
X155472190Y-111530190D01*
X155496380Y-111578571D01*
X155496380Y-111651142D01*
X155472190Y-111699523D01*
X155448000Y-111723714D01*
X155399619Y-111747904D01*
X155206095Y-111747904D01*
X155714095Y-111989809D02*
X155714095Y-111481809D01*
X156052761Y-111481809D02*
X156149523Y-111481809D01*
X156197904Y-111506000D01*
X156246285Y-111554380D01*
X156270476Y-111651142D01*
X156270476Y-111820476D01*
X156246285Y-111917238D01*
X156197904Y-111965619D01*
X156149523Y-111989809D01*
X156052761Y-111989809D01*
X156004380Y-111965619D01*
X155956000Y-111917238D01*
X155931809Y-111820476D01*
X155931809Y-111651142D01*
X155956000Y-111554380D01*
X156004380Y-111506000D01*
X156052761Y-111481809D01*
X156754285Y-111989809D02*
X156464000Y-111989809D01*
X156609142Y-111989809D02*
X156609142Y-111481809D01*
X156560761Y-111554380D01*
X156512380Y-111602761D01*
X156464000Y-111626952D01*
X157213904Y-111481809D02*
X156972000Y-111481809D01*
X156947809Y-111723714D01*
X156972000Y-111699523D01*
X157020380Y-111675333D01*
X157141333Y-111675333D01*
X157189714Y-111699523D01*
X157213904Y-111723714D01*
X157238095Y-111772095D01*
X157238095Y-111893047D01*
X157213904Y-111941428D01*
X157189714Y-111965619D01*
X157141333Y-111989809D01*
X157020380Y-111989809D01*
X156972000Y-111965619D01*
X156947809Y-111941428D01*
X155460095Y-108966000D02*
X155411714Y-108941809D01*
X155339142Y-108941809D01*
X155266571Y-108966000D01*
X155218190Y-109014380D01*
X155194000Y-109062761D01*
X155169809Y-109159523D01*
X155169809Y-109232095D01*
X155194000Y-109328857D01*
X155218190Y-109377238D01*
X155266571Y-109425619D01*
X155339142Y-109449809D01*
X155387523Y-109449809D01*
X155460095Y-109425619D01*
X155484285Y-109401428D01*
X155484285Y-109232095D01*
X155387523Y-109232095D01*
X155702000Y-109449809D02*
X155702000Y-108941809D01*
X155895523Y-108941809D01*
X155943904Y-108966000D01*
X155968095Y-108990190D01*
X155992285Y-109038571D01*
X155992285Y-109111142D01*
X155968095Y-109159523D01*
X155943904Y-109183714D01*
X155895523Y-109207904D01*
X155702000Y-109207904D01*
X156210000Y-109449809D02*
X156210000Y-108941809D01*
X156548666Y-108941809D02*
X156645428Y-108941809D01*
X156693809Y-108966000D01*
X156742190Y-109014380D01*
X156766380Y-109111142D01*
X156766380Y-109280476D01*
X156742190Y-109377238D01*
X156693809Y-109425619D01*
X156645428Y-109449809D01*
X156548666Y-109449809D01*
X156500285Y-109425619D01*
X156451904Y-109377238D01*
X156427714Y-109280476D01*
X156427714Y-109111142D01*
X156451904Y-109014380D01*
X156500285Y-108966000D01*
X156548666Y-108941809D01*
X156959904Y-108990190D02*
X156984095Y-108966000D01*
X157032476Y-108941809D01*
X157153428Y-108941809D01*
X157201809Y-108966000D01*
X157226000Y-108990190D01*
X157250190Y-109038571D01*
X157250190Y-109086952D01*
X157226000Y-109159523D01*
X156935714Y-109449809D01*
X157250190Y-109449809D01*
X155460095Y-106426000D02*
X155411714Y-106401809D01*
X155339142Y-106401809D01*
X155266571Y-106426000D01*
X155218190Y-106474380D01*
X155194000Y-106522761D01*
X155169809Y-106619523D01*
X155169809Y-106692095D01*
X155194000Y-106788857D01*
X155218190Y-106837238D01*
X155266571Y-106885619D01*
X155339142Y-106909809D01*
X155387523Y-106909809D01*
X155460095Y-106885619D01*
X155484285Y-106861428D01*
X155484285Y-106692095D01*
X155387523Y-106692095D01*
X155702000Y-106909809D02*
X155702000Y-106401809D01*
X155895523Y-106401809D01*
X155943904Y-106426000D01*
X155968095Y-106450190D01*
X155992285Y-106498571D01*
X155992285Y-106571142D01*
X155968095Y-106619523D01*
X155943904Y-106643714D01*
X155895523Y-106667904D01*
X155702000Y-106667904D01*
X156210000Y-106909809D02*
X156210000Y-106401809D01*
X156548666Y-106401809D02*
X156645428Y-106401809D01*
X156693809Y-106426000D01*
X156742190Y-106474380D01*
X156766380Y-106571142D01*
X156766380Y-106740476D01*
X156742190Y-106837238D01*
X156693809Y-106885619D01*
X156645428Y-106909809D01*
X156548666Y-106909809D01*
X156500285Y-106885619D01*
X156451904Y-106837238D01*
X156427714Y-106740476D01*
X156427714Y-106571142D01*
X156451904Y-106474380D01*
X156500285Y-106426000D01*
X156548666Y-106401809D01*
X157080857Y-106401809D02*
X157129238Y-106401809D01*
X157177619Y-106426000D01*
X157201809Y-106450190D01*
X157226000Y-106498571D01*
X157250190Y-106595333D01*
X157250190Y-106716285D01*
X157226000Y-106813047D01*
X157201809Y-106861428D01*
X157177619Y-106885619D01*
X157129238Y-106909809D01*
X157080857Y-106909809D01*
X157032476Y-106885619D01*
X157008285Y-106861428D01*
X156984095Y-106813047D01*
X156959904Y-106716285D01*
X156959904Y-106595333D01*
X156984095Y-106498571D01*
X157008285Y-106450190D01*
X157032476Y-106426000D01*
X157080857Y-106401809D01*
X155460095Y-103886000D02*
X155411714Y-103861809D01*
X155339142Y-103861809D01*
X155266571Y-103886000D01*
X155218190Y-103934380D01*
X155194000Y-103982761D01*
X155169809Y-104079523D01*
X155169809Y-104152095D01*
X155194000Y-104248857D01*
X155218190Y-104297238D01*
X155266571Y-104345619D01*
X155339142Y-104369809D01*
X155387523Y-104369809D01*
X155460095Y-104345619D01*
X155484285Y-104321428D01*
X155484285Y-104152095D01*
X155387523Y-104152095D01*
X155702000Y-104369809D02*
X155702000Y-103861809D01*
X155895523Y-103861809D01*
X155943904Y-103886000D01*
X155968095Y-103910190D01*
X155992285Y-103958571D01*
X155992285Y-104031142D01*
X155968095Y-104079523D01*
X155943904Y-104103714D01*
X155895523Y-104127904D01*
X155702000Y-104127904D01*
X156210000Y-104369809D02*
X156210000Y-103861809D01*
X156548666Y-103861809D02*
X156645428Y-103861809D01*
X156693809Y-103886000D01*
X156742190Y-103934380D01*
X156766380Y-104031142D01*
X156766380Y-104200476D01*
X156742190Y-104297238D01*
X156693809Y-104345619D01*
X156645428Y-104369809D01*
X156548666Y-104369809D01*
X156500285Y-104345619D01*
X156451904Y-104297238D01*
X156427714Y-104200476D01*
X156427714Y-104031142D01*
X156451904Y-103934380D01*
X156500285Y-103886000D01*
X156548666Y-103861809D01*
X157201809Y-104031142D02*
X157201809Y-104369809D01*
X157080857Y-103837619D02*
X156959904Y-104200476D01*
X157274380Y-104200476D01*
X154964190Y-101346000D02*
X154915809Y-101321809D01*
X154843238Y-101321809D01*
X154770666Y-101346000D01*
X154722285Y-101394380D01*
X154698095Y-101442761D01*
X154673904Y-101539523D01*
X154673904Y-101612095D01*
X154698095Y-101708857D01*
X154722285Y-101757238D01*
X154770666Y-101805619D01*
X154843238Y-101829809D01*
X154891619Y-101829809D01*
X154964190Y-101805619D01*
X154988380Y-101781428D01*
X154988380Y-101612095D01*
X154891619Y-101612095D01*
X155206095Y-101829809D02*
X155206095Y-101321809D01*
X155399619Y-101321809D01*
X155448000Y-101346000D01*
X155472190Y-101370190D01*
X155496380Y-101418571D01*
X155496380Y-101491142D01*
X155472190Y-101539523D01*
X155448000Y-101563714D01*
X155399619Y-101587904D01*
X155206095Y-101587904D01*
X155714095Y-101829809D02*
X155714095Y-101321809D01*
X156052761Y-101321809D02*
X156149523Y-101321809D01*
X156197904Y-101346000D01*
X156246285Y-101394380D01*
X156270476Y-101491142D01*
X156270476Y-101660476D01*
X156246285Y-101757238D01*
X156197904Y-101805619D01*
X156149523Y-101829809D01*
X156052761Y-101829809D01*
X156004380Y-101805619D01*
X155956000Y-101757238D01*
X155931809Y-101660476D01*
X155931809Y-101491142D01*
X155956000Y-101394380D01*
X156004380Y-101346000D01*
X156052761Y-101321809D01*
X156754285Y-101829809D02*
X156464000Y-101829809D01*
X156609142Y-101829809D02*
X156609142Y-101321809D01*
X156560761Y-101394380D01*
X156512380Y-101442761D01*
X156464000Y-101466952D01*
X157189714Y-101321809D02*
X157092952Y-101321809D01*
X157044571Y-101346000D01*
X157020380Y-101370190D01*
X156972000Y-101442761D01*
X156947809Y-101539523D01*
X156947809Y-101733047D01*
X156972000Y-101781428D01*
X156996190Y-101805619D01*
X157044571Y-101829809D01*
X157141333Y-101829809D01*
X157189714Y-101805619D01*
X157213904Y-101781428D01*
X157238095Y-101733047D01*
X157238095Y-101612095D01*
X157213904Y-101563714D01*
X157189714Y-101539523D01*
X157141333Y-101515333D01*
X157044571Y-101515333D01*
X156996190Y-101539523D01*
X156972000Y-101563714D01*
X156947809Y-101612095D01*
X154964190Y-98806000D02*
X154915809Y-98781809D01*
X154843238Y-98781809D01*
X154770666Y-98806000D01*
X154722285Y-98854380D01*
X154698095Y-98902761D01*
X154673904Y-98999523D01*
X154673904Y-99072095D01*
X154698095Y-99168857D01*
X154722285Y-99217238D01*
X154770666Y-99265619D01*
X154843238Y-99289809D01*
X154891619Y-99289809D01*
X154964190Y-99265619D01*
X154988380Y-99241428D01*
X154988380Y-99072095D01*
X154891619Y-99072095D01*
X155206095Y-99289809D02*
X155206095Y-98781809D01*
X155399619Y-98781809D01*
X155448000Y-98806000D01*
X155472190Y-98830190D01*
X155496380Y-98878571D01*
X155496380Y-98951142D01*
X155472190Y-98999523D01*
X155448000Y-99023714D01*
X155399619Y-99047904D01*
X155206095Y-99047904D01*
X155714095Y-99289809D02*
X155714095Y-98781809D01*
X156052761Y-98781809D02*
X156149523Y-98781809D01*
X156197904Y-98806000D01*
X156246285Y-98854380D01*
X156270476Y-98951142D01*
X156270476Y-99120476D01*
X156246285Y-99217238D01*
X156197904Y-99265619D01*
X156149523Y-99289809D01*
X156052761Y-99289809D01*
X156004380Y-99265619D01*
X155956000Y-99217238D01*
X155931809Y-99120476D01*
X155931809Y-98951142D01*
X155956000Y-98854380D01*
X156004380Y-98806000D01*
X156052761Y-98781809D01*
X156754285Y-99289809D02*
X156464000Y-99289809D01*
X156609142Y-99289809D02*
X156609142Y-98781809D01*
X156560761Y-98854380D01*
X156512380Y-98902761D01*
X156464000Y-98926952D01*
X156923619Y-98781809D02*
X157262285Y-98781809D01*
X157044571Y-99289809D01*
X155460095Y-96266000D02*
X155411714Y-96241809D01*
X155339142Y-96241809D01*
X155266571Y-96266000D01*
X155218190Y-96314380D01*
X155194000Y-96362761D01*
X155169809Y-96459523D01*
X155169809Y-96532095D01*
X155194000Y-96628857D01*
X155218190Y-96677238D01*
X155266571Y-96725619D01*
X155339142Y-96749809D01*
X155387523Y-96749809D01*
X155460095Y-96725619D01*
X155484285Y-96701428D01*
X155484285Y-96532095D01*
X155387523Y-96532095D01*
X155702000Y-96749809D02*
X155702000Y-96241809D01*
X155895523Y-96241809D01*
X155943904Y-96266000D01*
X155968095Y-96290190D01*
X155992285Y-96338571D01*
X155992285Y-96411142D01*
X155968095Y-96459523D01*
X155943904Y-96483714D01*
X155895523Y-96507904D01*
X155702000Y-96507904D01*
X156210000Y-96749809D02*
X156210000Y-96241809D01*
X156548666Y-96241809D02*
X156645428Y-96241809D01*
X156693809Y-96266000D01*
X156742190Y-96314380D01*
X156766380Y-96411142D01*
X156766380Y-96580476D01*
X156742190Y-96677238D01*
X156693809Y-96725619D01*
X156645428Y-96749809D01*
X156548666Y-96749809D01*
X156500285Y-96725619D01*
X156451904Y-96677238D01*
X156427714Y-96580476D01*
X156427714Y-96411142D01*
X156451904Y-96314380D01*
X156500285Y-96266000D01*
X156548666Y-96241809D01*
X157226000Y-96241809D02*
X156984095Y-96241809D01*
X156959904Y-96483714D01*
X156984095Y-96459523D01*
X157032476Y-96435333D01*
X157153428Y-96435333D01*
X157201809Y-96459523D01*
X157226000Y-96483714D01*
X157250190Y-96532095D01*
X157250190Y-96653047D01*
X157226000Y-96701428D01*
X157201809Y-96725619D01*
X157153428Y-96749809D01*
X157032476Y-96749809D01*
X156984095Y-96725619D01*
X156959904Y-96701428D01*
X154964190Y-93726000D02*
X154915809Y-93701809D01*
X154843238Y-93701809D01*
X154770666Y-93726000D01*
X154722285Y-93774380D01*
X154698095Y-93822761D01*
X154673904Y-93919523D01*
X154673904Y-93992095D01*
X154698095Y-94088857D01*
X154722285Y-94137238D01*
X154770666Y-94185619D01*
X154843238Y-94209809D01*
X154891619Y-94209809D01*
X154964190Y-94185619D01*
X154988380Y-94161428D01*
X154988380Y-93992095D01*
X154891619Y-93992095D01*
X155206095Y-94209809D02*
X155206095Y-93701809D01*
X155399619Y-93701809D01*
X155448000Y-93726000D01*
X155472190Y-93750190D01*
X155496380Y-93798571D01*
X155496380Y-93871142D01*
X155472190Y-93919523D01*
X155448000Y-93943714D01*
X155399619Y-93967904D01*
X155206095Y-93967904D01*
X155714095Y-94209809D02*
X155714095Y-93701809D01*
X156052761Y-93701809D02*
X156149523Y-93701809D01*
X156197904Y-93726000D01*
X156246285Y-93774380D01*
X156270476Y-93871142D01*
X156270476Y-94040476D01*
X156246285Y-94137238D01*
X156197904Y-94185619D01*
X156149523Y-94209809D01*
X156052761Y-94209809D01*
X156004380Y-94185619D01*
X155956000Y-94137238D01*
X155931809Y-94040476D01*
X155931809Y-93871142D01*
X155956000Y-93774380D01*
X156004380Y-93726000D01*
X156052761Y-93701809D01*
X156754285Y-94209809D02*
X156464000Y-94209809D01*
X156609142Y-94209809D02*
X156609142Y-93701809D01*
X156560761Y-93774380D01*
X156512380Y-93822761D01*
X156464000Y-93846952D01*
X157044571Y-93919523D02*
X156996190Y-93895333D01*
X156972000Y-93871142D01*
X156947809Y-93822761D01*
X156947809Y-93798571D01*
X156972000Y-93750190D01*
X156996190Y-93726000D01*
X157044571Y-93701809D01*
X157141333Y-93701809D01*
X157189714Y-93726000D01*
X157213904Y-93750190D01*
X157238095Y-93798571D01*
X157238095Y-93822761D01*
X157213904Y-93871142D01*
X157189714Y-93895333D01*
X157141333Y-93919523D01*
X157044571Y-93919523D01*
X156996190Y-93943714D01*
X156972000Y-93967904D01*
X156947809Y-94016285D01*
X156947809Y-94113047D01*
X156972000Y-94161428D01*
X156996190Y-94185619D01*
X157044571Y-94209809D01*
X157141333Y-94209809D01*
X157189714Y-94185619D01*
X157213904Y-94161428D01*
X157238095Y-94113047D01*
X157238095Y-94016285D01*
X157213904Y-93967904D01*
X157189714Y-93943714D01*
X157141333Y-93919523D01*
X154964190Y-91186000D02*
X154915809Y-91161809D01*
X154843238Y-91161809D01*
X154770666Y-91186000D01*
X154722285Y-91234380D01*
X154698095Y-91282761D01*
X154673904Y-91379523D01*
X154673904Y-91452095D01*
X154698095Y-91548857D01*
X154722285Y-91597238D01*
X154770666Y-91645619D01*
X154843238Y-91669809D01*
X154891619Y-91669809D01*
X154964190Y-91645619D01*
X154988380Y-91621428D01*
X154988380Y-91452095D01*
X154891619Y-91452095D01*
X155206095Y-91669809D02*
X155206095Y-91161809D01*
X155399619Y-91161809D01*
X155448000Y-91186000D01*
X155472190Y-91210190D01*
X155496380Y-91258571D01*
X155496380Y-91331142D01*
X155472190Y-91379523D01*
X155448000Y-91403714D01*
X155399619Y-91427904D01*
X155206095Y-91427904D01*
X155714095Y-91669809D02*
X155714095Y-91161809D01*
X156052761Y-91161809D02*
X156149523Y-91161809D01*
X156197904Y-91186000D01*
X156246285Y-91234380D01*
X156270476Y-91331142D01*
X156270476Y-91500476D01*
X156246285Y-91597238D01*
X156197904Y-91645619D01*
X156149523Y-91669809D01*
X156052761Y-91669809D01*
X156004380Y-91645619D01*
X155956000Y-91597238D01*
X155931809Y-91500476D01*
X155931809Y-91331142D01*
X155956000Y-91234380D01*
X156004380Y-91186000D01*
X156052761Y-91161809D01*
X156754285Y-91669809D02*
X156464000Y-91669809D01*
X156609142Y-91669809D02*
X156609142Y-91161809D01*
X156560761Y-91234380D01*
X156512380Y-91282761D01*
X156464000Y-91306952D01*
X156996190Y-91669809D02*
X157092952Y-91669809D01*
X157141333Y-91645619D01*
X157165523Y-91621428D01*
X157213904Y-91548857D01*
X157238095Y-91452095D01*
X157238095Y-91258571D01*
X157213904Y-91210190D01*
X157189714Y-91186000D01*
X157141333Y-91161809D01*
X157044571Y-91161809D01*
X156996190Y-91186000D01*
X156972000Y-91210190D01*
X156947809Y-91258571D01*
X156947809Y-91379523D01*
X156972000Y-91427904D01*
X156996190Y-91452095D01*
X157044571Y-91476285D01*
X157141333Y-91476285D01*
X157189714Y-91452095D01*
X157213904Y-91427904D01*
X157238095Y-91379523D01*
X155822952Y-88646000D02*
X155774571Y-88621809D01*
X155702000Y-88621809D01*
X155629428Y-88646000D01*
X155581047Y-88694380D01*
X155556857Y-88742761D01*
X155532666Y-88839523D01*
X155532666Y-88912095D01*
X155556857Y-89008857D01*
X155581047Y-89057238D01*
X155629428Y-89105619D01*
X155702000Y-89129809D01*
X155750380Y-89129809D01*
X155822952Y-89105619D01*
X155847142Y-89081428D01*
X155847142Y-88912095D01*
X155750380Y-88912095D01*
X156064857Y-89129809D02*
X156064857Y-88621809D01*
X156355142Y-89129809D01*
X156355142Y-88621809D01*
X156597047Y-89129809D02*
X156597047Y-88621809D01*
X156718000Y-88621809D01*
X156790571Y-88646000D01*
X156838952Y-88694380D01*
X156863142Y-88742761D01*
X156887333Y-88839523D01*
X156887333Y-88912095D01*
X156863142Y-89008857D01*
X156838952Y-89057238D01*
X156790571Y-89105619D01*
X156718000Y-89129809D01*
X156597047Y-89129809D01*
X154964190Y-86106000D02*
X154915809Y-86081809D01*
X154843238Y-86081809D01*
X154770666Y-86106000D01*
X154722285Y-86154380D01*
X154698095Y-86202761D01*
X154673904Y-86299523D01*
X154673904Y-86372095D01*
X154698095Y-86468857D01*
X154722285Y-86517238D01*
X154770666Y-86565619D01*
X154843238Y-86589809D01*
X154891619Y-86589809D01*
X154964190Y-86565619D01*
X154988380Y-86541428D01*
X154988380Y-86372095D01*
X154891619Y-86372095D01*
X155206095Y-86589809D02*
X155206095Y-86081809D01*
X155399619Y-86081809D01*
X155448000Y-86106000D01*
X155472190Y-86130190D01*
X155496380Y-86178571D01*
X155496380Y-86251142D01*
X155472190Y-86299523D01*
X155448000Y-86323714D01*
X155399619Y-86347904D01*
X155206095Y-86347904D01*
X155714095Y-86589809D02*
X155714095Y-86081809D01*
X156052761Y-86081809D02*
X156149523Y-86081809D01*
X156197904Y-86106000D01*
X156246285Y-86154380D01*
X156270476Y-86251142D01*
X156270476Y-86420476D01*
X156246285Y-86517238D01*
X156197904Y-86565619D01*
X156149523Y-86589809D01*
X156052761Y-86589809D01*
X156004380Y-86565619D01*
X155956000Y-86517238D01*
X155931809Y-86420476D01*
X155931809Y-86251142D01*
X155956000Y-86154380D01*
X156004380Y-86106000D01*
X156052761Y-86081809D01*
X156464000Y-86130190D02*
X156488190Y-86106000D01*
X156536571Y-86081809D01*
X156657523Y-86081809D01*
X156705904Y-86106000D01*
X156730095Y-86130190D01*
X156754285Y-86178571D01*
X156754285Y-86226952D01*
X156730095Y-86299523D01*
X156439809Y-86589809D01*
X156754285Y-86589809D01*
X157238095Y-86589809D02*
X156947809Y-86589809D01*
X157092952Y-86589809D02*
X157092952Y-86081809D01*
X157044571Y-86154380D01*
X156996190Y-86202761D01*
X156947809Y-86226952D01*
X155460095Y-83591400D02*
X155411714Y-83567209D01*
X155339142Y-83567209D01*
X155266571Y-83591400D01*
X155218190Y-83639780D01*
X155194000Y-83688161D01*
X155169809Y-83784923D01*
X155169809Y-83857495D01*
X155194000Y-83954257D01*
X155218190Y-84002638D01*
X155266571Y-84051019D01*
X155339142Y-84075209D01*
X155387523Y-84075209D01*
X155460095Y-84051019D01*
X155484285Y-84026828D01*
X155484285Y-83857495D01*
X155387523Y-83857495D01*
X155702000Y-84075209D02*
X155702000Y-83567209D01*
X155895523Y-83567209D01*
X155943904Y-83591400D01*
X155968095Y-83615590D01*
X155992285Y-83663971D01*
X155992285Y-83736542D01*
X155968095Y-83784923D01*
X155943904Y-83809114D01*
X155895523Y-83833304D01*
X155702000Y-83833304D01*
X156210000Y-84075209D02*
X156210000Y-83567209D01*
X156548666Y-83567209D02*
X156645428Y-83567209D01*
X156693809Y-83591400D01*
X156742190Y-83639780D01*
X156766380Y-83736542D01*
X156766380Y-83905876D01*
X156742190Y-84002638D01*
X156693809Y-84051019D01*
X156645428Y-84075209D01*
X156548666Y-84075209D01*
X156500285Y-84051019D01*
X156451904Y-84002638D01*
X156427714Y-83905876D01*
X156427714Y-83736542D01*
X156451904Y-83639780D01*
X156500285Y-83591400D01*
X156548666Y-83567209D01*
X156935714Y-83567209D02*
X157250190Y-83567209D01*
X157080857Y-83760733D01*
X157153428Y-83760733D01*
X157201809Y-83784923D01*
X157226000Y-83809114D01*
X157250190Y-83857495D01*
X157250190Y-83978447D01*
X157226000Y-84026828D01*
X157201809Y-84051019D01*
X157153428Y-84075209D01*
X157008285Y-84075209D01*
X156959904Y-84051019D01*
X156935714Y-84026828D01*
X155460095Y-81051400D02*
X155411714Y-81027209D01*
X155339142Y-81027209D01*
X155266571Y-81051400D01*
X155218190Y-81099780D01*
X155194000Y-81148161D01*
X155169809Y-81244923D01*
X155169809Y-81317495D01*
X155194000Y-81414257D01*
X155218190Y-81462638D01*
X155266571Y-81511019D01*
X155339142Y-81535209D01*
X155387523Y-81535209D01*
X155460095Y-81511019D01*
X155484285Y-81486828D01*
X155484285Y-81317495D01*
X155387523Y-81317495D01*
X155702000Y-81535209D02*
X155702000Y-81027209D01*
X155895523Y-81027209D01*
X155943904Y-81051400D01*
X155968095Y-81075590D01*
X155992285Y-81123971D01*
X155992285Y-81196542D01*
X155968095Y-81244923D01*
X155943904Y-81269114D01*
X155895523Y-81293304D01*
X155702000Y-81293304D01*
X156210000Y-81535209D02*
X156210000Y-81027209D01*
X156548666Y-81027209D02*
X156645428Y-81027209D01*
X156693809Y-81051400D01*
X156742190Y-81099780D01*
X156766380Y-81196542D01*
X156766380Y-81365876D01*
X156742190Y-81462638D01*
X156693809Y-81511019D01*
X156645428Y-81535209D01*
X156548666Y-81535209D01*
X156500285Y-81511019D01*
X156451904Y-81462638D01*
X156427714Y-81365876D01*
X156427714Y-81196542D01*
X156451904Y-81099780D01*
X156500285Y-81051400D01*
X156548666Y-81027209D01*
X157250190Y-81535209D02*
X156959904Y-81535209D01*
X157105047Y-81535209D02*
X157105047Y-81027209D01*
X157056666Y-81099780D01*
X157008285Y-81148161D01*
X156959904Y-81172352D01*
X155169809Y-82852380D02*
X154927904Y-83021714D01*
X155169809Y-83142666D02*
X154661809Y-83142666D01*
X154661809Y-82949142D01*
X154686000Y-82900761D01*
X154710190Y-82876571D01*
X154758571Y-82852380D01*
X154831142Y-82852380D01*
X154879523Y-82876571D01*
X154903714Y-82900761D01*
X154927904Y-82949142D01*
X154927904Y-83142666D01*
X155169809Y-82683047D02*
X154831142Y-82416952D01*
X154831142Y-82683047D02*
X155169809Y-82416952D01*
X155169809Y-82223428D02*
X154661809Y-82223428D01*
X154661809Y-82102476D01*
X154686000Y-82029904D01*
X154734380Y-81981523D01*
X154782761Y-81957333D01*
X154879523Y-81933142D01*
X154952095Y-81933142D01*
X155048857Y-81957333D01*
X155097238Y-81981523D01*
X155145619Y-82029904D01*
X155169809Y-82102476D01*
X155169809Y-82223428D01*
X154636409Y-80614761D02*
X154636409Y-80324476D01*
X155144409Y-80469619D02*
X154636409Y-80469619D01*
X155144409Y-80203523D02*
X154805742Y-79937428D01*
X154805742Y-80203523D02*
X155144409Y-79937428D01*
X155144409Y-79743904D02*
X154636409Y-79743904D01*
X154636409Y-79622952D01*
X154660600Y-79550380D01*
X154708980Y-79502000D01*
X154757361Y-79477809D01*
X154854123Y-79453619D01*
X154926695Y-79453619D01*
X155023457Y-79477809D01*
X155071838Y-79502000D01*
X155120219Y-79550380D01*
X155144409Y-79622952D01*
X155144409Y-79743904D01*
X154964190Y-78511400D02*
X154915809Y-78487209D01*
X154843238Y-78487209D01*
X154770666Y-78511400D01*
X154722285Y-78559780D01*
X154698095Y-78608161D01*
X154673904Y-78704923D01*
X154673904Y-78777495D01*
X154698095Y-78874257D01*
X154722285Y-78922638D01*
X154770666Y-78971019D01*
X154843238Y-78995209D01*
X154891619Y-78995209D01*
X154964190Y-78971019D01*
X154988380Y-78946828D01*
X154988380Y-78777495D01*
X154891619Y-78777495D01*
X155206095Y-78995209D02*
X155206095Y-78487209D01*
X155399619Y-78487209D01*
X155448000Y-78511400D01*
X155472190Y-78535590D01*
X155496380Y-78583971D01*
X155496380Y-78656542D01*
X155472190Y-78704923D01*
X155448000Y-78729114D01*
X155399619Y-78753304D01*
X155206095Y-78753304D01*
X155714095Y-78995209D02*
X155714095Y-78487209D01*
X156052761Y-78487209D02*
X156149523Y-78487209D01*
X156197904Y-78511400D01*
X156246285Y-78559780D01*
X156270476Y-78656542D01*
X156270476Y-78825876D01*
X156246285Y-78922638D01*
X156197904Y-78971019D01*
X156149523Y-78995209D01*
X156052761Y-78995209D01*
X156004380Y-78971019D01*
X155956000Y-78922638D01*
X155931809Y-78825876D01*
X155931809Y-78656542D01*
X155956000Y-78559780D01*
X156004380Y-78511400D01*
X156052761Y-78487209D01*
X156464000Y-78535590D02*
X156488190Y-78511400D01*
X156536571Y-78487209D01*
X156657523Y-78487209D01*
X156705904Y-78511400D01*
X156730095Y-78535590D01*
X156754285Y-78583971D01*
X156754285Y-78632352D01*
X156730095Y-78704923D01*
X156439809Y-78995209D01*
X156754285Y-78995209D01*
X156947809Y-78535590D02*
X156972000Y-78511400D01*
X157020380Y-78487209D01*
X157141333Y-78487209D01*
X157189714Y-78511400D01*
X157213904Y-78535590D01*
X157238095Y-78583971D01*
X157238095Y-78632352D01*
X157213904Y-78704923D01*
X156923619Y-78995209D01*
X157238095Y-78995209D01*
X154964190Y-75971400D02*
X154915809Y-75947209D01*
X154843238Y-75947209D01*
X154770666Y-75971400D01*
X154722285Y-76019780D01*
X154698095Y-76068161D01*
X154673904Y-76164923D01*
X154673904Y-76237495D01*
X154698095Y-76334257D01*
X154722285Y-76382638D01*
X154770666Y-76431019D01*
X154843238Y-76455209D01*
X154891619Y-76455209D01*
X154964190Y-76431019D01*
X154988380Y-76406828D01*
X154988380Y-76237495D01*
X154891619Y-76237495D01*
X155206095Y-76455209D02*
X155206095Y-75947209D01*
X155399619Y-75947209D01*
X155448000Y-75971400D01*
X155472190Y-75995590D01*
X155496380Y-76043971D01*
X155496380Y-76116542D01*
X155472190Y-76164923D01*
X155448000Y-76189114D01*
X155399619Y-76213304D01*
X155206095Y-76213304D01*
X155714095Y-76455209D02*
X155714095Y-75947209D01*
X156052761Y-75947209D02*
X156149523Y-75947209D01*
X156197904Y-75971400D01*
X156246285Y-76019780D01*
X156270476Y-76116542D01*
X156270476Y-76285876D01*
X156246285Y-76382638D01*
X156197904Y-76431019D01*
X156149523Y-76455209D01*
X156052761Y-76455209D01*
X156004380Y-76431019D01*
X155956000Y-76382638D01*
X155931809Y-76285876D01*
X155931809Y-76116542D01*
X155956000Y-76019780D01*
X156004380Y-75971400D01*
X156052761Y-75947209D01*
X156464000Y-75995590D02*
X156488190Y-75971400D01*
X156536571Y-75947209D01*
X156657523Y-75947209D01*
X156705904Y-75971400D01*
X156730095Y-75995590D01*
X156754285Y-76043971D01*
X156754285Y-76092352D01*
X156730095Y-76164923D01*
X156439809Y-76455209D01*
X156754285Y-76455209D01*
X156923619Y-75947209D02*
X157238095Y-75947209D01*
X157068761Y-76140733D01*
X157141333Y-76140733D01*
X157189714Y-76164923D01*
X157213904Y-76189114D01*
X157238095Y-76237495D01*
X157238095Y-76358447D01*
X157213904Y-76406828D01*
X157189714Y-76431019D01*
X157141333Y-76455209D01*
X156996190Y-76455209D01*
X156947809Y-76431019D01*
X156923619Y-76406828D01*
X155822952Y-73431400D02*
X155774571Y-73407209D01*
X155702000Y-73407209D01*
X155629428Y-73431400D01*
X155581047Y-73479780D01*
X155556857Y-73528161D01*
X155532666Y-73624923D01*
X155532666Y-73697495D01*
X155556857Y-73794257D01*
X155581047Y-73842638D01*
X155629428Y-73891019D01*
X155702000Y-73915209D01*
X155750380Y-73915209D01*
X155822952Y-73891019D01*
X155847142Y-73866828D01*
X155847142Y-73697495D01*
X155750380Y-73697495D01*
X156064857Y-73915209D02*
X156064857Y-73407209D01*
X156355142Y-73915209D01*
X156355142Y-73407209D01*
X156597047Y-73915209D02*
X156597047Y-73407209D01*
X156718000Y-73407209D01*
X156790571Y-73431400D01*
X156838952Y-73479780D01*
X156863142Y-73528161D01*
X156887333Y-73624923D01*
X156887333Y-73697495D01*
X156863142Y-73794257D01*
X156838952Y-73842638D01*
X156790571Y-73891019D01*
X156718000Y-73915209D01*
X156597047Y-73915209D01*
X131777619Y-111276190D02*
X132430761Y-111711619D01*
X132309809Y-111106857D02*
X131801809Y-111106857D01*
X131801809Y-110985904D01*
X131826000Y-110913333D01*
X131874380Y-110864952D01*
X131922761Y-110840761D01*
X132019523Y-110816571D01*
X132092095Y-110816571D01*
X132188857Y-110840761D01*
X132237238Y-110864952D01*
X132285619Y-110913333D01*
X132309809Y-110985904D01*
X132309809Y-111106857D01*
X131850190Y-110623047D02*
X131826000Y-110598857D01*
X131801809Y-110550476D01*
X131801809Y-110429523D01*
X131826000Y-110381142D01*
X131850190Y-110356952D01*
X131898571Y-110332761D01*
X131946952Y-110332761D01*
X132019523Y-110356952D01*
X132309809Y-110647238D01*
X132309809Y-110332761D01*
X131959047Y-72442009D02*
X132273523Y-72442009D01*
X132104190Y-72635533D01*
X132176761Y-72635533D01*
X132225142Y-72659723D01*
X132249333Y-72683914D01*
X132273523Y-72732295D01*
X132273523Y-72853247D01*
X132249333Y-72901628D01*
X132225142Y-72925819D01*
X132176761Y-72950009D01*
X132031619Y-72950009D01*
X131983238Y-72925819D01*
X131959047Y-72901628D01*
X132418666Y-72442009D02*
X132588000Y-72950009D01*
X132757333Y-72442009D01*
X132878285Y-72442009D02*
X133192761Y-72442009D01*
X133023428Y-72635533D01*
X133096000Y-72635533D01*
X133144380Y-72659723D01*
X133168571Y-72683914D01*
X133192761Y-72732295D01*
X133192761Y-72853247D01*
X133168571Y-72901628D01*
X133144380Y-72925819D01*
X133096000Y-72950009D01*
X132950857Y-72950009D01*
X132902476Y-72925819D01*
X132878285Y-72901628D01*
D13*
X131582885Y-118913728D02*
X132027990Y-118913728D01*
X131805438Y-119136280D02*
X131805438Y-118691176D01*
X132584371Y-118552080D02*
X132306180Y-118552080D01*
X132278361Y-118830271D01*
X132306180Y-118802452D01*
X132361819Y-118774633D01*
X132500914Y-118774633D01*
X132556552Y-118802452D01*
X132584371Y-118830271D01*
X132612190Y-118885909D01*
X132612190Y-119025004D01*
X132584371Y-119080642D01*
X132556552Y-119108461D01*
X132500914Y-119136280D01*
X132361819Y-119136280D01*
X132306180Y-119108461D01*
X132278361Y-119080642D01*
X132779104Y-118552080D02*
X132973838Y-119136280D01*
X133168571Y-118552080D01*
D14*
X131807857Y-116168714D02*
X132395685Y-116560600D01*
X132243285Y-115755057D02*
X132265057Y-115776828D01*
X132286828Y-115842142D01*
X132286828Y-115885685D01*
X132265057Y-115951000D01*
X132221514Y-115994542D01*
X132177971Y-116016314D01*
X132090885Y-116038085D01*
X132025571Y-116038085D01*
X131938485Y-116016314D01*
X131894942Y-115994542D01*
X131851400Y-115951000D01*
X131829628Y-115885685D01*
X131829628Y-115842142D01*
X131851400Y-115776828D01*
X131873171Y-115755057D01*
X132286828Y-115559114D02*
X131829628Y-115559114D01*
X132156200Y-115406714D01*
X131829628Y-115254314D01*
X132286828Y-115254314D01*
X132286828Y-115036600D02*
X131829628Y-115036600D01*
X131829628Y-114927742D01*
X131851400Y-114862428D01*
X131894942Y-114818885D01*
X131938485Y-114797114D01*
X132025571Y-114775342D01*
X132090885Y-114775342D01*
X132177971Y-114797114D01*
X132221514Y-114818885D01*
X132265057Y-114862428D01*
X132286828Y-114927742D01*
X132286828Y-115036600D01*
D12*
X130072190Y-116611400D02*
X130023809Y-116587209D01*
X129951238Y-116587209D01*
X129878666Y-116611400D01*
X129830285Y-116659780D01*
X129806095Y-116708161D01*
X129781904Y-116804923D01*
X129781904Y-116877495D01*
X129806095Y-116974257D01*
X129830285Y-117022638D01*
X129878666Y-117071019D01*
X129951238Y-117095209D01*
X129999619Y-117095209D01*
X130072190Y-117071019D01*
X130096380Y-117046828D01*
X130096380Y-116877495D01*
X129999619Y-116877495D01*
X130314095Y-117095209D02*
X130314095Y-116587209D01*
X130507619Y-116587209D01*
X130556000Y-116611400D01*
X130580190Y-116635590D01*
X130604380Y-116683971D01*
X130604380Y-116756542D01*
X130580190Y-116804923D01*
X130556000Y-116829114D01*
X130507619Y-116853304D01*
X130314095Y-116853304D01*
X130822095Y-117095209D02*
X130822095Y-116587209D01*
X131160761Y-116587209D02*
X131257523Y-116587209D01*
X131305904Y-116611400D01*
X131354285Y-116659780D01*
X131378476Y-116756542D01*
X131378476Y-116925876D01*
X131354285Y-117022638D01*
X131305904Y-117071019D01*
X131257523Y-117095209D01*
X131160761Y-117095209D01*
X131112380Y-117071019D01*
X131064000Y-117022638D01*
X131039809Y-116925876D01*
X131039809Y-116756542D01*
X131064000Y-116659780D01*
X131112380Y-116611400D01*
X131160761Y-116587209D01*
X131862285Y-117095209D02*
X131572000Y-117095209D01*
X131717142Y-117095209D02*
X131717142Y-116587209D01*
X131668761Y-116659780D01*
X131620380Y-116708161D01*
X131572000Y-116732352D01*
X132346095Y-117095209D02*
X132055809Y-117095209D01*
X132200952Y-117095209D02*
X132200952Y-116587209D01*
X132152571Y-116659780D01*
X132104190Y-116708161D01*
X132055809Y-116732352D01*
X131777619Y-113562190D02*
X132430761Y-113997619D01*
X132309809Y-113392857D02*
X131801809Y-113392857D01*
X131801809Y-113271904D01*
X131826000Y-113199333D01*
X131874380Y-113150952D01*
X131922761Y-113126761D01*
X132019523Y-113102571D01*
X132092095Y-113102571D01*
X132188857Y-113126761D01*
X132237238Y-113150952D01*
X132285619Y-113199333D01*
X132309809Y-113271904D01*
X132309809Y-113392857D01*
X131801809Y-112933238D02*
X131801809Y-112618761D01*
X131995333Y-112788095D01*
X131995333Y-112715523D01*
X132019523Y-112667142D01*
X132043714Y-112642952D01*
X132092095Y-112618761D01*
X132213047Y-112618761D01*
X132261428Y-112642952D01*
X132285619Y-112667142D01*
X132309809Y-112715523D01*
X132309809Y-112860666D01*
X132285619Y-112909047D01*
X132261428Y-112933238D01*
X130072190Y-114071400D02*
X130023809Y-114047209D01*
X129951238Y-114047209D01*
X129878666Y-114071400D01*
X129830285Y-114119780D01*
X129806095Y-114168161D01*
X129781904Y-114264923D01*
X129781904Y-114337495D01*
X129806095Y-114434257D01*
X129830285Y-114482638D01*
X129878666Y-114531019D01*
X129951238Y-114555209D01*
X129999619Y-114555209D01*
X130072190Y-114531019D01*
X130096380Y-114506828D01*
X130096380Y-114337495D01*
X129999619Y-114337495D01*
X130314095Y-114555209D02*
X130314095Y-114047209D01*
X130507619Y-114047209D01*
X130556000Y-114071400D01*
X130580190Y-114095590D01*
X130604380Y-114143971D01*
X130604380Y-114216542D01*
X130580190Y-114264923D01*
X130556000Y-114289114D01*
X130507619Y-114313304D01*
X130314095Y-114313304D01*
X130822095Y-114555209D02*
X130822095Y-114047209D01*
X131160761Y-114047209D02*
X131257523Y-114047209D01*
X131305904Y-114071400D01*
X131354285Y-114119780D01*
X131378476Y-114216542D01*
X131378476Y-114385876D01*
X131354285Y-114482638D01*
X131305904Y-114531019D01*
X131257523Y-114555209D01*
X131160761Y-114555209D01*
X131112380Y-114531019D01*
X131064000Y-114482638D01*
X131039809Y-114385876D01*
X131039809Y-114216542D01*
X131064000Y-114119780D01*
X131112380Y-114071400D01*
X131160761Y-114047209D01*
X131862285Y-114555209D02*
X131572000Y-114555209D01*
X131717142Y-114555209D02*
X131717142Y-114047209D01*
X131668761Y-114119780D01*
X131620380Y-114168161D01*
X131572000Y-114192352D01*
X132176761Y-114047209D02*
X132225142Y-114047209D01*
X132273523Y-114071400D01*
X132297714Y-114095590D01*
X132321904Y-114143971D01*
X132346095Y-114240733D01*
X132346095Y-114361685D01*
X132321904Y-114458447D01*
X132297714Y-114506828D01*
X132273523Y-114531019D01*
X132225142Y-114555209D01*
X132176761Y-114555209D01*
X132128380Y-114531019D01*
X132104190Y-114506828D01*
X132080000Y-114458447D01*
X132055809Y-114361685D01*
X132055809Y-114240733D01*
X132080000Y-114143971D01*
X132104190Y-114095590D01*
X132128380Y-114071400D01*
X132176761Y-114047209D01*
X130060095Y-111531400D02*
X130011714Y-111507209D01*
X129939142Y-111507209D01*
X129866571Y-111531400D01*
X129818190Y-111579780D01*
X129794000Y-111628161D01*
X129769809Y-111724923D01*
X129769809Y-111797495D01*
X129794000Y-111894257D01*
X129818190Y-111942638D01*
X129866571Y-111991019D01*
X129939142Y-112015209D01*
X129987523Y-112015209D01*
X130060095Y-111991019D01*
X130084285Y-111966828D01*
X130084285Y-111797495D01*
X129987523Y-111797495D01*
X130302000Y-112015209D02*
X130302000Y-111507209D01*
X130495523Y-111507209D01*
X130543904Y-111531400D01*
X130568095Y-111555590D01*
X130592285Y-111603971D01*
X130592285Y-111676542D01*
X130568095Y-111724923D01*
X130543904Y-111749114D01*
X130495523Y-111773304D01*
X130302000Y-111773304D01*
X130810000Y-112015209D02*
X130810000Y-111507209D01*
X131148666Y-111507209D02*
X131245428Y-111507209D01*
X131293809Y-111531400D01*
X131342190Y-111579780D01*
X131366380Y-111676542D01*
X131366380Y-111845876D01*
X131342190Y-111942638D01*
X131293809Y-111991019D01*
X131245428Y-112015209D01*
X131148666Y-112015209D01*
X131100285Y-111991019D01*
X131051904Y-111942638D01*
X131027714Y-111845876D01*
X131027714Y-111676542D01*
X131051904Y-111579780D01*
X131100285Y-111531400D01*
X131148666Y-111507209D01*
X131608285Y-112015209D02*
X131705047Y-112015209D01*
X131753428Y-111991019D01*
X131777619Y-111966828D01*
X131826000Y-111894257D01*
X131850190Y-111797495D01*
X131850190Y-111603971D01*
X131826000Y-111555590D01*
X131801809Y-111531400D01*
X131753428Y-111507209D01*
X131656666Y-111507209D01*
X131608285Y-111531400D01*
X131584095Y-111555590D01*
X131559904Y-111603971D01*
X131559904Y-111724923D01*
X131584095Y-111773304D01*
X131608285Y-111797495D01*
X131656666Y-111821685D01*
X131753428Y-111821685D01*
X131801809Y-111797495D01*
X131826000Y-111773304D01*
X131850190Y-111724923D01*
X129995990Y-108991400D02*
X129947609Y-108967209D01*
X129875038Y-108967209D01*
X129802466Y-108991400D01*
X129754085Y-109039780D01*
X129729895Y-109088161D01*
X129705704Y-109184923D01*
X129705704Y-109257495D01*
X129729895Y-109354257D01*
X129754085Y-109402638D01*
X129802466Y-109451019D01*
X129875038Y-109475209D01*
X129923419Y-109475209D01*
X129995990Y-109451019D01*
X130020180Y-109426828D01*
X130020180Y-109257495D01*
X129923419Y-109257495D01*
X130237895Y-109475209D02*
X130237895Y-108967209D01*
X130431419Y-108967209D01*
X130479800Y-108991400D01*
X130503990Y-109015590D01*
X130528180Y-109063971D01*
X130528180Y-109136542D01*
X130503990Y-109184923D01*
X130479800Y-109209114D01*
X130431419Y-109233304D01*
X130237895Y-109233304D01*
X130745895Y-109475209D02*
X130745895Y-108967209D01*
X131084561Y-108967209D02*
X131181323Y-108967209D01*
X131229704Y-108991400D01*
X131278085Y-109039780D01*
X131302276Y-109136542D01*
X131302276Y-109305876D01*
X131278085Y-109402638D01*
X131229704Y-109451019D01*
X131181323Y-109475209D01*
X131084561Y-109475209D01*
X131036180Y-109451019D01*
X130987800Y-109402638D01*
X130963609Y-109305876D01*
X130963609Y-109136542D01*
X130987800Y-109039780D01*
X131036180Y-108991400D01*
X131084561Y-108967209D01*
X131786085Y-109475209D02*
X131495800Y-109475209D01*
X131640942Y-109475209D02*
X131640942Y-108967209D01*
X131592561Y-109039780D01*
X131544180Y-109088161D01*
X131495800Y-109112352D01*
X131955419Y-108967209D02*
X132269895Y-108967209D01*
X132100561Y-109160733D01*
X132173133Y-109160733D01*
X132221514Y-109184923D01*
X132245704Y-109209114D01*
X132269895Y-109257495D01*
X132269895Y-109378447D01*
X132245704Y-109426828D01*
X132221514Y-109451019D01*
X132173133Y-109475209D01*
X132027990Y-109475209D01*
X131979609Y-109451019D01*
X131955419Y-109426828D01*
X130448352Y-106451400D02*
X130399971Y-106427209D01*
X130327400Y-106427209D01*
X130254828Y-106451400D01*
X130206447Y-106499780D01*
X130182257Y-106548161D01*
X130158066Y-106644923D01*
X130158066Y-106717495D01*
X130182257Y-106814257D01*
X130206447Y-106862638D01*
X130254828Y-106911019D01*
X130327400Y-106935209D01*
X130375780Y-106935209D01*
X130448352Y-106911019D01*
X130472542Y-106886828D01*
X130472542Y-106717495D01*
X130375780Y-106717495D01*
X130690257Y-106935209D02*
X130690257Y-106427209D01*
X130980542Y-106935209D01*
X130980542Y-106427209D01*
X131222447Y-106935209D02*
X131222447Y-106427209D01*
X131343400Y-106427209D01*
X131415971Y-106451400D01*
X131464352Y-106499780D01*
X131488542Y-106548161D01*
X131512733Y-106644923D01*
X131512733Y-106717495D01*
X131488542Y-106814257D01*
X131464352Y-106862638D01*
X131415971Y-106911019D01*
X131343400Y-106935209D01*
X131222447Y-106935209D01*
X130072190Y-103911400D02*
X130023809Y-103887209D01*
X129951238Y-103887209D01*
X129878666Y-103911400D01*
X129830285Y-103959780D01*
X129806095Y-104008161D01*
X129781904Y-104104923D01*
X129781904Y-104177495D01*
X129806095Y-104274257D01*
X129830285Y-104322638D01*
X129878666Y-104371019D01*
X129951238Y-104395209D01*
X129999619Y-104395209D01*
X130072190Y-104371019D01*
X130096380Y-104346828D01*
X130096380Y-104177495D01*
X129999619Y-104177495D01*
X130314095Y-104395209D02*
X130314095Y-103887209D01*
X130507619Y-103887209D01*
X130556000Y-103911400D01*
X130580190Y-103935590D01*
X130604380Y-103983971D01*
X130604380Y-104056542D01*
X130580190Y-104104923D01*
X130556000Y-104129114D01*
X130507619Y-104153304D01*
X130314095Y-104153304D01*
X130822095Y-104395209D02*
X130822095Y-103887209D01*
X131160761Y-103887209D02*
X131257523Y-103887209D01*
X131305904Y-103911400D01*
X131354285Y-103959780D01*
X131378476Y-104056542D01*
X131378476Y-104225876D01*
X131354285Y-104322638D01*
X131305904Y-104371019D01*
X131257523Y-104395209D01*
X131160761Y-104395209D01*
X131112380Y-104371019D01*
X131064000Y-104322638D01*
X131039809Y-104225876D01*
X131039809Y-104056542D01*
X131064000Y-103959780D01*
X131112380Y-103911400D01*
X131160761Y-103887209D01*
X131862285Y-104395209D02*
X131572000Y-104395209D01*
X131717142Y-104395209D02*
X131717142Y-103887209D01*
X131668761Y-103959780D01*
X131620380Y-104008161D01*
X131572000Y-104032352D01*
X132055809Y-103935590D02*
X132080000Y-103911400D01*
X132128380Y-103887209D01*
X132249333Y-103887209D01*
X132297714Y-103911400D01*
X132321904Y-103935590D01*
X132346095Y-103983971D01*
X132346095Y-104032352D01*
X132321904Y-104104923D01*
X132031619Y-104395209D01*
X132346095Y-104395209D01*
X130072190Y-101371400D02*
X130023809Y-101347209D01*
X129951238Y-101347209D01*
X129878666Y-101371400D01*
X129830285Y-101419780D01*
X129806095Y-101468161D01*
X129781904Y-101564923D01*
X129781904Y-101637495D01*
X129806095Y-101734257D01*
X129830285Y-101782638D01*
X129878666Y-101831019D01*
X129951238Y-101855209D01*
X129999619Y-101855209D01*
X130072190Y-101831019D01*
X130096380Y-101806828D01*
X130096380Y-101637495D01*
X129999619Y-101637495D01*
X130314095Y-101855209D02*
X130314095Y-101347209D01*
X130507619Y-101347209D01*
X130556000Y-101371400D01*
X130580190Y-101395590D01*
X130604380Y-101443971D01*
X130604380Y-101516542D01*
X130580190Y-101564923D01*
X130556000Y-101589114D01*
X130507619Y-101613304D01*
X130314095Y-101613304D01*
X130822095Y-101855209D02*
X130822095Y-101347209D01*
X131160761Y-101347209D02*
X131257523Y-101347209D01*
X131305904Y-101371400D01*
X131354285Y-101419780D01*
X131378476Y-101516542D01*
X131378476Y-101685876D01*
X131354285Y-101782638D01*
X131305904Y-101831019D01*
X131257523Y-101855209D01*
X131160761Y-101855209D01*
X131112380Y-101831019D01*
X131064000Y-101782638D01*
X131039809Y-101685876D01*
X131039809Y-101516542D01*
X131064000Y-101419780D01*
X131112380Y-101371400D01*
X131160761Y-101347209D01*
X131862285Y-101855209D02*
X131572000Y-101855209D01*
X131717142Y-101855209D02*
X131717142Y-101347209D01*
X131668761Y-101419780D01*
X131620380Y-101468161D01*
X131572000Y-101492352D01*
X132297714Y-101516542D02*
X132297714Y-101855209D01*
X132176761Y-101323019D02*
X132055809Y-101685876D01*
X132370285Y-101685876D01*
X130072190Y-98831400D02*
X130023809Y-98807209D01*
X129951238Y-98807209D01*
X129878666Y-98831400D01*
X129830285Y-98879780D01*
X129806095Y-98928161D01*
X129781904Y-99024923D01*
X129781904Y-99097495D01*
X129806095Y-99194257D01*
X129830285Y-99242638D01*
X129878666Y-99291019D01*
X129951238Y-99315209D01*
X129999619Y-99315209D01*
X130072190Y-99291019D01*
X130096380Y-99266828D01*
X130096380Y-99097495D01*
X129999619Y-99097495D01*
X130314095Y-99315209D02*
X130314095Y-98807209D01*
X130507619Y-98807209D01*
X130556000Y-98831400D01*
X130580190Y-98855590D01*
X130604380Y-98903971D01*
X130604380Y-98976542D01*
X130580190Y-99024923D01*
X130556000Y-99049114D01*
X130507619Y-99073304D01*
X130314095Y-99073304D01*
X130822095Y-99315209D02*
X130822095Y-98807209D01*
X131160761Y-98807209D02*
X131257523Y-98807209D01*
X131305904Y-98831400D01*
X131354285Y-98879780D01*
X131378476Y-98976542D01*
X131378476Y-99145876D01*
X131354285Y-99242638D01*
X131305904Y-99291019D01*
X131257523Y-99315209D01*
X131160761Y-99315209D01*
X131112380Y-99291019D01*
X131064000Y-99242638D01*
X131039809Y-99145876D01*
X131039809Y-98976542D01*
X131064000Y-98879780D01*
X131112380Y-98831400D01*
X131160761Y-98807209D01*
X131572000Y-98855590D02*
X131596190Y-98831400D01*
X131644571Y-98807209D01*
X131765523Y-98807209D01*
X131813904Y-98831400D01*
X131838095Y-98855590D01*
X131862285Y-98903971D01*
X131862285Y-98952352D01*
X131838095Y-99024923D01*
X131547809Y-99315209D01*
X131862285Y-99315209D01*
X132031619Y-98807209D02*
X132370285Y-98807209D01*
X132152571Y-99315209D01*
X130072190Y-96291400D02*
X130023809Y-96267209D01*
X129951238Y-96267209D01*
X129878666Y-96291400D01*
X129830285Y-96339780D01*
X129806095Y-96388161D01*
X129781904Y-96484923D01*
X129781904Y-96557495D01*
X129806095Y-96654257D01*
X129830285Y-96702638D01*
X129878666Y-96751019D01*
X129951238Y-96775209D01*
X129999619Y-96775209D01*
X130072190Y-96751019D01*
X130096380Y-96726828D01*
X130096380Y-96557495D01*
X129999619Y-96557495D01*
X130314095Y-96775209D02*
X130314095Y-96267209D01*
X130507619Y-96267209D01*
X130556000Y-96291400D01*
X130580190Y-96315590D01*
X130604380Y-96363971D01*
X130604380Y-96436542D01*
X130580190Y-96484923D01*
X130556000Y-96509114D01*
X130507619Y-96533304D01*
X130314095Y-96533304D01*
X130822095Y-96775209D02*
X130822095Y-96267209D01*
X131160761Y-96267209D02*
X131257523Y-96267209D01*
X131305904Y-96291400D01*
X131354285Y-96339780D01*
X131378476Y-96436542D01*
X131378476Y-96605876D01*
X131354285Y-96702638D01*
X131305904Y-96751019D01*
X131257523Y-96775209D01*
X131160761Y-96775209D01*
X131112380Y-96751019D01*
X131064000Y-96702638D01*
X131039809Y-96605876D01*
X131039809Y-96436542D01*
X131064000Y-96339780D01*
X131112380Y-96291400D01*
X131160761Y-96267209D01*
X131572000Y-96315590D02*
X131596190Y-96291400D01*
X131644571Y-96267209D01*
X131765523Y-96267209D01*
X131813904Y-96291400D01*
X131838095Y-96315590D01*
X131862285Y-96363971D01*
X131862285Y-96412352D01*
X131838095Y-96484923D01*
X131547809Y-96775209D01*
X131862285Y-96775209D01*
X132297714Y-96267209D02*
X132200952Y-96267209D01*
X132152571Y-96291400D01*
X132128380Y-96315590D01*
X132080000Y-96388161D01*
X132055809Y-96484923D01*
X132055809Y-96678447D01*
X132080000Y-96726828D01*
X132104190Y-96751019D01*
X132152571Y-96775209D01*
X132249333Y-96775209D01*
X132297714Y-96751019D01*
X132321904Y-96726828D01*
X132346095Y-96678447D01*
X132346095Y-96557495D01*
X132321904Y-96509114D01*
X132297714Y-96484923D01*
X132249333Y-96460733D01*
X132152571Y-96460733D01*
X132104190Y-96484923D01*
X132080000Y-96509114D01*
X132055809Y-96557495D01*
X130072190Y-93751400D02*
X130023809Y-93727209D01*
X129951238Y-93727209D01*
X129878666Y-93751400D01*
X129830285Y-93799780D01*
X129806095Y-93848161D01*
X129781904Y-93944923D01*
X129781904Y-94017495D01*
X129806095Y-94114257D01*
X129830285Y-94162638D01*
X129878666Y-94211019D01*
X129951238Y-94235209D01*
X129999619Y-94235209D01*
X130072190Y-94211019D01*
X130096380Y-94186828D01*
X130096380Y-94017495D01*
X129999619Y-94017495D01*
X130314095Y-94235209D02*
X130314095Y-93727209D01*
X130507619Y-93727209D01*
X130556000Y-93751400D01*
X130580190Y-93775590D01*
X130604380Y-93823971D01*
X130604380Y-93896542D01*
X130580190Y-93944923D01*
X130556000Y-93969114D01*
X130507619Y-93993304D01*
X130314095Y-93993304D01*
X130822095Y-94235209D02*
X130822095Y-93727209D01*
X131160761Y-93727209D02*
X131257523Y-93727209D01*
X131305904Y-93751400D01*
X131354285Y-93799780D01*
X131378476Y-93896542D01*
X131378476Y-94065876D01*
X131354285Y-94162638D01*
X131305904Y-94211019D01*
X131257523Y-94235209D01*
X131160761Y-94235209D01*
X131112380Y-94211019D01*
X131064000Y-94162638D01*
X131039809Y-94065876D01*
X131039809Y-93896542D01*
X131064000Y-93799780D01*
X131112380Y-93751400D01*
X131160761Y-93727209D01*
X131572000Y-93775590D02*
X131596190Y-93751400D01*
X131644571Y-93727209D01*
X131765523Y-93727209D01*
X131813904Y-93751400D01*
X131838095Y-93775590D01*
X131862285Y-93823971D01*
X131862285Y-93872352D01*
X131838095Y-93944923D01*
X131547809Y-94235209D01*
X131862285Y-94235209D01*
X132321904Y-93727209D02*
X132080000Y-93727209D01*
X132055809Y-93969114D01*
X132080000Y-93944923D01*
X132128380Y-93920733D01*
X132249333Y-93920733D01*
X132297714Y-93944923D01*
X132321904Y-93969114D01*
X132346095Y-94017495D01*
X132346095Y-94138447D01*
X132321904Y-94186828D01*
X132297714Y-94211019D01*
X132249333Y-94235209D01*
X132128380Y-94235209D01*
X132080000Y-94211019D01*
X132055809Y-94186828D01*
X130072190Y-91211400D02*
X130023809Y-91187209D01*
X129951238Y-91187209D01*
X129878666Y-91211400D01*
X129830285Y-91259780D01*
X129806095Y-91308161D01*
X129781904Y-91404923D01*
X129781904Y-91477495D01*
X129806095Y-91574257D01*
X129830285Y-91622638D01*
X129878666Y-91671019D01*
X129951238Y-91695209D01*
X129999619Y-91695209D01*
X130072190Y-91671019D01*
X130096380Y-91646828D01*
X130096380Y-91477495D01*
X129999619Y-91477495D01*
X130314095Y-91695209D02*
X130314095Y-91187209D01*
X130507619Y-91187209D01*
X130556000Y-91211400D01*
X130580190Y-91235590D01*
X130604380Y-91283971D01*
X130604380Y-91356542D01*
X130580190Y-91404923D01*
X130556000Y-91429114D01*
X130507619Y-91453304D01*
X130314095Y-91453304D01*
X130822095Y-91695209D02*
X130822095Y-91187209D01*
X131160761Y-91187209D02*
X131257523Y-91187209D01*
X131305904Y-91211400D01*
X131354285Y-91259780D01*
X131378476Y-91356542D01*
X131378476Y-91525876D01*
X131354285Y-91622638D01*
X131305904Y-91671019D01*
X131257523Y-91695209D01*
X131160761Y-91695209D01*
X131112380Y-91671019D01*
X131064000Y-91622638D01*
X131039809Y-91525876D01*
X131039809Y-91356542D01*
X131064000Y-91259780D01*
X131112380Y-91211400D01*
X131160761Y-91187209D01*
X131547809Y-91187209D02*
X131862285Y-91187209D01*
X131692952Y-91380733D01*
X131765523Y-91380733D01*
X131813904Y-91404923D01*
X131838095Y-91429114D01*
X131862285Y-91477495D01*
X131862285Y-91598447D01*
X131838095Y-91646828D01*
X131813904Y-91671019D01*
X131765523Y-91695209D01*
X131620380Y-91695209D01*
X131572000Y-91671019D01*
X131547809Y-91646828D01*
X132031619Y-91187209D02*
X132346095Y-91187209D01*
X132176761Y-91380733D01*
X132249333Y-91380733D01*
X132297714Y-91404923D01*
X132321904Y-91429114D01*
X132346095Y-91477495D01*
X132346095Y-91598447D01*
X132321904Y-91646828D01*
X132297714Y-91671019D01*
X132249333Y-91695209D01*
X132104190Y-91695209D01*
X132055809Y-91671019D01*
X132031619Y-91646828D01*
X130072190Y-88671400D02*
X130023809Y-88647209D01*
X129951238Y-88647209D01*
X129878666Y-88671400D01*
X129830285Y-88719780D01*
X129806095Y-88768161D01*
X129781904Y-88864923D01*
X129781904Y-88937495D01*
X129806095Y-89034257D01*
X129830285Y-89082638D01*
X129878666Y-89131019D01*
X129951238Y-89155209D01*
X129999619Y-89155209D01*
X130072190Y-89131019D01*
X130096380Y-89106828D01*
X130096380Y-88937495D01*
X129999619Y-88937495D01*
X130314095Y-89155209D02*
X130314095Y-88647209D01*
X130507619Y-88647209D01*
X130556000Y-88671400D01*
X130580190Y-88695590D01*
X130604380Y-88743971D01*
X130604380Y-88816542D01*
X130580190Y-88864923D01*
X130556000Y-88889114D01*
X130507619Y-88913304D01*
X130314095Y-88913304D01*
X130822095Y-89155209D02*
X130822095Y-88647209D01*
X131160761Y-88647209D02*
X131257523Y-88647209D01*
X131305904Y-88671400D01*
X131354285Y-88719780D01*
X131378476Y-88816542D01*
X131378476Y-88985876D01*
X131354285Y-89082638D01*
X131305904Y-89131019D01*
X131257523Y-89155209D01*
X131160761Y-89155209D01*
X131112380Y-89131019D01*
X131064000Y-89082638D01*
X131039809Y-88985876D01*
X131039809Y-88816542D01*
X131064000Y-88719780D01*
X131112380Y-88671400D01*
X131160761Y-88647209D01*
X131547809Y-88647209D02*
X131862285Y-88647209D01*
X131692952Y-88840733D01*
X131765523Y-88840733D01*
X131813904Y-88864923D01*
X131838095Y-88889114D01*
X131862285Y-88937495D01*
X131862285Y-89058447D01*
X131838095Y-89106828D01*
X131813904Y-89131019D01*
X131765523Y-89155209D01*
X131620380Y-89155209D01*
X131572000Y-89131019D01*
X131547809Y-89106828D01*
X132055809Y-88695590D02*
X132080000Y-88671400D01*
X132128380Y-88647209D01*
X132249333Y-88647209D01*
X132297714Y-88671400D01*
X132321904Y-88695590D01*
X132346095Y-88743971D01*
X132346095Y-88792352D01*
X132321904Y-88864923D01*
X132031619Y-89155209D01*
X132346095Y-89155209D01*
X130084285Y-86131400D02*
X130035904Y-86107209D01*
X129963333Y-86107209D01*
X129890761Y-86131400D01*
X129842380Y-86179780D01*
X129818190Y-86228161D01*
X129794000Y-86324923D01*
X129794000Y-86397495D01*
X129818190Y-86494257D01*
X129842380Y-86542638D01*
X129890761Y-86591019D01*
X129963333Y-86615209D01*
X130011714Y-86615209D01*
X130084285Y-86591019D01*
X130108476Y-86566828D01*
X130108476Y-86397495D01*
X130011714Y-86397495D01*
X130326190Y-86615209D02*
X130326190Y-86107209D01*
X130519714Y-86107209D01*
X130568095Y-86131400D01*
X130592285Y-86155590D01*
X130616476Y-86203971D01*
X130616476Y-86276542D01*
X130592285Y-86324923D01*
X130568095Y-86349114D01*
X130519714Y-86373304D01*
X130326190Y-86373304D01*
X130834190Y-86615209D02*
X130834190Y-86107209D01*
X131027714Y-86107209D02*
X131342190Y-86107209D01*
X131172857Y-86300733D01*
X131245428Y-86300733D01*
X131293809Y-86324923D01*
X131318000Y-86349114D01*
X131342190Y-86397495D01*
X131342190Y-86518447D01*
X131318000Y-86566828D01*
X131293809Y-86591019D01*
X131245428Y-86615209D01*
X131100285Y-86615209D01*
X131051904Y-86591019D01*
X131027714Y-86566828D01*
X131801809Y-86107209D02*
X131559904Y-86107209D01*
X131535714Y-86349114D01*
X131559904Y-86324923D01*
X131608285Y-86300733D01*
X131729238Y-86300733D01*
X131777619Y-86324923D01*
X131801809Y-86349114D01*
X131826000Y-86397495D01*
X131826000Y-86518447D01*
X131801809Y-86566828D01*
X131777619Y-86591019D01*
X131729238Y-86615209D01*
X131608285Y-86615209D01*
X131559904Y-86591019D01*
X131535714Y-86566828D01*
X130084285Y-83591400D02*
X130035904Y-83567209D01*
X129963333Y-83567209D01*
X129890761Y-83591400D01*
X129842380Y-83639780D01*
X129818190Y-83688161D01*
X129794000Y-83784923D01*
X129794000Y-83857495D01*
X129818190Y-83954257D01*
X129842380Y-84002638D01*
X129890761Y-84051019D01*
X129963333Y-84075209D01*
X130011714Y-84075209D01*
X130084285Y-84051019D01*
X130108476Y-84026828D01*
X130108476Y-83857495D01*
X130011714Y-83857495D01*
X130326190Y-84075209D02*
X130326190Y-83567209D01*
X130519714Y-83567209D01*
X130568095Y-83591400D01*
X130592285Y-83615590D01*
X130616476Y-83663971D01*
X130616476Y-83736542D01*
X130592285Y-83784923D01*
X130568095Y-83809114D01*
X130519714Y-83833304D01*
X130326190Y-83833304D01*
X130834190Y-84075209D02*
X130834190Y-83567209D01*
X131027714Y-83567209D02*
X131342190Y-83567209D01*
X131172857Y-83760733D01*
X131245428Y-83760733D01*
X131293809Y-83784923D01*
X131318000Y-83809114D01*
X131342190Y-83857495D01*
X131342190Y-83978447D01*
X131318000Y-84026828D01*
X131293809Y-84051019D01*
X131245428Y-84075209D01*
X131100285Y-84075209D01*
X131051904Y-84051019D01*
X131027714Y-84026828D01*
X131777619Y-83736542D02*
X131777619Y-84075209D01*
X131656666Y-83543019D02*
X131535714Y-83905876D01*
X131850190Y-83905876D01*
X130096380Y-81051400D02*
X130048000Y-81027209D01*
X129975428Y-81027209D01*
X129902857Y-81051400D01*
X129854476Y-81099780D01*
X129830285Y-81148161D01*
X129806095Y-81244923D01*
X129806095Y-81317495D01*
X129830285Y-81414257D01*
X129854476Y-81462638D01*
X129902857Y-81511019D01*
X129975428Y-81535209D01*
X130023809Y-81535209D01*
X130096380Y-81511019D01*
X130120571Y-81486828D01*
X130120571Y-81317495D01*
X130023809Y-81317495D01*
X130338285Y-81535209D02*
X130338285Y-81027209D01*
X130531809Y-81027209D01*
X130580190Y-81051400D01*
X130604380Y-81075590D01*
X130628571Y-81123971D01*
X130628571Y-81196542D01*
X130604380Y-81244923D01*
X130580190Y-81269114D01*
X130531809Y-81293304D01*
X130338285Y-81293304D01*
X130846285Y-81535209D02*
X130846285Y-81027209D01*
X131039809Y-81027209D02*
X131354285Y-81027209D01*
X131184952Y-81220733D01*
X131257523Y-81220733D01*
X131305904Y-81244923D01*
X131330095Y-81269114D01*
X131354285Y-81317495D01*
X131354285Y-81438447D01*
X131330095Y-81486828D01*
X131305904Y-81511019D01*
X131257523Y-81535209D01*
X131112380Y-81535209D01*
X131064000Y-81511019D01*
X131039809Y-81486828D01*
X131596190Y-81535209D02*
X131692952Y-81535209D01*
X131741333Y-81511019D01*
X131765523Y-81486828D01*
X131813904Y-81414257D01*
X131838095Y-81317495D01*
X131838095Y-81123971D01*
X131813904Y-81075590D01*
X131789714Y-81051400D01*
X131741333Y-81027209D01*
X131644571Y-81027209D01*
X131596190Y-81051400D01*
X131572000Y-81075590D01*
X131547809Y-81123971D01*
X131547809Y-81244923D01*
X131572000Y-81293304D01*
X131596190Y-81317495D01*
X131644571Y-81341685D01*
X131741333Y-81341685D01*
X131789714Y-81317495D01*
X131813904Y-81293304D01*
X131838095Y-81244923D01*
X132418666Y-81003019D02*
X131983238Y-81656161D01*
X132515428Y-81027209D02*
X132684761Y-81535209D01*
X132854095Y-81027209D01*
X133023428Y-81535209D02*
X133023428Y-81027209D01*
X133313714Y-81535209D01*
X133313714Y-81027209D01*
X130108476Y-78511400D02*
X130060095Y-78487209D01*
X129987523Y-78487209D01*
X129914952Y-78511400D01*
X129866571Y-78559780D01*
X129842380Y-78608161D01*
X129818190Y-78704923D01*
X129818190Y-78777495D01*
X129842380Y-78874257D01*
X129866571Y-78922638D01*
X129914952Y-78971019D01*
X129987523Y-78995209D01*
X130035904Y-78995209D01*
X130108476Y-78971019D01*
X130132666Y-78946828D01*
X130132666Y-78777495D01*
X130035904Y-78777495D01*
X130350380Y-78995209D02*
X130350380Y-78487209D01*
X130543904Y-78487209D01*
X130592285Y-78511400D01*
X130616476Y-78535590D01*
X130640666Y-78583971D01*
X130640666Y-78656542D01*
X130616476Y-78704923D01*
X130592285Y-78729114D01*
X130543904Y-78753304D01*
X130350380Y-78753304D01*
X130858380Y-78995209D02*
X130858380Y-78487209D01*
X131051904Y-78487209D02*
X131366380Y-78487209D01*
X131197047Y-78680733D01*
X131269619Y-78680733D01*
X131318000Y-78704923D01*
X131342190Y-78729114D01*
X131366380Y-78777495D01*
X131366380Y-78898447D01*
X131342190Y-78946828D01*
X131318000Y-78971019D01*
X131269619Y-78995209D01*
X131124476Y-78995209D01*
X131076095Y-78971019D01*
X131051904Y-78946828D01*
X131801809Y-78487209D02*
X131705047Y-78487209D01*
X131656666Y-78511400D01*
X131632476Y-78535590D01*
X131584095Y-78608161D01*
X131559904Y-78704923D01*
X131559904Y-78898447D01*
X131584095Y-78946828D01*
X131608285Y-78971019D01*
X131656666Y-78995209D01*
X131753428Y-78995209D01*
X131801809Y-78971019D01*
X131826000Y-78946828D01*
X131850190Y-78898447D01*
X131850190Y-78777495D01*
X131826000Y-78729114D01*
X131801809Y-78704923D01*
X131753428Y-78680733D01*
X131656666Y-78680733D01*
X131608285Y-78704923D01*
X131584095Y-78729114D01*
X131559904Y-78777495D01*
X132430761Y-78463019D02*
X131995333Y-79116161D01*
X132527523Y-78487209D02*
X132696857Y-78995209D01*
X132866190Y-78487209D01*
X133035523Y-78995209D02*
X133035523Y-78487209D01*
X133229047Y-78487209D01*
X133277428Y-78511400D01*
X133301619Y-78535590D01*
X133325809Y-78583971D01*
X133325809Y-78656542D01*
X133301619Y-78704923D01*
X133277428Y-78729114D01*
X133229047Y-78753304D01*
X133035523Y-78753304D01*
X130435047Y-76189114D02*
X130604380Y-76189114D01*
X130676952Y-76455209D02*
X130435047Y-76455209D01*
X130435047Y-75947209D01*
X130676952Y-75947209D01*
X130894666Y-76455209D02*
X130894666Y-75947209D01*
X131184952Y-76455209D01*
X131184952Y-75947209D01*
X130181047Y-73407209D02*
X130495523Y-73407209D01*
X130326190Y-73600733D01*
X130398761Y-73600733D01*
X130447142Y-73624923D01*
X130471333Y-73649114D01*
X130495523Y-73697495D01*
X130495523Y-73818447D01*
X130471333Y-73866828D01*
X130447142Y-73891019D01*
X130398761Y-73915209D01*
X130253619Y-73915209D01*
X130205238Y-73891019D01*
X130181047Y-73866828D01*
X130640666Y-73407209D02*
X130810000Y-73915209D01*
X130979333Y-73407209D01*
X131100285Y-73407209D02*
X131414761Y-73407209D01*
X131245428Y-73600733D01*
X131318000Y-73600733D01*
X131366380Y-73624923D01*
X131390571Y-73649114D01*
X131414761Y-73697495D01*
X131414761Y-73818447D01*
X131390571Y-73866828D01*
X131366380Y-73891019D01*
X131318000Y-73915209D01*
X131172857Y-73915209D01*
X131124476Y-73891019D01*
X131100285Y-73866828D01*
D11*
X132285619Y-87563476D02*
X132285619Y-87369952D01*
X132334000Y-87273190D01*
X132430761Y-87176428D01*
X132624285Y-87128047D01*
X132962952Y-87128047D01*
X133156476Y-87176428D01*
X133253238Y-87273190D01*
X133301619Y-87369952D01*
X133301619Y-87563476D01*
X133253238Y-87660238D01*
X133156476Y-87757000D01*
X132962952Y-87805380D01*
X132624285Y-87805380D01*
X132430761Y-87757000D01*
X132334000Y-87660238D01*
X132285619Y-87563476D01*
X133301619Y-86208809D02*
X133301619Y-86692619D01*
X132285619Y-86692619D01*
X133301619Y-85870142D02*
X132624285Y-85870142D01*
X132285619Y-85870142D02*
X132334000Y-85918523D01*
X132382380Y-85870142D01*
X132334000Y-85821761D01*
X132285619Y-85870142D01*
X132382380Y-85870142D01*
X133301619Y-85386333D02*
X132624285Y-85386333D01*
X132721047Y-85386333D02*
X132672666Y-85337952D01*
X132624285Y-85241190D01*
X132624285Y-85096047D01*
X132672666Y-84999285D01*
X132769428Y-84950904D01*
X133301619Y-84950904D01*
X132769428Y-84950904D02*
X132672666Y-84902523D01*
X132624285Y-84805761D01*
X132624285Y-84660619D01*
X132672666Y-84563857D01*
X132769428Y-84515476D01*
X133301619Y-84515476D01*
X133253238Y-83644619D02*
X133301619Y-83741380D01*
X133301619Y-83934904D01*
X133253238Y-84031666D01*
X133156476Y-84080047D01*
X132769428Y-84080047D01*
X132672666Y-84031666D01*
X132624285Y-83934904D01*
X132624285Y-83741380D01*
X132672666Y-83644619D01*
X132769428Y-83596238D01*
X132866190Y-83596238D01*
X132962952Y-84080047D01*
X132285619Y-83257571D02*
X133301619Y-82580238D01*
X132285619Y-82580238D02*
X133301619Y-83257571D01*
D15*
X137016265Y-92646500D02*
X137312598Y-92646500D01*
X137381390Y-93112166D02*
X136958056Y-93112166D01*
X137069181Y-92223166D01*
X137492515Y-92223166D01*
X137725348Y-93069833D02*
X137847056Y-93112166D01*
X138058723Y-93112166D01*
X138148681Y-93069833D01*
X138196306Y-93027500D01*
X138249223Y-92942833D01*
X138259806Y-92858166D01*
X138228056Y-92773500D01*
X138191015Y-92731166D01*
X138111640Y-92688833D01*
X137947598Y-92646500D01*
X137868223Y-92604166D01*
X137831181Y-92561833D01*
X137799431Y-92477166D01*
X137810015Y-92392500D01*
X137862931Y-92307833D01*
X137910556Y-92265500D01*
X138000515Y-92223166D01*
X138212181Y-92223166D01*
X138333890Y-92265500D01*
X138609056Y-93112166D02*
X138720181Y-92223166D01*
X139058848Y-92223166D01*
X139138223Y-92265500D01*
X139175265Y-92307833D01*
X139207015Y-92392500D01*
X139191140Y-92519500D01*
X139138223Y-92604166D01*
X139090598Y-92646500D01*
X139000640Y-92688833D01*
X138661973Y-92688833D01*
X139524515Y-92223166D02*
X140074848Y-92223166D01*
X139736181Y-92561833D01*
X139863181Y-92561833D01*
X139942556Y-92604166D01*
X139979598Y-92646500D01*
X140011348Y-92731166D01*
X139984890Y-92942833D01*
X139931973Y-93027500D01*
X139884348Y-93069833D01*
X139794390Y-93112166D01*
X139540390Y-93112166D01*
X139461015Y-93069833D01*
X139423973Y-93027500D01*
X140402931Y-92307833D02*
X140450556Y-92265500D01*
X140540515Y-92223166D01*
X140752181Y-92223166D01*
X140831556Y-92265500D01*
X140868598Y-92307833D01*
X140900348Y-92392500D01*
X140889765Y-92477166D01*
X140831556Y-92604166D01*
X140260056Y-93112166D01*
X140810390Y-93112166D01*
X141233723Y-92773500D02*
X141911056Y-92773500D01*
X142292056Y-93112166D02*
X142403181Y-92223166D01*
X142614848Y-92223166D01*
X142736556Y-92265500D01*
X142810640Y-92350166D01*
X142842390Y-92434833D01*
X142863556Y-92604166D01*
X142847681Y-92731166D01*
X142784181Y-92900500D01*
X142731265Y-92985166D01*
X142636015Y-93069833D01*
X142503723Y-93112166D01*
X142292056Y-93112166D01*
X143525015Y-93069833D02*
X143435056Y-93112166D01*
X143265723Y-93112166D01*
X143186348Y-93069833D01*
X143154598Y-92985166D01*
X143196931Y-92646500D01*
X143249848Y-92561833D01*
X143339806Y-92519500D01*
X143509140Y-92519500D01*
X143588515Y-92561833D01*
X143620265Y-92646500D01*
X143609681Y-92731166D01*
X143175765Y-92815833D01*
X143932473Y-92519500D02*
X144070056Y-93112166D01*
X144355806Y-92519500D01*
X144620390Y-93112166D02*
X144731515Y-92223166D01*
X145128390Y-93112166D02*
X144810890Y-92604166D01*
X145239515Y-92223166D02*
X144668015Y-92731166D01*
X145509390Y-93112166D02*
X145583473Y-92519500D01*
X145620515Y-92223166D02*
X145572890Y-92265500D01*
X145609931Y-92307833D01*
X145657556Y-92265500D01*
X145620515Y-92223166D01*
X145609931Y-92307833D01*
X145879806Y-92519500D02*
X146218473Y-92519500D01*
X146043848Y-92223166D02*
X145948598Y-92985166D01*
X145980348Y-93069833D01*
X146059723Y-93112166D01*
X146144390Y-93112166D01*
X146483056Y-92773500D02*
X147160390Y-92773500D01*
X147964723Y-93112166D02*
X147541390Y-93112166D01*
X147652515Y-92223166D01*
X148261056Y-93112166D02*
X148335140Y-92519500D01*
X148372181Y-92223166D02*
X148324556Y-92265500D01*
X148361598Y-92307833D01*
X148409223Y-92265500D01*
X148372181Y-92223166D01*
X148361598Y-92307833D01*
X148758473Y-92519500D02*
X148647348Y-93408500D01*
X148753181Y-92561833D02*
X148843140Y-92519500D01*
X149012473Y-92519500D01*
X149091848Y-92561833D01*
X149128890Y-92604166D01*
X149160640Y-92688833D01*
X149128890Y-92942833D01*
X149075973Y-93027500D01*
X149028348Y-93069833D01*
X148938390Y-93112166D01*
X148769056Y-93112166D01*
X148689681Y-93069833D01*
X149615723Y-93112166D02*
X149536348Y-93069833D01*
X149499306Y-93027500D01*
X149467556Y-92942833D01*
X149499306Y-92688833D01*
X149552223Y-92604166D01*
X149599848Y-92561833D01*
X149689806Y-92519500D01*
X149816806Y-92519500D01*
X149896181Y-92561833D01*
X149933223Y-92604166D01*
X149964973Y-92688833D01*
X149933223Y-92942833D01*
X149880306Y-93027500D01*
X149832681Y-93069833D01*
X149742723Y-93112166D01*
X149615723Y-93112166D01*
D16*
X148296690Y-112104714D02*
X149264309Y-112104714D01*
X148780500Y-112588523D02*
X148780500Y-111620904D01*
X153249690Y-112104714D02*
X154217309Y-112104714D01*
D11*
G04 #@! TO.C,Sign_Antistatic*
X142857220Y-86972140D02*
X143962120Y-87637620D01*
X142643860Y-86690200D02*
X145856960Y-88630760D01*
X143319500Y-88389460D02*
X143517620Y-87998300D01*
X143517620Y-87998300D02*
X143824960Y-87673180D01*
X143769080Y-87571580D02*
X143413480Y-87896700D01*
X143413480Y-87896700D02*
X143339820Y-88140540D01*
X143339820Y-88140540D02*
X143319500Y-88389460D01*
X142793720Y-87911940D02*
X142885160Y-88237060D01*
X142811500Y-87503000D02*
X142793720Y-87904320D01*
X142615920Y-87546180D02*
X142887700Y-88379300D01*
X142999460Y-87142320D02*
X142712440Y-87581740D01*
X142844520Y-87091520D02*
X142643860Y-87467440D01*
X144536160Y-87007700D02*
X144358360Y-87228680D01*
X144360900Y-86385400D02*
X144541240Y-86682580D01*
X143174720Y-86647020D02*
X144152620Y-86502240D01*
X144277080Y-86436200D02*
X144503140Y-86626700D01*
X144122140Y-86502240D02*
X144658080Y-86888320D01*
X143857980Y-86545420D02*
X144556480Y-87005160D01*
X143555720Y-86580980D02*
X144444720Y-87155020D01*
X143283940Y-86649560D02*
X144307560Y-87287100D01*
X143078200Y-86715600D02*
X144221200Y-87381080D01*
D17*
X144576800Y-87198200D02*
X144462500Y-87312500D01*
X144465040Y-87309960D02*
X144254220Y-87508080D01*
X144670780Y-87058500D02*
X144571720Y-87200740D01*
X144805400Y-86934040D02*
X144673320Y-87055960D01*
X144401540Y-86235540D02*
X144805400Y-86934040D01*
X144223740Y-86344760D02*
X144396460Y-86235540D01*
X144109440Y-86393020D02*
X144223740Y-86344760D01*
X143835120Y-86438740D02*
X144106900Y-86390480D01*
X143172180Y-86527640D02*
X143835120Y-86438740D01*
X143101060Y-86547960D02*
X143172180Y-86527640D01*
X143068040Y-86570820D02*
X143101060Y-86547960D01*
X143022320Y-86619080D02*
X143065500Y-86573360D01*
X142928340Y-86738460D02*
X143022320Y-86619080D01*
X142598140Y-87261700D02*
X142730220Y-87058500D01*
X142529560Y-87398000D02*
X142598140Y-87258000D01*
X142514320Y-87492840D02*
X142529560Y-87401400D01*
X142514320Y-87609680D02*
X142514320Y-87495380D01*
X142527020Y-87673180D02*
X142514320Y-87612220D01*
X142816580Y-88485980D02*
X142529560Y-87670640D01*
X142844520Y-88516460D02*
X142816580Y-88485980D01*
X142890240Y-88534240D02*
X142849600Y-88519000D01*
X142930880Y-88524080D02*
X142890240Y-88534240D01*
X142971520Y-88491060D02*
X142930880Y-88524080D01*
X143002000Y-88422480D02*
X142971520Y-88491060D01*
X143017240Y-88308180D02*
X143002000Y-88422480D01*
X143009620Y-88196420D02*
X143017240Y-88308180D01*
X142986760Y-88071960D02*
X143009620Y-88196420D01*
X142956280Y-87988140D02*
X142986760Y-88071960D01*
X142925800Y-87929720D02*
X142956280Y-87988140D01*
X142938500Y-87642700D02*
X142925800Y-87929720D01*
X142923260Y-87574120D02*
X142938500Y-87642700D01*
X142928340Y-87515700D02*
X142925800Y-87574120D01*
X143012160Y-87391240D02*
X142928340Y-87515700D01*
X143090900Y-87251540D02*
X143012160Y-87391240D01*
X143586200Y-87556340D02*
X143090900Y-87251540D01*
X143342360Y-87777320D02*
X143588740Y-87553800D01*
X143289020Y-87856060D02*
X143342360Y-87777320D01*
X143245840Y-87944960D02*
X143289020Y-87856060D01*
X143212820Y-88071960D02*
X143245840Y-87950040D01*
X143197580Y-88206580D02*
X143212820Y-88071960D01*
X143200120Y-88333580D02*
X143197580Y-88206580D01*
X143210280Y-88407240D02*
X143200020Y-88333580D01*
X143228060Y-88455500D02*
X143210280Y-88407240D01*
X143245840Y-88478360D02*
X143228060Y-88456750D01*
X143283940Y-88503760D02*
X143250920Y-88483440D01*
X143365220Y-88516460D02*
X143286480Y-88503760D01*
X143687800Y-87983060D02*
X143611600Y-88099900D01*
X143611600Y-88099900D02*
X143365220Y-88516460D01*
X143771620Y-87889080D02*
X143687800Y-87983060D01*
X143827500Y-87840820D02*
X143771620Y-87889080D01*
X143949420Y-87751920D02*
X143827500Y-87840820D01*
D11*
X145663920Y-88783160D02*
G75*
G03X145887440Y-88488520I-35560J259080D01*
G01*
X141592300Y-88539320D02*
G75*
G03X141813280Y-88780620I231140J-10160D01*
G01*
X143908780Y-85023960D02*
G75*
G03X143619220Y-85023960I-144780J-144780D01*
G01*
X141594840Y-88503760D02*
X143573500Y-85079840D01*
X141892020Y-88785700D02*
X145656300Y-88783160D01*
X143949420Y-85074760D02*
X145877280Y-88419940D01*
G04 #@! TO.C,Q1*
X135255000Y-100711000D02*
X135255000Y-100203000D01*
X132715000Y-100711000D02*
X132715000Y-100203000D01*
G04 #@! TO.C,BAT1*
X153390600Y-112915700D02*
X154393900Y-112915700D01*
X148323300Y-112915700D02*
X149377400Y-112915700D01*
X148318220Y-112923320D02*
X148318220Y-119232680D01*
X148318220Y-119232680D02*
X154398980Y-119232680D01*
X154398980Y-119232680D02*
X154398980Y-112915698D01*
G04 #@! TO.C,C1*
X150876000Y-107188000D02*
X149860000Y-107188000D01*
X150876000Y-105156000D02*
X149860000Y-105156000D01*
G04 #@! TO.C,C2*
X133477000Y-96774000D02*
X134493000Y-96774000D01*
X133477000Y-98298000D02*
X134493000Y-98298000D01*
G04 #@! TO.C,C3*
X134493000Y-104140000D02*
X133477000Y-104140000D01*
X134493000Y-102616000D02*
X133477000Y-102616000D01*
G04 #@! TO.C,C4*
X144018000Y-93472000D02*
X145034000Y-93472000D01*
X144018000Y-94996000D02*
X145034000Y-94996000D01*
G04 #@! TO.C,C5*
X134493000Y-96520000D02*
X133477000Y-96520000D01*
X134493000Y-94996000D02*
X133477000Y-94996000D01*
G04 #@! TO.C,C6*
X140589000Y-108077000D02*
X141605000Y-108077000D01*
X140589000Y-110109000D02*
X141605000Y-110109000D01*
G04 #@! TO.C,C7*
X136779000Y-108077000D02*
X137795000Y-108077000D01*
X136779000Y-110109000D02*
X137795000Y-110109000D01*
D12*
G04 #@! TO.C,CHARGING1*
X154330400Y-106324400D02*
X154559000Y-106502200D01*
X154559000Y-106502200D02*
X154533600Y-106400600D01*
X154559000Y-106502200D02*
X154457400Y-106502200D01*
X154508200Y-105156000D02*
X154508200Y-106172000D01*
X153339800Y-105156000D02*
X153339800Y-106172000D01*
X154508200Y-105156000D02*
X153339800Y-105156000D01*
X153339800Y-107950000D02*
X153339800Y-106934000D01*
X154559000Y-106934000D02*
X154559000Y-107950000D01*
D18*
X153924000Y-106293000D02*
X153924000Y-106813000D01*
X154034000Y-106463000D02*
X153814000Y-106463000D01*
X154034000Y-106463000D02*
X153934000Y-106573000D01*
X153814000Y-106463000D02*
X153914000Y-106563000D01*
X154034000Y-106653000D02*
X153814000Y-106653000D01*
D17*
X153678400Y-106730800D02*
X153568400Y-106600800D01*
X153569400Y-106599200D02*
X153579400Y-106679200D01*
X153569400Y-106599200D02*
X153649400Y-106599200D01*
X153569400Y-106383800D02*
X153649400Y-106383800D01*
X153569400Y-106383800D02*
X153579400Y-106463800D01*
X153699400Y-106523800D02*
X153589400Y-106393800D01*
D12*
X154559000Y-106781600D02*
X154457400Y-106781600D01*
X154559000Y-106781600D02*
X154533600Y-106680000D01*
X154330400Y-106603800D02*
X154559000Y-106781600D01*
D11*
X154495500Y-107962700D02*
X154368500Y-108115100D01*
X153403300Y-107962700D02*
X153530300Y-108102400D01*
X154368500Y-108115100D02*
X153543000Y-108115100D01*
X153441400Y-107950000D02*
X154482800Y-107950000D01*
G04 #@! TO.C,D1*
X135810000Y-116133000D02*
X138510000Y-116133000D01*
X135810000Y-112943000D02*
X135810000Y-117943000D01*
X135810000Y-116573000D02*
X138510000Y-116573000D01*
X138510000Y-117943000D02*
X138510000Y-112943000D01*
G04 #@! TO.C,D2*
X150186000Y-102028000D02*
X150186000Y-104728000D01*
X153376000Y-102028000D02*
X148376000Y-102028000D01*
X149746000Y-102028000D02*
X149746000Y-104728000D01*
X148376000Y-104728000D02*
X153376000Y-104728000D01*
G04 #@! TO.C,FET1*
X144881600Y-107061000D02*
X145592800Y-107061000D01*
X144881600Y-106222800D02*
X144881600Y-107061000D01*
X147726400Y-106222800D02*
X147726400Y-107061000D01*
X147015200Y-107061000D02*
X147726400Y-107061000D01*
G04 #@! TO.C,L1*
X137487000Y-104672000D02*
X137087000Y-104672000D01*
X137487000Y-107672000D02*
X137087000Y-107672000D01*
D19*
X137387000Y-106422000D02*
G75*
G02X137387000Y-105922000I0J250000D01*
G01*
X137387000Y-106922000D02*
G75*
G02X137387000Y-106422000I0J250000D01*
G01*
X137387000Y-105922000D02*
G75*
G02X137387000Y-105422000I0J250000D01*
G01*
X137437000Y-106922000D02*
X137437000Y-107272000D01*
X137437000Y-105422000D02*
X137437000Y-105072000D01*
D12*
G04 #@! TO.C,PWRLED1*
X133502400Y-106324400D02*
X133731000Y-106502200D01*
X133731000Y-106502200D02*
X133705600Y-106400600D01*
X133731000Y-106502200D02*
X133629400Y-106502200D01*
X133680200Y-105156000D02*
X133680200Y-106172000D01*
X132511800Y-105156000D02*
X132511800Y-106172000D01*
X133680200Y-105156000D02*
X132511800Y-105156000D01*
X132511800Y-107950000D02*
X132511800Y-106934000D01*
X133731000Y-106934000D02*
X133731000Y-107950000D01*
D18*
X133096000Y-106293000D02*
X133096000Y-106813000D01*
X133206000Y-106463000D02*
X132986000Y-106463000D01*
X133206000Y-106463000D02*
X133106000Y-106573000D01*
X132986000Y-106463000D02*
X133086000Y-106563000D01*
X133206000Y-106653000D02*
X132986000Y-106653000D01*
D17*
X132850400Y-106730800D02*
X132740400Y-106600800D01*
X132741400Y-106599200D02*
X132751400Y-106679200D01*
X132741400Y-106599200D02*
X132821400Y-106599200D01*
X132741400Y-106383800D02*
X132821400Y-106383800D01*
X132741400Y-106383800D02*
X132751400Y-106463800D01*
X132871400Y-106523800D02*
X132761400Y-106393800D01*
D12*
X133731000Y-106781600D02*
X133629400Y-106781600D01*
X133731000Y-106781600D02*
X133705600Y-106680000D01*
X133502400Y-106603800D02*
X133731000Y-106781600D01*
D11*
X133667500Y-107962700D02*
X133540500Y-108115100D01*
X132575300Y-107962700D02*
X132702300Y-108102400D01*
X133540500Y-108115100D02*
X132715000Y-108115100D01*
X132613400Y-107950000D02*
X133654800Y-107950000D01*
G04 #@! TO.C,Q2*
X151282400Y-95377000D02*
X150571200Y-95377000D01*
X151282400Y-96215200D02*
X151282400Y-95377000D01*
X148437600Y-96215200D02*
X148437600Y-95377000D01*
X149148800Y-95377000D02*
X148437600Y-95377000D01*
G04 #@! TO.C,Q3*
X148437600Y-100584000D02*
X149148800Y-100584000D01*
X148437600Y-99745800D02*
X148437600Y-100584000D01*
X151282400Y-99745800D02*
X151282400Y-100584000D01*
X150571200Y-100584000D02*
X151282400Y-100584000D01*
G04 #@! TO.C,R1*
X135382000Y-109347000D02*
X135382000Y-110363000D01*
X133858000Y-109347000D02*
X133858000Y-110363000D01*
G04 #@! TO.C,R2*
X133858000Y-109347001D02*
X133858000Y-110363001D01*
X132334000Y-109347001D02*
X132334000Y-110363001D01*
G04 #@! TO.C,R3*
X154686000Y-109347000D02*
X154686000Y-110363000D01*
X153162000Y-109347000D02*
X153162000Y-110363000D01*
G04 #@! TO.C,R4*
X149352000Y-108839000D02*
X149352000Y-109855000D01*
X147828000Y-108839000D02*
X147828000Y-109855000D01*
G04 #@! TO.C,R5*
X146685000Y-110109000D02*
X145669000Y-110109000D01*
X146685000Y-108585000D02*
X145669000Y-108585000D01*
G04 #@! TO.C,R6*
X137541000Y-93472000D02*
X138557000Y-93472000D01*
X137541000Y-94996000D02*
X138557000Y-94996000D01*
G04 #@! TO.C,R7*
X140843000Y-93472000D02*
X141859000Y-93472000D01*
X140843000Y-94996000D02*
X141859000Y-94996000D01*
G04 #@! TO.C,R8*
X148082000Y-99695000D02*
X148082000Y-100711000D01*
X146558000Y-99695000D02*
X146558000Y-100711000D01*
G04 #@! TO.C,R9*
X146558000Y-96647000D02*
X146558000Y-95631000D01*
X148082000Y-96647000D02*
X148082000Y-95631000D01*
G04 #@! TO.C,R10*
X151638000Y-100584000D02*
X151638000Y-99568000D01*
X153162000Y-100584000D02*
X153162000Y-99568000D01*
G04 #@! TO.C,R11*
X143002000Y-105791000D02*
X143002000Y-104775000D01*
X144526000Y-105791000D02*
X144526000Y-104775000D01*
G04 #@! TO.C,R12*
X144526000Y-107950000D02*
X144526000Y-108966000D01*
X143002000Y-107950000D02*
X143002000Y-108966000D01*
G04 #@! TO.C,R13*
X133477000Y-74041000D02*
X133477000Y-75057000D01*
X131953000Y-74041000D02*
X131953000Y-75057000D01*
G04 #@! TO.C,R14*
X154686000Y-99568000D02*
X154686000Y-100584000D01*
X153162000Y-99568000D02*
X153162000Y-100584000D01*
G04 #@! TO.C,U1*
X152146000Y-108788200D02*
X152146000Y-109918500D01*
X149339300Y-108788200D02*
X149339300Y-109918500D01*
D12*
G04 #@! TO.C,U2*
X144081500Y-96139000D02*
X138620500Y-96139000D01*
D20*
X144081500Y-103378000D02*
X144081500Y-95758000D01*
X138620500Y-95758000D02*
X138620500Y-103378000D01*
X144081500Y-103378000D02*
X138620500Y-103378000D01*
X138620500Y-95758000D02*
X144081500Y-95758000D01*
X138217710Y-95631000D02*
G75*
G03X138217710Y-95631000I-359210J0D01*
G01*
D11*
G04 #@! TO.C,U3*
X139700000Y-106603800D02*
X139700000Y-105473500D01*
X142506700Y-106603800D02*
X142506700Y-105473500D01*
G04 #@! TO.C,U4*
X152831800Y-96672400D02*
X153238200Y-96672400D01*
X154457400Y-95351600D02*
X154457400Y-96139000D01*
X153797000Y-95351600D02*
X154457400Y-95351600D01*
X151612600Y-95351600D02*
X152273000Y-95351600D01*
X151612600Y-96139000D02*
X151612600Y-95351600D01*
G04 #@! TO.C,U5*
X134510000Y-65101000D02*
X152510000Y-65101000D01*
X134510000Y-71101000D02*
X152510000Y-71101000D01*
X133919411Y-71321000D02*
G75*
G03X133919411Y-71321000I-339411J0D01*
G01*
X152510000Y-65101000D02*
X152510000Y-71721000D01*
X134510000Y-90601000D02*
X134510000Y-90011000D01*
X134510000Y-90601000D02*
X136880000Y-90601000D01*
X152510000Y-90601000D02*
X150020000Y-90601000D01*
X152510000Y-90601000D02*
X152510000Y-90061000D01*
X134510000Y-65101000D02*
X134510000Y-71721000D01*
G04 #@! TO.C,USB-UART1*
X147210000Y-118097000D02*
X139810000Y-118097000D01*
X139810000Y-113597000D02*
X139810000Y-114797000D01*
X141710000Y-112097000D02*
X140710000Y-112097000D01*
X146310000Y-112097000D02*
X145310000Y-112097000D01*
X147210000Y-117097000D02*
X147210000Y-118097000D01*
X147574000Y-119197000D02*
X139446000Y-119197000D01*
X139810000Y-118097000D02*
X139810000Y-117097000D01*
X147210000Y-113597000D02*
X147210000Y-114797000D01*
X147574000Y-119126000D02*
X147193000Y-118110000D01*
X139446000Y-119126000D02*
X139827000Y-118110000D01*
D12*
G04 #@! TO.C,RST1*
X135435000Y-113070000D02*
X135435000Y-118070000D01*
X132535000Y-113070000D02*
X132535000Y-118070000D01*
X135382000Y-118110000D02*
X134823200Y-118110000D01*
X133096000Y-118110000D02*
X132537200Y-118110000D01*
X135432800Y-113055400D02*
X134823200Y-113055400D01*
X133096000Y-113055400D02*
X132537200Y-113055400D01*
X134824738Y-115570000D02*
G75*
G03X134824738Y-115570000I-839738J0D01*
G01*
D21*
G04 #@! TO.C,Olimex_Logo_Small*
G36*
X140673916Y-100572027D02*
X140727002Y-100579353D01*
X140778066Y-100600120D01*
X140805862Y-100618467D01*
X140828796Y-100638238D01*
X140849611Y-100659684D01*
X140856295Y-100667909D01*
X140874750Y-100692800D01*
X141288135Y-100693010D01*
X141701520Y-100693220D01*
X141701520Y-100738940D01*
X140669010Y-100738940D01*
X140634815Y-100742007D01*
X140612758Y-100752575D01*
X140600743Y-100772698D01*
X140596675Y-100804429D01*
X140596620Y-100809874D01*
X140598395Y-100835529D01*
X140602928Y-100856358D01*
X140606349Y-100863632D01*
X140624345Y-100876853D01*
X140650891Y-100883833D01*
X140680667Y-100884563D01*
X140708350Y-100879032D01*
X140728617Y-100867232D01*
X140731503Y-100863862D01*
X140739286Y-100843757D01*
X140741836Y-100816251D01*
X140739449Y-100787480D01*
X140732426Y-100763580D01*
X140726160Y-100754180D01*
X140711476Y-100744325D01*
X140690019Y-100739725D01*
X140669010Y-100738940D01*
X141701520Y-100738940D01*
X141701520Y-100811330D01*
X141701520Y-100929440D01*
X141288135Y-100929462D01*
X140874750Y-100929484D01*
X140859510Y-100952799D01*
X140839852Y-100975587D01*
X140811103Y-101000268D01*
X140778288Y-101022990D01*
X140746432Y-101039904D01*
X140745138Y-101040451D01*
X140703865Y-101050908D01*
X140656699Y-101052114D01*
X140609625Y-101044360D01*
X140576796Y-101032265D01*
X140528660Y-101001381D01*
X140485707Y-100959933D01*
X140452609Y-100912559D01*
X140448791Y-100905243D01*
X140432142Y-100855723D01*
X140427996Y-100802247D01*
X140436355Y-100749573D01*
X140448791Y-100717417D01*
X140481713Y-100665933D01*
X140522705Y-100625093D01*
X140569748Y-100595456D01*
X140620825Y-100577581D01*
X140673916Y-100572027D01*
X140673916Y-100572027D01*
G37*
X140673916Y-100572027D02*
X140727002Y-100579353D01*
X140778066Y-100600120D01*
X140805862Y-100618467D01*
X140828796Y-100638238D01*
X140849611Y-100659684D01*
X140856295Y-100667909D01*
X140874750Y-100692800D01*
X141288135Y-100693010D01*
X141701520Y-100693220D01*
X141701520Y-100738940D01*
X140669010Y-100738940D01*
X140634815Y-100742007D01*
X140612758Y-100752575D01*
X140600743Y-100772698D01*
X140596675Y-100804429D01*
X140596620Y-100809874D01*
X140598395Y-100835529D01*
X140602928Y-100856358D01*
X140606349Y-100863632D01*
X140624345Y-100876853D01*
X140650891Y-100883833D01*
X140680667Y-100884563D01*
X140708350Y-100879032D01*
X140728617Y-100867232D01*
X140731503Y-100863862D01*
X140739286Y-100843757D01*
X140741836Y-100816251D01*
X140739449Y-100787480D01*
X140732426Y-100763580D01*
X140726160Y-100754180D01*
X140711476Y-100744325D01*
X140690019Y-100739725D01*
X140669010Y-100738940D01*
X141701520Y-100738940D01*
X141701520Y-100811330D01*
X141701520Y-100929440D01*
X141288135Y-100929462D01*
X140874750Y-100929484D01*
X140859510Y-100952799D01*
X140839852Y-100975587D01*
X140811103Y-101000268D01*
X140778288Y-101022990D01*
X140746432Y-101039904D01*
X140745138Y-101040451D01*
X140703865Y-101050908D01*
X140656699Y-101052114D01*
X140609625Y-101044360D01*
X140576796Y-101032265D01*
X140528660Y-101001381D01*
X140485707Y-100959933D01*
X140452609Y-100912559D01*
X140448791Y-100905243D01*
X140432142Y-100855723D01*
X140427996Y-100802247D01*
X140436355Y-100749573D01*
X140448791Y-100717417D01*
X140481713Y-100665933D01*
X140522705Y-100625093D01*
X140569748Y-100595456D01*
X140620825Y-100577581D01*
X140673916Y-100572027D01*
G36*
X141361469Y-101720681D02*
X141442315Y-101720804D01*
X141521484Y-101721172D01*
X141597439Y-101721785D01*
X141668645Y-101722644D01*
X141733565Y-101723749D01*
X141790665Y-101725100D01*
X141838407Y-101726699D01*
X141875258Y-101728545D01*
X141899680Y-101730639D01*
X141909410Y-101732564D01*
X141923554Y-101741923D01*
X141945533Y-101760292D01*
X141973183Y-101785489D01*
X142004335Y-101815328D01*
X142036824Y-101847626D01*
X142068484Y-101880198D01*
X142097148Y-101910862D01*
X142120650Y-101937432D01*
X142136824Y-101957726D01*
X142137073Y-101958140D01*
X141820070Y-101958140D01*
X141355221Y-101958140D01*
X140890372Y-101958140D01*
X140838746Y-102009371D01*
X140787120Y-102060601D01*
X140787120Y-102239684D01*
X140787120Y-102418768D01*
X140838351Y-102470394D01*
X140862358Y-102494286D01*
X140879321Y-102509364D01*
X140892906Y-102517656D01*
X140906780Y-102521188D01*
X140924609Y-102521988D01*
X140931696Y-102521998D01*
X140956693Y-102521183D01*
X140971776Y-102517334D01*
X140982243Y-102508293D01*
X140989050Y-102498661D01*
X141010443Y-102473993D01*
X141041045Y-102448557D01*
X141075561Y-102426257D01*
X141107302Y-102411480D01*
X141160092Y-102400600D01*
X141214326Y-102403404D01*
X141267152Y-102418955D01*
X141315717Y-102446316D01*
X141357166Y-102484551D01*
X141366835Y-102496709D01*
X141385290Y-102521600D01*
X141598459Y-102521810D01*
X141811627Y-102522020D01*
X141863254Y-102470789D01*
X141914880Y-102419559D01*
X141914880Y-102236679D01*
X141914880Y-102053800D01*
X141867475Y-102005970D01*
X141820070Y-101958140D01*
X142137073Y-101958140D01*
X142143102Y-101968161D01*
X142145766Y-101983190D01*
X142147904Y-102011033D01*
X142149531Y-102049405D01*
X142150660Y-102096022D01*
X142151304Y-102148600D01*
X142151478Y-102204856D01*
X142151195Y-102262503D01*
X142150470Y-102319260D01*
X142149314Y-102372840D01*
X142147743Y-102420961D01*
X142145770Y-102461337D01*
X142143409Y-102491686D01*
X142140672Y-102509721D01*
X142139842Y-102512252D01*
X142130161Y-102527298D01*
X142111578Y-102550250D01*
X142096121Y-102567740D01*
X141179550Y-102567740D01*
X141145355Y-102570807D01*
X141123298Y-102581375D01*
X141111283Y-102601498D01*
X141107215Y-102633229D01*
X141107160Y-102638674D01*
X141108935Y-102664329D01*
X141113468Y-102685158D01*
X141116889Y-102692432D01*
X141134885Y-102705653D01*
X141161431Y-102712633D01*
X141191207Y-102713363D01*
X141218890Y-102707832D01*
X141239157Y-102696032D01*
X141242043Y-102692662D01*
X141249826Y-102672557D01*
X141252376Y-102645051D01*
X141249989Y-102616280D01*
X141242966Y-102592380D01*
X141236700Y-102582980D01*
X141222016Y-102573125D01*
X141200559Y-102568525D01*
X141179550Y-102567740D01*
X142096121Y-102567740D01*
X142086295Y-102578858D01*
X142056509Y-102610873D01*
X142024423Y-102644047D01*
X141992234Y-102676128D01*
X141962144Y-102704869D01*
X141936352Y-102728020D01*
X141917058Y-102743331D01*
X141909410Y-102747864D01*
X141898799Y-102750891D01*
X141881833Y-102753313D01*
X141857081Y-102755185D01*
X141823113Y-102756561D01*
X141778498Y-102757495D01*
X141721806Y-102758042D01*
X141651605Y-102758254D01*
X141635090Y-102758262D01*
X141385290Y-102758284D01*
X141370050Y-102781599D01*
X141350392Y-102804387D01*
X141321643Y-102829068D01*
X141288828Y-102851790D01*
X141256972Y-102868704D01*
X141255678Y-102869251D01*
X141223773Y-102877502D01*
X141184296Y-102880645D01*
X141144035Y-102878683D01*
X141109775Y-102871614D01*
X141103422Y-102869251D01*
X141071723Y-102852680D01*
X141038845Y-102830131D01*
X141009813Y-102805456D01*
X140989652Y-102782504D01*
X140989050Y-102781599D01*
X140973810Y-102758284D01*
X140900011Y-102758262D01*
X140865419Y-102757435D01*
X140834387Y-102755239D01*
X140811589Y-102752065D01*
X140804761Y-102750244D01*
X140791425Y-102741782D01*
X140769949Y-102724189D01*
X140742473Y-102699585D01*
X140711132Y-102670092D01*
X140678067Y-102637832D01*
X140645414Y-102604924D01*
X140615312Y-102573492D01*
X140589899Y-102545656D01*
X140571313Y-102523538D01*
X140561692Y-102509258D01*
X140561545Y-102508930D01*
X140558317Y-102493663D01*
X140555613Y-102465480D01*
X140553434Y-102426695D01*
X140551782Y-102379623D01*
X140550656Y-102326579D01*
X140550059Y-102269877D01*
X140549991Y-102211833D01*
X140550454Y-102154760D01*
X140551448Y-102100974D01*
X140552976Y-102052790D01*
X140555038Y-102012521D01*
X140557635Y-101982483D01*
X140560768Y-101964991D01*
X140561276Y-101963610D01*
X140570892Y-101948989D01*
X140589763Y-101926595D01*
X140615624Y-101898632D01*
X140646211Y-101867302D01*
X140679257Y-101834808D01*
X140712498Y-101803354D01*
X140743667Y-101775142D01*
X140770499Y-101752375D01*
X140790729Y-101737257D01*
X140798585Y-101732844D01*
X140811744Y-101730538D01*
X140838583Y-101728473D01*
X140877565Y-101726650D01*
X140927156Y-101725069D01*
X140985819Y-101723729D01*
X141052019Y-101722633D01*
X141124219Y-101721779D01*
X141200885Y-101721169D01*
X141280480Y-101720803D01*
X141361469Y-101720681D01*
X141361469Y-101720681D01*
G37*
X141361469Y-101720681D02*
X141442315Y-101720804D01*
X141521484Y-101721172D01*
X141597439Y-101721785D01*
X141668645Y-101722644D01*
X141733565Y-101723749D01*
X141790665Y-101725100D01*
X141838407Y-101726699D01*
X141875258Y-101728545D01*
X141899680Y-101730639D01*
X141909410Y-101732564D01*
X141923554Y-101741923D01*
X141945533Y-101760292D01*
X141973183Y-101785489D01*
X142004335Y-101815328D01*
X142036824Y-101847626D01*
X142068484Y-101880198D01*
X142097148Y-101910862D01*
X142120650Y-101937432D01*
X142136824Y-101957726D01*
X142137073Y-101958140D01*
X141820070Y-101958140D01*
X141355221Y-101958140D01*
X140890372Y-101958140D01*
X140838746Y-102009371D01*
X140787120Y-102060601D01*
X140787120Y-102239684D01*
X140787120Y-102418768D01*
X140838351Y-102470394D01*
X140862358Y-102494286D01*
X140879321Y-102509364D01*
X140892906Y-102517656D01*
X140906780Y-102521188D01*
X140924609Y-102521988D01*
X140931696Y-102521998D01*
X140956693Y-102521183D01*
X140971776Y-102517334D01*
X140982243Y-102508293D01*
X140989050Y-102498661D01*
X141010443Y-102473993D01*
X141041045Y-102448557D01*
X141075561Y-102426257D01*
X141107302Y-102411480D01*
X141160092Y-102400600D01*
X141214326Y-102403404D01*
X141267152Y-102418955D01*
X141315717Y-102446316D01*
X141357166Y-102484551D01*
X141366835Y-102496709D01*
X141385290Y-102521600D01*
X141598459Y-102521810D01*
X141811627Y-102522020D01*
X141863254Y-102470789D01*
X141914880Y-102419559D01*
X141914880Y-102236679D01*
X141914880Y-102053800D01*
X141867475Y-102005970D01*
X141820070Y-101958140D01*
X142137073Y-101958140D01*
X142143102Y-101968161D01*
X142145766Y-101983190D01*
X142147904Y-102011033D01*
X142149531Y-102049405D01*
X142150660Y-102096022D01*
X142151304Y-102148600D01*
X142151478Y-102204856D01*
X142151195Y-102262503D01*
X142150470Y-102319260D01*
X142149314Y-102372840D01*
X142147743Y-102420961D01*
X142145770Y-102461337D01*
X142143409Y-102491686D01*
X142140672Y-102509721D01*
X142139842Y-102512252D01*
X142130161Y-102527298D01*
X142111578Y-102550250D01*
X142096121Y-102567740D01*
X141179550Y-102567740D01*
X141145355Y-102570807D01*
X141123298Y-102581375D01*
X141111283Y-102601498D01*
X141107215Y-102633229D01*
X141107160Y-102638674D01*
X141108935Y-102664329D01*
X141113468Y-102685158D01*
X141116889Y-102692432D01*
X141134885Y-102705653D01*
X141161431Y-102712633D01*
X141191207Y-102713363D01*
X141218890Y-102707832D01*
X141239157Y-102696032D01*
X141242043Y-102692662D01*
X141249826Y-102672557D01*
X141252376Y-102645051D01*
X141249989Y-102616280D01*
X141242966Y-102592380D01*
X141236700Y-102582980D01*
X141222016Y-102573125D01*
X141200559Y-102568525D01*
X141179550Y-102567740D01*
X142096121Y-102567740D01*
X142086295Y-102578858D01*
X142056509Y-102610873D01*
X142024423Y-102644047D01*
X141992234Y-102676128D01*
X141962144Y-102704869D01*
X141936352Y-102728020D01*
X141917058Y-102743331D01*
X141909410Y-102747864D01*
X141898799Y-102750891D01*
X141881833Y-102753313D01*
X141857081Y-102755185D01*
X141823113Y-102756561D01*
X141778498Y-102757495D01*
X141721806Y-102758042D01*
X141651605Y-102758254D01*
X141635090Y-102758262D01*
X141385290Y-102758284D01*
X141370050Y-102781599D01*
X141350392Y-102804387D01*
X141321643Y-102829068D01*
X141288828Y-102851790D01*
X141256972Y-102868704D01*
X141255678Y-102869251D01*
X141223773Y-102877502D01*
X141184296Y-102880645D01*
X141144035Y-102878683D01*
X141109775Y-102871614D01*
X141103422Y-102869251D01*
X141071723Y-102852680D01*
X141038845Y-102830131D01*
X141009813Y-102805456D01*
X140989652Y-102782504D01*
X140989050Y-102781599D01*
X140973810Y-102758284D01*
X140900011Y-102758262D01*
X140865419Y-102757435D01*
X140834387Y-102755239D01*
X140811589Y-102752065D01*
X140804761Y-102750244D01*
X140791425Y-102741782D01*
X140769949Y-102724189D01*
X140742473Y-102699585D01*
X140711132Y-102670092D01*
X140678067Y-102637832D01*
X140645414Y-102604924D01*
X140615312Y-102573492D01*
X140589899Y-102545656D01*
X140571313Y-102523538D01*
X140561692Y-102509258D01*
X140561545Y-102508930D01*
X140558317Y-102493663D01*
X140555613Y-102465480D01*
X140553434Y-102426695D01*
X140551782Y-102379623D01*
X140550656Y-102326579D01*
X140550059Y-102269877D01*
X140549991Y-102211833D01*
X140550454Y-102154760D01*
X140551448Y-102100974D01*
X140552976Y-102052790D01*
X140555038Y-102012521D01*
X140557635Y-101982483D01*
X140560768Y-101964991D01*
X140561276Y-101963610D01*
X140570892Y-101948989D01*
X140589763Y-101926595D01*
X140615624Y-101898632D01*
X140646211Y-101867302D01*
X140679257Y-101834808D01*
X140712498Y-101803354D01*
X140743667Y-101775142D01*
X140770499Y-101752375D01*
X140790729Y-101737257D01*
X140798585Y-101732844D01*
X140811744Y-101730538D01*
X140838583Y-101728473D01*
X140877565Y-101726650D01*
X140927156Y-101725069D01*
X140985819Y-101723729D01*
X141052019Y-101722633D01*
X141124219Y-101721779D01*
X141200885Y-101721169D01*
X141280480Y-101720803D01*
X141361469Y-101720681D01*
G36*
X142023094Y-96512698D02*
X142071273Y-96514886D01*
X142114558Y-96524846D01*
X142128742Y-96530795D01*
X142165381Y-96554333D01*
X142201932Y-96587079D01*
X142233350Y-96623980D01*
X142251900Y-96654118D01*
X142259751Y-96677480D01*
X142032990Y-96677480D01*
X141998795Y-96680546D01*
X141976738Y-96691115D01*
X141964723Y-96711238D01*
X141960655Y-96742969D01*
X141960600Y-96748414D01*
X141962375Y-96774069D01*
X141966908Y-96794898D01*
X141970329Y-96802172D01*
X141988325Y-96815393D01*
X142014871Y-96822373D01*
X142044647Y-96823103D01*
X142072330Y-96817572D01*
X142092597Y-96805772D01*
X142095483Y-96802403D01*
X142103266Y-96782297D01*
X142105816Y-96754791D01*
X142103429Y-96726020D01*
X142096406Y-96702120D01*
X142090140Y-96692720D01*
X142075456Y-96682865D01*
X142053999Y-96678265D01*
X142032990Y-96677480D01*
X142259751Y-96677480D01*
X142263874Y-96689748D01*
X142270290Y-96732504D01*
X142270784Y-96776123D01*
X142264993Y-96814343D01*
X142261770Y-96824366D01*
X142235326Y-96874233D01*
X142197044Y-96919591D01*
X142150288Y-96957040D01*
X142108577Y-96979217D01*
X142076803Y-96987386D01*
X142037414Y-96990411D01*
X141997131Y-96988315D01*
X141962675Y-96981121D01*
X141956133Y-96978686D01*
X141927015Y-96966520D01*
X141814267Y-97079080D01*
X141701520Y-97191639D01*
X141701520Y-97233689D01*
X141701520Y-97275739D01*
X141946123Y-97519535D01*
X141997019Y-97570563D01*
X142044788Y-97619037D01*
X142088287Y-97663752D01*
X142126369Y-97703504D01*
X142157888Y-97737089D01*
X142181701Y-97763304D01*
X142196660Y-97780943D01*
X142201393Y-97787850D01*
X142204808Y-97803583D01*
X142207628Y-97832078D01*
X142209854Y-97870866D01*
X142211484Y-97917482D01*
X142212516Y-97969457D01*
X142212948Y-98024325D01*
X142212780Y-98079619D01*
X142212009Y-98132871D01*
X142210635Y-98181614D01*
X142208655Y-98223382D01*
X142206069Y-98255706D01*
X142202874Y-98276120D01*
X142201684Y-98279830D01*
X142192068Y-98294451D01*
X142173197Y-98316845D01*
X142147336Y-98344808D01*
X142116749Y-98376138D01*
X142083703Y-98408632D01*
X142050462Y-98440086D01*
X142019293Y-98468298D01*
X141992461Y-98491065D01*
X141972231Y-98506183D01*
X141964375Y-98510596D01*
X141951253Y-98512881D01*
X141924392Y-98514930D01*
X141885292Y-98516743D01*
X141835453Y-98518319D01*
X141776374Y-98519658D01*
X141709556Y-98520761D01*
X141636497Y-98521627D01*
X141558698Y-98522256D01*
X141477658Y-98522649D01*
X141394877Y-98522806D01*
X141311854Y-98522725D01*
X141230089Y-98522409D01*
X141151082Y-98521855D01*
X141076333Y-98521065D01*
X141007340Y-98520039D01*
X140945604Y-98518776D01*
X140892625Y-98517276D01*
X140849901Y-98515540D01*
X140818933Y-98513567D01*
X140801221Y-98511358D01*
X140798585Y-98510596D01*
X140783256Y-98500960D01*
X140760002Y-98482391D01*
X140731089Y-98457090D01*
X140698783Y-98427261D01*
X140665348Y-98395106D01*
X140633050Y-98362829D01*
X140604155Y-98332633D01*
X140580928Y-98306720D01*
X140565635Y-98287294D01*
X140561276Y-98279830D01*
X140557881Y-98263899D01*
X140555093Y-98235243D01*
X140552913Y-98196326D01*
X140551339Y-98149618D01*
X140550369Y-98097585D01*
X140550001Y-98042693D01*
X140550235Y-97987411D01*
X140551068Y-97934206D01*
X140552500Y-97885544D01*
X140554529Y-97843893D01*
X140557153Y-97811719D01*
X140560372Y-97791491D01*
X140561567Y-97787850D01*
X140569079Y-97777486D01*
X140586309Y-97757638D01*
X140612112Y-97729510D01*
X140645343Y-97694305D01*
X140684855Y-97653228D01*
X140729504Y-97607483D01*
X140778144Y-97558273D01*
X140816837Y-97519535D01*
X141061440Y-97275739D01*
X141061440Y-97233689D01*
X141061440Y-97191639D01*
X140948692Y-97079080D01*
X140835945Y-96966520D01*
X140806827Y-96978686D01*
X140764661Y-96989423D01*
X140716810Y-96990622D01*
X140669244Y-96982560D01*
X140637756Y-96970805D01*
X140589620Y-96939921D01*
X140546667Y-96898473D01*
X140513569Y-96851099D01*
X140509751Y-96843783D01*
X140493102Y-96794263D01*
X140488956Y-96740787D01*
X140497315Y-96688113D01*
X140509751Y-96655957D01*
X140538297Y-96611529D01*
X140576123Y-96571039D01*
X140618484Y-96539294D01*
X140632663Y-96531548D01*
X140656926Y-96521502D01*
X140682259Y-96515948D01*
X140714559Y-96513799D01*
X140729970Y-96513650D01*
X140779951Y-96517134D01*
X140821444Y-96528917D01*
X140859189Y-96550994D01*
X140896206Y-96583634D01*
X140934813Y-96630896D01*
X140957034Y-96677480D01*
X140729970Y-96677480D01*
X140695775Y-96680546D01*
X140673718Y-96691115D01*
X140661703Y-96711238D01*
X140657635Y-96742969D01*
X140657580Y-96748414D01*
X140659355Y-96774069D01*
X140663888Y-96794898D01*
X140667309Y-96802172D01*
X140685305Y-96815393D01*
X140711851Y-96822373D01*
X140741627Y-96823103D01*
X140769310Y-96817572D01*
X140789577Y-96805772D01*
X140792463Y-96802403D01*
X140800246Y-96782297D01*
X140802796Y-96754791D01*
X140800409Y-96726020D01*
X140793386Y-96702120D01*
X140787120Y-96692720D01*
X140772436Y-96682865D01*
X140750979Y-96678265D01*
X140729970Y-96677480D01*
X140957034Y-96677480D01*
X140958805Y-96681192D01*
X140968346Y-96730406D01*
X140971509Y-96772730D01*
X141126600Y-96928940D01*
X141166836Y-96969921D01*
X141203749Y-97008383D01*
X141235885Y-97042744D01*
X141261793Y-97071422D01*
X141280023Y-97092837D01*
X141289121Y-97105406D01*
X141289675Y-97106601D01*
X141293570Y-97125638D01*
X141296197Y-97155868D01*
X141297594Y-97193575D01*
X141297801Y-97235043D01*
X141296855Y-97276555D01*
X141294795Y-97314396D01*
X141291659Y-97344850D01*
X141287487Y-97364200D01*
X141286993Y-97365430D01*
X141279481Y-97375794D01*
X141262251Y-97395642D01*
X141236448Y-97423770D01*
X141203217Y-97458975D01*
X141163705Y-97500052D01*
X141119056Y-97545797D01*
X141070416Y-97595007D01*
X141031723Y-97633745D01*
X140787120Y-97877541D01*
X140787120Y-98030190D01*
X140787120Y-98182839D01*
X140838746Y-98234069D01*
X140890372Y-98285300D01*
X141063536Y-98285300D01*
X141236700Y-98285300D01*
X141236678Y-98134805D01*
X141236656Y-97984310D01*
X141213341Y-97969070D01*
X141190837Y-97949674D01*
X141166345Y-97921283D01*
X141143762Y-97888959D01*
X141126986Y-97857763D01*
X141126165Y-97855837D01*
X141116310Y-97816987D01*
X141114551Y-97771569D01*
X141120586Y-97725733D01*
X141134112Y-97685629D01*
X141134591Y-97684657D01*
X141163137Y-97640229D01*
X141200963Y-97599739D01*
X141243324Y-97567994D01*
X141257503Y-97560248D01*
X141297748Y-97546960D01*
X141344914Y-97541398D01*
X141393093Y-97543586D01*
X141436378Y-97553546D01*
X141450562Y-97559495D01*
X141487149Y-97582989D01*
X141523619Y-97615645D01*
X141554954Y-97652439D01*
X141573616Y-97682818D01*
X141581398Y-97706180D01*
X141354810Y-97706180D01*
X141320615Y-97709246D01*
X141298558Y-97719815D01*
X141286543Y-97739938D01*
X141282475Y-97771669D01*
X141282420Y-97777114D01*
X141284195Y-97802769D01*
X141288728Y-97823598D01*
X141292149Y-97830872D01*
X141310145Y-97844093D01*
X141336691Y-97851073D01*
X141366467Y-97851803D01*
X141394150Y-97846272D01*
X141414417Y-97834472D01*
X141417303Y-97831103D01*
X141425086Y-97810997D01*
X141427636Y-97783491D01*
X141425249Y-97754720D01*
X141418226Y-97730820D01*
X141411960Y-97721420D01*
X141397276Y-97711565D01*
X141375819Y-97706965D01*
X141354810Y-97706180D01*
X141581398Y-97706180D01*
X141587912Y-97725737D01*
X141593798Y-97774340D01*
X141590826Y-97821889D01*
X141584572Y-97847200D01*
X141568662Y-97882140D01*
X141545849Y-97917754D01*
X141519921Y-97948815D01*
X141496279Y-97969070D01*
X141472964Y-97984310D01*
X141472942Y-98134805D01*
X141472920Y-98285300D01*
X141673149Y-98285300D01*
X141873379Y-98285300D01*
X141924609Y-98233674D01*
X141975840Y-98182048D01*
X141975840Y-98029794D01*
X141975840Y-97877541D01*
X141731237Y-97633745D01*
X141680341Y-97582717D01*
X141632572Y-97534243D01*
X141589073Y-97489528D01*
X141550991Y-97449776D01*
X141519471Y-97416191D01*
X141495659Y-97389976D01*
X141480700Y-97372337D01*
X141475967Y-97365430D01*
X141471076Y-97345623D01*
X141467587Y-97314446D01*
X141465500Y-97275704D01*
X141464815Y-97233205D01*
X141465532Y-97190752D01*
X141467652Y-97152151D01*
X141471174Y-97121209D01*
X141475957Y-97102050D01*
X141484043Y-97090380D01*
X141501536Y-97069708D01*
X141526926Y-97041663D01*
X141558701Y-97007877D01*
X141595352Y-96969979D01*
X141635368Y-96929602D01*
X141639787Y-96925201D01*
X141792960Y-96772873D01*
X141792960Y-96734293D01*
X141799929Y-96689946D01*
X141819360Y-96644630D01*
X141849042Y-96601486D01*
X141886763Y-96563658D01*
X141930309Y-96534287D01*
X141935683Y-96531548D01*
X141975928Y-96518260D01*
X142023094Y-96512698D01*
X142023094Y-96512698D01*
G37*
X142023094Y-96512698D02*
X142071273Y-96514886D01*
X142114558Y-96524846D01*
X142128742Y-96530795D01*
X142165381Y-96554333D01*
X142201932Y-96587079D01*
X142233350Y-96623980D01*
X142251900Y-96654118D01*
X142259751Y-96677480D01*
X142032990Y-96677480D01*
X141998795Y-96680546D01*
X141976738Y-96691115D01*
X141964723Y-96711238D01*
X141960655Y-96742969D01*
X141960600Y-96748414D01*
X141962375Y-96774069D01*
X141966908Y-96794898D01*
X141970329Y-96802172D01*
X141988325Y-96815393D01*
X142014871Y-96822373D01*
X142044647Y-96823103D01*
X142072330Y-96817572D01*
X142092597Y-96805772D01*
X142095483Y-96802403D01*
X142103266Y-96782297D01*
X142105816Y-96754791D01*
X142103429Y-96726020D01*
X142096406Y-96702120D01*
X142090140Y-96692720D01*
X142075456Y-96682865D01*
X142053999Y-96678265D01*
X142032990Y-96677480D01*
X142259751Y-96677480D01*
X142263874Y-96689748D01*
X142270290Y-96732504D01*
X142270784Y-96776123D01*
X142264993Y-96814343D01*
X142261770Y-96824366D01*
X142235326Y-96874233D01*
X142197044Y-96919591D01*
X142150288Y-96957040D01*
X142108577Y-96979217D01*
X142076803Y-96987386D01*
X142037414Y-96990411D01*
X141997131Y-96988315D01*
X141962675Y-96981121D01*
X141956133Y-96978686D01*
X141927015Y-96966520D01*
X141814267Y-97079080D01*
X141701520Y-97191639D01*
X141701520Y-97233689D01*
X141701520Y-97275739D01*
X141946123Y-97519535D01*
X141997019Y-97570563D01*
X142044788Y-97619037D01*
X142088287Y-97663752D01*
X142126369Y-97703504D01*
X142157888Y-97737089D01*
X142181701Y-97763304D01*
X142196660Y-97780943D01*
X142201393Y-97787850D01*
X142204808Y-97803583D01*
X142207628Y-97832078D01*
X142209854Y-97870866D01*
X142211484Y-97917482D01*
X142212516Y-97969457D01*
X142212948Y-98024325D01*
X142212780Y-98079619D01*
X142212009Y-98132871D01*
X142210635Y-98181614D01*
X142208655Y-98223382D01*
X142206069Y-98255706D01*
X142202874Y-98276120D01*
X142201684Y-98279830D01*
X142192068Y-98294451D01*
X142173197Y-98316845D01*
X142147336Y-98344808D01*
X142116749Y-98376138D01*
X142083703Y-98408632D01*
X142050462Y-98440086D01*
X142019293Y-98468298D01*
X141992461Y-98491065D01*
X141972231Y-98506183D01*
X141964375Y-98510596D01*
X141951253Y-98512881D01*
X141924392Y-98514930D01*
X141885292Y-98516743D01*
X141835453Y-98518319D01*
X141776374Y-98519658D01*
X141709556Y-98520761D01*
X141636497Y-98521627D01*
X141558698Y-98522256D01*
X141477658Y-98522649D01*
X141394877Y-98522806D01*
X141311854Y-98522725D01*
X141230089Y-98522409D01*
X141151082Y-98521855D01*
X141076333Y-98521065D01*
X141007340Y-98520039D01*
X140945604Y-98518776D01*
X140892625Y-98517276D01*
X140849901Y-98515540D01*
X140818933Y-98513567D01*
X140801221Y-98511358D01*
X140798585Y-98510596D01*
X140783256Y-98500960D01*
X140760002Y-98482391D01*
X140731089Y-98457090D01*
X140698783Y-98427261D01*
X140665348Y-98395106D01*
X140633050Y-98362829D01*
X140604155Y-98332633D01*
X140580928Y-98306720D01*
X140565635Y-98287294D01*
X140561276Y-98279830D01*
X140557881Y-98263899D01*
X140555093Y-98235243D01*
X140552913Y-98196326D01*
X140551339Y-98149618D01*
X140550369Y-98097585D01*
X140550001Y-98042693D01*
X140550235Y-97987411D01*
X140551068Y-97934206D01*
X140552500Y-97885544D01*
X140554529Y-97843893D01*
X140557153Y-97811719D01*
X140560372Y-97791491D01*
X140561567Y-97787850D01*
X140569079Y-97777486D01*
X140586309Y-97757638D01*
X140612112Y-97729510D01*
X140645343Y-97694305D01*
X140684855Y-97653228D01*
X140729504Y-97607483D01*
X140778144Y-97558273D01*
X140816837Y-97519535D01*
X141061440Y-97275739D01*
X141061440Y-97233689D01*
X141061440Y-97191639D01*
X140948692Y-97079080D01*
X140835945Y-96966520D01*
X140806827Y-96978686D01*
X140764661Y-96989423D01*
X140716810Y-96990622D01*
X140669244Y-96982560D01*
X140637756Y-96970805D01*
X140589620Y-96939921D01*
X140546667Y-96898473D01*
X140513569Y-96851099D01*
X140509751Y-96843783D01*
X140493102Y-96794263D01*
X140488956Y-96740787D01*
X140497315Y-96688113D01*
X140509751Y-96655957D01*
X140538297Y-96611529D01*
X140576123Y-96571039D01*
X140618484Y-96539294D01*
X140632663Y-96531548D01*
X140656926Y-96521502D01*
X140682259Y-96515948D01*
X140714559Y-96513799D01*
X140729970Y-96513650D01*
X140779951Y-96517134D01*
X140821444Y-96528917D01*
X140859189Y-96550994D01*
X140896206Y-96583634D01*
X140934813Y-96630896D01*
X140957034Y-96677480D01*
X140729970Y-96677480D01*
X140695775Y-96680546D01*
X140673718Y-96691115D01*
X140661703Y-96711238D01*
X140657635Y-96742969D01*
X140657580Y-96748414D01*
X140659355Y-96774069D01*
X140663888Y-96794898D01*
X140667309Y-96802172D01*
X140685305Y-96815393D01*
X140711851Y-96822373D01*
X140741627Y-96823103D01*
X140769310Y-96817572D01*
X140789577Y-96805772D01*
X140792463Y-96802403D01*
X140800246Y-96782297D01*
X140802796Y-96754791D01*
X140800409Y-96726020D01*
X140793386Y-96702120D01*
X140787120Y-96692720D01*
X140772436Y-96682865D01*
X140750979Y-96678265D01*
X140729970Y-96677480D01*
X140957034Y-96677480D01*
X140958805Y-96681192D01*
X140968346Y-96730406D01*
X140971509Y-96772730D01*
X141126600Y-96928940D01*
X141166836Y-96969921D01*
X141203749Y-97008383D01*
X141235885Y-97042744D01*
X141261793Y-97071422D01*
X141280023Y-97092837D01*
X141289121Y-97105406D01*
X141289675Y-97106601D01*
X141293570Y-97125638D01*
X141296197Y-97155868D01*
X141297594Y-97193575D01*
X141297801Y-97235043D01*
X141296855Y-97276555D01*
X141294795Y-97314396D01*
X141291659Y-97344850D01*
X141287487Y-97364200D01*
X141286993Y-97365430D01*
X141279481Y-97375794D01*
X141262251Y-97395642D01*
X141236448Y-97423770D01*
X141203217Y-97458975D01*
X141163705Y-97500052D01*
X141119056Y-97545797D01*
X141070416Y-97595007D01*
X141031723Y-97633745D01*
X140787120Y-97877541D01*
X140787120Y-98030190D01*
X140787120Y-98182839D01*
X140838746Y-98234069D01*
X140890372Y-98285300D01*
X141063536Y-98285300D01*
X141236700Y-98285300D01*
X141236678Y-98134805D01*
X141236656Y-97984310D01*
X141213341Y-97969070D01*
X141190837Y-97949674D01*
X141166345Y-97921283D01*
X141143762Y-97888959D01*
X141126986Y-97857763D01*
X141126165Y-97855837D01*
X141116310Y-97816987D01*
X141114551Y-97771569D01*
X141120586Y-97725733D01*
X141134112Y-97685629D01*
X141134591Y-97684657D01*
X141163137Y-97640229D01*
X141200963Y-97599739D01*
X141243324Y-97567994D01*
X141257503Y-97560248D01*
X141297748Y-97546960D01*
X141344914Y-97541398D01*
X141393093Y-97543586D01*
X141436378Y-97553546D01*
X141450562Y-97559495D01*
X141487149Y-97582989D01*
X141523619Y-97615645D01*
X141554954Y-97652439D01*
X141573616Y-97682818D01*
X141581398Y-97706180D01*
X141354810Y-97706180D01*
X141320615Y-97709246D01*
X141298558Y-97719815D01*
X141286543Y-97739938D01*
X141282475Y-97771669D01*
X141282420Y-97777114D01*
X141284195Y-97802769D01*
X141288728Y-97823598D01*
X141292149Y-97830872D01*
X141310145Y-97844093D01*
X141336691Y-97851073D01*
X141366467Y-97851803D01*
X141394150Y-97846272D01*
X141414417Y-97834472D01*
X141417303Y-97831103D01*
X141425086Y-97810997D01*
X141427636Y-97783491D01*
X141425249Y-97754720D01*
X141418226Y-97730820D01*
X141411960Y-97721420D01*
X141397276Y-97711565D01*
X141375819Y-97706965D01*
X141354810Y-97706180D01*
X141581398Y-97706180D01*
X141587912Y-97725737D01*
X141593798Y-97774340D01*
X141590826Y-97821889D01*
X141584572Y-97847200D01*
X141568662Y-97882140D01*
X141545849Y-97917754D01*
X141519921Y-97948815D01*
X141496279Y-97969070D01*
X141472964Y-97984310D01*
X141472942Y-98134805D01*
X141472920Y-98285300D01*
X141673149Y-98285300D01*
X141873379Y-98285300D01*
X141924609Y-98233674D01*
X141975840Y-98182048D01*
X141975840Y-98029794D01*
X141975840Y-97877541D01*
X141731237Y-97633745D01*
X141680341Y-97582717D01*
X141632572Y-97534243D01*
X141589073Y-97489528D01*
X141550991Y-97449776D01*
X141519471Y-97416191D01*
X141495659Y-97389976D01*
X141480700Y-97372337D01*
X141475967Y-97365430D01*
X141471076Y-97345623D01*
X141467587Y-97314446D01*
X141465500Y-97275704D01*
X141464815Y-97233205D01*
X141465532Y-97190752D01*
X141467652Y-97152151D01*
X141471174Y-97121209D01*
X141475957Y-97102050D01*
X141484043Y-97090380D01*
X141501536Y-97069708D01*
X141526926Y-97041663D01*
X141558701Y-97007877D01*
X141595352Y-96969979D01*
X141635368Y-96929602D01*
X141639787Y-96925201D01*
X141792960Y-96772873D01*
X141792960Y-96734293D01*
X141799929Y-96689946D01*
X141819360Y-96644630D01*
X141849042Y-96601486D01*
X141886763Y-96563658D01*
X141930309Y-96534287D01*
X141935683Y-96531548D01*
X141975928Y-96518260D01*
X142023094Y-96512698D01*
G36*
X142008021Y-98629943D02*
X142056796Y-98630546D01*
X142103946Y-98639830D01*
X142128742Y-98649424D01*
X142165127Y-98672585D01*
X142201594Y-98705088D01*
X142233112Y-98741916D01*
X142252065Y-98772478D01*
X142259681Y-98795840D01*
X142032990Y-98795840D01*
X141998795Y-98798907D01*
X141976738Y-98809475D01*
X141964723Y-98829598D01*
X141960655Y-98861329D01*
X141960600Y-98866774D01*
X141962375Y-98892429D01*
X141966908Y-98913258D01*
X141970329Y-98920532D01*
X141988325Y-98933753D01*
X142014871Y-98940733D01*
X142044647Y-98941463D01*
X142072330Y-98935932D01*
X142092597Y-98924132D01*
X142095483Y-98920762D01*
X142103266Y-98900657D01*
X142105816Y-98873151D01*
X142103429Y-98844380D01*
X142096406Y-98820480D01*
X142090140Y-98811080D01*
X142075456Y-98801225D01*
X142053999Y-98796625D01*
X142032990Y-98795840D01*
X142259681Y-98795840D01*
X142265041Y-98812281D01*
X142270235Y-98859265D01*
X142267672Y-98907525D01*
X142257373Y-98951150D01*
X142251312Y-98965537D01*
X142223247Y-99008699D01*
X142184753Y-99048696D01*
X142140570Y-99080881D01*
X142125204Y-99089165D01*
X142082365Y-99103712D01*
X142034759Y-99109526D01*
X141988372Y-99106317D01*
X141956862Y-99097351D01*
X141925163Y-99080780D01*
X141892285Y-99058231D01*
X141863253Y-99033556D01*
X141843092Y-99010604D01*
X141842490Y-99009699D01*
X141827250Y-98986384D01*
X141307185Y-98986362D01*
X140787120Y-98986340D01*
X140787120Y-99018781D01*
X140787327Y-99027514D01*
X140788644Y-99035714D01*
X140792112Y-99044598D01*
X140798775Y-99055382D01*
X140809673Y-99069286D01*
X140825850Y-99087524D01*
X140848347Y-99111317D01*
X140878208Y-99141879D01*
X140916473Y-99180429D01*
X140964186Y-99228184D01*
X140979580Y-99243571D01*
X141172040Y-99435920D01*
X141244375Y-99435898D01*
X141277999Y-99435733D01*
X141299842Y-99434646D01*
X141313361Y-99431717D01*
X141322015Y-99426023D01*
X141329263Y-99416644D01*
X141331950Y-99412561D01*
X141354062Y-99387138D01*
X141385597Y-99361302D01*
X141421331Y-99338838D01*
X141453820Y-99324268D01*
X141497481Y-99315743D01*
X141546256Y-99316346D01*
X141593406Y-99325630D01*
X141618202Y-99335224D01*
X141654587Y-99358385D01*
X141691053Y-99390888D01*
X141722572Y-99427716D01*
X141741524Y-99458278D01*
X141749141Y-99481640D01*
X141522450Y-99481640D01*
X141488255Y-99484707D01*
X141466198Y-99495275D01*
X141454183Y-99515398D01*
X141450115Y-99547129D01*
X141450060Y-99552574D01*
X141451835Y-99578229D01*
X141456368Y-99599058D01*
X141459789Y-99606332D01*
X141477785Y-99619553D01*
X141504331Y-99626533D01*
X141534107Y-99627263D01*
X141561790Y-99621732D01*
X141582057Y-99609932D01*
X141584943Y-99606562D01*
X141592726Y-99586457D01*
X141595276Y-99558951D01*
X141592889Y-99530180D01*
X141585866Y-99506280D01*
X141579600Y-99496880D01*
X141564916Y-99487025D01*
X141543459Y-99482425D01*
X141522450Y-99481640D01*
X141749141Y-99481640D01*
X141754501Y-99498081D01*
X141759695Y-99545065D01*
X141757132Y-99593325D01*
X141746833Y-99636950D01*
X141740772Y-99651336D01*
X141712707Y-99694499D01*
X141674213Y-99734496D01*
X141630030Y-99766681D01*
X141614664Y-99774965D01*
X141571825Y-99789512D01*
X141524219Y-99795326D01*
X141477832Y-99792117D01*
X141446322Y-99783151D01*
X141414623Y-99766580D01*
X141381745Y-99744031D01*
X141352713Y-99719356D01*
X141332552Y-99696404D01*
X141331950Y-99695499D01*
X141324405Y-99684694D01*
X141316600Y-99677880D01*
X141305078Y-99674136D01*
X141286379Y-99672540D01*
X141257046Y-99672172D01*
X141244375Y-99672162D01*
X141172040Y-99672140D01*
X140979580Y-99864489D01*
X140928999Y-99915076D01*
X140888160Y-99956113D01*
X140856022Y-99988817D01*
X140831543Y-100014406D01*
X140813679Y-100034096D01*
X140801390Y-100049105D01*
X140793632Y-100060650D01*
X140789364Y-100069949D01*
X140787543Y-100078219D01*
X140787127Y-100086677D01*
X140787120Y-100089279D01*
X140787120Y-100121720D01*
X141307185Y-100121698D01*
X141827250Y-100121676D01*
X141842490Y-100098361D01*
X141864602Y-100072938D01*
X141896137Y-100047102D01*
X141931871Y-100024638D01*
X141964360Y-100010068D01*
X142008021Y-100001543D01*
X142056796Y-100002146D01*
X142103946Y-100011430D01*
X142128742Y-100021024D01*
X142165213Y-100044244D01*
X142201694Y-100076795D01*
X142233136Y-100113633D01*
X142251900Y-100144078D01*
X142259751Y-100167440D01*
X142032990Y-100167440D01*
X141998795Y-100170507D01*
X141976738Y-100181075D01*
X141964723Y-100201198D01*
X141960655Y-100232929D01*
X141960600Y-100238374D01*
X141962375Y-100264029D01*
X141966908Y-100284858D01*
X141970329Y-100292132D01*
X141988325Y-100305353D01*
X142014871Y-100312333D01*
X142044647Y-100313063D01*
X142072330Y-100307532D01*
X142092597Y-100295732D01*
X142095483Y-100292362D01*
X142103266Y-100272257D01*
X142105816Y-100244751D01*
X142103429Y-100215980D01*
X142096406Y-100192080D01*
X142090140Y-100182680D01*
X142075456Y-100172825D01*
X142053999Y-100168225D01*
X142032990Y-100167440D01*
X142259751Y-100167440D01*
X142263874Y-100179708D01*
X142270290Y-100222464D01*
X142270784Y-100266083D01*
X142264993Y-100304303D01*
X142261770Y-100314326D01*
X142235326Y-100364193D01*
X142197044Y-100409551D01*
X142150288Y-100447000D01*
X142108577Y-100469177D01*
X142077138Y-100477269D01*
X142038049Y-100480352D01*
X141998051Y-100478436D01*
X141963885Y-100471532D01*
X141956862Y-100468951D01*
X141925163Y-100452380D01*
X141892285Y-100429831D01*
X141863253Y-100405156D01*
X141843092Y-100382204D01*
X141842490Y-100381299D01*
X141827250Y-100357984D01*
X141189075Y-100357962D01*
X140550900Y-100357940D01*
X140550900Y-100175556D01*
X140551240Y-100116749D01*
X140552214Y-100065350D01*
X140553748Y-100023202D01*
X140555771Y-99992145D01*
X140558211Y-99974021D01*
X140558880Y-99971721D01*
X140565977Y-99961527D01*
X140582654Y-99941982D01*
X140607643Y-99914439D01*
X140639674Y-99880252D01*
X140677481Y-99840776D01*
X140719795Y-99797363D01*
X140764621Y-99752096D01*
X140962383Y-99553921D01*
X140767304Y-99359665D01*
X140721887Y-99314062D01*
X140679625Y-99270903D01*
X140641823Y-99231578D01*
X140609791Y-99197477D01*
X140584835Y-99169991D01*
X140568264Y-99150509D01*
X140561563Y-99140890D01*
X140557940Y-99128728D01*
X140555172Y-99109870D01*
X140553172Y-99082607D01*
X140551852Y-99045232D01*
X140551123Y-98996039D01*
X140550900Y-98933321D01*
X140550900Y-98933245D01*
X140550900Y-98750120D01*
X141189075Y-98750098D01*
X141827250Y-98750076D01*
X141842490Y-98726761D01*
X141864602Y-98701338D01*
X141896137Y-98675502D01*
X141931871Y-98653038D01*
X141964360Y-98638468D01*
X142008021Y-98629943D01*
X142008021Y-98629943D01*
G37*
X142008021Y-98629943D02*
X142056796Y-98630546D01*
X142103946Y-98639830D01*
X142128742Y-98649424D01*
X142165127Y-98672585D01*
X142201594Y-98705088D01*
X142233112Y-98741916D01*
X142252065Y-98772478D01*
X142259681Y-98795840D01*
X142032990Y-98795840D01*
X141998795Y-98798907D01*
X141976738Y-98809475D01*
X141964723Y-98829598D01*
X141960655Y-98861329D01*
X141960600Y-98866774D01*
X141962375Y-98892429D01*
X141966908Y-98913258D01*
X141970329Y-98920532D01*
X141988325Y-98933753D01*
X142014871Y-98940733D01*
X142044647Y-98941463D01*
X142072330Y-98935932D01*
X142092597Y-98924132D01*
X142095483Y-98920762D01*
X142103266Y-98900657D01*
X142105816Y-98873151D01*
X142103429Y-98844380D01*
X142096406Y-98820480D01*
X142090140Y-98811080D01*
X142075456Y-98801225D01*
X142053999Y-98796625D01*
X142032990Y-98795840D01*
X142259681Y-98795840D01*
X142265041Y-98812281D01*
X142270235Y-98859265D01*
X142267672Y-98907525D01*
X142257373Y-98951150D01*
X142251312Y-98965537D01*
X142223247Y-99008699D01*
X142184753Y-99048696D01*
X142140570Y-99080881D01*
X142125204Y-99089165D01*
X142082365Y-99103712D01*
X142034759Y-99109526D01*
X141988372Y-99106317D01*
X141956862Y-99097351D01*
X141925163Y-99080780D01*
X141892285Y-99058231D01*
X141863253Y-99033556D01*
X141843092Y-99010604D01*
X141842490Y-99009699D01*
X141827250Y-98986384D01*
X141307185Y-98986362D01*
X140787120Y-98986340D01*
X140787120Y-99018781D01*
X140787327Y-99027514D01*
X140788644Y-99035714D01*
X140792112Y-99044598D01*
X140798775Y-99055382D01*
X140809673Y-99069286D01*
X140825850Y-99087524D01*
X140848347Y-99111317D01*
X140878208Y-99141879D01*
X140916473Y-99180429D01*
X140964186Y-99228184D01*
X140979580Y-99243571D01*
X141172040Y-99435920D01*
X141244375Y-99435898D01*
X141277999Y-99435733D01*
X141299842Y-99434646D01*
X141313361Y-99431717D01*
X141322015Y-99426023D01*
X141329263Y-99416644D01*
X141331950Y-99412561D01*
X141354062Y-99387138D01*
X141385597Y-99361302D01*
X141421331Y-99338838D01*
X141453820Y-99324268D01*
X141497481Y-99315743D01*
X141546256Y-99316346D01*
X141593406Y-99325630D01*
X141618202Y-99335224D01*
X141654587Y-99358385D01*
X141691053Y-99390888D01*
X141722572Y-99427716D01*
X141741524Y-99458278D01*
X141749141Y-99481640D01*
X141522450Y-99481640D01*
X141488255Y-99484707D01*
X141466198Y-99495275D01*
X141454183Y-99515398D01*
X141450115Y-99547129D01*
X141450060Y-99552574D01*
X141451835Y-99578229D01*
X141456368Y-99599058D01*
X141459789Y-99606332D01*
X141477785Y-99619553D01*
X141504331Y-99626533D01*
X141534107Y-99627263D01*
X141561790Y-99621732D01*
X141582057Y-99609932D01*
X141584943Y-99606562D01*
X141592726Y-99586457D01*
X141595276Y-99558951D01*
X141592889Y-99530180D01*
X141585866Y-99506280D01*
X141579600Y-99496880D01*
X141564916Y-99487025D01*
X141543459Y-99482425D01*
X141522450Y-99481640D01*
X141749141Y-99481640D01*
X141754501Y-99498081D01*
X141759695Y-99545065D01*
X141757132Y-99593325D01*
X141746833Y-99636950D01*
X141740772Y-99651336D01*
X141712707Y-99694499D01*
X141674213Y-99734496D01*
X141630030Y-99766681D01*
X141614664Y-99774965D01*
X141571825Y-99789512D01*
X141524219Y-99795326D01*
X141477832Y-99792117D01*
X141446322Y-99783151D01*
X141414623Y-99766580D01*
X141381745Y-99744031D01*
X141352713Y-99719356D01*
X141332552Y-99696404D01*
X141331950Y-99695499D01*
X141324405Y-99684694D01*
X141316600Y-99677880D01*
X141305078Y-99674136D01*
X141286379Y-99672540D01*
X141257046Y-99672172D01*
X141244375Y-99672162D01*
X141172040Y-99672140D01*
X140979580Y-99864489D01*
X140928999Y-99915076D01*
X140888160Y-99956113D01*
X140856022Y-99988817D01*
X140831543Y-100014406D01*
X140813679Y-100034096D01*
X140801390Y-100049105D01*
X140793632Y-100060650D01*
X140789364Y-100069949D01*
X140787543Y-100078219D01*
X140787127Y-100086677D01*
X140787120Y-100089279D01*
X140787120Y-100121720D01*
X141307185Y-100121698D01*
X141827250Y-100121676D01*
X141842490Y-100098361D01*
X141864602Y-100072938D01*
X141896137Y-100047102D01*
X141931871Y-100024638D01*
X141964360Y-100010068D01*
X142008021Y-100001543D01*
X142056796Y-100002146D01*
X142103946Y-100011430D01*
X142128742Y-100021024D01*
X142165213Y-100044244D01*
X142201694Y-100076795D01*
X142233136Y-100113633D01*
X142251900Y-100144078D01*
X142259751Y-100167440D01*
X142032990Y-100167440D01*
X141998795Y-100170507D01*
X141976738Y-100181075D01*
X141964723Y-100201198D01*
X141960655Y-100232929D01*
X141960600Y-100238374D01*
X141962375Y-100264029D01*
X141966908Y-100284858D01*
X141970329Y-100292132D01*
X141988325Y-100305353D01*
X142014871Y-100312333D01*
X142044647Y-100313063D01*
X142072330Y-100307532D01*
X142092597Y-100295732D01*
X142095483Y-100292362D01*
X142103266Y-100272257D01*
X142105816Y-100244751D01*
X142103429Y-100215980D01*
X142096406Y-100192080D01*
X142090140Y-100182680D01*
X142075456Y-100172825D01*
X142053999Y-100168225D01*
X142032990Y-100167440D01*
X142259751Y-100167440D01*
X142263874Y-100179708D01*
X142270290Y-100222464D01*
X142270784Y-100266083D01*
X142264993Y-100304303D01*
X142261770Y-100314326D01*
X142235326Y-100364193D01*
X142197044Y-100409551D01*
X142150288Y-100447000D01*
X142108577Y-100469177D01*
X142077138Y-100477269D01*
X142038049Y-100480352D01*
X141998051Y-100478436D01*
X141963885Y-100471532D01*
X141956862Y-100468951D01*
X141925163Y-100452380D01*
X141892285Y-100429831D01*
X141863253Y-100405156D01*
X141843092Y-100382204D01*
X141842490Y-100381299D01*
X141827250Y-100357984D01*
X141189075Y-100357962D01*
X140550900Y-100357940D01*
X140550900Y-100175556D01*
X140551240Y-100116749D01*
X140552214Y-100065350D01*
X140553748Y-100023202D01*
X140555771Y-99992145D01*
X140558211Y-99974021D01*
X140558880Y-99971721D01*
X140565977Y-99961527D01*
X140582654Y-99941982D01*
X140607643Y-99914439D01*
X140639674Y-99880252D01*
X140677481Y-99840776D01*
X140719795Y-99797363D01*
X140764621Y-99752096D01*
X140962383Y-99553921D01*
X140767304Y-99359665D01*
X140721887Y-99314062D01*
X140679625Y-99270903D01*
X140641823Y-99231578D01*
X140609791Y-99197477D01*
X140584835Y-99169991D01*
X140568264Y-99150509D01*
X140561563Y-99140890D01*
X140557940Y-99128728D01*
X140555172Y-99109870D01*
X140553172Y-99082607D01*
X140551852Y-99045232D01*
X140551123Y-98996039D01*
X140550900Y-98933321D01*
X140550900Y-98933245D01*
X140550900Y-98750120D01*
X141189075Y-98750098D01*
X141827250Y-98750076D01*
X141842490Y-98726761D01*
X141864602Y-98701338D01*
X141896137Y-98675502D01*
X141931871Y-98653038D01*
X141964360Y-98638468D01*
X142008021Y-98629943D01*
G36*
X142023094Y-100574158D02*
X142071273Y-100576346D01*
X142114558Y-100586306D01*
X142128742Y-100592255D01*
X142165381Y-100615793D01*
X142201932Y-100648539D01*
X142233350Y-100685440D01*
X142251900Y-100715578D01*
X142259740Y-100738940D01*
X142032990Y-100738940D01*
X141998795Y-100742007D01*
X141976738Y-100752575D01*
X141964723Y-100772698D01*
X141960655Y-100804429D01*
X141960600Y-100809874D01*
X141962375Y-100835529D01*
X141966908Y-100856358D01*
X141970329Y-100863632D01*
X141988325Y-100876853D01*
X142014871Y-100883833D01*
X142044647Y-100884563D01*
X142072330Y-100879032D01*
X142092597Y-100867232D01*
X142095483Y-100863862D01*
X142103266Y-100843757D01*
X142105816Y-100816251D01*
X142103429Y-100787480D01*
X142096406Y-100763580D01*
X142090140Y-100754180D01*
X142075456Y-100744325D01*
X142053999Y-100739725D01*
X142032990Y-100738940D01*
X142259740Y-100738940D01*
X142263973Y-100751554D01*
X142270359Y-100794649D01*
X142270700Y-100838567D01*
X142264637Y-100877010D01*
X142261617Y-100886270D01*
X142246013Y-100917768D01*
X142223825Y-100950897D01*
X142198987Y-100980440D01*
X142175432Y-101001183D01*
X142174459Y-101001830D01*
X142151144Y-101017070D01*
X142151122Y-101179240D01*
X142150844Y-101238508D01*
X142149956Y-101284414D01*
X142148349Y-101318824D01*
X142145914Y-101343609D01*
X142142544Y-101360637D01*
X142140176Y-101367555D01*
X142130540Y-101382884D01*
X142111971Y-101406138D01*
X142086670Y-101435051D01*
X142056840Y-101467357D01*
X142024686Y-101500792D01*
X141992409Y-101533090D01*
X141962213Y-101561985D01*
X141936300Y-101585212D01*
X141916874Y-101600505D01*
X141909410Y-101604864D01*
X141902664Y-101606727D01*
X141891195Y-101608363D01*
X141874117Y-101609787D01*
X141850543Y-101611012D01*
X141819586Y-101612049D01*
X141780358Y-101612914D01*
X141731974Y-101613619D01*
X141673546Y-101614178D01*
X141604186Y-101614603D01*
X141523009Y-101614909D01*
X141429128Y-101615108D01*
X141321654Y-101615213D01*
X141217895Y-101615240D01*
X140550900Y-101615240D01*
X140550900Y-101497130D01*
X140550900Y-101379020D01*
X141181659Y-101379020D01*
X141812419Y-101379020D01*
X141863649Y-101327394D01*
X141914880Y-101275768D01*
X141914858Y-101146419D01*
X141914836Y-101017070D01*
X141891521Y-101001830D01*
X141869018Y-100982434D01*
X141844525Y-100954043D01*
X141821942Y-100921719D01*
X141805166Y-100890523D01*
X141804345Y-100888597D01*
X141794490Y-100849747D01*
X141792731Y-100804329D01*
X141798766Y-100758493D01*
X141812292Y-100718389D01*
X141812771Y-100717417D01*
X141841317Y-100672989D01*
X141879143Y-100632499D01*
X141921504Y-100600754D01*
X141935683Y-100593008D01*
X141975928Y-100579720D01*
X142023094Y-100574158D01*
X142023094Y-100574158D01*
G37*
X142023094Y-100574158D02*
X142071273Y-100576346D01*
X142114558Y-100586306D01*
X142128742Y-100592255D01*
X142165381Y-100615793D01*
X142201932Y-100648539D01*
X142233350Y-100685440D01*
X142251900Y-100715578D01*
X142259740Y-100738940D01*
X142032990Y-100738940D01*
X141998795Y-100742007D01*
X141976738Y-100752575D01*
X141964723Y-100772698D01*
X141960655Y-100804429D01*
X141960600Y-100809874D01*
X141962375Y-100835529D01*
X141966908Y-100856358D01*
X141970329Y-100863632D01*
X141988325Y-100876853D01*
X142014871Y-100883833D01*
X142044647Y-100884563D01*
X142072330Y-100879032D01*
X142092597Y-100867232D01*
X142095483Y-100863862D01*
X142103266Y-100843757D01*
X142105816Y-100816251D01*
X142103429Y-100787480D01*
X142096406Y-100763580D01*
X142090140Y-100754180D01*
X142075456Y-100744325D01*
X142053999Y-100739725D01*
X142032990Y-100738940D01*
X142259740Y-100738940D01*
X142263973Y-100751554D01*
X142270359Y-100794649D01*
X142270700Y-100838567D01*
X142264637Y-100877010D01*
X142261617Y-100886270D01*
X142246013Y-100917768D01*
X142223825Y-100950897D01*
X142198987Y-100980440D01*
X142175432Y-101001183D01*
X142174459Y-101001830D01*
X142151144Y-101017070D01*
X142151122Y-101179240D01*
X142150844Y-101238508D01*
X142149956Y-101284414D01*
X142148349Y-101318824D01*
X142145914Y-101343609D01*
X142142544Y-101360637D01*
X142140176Y-101367555D01*
X142130540Y-101382884D01*
X142111971Y-101406138D01*
X142086670Y-101435051D01*
X142056840Y-101467357D01*
X142024686Y-101500792D01*
X141992409Y-101533090D01*
X141962213Y-101561985D01*
X141936300Y-101585212D01*
X141916874Y-101600505D01*
X141909410Y-101604864D01*
X141902664Y-101606727D01*
X141891195Y-101608363D01*
X141874117Y-101609787D01*
X141850543Y-101611012D01*
X141819586Y-101612049D01*
X141780358Y-101612914D01*
X141731974Y-101613619D01*
X141673546Y-101614178D01*
X141604186Y-101614603D01*
X141523009Y-101614909D01*
X141429128Y-101615108D01*
X141321654Y-101615213D01*
X141217895Y-101615240D01*
X140550900Y-101615240D01*
X140550900Y-101497130D01*
X140550900Y-101379020D01*
X141181659Y-101379020D01*
X141812419Y-101379020D01*
X141863649Y-101327394D01*
X141914880Y-101275768D01*
X141914858Y-101146419D01*
X141914836Y-101017070D01*
X141891521Y-101001830D01*
X141869018Y-100982434D01*
X141844525Y-100954043D01*
X141821942Y-100921719D01*
X141805166Y-100890523D01*
X141804345Y-100888597D01*
X141794490Y-100849747D01*
X141792731Y-100804329D01*
X141798766Y-100758493D01*
X141812292Y-100718389D01*
X141812771Y-100717417D01*
X141841317Y-100672989D01*
X141879143Y-100632499D01*
X141921504Y-100600754D01*
X141935683Y-100593008D01*
X141975928Y-100579720D01*
X142023094Y-100574158D01*
G04 #@! TD*
G04 #@! TO.C,Q1*
D15*
X136821333Y-100541666D02*
X136779000Y-100626333D01*
X136694333Y-100711000D01*
X136567333Y-100838000D01*
X136525000Y-100922666D01*
X136525000Y-101007333D01*
X136736666Y-100965000D02*
X136694333Y-101049666D01*
X136609666Y-101134333D01*
X136440333Y-101176666D01*
X136144000Y-101176666D01*
X135974666Y-101134333D01*
X135890000Y-101049666D01*
X135847666Y-100965000D01*
X135847666Y-100795666D01*
X135890000Y-100711000D01*
X135974666Y-100626333D01*
X136144000Y-100584000D01*
X136440333Y-100584000D01*
X136609666Y-100626333D01*
X136694333Y-100711000D01*
X136736666Y-100795666D01*
X136736666Y-100965000D01*
X136736666Y-99737333D02*
X136736666Y-100245333D01*
X136736666Y-99991333D02*
X135847666Y-99991333D01*
X135974666Y-100076000D01*
X136059333Y-100160666D01*
X136101666Y-100245333D01*
D19*
X132022857Y-100183904D02*
X131946666Y-100145809D01*
X131908571Y-100107714D01*
X131870476Y-100031523D01*
X131870476Y-99802952D01*
X131908571Y-99726761D01*
X131946666Y-99688666D01*
X132022857Y-99650571D01*
X132137142Y-99650571D01*
X132213333Y-99688666D01*
X132251428Y-99726761D01*
X132289523Y-99802952D01*
X132289523Y-100031523D01*
X132251428Y-100107714D01*
X132213333Y-100145809D01*
X132137142Y-100183904D01*
X132022857Y-100183904D01*
G04 #@! TO.C,BAT1*
D22*
X150612928Y-111714642D02*
X150703642Y-111744880D01*
X150733880Y-111775119D01*
X150764119Y-111835595D01*
X150764119Y-111926309D01*
X150733880Y-111986785D01*
X150703642Y-112017023D01*
X150643166Y-112047261D01*
X150401261Y-112047261D01*
X150401261Y-111412261D01*
X150612928Y-111412261D01*
X150673404Y-111442500D01*
X150703642Y-111472738D01*
X150733880Y-111533214D01*
X150733880Y-111593690D01*
X150703642Y-111654166D01*
X150673404Y-111684404D01*
X150612928Y-111714642D01*
X150401261Y-111714642D01*
X151006023Y-111865833D02*
X151308404Y-111865833D01*
X150945547Y-112047261D02*
X151157214Y-111412261D01*
X151368880Y-112047261D01*
X151489833Y-111412261D02*
X151852690Y-111412261D01*
X151671261Y-112047261D02*
X151671261Y-111412261D01*
X152396976Y-112047261D02*
X152034119Y-112047261D01*
X152215547Y-112047261D02*
X152215547Y-111412261D01*
X152155071Y-111502976D01*
X152094595Y-111563452D01*
X152034119Y-111593690D01*
G04 #@! TO.C,C1*
X148499285Y-105706333D02*
X148529523Y-105736571D01*
X148559761Y-105827285D01*
X148559761Y-105887761D01*
X148529523Y-105978476D01*
X148469047Y-106038952D01*
X148408571Y-106069190D01*
X148287619Y-106099428D01*
X148196904Y-106099428D01*
X148075952Y-106069190D01*
X148015476Y-106038952D01*
X147955000Y-105978476D01*
X147924761Y-105887761D01*
X147924761Y-105827285D01*
X147955000Y-105736571D01*
X147985238Y-105706333D01*
X148559761Y-105101571D02*
X148559761Y-105464428D01*
X148559761Y-105283000D02*
X147924761Y-105283000D01*
X148015476Y-105343476D01*
X148075952Y-105403952D01*
X148106190Y-105464428D01*
G04 #@! TO.C,C2*
D10*
X136080500Y-97808142D02*
X136044214Y-97844428D01*
X135935357Y-97880714D01*
X135862785Y-97880714D01*
X135753928Y-97844428D01*
X135681357Y-97771857D01*
X135645071Y-97699285D01*
X135608785Y-97554142D01*
X135608785Y-97445285D01*
X135645071Y-97300142D01*
X135681357Y-97227571D01*
X135753928Y-97155000D01*
X135862785Y-97118714D01*
X135935357Y-97118714D01*
X136044214Y-97155000D01*
X136080500Y-97191285D01*
X136370785Y-97191285D02*
X136407071Y-97155000D01*
X136479642Y-97118714D01*
X136661071Y-97118714D01*
X136733642Y-97155000D01*
X136769928Y-97191285D01*
X136806214Y-97263857D01*
X136806214Y-97336428D01*
X136769928Y-97445285D01*
X136334500Y-97880714D01*
X136806214Y-97880714D01*
G04 #@! TO.C,C3*
X136080500Y-103650142D02*
X136044214Y-103686428D01*
X135935357Y-103722714D01*
X135862785Y-103722714D01*
X135753928Y-103686428D01*
X135681357Y-103613857D01*
X135645071Y-103541285D01*
X135608785Y-103396142D01*
X135608785Y-103287285D01*
X135645071Y-103142142D01*
X135681357Y-103069571D01*
X135753928Y-102997000D01*
X135862785Y-102960714D01*
X135935357Y-102960714D01*
X136044214Y-102997000D01*
X136080500Y-103033285D01*
X136334500Y-102960714D02*
X136806214Y-102960714D01*
X136552214Y-103251000D01*
X136661071Y-103251000D01*
X136733642Y-103287285D01*
X136769928Y-103323571D01*
X136806214Y-103396142D01*
X136806214Y-103577571D01*
X136769928Y-103650142D01*
X136733642Y-103686428D01*
X136661071Y-103722714D01*
X136443357Y-103722714D01*
X136370785Y-103686428D01*
X136334500Y-103650142D01*
G04 #@! TO.C,C4*
D22*
X143277166Y-95502185D02*
X143246928Y-95532423D01*
X143156214Y-95562661D01*
X143095738Y-95562661D01*
X143005023Y-95532423D01*
X142944547Y-95471947D01*
X142914309Y-95411471D01*
X142884071Y-95290519D01*
X142884071Y-95199804D01*
X142914309Y-95078852D01*
X142944547Y-95018376D01*
X143005023Y-94957900D01*
X143095738Y-94927661D01*
X143156214Y-94927661D01*
X143246928Y-94957900D01*
X143277166Y-94988138D01*
X143821452Y-95139328D02*
X143821452Y-95562661D01*
X143670261Y-94897423D02*
X143519071Y-95350995D01*
X143912166Y-95350995D01*
G04 #@! TO.C,C5*
D10*
X133858000Y-94633142D02*
X133821714Y-94669428D01*
X133712857Y-94705714D01*
X133640285Y-94705714D01*
X133531428Y-94669428D01*
X133458857Y-94596857D01*
X133422571Y-94524285D01*
X133386285Y-94379142D01*
X133386285Y-94270285D01*
X133422571Y-94125142D01*
X133458857Y-94052571D01*
X133531428Y-93980000D01*
X133640285Y-93943714D01*
X133712857Y-93943714D01*
X133821714Y-93980000D01*
X133858000Y-94016285D01*
X134547428Y-93943714D02*
X134184571Y-93943714D01*
X134148285Y-94306571D01*
X134184571Y-94270285D01*
X134257142Y-94234000D01*
X134438571Y-94234000D01*
X134511142Y-94270285D01*
X134547428Y-94306571D01*
X134583714Y-94379142D01*
X134583714Y-94560571D01*
X134547428Y-94633142D01*
X134511142Y-94669428D01*
X134438571Y-94705714D01*
X134257142Y-94705714D01*
X134184571Y-94669428D01*
X134148285Y-94633142D01*
G04 #@! TO.C,C6*
D22*
X143038285Y-107547833D02*
X143068523Y-107578071D01*
X143098761Y-107668785D01*
X143098761Y-107729261D01*
X143068523Y-107819976D01*
X143008047Y-107880452D01*
X142947571Y-107910690D01*
X142826619Y-107940928D01*
X142735904Y-107940928D01*
X142614952Y-107910690D01*
X142554476Y-107880452D01*
X142494000Y-107819976D01*
X142463761Y-107729261D01*
X142463761Y-107668785D01*
X142494000Y-107578071D01*
X142524238Y-107547833D01*
X142463761Y-107003547D02*
X142463761Y-107124500D01*
X142494000Y-107184976D01*
X142524238Y-107215214D01*
X142614952Y-107275690D01*
X142735904Y-107305928D01*
X142977809Y-107305928D01*
X143038285Y-107275690D01*
X143068523Y-107245452D01*
X143098761Y-107184976D01*
X143098761Y-107064023D01*
X143068523Y-107003547D01*
X143038285Y-106973309D01*
X142977809Y-106943071D01*
X142826619Y-106943071D01*
X142766142Y-106973309D01*
X142735904Y-107003547D01*
X142705666Y-107064023D01*
X142705666Y-107184976D01*
X142735904Y-107245452D01*
X142766142Y-107275690D01*
X142826619Y-107305928D01*
G04 #@! TO.C,C7*
X138451166Y-110589785D02*
X138420928Y-110620023D01*
X138330214Y-110650261D01*
X138269738Y-110650261D01*
X138179023Y-110620023D01*
X138118547Y-110559547D01*
X138088309Y-110499071D01*
X138058071Y-110378119D01*
X138058071Y-110287404D01*
X138088309Y-110166452D01*
X138118547Y-110105976D01*
X138179023Y-110045500D01*
X138269738Y-110015261D01*
X138330214Y-110015261D01*
X138420928Y-110045500D01*
X138451166Y-110075738D01*
X138662833Y-110015261D02*
X139086166Y-110015261D01*
X138814023Y-110650261D01*
G04 #@! TO.C,CHARGING1*
X152944285Y-109334904D02*
X152974523Y-109365142D01*
X153004761Y-109455857D01*
X153004761Y-109516333D01*
X152974523Y-109607047D01*
X152914047Y-109667523D01*
X152853571Y-109697761D01*
X152732619Y-109728000D01*
X152641904Y-109728000D01*
X152520952Y-109697761D01*
X152460476Y-109667523D01*
X152400000Y-109607047D01*
X152369761Y-109516333D01*
X152369761Y-109455857D01*
X152400000Y-109365142D01*
X152430238Y-109334904D01*
X153004761Y-109062761D02*
X152369761Y-109062761D01*
X152672142Y-109062761D02*
X152672142Y-108699904D01*
X153004761Y-108699904D02*
X152369761Y-108699904D01*
X152823333Y-108427761D02*
X152823333Y-108125380D01*
X153004761Y-108488238D02*
X152369761Y-108276571D01*
X153004761Y-108064904D01*
X153004761Y-107490380D02*
X152702380Y-107702047D01*
X153004761Y-107853238D02*
X152369761Y-107853238D01*
X152369761Y-107611333D01*
X152400000Y-107550857D01*
X152430238Y-107520619D01*
X152490714Y-107490380D01*
X152581428Y-107490380D01*
X152641904Y-107520619D01*
X152672142Y-107550857D01*
X152702380Y-107611333D01*
X152702380Y-107853238D01*
X152400000Y-106885619D02*
X152369761Y-106946095D01*
X152369761Y-107036809D01*
X152400000Y-107127523D01*
X152460476Y-107188000D01*
X152520952Y-107218238D01*
X152641904Y-107248476D01*
X152732619Y-107248476D01*
X152853571Y-107218238D01*
X152914047Y-107188000D01*
X152974523Y-107127523D01*
X153004761Y-107036809D01*
X153004761Y-106976333D01*
X152974523Y-106885619D01*
X152944285Y-106855380D01*
X152732619Y-106855380D01*
X152732619Y-106976333D01*
X153004761Y-106583238D02*
X152369761Y-106583238D01*
X153004761Y-106280857D02*
X152369761Y-106280857D01*
X153004761Y-105918000D01*
X152369761Y-105918000D01*
X152400000Y-105283000D02*
X152369761Y-105343476D01*
X152369761Y-105434190D01*
X152400000Y-105524904D01*
X152460476Y-105585380D01*
X152520952Y-105615619D01*
X152641904Y-105645857D01*
X152732619Y-105645857D01*
X152853571Y-105615619D01*
X152914047Y-105585380D01*
X152974523Y-105524904D01*
X153004761Y-105434190D01*
X153004761Y-105373714D01*
X152974523Y-105283000D01*
X152944285Y-105252761D01*
X152732619Y-105252761D01*
X152732619Y-105373714D01*
X153004761Y-104648000D02*
X153004761Y-105010857D01*
X153004761Y-104829428D02*
X152369761Y-104829428D01*
X152460476Y-104889904D01*
X152520952Y-104950380D01*
X152551190Y-105010857D01*
G04 #@! TO.C,D1*
X136691309Y-111729761D02*
X136691309Y-111094761D01*
X136842500Y-111094761D01*
X136933214Y-111125000D01*
X136993690Y-111185476D01*
X137023928Y-111245952D01*
X137054166Y-111366904D01*
X137054166Y-111457619D01*
X137023928Y-111578571D01*
X136993690Y-111639047D01*
X136933214Y-111699523D01*
X136842500Y-111729761D01*
X136691309Y-111729761D01*
X137658928Y-111729761D02*
X137296071Y-111729761D01*
X137477500Y-111729761D02*
X137477500Y-111094761D01*
X137417023Y-111185476D01*
X137356547Y-111245952D01*
X137296071Y-111276190D01*
G04 #@! TO.C,D2*
X150661309Y-101633261D02*
X150661309Y-100998261D01*
X150812500Y-100998261D01*
X150903214Y-101028500D01*
X150963690Y-101088976D01*
X150993928Y-101149452D01*
X151024166Y-101270404D01*
X151024166Y-101361119D01*
X150993928Y-101482071D01*
X150963690Y-101542547D01*
X150903214Y-101603023D01*
X150812500Y-101633261D01*
X150661309Y-101633261D01*
X151266071Y-101058738D02*
X151296309Y-101028500D01*
X151356785Y-100998261D01*
X151507976Y-100998261D01*
X151568452Y-101028500D01*
X151598690Y-101058738D01*
X151628928Y-101119214D01*
X151628928Y-101179690D01*
X151598690Y-101270404D01*
X151235833Y-101633261D01*
X151628928Y-101633261D01*
G04 #@! TO.C,FET1*
D10*
X146249571Y-104140000D02*
X146249571Y-104394000D01*
X146648714Y-104394000D02*
X145886714Y-104394000D01*
X145886714Y-104031142D01*
X146249571Y-103740857D02*
X146249571Y-103486857D01*
X146648714Y-103378000D02*
X146648714Y-103740857D01*
X145886714Y-103740857D01*
X145886714Y-103378000D01*
X145886714Y-103160285D02*
X145886714Y-102724857D01*
X146648714Y-102942571D02*
X145886714Y-102942571D01*
X146648714Y-102071714D02*
X146648714Y-102507142D01*
X146648714Y-102289428D02*
X145886714Y-102289428D01*
X145995571Y-102362000D01*
X146068142Y-102434571D01*
X146104428Y-102507142D01*
G04 #@! TO.C,L1*
X138366500Y-104421214D02*
X138003642Y-104421214D01*
X138003642Y-103659214D01*
X139019642Y-104421214D02*
X138584214Y-104421214D01*
X138801928Y-104421214D02*
X138801928Y-103659214D01*
X138729357Y-103768071D01*
X138656785Y-103840642D01*
X138584214Y-103876928D01*
G04 #@! TO.C,PWRLED1*
D22*
X134780261Y-108246333D02*
X134145261Y-108246333D01*
X134145261Y-108004428D01*
X134175500Y-107943952D01*
X134205738Y-107913714D01*
X134266214Y-107883476D01*
X134356928Y-107883476D01*
X134417404Y-107913714D01*
X134447642Y-107943952D01*
X134477880Y-108004428D01*
X134477880Y-108246333D01*
X134145261Y-107671809D02*
X134780261Y-107520619D01*
X134326690Y-107399666D01*
X134780261Y-107278714D01*
X134145261Y-107127523D01*
X134780261Y-106522761D02*
X134477880Y-106734428D01*
X134780261Y-106885619D02*
X134145261Y-106885619D01*
X134145261Y-106643714D01*
X134175500Y-106583238D01*
X134205738Y-106553000D01*
X134266214Y-106522761D01*
X134356928Y-106522761D01*
X134417404Y-106553000D01*
X134447642Y-106583238D01*
X134477880Y-106643714D01*
X134477880Y-106885619D01*
X134780261Y-105948238D02*
X134780261Y-106250619D01*
X134145261Y-106250619D01*
X134447642Y-105736571D02*
X134447642Y-105524904D01*
X134780261Y-105434190D02*
X134780261Y-105736571D01*
X134145261Y-105736571D01*
X134145261Y-105434190D01*
X134780261Y-105162047D02*
X134145261Y-105162047D01*
X134145261Y-105010857D01*
X134175500Y-104920142D01*
X134235976Y-104859666D01*
X134296452Y-104829428D01*
X134417404Y-104799190D01*
X134508119Y-104799190D01*
X134629071Y-104829428D01*
X134689547Y-104859666D01*
X134750023Y-104920142D01*
X134780261Y-105010857D01*
X134780261Y-105162047D01*
X134780261Y-104194428D02*
X134780261Y-104557285D01*
X134780261Y-104375857D02*
X134145261Y-104375857D01*
X134235976Y-104436333D01*
X134296452Y-104496809D01*
X134326690Y-104557285D01*
G04 #@! TO.C,Q2*
D10*
X149134285Y-94560571D02*
X149098000Y-94633142D01*
X149025428Y-94705714D01*
X148916571Y-94814571D01*
X148880285Y-94887142D01*
X148880285Y-94959714D01*
X149061714Y-94923428D02*
X149025428Y-94996000D01*
X148952857Y-95068571D01*
X148807714Y-95104857D01*
X148553714Y-95104857D01*
X148408571Y-95068571D01*
X148336000Y-94996000D01*
X148299714Y-94923428D01*
X148299714Y-94778285D01*
X148336000Y-94705714D01*
X148408571Y-94633142D01*
X148553714Y-94596857D01*
X148807714Y-94596857D01*
X148952857Y-94633142D01*
X149025428Y-94705714D01*
X149061714Y-94778285D01*
X149061714Y-94923428D01*
X148372285Y-94306571D02*
X148336000Y-94270285D01*
X148299714Y-94197714D01*
X148299714Y-94016285D01*
X148336000Y-93943714D01*
X148372285Y-93907428D01*
X148444857Y-93871142D01*
X148517428Y-93871142D01*
X148626285Y-93907428D01*
X149061714Y-94342857D01*
X149061714Y-93871142D01*
G04 #@! TO.C,Q3*
D22*
X149191738Y-101342976D02*
X149161500Y-101403452D01*
X149101023Y-101463928D01*
X149010309Y-101554642D01*
X148980071Y-101615119D01*
X148980071Y-101675595D01*
X149131261Y-101645357D02*
X149101023Y-101705833D01*
X149040547Y-101766309D01*
X148919595Y-101796547D01*
X148707928Y-101796547D01*
X148586976Y-101766309D01*
X148526500Y-101705833D01*
X148496261Y-101645357D01*
X148496261Y-101524404D01*
X148526500Y-101463928D01*
X148586976Y-101403452D01*
X148707928Y-101373214D01*
X148919595Y-101373214D01*
X149040547Y-101403452D01*
X149101023Y-101463928D01*
X149131261Y-101524404D01*
X149131261Y-101645357D01*
X148496261Y-101161547D02*
X148496261Y-100768452D01*
X148738166Y-100980119D01*
X148738166Y-100889404D01*
X148768404Y-100828928D01*
X148798642Y-100798690D01*
X148859119Y-100768452D01*
X149010309Y-100768452D01*
X149070785Y-100798690D01*
X149101023Y-100828928D01*
X149131261Y-100889404D01*
X149131261Y-101070833D01*
X149101023Y-101131309D01*
X149070785Y-101161547D01*
G04 #@! TO.C,R1*
X136304261Y-110659333D02*
X136001880Y-110871000D01*
X136304261Y-111022190D02*
X135669261Y-111022190D01*
X135669261Y-110780285D01*
X135699500Y-110719809D01*
X135729738Y-110689571D01*
X135790214Y-110659333D01*
X135880928Y-110659333D01*
X135941404Y-110689571D01*
X135971642Y-110719809D01*
X136001880Y-110780285D01*
X136001880Y-111022190D01*
X136304261Y-110054571D02*
X136304261Y-110417428D01*
X136304261Y-110236000D02*
X135669261Y-110236000D01*
X135759976Y-110296476D01*
X135820452Y-110356952D01*
X135850690Y-110417428D01*
G04 #@! TO.C,R2*
D12*
X132360609Y-108339466D02*
X132118704Y-108508800D01*
X132360609Y-108629752D02*
X131852609Y-108629752D01*
X131852609Y-108436228D01*
X131876800Y-108387847D01*
X131900990Y-108363657D01*
X131949371Y-108339466D01*
X132021942Y-108339466D01*
X132070323Y-108363657D01*
X132094514Y-108387847D01*
X132118704Y-108436228D01*
X132118704Y-108629752D01*
X131900990Y-108145942D02*
X131876800Y-108121752D01*
X131852609Y-108073371D01*
X131852609Y-107952419D01*
X131876800Y-107904038D01*
X131900990Y-107879847D01*
X131949371Y-107855657D01*
X131997752Y-107855657D01*
X132070323Y-107879847D01*
X132360609Y-108170133D01*
X132360609Y-107855657D01*
G04 #@! TO.C,R3*
X152883809Y-110828666D02*
X152641904Y-110998000D01*
X152883809Y-111118952D02*
X152375809Y-111118952D01*
X152375809Y-110925428D01*
X152400000Y-110877047D01*
X152424190Y-110852857D01*
X152472571Y-110828666D01*
X152545142Y-110828666D01*
X152593523Y-110852857D01*
X152617714Y-110877047D01*
X152641904Y-110925428D01*
X152641904Y-111118952D01*
X152375809Y-110659333D02*
X152375809Y-110344857D01*
X152569333Y-110514190D01*
X152569333Y-110441619D01*
X152593523Y-110393238D01*
X152617714Y-110369047D01*
X152666095Y-110344857D01*
X152787047Y-110344857D01*
X152835428Y-110369047D01*
X152859619Y-110393238D01*
X152883809Y-110441619D01*
X152883809Y-110586761D01*
X152859619Y-110635142D01*
X152835428Y-110659333D01*
G04 #@! TO.C,R4*
D22*
X148484166Y-107792761D02*
X148272500Y-107490380D01*
X148121309Y-107792761D02*
X148121309Y-107157761D01*
X148363214Y-107157761D01*
X148423690Y-107188000D01*
X148453928Y-107218238D01*
X148484166Y-107278714D01*
X148484166Y-107369428D01*
X148453928Y-107429904D01*
X148423690Y-107460142D01*
X148363214Y-107490380D01*
X148121309Y-107490380D01*
X149028452Y-107369428D02*
X149028452Y-107792761D01*
X148877261Y-107127523D02*
X148726071Y-107581095D01*
X149119166Y-107581095D01*
G04 #@! TO.C,R5*
X147861261Y-108182833D02*
X147558880Y-108394500D01*
X147861261Y-108545690D02*
X147226261Y-108545690D01*
X147226261Y-108303785D01*
X147256500Y-108243309D01*
X147286738Y-108213071D01*
X147347214Y-108182833D01*
X147437928Y-108182833D01*
X147498404Y-108213071D01*
X147528642Y-108243309D01*
X147558880Y-108303785D01*
X147558880Y-108545690D01*
X147226261Y-107608309D02*
X147226261Y-107910690D01*
X147528642Y-107940928D01*
X147498404Y-107910690D01*
X147468166Y-107850214D01*
X147468166Y-107699023D01*
X147498404Y-107638547D01*
X147528642Y-107608309D01*
X147589119Y-107578071D01*
X147740309Y-107578071D01*
X147800785Y-107608309D01*
X147831023Y-107638547D01*
X147861261Y-107699023D01*
X147861261Y-107850214D01*
X147831023Y-107910690D01*
X147800785Y-107940928D01*
G04 #@! TO.C,R6*
X135784166Y-94521261D02*
X135572500Y-94218880D01*
X135421309Y-94521261D02*
X135421309Y-93886261D01*
X135663214Y-93886261D01*
X135723690Y-93916500D01*
X135753928Y-93946738D01*
X135784166Y-94007214D01*
X135784166Y-94097928D01*
X135753928Y-94158404D01*
X135723690Y-94188642D01*
X135663214Y-94218880D01*
X135421309Y-94218880D01*
X136328452Y-93886261D02*
X136207500Y-93886261D01*
X136147023Y-93916500D01*
X136116785Y-93946738D01*
X136056309Y-94037452D01*
X136026071Y-94158404D01*
X136026071Y-94400309D01*
X136056309Y-94460785D01*
X136086547Y-94491023D01*
X136147023Y-94521261D01*
X136267976Y-94521261D01*
X136328452Y-94491023D01*
X136358690Y-94460785D01*
X136388928Y-94400309D01*
X136388928Y-94249119D01*
X136358690Y-94188642D01*
X136328452Y-94158404D01*
X136267976Y-94128166D01*
X136147023Y-94128166D01*
X136086547Y-94158404D01*
X136056309Y-94188642D01*
X136026071Y-94249119D01*
G04 #@! TO.C,R7*
X139975166Y-95562661D02*
X139763500Y-95260280D01*
X139612309Y-95562661D02*
X139612309Y-94927661D01*
X139854214Y-94927661D01*
X139914690Y-94957900D01*
X139944928Y-94988138D01*
X139975166Y-95048614D01*
X139975166Y-95139328D01*
X139944928Y-95199804D01*
X139914690Y-95230042D01*
X139854214Y-95260280D01*
X139612309Y-95260280D01*
X140186833Y-94927661D02*
X140610166Y-94927661D01*
X140338023Y-95562661D01*
G04 #@! TO.C,R8*
D10*
X146685000Y-98579214D02*
X146431000Y-98216357D01*
X146249571Y-98579214D02*
X146249571Y-97817214D01*
X146539857Y-97817214D01*
X146612428Y-97853500D01*
X146648714Y-97889785D01*
X146685000Y-97962357D01*
X146685000Y-98071214D01*
X146648714Y-98143785D01*
X146612428Y-98180071D01*
X146539857Y-98216357D01*
X146249571Y-98216357D01*
X147120428Y-98143785D02*
X147047857Y-98107500D01*
X147011571Y-98071214D01*
X146975285Y-97998642D01*
X146975285Y-97962357D01*
X147011571Y-97889785D01*
X147047857Y-97853500D01*
X147120428Y-97817214D01*
X147265571Y-97817214D01*
X147338142Y-97853500D01*
X147374428Y-97889785D01*
X147410714Y-97962357D01*
X147410714Y-97998642D01*
X147374428Y-98071214D01*
X147338142Y-98107500D01*
X147265571Y-98143785D01*
X147120428Y-98143785D01*
X147047857Y-98180071D01*
X147011571Y-98216357D01*
X146975285Y-98288928D01*
X146975285Y-98434071D01*
X147011571Y-98506642D01*
X147047857Y-98542928D01*
X147120428Y-98579214D01*
X147265571Y-98579214D01*
X147338142Y-98542928D01*
X147374428Y-98506642D01*
X147410714Y-98434071D01*
X147410714Y-98288928D01*
X147374428Y-98216357D01*
X147338142Y-98180071D01*
X147265571Y-98143785D01*
G04 #@! TO.C,R9*
D22*
X146337261Y-95736833D02*
X146034880Y-95948500D01*
X146337261Y-96099690D02*
X145702261Y-96099690D01*
X145702261Y-95857785D01*
X145732500Y-95797309D01*
X145762738Y-95767071D01*
X145823214Y-95736833D01*
X145913928Y-95736833D01*
X145974404Y-95767071D01*
X146004642Y-95797309D01*
X146034880Y-95857785D01*
X146034880Y-96099690D01*
X146337261Y-95434452D02*
X146337261Y-95313500D01*
X146307023Y-95253023D01*
X146276785Y-95222785D01*
X146186071Y-95162309D01*
X146065119Y-95132071D01*
X145823214Y-95132071D01*
X145762738Y-95162309D01*
X145732500Y-95192547D01*
X145702261Y-95253023D01*
X145702261Y-95373976D01*
X145732500Y-95434452D01*
X145762738Y-95464690D01*
X145823214Y-95494928D01*
X145974404Y-95494928D01*
X146034880Y-95464690D01*
X146065119Y-95434452D01*
X146095357Y-95373976D01*
X146095357Y-95253023D01*
X146065119Y-95192547D01*
X146034880Y-95162309D01*
X145974404Y-95132071D01*
G04 #@! TO.C,R10*
D12*
X151946428Y-98527809D02*
X151777095Y-98285904D01*
X151656142Y-98527809D02*
X151656142Y-98019809D01*
X151849666Y-98019809D01*
X151898047Y-98044000D01*
X151922238Y-98068190D01*
X151946428Y-98116571D01*
X151946428Y-98189142D01*
X151922238Y-98237523D01*
X151898047Y-98261714D01*
X151849666Y-98285904D01*
X151656142Y-98285904D01*
X152430238Y-98527809D02*
X152139952Y-98527809D01*
X152285095Y-98527809D02*
X152285095Y-98019809D01*
X152236714Y-98092380D01*
X152188333Y-98140761D01*
X152139952Y-98164952D01*
X152744714Y-98019809D02*
X152793095Y-98019809D01*
X152841476Y-98044000D01*
X152865666Y-98068190D01*
X152889857Y-98116571D01*
X152914047Y-98213333D01*
X152914047Y-98334285D01*
X152889857Y-98431047D01*
X152865666Y-98479428D01*
X152841476Y-98503619D01*
X152793095Y-98527809D01*
X152744714Y-98527809D01*
X152696333Y-98503619D01*
X152672142Y-98479428D01*
X152647952Y-98431047D01*
X152623761Y-98334285D01*
X152623761Y-98213333D01*
X152647952Y-98116571D01*
X152672142Y-98068190D01*
X152696333Y-98044000D01*
X152744714Y-98019809D01*
G04 #@! TO.C,R11*
D22*
X145130761Y-104040214D02*
X144828380Y-104251880D01*
X145130761Y-104403071D02*
X144495761Y-104403071D01*
X144495761Y-104161166D01*
X144526000Y-104100690D01*
X144556238Y-104070452D01*
X144616714Y-104040214D01*
X144707428Y-104040214D01*
X144767904Y-104070452D01*
X144798142Y-104100690D01*
X144828380Y-104161166D01*
X144828380Y-104403071D01*
X145130761Y-103435452D02*
X145130761Y-103798309D01*
X145130761Y-103616880D02*
X144495761Y-103616880D01*
X144586476Y-103677357D01*
X144646952Y-103737833D01*
X144677190Y-103798309D01*
X145130761Y-102830690D02*
X145130761Y-103193547D01*
X145130761Y-103012119D02*
X144495761Y-103012119D01*
X144586476Y-103072595D01*
X144646952Y-103133071D01*
X144677190Y-103193547D01*
G04 #@! TO.C,R12*
D12*
X144707428Y-107798809D02*
X144538095Y-107556904D01*
X144417142Y-107798809D02*
X144417142Y-107290809D01*
X144610666Y-107290809D01*
X144659047Y-107315000D01*
X144683238Y-107339190D01*
X144707428Y-107387571D01*
X144707428Y-107460142D01*
X144683238Y-107508523D01*
X144659047Y-107532714D01*
X144610666Y-107556904D01*
X144417142Y-107556904D01*
X145191238Y-107798809D02*
X144900952Y-107798809D01*
X145046095Y-107798809D02*
X145046095Y-107290809D01*
X144997714Y-107363380D01*
X144949333Y-107411761D01*
X144900952Y-107435952D01*
X145384761Y-107339190D02*
X145408952Y-107315000D01*
X145457333Y-107290809D01*
X145578285Y-107290809D01*
X145626666Y-107315000D01*
X145650857Y-107339190D01*
X145675047Y-107387571D01*
X145675047Y-107435952D01*
X145650857Y-107508523D01*
X145360571Y-107798809D01*
X145675047Y-107798809D01*
G04 #@! TO.C,R13*
D10*
X133059714Y-77578857D02*
X132696857Y-77832857D01*
X133059714Y-78014285D02*
X132297714Y-78014285D01*
X132297714Y-77724000D01*
X132334000Y-77651428D01*
X132370285Y-77615142D01*
X132442857Y-77578857D01*
X132551714Y-77578857D01*
X132624285Y-77615142D01*
X132660571Y-77651428D01*
X132696857Y-77724000D01*
X132696857Y-78014285D01*
X133059714Y-76853142D02*
X133059714Y-77288571D01*
X133059714Y-77070857D02*
X132297714Y-77070857D01*
X132406571Y-77143428D01*
X132479142Y-77216000D01*
X132515428Y-77288571D01*
X132297714Y-76599142D02*
X132297714Y-76127428D01*
X132588000Y-76381428D01*
X132588000Y-76272571D01*
X132624285Y-76200000D01*
X132660571Y-76163714D01*
X132733142Y-76127428D01*
X132914571Y-76127428D01*
X132987142Y-76163714D01*
X133023428Y-76200000D01*
X133059714Y-76272571D01*
X133059714Y-76490285D01*
X133023428Y-76562857D01*
X132987142Y-76599142D01*
G04 #@! TO.C,R14*
D12*
X153660928Y-98527809D02*
X153491595Y-98285904D01*
X153370642Y-98527809D02*
X153370642Y-98019809D01*
X153564166Y-98019809D01*
X153612547Y-98044000D01*
X153636738Y-98068190D01*
X153660928Y-98116571D01*
X153660928Y-98189142D01*
X153636738Y-98237523D01*
X153612547Y-98261714D01*
X153564166Y-98285904D01*
X153370642Y-98285904D01*
X154144738Y-98527809D02*
X153854452Y-98527809D01*
X153999595Y-98527809D02*
X153999595Y-98019809D01*
X153951214Y-98092380D01*
X153902833Y-98140761D01*
X153854452Y-98164952D01*
X154580166Y-98189142D02*
X154580166Y-98527809D01*
X154459214Y-97995619D02*
X154338261Y-98358476D01*
X154652738Y-98358476D01*
G04 #@! TO.C,U1*
D22*
X150265190Y-107665761D02*
X150265190Y-108179809D01*
X150295428Y-108240285D01*
X150325666Y-108270523D01*
X150386142Y-108300761D01*
X150507095Y-108300761D01*
X150567571Y-108270523D01*
X150597809Y-108240285D01*
X150628047Y-108179809D01*
X150628047Y-107665761D01*
X151263047Y-108300761D02*
X150900190Y-108300761D01*
X151081619Y-108300761D02*
X151081619Y-107665761D01*
X151021142Y-107756476D01*
X150960666Y-107816952D01*
X150900190Y-107847190D01*
G04 #@! TO.C,U2*
D10*
X135626928Y-95340714D02*
X135626928Y-95957571D01*
X135663214Y-96030142D01*
X135699500Y-96066428D01*
X135772071Y-96102714D01*
X135917214Y-96102714D01*
X135989785Y-96066428D01*
X136026071Y-96030142D01*
X136062357Y-95957571D01*
X136062357Y-95340714D01*
X136388928Y-95413285D02*
X136425214Y-95377000D01*
X136497785Y-95340714D01*
X136679214Y-95340714D01*
X136751785Y-95377000D01*
X136788071Y-95413285D01*
X136824357Y-95485857D01*
X136824357Y-95558428D01*
X136788071Y-95667285D01*
X136352642Y-96102714D01*
X136824357Y-96102714D01*
G04 #@! TO.C,U3*
D22*
X140613190Y-107030761D02*
X140613190Y-107544809D01*
X140643428Y-107605285D01*
X140673666Y-107635523D01*
X140734142Y-107665761D01*
X140855095Y-107665761D01*
X140915571Y-107635523D01*
X140945809Y-107605285D01*
X140976047Y-107544809D01*
X140976047Y-107030761D01*
X141217952Y-107030761D02*
X141611047Y-107030761D01*
X141399380Y-107272666D01*
X141490095Y-107272666D01*
X141550571Y-107302904D01*
X141580809Y-107333142D01*
X141611047Y-107393619D01*
X141611047Y-107544809D01*
X141580809Y-107605285D01*
X141550571Y-107635523D01*
X141490095Y-107665761D01*
X141308666Y-107665761D01*
X141248190Y-107635523D01*
X141217952Y-107605285D01*
G04 #@! TO.C,U4*
D10*
X151601714Y-95068571D02*
X152218571Y-95068571D01*
X152291142Y-95032285D01*
X152327428Y-94996000D01*
X152363714Y-94923428D01*
X152363714Y-94778285D01*
X152327428Y-94705714D01*
X152291142Y-94669428D01*
X152218571Y-94633142D01*
X151601714Y-94633142D01*
X151855714Y-93943714D02*
X152363714Y-93943714D01*
X151565428Y-94125142D02*
X152109714Y-94306571D01*
X152109714Y-93834857D01*
G04 #@! TO.C,U5*
D22*
X132358190Y-89568261D02*
X132358190Y-90082309D01*
X132388428Y-90142785D01*
X132418666Y-90173023D01*
X132479142Y-90203261D01*
X132600095Y-90203261D01*
X132660571Y-90173023D01*
X132690809Y-90142785D01*
X132721047Y-90082309D01*
X132721047Y-89568261D01*
X133325809Y-89568261D02*
X133023428Y-89568261D01*
X132993190Y-89870642D01*
X133023428Y-89840404D01*
X133083904Y-89810166D01*
X133235095Y-89810166D01*
X133295571Y-89840404D01*
X133325809Y-89870642D01*
X133356047Y-89931119D01*
X133356047Y-90082309D01*
X133325809Y-90142785D01*
X133295571Y-90173023D01*
X133235095Y-90203261D01*
X133083904Y-90203261D01*
X133023428Y-90173023D01*
X132993190Y-90142785D01*
G04 #@! TO.C,USB-UART1*
D15*
X139784666Y-110384166D02*
X139784666Y-111103833D01*
X139827000Y-111188500D01*
X139869333Y-111230833D01*
X139954000Y-111273166D01*
X140123333Y-111273166D01*
X140208000Y-111230833D01*
X140250333Y-111188500D01*
X140292666Y-111103833D01*
X140292666Y-110384166D01*
X140673666Y-111230833D02*
X140800666Y-111273166D01*
X141012333Y-111273166D01*
X141097000Y-111230833D01*
X141139333Y-111188500D01*
X141181666Y-111103833D01*
X141181666Y-111019166D01*
X141139333Y-110934500D01*
X141097000Y-110892166D01*
X141012333Y-110849833D01*
X140843000Y-110807500D01*
X140758333Y-110765166D01*
X140716000Y-110722833D01*
X140673666Y-110638166D01*
X140673666Y-110553500D01*
X140716000Y-110468833D01*
X140758333Y-110426500D01*
X140843000Y-110384166D01*
X141054666Y-110384166D01*
X141181666Y-110426500D01*
X141859000Y-110807500D02*
X141986000Y-110849833D01*
X142028333Y-110892166D01*
X142070666Y-110976833D01*
X142070666Y-111103833D01*
X142028333Y-111188500D01*
X141986000Y-111230833D01*
X141901333Y-111273166D01*
X141562666Y-111273166D01*
X141562666Y-110384166D01*
X141859000Y-110384166D01*
X141943666Y-110426500D01*
X141986000Y-110468833D01*
X142028333Y-110553500D01*
X142028333Y-110638166D01*
X141986000Y-110722833D01*
X141943666Y-110765166D01*
X141859000Y-110807500D01*
X141562666Y-110807500D01*
X142451666Y-110934500D02*
X143129000Y-110934500D01*
X143552333Y-110384166D02*
X143552333Y-111103833D01*
X143594666Y-111188500D01*
X143637000Y-111230833D01*
X143721666Y-111273166D01*
X143891000Y-111273166D01*
X143975666Y-111230833D01*
X144018000Y-111188500D01*
X144060333Y-111103833D01*
X144060333Y-110384166D01*
X144441333Y-111019166D02*
X144864666Y-111019166D01*
X144356666Y-111273166D02*
X144653000Y-110384166D01*
X144949333Y-111273166D01*
X145753666Y-111273166D02*
X145457333Y-110849833D01*
X145245666Y-111273166D02*
X145245666Y-110384166D01*
X145584333Y-110384166D01*
X145669000Y-110426500D01*
X145711333Y-110468833D01*
X145753666Y-110553500D01*
X145753666Y-110680500D01*
X145711333Y-110765166D01*
X145669000Y-110807500D01*
X145584333Y-110849833D01*
X145245666Y-110849833D01*
X146007666Y-110384166D02*
X146515666Y-110384166D01*
X146261666Y-111273166D02*
X146261666Y-110384166D01*
X147277666Y-111273166D02*
X146769666Y-111273166D01*
X147023666Y-111273166D02*
X147023666Y-110384166D01*
X146939000Y-110511166D01*
X146854333Y-110595833D01*
X146769666Y-110638166D01*
G04 #@! TO.C,RST1*
D10*
X133204857Y-112485714D02*
X132950857Y-112122857D01*
X132769428Y-112485714D02*
X132769428Y-111723714D01*
X133059714Y-111723714D01*
X133132285Y-111760000D01*
X133168571Y-111796285D01*
X133204857Y-111868857D01*
X133204857Y-111977714D01*
X133168571Y-112050285D01*
X133132285Y-112086571D01*
X133059714Y-112122857D01*
X132769428Y-112122857D01*
X133495142Y-112449428D02*
X133604000Y-112485714D01*
X133785428Y-112485714D01*
X133858000Y-112449428D01*
X133894285Y-112413142D01*
X133930571Y-112340571D01*
X133930571Y-112268000D01*
X133894285Y-112195428D01*
X133858000Y-112159142D01*
X133785428Y-112122857D01*
X133640285Y-112086571D01*
X133567714Y-112050285D01*
X133531428Y-112014000D01*
X133495142Y-111941428D01*
X133495142Y-111868857D01*
X133531428Y-111796285D01*
X133567714Y-111760000D01*
X133640285Y-111723714D01*
X133821714Y-111723714D01*
X133930571Y-111760000D01*
X134148285Y-111723714D02*
X134583714Y-111723714D01*
X134366000Y-112485714D02*
X134366000Y-111723714D01*
X135236857Y-112485714D02*
X134801428Y-112485714D01*
X135019142Y-112485714D02*
X135019142Y-111723714D01*
X134946571Y-111832571D01*
X134874000Y-111905142D01*
X134801428Y-111941428D01*
G04 #@! TD*
M02*
