G04 #@! TF.GenerationSoftware,KiCad,Pcbnew,6.0.0-rc1-unknown-829ba27~65~ubuntu16.04.1*
G04 #@! TF.CreationDate,2018-07-19T14:53:26+03:00*
G04 #@! TF.ProjectId,ESP32-DevKit-Lipo_Rev_A,45535033322D4465764B69742D4C6970,A*
G04 #@! TF.SameCoordinates,Original*
G04 #@! TF.FileFunction,Soldermask,Bot*
G04 #@! TF.FilePolarity,Negative*
%FSLAX46Y46*%
G04 Gerber Fmt 4.6, Leading zero omitted, Abs format (unit mm)*
G04 Created by KiCad (PCBNEW 6.0.0-rc1-unknown-829ba27~65~ubuntu16.04.1) date Thu Jul 19 14:53:26 2018*
%MOMM*%
%LPD*%
G01*
G04 APERTURE LIST*
%ADD10C,1.101600*%
%ADD11R,1.501600X1.501600*%
%ADD12C,1.501600*%
%ADD13C,1.879600*%
%ADD14R,1.879600X1.879600*%
%ADD15C,1.700000*%
%ADD16C,2.400000*%
%ADD17C,0.701600*%
%ADD18O,1.301600X1.901600*%
%ADD19C,0.801600*%
G04 APERTURE END LIST*
D10*
G04 #@! TO.C,GND1*
X151130000Y-118110000D03*
G04 #@! TD*
G04 #@! TO.C,D_Com1*
X153670000Y-118110000D03*
G04 #@! TD*
D11*
G04 #@! TO.C,BAT1*
X150375620Y-112925860D03*
D12*
X152387300Y-112923320D03*
G04 #@! TD*
D13*
G04 #@! TO.C,EXT1*
X130810000Y-80010000D03*
X130810000Y-77470000D03*
X130810000Y-74930000D03*
D14*
X130810000Y-72390000D03*
D13*
X130810000Y-82550000D03*
X130810000Y-85090000D03*
X130810000Y-90170000D03*
X130810000Y-87630000D03*
X130810000Y-92710000D03*
X130810000Y-95250000D03*
X130810000Y-100330000D03*
X130810000Y-97790000D03*
X130810000Y-102870000D03*
X130810000Y-105410000D03*
X130810000Y-110490000D03*
X130810000Y-107950000D03*
X130810000Y-118110000D03*
X130810000Y-115570000D03*
X130810000Y-113030000D03*
G04 #@! TD*
G04 #@! TO.C,EXT2*
X156210000Y-80010000D03*
X156210000Y-77470000D03*
X156210000Y-74930000D03*
D14*
X156210000Y-72390000D03*
D13*
X156210000Y-82550000D03*
X156210000Y-85090000D03*
X156210000Y-90170000D03*
X156210000Y-87630000D03*
X156210000Y-92710000D03*
X156210000Y-95250000D03*
X156210000Y-100330000D03*
X156210000Y-97790000D03*
X156210000Y-102870000D03*
X156210000Y-105410000D03*
X156210000Y-110490000D03*
X156210000Y-107950000D03*
X156210000Y-118110000D03*
X156210000Y-115570000D03*
X156210000Y-113030000D03*
G04 #@! TD*
D15*
G04 #@! TO.C,U5*
X141469600Y-82650800D03*
D16*
X143781000Y-80314000D03*
D15*
X146143200Y-82650800D03*
X141469600Y-77951800D03*
X146143200Y-77951800D03*
X143781000Y-77951800D03*
X143781000Y-82650800D03*
X141469600Y-80187000D03*
X146143200Y-80187000D03*
G04 #@! TD*
D17*
G04 #@! TO.C,USB-UART1*
X141510000Y-113797000D03*
X145510000Y-113797000D03*
D18*
X139910000Y-115947000D03*
X139910000Y-112477000D03*
X147110000Y-112477000D03*
X147110000Y-115947000D03*
G04 #@! TD*
D19*
G04 #@! TO.C,RST1*
X133135000Y-115570000D03*
X134835000Y-115570000D03*
G04 #@! TD*
M02*
