M48
;DRILL file {KiCad 6.0.0-rc1-unknown-829ba27~65~ubuntu16.04.1} date Thu Jul 19 14:53:50 2018
;FORMAT={-:-/ absolute / inch / decimal}
FMAT,2
INCH,TZ
T1C0.0157
T2C0.0236
T3C0.0354
T4C0.0394
%
G90
G05
M72
T1
X5.34Y-4.41
X5.345Y-3.3575
X5.345Y-3.4575
X5.3453Y-3.5075
X5.355Y-2.96
X5.395Y-3.62
X5.4Y-3.6575
X5.4428Y-3.5
X5.48Y-3.68
X5.48Y-3.465
X5.515Y-3.655
X5.585Y-4.355
X5.5928Y-3.965
X5.62Y-3.935
X5.6234Y-4.3541
X5.63Y-4.525
X5.65Y-3.47
X5.65Y-3.625
X5.82Y-3.8672
X5.835Y-3.98
X5.8405Y-3.7522
X5.86Y-3.72
X5.8697Y-3.6544
X5.89Y-3.6863
X5.905Y-3.87
X5.905Y-3.505
X5.905Y-3.62
X5.9479Y-3.9471
X5.985Y-3.78
X6.0534Y-3.8666
T2
X5.205Y-4.605
X5.22Y-2.839
X5.275Y-4.585
X5.295Y-4.24
X5.335Y-4.66
X5.365Y-3.9
X5.3863Y-4.1037
X5.39Y-3.325
X5.39Y-3.4
X5.39Y-3.475
X5.39Y-3.5675
X5.39Y-2.91
X5.39Y-3.255
X5.4Y-2.839
X5.42Y-4.36
X5.45Y-2.9
X5.45Y-3.
X5.45Y-3.1
X5.495Y-4.03
X5.5Y-2.839
X5.5Y-2.95
X5.5175Y-3.865
X5.5419Y-4.2594
X5.55Y-2.9
X5.555Y-3.8275
X5.555Y-3.9921
X5.555Y-4.07
X5.5697Y-3.3397
X5.59Y-3.7925
X5.6Y-2.839
X5.6Y-2.95
X5.6Y-3.4
X5.65Y-2.9
X5.66Y-3.34
X5.66Y-3.83
X5.66Y-4.07
X5.68Y-3.655
X5.685Y-4.525
X5.7Y-2.839
X5.7Y-2.95
X5.7Y-3.4
X5.71Y-4.265
X5.725Y-3.765
X5.75Y-2.9
X5.755Y-3.34
X5.78Y-4.27
X5.8Y-2.839
X5.8Y-2.95
X5.8Y-3.4
X5.845Y-4.615
X5.85Y-2.9
X5.85Y-3.
X5.85Y-3.1
X5.85Y-3.2
X5.85Y-3.3
X5.855Y-4.22
X5.8987Y-4.54
X5.9Y-2.839
X5.9Y-2.95
X5.945Y-4.125
X5.95Y-3.36
X5.95Y-3.41
X5.95Y-3.46
X5.95Y-3.51
X5.95Y-3.56
X6.075Y-2.839
X5.5697Y-3.069
X5.5697Y-3.157
X5.5697Y-3.254
X5.6607Y-3.069
X5.6607Y-3.254
X5.7537Y-3.069
X5.7537Y-3.157
X5.7537Y-3.254
T3
X5.9203Y-4.4459
X5.9995Y-4.4458
T4
X5.15Y-2.85
X5.15Y-2.95
X5.15Y-3.05
X5.15Y-3.15
X5.15Y-3.25
X5.15Y-3.35
X5.15Y-3.45
X5.15Y-3.55
X5.15Y-3.65
X5.15Y-3.75
X5.15Y-3.85
X5.15Y-3.95
X5.15Y-4.05
X5.15Y-4.15
X5.15Y-4.25
X5.15Y-4.35
X5.15Y-4.45
X5.15Y-4.55
X5.15Y-4.65
X5.6607Y-3.162
X6.15Y-2.85
X6.15Y-2.95
X6.15Y-3.05
X6.15Y-3.15
X6.15Y-3.25
X6.15Y-3.35
X6.15Y-3.45
X6.15Y-3.55
X6.15Y-3.65
X6.15Y-3.75
X6.15Y-3.85
X6.15Y-3.95
X6.15Y-4.05
X6.15Y-4.15
X6.15Y-4.25
X6.15Y-4.35
X6.15Y-4.45
X6.15Y-4.55
X6.15Y-4.65
T2
X5.5083Y-4.4164G85X5.5083Y-4.44
G05
X5.5083Y-4.553G85X5.5083Y-4.5767
G05
X5.7917Y-4.4164G85X5.7917Y-4.44
G05
X5.7917Y-4.553G85X5.7917Y-4.5767
G05
T0
M30
